<svg width="16" height="16" viewBox="0 0 16 16" fill="none" xmlns="http://www.w3.org/2000/svg">
<path d="M15.5554 7.55556C15.5554 11.7284 9.67856 16 7.99989 16C6.32078 16 0.444336 11.7284 0.444336 7.55556C0.444336 3.38267 3.827 0 7.99989 0C12.1728 0 15.5554 3.38267 15.5554 7.55556Z" fill="#CCD6DD"/>
<path d="M6.00138 6.5978C7.38982 7.98625 7.95249 9.67469 7.25827 10.3689C6.56405 11.0631 4.8756 10.5009 3.48716 9.11202C2.09827 7.72358 1.5356 6.03514 2.23027 5.34091C2.92493 4.64669 4.61293 5.20936 6.00138 6.5978ZM9.99871 6.5978C8.61027 7.98625 8.0476 9.67469 8.74182 10.3689C9.43605 11.0631 11.1245 10.5009 12.5129 9.11202C13.9018 7.72314 14.4645 6.03514 13.7698 5.34091C13.0756 4.64669 11.3872 5.20891 9.99871 6.5978ZM8.00005 13.7778C6.95693 13.7778 6.41116 13.2622 6.35249 13.2031C6.26856 13.1204 6.22095 13.0077 6.22011 12.8898C6.21928 12.772 6.2653 12.6586 6.34805 12.5747C6.43079 12.4908 6.54349 12.4431 6.66135 12.4423C6.7792 12.4415 6.89256 12.4875 6.97649 12.5702C6.99916 12.5911 7.33471 12.8889 8.00005 12.8889C8.67516 12.8889 9.01027 12.5827 9.02449 12.5694C9.10979 12.4893 9.22304 12.4458 9.34001 12.4482C9.45697 12.4506 9.56834 12.4987 9.65027 12.5822C9.73156 12.6652 9.77686 12.7769 9.77636 12.893C9.77586 13.0092 9.7296 13.1204 9.6476 13.2027C9.58893 13.2622 9.04316 13.7778 8.00005 13.7778Z" fill="#292F33"/>
</svg>
