<svg width="37" height="26" viewBox="0 0 37 26" fill="none" xmlns="http://www.w3.org/2000/svg">
<path d="M1 23.4992C1 23.4992 1.4588 24.9268 4.50198 25.0001H5C11.2284 24.8579 11 17.9987 11.5 13.9989C12 9.99916 11.8458 0.903962 17 1.00077C21.2817 1.08118 23.8932 13.213 28 11.9989C29.9905 11.4105 33.5 5.00007 33.5 5.00007V25.0001H5C4.82675 25.004 4.66084 25.0039 4.50198 25.0001H1V23.4992Z" fill="url(#paint0_linear_6920_91013)"/>
<path d="M1.47602 23.3462C1.39154 23.0833 1.10992 22.9387 0.847024 23.0231C0.584123 23.1076 0.43949 23.3892 0.523977 23.6521L1.47602 23.3462ZM5 25.0001L5.01141 25.4999L5 25.0001ZM17 1.00077L17.0094 0.500855L17 1.00077ZM28 11.9989L28.1417 12.4784L28 11.9989ZM30.8333 5.00007C30.8333 6.47282 32.0272 7.66673 33.5 7.66673C34.9728 7.66673 36.1667 6.47282 36.1667 5.00007C36.1667 3.52731 34.9728 2.3334 33.5 2.3334C32.0272 2.3334 30.8333 3.52731 30.8333 5.00007ZM1 23.4992C0.523977 23.6521 0.52413 23.6526 0.524285 23.6531C0.52434 23.6533 0.524498 23.6538 0.524608 23.6541C0.524828 23.6548 0.525058 23.6555 0.525298 23.6562C0.525777 23.6576 0.526296 23.6592 0.526856 23.6608C0.527975 23.6641 0.529258 23.6678 0.530714 23.6719C0.533627 23.6801 0.537237 23.6898 0.541628 23.7009C0.550409 23.723 0.562322 23.7509 0.578044 23.7836C0.6095 23.849 0.656181 23.9336 0.723434 24.0304C0.85859 24.2247 1.07399 24.4637 1.40832 24.6923C2.07953 25.1511 3.1901 25.5415 5.01141 25.4999L4.98859 24.5002C3.31786 24.5383 2.42842 24.1783 1.97265 23.8667C1.74348 23.7101 1.61364 23.5589 1.54443 23.4594C1.5095 23.4092 1.48921 23.3709 1.47925 23.3502C1.47426 23.3399 1.47185 23.3339 1.47149 23.3329C1.4713 23.3325 1.47164 23.3333 1.47241 23.3355C1.4728 23.3366 1.4733 23.338 1.47391 23.3398C1.47421 23.3407 1.47454 23.3416 1.47489 23.3427C1.47507 23.3432 1.47525 23.3438 1.47544 23.3444C1.47553 23.3447 1.47568 23.3451 1.47573 23.3453C1.47587 23.3457 1.47602 23.3462 1 23.4992ZM5.01141 25.4999C6.66694 25.4621 7.93434 24.9744 8.89485 24.1662C9.84776 23.3644 10.4597 22.2801 10.8699 21.1118C11.2798 19.9446 11.4979 18.6657 11.6457 17.4454C11.7197 16.8339 11.7767 16.2309 11.8304 15.6611C11.8844 15.0885 11.9348 14.5519 11.9961 14.061L11.0039 13.9369C10.9402 14.4459 10.8884 14.9987 10.8348 15.5673C10.781 16.1387 10.7251 16.7289 10.6529 17.3252C10.5082 18.5203 10.3005 19.7151 9.9264 20.7804C9.5527 21.8447 9.02264 22.7518 8.25102 23.401C7.48698 24.0439 6.44728 24.4669 4.98859 24.5002L5.01141 25.4999ZM11.9961 14.061C12.1219 13.0547 12.2094 11.7012 12.3432 10.315C12.479 8.90792 12.665 7.42713 12.9907 6.08122C13.318 4.72822 13.776 3.55792 14.4276 2.73995C15.062 1.94357 15.8775 1.47977 16.9906 1.50068L17.0094 0.500855C15.5454 0.473358 14.4474 1.11016 13.6454 2.11689C12.8607 3.10204 12.3596 4.43737 12.0187 5.84604C11.6761 7.26181 11.4848 8.79873 11.3478 10.2189C11.2088 11.66 11.1281 12.9433 11.0039 13.9369L11.9961 14.061ZM16.9906 1.50068C17.822 1.51629 18.6613 2.12546 19.5584 3.23777C20.4409 4.33201 21.276 5.77974 22.1347 7.23885C22.979 8.67358 23.8508 10.128 24.7826 11.1422C25.7068 12.1481 26.8286 12.8666 28.1417 12.4784L27.8583 11.5194C27.118 11.7383 26.3733 11.3955 25.519 10.4657C24.6724 9.54415 23.8537 8.1882 22.9965 6.73168C22.1537 5.29954 21.2765 3.77513 20.3368 2.60999C19.4116 1.46291 18.3189 0.525449 17.0094 0.500855L16.9906 1.50068ZM28.1417 12.4784C28.4806 12.3783 28.8126 12.1684 29.1222 11.9181C29.4369 11.6636 29.7572 11.3437 30.0725 10.9897C30.7031 10.2817 31.3428 9.40414 31.9115 8.55769C32.4817 7.70903 32.9879 6.88053 33.3511 6.26503C33.5329 5.95699 33.6793 5.70163 33.7805 5.52293C33.831 5.43356 33.8703 5.36332 33.8971 5.31521C33.9105 5.29115 33.9207 5.27262 33.9277 5.25999C33.9312 5.25367 33.9338 5.24883 33.9356 5.24551C33.9366 5.24385 33.9373 5.24258 33.9377 5.24168C33.938 5.24124 33.9382 5.24089 33.9383 5.24063C33.9384 5.24051 33.9385 5.24039 33.9385 5.24033C33.9385 5.24024 33.9386 5.24017 33.5 5.00007C33.0614 4.75996 33.0614 4.75994 33.0614 4.75995C33.0614 4.75998 33.0614 4.76001 33.0614 4.76008C33.0613 4.76022 33.0612 4.76045 33.061 4.76078C33.0606 4.76144 33.06 4.76249 33.0593 4.76391C33.0577 4.76676 33.0553 4.77113 33.0521 4.77696C33.0456 4.78862 33.0359 4.80616 33.0231 4.82919C32.9975 4.87527 32.9594 4.94333 32.9102 5.0304C32.8116 5.20456 32.6683 5.45462 32.4899 5.75676C32.133 6.3616 31.6374 7.17248 31.0814 7.99999C30.5239 8.82971 29.913 9.66513 29.3257 10.3246C29.0321 10.6543 28.7517 10.9317 28.4935 11.1404C28.2302 11.3533 28.0171 11.4725 27.8583 11.5194L28.1417 12.4784Z" fill="#ACB5BD"/>
<defs>
<linearGradient id="paint0_linear_6920_91013" x1="17" y1="0.5" x2="17.25" y2="25.003" gradientUnits="userSpaceOnUse">
<stop offset="0.253958" stop-color="#C6CED6" stop-opacity="0.7"/>
<stop offset="1" stop-color="#858E96" stop-opacity="0"/>
</linearGradient>
</defs>
</svg>
