<svg width="225" height="172" viewBox="0 0 225 172" fill="none" xmlns="http://www.w3.org/2000/svg">
<path d="M180.708 50.9526H180.659L152.217 63.0972L113.304 79.7136C113.152 79.7776 112.989 79.811 112.824 79.8118C112.659 79.8127 112.495 79.781 112.342 79.7186L72.195 63.0625L43.0549 50.9725L43.0104 50.9526H42.9608C42.501 50.9531 42.0602 51.136 41.7351 51.4611C41.41 51.7863 41.2271 52.2271 41.2266 52.6869V128.002C41.2271 128.462 41.41 128.903 41.7351 129.228C42.0602 129.553 42.501 129.736 42.9608 129.736H180.708C181.168 129.736 181.609 129.553 181.934 129.228C182.259 128.903 182.442 128.462 182.443 128.002V52.6869C182.442 52.2271 182.259 51.7863 181.934 51.4611C181.609 51.136 181.168 50.9531 180.708 50.9526Z" fill="white"/>
<path d="M180.843 51.4476C180.793 51.4477 180.743 51.4322 180.702 51.4032L112.185 3.68622C111.977 3.54168 111.729 3.46444 111.475 3.46487C111.222 3.4653 110.974 3.54339 110.766 3.68863L42.7428 51.4028C42.689 51.4402 42.6226 51.4548 42.558 51.4434C42.4935 51.4319 42.4361 51.3953 42.3984 51.3417C42.3608 51.288 42.346 51.2216 42.3572 51.157C42.3684 51.0924 42.4047 51.0349 42.4583 50.997L110.482 3.28292C110.773 3.07961 111.119 2.97031 111.474 2.96973C111.83 2.96915 112.177 3.0773 112.468 3.27965L180.985 50.9965C181.028 51.0267 181.061 51.0699 181.078 51.1198C181.095 51.1698 181.096 51.2238 181.08 51.2742C181.064 51.3245 181.033 51.3684 180.99 51.3996C180.948 51.4308 180.896 51.4477 180.843 51.4476Z" fill="#737373"/>
<path d="M46.6191 53.1389L111.532 5.03052L176.937 56.5619L114.876 93.3522L81.1828 85.6723L46.6191 53.1389Z" fill="#E5E5E5"/>
<path d="M84.0318 116.076H51.9633C51.566 116.077 51.1847 115.919 50.9033 115.639C50.6219 115.358 50.4635 114.977 50.4629 114.58C50.4623 114.183 50.6196 113.801 50.9001 113.52C51.1807 113.239 51.5616 113.08 51.9589 113.08H84.0318C84.4292 113.079 84.8105 113.236 85.0919 113.517C85.3733 113.797 85.5317 114.178 85.5323 114.576C85.5329 114.973 85.3756 115.354 85.095 115.636C84.8145 115.917 84.4336 116.075 84.0363 116.076H84.0318Z" fill="#3F76FF"/>
<path d="M63.4697 109.635H51.9642C51.5671 109.635 51.186 109.478 50.9049 109.197C50.6237 108.916 50.4654 108.536 50.4648 108.139C50.4643 107.741 50.6214 107.36 50.9017 107.079C51.1821 106.798 51.5626 106.639 51.9598 106.638H63.4697C63.6665 106.638 63.8615 106.676 64.0435 106.751C64.2255 106.826 64.391 106.936 64.5304 107.075C64.6699 107.214 64.7806 107.379 64.8562 107.561C64.9318 107.742 64.9709 107.937 64.9712 108.134C64.9715 108.331 64.933 108.526 64.8579 108.708C64.7828 108.89 64.6726 109.055 64.5335 109.195C64.3945 109.334 64.2294 109.445 64.0476 109.52C63.8659 109.596 63.671 109.634 63.4741 109.635H63.4697Z" fill="#3F76FF"/>
<path d="M112.457 79.9355C112.214 79.9357 111.972 79.8884 111.747 79.7962L71.7129 63.185V11.1893C71.7134 10.7295 71.8963 10.2887 72.2214 9.96362C72.5465 9.6385 72.9873 9.45562 73.4471 9.45508H150.249C150.709 9.45562 151.149 9.6385 151.475 9.96362C151.8 10.2887 151.983 10.7295 151.983 11.1893V63.2213L151.908 63.2535L113.19 79.7881C112.958 79.8855 112.709 79.9356 112.457 79.9355Z" fill="white"/>
<path d="M112.449 80.0571C112.189 80.0574 111.931 80.007 111.69 79.9088L71.5801 63.2657V11.1872C71.5806 10.6946 71.7766 10.2223 72.1249 9.87394C72.4733 9.5256 72.9456 9.32966 73.4382 9.3291H150.24C150.733 9.32966 151.205 9.5256 151.553 9.87394C151.902 10.2223 152.097 10.6946 152.098 11.1872V63.301L113.229 79.8999C112.982 80.0039 112.717 80.0574 112.449 80.0571ZM72.0756 62.9347L111.879 79.4507C112.251 79.6013 112.666 79.5989 113.036 79.4438L151.603 62.9739V11.1872C151.602 10.826 151.458 10.4796 151.203 10.2242C150.948 9.96874 150.601 9.82505 150.24 9.82462H73.4382C73.0769 9.82505 72.7306 9.96874 72.4752 10.2242C72.2197 10.4796 72.076 10.826 72.0756 11.1872L72.0756 62.9347Z" fill="#737373"/>
<path d="M180.333 50.9526H180.284L151.842 63.0972L112.929 79.7136C112.777 79.7776 112.614 79.811 112.449 79.8118C112.284 79.8127 112.12 79.781 111.967 79.7186L71.82 63.0625L42.6799 50.9725L42.6354 50.9526H42.5858C42.126 50.9531 41.6852 51.136 41.3601 51.4611C41.035 51.7863 40.8521 52.2271 40.8516 52.6869V128.002C40.8521 128.462 41.035 128.903 41.3601 129.228C41.6852 129.553 42.126 129.736 42.5858 129.736H180.333C180.793 129.736 181.234 129.553 181.559 129.228C181.884 128.903 182.067 128.462 182.068 128.002V52.6869C182.067 52.2271 181.884 51.7863 181.559 51.4611C181.234 51.136 180.793 50.9531 180.333 50.9526ZM181.572 128.002C181.572 128.331 181.441 128.646 181.209 128.878C180.977 129.11 180.662 129.241 180.333 129.241H42.5858C42.2573 129.241 41.9423 129.11 41.71 128.878C41.4777 128.646 41.3472 128.331 41.3471 128.002V52.6869C41.3475 52.3665 41.4717 52.0588 41.6938 51.8279C41.9159 51.5971 42.2186 51.461 42.5387 51.4481L71.82 63.5977L111.777 80.1769C112.209 80.3529 112.694 80.3502 113.124 80.1695L151.842 63.6348L180.383 51.4481C180.702 51.4619 181.004 51.5984 181.226 51.8291C181.447 52.0598 181.571 52.367 181.572 52.6869V128.002Z" fill="#737373"/>
<path d="M106.214 28.8902H78.9616C78.4364 28.8895 77.933 28.6803 77.562 28.3087C77.1909 27.9371 76.9824 27.4334 76.9824 26.9083C76.9824 26.3831 77.1909 25.8794 77.562 25.5078C77.933 25.1362 78.4364 24.927 78.9616 24.9263H106.214C106.739 24.927 107.242 25.1362 107.613 25.5078C107.985 25.8794 108.193 26.3831 108.193 26.9083C108.193 27.4334 107.985 27.9371 107.613 28.3087C107.242 28.6803 106.739 28.8895 106.214 28.8902Z" fill="#3F76FF"/>
<path d="M92.095 20.4671H78.9644C78.4387 20.4671 77.9346 20.2583 77.5629 19.8866C77.1912 19.5149 76.9824 19.0108 76.9824 18.4851C76.9824 17.9595 77.1912 17.4554 77.5629 17.0837C77.9346 16.712 78.4387 16.5032 78.9644 16.5032H92.095C92.6207 16.5032 93.1248 16.712 93.4965 17.0837C93.8682 17.4554 94.077 17.9595 94.077 18.4851C94.077 19.0108 93.8682 19.5149 93.4965 19.8866C93.1248 20.2583 92.6207 20.4671 92.095 20.4671Z" fill="#3F76FF"/>
<path d="M132.224 48.7101H90.6022C90.077 48.7093 89.5736 48.5002 89.2026 48.1286C88.8315 47.7569 88.623 47.2532 88.623 46.7281C88.623 46.2029 88.8315 45.6992 89.2026 45.3276C89.5736 44.956 90.077 44.7468 90.6022 44.7461H132.224C132.749 44.7468 133.252 44.956 133.623 45.3276C133.995 45.6992 134.203 46.2029 134.203 46.7281C134.203 47.2532 133.995 47.7569 133.623 48.1286C133.252 48.5002 132.749 48.7093 132.224 48.7101Z" fill="#D4D4D4"/>
<path d="M132.227 57.8775H90.605C90.0794 57.8775 89.5753 57.6687 89.2036 57.297C88.8319 56.9253 88.623 56.4212 88.623 55.8956C88.623 55.3699 88.8319 54.8658 89.2036 54.4941C89.5753 54.1224 90.0794 53.9136 90.605 53.9136H132.227C132.752 53.9136 133.256 54.1224 133.628 54.4941C134 54.8658 134.209 55.3699 134.209 55.8956C134.209 56.4212 134 56.9253 133.628 57.297C133.256 57.6687 132.752 57.8775 132.227 57.8775Z" fill="#D4D4D4"/>
<path d="M4.31884 18.8089C4.1902 18.7329 4.04274 18.6946 3.89335 18.6985C3.74396 18.7024 3.59869 18.7483 3.47421 18.831C3.34972 18.9137 3.25105 19.0298 3.1895 19.1659C3.12795 19.3021 3.10603 19.4529 3.12622 19.6009L3.74041 24.1058C3.74886 24.1722 3.74432 24.2396 3.72705 24.3043C3.70779 24.368 3.67565 24.4271 3.63263 24.4778L0.192651 28.5531C0.0777315 28.6843 0.0102569 28.8503 0.00107788 29.0244C-0.00810114 29.1986 0.0415537 29.3708 0.142047 29.5133L0.145653 29.5185C0.241921 29.6626 0.38362 29.7703 0.548188 29.8245C0.712756 29.8787 0.89073 29.8763 1.05378 29.8177L3.53806 28.9745C3.62041 28.9472 3.70862 28.9429 3.79325 28.9619C3.87788 28.981 3.95574 29.0227 4.01849 29.0826C4.0653 29.1259 4.10263 29.1785 4.12813 29.237C4.15363 29.2955 4.16674 29.3586 4.16664 29.4224L4.26375 38.2739C4.26476 38.402 4.29696 38.528 4.35755 38.6409C4.41814 38.7538 4.50531 38.8502 4.61153 38.9219C4.71736 38.9934 4.83881 39.0385 4.96568 39.0532C5.09255 39.068 5.22111 39.0521 5.34055 39.0068L23.8825 31.9156C24.0224 31.8624 24.1443 31.7708 24.2344 31.6514C24.3245 31.532 24.379 31.3895 24.3918 31.2405C24.4045 31.0914 24.3749 30.9418 24.3064 30.8088C24.2379 30.6759 24.1332 30.5649 24.0045 30.4888L23.752 30.3388L4.31884 18.8089ZM3.44013 19.5577C3.4282 19.4688 3.44155 19.3783 3.47865 19.2966C3.51575 19.2149 3.57511 19.1454 3.64991 19.0958C3.72472 19.0463 3.81195 19.0189 3.90163 19.0166C3.99131 19.0144 4.07981 19.0375 4.15699 19.0832L23.584 30.6097L23.8426 30.763C23.9194 30.8089 23.9818 30.8755 24.0226 30.9552C24.0635 31.0348 24.0811 31.1243 24.0735 31.2135C24.0659 31.3027 24.0335 31.388 23.9798 31.4596C23.9261 31.5313 23.8534 31.5864 23.7699 31.6187L5.22796 38.71C5.15625 38.7373 5.07901 38.7468 5.00281 38.7379C4.9266 38.7289 4.85369 38.7017 4.79027 38.6585C4.72684 38.6153 4.67476 38.5575 4.63848 38.4898C4.6022 38.4222 4.58278 38.3469 4.58185 38.2702L4.48477 29.4188C4.48483 29.3312 4.46979 29.2443 4.4403 29.1618L23.3178 31.3308C23.3914 31.34 23.4659 31.3232 23.5284 31.2832C23.5909 31.2433 23.6376 31.1828 23.6602 31.1122C23.6828 31.0415 23.6801 30.9652 23.6524 30.8963C23.6247 30.8275 23.5738 30.7705 23.5085 30.7352C23.4927 30.7264 23.4761 30.7192 23.4588 30.7136L4.06 24.2382C4.0647 24.1796 4.0628 24.1207 4.05432 24.0625L3.44013 19.5577Z" fill="#FAFAFA"/>
<path d="M4.31884 18.8089C4.1902 18.7329 4.04274 18.6946 3.89335 18.6985C3.74396 18.7024 3.59869 18.7483 3.47421 18.831C3.34972 18.9137 3.25105 19.0298 3.1895 19.1659C3.12795 19.3021 3.10603 19.4529 3.12622 19.6009L3.74041 24.1058C3.74886 24.1722 3.74432 24.2396 3.72705 24.3043C3.70779 24.368 3.67565 24.4271 3.63263 24.4778L0.192651 28.5531C0.0777315 28.6843 0.0102569 28.8503 0.00107788 29.0244C-0.00810114 29.1986 0.0415537 29.3708 0.142047 29.5133L0.145653 29.5185C0.241921 29.6626 0.38362 29.7703 0.548188 29.8245C0.712756 29.8787 0.89073 29.8763 1.05378 29.8177L3.53806 28.9745C3.62041 28.9472 3.70862 28.9429 3.79325 28.9619C3.87788 28.981 3.95574 29.0227 4.01849 29.0826C4.0653 29.1259 4.10263 29.1785 4.12813 29.237C4.15363 29.2955 4.16674 29.3586 4.16664 29.4224L4.26375 38.2739C4.26476 38.402 4.29696 38.528 4.35755 38.6409C4.41814 38.7538 4.50531 38.8502 4.61153 38.9219C4.71736 38.9934 4.83881 39.0385 4.96568 39.0532C5.09255 39.068 5.22111 39.0521 5.34055 39.0068L23.8825 31.9156C24.0224 31.8624 24.1443 31.7708 24.2344 31.6514C24.3245 31.532 24.379 31.3895 24.3918 31.2405C24.4045 31.0914 24.3749 30.9418 24.3064 30.8088C24.2379 30.6759 24.1332 30.5649 24.0045 30.4888L23.752 30.3388L4.31884 18.8089ZM3.44013 19.5577C3.4282 19.4688 3.44155 19.3783 3.47865 19.2966C3.51575 19.2149 3.57511 19.1454 3.64991 19.0958C3.72472 19.0463 3.81195 19.0189 3.90163 19.0166C3.99131 19.0144 4.07981 19.0375 4.15699 19.0832L23.584 30.6097L23.8426 30.763C23.9194 30.8089 23.9818 30.8755 24.0226 30.9552C24.0635 31.0348 24.0811 31.1243 24.0735 31.2135C24.0659 31.3027 24.0335 31.388 23.9798 31.4596C23.9261 31.5313 23.8534 31.5864 23.7699 31.6187L5.22796 38.71C5.15625 38.7372 5.07901 38.7468 5.00281 38.7378C4.92661 38.7289 4.85369 38.7016 4.79027 38.6585C4.72684 38.6153 4.67478 38.5574 4.63849 38.4898C4.60221 38.4222 4.58278 38.3469 4.58185 38.2701L4.48476 29.4188C4.48482 29.3312 4.46978 29.2443 4.44029 29.1618C4.39874 29.043 4.32884 28.9362 4.23664 28.8506C4.22409 28.838 4.21025 28.8264 4.19636 28.8147L4.19548 28.8134C4.09132 28.7274 3.96692 28.6694 3.83408 28.645C3.70123 28.6206 3.56435 28.6306 3.43642 28.6739L0.950856 29.518C0.852886 29.5536 0.74577 29.555 0.646894 29.522C0.548019 29.4891 0.463174 29.4237 0.406114 29.3365L0.404305 29.3339C0.343313 29.2487 0.313121 29.1453 0.318699 29.0407C0.324276 28.9361 0.365294 28.8364 0.434997 28.7582L3.87503 24.683C3.91181 24.6403 3.94366 24.5936 3.97001 24.5438L3.97132 24.5429C3.99674 24.4953 4.01703 24.445 4.03182 24.393C4.0467 24.3426 4.05614 24.2907 4.06001 24.2383C4.06471 24.1797 4.06281 24.1207 4.05433 24.0625L3.44013 19.5577Z" fill="#A3A3A3"/>
<path d="M4.05073 24.2382L23.4495 30.7135C23.4668 30.7191 23.4834 30.7263 23.4993 30.7351C23.5645 30.7704 23.6154 30.8274 23.6431 30.8962C23.6707 30.9651 23.6735 31.0414 23.6509 31.1121C23.6282 31.1827 23.5816 31.2432 23.5191 31.2831C23.4566 31.3231 23.3821 31.3399 23.3085 31.3307L4.43101 29.1617L4.09764 29.1237L4.13455 28.8084L4.1862 28.8133L4.18707 28.8146L23.3445 31.0141L3.96204 24.5428L3.96073 24.5437L3.87695 24.5148L3.97757 24.2134L4.05073 24.2382Z" fill="#A3A3A3"/>
<path d="M220.658 0.110677L201.225 11.6406L200.972 11.7905C200.843 11.8667 200.739 11.9776 200.67 12.1106C200.602 12.2436 200.572 12.3932 200.585 12.5423C200.598 12.6913 200.652 12.8337 200.742 12.9532C200.832 13.0726 200.954 13.1641 201.094 13.2173L219.636 20.3086C219.756 20.3539 219.884 20.3698 220.011 20.355C220.138 20.3402 220.259 20.2952 220.365 20.2237C220.471 20.152 220.559 20.0555 220.619 19.9426C220.68 19.8297 220.712 19.7038 220.713 19.5756L220.81 10.7242C220.81 10.6604 220.823 10.5973 220.849 10.5388C220.874 10.4803 220.911 10.4277 220.958 10.3843C221.021 10.3244 221.099 10.2827 221.183 10.2637C221.268 10.2447 221.356 10.249 221.439 10.2762L223.923 11.1194C224.086 11.1781 224.264 11.1805 224.429 11.1263C224.593 11.072 224.735 10.9643 224.831 10.8203L224.835 10.815C224.935 10.6725 224.985 10.5003 224.976 10.3262C224.966 10.152 224.899 9.98603 224.784 9.85486L221.344 5.77957C221.301 5.72882 221.269 5.66977 221.25 5.60608C221.232 5.54139 221.228 5.47396 221.236 5.40754L221.85 0.902707C221.871 0.75464 221.849 0.603882 221.787 0.467707C221.726 0.331533 221.627 0.215459 221.502 0.132785C221.378 0.0501121 221.233 0.00418352 221.083 0.000272462C220.934 -0.0036386 220.786 0.0346305 220.658 0.110677ZM221.537 0.859443L220.922 5.36426C220.914 5.42244 220.912 5.4814 220.917 5.54001L201.518 12.0154C201.501 12.0209 201.484 12.0282 201.468 12.037C201.403 12.0723 201.352 12.1293 201.324 12.1981C201.297 12.2669 201.294 12.3433 201.317 12.4139C201.339 12.4846 201.386 12.5451 201.448 12.585C201.511 12.6249 201.585 12.6417 201.659 12.6325L220.536 10.4636C220.507 10.546 220.492 10.633 220.492 10.7206L220.395 19.5719C220.394 19.6486 220.375 19.724 220.338 19.7916C220.302 19.8592 220.25 19.9171 220.186 19.9602C220.123 20.0034 220.05 20.0306 219.974 20.0396C219.898 20.0486 219.82 20.039 219.749 20.0117L201.207 12.9205C201.123 12.8882 201.051 12.833 200.997 12.7614C200.943 12.6898 200.911 12.6045 200.903 12.5153C200.896 12.4261 200.913 12.3366 200.954 12.2569C200.995 12.1773 201.057 12.1107 201.134 12.0647L201.393 11.9114L220.82 0.384924C220.897 0.339207 220.985 0.316151 221.075 0.318391C221.165 0.320631 221.252 0.348079 221.327 0.397593C221.402 0.447106 221.461 0.516681 221.498 0.598356C221.535 0.680032 221.549 0.770532 221.537 0.859443Z" fill="#FAFAFA"/>
<path d="M220.658 0.110677L201.225 11.6406L200.972 11.7905C200.843 11.8667 200.739 11.9776 200.67 12.1106C200.602 12.2436 200.572 12.3932 200.585 12.5423C200.598 12.6913 200.652 12.8337 200.742 12.9532C200.832 13.0726 200.954 13.1641 201.094 13.2173L219.636 20.3086C219.756 20.3539 219.884 20.3698 220.011 20.355C220.138 20.3402 220.259 20.2952 220.365 20.2237C220.471 20.152 220.559 20.0555 220.619 19.9426C220.68 19.8297 220.712 19.7038 220.713 19.5756L220.81 10.7242C220.81 10.6604 220.823 10.5973 220.849 10.5388C220.874 10.4803 220.911 10.4277 220.958 10.3843C221.021 10.3244 221.099 10.2827 221.183 10.2637C221.268 10.2447 221.356 10.249 221.439 10.2762L223.923 11.1194C224.086 11.1781 224.264 11.1805 224.429 11.1263C224.593 11.072 224.735 10.9643 224.831 10.8203L224.835 10.815C224.935 10.6725 224.985 10.5003 224.976 10.3262C224.966 10.152 224.899 9.98603 224.784 9.85486L221.344 5.77957C221.301 5.72882 221.269 5.66977 221.25 5.60608C221.232 5.54139 221.228 5.47396 221.236 5.40754L221.85 0.902707C221.871 0.75464 221.849 0.603882 221.787 0.467707C221.726 0.331533 221.627 0.215459 221.502 0.132785C221.378 0.0501121 221.233 0.00418352 221.083 0.000272462C220.934 -0.0036386 220.786 0.0346305 220.658 0.110677ZM221.537 0.859443L220.922 5.36427C220.914 5.42245 220.912 5.48141 220.917 5.54002C220.921 5.59246 220.93 5.64434 220.945 5.69478C220.96 5.74676 220.98 5.79701 221.005 5.8447L221.007 5.8456C221.033 5.8954 221.065 5.94208 221.102 5.98476L224.542 10.06C224.611 10.1382 224.652 10.2378 224.658 10.3424C224.664 10.447 224.633 10.5504 224.572 10.6356L224.571 10.6382C224.514 10.7255 224.429 10.7908 224.33 10.8238C224.231 10.8567 224.124 10.8553 224.026 10.8198L221.54 9.97565C221.412 9.93231 221.275 9.92237 221.143 9.94678C221.01 9.9712 220.885 10.0291 220.781 10.1151L220.78 10.1164C220.766 10.1281 220.753 10.1398 220.74 10.1523C220.648 10.2379 220.578 10.3448 220.536 10.4635C220.507 10.546 220.492 10.633 220.492 10.7205L220.395 19.5719C220.394 19.6486 220.374 19.724 220.338 19.7916C220.302 19.8592 220.25 19.917 220.186 19.9602C220.123 20.0034 220.05 20.0306 219.974 20.0396C219.898 20.0486 219.82 20.039 219.749 20.0117L201.207 12.9205C201.123 12.8882 201.051 12.833 200.997 12.7614C200.943 12.6898 200.911 12.6045 200.903 12.5153C200.896 12.4261 200.913 12.3366 200.954 12.2569C200.995 12.1773 201.057 12.1107 201.134 12.0647L201.393 11.9114L220.82 0.38493C220.897 0.339213 220.985 0.316157 221.075 0.318397C221.165 0.320637 221.252 0.348086 221.327 0.397599C221.402 0.447112 221.461 0.516687 221.498 0.598363C221.535 0.680038 221.549 0.770532 221.537 0.859443Z" fill="#A3A3A3"/>
<path d="M220.976 5.51562L221.076 5.81706L220.992 5.84598L220.991 5.84508L201.609 12.3164L220.766 10.1168L220.767 10.1155L220.819 10.1107L220.856 10.426L220.522 10.4639L201.645 12.6329C201.571 12.6421 201.497 12.6253 201.434 12.5854C201.372 12.5455 201.325 12.485 201.302 12.4143C201.28 12.3437 201.282 12.2673 201.31 12.1985C201.338 12.1297 201.389 12.0727 201.454 12.0374C201.47 12.0286 201.486 12.0213 201.504 12.0158L220.902 5.54042L220.976 5.51562Z" fill="#A3A3A3"/>
<path d="M54.3665 161.212C54.2335 161.28 54.1223 161.384 54.0458 161.513C53.9693 161.641 53.9304 161.788 53.9338 161.938C53.9371 162.087 53.9825 162.232 54.0647 162.357C54.1469 162.482 54.2626 162.581 54.3986 162.643L58.5344 164.532C58.595 164.56 58.6496 164.6 58.6951 164.649C58.7386 164.699 58.7713 164.758 58.7912 164.822L60.3973 169.907C60.4468 170.074 60.551 170.22 60.6933 170.321C60.8356 170.422 61.0077 170.472 61.1819 170.463L61.1882 170.463C61.3614 170.458 61.5282 170.396 61.662 170.286C61.7958 170.176 61.8888 170.024 61.9264 169.855L62.5414 167.305C62.5624 167.22 62.6058 167.144 62.6672 167.082C62.7285 167.021 62.8053 166.977 62.8895 166.956C62.9512 166.94 63.0155 166.936 63.0786 166.946C63.1417 166.956 63.202 166.978 63.2559 167.013L70.7892 171.661C70.898 171.729 71.0217 171.769 71.1495 171.778C71.2774 171.787 71.4055 171.765 71.5228 171.713C71.6398 171.662 71.7428 171.584 71.8231 171.484C71.9034 171.385 71.9586 171.268 71.9842 171.143L75.8998 151.681C75.9296 151.534 75.9174 151.382 75.8646 151.242C75.8118 151.102 75.7205 150.98 75.6014 150.89C75.4822 150.799 75.3399 150.744 75.1909 150.731C75.0419 150.718 74.8922 150.747 74.759 150.815L74.4974 150.949L54.3665 161.212ZM54.5298 162.355C54.4482 162.317 54.3789 162.258 54.3297 162.183C54.2805 162.108 54.2534 162.02 54.2515 161.931C54.2497 161.841 54.2731 161.753 54.3191 161.676C54.3651 161.599 54.4319 161.536 54.5118 161.495L74.6364 151.235L74.9042 151.099C74.9841 151.058 75.0737 151.041 75.1629 151.049C75.252 151.057 75.3371 151.09 75.4085 151.144C75.4798 151.198 75.5345 151.271 75.5664 151.355C75.5982 151.439 75.606 151.53 75.5887 151.617L71.6731 171.079C71.6578 171.154 71.6246 171.225 71.5763 171.284C71.528 171.344 71.466 171.391 71.3956 171.422C71.3252 171.452 71.2485 171.465 71.172 171.46C71.0954 171.454 71.0214 171.43 70.956 171.39L63.4228 166.742C63.3488 166.695 63.2673 166.661 63.1818 166.642L75.1036 151.846C75.1508 151.788 75.1764 151.716 75.1761 151.642C75.1757 151.568 75.1495 151.496 75.1019 151.439C75.0542 151.383 74.9882 151.344 74.9153 151.331C74.8423 151.317 74.7669 151.33 74.7022 151.366C74.6863 151.375 74.6713 151.385 74.6574 151.397L58.8171 164.332C58.7701 164.297 58.7193 164.267 58.6656 164.243L54.5298 162.355Z" fill="#FAFAFA"/>
<path d="M54.3665 161.212C54.2335 161.28 54.1223 161.384 54.0458 161.513C53.9693 161.641 53.9304 161.788 53.9338 161.938C53.9371 162.087 53.9825 162.232 54.0647 162.357C54.1469 162.482 54.2626 162.581 54.3986 162.643L58.5344 164.532C58.595 164.56 58.6496 164.6 58.6951 164.649C58.7386 164.699 58.7713 164.758 58.7912 164.822L60.3973 169.907C60.4468 170.074 60.551 170.22 60.6933 170.321C60.8356 170.422 61.0077 170.472 61.1819 170.463L61.1882 170.463C61.3614 170.458 61.5282 170.396 61.662 170.286C61.7958 170.176 61.8888 170.024 61.9264 169.855L62.5414 167.305C62.5624 167.22 62.6058 167.144 62.6672 167.082C62.7285 167.021 62.8053 166.977 62.8895 166.956C62.9512 166.94 63.0155 166.936 63.0786 166.946C63.1417 166.956 63.202 166.978 63.2559 167.013L70.7892 171.661C70.898 171.729 71.0217 171.769 71.1495 171.778C71.2774 171.787 71.4055 171.765 71.5228 171.713C71.6398 171.662 71.7428 171.584 71.8231 171.484C71.9034 171.385 71.9586 171.268 71.9842 171.143L75.8998 151.681C75.9296 151.534 75.9174 151.382 75.8646 151.242C75.8118 151.102 75.7205 150.98 75.6014 150.89C75.4822 150.799 75.3399 150.744 75.1909 150.731C75.0419 150.718 74.8922 150.747 74.759 150.815L74.4974 150.949L54.3665 161.212ZM54.5298 162.355C54.4482 162.317 54.3789 162.258 54.3297 162.183C54.2805 162.108 54.2534 162.02 54.2515 161.931C54.2497 161.841 54.2731 161.753 54.3191 161.676C54.3651 161.599 54.4319 161.536 54.5118 161.495L74.6364 151.235L74.9042 151.099C74.9841 151.058 75.0737 151.041 75.1629 151.049C75.252 151.057 75.3371 151.09 75.4085 151.144C75.4798 151.198 75.5345 151.271 75.5664 151.355C75.5982 151.439 75.606 151.53 75.5887 151.617L71.6731 171.079C71.6578 171.154 71.6246 171.225 71.5763 171.284C71.528 171.344 71.466 171.391 71.3956 171.422C71.3252 171.452 71.2485 171.465 71.172 171.46C71.0954 171.454 71.0214 171.43 70.956 171.39L63.4228 166.742C63.3488 166.695 63.2673 166.661 63.1818 166.642C63.0592 166.614 62.9316 166.616 62.8099 166.648C62.7926 166.652 62.7754 166.657 62.7581 166.663L62.7565 166.663C62.6282 166.705 62.5127 166.779 62.4211 166.878C62.3295 166.978 62.2647 167.099 62.233 167.23L61.6181 169.782C61.5958 169.884 61.5397 169.975 61.459 170.041C61.3783 170.107 61.2777 170.144 61.1735 170.145L61.1703 170.145C61.0657 170.151 60.9622 170.122 60.8768 170.061C60.7913 170 60.7291 169.912 60.7002 169.812L59.0942 164.726C59.0778 164.672 59.0553 164.621 59.0273 164.572L59.0273 164.57C59.0005 164.523 58.9689 164.479 58.9329 164.439C58.8982 164.399 58.8594 164.364 58.8171 164.332C58.7701 164.297 58.7193 164.267 58.6656 164.243L54.5298 162.355Z" fill="#A3A3A3"/>
<path d="M58.8217 164.332L74.662 151.396C74.6759 151.385 74.691 151.375 74.7069 151.366C74.7716 151.33 74.8469 151.317 74.9199 151.33C74.9929 151.344 75.0589 151.382 75.1065 151.439C75.1541 151.496 75.1803 151.568 75.1807 151.642C75.181 151.716 75.1554 151.788 75.1082 151.845L63.1864 166.642L62.9762 166.903L62.7294 166.704L62.7611 166.663L62.7627 166.662L74.86 151.646L59.0319 164.57L59.032 164.571L58.9627 164.627L58.7617 164.381L58.8217 164.332Z" fill="#A3A3A3"/>
</svg>
