<svg width="128" height="120" viewBox="0 0 128 120" fill="none" xmlns="http://www.w3.org/2000/svg">
<path d="M94.6802 91.1239L30.1583 107.739C27.9696 108.3 25.6478 107.97 23.7022 106.821C21.7567 105.672 20.3462 103.799 19.7803 101.611L0.26717 25.8357C-0.293799 23.647 0.0363 21.3252 1.18505 19.3796C2.3338 17.434 4.20739 16.0236 6.39477 15.4577L66.4219 0L81.786 6.87801L100.808 80.7459C101.369 82.9345 101.039 85.2563 99.8899 87.2019C98.7412 89.1475 96.8676 90.5579 94.6802 91.1239Z" fill="#F5F5F5"/>
<path d="M7.01089 17.8335C5.45321 18.2365 4.11898 19.2409 3.30093 20.6264C2.48288 22.0119 2.24781 23.6653 2.64729 25.2239L22.1604 101C22.5634 102.557 23.5678 103.892 24.9533 104.71C26.3388 105.528 27.9922 105.763 29.5508 105.363L94.0727 88.7481C95.6304 88.3451 96.9646 87.3407 97.7827 85.9552C98.6007 84.5697 98.8358 82.9163 98.4363 81.3577L79.7092 8.63441L66.2069 2.58984L7.01089 17.8335Z" fill="white"/>
<path d="M81.6203 7.26892L71.6347 9.84033C70.9057 10.0281 70.132 9.9185 69.4838 9.53577C68.8356 9.15305 68.366 8.52849 68.1782 7.79951L66.279 0.424265C66.2707 0.391976 66.2717 0.357998 66.2818 0.326226C66.2919 0.294454 66.3108 0.266177 66.3362 0.244634C66.3617 0.223092 66.3927 0.209157 66.4257 0.204429C66.4587 0.199701 66.4923 0.20437 66.5228 0.217902L81.6481 6.93501C81.6817 6.94996 81.7099 6.97501 81.7287 7.0067C81.7475 7.03838 81.7559 7.07512 81.7528 7.11182C81.7498 7.14853 81.7354 7.18337 81.7117 7.21152C81.6879 7.23967 81.656 7.25973 81.6203 7.26892Z" fill="#F5F5F5"/>
<path d="M76.3638 71.9795L46.9879 79.5441C46.8074 79.5906 46.6196 79.6011 46.435 79.575C46.2505 79.5488 46.0729 79.4866 45.9124 79.3919C45.752 79.2971 45.6117 79.1717 45.4997 79.0227C45.3877 78.8738 45.3062 78.7042 45.2597 78.5237C45.2132 78.3433 45.2027 78.1554 45.2289 77.9709C45.255 77.7863 45.3172 77.6088 45.412 77.4483C45.5067 77.2878 45.6322 77.1476 45.7811 77.0356C45.9301 76.9236 46.0996 76.842 46.2801 76.7955L75.656 69.2309C75.8365 69.1844 76.0243 69.1739 76.2089 69.2001C76.3934 69.2262 76.571 69.2884 76.7315 69.3832C76.8919 69.4779 77.0322 69.6033 77.1442 69.7523C77.2562 69.9013 77.3377 70.0708 77.3842 70.2513C77.4307 70.4318 77.4412 70.6196 77.415 70.8041C77.3889 70.9887 77.3267 71.1662 77.2319 71.3267C77.1372 71.4872 77.0118 71.6274 76.8628 71.7394C76.7138 71.8514 76.5443 71.933 76.3638 71.9795Z" fill="#CCCCCC"/>
<path d="M83.236 75.1579L48.191 84.1824C47.8265 84.2762 47.4397 84.2215 47.1156 84.0301C46.7915 83.8387 46.5567 83.5265 46.4628 83.162C46.3689 82.7975 46.4237 82.4106 46.6151 82.0865C46.8065 81.7624 47.1187 81.5276 47.4832 81.4338L82.5282 72.4093C82.8925 72.3158 83.2791 72.3708 83.6029 72.5622C83.9268 72.7536 84.1614 73.0657 84.2552 73.43C84.349 73.7943 84.2943 74.1809 84.1032 74.5049C83.9121 74.8289 83.6002 75.0638 83.236 75.1579Z" fill="#CCCCCC"/>
<path d="M35.0003 88.6551C37.7705 88.6551 40.0162 86.4094 40.0162 83.6392C40.0162 80.869 37.7705 78.6233 35.0003 78.6233C32.2301 78.6233 29.9844 80.869 29.9844 83.6392C29.9844 86.4094 32.2301 88.6551 35.0003 88.6551Z" fill="#E5E5E5"/>
<path d="M73.2439 58.8528L34.2297 68.8957C33.1022 69.1846 31.9061 69.0144 30.9039 68.4225C29.9017 67.8307 29.1752 66.8654 28.8838 65.7386L20.7079 33.977C20.419 32.8495 20.5891 31.6534 21.181 30.6512C21.7729 29.649 22.7381 28.9225 23.865 28.6311L62.8791 18.5882C64.0067 18.2993 65.2027 18.4695 66.2049 19.0614C67.2072 19.6532 67.9337 20.6185 68.2251 21.7454L76.401 53.5069C76.6899 54.6344 76.5197 55.8304 75.9279 56.8327C75.336 57.8349 74.3707 58.5614 73.2439 58.8528Z" fill="white"/>
<path d="M73.2439 58.8528L34.2297 68.8957C33.1022 69.1846 31.9061 69.0144 30.9039 68.4225C29.9017 67.8307 29.1752 66.8654 28.8838 65.7386L20.7079 33.977C20.419 32.8495 20.5891 31.6534 21.181 30.6512C21.7729 29.649 22.7381 28.9225 23.865 28.6311L62.8791 18.5882C64.0067 18.2993 65.2027 18.4695 66.2049 19.0614C67.2072 19.6532 67.9337 20.6185 68.2251 21.7454L76.401 53.5069C76.6899 54.6344 76.5197 55.8304 75.9279 56.8327C75.336 57.8349 74.3707 58.5614 73.2439 58.8528ZM23.9937 29.1313C22.9995 29.3884 22.1478 30.0295 21.6255 30.9138C21.1033 31.7981 20.9531 32.8534 21.208 33.8483L29.384 65.6098C29.6411 66.6041 30.2821 67.4558 31.1665 67.978C32.0508 68.5002 33.1061 68.6504 34.101 68.3955L73.1151 58.3526C74.1094 58.0955 74.9611 57.4545 75.4834 56.5701C76.0056 55.6858 76.1557 54.6305 75.9008 53.6356L67.7249 21.8741C67.4678 20.8798 66.8267 20.0281 65.9424 19.5059C65.0581 18.9836 64.0027 18.8335 63.0079 19.0884L23.9937 29.1313Z" fill="#E5E5E5"/>
<path d="M60.904 29.2677L41.214 34.3362C41.0419 34.3842 40.8579 34.3651 40.6993 34.2828C40.5407 34.2004 40.4193 34.0608 40.3596 33.8924C40.3318 33.8044 40.3223 33.7116 40.3315 33.6198C40.3408 33.528 40.3687 33.439 40.4134 33.3583C40.4582 33.2776 40.519 33.2069 40.592 33.1505C40.665 33.094 40.7487 33.053 40.8381 33.03L60.8812 27.8706C61.6909 28.2808 61.4781 29.1199 60.904 29.2677Z" fill="#F5F5F5"/>
<path d="M61.7946 32.7213L42.1046 37.7898C41.9325 37.8378 41.7485 37.8187 41.5899 37.7364C41.4313 37.654 41.3099 37.5144 41.2502 37.346C41.2225 37.258 41.2129 37.1652 41.2222 37.0734C41.2314 36.9816 41.2593 36.8926 41.3041 36.8119C41.3488 36.7312 41.4096 36.6605 41.4826 36.6041C41.5556 36.5476 41.6394 36.5066 41.7287 36.4836L61.7719 31.3242C62.5815 31.7345 62.3687 32.5735 61.7946 32.7213Z" fill="#F5F5F5"/>
<path d="M63.5496 39.8075L33.4992 47.543C33.327 47.5911 33.1431 47.572 32.9845 47.4896C32.8259 47.4072 32.7044 47.2677 32.6448 47.0992C32.617 47.0112 32.6075 46.9184 32.6167 46.8266C32.626 46.7348 32.6538 46.6458 32.6986 46.5651C32.7434 46.4844 32.8041 46.4137 32.8771 46.3573C32.9501 46.3008 33.0339 46.2599 33.1233 46.2369L63.5271 38.4104C64.3368 38.8206 64.1237 39.6597 63.5496 39.8075Z" fill="#F5F5F5"/>
<path d="M64.4363 43.2623L34.3859 50.9978C34.2137 51.0459 34.0298 51.0268 33.8712 50.9444C33.7126 50.862 33.5912 50.7225 33.5315 50.554C33.5037 50.466 33.4942 50.3733 33.5034 50.2815C33.5127 50.1896 33.5405 50.1007 33.5853 50.02C33.6301 49.9393 33.6908 49.8685 33.7639 49.8121C33.8369 49.7557 33.9206 49.7147 34.01 49.6917L64.4139 41.8652C65.2235 42.2755 65.0105 43.1146 64.4363 43.2623Z" fill="#F5F5F5"/>
<path d="M65.327 46.715L35.2765 54.4505C35.1044 54.4985 34.9204 54.4794 34.7618 54.397C34.6032 54.3147 34.4818 54.1751 34.4221 54.0067C34.3943 53.9187 34.3848 53.8259 34.394 53.7341C34.4033 53.6423 34.4312 53.5533 34.4759 53.4726C34.5207 53.3919 34.5815 53.3212 34.6545 53.2647C34.7275 53.2083 34.8112 53.1673 34.9006 53.1443L65.3045 45.3179C66.1141 45.7281 65.9011 46.5672 65.327 46.715Z" fill="#F5F5F5"/>
<path d="M66.2176 50.1693L36.1671 57.9048C35.995 57.9529 35.811 57.9338 35.6524 57.8514C35.4938 57.769 35.3724 57.6295 35.3127 57.461C35.285 57.373 35.2754 57.2803 35.2847 57.1884C35.2939 57.0966 35.3218 57.0076 35.3666 56.9269C35.4113 56.8462 35.4721 56.7755 35.5451 56.7191C35.6181 56.6626 35.7019 56.6217 35.7912 56.5987L66.1951 48.7722C67.0048 49.1825 66.7917 50.0215 66.2176 50.1693Z" fill="#F5F5F5"/>
<path d="M67.1082 53.6225L37.0578 61.3579C36.8856 61.406 36.7017 61.3869 36.543 61.3045C36.3844 61.2221 36.263 61.0826 36.2034 60.9141C36.1756 60.8261 36.166 60.7334 36.1753 60.6416C36.1846 60.5497 36.2124 60.4608 36.2572 60.3801C36.302 60.2994 36.3627 60.2286 36.4357 60.1722C36.5087 60.1158 36.5925 60.0748 36.6818 60.0518L67.0857 52.2253C67.8954 52.6356 67.6823 53.4747 67.1082 53.6225Z" fill="#F5F5F5"/>
<path d="M35.3731 85.3974C35.2639 85.4257 35.1484 85.4177 35.0441 85.3747L35.0376 85.372L33.6712 84.7927C33.6078 84.7659 33.5503 84.7268 33.502 84.6777C33.4537 84.6286 33.4156 84.5705 33.3897 84.5067C33.3639 84.4428 33.351 84.3745 33.3516 84.3056C33.3522 84.2368 33.3664 84.1687 33.3933 84.1053C33.4203 84.042 33.4595 83.9845 33.5086 83.9363C33.5578 83.8881 33.616 83.8501 33.6799 83.8243C33.7437 83.7986 33.8121 83.7858 33.8809 83.7865C33.9498 83.7872 34.0178 83.8015 34.0812 83.8286L34.9666 84.2052L36.1269 81.4757C36.1538 81.4124 36.1929 81.3551 36.242 81.3069C36.291 81.2587 36.3491 81.2207 36.4129 81.195C36.4767 81.1693 36.5449 81.1564 36.6136 81.157C36.6824 81.1576 36.7504 81.1718 36.8136 81.1987L36.8068 81.2167L36.8141 81.1987C36.9418 81.2532 37.0427 81.3562 37.0946 81.4849C37.1465 81.6137 37.1452 81.7578 37.091 81.8857L35.726 85.0949C35.6943 85.1689 35.6461 85.2346 35.5849 85.2869C35.5238 85.3393 35.4514 85.3768 35.3734 85.3967L35.3731 85.3974Z" fill="white"/>
<path d="M119.422 120H52.7955C50.5361 119.998 48.3699 119.099 46.7723 117.501C45.1747 115.904 44.276 113.738 44.2734 111.478V33.2303C44.276 30.9709 45.1747 28.8048 46.7723 27.2071C48.3699 25.6095 50.5361 24.7108 52.7955 24.7083H114.781L127.944 35.2004V111.478C127.942 113.738 127.043 115.904 125.446 117.501C123.848 119.099 121.682 119.998 119.422 120Z" fill="#E5E5E5"/>
<path d="M52.7992 27.1616C51.1902 27.1634 49.6477 27.8034 48.51 28.9411C47.3722 30.0788 46.7323 31.6214 46.7305 33.2303V111.478C46.7323 113.087 47.3722 114.63 48.51 115.767C49.6477 116.905 51.1902 117.545 52.7992 117.547H119.426C121.035 117.545 122.578 116.905 123.715 115.767C124.853 114.63 125.493 113.087 125.495 111.478V36.3824L113.926 27.1616H52.7992Z" fill="white"/>
<path d="M106.468 49.914H76.134C75.7576 49.914 75.3966 49.7645 75.1305 49.4983C74.8644 49.2322 74.7148 48.8712 74.7148 48.4948C74.7148 48.1184 74.8644 47.7575 75.1305 47.4913C75.3966 47.2252 75.7576 47.0757 76.134 47.0757H106.468C106.845 47.0757 107.206 47.2252 107.472 47.4913C107.738 47.7575 107.887 48.1184 107.887 48.4948C107.887 48.8712 107.738 49.2322 107.472 49.4983C107.206 49.7645 106.845 49.914 106.468 49.914Z" fill="#3F76FF"/>
<path d="M112.324 54.7035H76.136C75.7599 54.703 75.3995 54.5533 75.1337 54.2872C74.868 54.0211 74.7188 53.6604 74.7188 53.2844C74.7188 52.9083 74.868 52.5477 75.1337 52.2816C75.3995 52.0155 75.7599 51.8657 76.136 51.8652H112.324C112.511 51.865 112.696 51.9015 112.868 51.9727C113.04 52.0439 113.197 52.1484 113.329 52.2802C113.461 52.412 113.566 52.5685 113.637 52.7409C113.709 52.9132 113.745 53.0979 113.745 53.2844C113.745 53.4709 113.709 53.6556 113.637 53.8279C113.566 54.0002 113.461 54.1567 113.329 54.2885C113.197 54.4204 113.04 54.5248 112.868 54.5961C112.696 54.6673 112.511 54.7038 112.324 54.7035Z" fill="#3F76FF"/>
<path d="M106.467 68.5391H76.1339C75.7575 68.5391 75.3966 68.6886 75.1305 68.9547C74.8643 69.2208 74.7148 69.5818 74.7148 69.9581C74.7148 70.3345 74.8643 70.6954 75.1305 70.9615C75.3966 71.2277 75.7575 71.3772 76.1339 71.3772H106.467C106.844 71.3772 107.204 71.2277 107.471 70.9615C107.737 70.6954 107.886 70.3345 107.886 69.9581C107.886 69.5818 107.737 69.2208 107.471 68.9547C107.204 68.6886 106.844 68.5391 106.467 68.5391Z" fill="#CCCCCC"/>
<path d="M112.322 73.3296H76.1339C75.7575 73.3296 75.3966 73.4791 75.1305 73.7452C74.8643 74.0113 74.7148 74.3723 74.7148 74.7486C74.7148 75.125 74.8643 75.4859 75.1305 75.7521C75.3966 76.0182 75.7575 76.1677 76.1339 76.1677H112.322C112.698 76.1677 113.059 76.0182 113.325 75.7521C113.591 75.4859 113.741 75.125 113.741 74.7486C113.741 74.3723 113.591 74.0113 113.325 73.7452C113.059 73.4791 112.698 73.3296 112.322 73.3296Z" fill="#CCCCCC"/>
<path d="M106.468 92.8427H76.134C75.7576 92.8427 75.3966 92.6932 75.1305 92.427C74.8644 92.1609 74.7148 91.7999 74.7148 91.4235C74.7148 91.0472 74.8644 90.6862 75.1305 90.4201C75.3966 90.1539 75.7576 90.0044 76.134 90.0044H106.468C106.845 90.0044 107.206 90.1539 107.472 90.4201C107.738 90.6862 107.887 91.0472 107.887 91.4235C107.887 91.7999 107.738 92.1609 107.472 92.427C107.206 92.6932 106.845 92.8427 106.468 92.8427Z" fill="#CCCCCC"/>
<path d="M112.324 97.6327H76.136C75.7599 97.6322 75.3995 97.4825 75.1337 97.2164C74.868 96.9503 74.7188 96.5896 74.7188 96.2136C74.7188 95.8375 74.868 95.4769 75.1337 95.2108C75.3995 94.9447 75.7599 94.7949 76.136 94.7944H112.324C112.511 94.7942 112.696 94.8307 112.868 94.9019C113.04 94.9731 113.197 95.0776 113.329 95.2094C113.461 95.3412 113.566 95.4978 113.637 95.6701C113.709 95.8424 113.745 96.0271 113.745 96.2136C113.745 96.4001 113.709 96.5848 113.637 96.7571C113.566 96.9294 113.461 97.0859 113.329 97.2178C113.197 97.3496 113.04 97.454 112.868 97.5253C112.696 97.5965 112.511 97.633 112.324 97.6327Z" fill="#CCCCCC"/>
<path d="M63.5003 55.9056C66.2705 55.9056 68.5162 53.6599 68.5162 50.8897C68.5162 48.1195 66.2705 45.8738 63.5003 45.8738C60.7301 45.8738 58.4844 48.1195 58.4844 50.8897C58.4844 53.6599 60.7301 55.9056 63.5003 55.9056Z" fill="#3F76FF"/>
<path d="M63.0003 52.8029C62.8874 52.8031 62.7776 52.7666 62.6873 52.6989L62.6817 52.6947L61.5029 51.7929C61.4481 51.7511 61.4022 51.6989 61.3676 51.6393C61.333 51.5798 61.3106 51.5139 61.3015 51.4456C61.2924 51.3774 61.2968 51.308 61.3146 51.2414C61.3324 51.1748 61.3631 51.1124 61.405 51.0578C61.4469 51.0031 61.4992 50.9572 61.5589 50.9228C61.6185 50.8884 61.6844 50.866 61.7527 50.8571C61.821 50.8481 61.8904 50.8527 61.9569 50.8706C62.0234 50.8886 62.0858 50.9194 62.1403 50.9614L62.9039 51.547L64.7082 49.1931C64.75 49.1385 64.8022 49.0927 64.8617 49.0583C64.9212 49.0239 64.987 49.0016 65.0552 48.9925C65.1233 48.9835 65.1926 48.988 65.259 49.0058C65.3255 49.0236 65.3877 49.0543 65.4423 49.0961L65.4313 49.1118L65.4428 49.0962C65.5529 49.1808 65.6249 49.3057 65.6431 49.4433C65.6612 49.581 65.624 49.7203 65.5396 49.8305L63.4174 52.598C63.3683 52.6617 63.3052 52.7133 63.2329 52.7488C63.1607 52.7842 63.0812 52.8025 63.0007 52.8023L63.0003 52.8029Z" fill="white"/>
<path d="M69.0312 72.354C69.0315 73.0128 68.9019 73.6651 68.65 74.2739C68.3981 74.8826 68.0288 75.4357 67.5631 75.9016C67.0973 76.3676 66.5444 76.7372 65.9358 76.9895C65.3272 77.2417 64.6749 77.3716 64.0161 77.3716C63.973 77.3725 63.9299 77.3708 63.887 77.3665C62.9008 77.3412 61.9439 77.0256 61.1361 76.4592C60.3283 75.8928 59.7055 75.1007 59.3456 74.1821C58.9857 73.2635 58.9047 72.2592 59.1128 71.2948C59.3209 70.3304 59.8087 69.4488 60.5153 68.7603C61.2219 68.0718 62.1159 67.6069 63.0853 67.4239C64.0548 67.241 65.0567 67.3479 65.9657 67.7315C66.8746 68.1151 67.6503 68.7582 68.1956 69.5804C68.7408 70.4026 69.0315 71.3674 69.0312 72.354Z" fill="#CCCCCC"/>
<path d="M63.5003 98.8348C66.2705 98.8348 68.5162 96.5891 68.5162 93.8189C68.5162 91.0487 66.2705 88.803 63.5003 88.803C60.7301 88.803 58.4844 91.0487 58.4844 93.8189C58.4844 96.5891 60.7301 98.8348 63.5003 98.8348Z" fill="#CCCCCC"/>
<path d="M127.689 35.5378H117.377C116.625 35.5378 115.903 35.2388 115.37 34.7065C114.838 34.1742 114.539 33.4523 114.539 32.6995V25.0836C114.539 25.0503 114.548 25.0176 114.566 24.9894C114.584 24.9611 114.609 24.9385 114.639 24.9239C114.669 24.9094 114.703 24.9037 114.736 24.9073C114.769 24.911 114.8 24.9239 114.827 24.9446L127.799 35.2214C127.828 35.2442 127.849 35.2755 127.859 35.3109C127.869 35.3462 127.868 35.3839 127.856 35.4187C127.844 35.4535 127.822 35.4837 127.792 35.505C127.762 35.5263 127.726 35.5378 127.689 35.5378Z" fill="#CCCCCC"/>
</svg>
