<svg
width="225"
height="114"
viewBox="0 0 225 114"
fill="none"
xmlns="http://www.w3.org/2000/svg"
>
<path
d="M75.1109 42.5002C75.1109 54.7286 65.4875 64 65.4875 64C65.4875 64 67.1611 56.9998 67.1611 55.5C67.1611 50.5 65.4875 49 65.4875 49C65.4875 49 45.5822 54.9992 37.0358 56.0002L36.7439 56.0344C29.1379 56.9259 22.4594 57.7087 15.2784 54.5C10.6109 52.4144 1.02044 45.4605 0.110879 35C-0.889068 23.5 5.05642 13.9998 10.611 10C17.2548 5.21589 25.5629 0.0359205 37.0358 0.000267114C48.6692 -0.0358854 57.7579 3.59429 66.3244 13.0002C73.8596 21.2737 75.1109 30.2717 75.1109 42.5002Z"
fill="#F1F3F5"
/>
<path
d="M136.111 90.5002C136.111 102.729 147.611 112 147.611 112C147.611 112 145.611 105 145.611 103.5C145.611 98.5 147.611 97 147.611 97C147.611 97 171.398 102.999 181.611 104L181.96 104.034C191.049 104.926 199.03 105.709 207.611 102.5C214.825 99.8024 217.975 96.998 222.111 90.5002C227.111 82.6445 224.047 69.6734 216.111 61.0002C206.856 50.8856 195.321 48.0359 181.611 48.0003C167.709 47.9641 156.848 51.5943 146.611 61.0002C137.606 69.2737 136.111 78.2717 136.111 90.5002Z"
fill="#F1F3F5"
/>
<path
d="M77.5378 88.7096C76.8029 88.7096 76.1869 88.4596 75.6898 87.9596C75.1927 87.4595 74.9441 86.8399 74.9441 86.1008C74.9441 85.3615 75.1927 84.747 75.6898 84.257C76.1869 83.7671 76.8029 83.5221 77.5378 83.5221H82.2066V57.0659C82.2066 52.3395 83.6332 48.0598 86.4863 44.2268C89.3394 40.3938 93.1003 37.9874 97.7691 37.0076V34.5003C97.7691 33.1746 98.2378 32.0794 99.1753 31.2148C100.113 30.3503 101.251 29.918 102.59 29.918C103.93 29.918 105.075 30.3503 106.026 31.2148C106.977 32.0794 107.452 33.1746 107.452 34.5003V37.0076C112.121 37.9874 115.897 40.3938 118.778 44.2268C121.66 48.0598 123.101 52.3395 123.101 57.0659V83.5221H127.684C128.419 83.5221 129.035 83.7721 129.532 84.2722C130.029 84.7722 130.277 85.3919 130.277 86.131C130.277 86.8702 130.029 87.4848 129.532 87.9747C129.035 88.4647 128.419 88.7096 127.684 88.7096H77.5378ZM102.611 99.0846C100.766 99.0846 99.1524 98.4074 97.7691 97.0529C96.3858 95.6984 95.6941 94.0701 95.6941 92.168H109.527C109.527 94.0701 108.85 95.6984 107.496 97.0529C106.141 98.4074 104.513 99.0846 102.611 99.0846ZM87.3941 83.5221H117.914V57.0659C117.914 52.743 116.458 49.0973 113.548 46.1289C110.637 43.1605 107.035 41.6763 102.74 41.6763C98.4463 41.6763 94.8151 43.1605 91.8467 46.1289C88.8783 49.0973 87.3941 52.743 87.3941 57.0659V83.5221Z"
fill="#ACB5BD"
/>
<circle cx="119.111" cy="40" r="10" fill="white" />
<circle cx="119.111" cy="40.0004" r="6.36364" fill="#3F76FF" />
<path
d="M118.048 42.4383L115.715 40.105C115.715 40.105 115.654 39.7966 115.777 39.6885C115.891 39.5892 116.163 39.6571 116.163 39.6571L118.048 41.5425L122.048 37.5425C122.048 37.5425 122.336 37.492 122.444 37.6051C122.549 37.7149 122.496 37.9904 122.496 37.9904L118.048 42.4383Z"
fill="white"
/>
<circle cx="57.1108" cy="85" r="4" fill="#CED4DA" />
<circle cx="83.1108" cy="112" r="2" fill="#E9ECEF" />
<circle cx="159.111" cy="17" r="6" fill="#DEE2E6" />
<circle cx="115.5" cy="17.5" r="3.5" fill="#E9ECEF" />
<path
d="M173.5 78.5C173.083 78.5 172.729 78.3542 172.437 78.0625C172.146 77.7708 172 77.4167 172 77C172 76.5833 172.146 76.2292 172.437 75.9375C172.729 75.6458 173.083 75.5 173.5 75.5C173.917 75.5 174.271 75.6458 174.563 75.9375C174.854 76.2292 175 76.5833 175 77C175 77.4167 174.854 77.7708 174.563 78.0625C174.271 78.3542 173.917 78.5 173.5 78.5ZM182 78.5C181.583 78.5 181.229 78.3542 180.938 78.0625C180.646 77.7708 180.5 77.4167 180.5 77C180.5 76.5833 180.646 76.2292 180.938 75.9375C181.229 75.6458 181.583 75.5 182 75.5C182.417 75.5 182.771 75.6458 183.062 75.9375C183.354 76.2292 183.5 76.5833 183.5 77C183.5 77.4167 183.354 77.7708 183.062 78.0625C182.771 78.3542 182.417 78.5 182 78.5ZM190.5 78.5C190.083 78.5 189.729 78.3542 189.438 78.0625C189.146 77.7708 189 77.4167 189 77C189 76.5833 189.146 76.2292 189.438 75.9375C189.729 75.6458 190.083 75.5 190.5 75.5C190.917 75.5 191.271 75.6458 191.562 75.9375C191.854 76.2292 192 76.5833 192 77C192 77.4167 191.854 77.7708 191.562 78.0625C191.271 78.3542 190.917 78.5 190.5 78.5Z"
fill="#858E96"
/>
<path
d="M26.5 31.5C26.0833 31.5 25.7292 31.3542 25.4375 31.0625C25.1458 30.7708 25 30.4167 25 30C25 29.5833 25.1458 29.2292 25.4375 28.9375C25.7292 28.6458 26.0833 28.5 26.5 28.5C26.9167 28.5 27.2708 28.6458 27.5625 28.9375C27.8542 29.2292 28 29.5833 28 30C28 30.4167 27.8542 30.7708 27.5625 31.0625C27.2708 31.3542 26.9167 31.5 26.5 31.5ZM35 31.5C34.5833 31.5 34.2292 31.3542 33.9375 31.0625C33.6458 30.7708 33.5 30.4167 33.5 30C33.5 29.5833 33.6458 29.2292 33.9375 28.9375C34.2292 28.6458 34.5833 28.5 35 28.5C35.4167 28.5 35.7708 28.6458 36.0625 28.9375C36.3542 29.2292 36.5 29.5833 36.5 30C36.5 30.4167 36.3542 30.7708 36.0625 31.0625C35.7708 31.3542 35.4167 31.5 35 31.5ZM43.5 31.5C43.0833 31.5 42.7292 31.3542 42.4375 31.0625C42.1458 30.7708 42 30.4167 42 30C42 29.5833 42.1458 29.2292 42.4375 28.9375C42.7292 28.6458 43.0833 28.5 43.5 28.5C43.9167 28.5 44.2708 28.6458 44.5625 28.9375C44.8542 29.2292 45 29.5833 45 30C45 30.4167 44.8542 30.7708 44.5625 31.0625C44.2708 31.3542 43.9167 31.5 43.5 31.5Z"
fill="#858E96"
/>
</svg>