<svg width="34" height="34" viewBox="0 0 34 34" fill="none" xmlns="http://www.w3.org/2000/svg">
<mask id="path-1-inside-1_6456_90192" fill="white">
<path d="M34 17C34 26.3888 26.3888 34 17 34C7.61116 34 0 26.3888 0 17C0 7.61116 7.61116 0 17 0C26.3888 0 34 7.61116 34 17ZM5.09529 17C5.09529 23.5748 10.4252 28.9047 17 28.9047C23.5748 28.9047 28.9047 23.5748 28.9047 17C28.9047 10.4252 23.5748 5.09529 17 5.09529C10.4252 5.09529 5.09529 10.4252 5.09529 17Z"/>
</mask>
<path d="M34 17C34 26.3888 26.3888 34 17 34C7.61116 34 0 26.3888 0 17C0 7.61116 7.61116 0 17 0C26.3888 0 34 7.61116 34 17ZM5.09529 17C5.09529 23.5748 10.4252 28.9047 17 28.9047C23.5748 28.9047 28.9047 23.5748 28.9047 17C28.9047 10.4252 23.5748 5.09529 17 5.09529C10.4252 5.09529 5.09529 10.4252 5.09529 17Z" fill="#DEE2E6" stroke="#F8F9FA" strokeWidth="0.482269" mask="url(#path-1-inside-1_6456_90192)"/>
<mask id="path-2-inside-2_6456_90192" fill="white">
<path d="M17 0C19.8546 3.40409e-08 22.6633 0.718838 25.1669 2.09021C27.6705 3.46158 29.7885 5.44133 31.3255 7.84684C32.8625 10.2524 33.769 13.0062 33.9613 15.8543C34.1537 18.7024 33.6258 21.5531 32.4263 24.1435C31.2268 26.7339 29.3943 28.9804 27.0978 30.6761C24.8013 32.3717 22.1149 33.4617 19.2862 33.8456C16.4575 34.2295 13.5777 33.8949 10.9124 32.8727C8.24708 31.8504 5.8821 30.1735 4.03558 27.9965L7.92131 24.7006C9.21439 26.2251 10.8705 27.3994 12.737 28.1153C14.6034 28.8311 16.6201 29.0654 18.601 28.7966C20.5818 28.5277 22.4631 27.7644 24.0713 26.577C25.6794 25.3896 26.9627 23.8164 27.8027 22.0024C28.6427 20.1885 29.0124 18.1922 28.8776 16.1977C28.7429 14.2032 28.1081 12.2748 27.0318 10.5903C25.9555 8.90572 24.4723 7.51935 22.7191 6.55901C20.9659 5.59867 18.999 5.09529 17 5.09529V0Z"/>
</mask>
<path d="M17 0C19.8546 3.40409e-08 22.6633 0.718838 25.1669 2.09021C27.6705 3.46158 29.7885 5.44133 31.3255 7.84684C32.8625 10.2524 33.769 13.0062 33.9613 15.8543C34.1537 18.7024 33.6258 21.5531 32.4263 24.1435C31.2268 26.7339 29.3943 28.9804 27.0978 30.6761C24.8013 32.3717 22.1149 33.4617 19.2862 33.8456C16.4575 34.2295 13.5777 33.8949 10.9124 32.8727C8.24708 31.8504 5.8821 30.1735 4.03558 27.9965L7.92131 24.7006C9.21439 26.2251 10.8705 27.3994 12.737 28.1153C14.6034 28.8311 16.6201 29.0654 18.601 28.7966C20.5818 28.5277 22.4631 27.7644 24.0713 26.577C25.6794 25.3896 26.9627 23.8164 27.8027 22.0024C28.6427 20.1885 29.0124 18.1922 28.8776 16.1977C28.7429 14.2032 28.1081 12.2748 27.0318 10.5903C25.9555 8.90572 24.4723 7.51935 22.7191 6.55901C20.9659 5.59867 18.999 5.09529 17 5.09529V0Z" fill="#ACB5BD" stroke="#F8F9FA" strokeWidth="0.482269" mask="url(#path-2-inside-2_6456_90192)"/>
<mask id="path-3-inside-3_6456_90192" fill="white">
<path d="M17 0C21.3598 5.19899e-08 25.5529 1.67502 28.7128 4.67885C31.8726 7.68269 33.7577 11.7857 33.9782 16.1399C34.1988 20.4941 32.7381 24.7666 29.898 28.0744C27.0578 31.3822 23.0554 33.4724 18.718 33.913C14.3805 34.3536 10.0395 33.1109 6.5923 30.4417C3.14507 27.7726 0.855066 23.881 0.195603 19.5714C-0.46386 15.2618 0.557627 10.8635 3.04894 7.28569C5.54025 3.70783 9.31095 1.22387 13.5817 0.347219L14.6062 5.33844C11.6155 5.95234 8.975 7.69179 7.23039 10.1973C5.48578 12.7028 4.77045 15.7828 5.23226 18.8007C5.69407 21.8186 7.2977 24.5438 9.71173 26.4129C12.1257 28.2821 15.1656 29.1523 18.203 28.8438C21.2405 28.5352 24.0433 27.0715 26.0321 24.7552C28.021 22.4388 29.0439 19.4469 28.8895 16.3977C28.735 13.3486 27.415 10.4753 25.2022 8.37178C22.9894 6.26826 20.0531 5.09529 17 5.09529V0Z"/>
</mask>
<path d="M17 0C21.3598 5.19899e-08 25.5529 1.67502 28.7128 4.67885C31.8726 7.68269 33.7577 11.7857 33.9782 16.1399C34.1988 20.4941 32.7381 24.7666 29.898 28.0744C27.0578 31.3822 23.0554 33.4724 18.718 33.913C14.3805 34.3536 10.0395 33.1109 6.5923 30.4417C3.14507 27.7726 0.855066 23.881 0.195603 19.5714C-0.46386 15.2618 0.557627 10.8635 3.04894 7.28569C5.54025 3.70783 9.31095 1.22387 13.5817 0.347219L14.6062 5.33844C11.6155 5.95234 8.975 7.69179 7.23039 10.1973C5.48578 12.7028 4.77045 15.7828 5.23226 18.8007C5.69407 21.8186 7.2977 24.5438 9.71173 26.4129C12.1257 28.2821 15.1656 29.1523 18.203 28.8438C21.2405 28.5352 24.0433 27.0715 26.0321 24.7552C28.021 22.4388 29.0439 19.4469 28.8895 16.3977C28.735 13.3486 27.415 10.4753 25.2022 8.37178C22.9894 6.26826 20.0531 5.09529 17 5.09529V0Z" fill="#CED4DA" stroke="#F8F9FA" strokeWidth="0.482269" mask="url(#path-3-inside-3_6456_90192)"/>
<mask id="path-4-inside-4_6456_90192" fill="white">
<path d="M17 0C21.5087 5.37655e-08 25.8327 1.79107 29.0208 4.97918C32.2089 8.1673 34 12.4913 34 17C34 21.5087 32.2089 25.8327 29.0208 29.0208C25.8327 32.2089 21.5087 34 17 34V28.9047C20.1573 28.9047 23.1853 27.6505 25.4179 25.4179C27.6505 23.1853 28.9047 20.1573 28.9047 17C28.9047 13.8427 27.6505 10.8147 25.4179 8.5821C23.1853 6.34953 20.1573 5.09529 17 5.09529V0Z"/>
</mask>
<path d="M17 0C21.5087 5.37655e-08 25.8327 1.79107 29.0208 4.97918C32.2089 8.1673 34 12.4913 34 17C34 21.5087 32.2089 25.8327 29.0208 29.0208C25.8327 32.2089 21.5087 34 17 34V28.9047C20.1573 28.9047 23.1853 27.6505 25.4179 25.4179C27.6505 23.1853 28.9047 20.1573 28.9047 17C28.9047 13.8427 27.6505 10.8147 25.4179 8.5821C23.1853 6.34953 20.1573 5.09529 17 5.09529V0Z" fill="#E9ECEF" stroke="#F8F9FA" strokeWidth="0.482269" mask="url(#path-4-inside-4_6456_90192)"/>
<mask id="path-5-inside-5_6456_90192" fill="white">
<path d="M17 0C19.9437 3.51029e-08 22.8369 0.764364 25.3965 2.21827C27.956 3.67217 30.0942 5.76578 31.6017 8.29416C33.1091 10.8225 33.9342 13.699 33.9962 16.642C34.0582 19.5851 33.3549 22.4937 31.9553 25.0833L27.4728 22.6606C28.453 20.8471 28.9455 18.8103 28.9021 16.7493C28.8587 14.6884 28.2809 12.6741 27.2252 10.9035C26.1696 9.13293 24.6722 7.66682 22.8798 6.64869C21.0874 5.63055 19.0614 5.09529 17 5.09529V0Z"/>
</mask>
<path d="M17 0C19.9437 3.51029e-08 22.8369 0.764364 25.3965 2.21827C27.956 3.67217 30.0942 5.76578 31.6017 8.29416C33.1091 10.8225 33.9342 13.699 33.9962 16.642C34.0582 19.5851 33.3549 22.4937 31.9553 25.0833L27.4728 22.6606C28.453 20.8471 28.9455 18.8103 28.9021 16.7493C28.8587 14.6884 28.2809 12.6741 27.2252 10.9035C26.1696 9.13293 24.6722 7.66682 22.8798 6.64869C21.0874 5.63055 19.0614 5.09529 17 5.09529V0Z" fill="#DEE2E6" stroke="#F8F9FA" strokeWidth="0.482269" mask="url(#path-5-inside-5_6456_90192)"/>
<mask id="path-6-inside-6_6456_90192" fill="white">
<path d="M17 0C20.6461 4.34798e-08 24.1957 1.17228 27.1246 3.34381C30.0536 5.51533 32.2068 8.57102 33.2664 12.0598L28.391 13.5405C27.649 11.0974 26.1411 8.95755 24.0901 7.43688C22.039 5.91621 19.5533 5.09529 17 5.09529V0Z"/>
</mask>
<path d="M17 0C20.6461 4.34798e-08 24.1957 1.17228 27.1246 3.34381C30.0536 5.51533 32.2068 8.57102 33.2664 12.0598L28.391 13.5405C27.649 11.0974 26.1411 8.95755 24.0901 7.43688C22.039 5.91621 19.5533 5.09529 17 5.09529V0Z" fill="#E9ECEF" stroke="#F8F9FA" strokeWidth="0.482269" mask="url(#path-6-inside-6_6456_90192)"/>
</svg>
