<svg width="595" height="300" viewBox="0 0 595 300" fill="none" xmlns="http://www.w3.org/2000/svg">
<g clip-path="url(#clip0_1005_112043)">
<path d="M412.653 261.898L342.506 297.05C335.439 300.668 327.06 300.68 319.981 297.074L129.812 199.907C125.666 197.798 123.055 193.536 123.055 188.885V106.099" stroke="#99A1A6" stroke-width="0.75" stroke-linecap="round" stroke-linejoin="round" stroke-dasharray="3 5 3 5"/>
<path d="M136.141 0.698973L273.261 70.5264C276.553 72.2027 278.632 75.5861 278.632 79.285V197.427C278.626 201.095 274.746 203.47 271.472 201.806L134.365 131.966C131.073 130.29 129 126.907 129 123.208V5.07826C129 1.4103 132.88 -0.964911 136.147 0.698973H136.141Z" fill="#F5F6F6" stroke="#B3B9BC" stroke-width="0.5" stroke-linecap="round" stroke-linejoin="round"/>
<path d="M133.047 2.28247L270.167 72.1099C273.459 73.7862 275.538 77.1696 275.538 80.8685V199.01C275.532 202.678 271.652 205.054 268.379 203.39L131.271 133.55C127.979 131.874 125.906 128.49 125.906 124.791V6.66176C125.906 2.99379 129.786 0.618585 133.053 2.28247H133.047Z" fill="white" stroke="#B3B9BC" stroke-width="0.5" stroke-linecap="round" stroke-linejoin="round"/>
<path d="M268.545 200.569L133.251 131.725C130.708 130.432 128.622 126.783 128.591 123.573L128.455 19.6141C128.431 16.41 130.466 14.8574 133.016 16.1502L268.31 84.9941C270.853 86.2869 272.939 89.9363 272.97 93.1466L273.106 197.105C273.131 200.309 271.095 201.862 268.545 200.569Z" fill="white" stroke="#B3B9BC" stroke-width="0.5" stroke-linecap="round" stroke-linejoin="round"/>
<path d="M180.304 67.013L161.078 57.1101C159.537 56.3246 158.287 54.438 158.287 52.8978C158.287 51.3577 159.537 50.7453 161.078 51.5309L180.304 61.4338C181.845 62.2193 183.095 64.1059 183.095 65.646C183.095 67.1862 181.845 67.7986 180.304 67.013Z" fill="#CCD0D2"/>
<path d="M210.156 82.4024L190.929 72.4995C189.389 71.714 188.139 69.8274 188.139 68.2872C188.139 66.7471 189.389 66.1347 190.929 66.9203L210.156 76.8232C211.696 77.6087 212.946 79.4953 212.946 81.0354C212.946 82.5756 211.696 83.188 210.156 82.4024Z" fill="#CCD0D2"/>
<path d="M239.443 97.0062L220.217 87.1034C218.676 86.3178 217.426 84.4312 217.426 82.8911C217.426 81.3509 218.676 80.7385 220.217 81.5241L239.443 91.427C240.983 92.2125 242.233 94.0991 242.233 95.6393C242.233 97.1794 240.983 97.7918 239.443 97.0062Z" fill="#CCD0D2"/>
<path d="M180.304 115.921L161.078 106.018C159.537 105.233 158.287 103.346 158.287 101.806C158.287 100.266 159.537 99.6536 161.078 100.439L180.304 110.342C181.845 111.128 183.095 113.014 183.095 114.554C183.095 116.095 181.845 116.707 180.304 115.921Z" fill="#CCD0D2"/>
<path d="M209.591 130.525L190.365 120.622C188.824 119.837 187.574 117.95 187.574 116.41C187.574 114.87 188.824 114.257 190.365 115.043L209.591 124.946C211.132 125.731 212.382 127.618 212.382 129.158C212.382 130.698 211.132 131.311 209.591 130.525Z" fill="#CCD0D2"/>
<path d="M179.804 83.4602L160.578 73.5573C159.037 72.7717 157.787 70.8852 157.787 69.345C157.787 67.8048 159.037 67.1925 160.578 67.978L179.804 77.8809C181.345 78.6664 182.595 80.553 182.595 82.0932C182.595 83.6334 181.345 84.2457 179.804 83.4602Z" fill="#CCD0D2"/>
<path d="M209.091 98.0639L189.865 88.161C188.324 87.3755 187.074 85.4889 187.074 83.9487C187.074 82.4086 188.324 81.7962 189.865 82.5818L209.091 92.4847C210.632 93.2702 211.882 95.1568 211.882 96.6969C211.882 98.2371 210.632 98.8495 209.091 98.0639Z" fill="#CCD0D2"/>
<path d="M224.103 121.476L204.877 111.573C203.336 110.787 202.086 108.901 202.086 107.361C202.086 105.821 203.336 105.208 204.877 105.994L224.103 115.897C225.644 116.682 226.894 118.569 226.894 120.109C226.894 121.649 225.644 122.261 224.103 121.476Z" fill="#CCD0D2"/>
<path d="M194.035 138.17L161.078 121.402C159.537 120.616 158.287 118.73 158.287 117.189C158.287 115.649 159.537 115.037 161.078 115.822L194.035 132.591C195.576 133.377 196.826 135.263 196.826 136.803C196.826 138.344 195.576 138.956 194.035 138.17Z" fill="#CCD0D2"/>
<path d="M150.992 51.9762L147.799 50.3495C147.168 50.0278 146.66 49.2608 146.66 48.6299V45.4382C146.66 44.8073 147.174 44.5599 147.799 44.8754L150.992 46.5021C151.623 46.8238 152.13 47.5908 152.13 48.2217V51.4134C152.13 52.0443 151.617 52.2917 150.992 51.9762Z" fill="#CCD0D2"/>
<path d="M150.992 67.9471L147.799 66.3203C147.168 65.9987 146.66 65.2317 146.66 64.6007V61.4091C146.66 60.7781 147.174 60.5307 147.799 60.8462L150.992 62.473C151.623 62.7946 152.13 63.5616 152.13 64.1925V67.3842C152.13 68.0151 151.617 68.2625 150.992 67.9471Z" fill="#CCD0D2"/>
<path d="M150.992 84.1405L147.799 82.5138C147.168 82.1921 146.66 81.4251 146.66 80.7942V77.6025C146.66 76.9716 147.174 76.7242 147.799 77.0397L150.992 78.6664C151.623 78.9881 152.13 79.7551 152.13 80.386V83.5777C152.13 84.2086 151.617 84.456 150.992 84.1405Z" fill="#CCD0D2"/>
<path d="M150.992 116.274L147.799 114.647C147.168 114.325 146.66 113.558 146.66 112.928V109.736C146.66 109.105 147.174 108.858 147.799 109.173L150.992 110.8C151.623 111.121 152.13 111.888 152.13 112.519V115.711C152.13 116.342 151.617 116.589 150.992 116.274Z" fill="#CCD0D2"/>
<path d="M251.986 120.208L219.029 103.439C217.488 102.654 216.238 100.767 216.238 99.2268C216.238 97.6866 217.488 97.0743 219.029 97.8598L251.986 114.629C253.527 115.414 254.777 117.301 254.777 118.841C254.777 120.381 253.527 120.993 251.986 120.208Z" fill="#CCD0D2"/>
<path d="M194.035 105.963L161.078 89.1941C159.537 88.4085 158.287 86.5219 158.287 84.9818C158.287 83.4416 159.537 82.8292 161.078 83.6148L194.035 100.384C195.576 101.169 196.826 103.056 196.826 104.596C196.826 106.136 195.576 106.748 194.035 105.963Z" fill="#CCD0D2"/>
<path d="M150.992 100.192L147.799 98.565C147.168 98.2433 146.66 97.4764 146.66 96.8454V93.6538C146.66 93.0228 147.174 92.7754 147.799 93.0909L150.992 94.7176C151.623 95.0393 152.13 95.8063 152.13 96.4372V99.6289C152.13 100.26 151.617 100.507 150.992 100.192Z" fill="#CCD0D2"/>
<path d="M65.971 0.698973L203.091 70.5264C206.383 72.2027 208.462 75.5861 208.462 79.285V197.427C208.456 201.095 204.576 203.47 201.302 201.806L64.1951 131.966C60.9031 130.29 58.8301 126.907 58.8301 123.208V5.07826C58.8301 1.4103 62.7099 -0.964911 65.9772 0.698973H65.971Z" fill="#2892CC" stroke="#2892CC" stroke-width="0.5" stroke-linecap="round" stroke-linejoin="round"/>
<path d="M62.8831 2.28247L200.003 72.1099C203.295 73.7862 205.374 77.1696 205.374 80.8685V199.01C205.368 202.678 201.488 205.054 198.214 203.39L61.1072 133.55C57.8152 131.874 55.7422 128.49 55.7422 124.791V6.66176C55.7422 2.99379 59.6221 0.618585 62.8893 2.28247H62.8831Z" fill="white" stroke="#2892CC" stroke-width="0.5" stroke-linecap="round" stroke-linejoin="round"/>
<path d="M198.381 200.569L63.0869 131.725C60.5437 130.432 58.4583 126.783 58.4274 123.573L58.2912 19.6141C58.2665 16.41 60.3023 14.8574 62.8518 16.1502L198.146 84.9941C200.689 86.2869 202.775 89.9363 202.806 93.1466L202.942 197.105C202.966 200.309 200.931 201.862 198.381 200.569Z" fill="white" stroke="#2892CC" stroke-width="0.5" stroke-linecap="round" stroke-linejoin="round"/>
<path d="M153.084 208.425C153.084 208.957 153.356 209.482 153.901 209.761L157.168 211.425L158.041 211.87C159.328 212.526 160.844 212.526 162.131 211.87L163.016 211.418L166.295 209.754C166.84 209.476 167.118 208.95 167.118 208.418C167.118 207.886 166.846 207.355 166.295 207.076L162.131 204.967C160.844 204.317 159.328 204.317 158.047 204.973L153.907 207.082C153.362 207.361 153.09 207.893 153.09 208.418L153.084 208.425Z" fill="white" stroke="#808A8F" stroke-width="0.5" stroke-linecap="round" stroke-linejoin="round"/>
<path d="M153.084 208.425V214.431C153.084 214.963 153.357 215.488 153.901 215.767L158.035 217.876C159.322 218.532 160.838 218.532 162.125 217.876L166.289 215.761C166.834 215.482 167.112 214.956 167.112 214.424V208.418C167.112 208.944 166.834 209.476 166.289 209.754L163.01 211.418L162.125 211.87C160.838 212.526 159.322 212.526 158.035 211.87L157.162 211.425L153.895 209.761C153.35 209.482 153.078 208.95 153.078 208.425H153.084Z" fill="white" stroke="#808A8F" stroke-width="0.5" stroke-linecap="round" stroke-linejoin="round"/>
<path d="M163.418 213.682C163.418 214.214 163.69 214.74 164.235 215.018L167.502 216.682L168.375 217.128C169.662 217.783 171.178 217.783 172.465 217.128L173.35 216.676L176.629 215.012C177.174 214.734 177.452 214.208 177.452 213.676C177.452 213.144 177.18 212.612 176.629 212.334L172.465 210.225C171.178 209.575 169.662 209.575 168.381 210.231L164.241 212.34C163.696 212.618 163.424 213.15 163.424 213.676L163.418 213.682Z" fill="white" stroke="#808A8F" stroke-width="0.5" stroke-linecap="round" stroke-linejoin="round"/>
<path d="M163.418 213.682V219.688C163.418 220.22 163.691 220.746 164.235 221.024L168.369 223.134C169.656 223.789 171.172 223.789 172.459 223.134L176.623 221.018C177.168 220.74 177.446 220.214 177.446 219.682V213.676C177.446 214.202 177.168 214.734 176.623 215.012L173.344 216.676L172.459 217.127C171.172 217.783 169.656 217.783 168.369 217.127L167.496 216.682L164.229 215.018C163.684 214.74 163.412 214.208 163.412 213.682H163.418Z" fill="white" stroke="#808A8F" stroke-width="0.5" stroke-linecap="round" stroke-linejoin="round"/>
<path d="M173.752 218.94C173.752 219.472 174.024 219.998 174.569 220.276L177.836 221.94L178.709 222.385C179.996 223.041 181.512 223.041 182.799 222.385L183.684 221.934L186.963 220.27C187.508 219.991 187.786 219.466 187.786 218.934C187.786 218.402 187.514 217.87 186.963 217.591L182.799 215.482C181.512 214.833 179.996 214.833 178.715 215.488L174.575 217.598C174.03 217.876 173.758 218.408 173.758 218.934L173.752 218.94Z" fill="white" stroke="#808A8F" stroke-width="0.5" stroke-linecap="round" stroke-linejoin="round"/>
<path d="M173.752 218.94V224.946C173.752 225.478 174.025 226.004 174.569 226.282L178.703 228.391C179.99 229.047 181.506 229.047 182.793 228.391L186.957 226.276C187.502 225.997 187.78 225.472 187.78 224.94V218.934C187.78 219.459 187.502 219.991 186.957 220.27L183.678 221.934L182.793 222.385C181.506 223.041 179.99 223.041 178.703 222.385L177.83 221.94L174.563 220.276C174.018 219.998 173.746 219.466 173.746 218.94H173.752Z" fill="white" stroke="#808A8F" stroke-width="0.5" stroke-linecap="round" stroke-linejoin="round"/>
<path d="M184.092 224.191C184.092 224.723 184.364 225.249 184.909 225.527L188.176 227.191L189.048 227.637C190.335 228.292 191.852 228.292 193.139 227.637L194.024 227.185L197.303 225.521C197.848 225.243 198.126 224.717 198.126 224.185C198.126 223.653 197.854 223.121 197.303 222.843L193.139 220.734C191.852 220.084 190.335 220.084 189.055 220.74L184.915 222.849C184.37 223.127 184.098 223.659 184.098 224.185L184.092 224.191Z" fill="white" stroke="#808A8F" stroke-width="0.5" stroke-linecap="round" stroke-linejoin="round"/>
<path d="M184.092 224.191V230.197C184.092 230.729 184.364 231.255 184.909 231.533L189.043 233.643C190.33 234.298 191.846 234.298 193.133 233.643L197.297 231.527C197.842 231.249 198.12 230.723 198.12 230.191V224.185C198.12 224.711 197.842 225.243 197.297 225.521L194.018 227.185L193.133 227.637C191.846 228.292 190.33 228.292 189.043 227.637L188.17 227.191L184.903 225.527C184.358 225.249 184.086 224.717 184.086 224.191H184.092Z" fill="white" stroke="#808A8F" stroke-width="0.5" stroke-linecap="round" stroke-linejoin="round"/>
<path d="M194.426 229.449C194.426 229.981 194.698 230.507 195.243 230.785L198.51 232.449L199.382 232.894C200.669 233.55 202.186 233.55 203.473 232.894L204.357 232.443L207.637 230.779C208.182 230.5 208.46 229.975 208.46 229.443C208.46 228.911 208.188 228.379 207.637 228.1L203.473 225.991C202.186 225.342 200.669 225.342 199.389 225.997L195.249 228.107C194.704 228.385 194.432 228.917 194.432 229.443L194.426 229.449Z" fill="white" stroke="#808A8F" stroke-width="0.5" stroke-linecap="round" stroke-linejoin="round"/>
<path d="M194.426 229.449V235.455C194.426 235.987 194.698 236.513 195.243 236.791L199.377 238.9C200.664 239.556 202.18 239.556 203.467 238.9L207.631 236.785C208.176 236.506 208.454 235.981 208.454 235.449V229.443C208.454 229.968 208.176 230.5 207.631 230.779L204.352 232.443L203.467 232.894C202.18 233.55 200.664 233.55 199.377 232.894L198.504 232.449L195.237 230.785C194.692 230.507 194.42 229.975 194.42 229.449H194.426Z" fill="white" stroke="#808A8F" stroke-width="0.5" stroke-linecap="round" stroke-linejoin="round"/>
<path d="M244.957 256.609C244.957 257.141 245.229 257.667 245.774 257.945L249.041 259.609L249.914 260.054C251.201 260.71 252.717 260.71 254.004 260.054L254.889 259.603L258.168 257.939C258.713 257.661 258.991 257.135 258.991 256.603C258.991 256.071 258.719 255.539 258.168 255.261L254.004 253.151C252.717 252.502 251.201 252.502 249.92 253.158L245.78 255.267C245.236 255.545 244.963 256.077 244.963 256.603L244.957 256.609Z" fill="white" stroke="#808A8F" stroke-width="0.5" stroke-linecap="round" stroke-linejoin="round"/>
<path d="M244.957 256.609V262.615C244.957 263.147 245.23 263.673 245.774 263.951L249.908 266.061C251.195 266.716 252.711 266.716 253.998 266.061L258.163 263.945C258.707 263.667 258.986 263.141 258.986 262.609V256.603C258.986 257.129 258.707 257.661 258.163 257.939L254.883 259.603L253.998 260.054C252.711 260.71 251.195 260.71 249.908 260.054L249.035 259.609L245.768 257.945C245.223 257.667 244.951 257.135 244.951 256.609H244.957Z" fill="white" stroke="#808A8F" stroke-width="0.5" stroke-linecap="round" stroke-linejoin="round"/>
<path d="M255.291 261.867C255.291 262.399 255.563 262.924 256.108 263.203L259.375 264.867L260.248 265.312C261.535 265.968 263.051 265.968 264.338 265.312L265.223 264.861L268.502 263.197C269.047 262.918 269.325 262.393 269.325 261.861C269.325 261.329 269.053 260.797 268.502 260.518L264.338 258.409C263.051 257.76 261.535 257.76 260.254 258.415L256.114 260.525C255.569 260.803 255.297 261.335 255.297 261.861L255.291 261.867Z" fill="white" stroke="#808A8F" stroke-width="0.5" stroke-linecap="round" stroke-linejoin="round"/>
<path d="M255.291 261.867V267.873C255.291 268.405 255.564 268.931 256.108 269.209L260.242 271.318C261.529 271.974 263.045 271.974 264.332 271.318L268.497 269.203C269.041 268.924 269.32 268.399 269.32 267.867V261.861C269.32 262.386 269.041 262.918 268.497 263.197L265.217 264.861L264.332 265.312C263.045 265.968 261.529 265.968 260.242 265.312L259.369 264.867L256.102 263.203C255.557 262.924 255.285 262.393 255.285 261.867H255.291Z" fill="white" stroke="#808A8F" stroke-width="0.5" stroke-linecap="round" stroke-linejoin="round"/>
<path d="M265.631 267.124C265.631 267.656 265.903 268.182 266.448 268.46L269.715 270.124L270.587 270.57C271.875 271.225 273.391 271.225 274.678 270.57L275.563 270.118L278.842 268.454C279.387 268.176 279.665 267.65 279.665 267.118C279.665 266.586 279.393 266.054 278.842 265.776L274.678 263.667C273.391 263.017 271.875 263.017 270.594 263.673L266.454 265.782C265.909 266.061 265.637 266.592 265.637 267.118L265.631 267.124Z" fill="white" stroke="#808A8F" stroke-width="0.5" stroke-linecap="round" stroke-linejoin="round"/>
<path d="M265.631 267.124V273.13C265.631 273.662 265.903 274.188 266.448 274.467L270.582 276.576C271.869 277.231 273.385 277.231 274.672 276.576L278.836 274.46C279.381 274.182 279.659 273.656 279.659 273.124V267.118C279.659 267.644 279.381 268.176 278.836 268.454L275.557 270.118L274.672 270.57C273.385 271.225 271.869 271.225 270.582 270.57L269.709 270.124L266.442 268.46C265.897 268.182 265.625 267.65 265.625 267.124H265.631Z" fill="white" stroke="#808A8F" stroke-width="0.5" stroke-linecap="round" stroke-linejoin="round"/>
<path d="M371.205 231.082C371.205 234.038 373.408 236.995 377.839 239.253L446.921 274.436C455.77 278.939 470.114 278.939 478.957 274.436L548.039 239.253C552.458 237.001 554.673 234.057 554.673 231.107V235.461C554.673 238.412 552.458 241.356 548.039 243.607L478.957 278.79C470.108 283.293 455.764 283.293 446.921 278.79L377.839 243.607C373.408 241.35 371.205 238.393 371.205 235.436V231.082Z" fill="#F5F6F6" stroke="#B3B9BC" stroke-width="0.5" stroke-linecap="round" stroke-linejoin="round"/>
<path d="M371.205 231.082C371.205 228.131 373.42 225.187 377.839 222.936L446.921 187.753C455.77 183.25 470.114 183.25 478.957 187.753L548.039 222.936C552.47 225.193 554.673 228.15 554.673 231.107C554.673 234.063 552.458 237.001 548.039 239.253L478.957 274.436C470.108 278.939 455.764 278.939 446.921 274.436L377.839 239.253C373.408 236.995 371.205 234.038 371.205 231.082Z" fill="white" stroke="#B3B9BC" stroke-width="0.5" stroke-linecap="round" stroke-linejoin="round"/>
<g opacity="0.2">
<path d="M505.163 216.527C505.163 219.812 503.467 223.103 500.089 224.822L479.842 235.158L474.452 237.904C466.488 241.974 457.058 241.981 449.094 237.923L443.599 235.133L423.259 224.797C419.88 223.084 418.172 219.806 418.166 216.534C418.16 213.237 419.849 209.934 423.271 208.202L449.106 195.113C457.07 191.081 466.482 191.099 474.44 195.163L500.095 208.251C503.474 209.983 505.169 213.262 505.169 216.534L505.163 216.527Z" fill="white" stroke="#808A8F" stroke-width="0.5" stroke-linecap="round" stroke-linejoin="round"/>
<path d="M505.163 216.527V222.886C505.163 226.171 503.467 229.461 500.089 231.181L474.452 244.263C466.488 248.333 457.058 248.339 449.094 244.282L423.259 231.156C419.88 229.443 418.172 226.164 418.166 222.892V216.534C418.178 219.812 419.88 223.09 423.259 224.797L443.599 235.133L449.094 237.923C457.058 241.981 466.488 241.974 474.452 237.904L479.842 235.158L500.089 224.822C503.467 223.103 505.163 219.812 505.163 216.527Z" fill="white" stroke="#808A8F" stroke-width="0.5" stroke-linecap="round" stroke-linejoin="round"/>
</g>
<g opacity="0.4">
<path d="M505.163 195.942C505.163 199.227 503.467 202.517 500.089 204.237L479.842 214.573L474.452 217.319C466.488 221.389 457.058 221.395 449.094 217.338L443.599 214.548L423.259 204.212C419.88 202.499 418.172 199.221 418.166 195.948C418.16 192.652 419.849 189.349 423.271 187.617L449.106 174.528C457.07 170.495 466.482 170.514 474.44 174.578L500.095 187.666C503.474 189.398 505.169 192.676 505.169 195.948L505.163 195.942Z" fill="white" stroke="#808A8F" stroke-width="0.5" stroke-linecap="round" stroke-linejoin="round"/>
<path d="M505.163 195.942V202.301C505.163 205.585 503.467 208.876 500.089 210.596L474.452 223.678C466.488 227.748 457.058 227.754 449.094 223.696L423.259 210.571C419.88 208.858 418.172 205.579 418.166 202.307V195.949C418.178 199.227 419.88 202.505 423.259 204.212L443.599 214.548L449.094 217.338C457.058 221.395 466.488 221.389 474.452 217.319L479.842 214.573L500.089 204.237C503.467 202.517 505.163 199.227 505.163 195.942Z" fill="white" stroke="#808A8F" stroke-width="0.5" stroke-linecap="round" stroke-linejoin="round"/>
</g>
<g opacity="0.6">
<path d="M505.163 175.357C505.163 178.642 503.467 181.932 500.089 183.652L479.842 193.988L474.452 196.734C466.488 200.804 457.058 200.81 449.094 196.753L443.599 193.963L423.259 183.627C419.88 181.914 418.172 178.635 418.166 175.363C418.16 172.067 419.849 168.763 423.271 167.032L449.106 153.943C457.07 149.91 466.482 149.929 474.44 153.993L500.095 167.081C503.474 168.813 505.169 172.091 505.169 175.363L505.163 175.357Z" fill="white" stroke="#808A8F" stroke-width="0.5" stroke-linecap="round" stroke-linejoin="round"/>
<path d="M505.163 175.357V181.716C505.163 185 503.467 188.291 500.089 190.01L474.452 203.093C466.488 207.163 457.058 207.169 449.094 203.111L423.259 189.986C419.88 188.272 418.172 184.994 418.166 181.722V175.363C418.178 178.642 419.88 181.92 423.259 183.627L443.599 193.963L449.094 196.753C457.058 200.81 466.488 200.804 474.452 196.734L479.842 193.988L500.089 183.652C503.467 181.932 505.163 178.642 505.163 175.357Z" fill="white" stroke="#808A8F" stroke-width="0.5" stroke-linecap="round" stroke-linejoin="round"/>
</g>
<g opacity="0.8">
<path d="M505.163 154.766C505.163 158.05 503.467 161.341 500.089 163.061L479.842 173.396L474.452 176.143C466.488 180.213 457.058 180.219 449.094 176.161L443.599 173.372L423.259 163.036C419.88 161.322 418.172 158.044 418.166 154.772C418.16 151.475 419.849 148.172 423.271 146.44L449.106 133.352C457.07 129.319 466.482 129.338 474.44 133.401L500.095 146.49C503.474 148.222 505.169 151.5 505.169 154.772L505.163 154.766Z" fill="white" stroke="#808A8F" stroke-width="0.5" stroke-linecap="round" stroke-linejoin="round"/>
<path d="M505.163 154.766V161.124C505.163 164.409 503.467 167.7 500.089 169.419L474.452 182.501C466.488 186.571 457.058 186.578 449.094 182.52L423.259 169.394C419.88 167.681 418.172 164.403 418.166 161.131V154.772C418.178 158.05 419.88 161.329 423.259 163.036L443.599 173.372L449.094 176.161C457.058 180.219 466.488 180.213 474.452 176.143L479.842 173.396L500.089 163.061C503.467 161.341 505.163 158.05 505.163 154.766Z" fill="white" stroke="#808A8F" stroke-width="0.5" stroke-linecap="round" stroke-linejoin="round"/>
</g>
<path d="M505.163 134.181C505.163 137.465 503.467 140.756 500.089 142.475L479.842 152.811L474.452 155.558C466.488 159.628 457.058 159.634 449.094 155.576L443.599 152.787L423.259 142.451C419.88 140.737 418.172 137.459 418.166 134.187C418.16 130.89 419.849 127.587 423.271 125.855L449.106 112.767C457.07 108.734 466.482 108.752 474.44 112.816L500.095 125.905C503.474 127.637 505.169 130.915 505.169 134.187L505.163 134.181Z" fill="white" stroke="#808A8F" stroke-width="0.5" stroke-linecap="round" stroke-linejoin="round"/>
<path d="M505.163 134.181V140.539C505.163 143.824 503.467 147.114 500.089 148.834L474.452 161.916C466.488 165.986 457.058 165.992 449.094 161.935L423.259 148.809C419.88 147.096 418.172 143.818 418.166 140.546V134.187C418.178 137.465 419.88 140.743 423.259 142.451L443.599 152.787L449.094 155.576C457.058 159.634 466.488 159.628 474.452 155.558L479.842 152.811L500.089 142.475C503.467 140.756 505.163 137.465 505.163 134.181Z" fill="white" stroke="#808A8F" stroke-width="0.5" stroke-linecap="round" stroke-linejoin="round"/>
<path d="M443.109 135.226C441.785 134.41 442.014 133.203 443.611 132.529C445.003 131.942 447.008 131.942 448.4 132.529C449.991 133.21 452.361 133.098 453.697 132.288C453.976 132.115 454.198 131.923 454.347 131.713C455.077 130.723 457.243 130.222 459.186 130.593C460.863 130.915 461.865 131.793 461.574 132.696C461.216 133.735 462.583 134.731 464.625 134.911C465.052 134.948 465.491 134.948 465.925 134.911C467.973 134.737 469.91 135.443 470.244 136.488C470.535 137.391 469.538 138.269 467.855 138.591C465.906 138.956 464.897 140.051 465.609 141.047C465.758 141.257 465.98 141.449 466.259 141.622C467.583 142.438 467.354 143.644 465.758 144.319C464.365 144.906 462.36 144.906 460.968 144.319C459.378 143.638 457.008 143.743 455.671 144.554C455.393 144.727 455.17 144.919 455.021 145.129C454.291 146.119 452.125 146.62 450.182 146.249C448.505 145.927 447.503 145.049 447.794 144.145C448.153 143.106 446.785 142.11 444.743 141.931C444.316 141.894 443.877 141.894 443.444 141.931C441.395 142.104 439.465 141.393 439.124 140.354C438.834 139.451 439.83 138.572 441.507 138.251C443.456 137.886 444.465 136.791 443.753 135.795C443.605 135.585 443.382 135.393 443.103 135.22" stroke="#808A8F" stroke-linecap="round" stroke-linejoin="round"/>
<path d="M451.278 136.692C453.159 135.733 456.21 135.733 458.091 136.692C459.972 137.651 459.972 139.203 458.091 140.162C456.21 141.121 453.159 141.121 451.278 140.162C449.397 139.203 449.397 137.651 451.278 136.692Z" stroke="#808A8F" stroke-linecap="round" stroke-linejoin="round"/>
<path d="M459.731 122.911C458.735 122.299 458.902 121.389 460.109 120.882C461.155 120.443 462.671 120.443 463.716 120.882C464.917 121.395 466.699 121.315 467.701 120.703C467.912 120.573 468.079 120.431 468.19 120.27C468.741 119.527 470.368 119.15 471.835 119.428C473.097 119.67 473.852 120.332 473.63 121.012C473.357 121.797 474.391 122.546 475.931 122.682C476.253 122.713 476.587 122.713 476.909 122.682C478.45 122.552 479.91 123.084 480.164 123.87C480.387 124.55 479.632 125.212 478.37 125.453C476.903 125.725 476.142 126.554 476.68 127.303C476.792 127.457 476.959 127.606 477.169 127.736C478.165 128.348 477.998 129.257 476.792 129.764C475.746 130.204 474.23 130.204 473.184 129.764C471.984 129.251 470.201 129.331 469.199 129.944C468.989 130.074 468.821 130.216 468.71 130.377C468.159 131.119 466.532 131.496 465.065 131.218C463.803 130.977 463.048 130.315 463.271 129.634C463.543 128.849 462.51 128.1 460.969 127.964C460.647 127.933 460.313 127.933 459.991 127.964C458.45 128.094 456.99 127.562 456.736 126.777C456.52 126.096 457.269 125.435 458.531 125.193C459.997 124.921 460.759 124.092 460.22 123.344C460.109 123.189 459.942 123.041 459.731 122.911Z" stroke="#808A8F" stroke-linecap="round" stroke-linejoin="round"/>
<path d="M465.883 124.018C467.3 123.294 469.596 123.294 471.013 124.018C472.43 124.742 472.43 125.911 471.013 126.634C469.596 127.358 467.3 127.358 465.883 126.634C464.466 125.911 464.466 124.742 465.883 124.018Z" stroke="#808A8F" stroke-linecap="round" stroke-linejoin="round"/>
<path d="M371.205 121.55C371.205 118.6 373.42 115.655 377.839 113.404L446.921 78.2211C455.77 73.7181 470.114 73.7181 478.957 78.2211L548.039 113.404C552.47 115.662 554.673 118.618 554.673 121.575C554.673 124.531 552.458 127.47 548.039 129.721L478.957 164.904C470.108 169.407 455.764 169.407 446.921 164.904L377.839 129.721C373.408 127.463 371.205 124.507 371.205 121.55Z" stroke="#99A1A6" stroke-width="0.75" stroke-linecap="round" stroke-linejoin="round" stroke-dasharray="3 5 3 5"/>
<path d="M554.68 121.575V232.053" stroke="#99A1A6" stroke-width="0.75" stroke-linecap="round" stroke-linejoin="round" stroke-dasharray="3 5 3 5"/>
<path d="M371.205 121.55V231.082" stroke="#99A1A6" stroke-width="0.75" stroke-linecap="round" stroke-linejoin="round" stroke-dasharray="3 5 3 5"/>
<path d="M131.613 92.7631C131.613 91.4147 132.782 91.1301 133.772 92.2373L150.071 110.453C151.334 111.864 152.132 113.843 152.132 115.563V131.379C152.132 132.727 150.962 133.012 149.972 131.905L140.808 121.661V109.798C140.808 108.078 140.01 106.099 138.747 104.689L131.613 96.7156V92.7693V92.7631ZM108.971 81.2272C108.971 79.8788 110.14 79.5943 111.13 80.7015L120.289 90.9384V102.808C120.289 104.528 121.087 106.507 122.349 107.917L129.49 115.897V119.843C129.49 121.191 128.321 121.476 127.33 120.369L111.031 102.153C109.769 100.742 108.971 98.763 108.971 97.0434V81.2272ZM120.289 86.9921C120.289 85.6436 121.458 85.3591 122.448 86.4663L131.613 96.7032V108.573C131.613 110.293 132.411 112.272 133.673 113.682L140.808 121.655V125.608C140.808 126.956 139.638 127.241 138.648 126.134L129.49 115.897V104.027C129.49 102.307 128.692 100.328 127.429 98.9176L120.289 90.9384V86.9921Z" fill="#2892CC"/>
<path d="M0.154297 120.443C0.154297 121.179 0.537952 121.921 1.29289 122.305L5.84725 124.63L7.06009 125.249C8.84842 126.164 10.9709 126.164 12.7592 125.249L13.9968 124.624L18.5698 122.299C19.3309 121.915 19.7145 121.179 19.7145 120.443C19.7145 119.701 19.3371 118.958 18.5698 118.569L12.7592 115.624C10.9709 114.721 8.85461 114.721 7.06628 115.637L1.29908 118.581C0.537952 118.971 0.160485 119.707 0.160485 120.443H0.154297Z" fill="white" stroke="#808A8F" stroke-width="0.5" stroke-linecap="round" stroke-linejoin="round"/>
<path d="M0.154625 120.443V128.812C0.154625 129.548 0.538281 130.29 1.29322 130.674L7.05423 133.612C8.84256 134.527 10.965 134.527 12.7534 133.612L18.5639 130.661C19.325 130.278 19.7087 129.542 19.7087 128.806V120.437C19.7087 121.173 19.325 121.909 18.5639 122.292L13.991 124.618L12.7534 125.243C10.965 126.158 8.84256 126.152 7.05423 125.243L5.84139 124.624L1.28703 122.299C0.525905 121.909 0.148438 121.173 0.148438 120.437L0.154625 120.443Z" fill="white" stroke="#808A8F" stroke-width="0.5" stroke-linecap="round" stroke-linejoin="round"/>
<path d="M346.904 96.3506C346.904 97.0867 347.288 97.8289 348.043 98.2124L352.597 100.538L353.81 101.157C355.598 102.072 357.721 102.072 359.509 101.157L360.747 100.532L365.32 98.2062C366.081 97.8227 366.465 97.0867 366.465 96.3506C366.465 95.6084 366.087 94.8661 365.32 94.4764L359.509 91.5322C357.721 90.6291 355.605 90.6291 353.816 91.5445L348.049 94.4888C347.288 94.8785 346.91 95.6145 346.91 96.3506H346.904Z" fill="white" stroke="#808A8F" stroke-width="0.5" stroke-linecap="round" stroke-linejoin="round"/>
<path d="M346.905 96.3506V104.72C346.905 105.456 347.288 106.198 348.043 106.581L353.804 109.519C355.593 110.435 357.715 110.435 359.503 109.519L365.314 106.569C366.075 106.185 366.459 105.449 366.459 104.713V96.3444C366.459 97.0805 366.075 97.8166 365.314 98.2001L360.741 100.526L359.503 101.151C357.715 102.066 355.593 102.06 353.804 101.151L352.591 100.532L348.037 98.2062C347.276 97.8166 346.898 97.0805 346.898 96.3444L346.905 96.3506Z" fill="white" stroke="#808A8F" stroke-width="0.5" stroke-linecap="round" stroke-linejoin="round"/>
<path d="M575.285 127.123C575.285 127.859 575.669 128.601 576.424 128.985L580.978 131.311L582.191 131.929C583.979 132.845 586.102 132.845 587.89 131.929L589.128 131.304L593.701 128.979C594.462 128.595 594.845 127.859 594.845 127.123C594.845 126.381 594.468 125.639 593.701 125.249L587.89 122.305C586.102 121.402 583.985 121.402 582.197 122.317L576.43 125.261C575.669 125.651 575.291 126.387 575.291 127.123H575.285Z" fill="white" stroke="#808A8F" stroke-width="0.5" stroke-linecap="round" stroke-linejoin="round"/>
<path d="M575.285 127.123V135.492C575.285 136.228 575.669 136.97 576.424 137.354L582.185 140.292C583.973 141.207 586.096 141.207 587.884 140.292L593.695 137.341C594.456 136.958 594.84 136.222 594.84 135.486V127.117C594.84 127.853 594.456 128.589 593.695 128.973L589.122 131.298L587.884 131.923C586.096 132.838 583.973 132.832 582.185 131.923L580.972 131.304L576.418 128.979C575.657 128.589 575.279 127.853 575.279 127.117L575.285 127.123Z" fill="white" stroke="#808A8F" stroke-width="0.5" stroke-linecap="round" stroke-linejoin="round"/>
<path d="M361.428 78.0541C361.428 78.7902 361.811 79.5324 362.566 79.9159L367.121 82.2416L368.334 82.8602C370.122 83.7756 372.244 83.7756 374.033 82.8602L375.27 82.2355L379.843 79.9097C380.604 79.5262 380.988 78.7902 380.988 78.0541C380.988 77.3118 380.611 76.5696 379.843 76.1799L374.033 73.2356C372.244 72.3326 370.128 72.3326 368.34 73.248L362.572 76.1923C361.811 76.582 361.434 77.318 361.434 78.0541H361.428Z" fill="white" stroke="#808A8F" stroke-width="0.5" stroke-linecap="round" stroke-linejoin="round"/>
<path d="M361.428 78.0541V86.423C361.428 87.1591 361.812 87.9013 362.567 88.2848L368.328 91.2229C370.116 92.1383 372.238 92.1383 374.027 91.2229L379.837 88.2724C380.598 87.889 380.982 87.1529 380.982 86.4168V78.0479C380.982 78.784 380.598 79.52 379.837 79.9035L375.264 82.2293L374.027 82.854C372.238 83.7694 370.116 83.7633 368.328 82.854L367.115 82.2355L362.56 79.9097C361.799 79.52 361.422 78.784 361.422 78.0479L361.428 78.0541Z" fill="white" stroke="#808A8F" stroke-width="0.5" stroke-linecap="round" stroke-linejoin="round"/>
<path d="M10.7113 145.179V158.632C10.7113 158.935 10.8041 159.232 10.965 159.492C11.1259 159.751 11.361 159.956 11.6333 160.092L36.6823 172.883C37.3939 173.248 38.1859 173.44 38.9904 173.44C39.7948 173.44 40.5869 173.248 41.2985 172.883L49.8256 168.535C50.0978 168.411 50.3268 168.207 50.4877 167.959C50.6486 167.712 50.7414 167.421 50.7476 167.124V153.64L18.4029 142.308L10.7051 145.179H10.7113Z" fill="white" stroke="#808A8F" stroke-width="0.5" stroke-linecap="round" stroke-linejoin="round"/>
<path d="M11.6271 143.663L20.1665 139.315C20.8781 138.95 21.6702 138.752 22.4746 138.752C23.2791 138.752 24.0711 138.944 24.7828 139.315L49.8317 152.106C50.1102 152.248 50.3453 152.459 50.5062 152.725C50.6671 152.991 50.7537 153.294 50.7537 153.603C50.7537 153.912 50.6671 154.215 50.5062 154.481C50.3453 154.747 50.1102 154.958 49.8317 155.1L41.2985 159.448C40.5869 159.813 39.7948 160.005 38.9904 160.005C38.1859 160.005 37.3939 159.813 36.6823 159.448L11.6333 146.669C11.3548 146.527 11.1197 146.31 10.9588 146.051C10.7979 145.785 10.7113 145.482 10.7051 145.172C10.7051 144.863 10.7917 144.554 10.9526 144.288C11.1135 144.022 11.3486 143.805 11.6209 143.663H11.6271Z" fill="white" stroke="#808A8F" stroke-width="0.5" stroke-linecap="round" stroke-linejoin="round"/>
</g>
<defs>
<clipPath id="clip0_1005_112043">
<rect width="595" height="300" fill="white"/>
</clipPath>
</defs>
</svg>
