<svg width="200" height="200" viewBox="0 0 200 200" fill="none" xmlns="http://www.w3.org/2000/svg">
<circle cx="100" cy="100" r="100" fill="#171717"/>
<path d="M99.6846 98.4238C113.579 98.4238 124.842 87.1606 124.842 73.2666C124.842 59.3726 113.579 48.1094 99.6846 48.1094C85.7906 48.1094 74.5273 59.3726 74.5273 73.2666C74.5273 87.1606 85.7906 98.4238 99.6846 98.4238Z" fill="#696B74"/>
<path d="M145.28 139.701C145.28 129.228 139.926 119.183 132.014 111.777C124.101 104.372 113.37 100.211 102.18 100.211C90.9898 100.211 80.2583 104.372 72.3459 111.777C64.4334 119.183 59.9883 129.228 59.9883 139.701" fill="#363638" stroke="#363638" stroke-width="2" stroke-linecap="round" stroke-linejoin="round"/>
<path d="M144.723 135.61C146.059 140.899 140.278 147.705 132.365 152.07C124.453 156.436 115.016 158.204 103.826 158.204C92.636 158.204 81.9044 155.751 73.992 151.386C65.8129 148.307 57.5454 140.561 61.6344 134.926L103.826 134.926L144.723 135.61Z" fill="#363638"/>
</svg>
