<svg width="205" height="217" viewBox="0 0 205 217" fill="none" xmlns="http://www.w3.org/2000/svg">
<circle cx="102.5" cy="102.5" r="102.5" fill="url(#paint0_linear_7901_142341)"/>
<path d="M103 165.5C137.518 165.5 165.5 137.518 165.5 103C165.5 68.4822 137.518 40.5 103 40.5C68.4822 40.5 40.5 68.4822 40.5 103C40.5 137.518 68.4822 165.5 103 165.5Z" stroke="#80838D" stroke-width="4" stroke-linecap="round" stroke-linejoin="round"/>
<path d="M103 140.5C112.946 140.5 122.484 136.549 129.517 129.517C136.549 122.484 140.5 112.946 140.5 103C140.5 93.0544 136.549 83.5161 129.517 76.4835C122.484 69.4509 112.946 65.5 103 65.5V140.5Z" fill="#80838D" stroke="#80838D" stroke-width="4" stroke-linecap="round" stroke-linejoin="round"/>
<g filter="url(#filter0_ddd_7901_142341)">
<circle cx="102.754" cy="173.828" r="31" fill="#3A5BC7"/>
<path d="M101.075 185.585C108.494 185.585 114.508 179.571 114.508 172.152C114.508 164.733 108.494 158.719 101.075 158.719C93.6559 158.719 87.6416 164.733 87.6416 172.152C87.6416 179.571 93.6559 185.585 101.075 185.585Z" stroke="white" stroke-width="2.52049" stroke-linecap="round" stroke-linejoin="round"/>
<path d="M117.866 188.939L110.646 181.719" stroke="white" stroke-width="2.52049" stroke-linecap="round" stroke-linejoin="round"/>
</g>
<defs>
<filter id="filter0_ddd_7901_142341" x="63.7539" y="137.828" width="78" height="79" filterUnits="userSpaceOnUse" color-interpolation-filters="sRGB">
<feFlood flood-opacity="0" result="BackgroundImageFix"/>
<feColorMatrix in="SourceAlpha" type="matrix" values="0 0 0 0 0 0 0 0 0 0 0 0 0 0 0 0 0 0 127 0" result="hardAlpha"/>
<feMorphology radius="2" operator="erode" in="SourceAlpha" result="effect1_dropShadow_7901_142341"/>
<feOffset dy="2"/>
<feGaussianBlur stdDeviation="1.5"/>
<feComposite in2="hardAlpha" operator="out"/>
<feColorMatrix type="matrix" values="0 0 0 0 0 0 0 0 0 0 0 0 0 0 0.24 0 0 0 0.051 0"/>
<feBlend mode="normal" in2="BackgroundImageFix" result="effect1_dropShadow_7901_142341"/>
<feColorMatrix in="SourceAlpha" type="matrix" values="0 0 0 0 0 0 0 0 0 0 0 0 0 0 0 0 0 0 127 0" result="hardAlpha"/>
<feMorphology radius="4" operator="erode" in="SourceAlpha" result="effect2_dropShadow_7901_142341"/>
<feOffset dy="3"/>
<feGaussianBlur stdDeviation="6"/>
<feComposite in2="hardAlpha" operator="out"/>
<feColorMatrix type="matrix" values="0 0 0 0 0 0 0 0 0 0 0 0 0 0 0 0 0 0 0.055 0"/>
<feBlend mode="normal" in2="effect1_dropShadow_7901_142341" result="effect2_dropShadow_7901_142341"/>
<feColorMatrix in="SourceAlpha" type="matrix" values="0 0 0 0 0 0 0 0 0 0 0 0 0 0 0 0 0 0 127 0" result="hardAlpha"/>
<feMorphology radius="8" operator="erode" in="SourceAlpha" result="effect3_dropShadow_7901_142341"/>
<feOffset dy="4"/>
<feGaussianBlur stdDeviation="8"/>
<feComposite in2="hardAlpha" operator="out"/>
<feColorMatrix type="matrix" values="0 0 0 0 0 0 0 0 0 0 0 0 0 0 0 0 0 0 0.078 0"/>
<feBlend mode="normal" in2="effect2_dropShadow_7901_142341" result="effect3_dropShadow_7901_142341"/>
<feBlend mode="normal" in="SourceGraphic" in2="effect3_dropShadow_7901_142341" result="shape"/>
</filter>
<linearGradient id="paint0_linear_7901_142341" x1="102.5" y1="0" x2="102.5" y2="207.52" gradientUnits="userSpaceOnUse">
<stop stop-color="#F7F7F7"/>
<stop offset="1" stop-color="#F8F9FA" stop-opacity="0"/>
</linearGradient>
</defs>
</svg>
