<svg width="596" height="568" viewBox="0 0 596 568" fill="none" xmlns="http://www.w3.org/2000/svg">
<circle cx="293" cy="284" r="284" fill="#F1F3F5"/>
<path d="M191.016 181.117H178.242V174.008H190.293V169.477H178.242V162.68H191.016V157.816H172.344V186H191.016V181.117ZM230.172 162.426H235.191C238.121 162.426 239.957 164.184 239.957 166.918C239.957 169.711 238.219 171.41 235.25 171.41H230.172V162.426ZM230.172 175.688H234.898L240.152 186H246.832L240.895 174.809C244.137 173.539 246.012 170.414 246.012 166.801C246.012 161.234 242.301 157.816 235.816 157.816H224.273V186H230.172V175.688ZM284.797 162.426H289.816C292.746 162.426 294.582 164.184 294.582 166.918C294.582 169.711 292.844 171.41 289.875 171.41H284.797V162.426ZM284.797 175.688H289.523L294.777 186H301.457L295.52 174.809C298.762 173.539 300.637 170.414 300.637 166.801C300.637 161.234 296.926 157.816 290.441 157.816H278.898V186H284.797V175.688ZM346.238 157.328C337.879 157.328 332.645 162.934 332.645 171.918C332.645 180.883 337.879 186.488 346.238 186.488C354.578 186.488 359.832 180.883 359.832 171.918C359.832 162.934 354.578 157.328 346.238 157.328ZM346.238 162.25C350.848 162.25 353.797 166 353.797 171.918C353.797 177.816 350.848 181.547 346.238 181.547C341.609 181.547 338.66 177.816 338.66 171.918C338.66 166 341.629 162.25 346.238 162.25ZM398.539 162.426H403.559C406.488 162.426 408.324 164.184 408.324 166.918C408.324 169.711 406.586 171.41 403.617 171.41H398.539V162.426ZM398.539 175.688H403.266L408.52 186H415.199L409.262 174.809C412.504 173.539 414.379 170.414 414.379 166.801C414.379 161.234 410.668 157.816 404.184 157.816H392.641V186H398.539V175.688Z" fill="black"/>
<path d="M191.016 181.117H178.242V174.008H190.293V169.477H178.242V162.68H191.016V157.816H172.344V186H191.016V181.117ZM230.172 162.426H235.191C238.121 162.426 239.957 164.184 239.957 166.918C239.957 169.711 238.219 171.41 235.25 171.41H230.172V162.426ZM230.172 175.688H234.898L240.152 186H246.832L240.895 174.809C244.137 173.539 246.012 170.414 246.012 166.801C246.012 161.234 242.301 157.816 235.816 157.816H224.273V186H230.172V175.688ZM284.797 162.426H289.816C292.746 162.426 294.582 164.184 294.582 166.918C294.582 169.711 292.844 171.41 289.875 171.41H284.797V162.426ZM284.797 175.688H289.523L294.777 186H301.457L295.52 174.809C298.762 173.539 300.637 170.414 300.637 166.801C300.637 161.234 296.926 157.816 290.441 157.816H278.898V186H284.797V175.688ZM346.238 157.328C337.879 157.328 332.645 162.934 332.645 171.918C332.645 180.883 337.879 186.488 346.238 186.488C354.578 186.488 359.832 180.883 359.832 171.918C359.832 162.934 354.578 157.328 346.238 157.328ZM346.238 162.25C350.848 162.25 353.797 166 353.797 171.918C353.797 177.816 350.848 181.547 346.238 181.547C341.609 181.547 338.66 177.816 338.66 171.918C338.66 166 341.629 162.25 346.238 162.25ZM398.539 162.426H403.559C406.488 162.426 408.324 164.184 408.324 166.918C408.324 169.711 406.586 171.41 403.617 171.41H398.539V162.426ZM398.539 175.688H403.266L408.52 186H415.199L409.262 174.809C412.504 173.539 414.379 170.414 414.379 166.801C414.379 161.234 410.668 157.816 404.184 157.816H392.641V186H398.539V175.688Z" fill="black"/>
<mask id="mask0_468_2978" style="mask-type:alpha" maskUnits="userSpaceOnUse" x="10" y="258" width="568" height="222">
<path d="M115.723 475H157.764V437.354H185.303V401.904H157.764V263.623H95.3613C52.002 327.49 29.0039 364.551 10.5469 399.707V437.354H115.723V475ZM49.3652 402.051C66.5039 368.945 84.9609 340.088 115.723 294.971H116.602V403.223H49.3652V402.051ZM292.857 479.688C346.031 479.688 378.258 437.061 378.258 368.799C378.258 300.537 345.738 258.789 292.857 258.789C239.977 258.789 207.311 300.684 207.311 368.945C207.311 437.354 239.684 479.688 292.857 479.688ZM292.857 444.238C267.662 444.238 252.281 416.992 252.281 368.945C252.281 321.338 267.955 294.238 292.857 294.238C317.906 294.238 333.287 321.191 333.287 368.945C333.287 417.139 318.053 444.238 292.857 444.238ZM507.785 475H549.826V437.354H577.365V401.904H549.826V263.623H487.424C444.064 327.49 421.066 364.551 402.609 399.707V437.354H507.785V475ZM441.428 402.051C458.566 368.945 477.023 340.088 507.785 294.971H508.664V403.223H441.428V402.051Z" fill="#858E96"/>
</mask>
<g mask="url(#mask0_468_2978)">
<path d="M369.5 527L243 223.5H-27.5V527H369.5Z" fill="#858E96"/>
</g>
<mask id="mask1_468_2978" style="mask-type:alpha" maskUnits="userSpaceOnUse" x="19" y="277" width="568" height="222">
<path d="M124.723 494H166.764V456.354H194.303V420.904H166.764V282.623H104.361C61.002 346.49 38.0039 383.551 19.5469 418.707V456.354H124.723V494ZM58.3652 421.051C75.5039 387.945 93.9609 359.088 124.723 313.971H125.602V422.223H58.3652V421.051ZM301.857 498.688C355.031 498.688 387.258 456.061 387.258 387.799C387.258 319.537 354.738 277.789 301.857 277.789C248.977 277.789 216.311 319.684 216.311 387.945C216.311 456.354 248.684 498.688 301.857 498.688ZM301.857 463.238C276.662 463.238 261.281 435.992 261.281 387.945C261.281 340.338 276.955 313.238 301.857 313.238C326.906 313.238 342.287 340.191 342.287 387.945C342.287 436.139 327.053 463.238 301.857 463.238ZM516.785 494H558.826V456.354H586.365V420.904H558.826V282.623H496.424C453.064 346.49 430.066 383.551 411.609 418.707V456.354H516.785V494ZM450.428 421.051C467.566 387.945 486.023 359.088 516.785 313.971H517.664V422.223H450.428V421.051Z" fill="#ACB5BD"/>
</mask>
<g mask="url(#mask1_468_2978)">
<path d="M250 242.5L376.5 546H647V242.5H250Z" fill="#858E96"/>
</g>
</svg>
