<svg width="353" height="117" viewBox="0 0 353 117" fill="none" xmlns="http://www.w3.org/2000/svg">
<rect x="281.334" y="163.99" width="40" height="40" rx="12" transform="rotate(-148 281.334 163.99)" fill="#090B0B" fill-opacity="0.04"/>
<rect x="309.95" y="118.195" width="40" height="40" rx="12" transform="rotate(-148 309.95 118.195)" fill="#090B0B" fill-opacity="0.04"/>
<rect x="217.575" y="156.576" width="40" height="40" rx="12" transform="rotate(-148 217.575 156.576)" fill="#090B0B" fill-opacity="0.04"/>
<rect x="246.72" y="109.933" width="40" height="40" rx="12" transform="rotate(-148 246.72 109.933)" fill="#090B0B" fill-opacity="0.04"/>
<rect x="97.1519" y="81.3271" width="40" height="40" rx="12" transform="rotate(-148 97.1519 81.3271)" fill="#090B0B" fill-opacity="0.04"/>
<rect x="126.297" y="34.6846" width="40" height="40" rx="12" transform="rotate(-148 126.297 34.6846)" fill="#090B0B" fill-opacity="0.04"/>
<rect x="33.9219" y="73.0649" width="40" height="40" rx="12" transform="rotate(-148 33.9219 73.0649)" fill="#090B0B" fill-opacity="0.04"/>
<rect x="62.5376" y="27.2705" width="40" height="40" rx="12" transform="rotate(-148 62.5376 27.2705)" fill="#090B0B" fill-opacity="0.04"/>
</svg>
