<svg width="160" height="169" viewBox="0 0 160 169" fill="none" xmlns="http://www.w3.org/2000/svg">
<circle cx="80" cy="80" r="80" fill="url(#paint0_linear_26047_637056)"/>
<path fill-rule="evenodd" clip-rule="evenodd" d="M92.9504 69.5339C92.3244 69.5347 91.6995 69.4793 91.0834 69.3684C90.881 69.3322 90.6916 69.2432 90.5345 69.1105C90.3773 68.9777 90.258 68.8059 90.1883 68.6124C90.1187 68.4188 90.1013 68.2104 90.1378 68.008C90.1744 67.8055 90.2637 67.6163 90.3966 67.4594C91.037 66.7044 91.4743 65.7986 91.6672 64.8276C91.7031 64.6481 91.6329 64.3327 91.2708 63.98C88.6967 61.4746 87.0967 58.0748 87.0967 54.3144C87.0967 46.4627 94.0087 40.2656 102.316 40.2656C110.624 40.2656 117.536 46.4627 117.536 54.3144C117.536 62.1661 110.624 68.3632 102.316 68.3632C101.016 68.3632 99.7515 68.2118 98.5433 67.9277C96.8678 68.9797 94.9288 69.5366 92.9504 69.5339ZM95.2208 53.0727C95.5501 52.7433 95.9968 52.5583 96.4626 52.5583C96.9283 52.5583 97.375 52.7433 97.7043 53.0727C98.0336 53.402 98.2187 53.8487 98.2187 54.3144C98.2187 54.7801 98.0336 55.2268 97.7043 55.5561C97.375 55.8855 96.9283 56.0705 96.4626 56.0705C95.9968 56.0705 95.5501 55.8855 95.2208 55.5561C94.8915 55.2268 94.7065 54.7801 94.7065 54.3144C94.7065 53.8487 94.8915 53.402 95.2208 53.0727ZM101.074 53.0727C100.745 53.402 100.56 53.8487 100.56 54.3144C100.56 54.7801 100.745 55.2268 101.074 55.5561C101.404 55.8855 101.85 56.0705 102.316 56.0705C102.782 56.0705 103.229 55.8855 103.558 55.5561C103.887 55.2268 104.072 54.7801 104.072 54.3144C104.072 53.8487 103.887 53.402 103.558 53.0727C103.229 52.7433 102.782 52.5583 102.316 52.5583C101.85 52.5583 101.404 52.7433 101.074 53.0727ZM106.928 53.0727C107.257 52.7433 107.704 52.5583 108.17 52.5583C108.636 52.5583 109.082 52.7433 109.412 53.0727C109.741 53.402 109.926 53.8487 109.926 54.3144C109.926 54.7801 109.741 55.2268 109.412 55.5561C109.082 55.8855 108.636 56.0705 108.17 56.0705C107.704 56.0705 107.257 55.8855 106.928 55.5561C106.599 55.2268 106.414 54.7801 106.414 54.3144C106.414 53.8487 106.599 53.402 106.928 53.0727ZM80.295 86.1641C77.825 88.6341 74.475 90.0217 70.9819 90.0217C67.4888 90.0217 64.1387 88.6341 61.6688 86.1641C59.1988 83.6941 57.8111 80.3441 57.8111 76.851C57.8111 73.3579 59.1988 70.0079 61.6688 67.5379C64.1387 65.0679 67.4888 63.6803 70.9819 63.6803C74.475 63.6803 77.825 65.0679 80.295 67.5379C82.765 70.0079 84.1526 73.3579 84.1526 76.851C84.1526 80.3441 82.765 83.6941 80.295 86.1641ZM95.598 111.363C96.5682 113.9 94.4828 116.363 91.7697 116.363H50.1897C47.4765 116.363 45.3955 113.9 46.3614 111.363C48.2646 106.376 51.6376 102.084 56.0337 99.0567C60.4299 96.0291 65.6418 94.4079 70.9797 94.4079C76.3175 94.4079 81.5295 96.0291 85.9256 99.0567C90.3217 102.084 93.6947 106.376 95.598 111.363Z" fill="#4E4E54"/>
<g filter="url(#filter0_ddd_26047_637056)">
<circle cx="80" cy="138" r="22" fill="#3A5BC7"/>
<path fill-rule="evenodd" clip-rule="evenodd" d="M71 128.25C70.8011 128.25 70.6103 128.329 70.4697 128.47C70.329 128.61 70.25 128.801 70.25 129C70.25 129.199 70.329 129.39 70.4697 129.53C70.6103 129.671 70.8011 129.75 71 129.75V146.25H70.25C70.0511 146.25 69.8603 146.329 69.7197 146.47C69.579 146.61 69.5 146.801 69.5 147C69.5 147.199 69.579 147.39 69.7197 147.53C69.8603 147.671 70.0511 147.75 70.25 147.75H83V129.75C83.1989 129.75 83.3897 129.671 83.5303 129.53C83.671 129.39 83.75 129.199 83.75 129C83.75 128.801 83.671 128.61 83.5303 128.47C83.3897 128.329 83.1989 128.25 83 128.25H71ZM74.75 145.5V143.25C74.75 143.051 74.829 142.86 74.9697 142.72C75.1103 142.579 75.3011 142.5 75.5 142.5H78.5C78.6989 142.5 78.8897 142.579 79.0303 142.72C79.171 142.86 79.25 143.051 79.25 143.25V145.5C79.25 145.699 79.171 145.89 79.0303 146.03C78.8897 146.171 78.6989 146.25 78.5 146.25H75.5C75.3011 146.25 75.1103 146.171 74.9697 146.03C74.829 145.89 74.75 145.699 74.75 145.5ZM74 132.75C74 132.551 74.079 132.36 74.2197 132.22C74.3603 132.079 74.5511 132 74.75 132H75.5C75.6989 132 75.8897 132.079 76.0303 132.22C76.171 132.36 76.25 132.551 76.25 132.75C76.25 132.949 76.171 133.14 76.0303 133.28C75.8897 133.421 75.6989 133.5 75.5 133.5H74.75C74.5511 133.5 74.3603 133.421 74.2197 133.28C74.079 133.14 74 132.949 74 132.75ZM74.75 135C74.5511 135 74.3603 135.079 74.2197 135.22C74.079 135.36 74 135.551 74 135.75C74 135.949 74.079 136.14 74.2197 136.28C74.3603 136.421 74.5511 136.5 74.75 136.5H75.5C75.6989 136.5 75.8897 136.421 76.0303 136.28C76.171 136.14 76.25 135.949 76.25 135.75C76.25 135.551 76.171 135.36 76.0303 135.22C75.8897 135.079 75.6989 135 75.5 135H74.75ZM74 138.75C74 138.551 74.079 138.36 74.2197 138.22C74.3603 138.079 74.5511 138 74.75 138H75.5C75.6989 138 75.8897 138.079 76.0303 138.22C76.171 138.36 76.25 138.551 76.25 138.75C76.25 138.949 76.171 139.14 76.0303 139.28C75.8897 139.421 75.6989 139.5 75.5 139.5H74.75C74.5511 139.5 74.3603 139.421 74.2197 139.28C74.079 139.14 74 138.949 74 138.75ZM78.5 132C78.3011 132 78.1103 132.079 77.9697 132.22C77.829 132.36 77.75 132.551 77.75 132.75C77.75 132.949 77.829 133.14 77.9697 133.28C78.1103 133.421 78.3011 133.5 78.5 133.5H79.25C79.4489 133.5 79.6397 133.421 79.7803 133.28C79.921 133.14 80 132.949 80 132.75C80 132.551 79.921 132.36 79.7803 132.22C79.6397 132.079 79.4489 132 79.25 132H78.5ZM77.75 135.75C77.75 135.551 77.829 135.36 77.9697 135.22C78.1103 135.079 78.3011 135 78.5 135H79.25C79.4489 135 79.6397 135.079 79.7803 135.22C79.921 135.36 80 135.551 80 135.75C80 135.949 79.921 136.14 79.7803 136.28C79.6397 136.421 79.4489 136.5 79.25 136.5H78.5C78.3011 136.5 78.1103 136.421 77.9697 136.28C77.829 136.14 77.75 135.949 77.75 135.75ZM78.5 138C78.3011 138 78.1103 138.079 77.9697 138.22C77.829 138.36 77.75 138.551 77.75 138.75C77.75 138.949 77.829 139.14 77.9697 139.28C78.1103 139.421 78.3011 139.5 78.5 139.5H79.25C79.4489 139.5 79.6397 139.421 79.7803 139.28C79.921 139.14 80 138.949 80 138.75C80 138.551 79.921 138.36 79.7803 138.22C79.6397 138.079 79.4489 138 79.25 138H78.5ZM84.5 132.75V147.75H89.75C89.9489 147.75 90.1397 147.671 90.2803 147.53C90.421 147.39 90.5 147.199 90.5 147C90.5 146.801 90.421 146.61 90.2803 146.47C90.1397 146.329 89.9489 146.25 89.75 146.25H89V134.25C89.1989 134.25 89.3897 134.171 89.5303 134.03C89.671 133.89 89.75 133.699 89.75 133.5C89.75 133.301 89.671 133.11 89.5303 132.97C89.3897 132.829 89.1989 132.75 89 132.75H84.5ZM86 137.25C86 137.051 86.079 136.86 86.2197 136.72C86.3603 136.579 86.5511 136.5 86.75 136.5H86.758C86.9569 136.5 87.1477 136.579 87.2883 136.72C87.429 136.86 87.508 137.051 87.508 137.25V137.258C87.508 137.457 87.429 137.648 87.2883 137.788C87.1477 137.929 86.9569 138.008 86.758 138.008H86.75C86.5511 138.008 86.3603 137.929 86.2197 137.788C86.079 137.648 86 137.457 86 137.258V137.25ZM86.75 139.5C86.5511 139.5 86.3603 139.579 86.2197 139.72C86.079 139.86 86 140.051 86 140.25V140.258C86 140.672 86.336 141.008 86.75 141.008H86.758C86.9569 141.008 87.1477 140.929 87.2883 140.788C87.429 140.648 87.508 140.457 87.508 140.258V140.25C87.508 140.051 87.429 139.86 87.2883 139.72C87.1477 139.579 86.9569 139.5 86.758 139.5H86.75ZM86 143.25C86 143.051 86.079 142.86 86.2197 142.72C86.3603 142.579 86.5511 142.5 86.75 142.5H86.758C86.9569 142.5 87.1477 142.579 87.2883 142.72C87.429 142.86 87.508 143.051 87.508 143.25V143.258C87.508 143.457 87.429 143.648 87.2883 143.788C87.1477 143.929 86.9569 144.008 86.758 144.008H86.75C86.5511 144.008 86.3603 143.929 86.2197 143.788C86.079 143.648 86 143.457 86 143.258V143.25Z" fill="#0C0E12"/>
</g>
<defs>
<filter id="filter0_ddd_26047_637056" x="52.2164" y="112.385" width="55.5673" height="56.2902" filterUnits="userSpaceOnUse" color-interpolation-filters="sRGB">
<feFlood flood-opacity="0" result="BackgroundImageFix"/>
<feColorMatrix in="SourceAlpha" type="matrix" values="0 0 0 0 0 0 0 0 0 0 0 0 0 0 0 0 0 0 127 0" result="hardAlpha"/>
<feMorphology radius="1.44591" operator="erode" in="SourceAlpha" result="effect1_dropShadow_26047_637056"/>
<feOffset dy="1.44591"/>
<feGaussianBlur stdDeviation="1.08443"/>
<feComposite in2="hardAlpha" operator="out"/>
<feColorMatrix type="matrix" values="0 0 0 0 0 0 0 0 0 0 0 0 0 0 0.24 0 0 0 0.051 0"/>
<feBlend mode="normal" in2="BackgroundImageFix" result="effect1_dropShadow_26047_637056"/>
<feColorMatrix in="SourceAlpha" type="matrix" values="0 0 0 0 0 0 0 0 0 0 0 0 0 0 0 0 0 0 127 0" result="hardAlpha"/>
<feMorphology radius="2.89182" operator="erode" in="SourceAlpha" result="effect2_dropShadow_26047_637056"/>
<feOffset dy="2.16886"/>
<feGaussianBlur stdDeviation="4.33772"/>
<feComposite in2="hardAlpha" operator="out"/>
<feColorMatrix type="matrix" values="0 0 0 0 0 0 0 0 0 0 0 0 0 0 0 0 0 0 0.055 0"/>
<feBlend mode="normal" in2="effect1_dropShadow_26047_637056" result="effect2_dropShadow_26047_637056"/>
<feColorMatrix in="SourceAlpha" type="matrix" values="0 0 0 0 0 0 0 0 0 0 0 0 0 0 0 0 0 0 127 0" result="hardAlpha"/>
<feMorphology radius="5.78363" operator="erode" in="SourceAlpha" result="effect3_dropShadow_26047_637056"/>
<feOffset dy="2.89182"/>
<feGaussianBlur stdDeviation="5.78363"/>
<feComposite in2="hardAlpha" operator="out"/>
<feColorMatrix type="matrix" values="0 0 0 0 0 0 0 0 0 0 0 0 0 0 0 0 0 0 0.078 0"/>
<feBlend mode="normal" in2="effect2_dropShadow_26047_637056" result="effect3_dropShadow_26047_637056"/>
<feBlend mode="normal" in="SourceGraphic" in2="effect3_dropShadow_26047_637056" result="shape"/>
</filter>
<linearGradient id="paint0_linear_26047_637056" x1="80" y1="0" x2="80" y2="161.967" gradientUnits="userSpaceOnUse">
<stop stop-color="#343434"/>
<stop offset="1" stop-color="#171717" stop-opacity="0.16"/>
</linearGradient>
</defs>
</svg>
