<svg width="160" height="169" viewBox="0 0 160 169" fill="none" xmlns="http://www.w3.org/2000/svg">
<circle cx="80" cy="80" r="80" fill="url(#paint0_linear_26047_637056)"/>
<path fill-rule="evenodd" clip-rule="evenodd" d="M92.9504 69.5339C92.3244 69.5347 91.6995 69.4793 91.0834 69.3684C90.881 69.3322 90.6916 69.2432 90.5345 69.1105C90.3773 68.9777 90.258 68.8059 90.1883 68.6124C90.1187 68.4188 90.1013 68.2104 90.1378 68.008C90.1744 67.8055 90.2637 67.6163 90.3966 67.4594C91.037 66.7044 91.4743 65.7986 91.6672 64.8276C91.7031 64.6481 91.6329 64.3327 91.2708 63.98C88.6967 61.4746 87.0967 58.0748 87.0967 54.3144C87.0967 46.4627 94.0087 40.2656 102.316 40.2656C110.624 40.2656 117.536 46.4627 117.536 54.3144C117.536 62.1661 110.624 68.3632 102.316 68.3632C101.016 68.3632 99.7515 68.2118 98.5433 67.9277C96.8678 68.9797 94.9288 69.5366 92.9504 69.5339ZM95.2208 53.0727C95.5501 52.7433 95.9968 52.5583 96.4626 52.5583C96.9283 52.5583 97.375 52.7433 97.7043 53.0727C98.0336 53.402 98.2187 53.8487 98.2187 54.3144C98.2187 54.7801 98.0336 55.2268 97.7043 55.5561C97.375 55.8855 96.9283 56.0705 96.4626 56.0705C95.9968 56.0705 95.5501 55.8855 95.2208 55.5561C94.8915 55.2268 94.7065 54.7801 94.7065 54.3144C94.7065 53.8487 94.8915 53.402 95.2208 53.0727ZM101.074 53.0727C100.745 53.402 100.56 53.8487 100.56 54.3144C100.56 54.7801 100.745 55.2268 101.074 55.5561C101.404 55.8855 101.85 56.0705 102.316 56.0705C102.782 56.0705 103.229 55.8855 103.558 55.5561C103.887 55.2268 104.072 54.7801 104.072 54.3144C104.072 53.8487 103.887 53.402 103.558 53.0727C103.229 52.7433 102.782 52.5583 102.316 52.5583C101.85 52.5583 101.404 52.7433 101.074 53.0727ZM106.928 53.0727C107.257 52.7433 107.704 52.5583 108.17 52.5583C108.636 52.5583 109.082 52.7433 109.412 53.0727C109.741 53.402 109.926 53.8487 109.926 54.3144C109.926 54.7801 109.741 55.2268 109.412 55.5561C109.082 55.8855 108.636 56.0705 108.17 56.0705C107.704 56.0705 107.257 55.8855 106.928 55.5561C106.599 55.2268 106.414 54.7801 106.414 54.3144C106.414 53.8487 106.599 53.402 106.928 53.0727ZM80.295 86.1641C77.825 88.6341 74.475 90.0217 70.9819 90.0217C67.4888 90.0217 64.1387 88.6341 61.6688 86.1641C59.1988 83.6941 57.8111 80.3441 57.8111 76.851C57.8111 73.3579 59.1988 70.0079 61.6688 67.5379C64.1387 65.0679 67.4888 63.6803 70.9819 63.6803C74.475 63.6803 77.825 65.0679 80.295 67.5379C82.765 70.0079 84.1526 73.3579 84.1526 76.851C84.1526 80.3441 82.765 83.6941 80.295 86.1641ZM95.598 111.363C96.5682 113.9 94.4828 116.363 91.7697 116.363H50.1897C47.4765 116.363 45.3955 113.9 46.3614 111.363C48.2646 106.376 51.6376 102.084 56.0337 99.0567C60.4299 96.0291 65.6418 94.4079 70.9797 94.4079C76.3175 94.4079 81.5295 96.0291 85.9256 99.0567C90.3217 102.084 93.6947 106.376 95.598 111.363Z" fill="#4E4E54"/>
<g filter="url(#filter0_ddd_26047_637056)">
<circle cx="80" cy="138" r="22" fill="#3A5BC7"/>
<path fill-rule="evenodd" clip-rule="evenodd" d="M72.5 129.75C71.7044 129.75 70.9413 130.066 70.3787 130.629C69.8161 131.191 69.5 131.954 69.5 132.75V143.25C69.5 144.046 69.8161 144.809 70.3787 145.371C70.9413 145.934 71.7044 146.25 72.5 146.25H87.5C88.2956 146.25 89.0587 145.934 89.6213 145.371C90.1839 144.809 90.5 144.046 90.5 143.25V132.75C90.5 131.954 90.1839 131.191 89.6213 130.629C89.0587 130.066 88.2956 129.75 87.5 129.75H72.5ZM76.625 132.75C76.0283 132.75 75.456 132.987 75.034 133.409C74.6121 133.831 74.375 134.403 74.375 135C74.375 135.597 74.6121 136.169 75.034 136.591C75.456 137.013 76.0283 137.25 76.625 137.25C77.2217 137.25 77.794 137.013 78.216 136.591C78.6379 136.169 78.875 135.597 78.875 135C78.875 134.403 78.6379 133.831 78.216 133.409C77.794 132.987 77.2217 132.75 76.625 132.75ZM72.752 141.453C73.0432 140.66 73.5708 139.976 74.2634 139.492C74.956 139.009 75.7803 138.75 76.625 138.75C77.4697 138.75 78.294 139.009 78.9866 139.492C79.6792 139.976 80.2068 140.66 80.498 141.453C80.5603 141.623 80.5591 141.81 80.4946 141.979C80.4301 142.148 80.3067 142.288 80.147 142.373C79.063 142.95 77.8532 143.252 76.625 143.25C75.3968 143.252 74.187 142.95 73.103 142.373C72.9433 142.288 72.8199 142.148 72.7554 141.979C72.6909 141.81 72.6897 141.623 72.752 141.453ZM83 134.25C82.8011 134.25 82.6103 134.329 82.4697 134.47C82.329 134.61 82.25 134.801 82.25 135C82.25 135.199 82.329 135.39 82.4697 135.53C82.6103 135.671 82.8011 135.75 83 135.75H86.75C86.9489 135.75 87.1397 135.671 87.2803 135.53C87.421 135.39 87.5 135.199 87.5 135C87.5 134.801 87.421 134.61 87.2803 134.47C87.1397 134.329 86.9489 134.25 86.75 134.25H83ZM82.25 138C82.25 137.801 82.329 137.61 82.4697 137.47C82.6103 137.329 82.8011 137.25 83 137.25H86.75C86.9489 137.25 87.1397 137.329 87.2803 137.47C87.421 137.61 87.5 137.801 87.5 138C87.5 138.199 87.421 138.39 87.2803 138.53C87.1397 138.671 86.9489 138.75 86.75 138.75H83C82.8011 138.75 82.6103 138.671 82.4697 138.53C82.329 138.39 82.25 138.199 82.25 138ZM83 140.25C82.8011 140.25 82.6103 140.329 82.4697 140.47C82.329 140.61 82.25 140.801 82.25 141C82.25 141.199 82.329 141.39 82.4697 141.53C82.6103 141.671 82.8011 141.75 83 141.75H86.75C86.9489 141.75 87.1397 141.671 87.2803 141.53C87.421 141.39 87.5 141.199 87.5 141C87.5 140.801 87.421 140.61 87.2803 140.47C87.1397 140.329 86.9489 140.25 86.75 140.25H83Z" fill="#0C0E12"/>
</g>
<defs>
<filter id="filter0_ddd_26047_637056" x="52.2164" y="112.385" width="55.5673" height="56.2902" filterUnits="userSpaceOnUse" color-interpolation-filters="sRGB">
<feFlood flood-opacity="0" result="BackgroundImageFix"/>
<feColorMatrix in="SourceAlpha" type="matrix" values="0 0 0 0 0 0 0 0 0 0 0 0 0 0 0 0 0 0 127 0" result="hardAlpha"/>
<feMorphology radius="1.44591" operator="erode" in="SourceAlpha" result="effect1_dropShadow_26047_637056"/>
<feOffset dy="1.44591"/>
<feGaussianBlur stdDeviation="1.08443"/>
<feComposite in2="hardAlpha" operator="out"/>
<feColorMatrix type="matrix" values="0 0 0 0 0 0 0 0 0 0 0 0 0 0 0.24 0 0 0 0.051 0"/>
<feBlend mode="normal" in2="BackgroundImageFix" result="effect1_dropShadow_26047_637056"/>
<feColorMatrix in="SourceAlpha" type="matrix" values="0 0 0 0 0 0 0 0 0 0 0 0 0 0 0 0 0 0 127 0" result="hardAlpha"/>
<feMorphology radius="2.89182" operator="erode" in="SourceAlpha" result="effect2_dropShadow_26047_637056"/>
<feOffset dy="2.16886"/>
<feGaussianBlur stdDeviation="4.33772"/>
<feComposite in2="hardAlpha" operator="out"/>
<feColorMatrix type="matrix" values="0 0 0 0 0 0 0 0 0 0 0 0 0 0 0 0 0 0 0.055 0"/>
<feBlend mode="normal" in2="effect1_dropShadow_26047_637056" result="effect2_dropShadow_26047_637056"/>
<feColorMatrix in="SourceAlpha" type="matrix" values="0 0 0 0 0 0 0 0 0 0 0 0 0 0 0 0 0 0 127 0" result="hardAlpha"/>
<feMorphology radius="5.78363" operator="erode" in="SourceAlpha" result="effect3_dropShadow_26047_637056"/>
<feOffset dy="2.89182"/>
<feGaussianBlur stdDeviation="5.78363"/>
<feComposite in2="hardAlpha" operator="out"/>
<feColorMatrix type="matrix" values="0 0 0 0 0 0 0 0 0 0 0 0 0 0 0 0 0 0 0.078 0"/>
<feBlend mode="normal" in2="effect2_dropShadow_26047_637056" result="effect3_dropShadow_26047_637056"/>
<feBlend mode="normal" in="SourceGraphic" in2="effect3_dropShadow_26047_637056" result="shape"/>
</filter>
<linearGradient id="paint0_linear_26047_637056" x1="80" y1="0" x2="80" y2="161.967" gradientUnits="userSpaceOnUse">
<stop stop-color="#343434"/>
<stop offset="1" stop-color="#171717" stop-opacity="0.16"/>
</linearGradient>
</defs>
</svg>
