<svg width="205" height="217" viewBox="0 0 205 217" fill="none" xmlns="http://www.w3.org/2000/svg">
<circle cx="102.5" cy="102.5" r="102.5" fill="url(#paint0_linear_26047_637114)"/>
<path fill-rule="evenodd" clip-rule="evenodd" d="M58 53.75C57.0054 53.75 56.0516 54.1451 55.3483 54.8483C54.6451 55.5516 54.25 56.5054 54.25 57.5C54.25 58.4946 54.6451 59.4484 55.3483 60.1517C56.0516 60.8549 57.0054 61.25 58 61.25V143.75H54.25C53.2554 143.75 52.3016 144.145 51.5983 144.848C50.8951 145.552 50.5 146.505 50.5 147.5C50.5 148.495 50.8951 149.448 51.5983 150.152C52.3016 150.855 53.2554 151.25 54.25 151.25H118V61.25C118.995 61.25 119.948 60.8549 120.652 60.1517C121.355 59.4484 121.75 58.4946 121.75 57.5C121.75 56.5054 121.355 55.5516 120.652 54.8483C119.948 54.1451 118.995 53.75 118 53.75H58ZM76.75 140V128.75C76.75 127.755 77.1451 126.802 77.8483 126.098C78.5516 125.395 79.5054 125 80.5 125H95.5C96.4946 125 97.4484 125.395 98.1516 126.098C98.8549 126.802 99.25 127.755 99.25 128.75V140C99.25 140.995 98.8549 141.948 98.1516 142.652C97.4484 143.355 96.4946 143.75 95.5 143.75H80.5C79.5054 143.75 78.5516 143.355 77.8483 142.652C77.1451 141.948 76.75 140.995 76.75 140ZM73 76.25C73 75.2554 73.3951 74.3016 74.0983 73.5983C74.8016 72.8951 75.7554 72.5 76.75 72.5H80.5C81.4946 72.5 82.4484 72.8951 83.1516 73.5983C83.8549 74.3016 84.25 75.2554 84.25 76.25C84.25 77.2446 83.8549 78.1984 83.1516 78.9017C82.4484 79.6049 81.4946 80 80.5 80H76.75C75.7554 80 74.8016 79.6049 74.0983 78.9017C73.3951 78.1984 73 77.2446 73 76.25ZM76.75 87.5C75.7554 87.5 74.8016 87.8951 74.0983 88.5984C73.3951 89.3016 73 90.2554 73 91.25C73 92.2446 73.3951 93.1984 74.0983 93.9016C74.8016 94.6049 75.7554 95 76.75 95H80.5C81.4946 95 82.4484 94.6049 83.1516 93.9016C83.8549 93.1984 84.25 92.2446 84.25 91.25C84.25 90.2554 83.8549 89.3016 83.1516 88.5984C82.4484 87.8951 81.4946 87.5 80.5 87.5H76.75ZM73 106.25C73 105.255 73.3951 104.302 74.0983 103.598C74.8016 102.895 75.7554 102.5 76.75 102.5H80.5C81.4946 102.5 82.4484 102.895 83.1516 103.598C83.8549 104.302 84.25 105.255 84.25 106.25C84.25 107.245 83.8549 108.198 83.1516 108.902C82.4484 109.605 81.4946 110 80.5 110H76.75C75.7554 110 74.8016 109.605 74.0983 108.902C73.3951 108.198 73 107.245 73 106.25ZM95.5 72.5C94.5054 72.5 93.5516 72.8951 92.8484 73.5983C92.1451 74.3016 91.75 75.2554 91.75 76.25C91.75 77.2446 92.1451 78.1984 92.8484 78.9017C93.5516 79.6049 94.5054 80 95.5 80H99.25C100.245 80 101.198 79.6049 101.902 78.9017C102.605 78.1984 103 77.2446 103 76.25C103 75.2554 102.605 74.3016 101.902 73.5983C101.198 72.8951 100.245 72.5 99.25 72.5H95.5ZM91.75 91.25C91.75 90.2554 92.1451 89.3016 92.8484 88.5984C93.5516 87.8951 94.5054 87.5 95.5 87.5H99.25C100.245 87.5 101.198 87.8951 101.902 88.5984C102.605 89.3016 103 90.2554 103 91.25C103 92.2446 102.605 93.1984 101.902 93.9016C101.198 94.6049 100.245 95 99.25 95H95.5C94.5054 95 93.5516 94.6049 92.8484 93.9016C92.1451 93.1984 91.75 92.2446 91.75 91.25ZM95.5 102.5C94.5054 102.5 93.5516 102.895 92.8484 103.598C92.1451 104.302 91.75 105.255 91.75 106.25C91.75 107.245 92.1451 108.198 92.8484 108.902C93.5516 109.605 94.5054 110 95.5 110H99.25C100.245 110 101.198 109.605 101.902 108.902C102.605 108.198 103 107.245 103 106.25C103 105.255 102.605 104.302 101.902 103.598C101.198 102.895 100.245 102.5 99.25 102.5H95.5ZM125.5 76.25V151.25H151.75C152.745 151.25 153.698 150.855 154.402 150.152C155.105 149.448 155.5 148.495 155.5 147.5C155.5 146.505 155.105 145.552 154.402 144.848C153.698 144.145 152.745 143.75 151.75 143.75H148V83.75C148.995 83.75 149.948 83.3549 150.652 82.6516C151.355 81.9484 151.75 80.9946 151.75 80C151.75 79.0054 151.355 78.0516 150.652 77.3483C149.948 76.6451 148.995 76.25 148 76.25H125.5ZM133 98.75C133 97.7554 133.395 96.8016 134.098 96.0984C134.802 95.3951 135.755 95 136.75 95H136.79C137.785 95 138.738 95.3951 139.442 96.0984C140.145 96.8016 140.54 97.7554 140.54 98.75V98.79C140.54 99.7846 140.145 100.738 139.442 101.442C138.738 102.145 137.785 102.54 136.79 102.54H136.75C135.755 102.54 134.802 102.145 134.098 101.442C133.395 100.738 133 99.7846 133 98.79V98.75ZM136.75 110C135.755 110 134.802 110.395 134.098 111.098C133.395 111.802 133 112.755 133 113.75V113.79C133 115.86 134.68 117.54 136.75 117.54H136.79C137.785 117.54 138.738 117.145 139.442 116.442C140.145 115.738 140.54 114.785 140.54 113.79V113.75C140.54 112.755 140.145 111.802 139.442 111.098C138.738 110.395 137.785 110 136.79 110H136.75ZM133 128.75C133 127.755 133.395 126.802 134.098 126.098C134.802 125.395 135.755 125 136.75 125H136.79C137.785 125 138.738 125.395 139.442 126.098C140.145 126.802 140.54 127.755 140.54 128.75V128.79C140.54 129.785 140.145 130.738 139.442 131.442C138.738 132.145 137.785 132.54 136.79 132.54H136.75C135.755 132.54 134.802 132.145 134.098 131.442C133.395 130.738 133 129.785 133 128.79V128.75Z" fill="#D1D6E0"/>
<g filter="url(#filter0_ddd_26047_637114)">
<circle cx="103.254" cy="173.828" r="31" fill="#3A5BC7"/>
<path fill-rule="evenodd" clip-rule="evenodd" d="M92.8332 172.164C92.8332 167.009 97.0118 162.831 102.167 162.831C107.321 162.831 111.5 167.009 111.5 172.164C111.5 177.319 107.321 181.497 102.167 181.497C97.0118 181.497 92.8332 177.319 92.8332 172.164ZM102.167 160.164C95.5391 160.164 90.1665 165.537 90.1665 172.164C90.1665 178.791 95.5391 184.164 102.167 184.164C105 184.164 107.604 183.182 109.657 181.54L114.557 186.44C115.078 186.961 115.922 186.961 116.443 186.44C116.964 185.919 116.964 185.075 116.443 184.555L111.543 179.654C113.185 177.601 114.167 174.997 114.167 172.164C114.167 165.537 108.794 160.164 102.167 160.164Z" fill="white"/>
</g>
<defs>
<filter id="filter0_ddd_26047_637114" x="64.2539" y="137.828" width="78" height="79" filterUnits="userSpaceOnUse" color-interpolation-filters="sRGB">
<feFlood flood-opacity="0" result="BackgroundImageFix"/>
<feColorMatrix in="SourceAlpha" type="matrix" values="0 0 0 0 0 0 0 0 0 0 0 0 0 0 0 0 0 0 127 0" result="hardAlpha"/>
<feMorphology radius="2" operator="erode" in="SourceAlpha" result="effect1_dropShadow_26047_637114"/>
<feOffset dy="2"/>
<feGaussianBlur stdDeviation="1.5"/>
<feComposite in2="hardAlpha" operator="out"/>
<feColorMatrix type="matrix" values="0 0 0 0 0 0 0 0 0 0 0 0 0 0 0.24 0 0 0 0.051 0"/>
<feBlend mode="normal" in2="BackgroundImageFix" result="effect1_dropShadow_26047_637114"/>
<feColorMatrix in="SourceAlpha" type="matrix" values="0 0 0 0 0 0 0 0 0 0 0 0 0 0 0 0 0 0 127 0" result="hardAlpha"/>
<feMorphology radius="4" operator="erode" in="SourceAlpha" result="effect2_dropShadow_26047_637114"/>
<feOffset dy="3"/>
<feGaussianBlur stdDeviation="6"/>
<feComposite in2="hardAlpha" operator="out"/>
<feColorMatrix type="matrix" values="0 0 0 0 0 0 0 0 0 0 0 0 0 0 0 0 0 0 0.055 0"/>
<feBlend mode="normal" in2="effect1_dropShadow_26047_637114" result="effect2_dropShadow_26047_637114"/>
<feColorMatrix in="SourceAlpha" type="matrix" values="0 0 0 0 0 0 0 0 0 0 0 0 0 0 0 0 0 0 127 0" result="hardAlpha"/>
<feMorphology radius="8" operator="erode" in="SourceAlpha" result="effect3_dropShadow_26047_637114"/>
<feOffset dy="4"/>
<feGaussianBlur stdDeviation="8"/>
<feComposite in2="hardAlpha" operator="out"/>
<feColorMatrix type="matrix" values="0 0 0 0 0 0 0 0 0 0 0 0 0 0 0 0 0 0 0.078 0"/>
<feBlend mode="normal" in2="effect2_dropShadow_26047_637114" result="effect3_dropShadow_26047_637114"/>
<feBlend mode="normal" in="SourceGraphic" in2="effect3_dropShadow_26047_637114" result="shape"/>
</filter>
<linearGradient id="paint0_linear_26047_637114" x1="102.5" y1="0" x2="102.5" y2="207.52" gradientUnits="userSpaceOnUse">
<stop stop-color="#F7F7F7"/>
<stop offset="1" stop-color="#F8F9FA" stop-opacity="0"/>
</linearGradient>
</defs>
</svg>
