<svg width="206" height="218" viewBox="0 0 206 218" fill="none" xmlns="http://www.w3.org/2000/svg">
<circle cx="103" cy="103" r="102.5" fill="url(#paint0_linear_25918_862692)"/>
<path fill-rule="evenodd" clip-rule="evenodd" d="M57.125 51.4375C52.1522 51.4375 47.3831 53.4129 43.8667 56.9292C40.3504 60.4456 38.375 65.2147 38.375 70.1875V135.812C38.375 140.785 40.3504 145.554 43.8667 149.071C47.3831 152.587 52.1522 154.562 57.125 154.562H150.875C155.848 154.562 160.617 152.587 164.133 149.071C167.65 145.554 169.625 140.785 169.625 135.812V70.1875C169.625 65.2147 167.65 60.4456 164.133 56.9292C160.617 53.4129 155.848 51.4375 150.875 51.4375H57.125ZM82.9062 70.1875C79.1766 70.1875 75.5998 71.6691 72.9626 74.3063C70.3253 76.9435 68.8438 80.5204 68.8438 84.25C68.8438 87.9796 70.3253 91.5565 72.9626 94.1937C75.5998 96.8309 79.1766 98.3125 82.9062 98.3125C86.6359 98.3125 90.2127 96.8309 92.8499 94.1937C95.4872 91.5565 96.9688 87.9796 96.9688 84.25C96.9688 80.5204 95.4872 76.9435 92.8499 74.3063C90.2127 71.6691 86.6359 70.1875 82.9062 70.1875ZM58.7 124.581C60.5202 119.626 63.8174 115.348 68.1463 112.327C72.4751 109.305 77.6271 107.685 82.9062 107.685C88.1854 107.685 93.3374 109.305 97.6662 112.327C101.995 115.348 105.292 119.626 107.113 124.581C107.502 125.643 107.495 126.81 107.091 127.867C106.688 128.923 105.917 129.799 104.919 130.331C98.1435 133.94 90.5828 135.823 82.9062 135.812C75.2297 135.823 67.669 133.94 60.8938 130.331C59.8959 129.799 59.1243 128.923 58.7211 127.867C58.3179 126.81 58.3104 125.643 58.7 124.581ZM122.75 79.5625C121.507 79.5625 120.315 80.0564 119.435 80.9354C118.556 81.8145 118.062 83.0068 118.062 84.25C118.062 85.4932 118.556 86.6855 119.435 87.5646C120.315 88.4436 121.507 88.9375 122.75 88.9375H146.188C147.431 88.9375 148.623 88.4436 149.502 87.5646C150.381 86.6855 150.875 85.4932 150.875 84.25C150.875 83.0068 150.381 81.8145 149.502 80.9354C148.623 80.0564 147.431 79.5625 146.188 79.5625H122.75ZM118.062 103C118.062 101.757 118.556 100.565 119.435 99.6854C120.315 98.8064 121.507 98.3125 122.75 98.3125H146.188C147.431 98.3125 148.623 98.8064 149.502 99.6854C150.381 100.565 150.875 101.757 150.875 103C150.875 104.243 150.381 105.435 149.502 106.315C148.623 107.194 147.431 107.688 146.188 107.688H122.75C121.507 107.688 120.315 107.194 119.435 106.315C118.556 105.435 118.062 104.243 118.062 103ZM122.75 117.062C121.507 117.062 120.315 117.556 119.435 118.435C118.556 119.315 118.062 120.507 118.062 121.75C118.062 122.993 118.556 124.185 119.435 125.065C120.315 125.944 121.507 126.438 122.75 126.438H146.188C147.431 126.438 148.623 125.944 149.502 125.065C150.381 124.185 150.875 122.993 150.875 121.75C150.875 120.507 150.381 119.315 149.502 118.435C148.623 117.556 147.431 117.062 146.188 117.062H122.75Z" fill="#D1D6E0"/>
<g filter="url(#filter0_ddd_25918_862692)">
<circle cx="103.754" cy="174.328" r="31" fill="#3A5BC7"/>
<path fill-rule="evenodd" clip-rule="evenodd" d="M93.3333 172.664C93.3333 167.509 97.512 163.331 102.667 163.331C107.821 163.331 112 167.509 112 172.664C112 177.819 107.821 181.997 102.667 181.997C97.512 181.997 93.3333 177.819 93.3333 172.664ZM102.667 160.664C96.0392 160.664 90.6666 166.037 90.6666 172.664C90.6666 179.291 96.0392 184.664 102.667 184.664C105.5 184.664 108.104 183.682 110.157 182.04L115.057 186.94C115.578 187.461 116.422 187.461 116.943 186.94C117.464 186.419 117.464 185.575 116.943 185.055L112.043 180.154C113.685 178.101 114.667 175.497 114.667 172.664C114.667 166.037 109.294 160.664 102.667 160.664Z" fill="white"/>
</g>
<defs>
<filter id="filter0_ddd_25918_862692" x="64.7539" y="138.328" width="78" height="79" filterUnits="userSpaceOnUse" color-interpolation-filters="sRGB">
<feFlood flood-opacity="0" result="BackgroundImageFix"/>
<feColorMatrix in="SourceAlpha" type="matrix" values="0 0 0 0 0 0 0 0 0 0 0 0 0 0 0 0 0 0 127 0" result="hardAlpha"/>
<feMorphology radius="2" operator="erode" in="SourceAlpha" result="effect1_dropShadow_25918_862692"/>
<feOffset dy="2"/>
<feGaussianBlur stdDeviation="1.5"/>
<feComposite in2="hardAlpha" operator="out"/>
<feColorMatrix type="matrix" values="0 0 0 0 0 0 0 0 0 0 0 0 0 0 0.24 0 0 0 0.051 0"/>
<feBlend mode="normal" in2="BackgroundImageFix" result="effect1_dropShadow_25918_862692"/>
<feColorMatrix in="SourceAlpha" type="matrix" values="0 0 0 0 0 0 0 0 0 0 0 0 0 0 0 0 0 0 127 0" result="hardAlpha"/>
<feMorphology radius="4" operator="erode" in="SourceAlpha" result="effect2_dropShadow_25918_862692"/>
<feOffset dy="3"/>
<feGaussianBlur stdDeviation="6"/>
<feComposite in2="hardAlpha" operator="out"/>
<feColorMatrix type="matrix" values="0 0 0 0 0 0 0 0 0 0 0 0 0 0 0 0 0 0 0.055 0"/>
<feBlend mode="normal" in2="effect1_dropShadow_25918_862692" result="effect2_dropShadow_25918_862692"/>
<feColorMatrix in="SourceAlpha" type="matrix" values="0 0 0 0 0 0 0 0 0 0 0 0 0 0 0 0 0 0 127 0" result="hardAlpha"/>
<feMorphology radius="8" operator="erode" in="SourceAlpha" result="effect3_dropShadow_25918_862692"/>
<feOffset dy="4"/>
<feGaussianBlur stdDeviation="8"/>
<feComposite in2="hardAlpha" operator="out"/>
<feColorMatrix type="matrix" values="0 0 0 0 0 0 0 0 0 0 0 0 0 0 0 0 0 0 0.078 0"/>
<feBlend mode="normal" in2="effect2_dropShadow_25918_862692" result="effect3_dropShadow_25918_862692"/>
<feBlend mode="normal" in="SourceGraphic" in2="effect3_dropShadow_25918_862692" result="shape"/>
</filter>
<linearGradient id="paint0_linear_25918_862692" x1="103" y1="0.5" x2="103" y2="208.02" gradientUnits="userSpaceOnUse">
<stop stop-color="#F7F7F7"/>
<stop offset="1" stop-color="#F8F9FA" stop-opacity="0"/>
</linearGradient>
</defs>
</svg>
