<svg width="205" height="217" viewBox="0 0 205 217" fill="none" xmlns="http://www.w3.org/2000/svg">
<circle cx="102.5" cy="102.5" r="102.5" fill="url(#paint0_linear_26047_637042)"/>
<path fill-rule="evenodd" clip-rule="evenodd" d="M65 61.25C61.0218 61.25 57.2064 62.8304 54.3934 65.6434C51.5804 68.4564 50 72.2718 50 76.25V128.75C50 132.728 51.5804 136.544 54.3934 139.357C57.2064 142.17 61.0218 143.75 65 143.75H140C143.978 143.75 147.794 142.17 150.607 139.357C153.42 136.544 155 132.728 155 128.75V76.25C155 72.2718 153.42 68.4564 150.607 65.6434C147.794 62.8304 143.978 61.25 140 61.25H65ZM85.625 76.25C82.6413 76.25 79.7798 77.4353 77.67 79.545C75.5603 81.6548 74.375 84.5163 74.375 87.5C74.375 90.4837 75.5603 93.3452 77.67 95.4549C79.7798 97.5647 82.6413 98.75 85.625 98.75C88.6087 98.75 91.4702 97.5647 93.5799 95.4549C95.6897 93.3452 96.875 90.4837 96.875 87.5C96.875 84.5163 95.6897 81.6548 93.5799 79.545C91.4702 77.4353 88.6087 76.25 85.625 76.25ZM66.26 119.765C67.7161 115.801 70.3539 112.379 73.817 109.961C77.2801 107.544 81.4017 106.248 85.625 106.248C89.8483 106.248 93.9699 107.544 97.433 109.961C100.896 112.379 103.534 115.801 104.99 119.765C105.302 120.614 105.296 121.548 104.973 122.393C104.651 123.239 104.033 123.939 103.235 124.365C97.8148 127.252 91.7662 128.758 85.625 128.75C79.4838 128.758 73.4352 127.252 68.015 124.365C67.2167 123.939 66.5994 123.239 66.2769 122.393C65.9543 121.548 65.9483 120.614 66.26 119.765ZM117.5 83.75C116.505 83.75 115.552 84.1451 114.848 84.8484C114.145 85.5516 113.75 86.5054 113.75 87.5C113.75 88.4946 114.145 89.4484 114.848 90.1516C115.552 90.8549 116.505 91.25 117.5 91.25H136.25C137.245 91.25 138.198 90.8549 138.902 90.1516C139.605 89.4484 140 88.4946 140 87.5C140 86.5054 139.605 85.5516 138.902 84.8484C138.198 84.1451 137.245 83.75 136.25 83.75H117.5ZM113.75 102.5C113.75 101.505 114.145 100.552 114.848 99.8484C115.552 99.1451 116.505 98.75 117.5 98.75H136.25C137.245 98.75 138.198 99.1451 138.902 99.8484C139.605 100.552 140 101.505 140 102.5C140 103.495 139.605 104.448 138.902 105.152C138.198 105.855 137.245 106.25 136.25 106.25H117.5C116.505 106.25 115.552 105.855 114.848 105.152C114.145 104.448 113.75 103.495 113.75 102.5ZM117.5 113.75C116.505 113.75 115.552 114.145 114.848 114.848C114.145 115.552 113.75 116.505 113.75 117.5C113.75 118.495 114.145 119.448 114.848 120.152C115.552 120.855 116.505 121.25 117.5 121.25H136.25C137.245 121.25 138.198 120.855 138.902 120.152C139.605 119.448 140 118.495 140 117.5C140 116.505 139.605 115.552 138.902 114.848C138.198 114.145 137.245 113.75 136.25 113.75H117.5Z" fill="#4E4E54"/>
<g filter="url(#filter0_ddd_26047_637042)">
<circle cx="103.254" cy="173.828" r="31" fill="#3A5BC7"/>
<path fill-rule="evenodd" clip-rule="evenodd" d="M92.8332 172.164C92.8332 167.009 97.0118 162.831 102.167 162.831C107.321 162.831 111.5 167.009 111.5 172.164C111.5 177.319 107.321 181.497 102.167 181.497C97.0118 181.497 92.8332 177.319 92.8332 172.164ZM102.167 160.164C95.5391 160.164 90.1665 165.537 90.1665 172.164C90.1665 178.791 95.5391 184.164 102.167 184.164C105 184.164 107.604 183.182 109.657 181.54L114.557 186.44C115.078 186.961 115.922 186.961 116.443 186.44C116.964 185.919 116.964 185.075 116.443 184.555L111.543 179.654C113.185 177.601 114.167 174.997 114.167 172.164C114.167 165.537 108.794 160.164 102.167 160.164Z" fill="#0C0E12"/>
</g>
<defs>
<filter id="filter0_ddd_26047_637042" x="64.2539" y="137.828" width="78" height="79" filterUnits="userSpaceOnUse" color-interpolation-filters="sRGB">
<feFlood flood-opacity="0" result="BackgroundImageFix"/>
<feColorMatrix in="SourceAlpha" type="matrix" values="0 0 0 0 0 0 0 0 0 0 0 0 0 0 0 0 0 0 127 0" result="hardAlpha"/>
<feMorphology radius="2" operator="erode" in="SourceAlpha" result="effect1_dropShadow_26047_637042"/>
<feOffset dy="2"/>
<feGaussianBlur stdDeviation="1.5"/>
<feComposite in2="hardAlpha" operator="out"/>
<feColorMatrix type="matrix" values="0 0 0 0 0 0 0 0 0 0 0 0 0 0 0.24 0 0 0 0.051 0"/>
<feBlend mode="normal" in2="BackgroundImageFix" result="effect1_dropShadow_26047_637042"/>
<feColorMatrix in="SourceAlpha" type="matrix" values="0 0 0 0 0 0 0 0 0 0 0 0 0 0 0 0 0 0 127 0" result="hardAlpha"/>
<feMorphology radius="4" operator="erode" in="SourceAlpha" result="effect2_dropShadow_26047_637042"/>
<feOffset dy="3"/>
<feGaussianBlur stdDeviation="6"/>
<feComposite in2="hardAlpha" operator="out"/>
<feColorMatrix type="matrix" values="0 0 0 0 0 0 0 0 0 0 0 0 0 0 0 0 0 0 0.055 0"/>
<feBlend mode="normal" in2="effect1_dropShadow_26047_637042" result="effect2_dropShadow_26047_637042"/>
<feColorMatrix in="SourceAlpha" type="matrix" values="0 0 0 0 0 0 0 0 0 0 0 0 0 0 0 0 0 0 127 0" result="hardAlpha"/>
<feMorphology radius="8" operator="erode" in="SourceAlpha" result="effect3_dropShadow_26047_637042"/>
<feOffset dy="4"/>
<feGaussianBlur stdDeviation="8"/>
<feComposite in2="hardAlpha" operator="out"/>
<feColorMatrix type="matrix" values="0 0 0 0 0 0 0 0 0 0 0 0 0 0 0 0 0 0 0.078 0"/>
<feBlend mode="normal" in2="effect2_dropShadow_26047_637042" result="effect3_dropShadow_26047_637042"/>
<feBlend mode="normal" in="SourceGraphic" in2="effect3_dropShadow_26047_637042" result="shape"/>
</filter>
<linearGradient id="paint0_linear_26047_637042" x1="102.5" y1="0" x2="102.5" y2="207.52" gradientUnits="userSpaceOnUse">
<stop stop-color="#343434"/>
<stop offset="1" stop-color="#171717" stop-opacity="0.16"/>
</linearGradient>
</defs>
</svg>
