<svg width="133" height="30" viewBox="0 0 133 30" fill="none" xmlns="http://www.w3.org/2000/svg">
<g clip-path="url(#clip0_372_3489)">
<path d="M35.7598 0.00235398H44.7151C46.4036 -0.0301787 48.0819 0.274777 49.6538 0.899752C51.0897 1.48694 52.3232 2.48876 53.2005 3.7804C54.1414 5.27171 54.6058 7.02009 54.5305 8.78788C54.6025 10.5948 54.1394 12.3823 53.2005 13.921C52.338 15.271 51.1056 16.3375 49.6538 16.9901C48.0968 17.6881 46.409 18.0371 44.7062 18.0131H40.3882V30.0024H35.7598V0.00235398ZM40.3882 14.1812H43.4472C44.5022 14.1924 45.5515 14.0225 46.5505 13.6787C47.4425 13.3684 48.2171 12.7851 48.7672 12.0095C49.3447 11.1092 49.6299 10.0487 49.5829 8.97633C49.6547 7.88162 49.368 6.79348 48.7672 5.88031C48.2009 5.1354 47.4202 4.58669 46.5328 4.30986C45.5354 3.98896 44.4937 3.83143 43.4472 3.84322H40.3882V14.1812Z" fill="#262626"/>
<path d="M63.6538 30.0023H58.9102V0.00234985H63.6538V30.0023Z" fill="#262626"/>
<path d="M83.1961 30.0023V26.0717C82.9541 26.623 82.6146 27.1249 82.1941 27.5524C81.5462 28.2456 80.7841 28.8194 79.942 29.2485C78.8993 29.7731 77.7457 30.0319 76.5816 30.0023C74.9896 30.0315 73.4209 29.6134 72.0497 28.7943C70.6785 27.9753 69.5585 26.7874 68.8144 25.3628C68.0116 23.8079 67.6091 22.0734 67.644 20.3194C67.6069 18.5595 68.0094 16.8186 68.8144 15.2581C69.5577 13.8315 70.677 12.6411 72.048 11.819C73.419 10.9969 74.9882 10.5752 76.5816 10.6006C77.7134 10.57 78.8375 10.7969 79.8711 11.2647C80.698 11.6453 81.4539 12.1675 82.1055 12.8082C82.5675 13.2374 82.9256 13.7687 83.1518 14.3607V11.139H87.8333V29.9844L83.1961 30.0023ZM72.299 20.3194C72.2745 21.3974 72.5412 22.4617 73.0704 23.3975C73.548 24.2312 74.2333 24.9235 75.0579 25.4053C75.8825 25.8872 76.8175 26.1417 77.7697 26.1435C78.7342 26.1735 79.6872 25.9254 80.5177 25.4281C81.3482 24.9308 82.0218 24.2047 82.4602 23.3347C82.9374 22.3947 83.1751 21.349 83.1518 20.2925C83.1763 19.233 82.9385 18.1841 82.4602 17.2413C81.9964 16.419 81.3267 15.7349 80.5183 15.2581C79.6888 14.7549 78.7367 14.4969 77.7697 14.5133C76.8353 14.5149 75.9179 14.7656 75.1097 15.2401C74.2725 15.73 73.5757 16.4321 73.0881 17.2772C72.5606 18.2015 72.288 19.2521 72.299 20.3194Z" fill="#262626"/>
<path d="M103.536 10.6096C104.757 10.611 105.964 10.8677 107.082 11.3634C108.238 11.8795 109.223 12.7205 109.92 13.7864C110.714 15.0781 111.104 16.5829 111.037 18.1029V30.0023H106.293V18.9733C106.348 18.3184 106.273 17.6591 106.074 17.0337C105.874 16.4082 105.554 15.8291 105.132 15.3299C104.739 14.9381 104.272 14.6317 103.758 14.4296C103.244 14.2274 102.695 14.1337 102.144 14.1543C101.323 14.1599 100.521 14.3994 99.8295 14.8453C99.0977 15.3167 98.4893 15.9602 98.0562 16.7209C97.5907 17.539 97.3518 18.469 97.3646 19.4131V30.0023H92.6387V11.157H97.3646V14.244C97.5688 13.6234 97.9368 13.0711 98.4286 12.6467C99.081 12.0457 99.8309 11.563 100.645 11.2198C101.557 10.8175 102.541 10.6097 103.536 10.6096Z" fill="#262626"/>
<path d="M118.973 21.4322C118.987 22.346 119.221 23.2426 119.656 24.0436C120.095 24.8189 120.753 25.4438 121.545 25.8384C122.494 26.3044 123.541 26.5293 124.595 26.4935C125.5 26.5093 126.4 26.3635 127.255 26.0628C127.932 25.8094 128.569 25.4556 129.143 25.0128C129.56 24.6821 129.93 24.2957 130.243 23.8642L132.335 26.7448C131.854 27.3909 131.273 27.9545 130.615 28.414C129.834 28.9511 128.963 29.3402 128.044 29.5626C126.808 29.8643 125.538 30.0031 124.267 29.9754C122.476 30.0226 120.705 29.599 119.124 28.746C117.69 27.949 116.513 26.7492 115.737 25.291C114.909 23.68 114.498 21.8834 114.54 20.0682C114.532 18.3948 114.924 16.7444 115.684 15.2581C116.41 13.8364 117.524 12.6558 118.894 11.857C120.412 11.0607 122.093 10.6338 123.803 10.6105C125.513 10.5871 127.205 10.9678 128.744 11.7224C130.081 12.4518 131.174 13.5669 131.883 14.9261C132.667 16.483 133.051 18.2141 133 19.9605C133 20.0771 133 20.3284 133 20.6963C133.005 20.9431 132.984 21.1897 132.938 21.4322H118.973ZM128.567 17.9503C128.53 17.3776 128.37 16.8201 128.097 16.317C127.762 15.6679 127.264 15.12 126.652 14.7287C125.854 14.2334 124.926 13.9955 123.992 14.0466C123.03 14.0014 122.076 14.2282 121.234 14.7017C120.661 15.0464 120.172 15.5175 119.804 16.08C119.435 16.6424 119.197 17.2817 119.106 17.9503H128.567Z" fill="#262626"/>
<path d="M29.127 0.271576H9.70898V10.0981H19.418V19.9246H29.127V0.271576Z" fill="#3F76FF"/>
<path d="M9.709 10.0981H0V19.9066H9.709V10.0981Z" fill="#3F76FF"/>
<path d="M19.4266 19.9246H9.73535V29.7511H19.4266V19.9246Z" fill="#3F76FF"/>
</g>
<defs>
<clipPath id="clip0_372_3489">
<rect width="133" height="30" fill="white"/>
</clipPath>
</defs>
</svg>
