<svg width="269" height="60" viewBox="0 0 269 60" fill="none" xmlns="http://www.w3.org/2000/svg">
<g clip-path="url(#clip0_900_213)">
<path d="M101.655 49.3342H90.5703C87.6365 49.3342 85.5197 48.7772 84.22 47.6631C82.9202 46.5119 82.2703 44.6179 82.2703 41.9813V28.2223C82.2703 25.5485 82.8274 23.7102 83.9415 22.7075C85.0555 21.7049 86.9681 21.2035 89.679 21.2035H94.8595C97.6076 21.2035 99.5387 21.7049 100.653 22.7075C101.804 23.7102 102.38 25.5485 102.38 28.2223V38.5833H87.8408V34.0712H96.1407V26.9968C96.1407 26.5511 95.9365 26.3283 95.528 26.3283H89.2334C88.7877 26.3283 88.5649 26.5511 88.5649 26.9968V43.3739C88.5649 43.8195 88.7877 44.0423 89.2334 44.0423H101.655V49.3342ZM120.615 54.849C121.023 54.849 121.228 54.6261 121.228 54.1805V44.3765L121.562 43.6524C121.562 45.5092 121.135 46.9575 120.281 47.9973C119.464 49 118.127 49.5013 116.27 49.5013H113.708C111.368 49.5013 109.66 49.0186 108.583 48.053C107.506 47.0503 106.967 45.3978 106.967 43.0953V21.7049H113.262V43.7081C113.262 44.1537 113.485 44.3765 113.93 44.3765H121.228L121.172 21.7049H127.467L127.522 52.6765C127.522 55.3132 126.872 57.2071 125.573 58.3583C124.273 59.5096 122.156 60.0852 119.222 60.0852H108.081V54.849H120.615ZM141.051 49H134.756V18.0841C134.756 15.4474 135.369 13.5906 136.595 12.5137C137.82 11.4367 139.788 10.8982 142.499 10.8982L147.847 10.9539V16.2458H141.719C141.274 16.2458 141.051 16.4687 141.051 16.9143V49ZM147.513 26.6069H131.526V21.7049H147.513V26.6069ZM156.982 49H150.688V11.3996H156.982V49ZM176.541 26.5511H169.689C169.244 26.5511 169.021 26.774 169.021 27.2196V43.4853C169.021 43.9309 169.244 44.1537 169.689 44.1537H176.541C176.986 44.1537 177.209 43.9309 177.209 43.4853V27.2196C177.209 26.774 176.986 26.5511 176.541 26.5511ZM162.67 42.0927V28.6122C162.67 25.9384 163.32 24.0445 164.62 22.9304C165.92 21.7791 168.037 21.2035 170.97 21.2035H175.26C178.193 21.2035 180.31 21.7791 181.61 22.9304C182.91 24.0445 183.56 25.9384 183.56 28.6122V42.0927C183.56 44.7293 182.91 46.6233 181.61 47.7745C180.31 48.9257 178.193 49.5013 175.26 49.5013H170.97C168.037 49.5013 165.92 48.9257 164.62 47.7745C163.32 46.6233 162.67 44.7293 162.67 42.0927ZM199.042 49.5013H195.365C193.063 49.5013 191.355 49.0371 190.241 48.1087C189.164 47.1803 188.625 45.5649 188.625 43.2625V21.7049H194.92V43.7081C194.92 44.1537 195.143 44.3765 195.588 44.3765H201.604C202.05 44.3765 202.273 44.1537 202.273 43.7081V21.7049H208.4V43.7081C208.4 44.1537 208.623 44.3765 209.069 44.3765H215.196C215.642 44.3765 215.865 44.1537 215.865 43.7081L215.753 21.7049H222.048L222.159 43.0953C222.159 45.3978 221.621 47.0503 220.544 48.053C219.467 49.0186 217.759 49.5013 215.419 49.5013H211.631C209.403 49.5013 207.75 49 206.673 47.9973C205.596 46.9575 205.058 45.3235 205.058 43.0953H205.615C205.615 45.3235 205.076 46.9575 204 47.9973C202.96 49 201.307 49.5013 199.042 49.5013Z" fill="white"/>
<path d="M46.2715 5.74219V5.74219C50.5794 5.74219 54.0717 9.23447 54.0717 13.5424V48.2889H46.2715V5.74219Z" fill="url(#paint0_linear_900_213)"/>
<path d="M67.5449 5.74219V5.74219C71.8529 5.74219 75.3452 9.23447 75.3452 13.5424V16.8221C75.3452 20.4936 72.3688 23.47 68.6972 23.47H67.5449V5.74219Z" fill="url(#paint1_linear_900_213)"/>
<path d="M67.5449 32.6797H75.3452V48.2801H67.5449V32.6797Z" fill="url(#paint2_linear_900_213)"/>
<path d="M54.7812 31.9844V24.1841H67.5453C71.8532 24.1841 75.3455 27.6764 75.3455 31.9844V31.9844L54.7812 31.9844Z" fill="url(#paint3_linear_900_213)"/>
<path d="M54.7803 13.5469C54.7803 10.0013 53.0075 6.81031 49.139 5.74671L66.8667 5.81859L66.8351 13.6188L54.7803 13.5469Z" fill="url(#paint4_linear_900_213)"/>
<path d="M47.091 2.46094C47.5429 2.46094 47.9092 2.82726 47.9092 3.27914V3.27914C47.9092 3.73103 47.5429 4.09735 47.091 4.09735H45.4546C45.0027 4.09735 44.6364 4.46367 44.6364 4.91556V6.55197C44.6364 7.00385 44.2701 7.37017 43.8182 7.37017V7.37017C43.3663 7.37017 43 7.00385 43 6.55197V3.27914C43 2.82726 43.3663 2.46094 43.8182 2.46094H47.091Z" fill="#274A9F"/>
<path d="M74.9099 51.5625C74.4581 51.5625 74.0917 51.1962 74.0917 50.7443V50.7443C74.0917 50.2924 74.4581 49.9261 74.9099 49.9261H76.5464C76.9982 49.9261 77.3646 49.5598 77.3646 49.1079V47.4715C77.3646 47.0196 77.7309 46.6533 78.1828 46.6533V46.6533C78.6347 46.6533 79.001 47.0196 79.001 47.4715V50.7443C79.001 51.1962 78.6347 51.5625 78.1828 51.5625H74.9099Z" fill="#274A9F"/>
</g>
<defs>
<linearGradient id="paint0_linear_900_213" x1="50.1716" y1="5.74219" x2="50.1716" y2="48.2889" gradientUnits="userSpaceOnUse">
<stop stop-color="#3F76FF"/>
<stop offset="1" stop-color="#264799"/>
</linearGradient>
<linearGradient id="paint1_linear_900_213" x1="71.445" y1="5.74219" x2="71.445" y2="23.47" gradientUnits="userSpaceOnUse">
<stop stop-color="#3F76FF"/>
<stop offset="1" stop-color="#264799"/>
</linearGradient>
<linearGradient id="paint2_linear_900_213" x1="71.445" y1="32.6797" x2="71.445" y2="48.2801" gradientUnits="userSpaceOnUse">
<stop stop-color="#3F76FF"/>
<stop offset="1" stop-color="#264799"/>
</linearGradient>
<linearGradient id="paint3_linear_900_213" x1="54.7812" y1="28.0843" x2="75.3455" y2="28.0843" gradientUnits="userSpaceOnUse">
<stop stop-color="#3F76FF"/>
<stop offset="1" stop-color="#264799"/>
</linearGradient>
<linearGradient id="paint4_linear_900_213" x1="49.1232" y1="9.64679" x2="66.8509" y2="9.71867" gradientUnits="userSpaceOnUse">
<stop stop-color="#3F76FF"/>
<stop offset="1" stop-color="#264799"/>
</linearGradient>
<clipPath id="clip0_900_213">
<rect width="269" height="60" fill="white"/>
</clipPath>
</defs>
</svg>
