<svg width="48" height="48" viewBox="0 0 48 48" fill="none" xmlns="http://www.w3.org/2000/svg">
<g clip-path="url(#clip0_459_65408)">
<g clip-path="url(#clip1_459_65408)">
<path d="M38.6528 30.0401C28.7772 25.265 25.8922 24.5514 21.7311 24.5514C16.8488 24.5514 12.6878 26.5822 8.97058 32.2905L8.36029 33.2236C7.86096 33.992 7.75 34.2664 7.75 34.5957C7.75 34.9251 7.91644 35.1995 8.52673 35.5837L14.7961 39.4807C15.1289 39.7002 15.4063 39.81 15.6837 39.81C16.0166 39.81 16.2386 39.6453 16.5714 39.1514L17.5701 37.6145C19.1236 35.2544 20.5106 34.486 22.286 34.486C23.8394 34.486 25.6703 34.9251 27.945 36.0228L34.4917 39.0965C35.1575 39.4258 35.8787 39.2611 36.2116 38.4927L39.3185 31.6867C39.6514 30.9183 39.4295 30.4243 38.6528 30.0401ZM9.85827 18.0199C19.7338 22.795 22.6188 23.5086 26.7799 23.5086C31.6622 23.5086 35.8233 21.4778 39.5405 15.7695L40.1507 14.8364C40.6501 14.068 40.761 13.7936 40.761 13.4643C40.761 13.1349 40.5946 12.8605 39.9843 12.4763L33.715 8.57932C33.3821 8.35977 33.1047 8.25 32.8273 8.25C32.4944 8.25 32.2725 8.41466 31.9396 8.90864L30.9409 10.4455C29.3875 12.8056 28.0005 13.574 26.2251 13.574C24.6716 13.574 22.8408 13.1349 20.566 12.0372L14.0193 8.96353C13.3536 8.63421 12.6323 8.79887 12.2994 9.56729L9.1925 16.3733C8.85961 17.1417 9.08154 17.6357 9.85827 18.0199Z" fill="#1868DB"/>
</g>
</g>
<defs>
<clipPath id="clip0_459_65408">
<rect width="48" height="48" fill="white"/>
</clipPath>
<clipPath id="clip1_459_65408">
<rect width="33.011" height="31.56" fill="white" transform="translate(7.75 8.25)"/>
</clipPath>
</defs>
</svg>
