<svg width="205" height="217" viewBox="0 0 205 217" fill="none" xmlns="http://www.w3.org/2000/svg">
<circle cx="102.5" cy="102.5" r="102.5" fill="url(#paint0_linear_8097_110478)"/>
<path d="M146.167 47.5H59.8333C53.0218 47.5 47.5 53.0218 47.5 59.8333V146.167C47.5 152.978 53.0218 158.5 59.8333 158.5H146.167C152.978 158.5 158.5 152.978 158.5 146.167V59.8333C158.5 53.0218 152.978 47.5 146.167 47.5Z" stroke="#80838D" stroke-width="4" stroke-linecap="round" stroke-linejoin="round"/>
<path d="M83.1297 72.167H73.5371C72.7802 72.167 72.1667 72.7805 72.1667 73.5374V83.13C72.1667 83.8868 72.7802 84.5003 73.5371 84.5003H83.1297C83.8865 84.5003 84.5 83.8868 84.5 83.13V73.5374C84.5 72.7805 83.8865 72.167 83.1297 72.167Z" fill="#80838D" stroke="#80838D" stroke-width="4" stroke-linecap="round" stroke-linejoin="round"/>
<path d="M83.1297 121.5H73.5371C72.7802 121.5 72.1667 122.114 72.1667 122.87V132.463C72.1667 133.22 72.7802 133.833 73.5371 133.833H83.1297C83.8865 133.833 84.5 133.22 84.5 132.463V122.87C84.5 122.114 83.8865 121.5 83.1297 121.5Z" fill="#80838D" stroke="#80838D" stroke-width="4" stroke-linecap="round" stroke-linejoin="round"/>
<path d="M132.463 72.167H122.87C122.114 72.167 121.5 72.7805 121.5 73.5374V83.13C121.5 83.8868 122.114 84.5003 122.87 84.5003H132.463C133.22 84.5003 133.833 83.8868 133.833 83.13V73.5374C133.833 72.7805 133.22 72.167 132.463 72.167Z" fill="#80838D" stroke="#80838D" stroke-width="4" stroke-linecap="round" stroke-linejoin="round"/>
<path d="M132.463 121.5H122.87C122.114 121.5 121.5 122.114 121.5 122.87V132.463C121.5 133.22 122.114 133.833 122.87 133.833H132.463C133.22 133.833 133.833 133.22 133.833 132.463V122.87C133.833 122.114 133.22 121.5 132.463 121.5Z" fill="#80838D" stroke="#80838D" stroke-width="4" stroke-linecap="round" stroke-linejoin="round"/>
<g filter="url(#filter0_ddd_8097_110478)">
<circle cx="103" cy="173.828" r="31" fill="#3A5BC7"/>
<path d="M91.9961 166.5H114.496" stroke="#F9F9FB" stroke-width="3.57143" stroke-linecap="round" stroke-linejoin="round"/>
<path d="M96.9961 174H109.496" stroke="#F9F9FB" stroke-width="3.57143" stroke-linecap="round" stroke-linejoin="round"/>
<path d="M100.746 181.5H105.746" stroke="#F9F9FB" stroke-width="3.57143" stroke-linecap="round" stroke-linejoin="round"/>
</g>
<defs>
<filter id="filter0_ddd_8097_110478" x="64" y="137.828" width="78" height="79" filterUnits="userSpaceOnUse" color-interpolation-filters="sRGB">
<feFlood flood-opacity="0" result="BackgroundImageFix"/>
<feColorMatrix in="SourceAlpha" type="matrix" values="0 0 0 0 0 0 0 0 0 0 0 0 0 0 0 0 0 0 127 0" result="hardAlpha"/>
<feMorphology radius="2" operator="erode" in="SourceAlpha" result="effect1_dropShadow_8097_110478"/>
<feOffset dy="2"/>
<feGaussianBlur stdDeviation="1.5"/>
<feComposite in2="hardAlpha" operator="out"/>
<feColorMatrix type="matrix" values="0 0 0 0 0 0 0 0 0 0 0 0 0 0 0.24 0 0 0 0.051 0"/>
<feBlend mode="normal" in2="BackgroundImageFix" result="effect1_dropShadow_8097_110478"/>
<feColorMatrix in="SourceAlpha" type="matrix" values="0 0 0 0 0 0 0 0 0 0 0 0 0 0 0 0 0 0 127 0" result="hardAlpha"/>
<feMorphology radius="4" operator="erode" in="SourceAlpha" result="effect2_dropShadow_8097_110478"/>
<feOffset dy="3"/>
<feGaussianBlur stdDeviation="6"/>
<feComposite in2="hardAlpha" operator="out"/>
<feColorMatrix type="matrix" values="0 0 0 0 0 0 0 0 0 0 0 0 0 0 0 0 0 0 0.055 0"/>
<feBlend mode="normal" in2="effect1_dropShadow_8097_110478" result="effect2_dropShadow_8097_110478"/>
<feColorMatrix in="SourceAlpha" type="matrix" values="0 0 0 0 0 0 0 0 0 0 0 0 0 0 0 0 0 0 127 0" result="hardAlpha"/>
<feMorphology radius="8" operator="erode" in="SourceAlpha" result="effect3_dropShadow_8097_110478"/>
<feOffset dy="4"/>
<feGaussianBlur stdDeviation="8"/>
<feComposite in2="hardAlpha" operator="out"/>
<feColorMatrix type="matrix" values="0 0 0 0 0 0 0 0 0 0 0 0 0 0 0 0 0 0 0.078 0"/>
<feBlend mode="normal" in2="effect2_dropShadow_8097_110478" result="effect3_dropShadow_8097_110478"/>
<feBlend mode="normal" in="SourceGraphic" in2="effect3_dropShadow_8097_110478" result="shape"/>
</filter>
<linearGradient id="paint0_linear_8097_110478" x1="102.5" y1="0" x2="102.5" y2="207.52" gradientUnits="userSpaceOnUse">
<stop stop-color="#F7F7F7"/>
<stop offset="1" stop-color="#F8F9FA" stop-opacity="0"/>
</linearGradient>
</defs>
</svg>
