<svg width="206" height="217" viewBox="0 0 206 217" fill="none" xmlns="http://www.w3.org/2000/svg">
<circle cx="103" cy="102.5" r="102.5" fill="url(#paint0_linear_8097_112031)"/>
<path d="M146.667 47.5H60.3333C53.5218 47.5 48 53.0218 48 59.8333V146.167C48 152.978 53.5218 158.5 60.3333 158.5H146.667C153.478 158.5 159 152.978 159 146.167V59.8333C159 53.0218 153.478 47.5 146.667 47.5Z" stroke="#80838D" stroke-width="4" stroke-linecap="round" stroke-linejoin="round"/>
<path d="M83.6297 72.167H74.0371C73.2803 72.167 72.6667 72.7805 72.6667 73.5374V83.13C72.6667 83.8868 73.2803 84.5003 74.0371 84.5003H83.6297C84.3865 84.5003 85.0001 83.8868 85.0001 83.13V73.5374C85.0001 72.7805 84.3865 72.167 83.6297 72.167Z" fill="#80838D" stroke="#80838D" stroke-width="4" stroke-linecap="round" stroke-linejoin="round"/>
<path d="M83.6297 121.5H74.0371C73.2803 121.5 72.6667 122.114 72.6667 122.87V132.463C72.6667 133.22 73.2803 133.833 74.0371 133.833H83.6297C84.3865 133.833 85.0001 133.22 85.0001 132.463V122.87C85.0001 122.114 84.3865 121.5 83.6297 121.5Z" fill="#80838D" stroke="#80838D" stroke-width="4" stroke-linecap="round" stroke-linejoin="round"/>
<path d="M132.963 72.167H123.37C122.614 72.167 122 72.7805 122 73.5374V83.13C122 83.8868 122.614 84.5003 123.37 84.5003H132.963C133.72 84.5003 134.333 83.8868 134.333 83.13V73.5374C134.333 72.7805 133.72 72.167 132.963 72.167Z" fill="#80838D" stroke="#80838D" stroke-width="4" stroke-linecap="round" stroke-linejoin="round"/>
<path d="M132.963 121.5H123.37C122.614 121.5 122 122.114 122 122.87V132.463C122 133.22 122.614 133.833 123.37 133.833H132.963C133.72 133.833 134.333 133.22 134.333 132.463V122.87C134.333 122.114 133.72 121.5 132.963 121.5Z" fill="#80838D" stroke="#80838D" stroke-width="4" stroke-linecap="round" stroke-linejoin="round"/>
<g filter="url(#filter0_ddd_8097_112031)">
<circle cx="103.5" cy="174" r="31" fill="#3A5BC7"/>
<path d="M101.821 185.756C109.24 185.756 115.254 179.742 115.254 172.323C115.254 164.904 109.24 158.89 101.821 158.89C94.4015 158.89 88.3872 164.904 88.3872 172.323C88.3872 179.742 94.4015 185.756 101.821 185.756Z" stroke="white" stroke-width="2.52049" stroke-linecap="round" stroke-linejoin="round"/>
<path d="M118.612 189.114L111.392 181.894" stroke="white" stroke-width="2.52049" stroke-linecap="round" stroke-linejoin="round"/>
</g>
<defs>
<filter id="filter0_ddd_8097_112031" x="64.5" y="138" width="78" height="79" filterUnits="userSpaceOnUse" color-interpolation-filters="sRGB">
<feFlood flood-opacity="0" result="BackgroundImageFix"/>
<feColorMatrix in="SourceAlpha" type="matrix" values="0 0 0 0 0 0 0 0 0 0 0 0 0 0 0 0 0 0 127 0" result="hardAlpha"/>
<feMorphology radius="2" operator="erode" in="SourceAlpha" result="effect1_dropShadow_8097_112031"/>
<feOffset dy="2"/>
<feGaussianBlur stdDeviation="1.5"/>
<feComposite in2="hardAlpha" operator="out"/>
<feColorMatrix type="matrix" values="0 0 0 0 0 0 0 0 0 0 0 0 0 0 0.24 0 0 0 0.051 0"/>
<feBlend mode="normal" in2="BackgroundImageFix" result="effect1_dropShadow_8097_112031"/>
<feColorMatrix in="SourceAlpha" type="matrix" values="0 0 0 0 0 0 0 0 0 0 0 0 0 0 0 0 0 0 127 0" result="hardAlpha"/>
<feMorphology radius="4" operator="erode" in="SourceAlpha" result="effect2_dropShadow_8097_112031"/>
<feOffset dy="3"/>
<feGaussianBlur stdDeviation="6"/>
<feComposite in2="hardAlpha" operator="out"/>
<feColorMatrix type="matrix" values="0 0 0 0 0 0 0 0 0 0 0 0 0 0 0 0 0 0 0.055 0"/>
<feBlend mode="normal" in2="effect1_dropShadow_8097_112031" result="effect2_dropShadow_8097_112031"/>
<feColorMatrix in="SourceAlpha" type="matrix" values="0 0 0 0 0 0 0 0 0 0 0 0 0 0 0 0 0 0 127 0" result="hardAlpha"/>
<feMorphology radius="8" operator="erode" in="SourceAlpha" result="effect3_dropShadow_8097_112031"/>
<feOffset dy="4"/>
<feGaussianBlur stdDeviation="8"/>
<feComposite in2="hardAlpha" operator="out"/>
<feColorMatrix type="matrix" values="0 0 0 0 0 0 0 0 0 0 0 0 0 0 0 0 0 0 0.078 0"/>
<feBlend mode="normal" in2="effect2_dropShadow_8097_112031" result="effect3_dropShadow_8097_112031"/>
<feBlend mode="normal" in="SourceGraphic" in2="effect3_dropShadow_8097_112031" result="shape"/>
</filter>
<linearGradient id="paint0_linear_8097_112031" x1="103" y1="0" x2="103" y2="207.52" gradientUnits="userSpaceOnUse">
<stop stop-color="#F7F7F7"/>
<stop offset="1" stop-color="#F8F9FA" stop-opacity="0"/>
</linearGradient>
</defs>
</svg>
