<svg width="700" height="650" viewBox="0 0 700 650" fill="none" xmlns="http://www.w3.org/2000/svg">
<g clip-path="url(#clip0_3262_5767)">
<mask id="mask0_3262_5767" style="mask-type:luminance" maskUnits="userSpaceOnUse" x="0" y="0" width="700" height="650">
<path d="M700 0H0V650H700V0Z" fill="white"/>
</mask>
<g mask="url(#mask0_3262_5767)">
<path d="M337.682 0L360.832 20.5C377.982 35.7 395.182 50.85 412.132 66.25C521.982 166 614.982 278.25 684.982 407.45C688.582 414.05 691.832 420.85 695.082 427.6L699.982 437.75L694.582 440.6L690.532 434.85L680.032 419.9L672.682 409.2C621.732 335.25 570.682 261.2 500.582 201.95C479.373 183.995 455.969 168.807 430.932 156.75C380.232 132.5 335.132 142.2 296.432 182C259.632 219.85 240.532 266.85 223.282 314.65C221.032 320.8 218.682 326.9 216.332 333L212.232 343.75L203.632 341C208.632 323.6 213.232 306.1 217.832 288.55C228.332 248.8 238.832 209.05 253.432 170.75C268.932 129.95 288.532 90.6 308.082 51.25C316.532 34.2 324.982 17.15 333.082 0H337.682Z" fill="#C22E33"/>
<path d="M372.382 491.1C291.082 529.6 94.3829 569.3 1.08287 559.1C-14.1671 478.8 135.482 102.5 208.982 45.5L204.232 56.4C202.115 61.531 199.813 66.5842 197.332 71.55L194.032 78C156.032 151.1 118.082 224.3 98.6329 304.5C91.6287 332.124 87.8038 360.458 87.2328 388.95C86.7328 455.95 128.432 501.55 198.082 504.4C231.582 505.75 265.432 502.25 299.232 498.7C313.932 497.2 328.582 495.65 343.232 494.5C348.632 494.1 353.932 493.45 360.832 492.55L372.382 491.15V491.1Z" fill="#C22E33"/>
<path d="M141.233 639.05C118.983 640.75 96.733 642.45 74.583 644.45C279.433 663.95 476.083 630.6 670.083 562.25C606.833 450.75 521.583 362.7 422.483 286.15C423.783 291.05 426.683 294.6 429.533 298.1L431.933 301.1C440.433 312.4 449.333 323.5 458.283 334.6C478.733 360.05 499.183 385.5 514.583 413.5C553.483 484.5 532.383 545.9 456.183 578.3C406.083 599.65 351.333 614.2 297.183 622.9C245.683 631.1 193.433 635.05 141.233 639.05Z" fill="#C22E33"/>
</g>
</g>
<defs>
<clipPath id="clip0_3262_5767">
<rect width="700" height="650" fill="white"/>
</clipPath>
</defs>
</svg>
