<svg width="178" height="40" viewBox="0 0 178 40" fill="none" xmlns="http://www.w3.org/2000/svg">
<g clip-path="url(#clip0_435_3747)">
<path d="M47.8574 -4.66756e-06H59.8428C62.1026 -0.0433815 64.3487 0.363226 66.4525 1.19653C68.3742 1.97944 70.025 3.3152 71.1992 5.03739C72.4584 7.02581 73.0799 9.35697 72.9792 11.714C73.0756 14.1233 72.4557 16.5067 71.1992 18.5582C70.0448 20.3582 68.3954 21.7802 66.4525 22.6503C64.3686 23.581 62.1098 24.0463 59.8309 24.0144H54.0518V40H47.8574V-4.66756e-06ZM54.0518 18.9052H58.1458C59.5579 18.9201 60.9622 18.6935 62.2992 18.2351C63.493 17.8214 64.5297 17.0436 65.2658 16.0096C66.0388 14.8091 66.4205 13.3952 66.3576 11.9653C66.4536 10.5057 66.0699 9.05483 65.2658 7.83727C64.508 6.84406 63.4631 6.11244 62.2754 5.74334C60.9405 5.31547 59.5464 5.10542 58.1458 5.12114H54.0518V18.9052Z" fill="#F2F2F2"/>
<path d="M85.1905 40H78.8418V0H85.1905V40Z" fill="#F2F2F2"/>
<path d="M111.345 40V34.7592C111.021 35.4943 110.566 36.1634 110.004 36.7335C109.136 37.6576 108.117 38.4228 106.99 38.9949C105.594 39.6944 104.05 40.0394 102.492 40C100.362 40.0389 98.262 39.4814 96.4269 38.3893C94.5917 37.2972 93.0929 35.7134 92.0969 33.8139C91.0225 31.7408 90.4838 29.4281 90.5305 27.0894C90.4808 24.7429 91.0196 22.4217 92.0969 20.341C93.0918 18.4388 94.5897 16.8517 96.4246 15.7555C98.2595 14.6594 100.36 14.0971 102.492 14.131C104.007 14.0902 105.511 14.3928 106.895 15.0165C108.001 15.524 109.013 16.2202 109.885 17.0745C110.503 17.6468 110.983 18.3551 111.285 19.1445V14.8489H117.551V39.9761L111.345 40ZM96.7605 27.0894C96.7277 28.5267 97.0847 29.9458 97.7929 31.1935C98.4321 32.3051 99.3493 33.2282 100.453 33.8706C101.556 34.5131 102.808 34.8525 104.082 34.8549C105.373 34.8949 106.649 34.5641 107.76 33.901C108.871 33.2379 109.773 32.2699 110.36 31.1098C110.998 29.8565 111.317 28.4623 111.285 27.0536C111.318 25.6409 111 24.2424 110.36 22.9853C109.739 21.8888 108.843 20.9767 107.761 20.341C106.651 19.6701 105.376 19.3261 104.082 19.3479C102.832 19.3501 101.604 19.6844 100.522 20.3171C99.4017 20.9702 98.4693 21.9063 97.8166 23.0332C97.1106 24.2655 96.7459 25.6664 96.7605 27.0894Z" fill="#F2F2F2"/>
<path d="M138.567 14.143C140.201 14.1449 141.816 14.4871 143.313 15.1481C144.86 15.8362 146.178 16.9575 147.111 18.3787C148.174 20.101 148.695 22.1074 148.606 24.134V40H142.257V25.2946C142.33 24.4215 142.23 23.5424 141.963 22.7085C141.696 21.8745 141.268 21.1023 140.703 20.4367C140.177 19.9144 139.551 19.5058 138.864 19.2363C138.176 18.9667 137.441 18.8418 136.703 18.8693C135.606 18.8767 134.532 19.196 133.606 19.7906C132.627 20.4192 131.813 21.2771 131.233 22.2914C130.61 23.3822 130.29 24.6223 130.307 25.8809V40H123.982V14.8729H130.307V18.9889C130.581 18.1614 131.073 17.425 131.731 16.8591C132.605 16.0578 133.608 15.4143 134.698 14.9566C135.918 14.4202 137.235 14.1432 138.567 14.143Z" fill="#F2F2F2"/>
<path d="M159.226 28.5731C159.245 29.7916 159.558 30.987 160.14 32.055C160.728 33.0887 161.608 33.922 162.668 34.4481C163.938 35.0694 165.339 35.3692 166.75 35.3216C167.961 35.3426 169.166 35.1482 170.31 34.7472C171.217 34.4094 172.068 33.9376 172.837 33.3473C173.394 32.9063 173.889 32.3911 174.309 31.8157L177.109 35.6566C176.465 36.5181 175.688 37.2695 174.807 37.8821C173.761 38.5983 172.596 39.1172 171.366 39.4137C169.711 39.8159 168.012 40.0009 166.311 39.9641C163.915 40.027 161.543 39.4622 159.428 38.3249C157.508 37.2622 155.934 35.6624 154.895 33.7182C153.787 31.5703 153.236 29.1747 153.293 26.7544C153.282 24.5233 153.807 22.3227 154.824 20.341C155.795 18.4454 157.286 16.8713 159.12 15.8062C161.152 14.7444 163.402 14.1753 165.69 14.1442C167.979 14.113 170.243 14.6206 172.303 15.6267C174.093 16.5992 175.555 18.086 176.504 19.8983C177.552 21.9742 178.067 24.2823 177.999 26.6108C177.999 26.7664 177.999 27.1014 177.999 27.592C178.005 27.921 177.977 28.2498 177.916 28.5731H159.226ZM172.066 23.9306C172.017 23.167 171.802 22.4237 171.437 21.7529C170.989 20.8874 170.322 20.1568 169.503 19.6351C168.435 18.9747 167.194 18.6575 165.943 18.7257C164.656 18.6653 163.378 18.9678 162.252 19.5992C161.485 20.0587 160.831 20.6868 160.338 21.4368C159.844 22.1867 159.526 23.0391 159.404 23.9306H172.066Z" fill="#F2F2F2"/>
<path d="M38.9821 0.358963H12.9941V13.461H25.9881V26.563H38.9821V0.358963Z" fill="#F2F2F2"/>
<path d="M12.994 13.461H0V26.539H12.994V13.461Z" fill="#F2F2F2"/>
<path d="M25.9996 26.563H13.0293V39.665H25.9996V26.563Z" fill="#F2F2F2"/>
</g>
<defs>
<clipPath id="clip0_435_3747">
<rect width="178" height="40" fill="white"/>
</clipPath>
</defs>
</svg>
