<svg width="93" height="93" viewBox="0 0 93 93" fill="none" xmlns="http://www.w3.org/2000/svg">
<circle cx="46.5" cy="46.5" r="46.5" fill="#F8F9FA"/>
<path d="M23.75 47C23.75 51.5984 25.1136 56.0936 27.6683 59.917C30.2231 63.7404 33.8542 66.7205 38.1026 68.4802C42.351 70.2399 47.0258 70.7004 51.5358 69.8033C56.0459 68.9062 60.1887 66.6918 63.4402 63.4402C66.6918 60.1887 68.9062 56.0459 69.8033 51.5358C70.7004 47.0258 70.2399 42.351 68.4802 38.1026C66.7205 33.8542 63.7404 30.2231 59.917 27.6683C56.0936 25.1136 51.5984 23.75 47 23.75C40.5002 23.7745 34.2615 26.3107 29.5883 30.8283L23.75 36.6667" stroke="#D9D9E0" stroke-width="6" stroke-linecap="round" stroke-linejoin="round"/>
<path d="M23.75 23.75V36.6667H36.6667" stroke="#D9D9E0" stroke-width="6" stroke-linecap="round" stroke-linejoin="round"/>
<path d="M47 34.082V46.9987L57.3333 52.1654" stroke="#B9BBC6" stroke-width="4" stroke-linecap="round" stroke-linejoin="round"/>
</svg>
