<?xml version="1.0" encoding="UTF-8"?><svg id="_レイヤー_1" xmlns="http://www.w3.org/2000/svg" viewBox="0 0 696 108"><defs><style>.cls-1{fill:#2e6efe;}</style></defs><path class="cls-1" d="M54,0c4.1242981,0,8.1407013.462147,12,1.33789v27.3574091c-3.6371002-1.7277985-7.7055016-2.6952991-12-2.6952991-15.4640007,0-28,12.5359993-28,28s12.5359993,28,28,28,28-12.5360031,28-28c0-.3348007-.0078964-.6680984-.0195007-1h.0195007V7.8193402c12.8692017,7.81986,22.2109985,20.8663592,25.0770035,36.1943583.3069992-.0086975.6139984-.0136986.9229965-.0136986,17.6729965,0,32,14.3269005,32,32s-14.3270035,32-32,32h-54C24.1765995,108,0,83.8234024,0,54S24.1765995,0,54,0ZM554.4790039,32.1016006c10.4559937,0,17.5390015,2.3124008,22.2940063,7.2919998,4.6350098,4.8588982,6.7940063,12.0233002,6.7940063,22.5584984,0,20.7829018-8.973999,30.0517998-29.0880127,30.0517998-20.1149902,0-29.0889893-9.268898-29.0889893-30.0517998,0-10.5351982,2.1589966-17.7062988,6.7940063-22.5584984,4.7550049-4.9729004,11.8379517-7.2919998,22.2949829-7.2919998ZM249.6369934,91.4150009h-12.2070007v-56.4111023h12.2070007v56.4111023ZM284.2730103,44.0049019h-6.8880005c-4.4470215,0-6.0500183,1.3205986-6.8680115,2.3125-1.3890076,1.6821976-2.0589905,4.5509987-2.0589905,8.7665977v36.3310013h-11.8179932v-37.5107002h.0059814c0-13.8731003,7.1700134-21.2118988,20.7390137-21.2118988h6.8880005v11.3125ZM391,44.0049019h-21.4710083c-10.3549805.0000992-13.3459778,4.0484962-13.3459778,18.0487976,0,14.3353996,2.742981,18.0488014,13.3459778,18.0488014h22.0200195v11.3125h-22.0200195c-22.3479919-.0000992-25.3589783-14.844902-25.3589783-29.3613014,0-13.6718979,2.8839722-29.3611984,25.3589783-29.3612976h21.4710083v11.3125ZM602.3889771,72.0663986c0,6.6883011,2.5140381,8.0360031,6.5650024,8.0361023h18.1500244v-47.410099h11.8179932v55.5223961c0,1.1202011,0,1.680603-.2180176,2.1083984-.1919556.3763046-.4979858.6823044-.8739624.8741074-.4280396.2179947-.9880371.2176971-2.1080322.2176971h-26.7680054c-15.197998-.0001984-18.3839722-10.5222015-18.3839722-19.3486023v-39.3739967h11.8189697v39.3739967ZM518.3889771,91.4141006h-11.8189697V16.0039005h11.8189697v75.4102001ZM696,88.2138977c0,1.1201019,0,1.6805038-.2180176,2.1084061-.1919556.3761978-.4979858.6822968-.8739624.8739929-.4280396.2180023-.9880371.217804-2.1080322.217804h-21.5209961c-21.0460205-.0001984-25.3590088-11.7352982-25.3590088-29.3614006,0-10.0325012,1.5560303-16.593399,5.0369873-21.2645988,4.0580444-5.4487,10.7110596-8.0965996,20.3220215-8.0967026h12.9089966v-16.6874981h11.8120117v72.2099972ZM200.1580048,16.0098c13.8099976,0,30.269989,6.4738998,30.269989,37.3095016,0,25.2729988-9.8529968,38.0936012-29.2829895,38.0937996h-33.9450073c-1.1199951,0-1.6799927.0001984-2.1080017-.217804-.3759918-.1916962-.6819916-.4977951-.8739929-.8740005-.2180023-.4277954-.2180023-.9882965-.2180023-2.1083984V19.2031002c0-1.1201,0-1.6805.2180023-2.1084003.1920013-.3761997.4980011-.6823006.8739929-.8740005.428009-.2179985.9880066-.2178001,2.1080017-.2178001h32.9580078v.0069008ZM499,16.0039005v11.4130993l-29.5010071-.0039005c-14.2929993.0001011-20.1210022,7.6205997-20.1210022,26.2920017,0,18.9196014,5.3930054,26.2919998,19.2360229,26.2919998h30.9529724v11.4131012h-31.0529785c-20.9330139,0-31.5440063-12.6866989-31.5440063-37.705101,0-11.4067001,2.071991-19.9383011,6.3439941-26.0840015,5.3590088-7.7138996,14.1660156-11.6210003,26.1849976-11.6210995l29.5010071.0039005ZM416.0230103,32.6913986h13.9519958v11.3135033h-13.9519958v29.0389977c0,5.959404,1.4230042,7.0508041,6.8619995,7.0508041h7.0829773v11.3134995h-8.2630005c-17.4989929,0-17.4989929-11.9363022-17.4989929-19.8379059v-27.5653954h-8.1560059v-11.3135033h8.1560059v-16.6874981h11.8170166v16.6874981ZM313.4249878,32.1016006c16.6060181.0000992,25.7480164,8.2304993,25.7480164,23.1757011,0,5.5357971-1.2279968,11.8886986-10.8190002,11.8886986h-28.4779968c.6569824,11.2726974,4.7890015,12.9287033,9.2229919,12.9287033h28.8930054v11.3125h-28.8930054c-21.32901,0-21.32901-21.8014069-21.32901-28.9658051,0-14.9989967,3.052002-30.339798,25.6549988-30.339798ZM554.4790039,43.4141006c-13.2470093,0-17.0770264,4.0081978-17.0770264,18.5379982,0,14.5299034,3.8300171,18.732502,17.0770264,18.732502,13.2459717,0,17.0759888-4.3499985,17.0759888-18.732502,0-14.3824005-3.8300171-18.5379982-17.0759888-18.5379982ZM671.2719727,43.9980011c-10.6029663.0000992-13.3459473,3.7136002-13.3459473,18.0489006,0,15.6819954,3.0039673,18.047802,13.3459473,18.047802h12.9100342v-36.0898018h-12.9100342v-.0069008ZM176.0059967,79.9932022h24.1520081c13.0189972-.0000992,17.8619995-7.2316055,17.8619995-26.6807022-.0010071-18.6380005-5.2860107-25.8964996-18.8480072-25.8964996h-23.1660004v52.5772018ZM54,42c6.6273994,0,12,5.3726006,12,12s-5.3726006,12-12,12-12-5.3726006-12-12,5.3726006-12,12-12ZM313.5190125,43.4141006c-8.4720154,0-12.9049988,1.9575005-13.6289978,12.4393997h27.269989c-.0740051-9.4095001-3.427002-12.4393997-13.6409912-12.4393997ZM249.6369934,29.0039005h-12.2070007v-13h12.2070007v13Z"/></svg>