<?xml version="1.0" standalone="no"?>
<!DOCTYPE svg PUBLIC "-//W3C//DTD SVG 20010904//EN"
 "http://www.w3.org/TR/2001/REC-SVG-20010904/DTD/svg10.dtd">
<svg version="1.0" xmlns="http://www.w3.org/2000/svg"
 width="2400.000000pt" height="2400.000000pt" viewBox="0 0 2400.000000 2400.000000"
 preserveAspectRatio="xMidYMid meet">
<g transform="translate(0.000000,2400.000000) scale(0.100000,-0.100000)"
fill="#000000" stroke="none">
<path d="M0 12000 l0 -12000 12000 0 12000 0 0 12000 0 12000 -12000 0 -12000
0 0 -12000z m19490 5040 c140 -12 280 -28 311 -35 31 -8 72 -15 90 -15 34 0
162 -27 286 -60 40 -11 80 -20 88 -20 9 0 41 -8 73 -19 31 -10 98 -31 147 -46
50 -16 95 -31 100 -35 6 -4 36 -15 67 -24 31 -9 60 -21 63 -26 3 -6 13 -10 20
-10 14 0 153 -61 220 -96 17 -9 57 -30 90 -47 33 -17 64 -37 68 -44 4 -7 15
-13 24 -13 9 0 68 -35 132 -77 164 -110 249 -179 420 -344 88 -85 221 -256
272 -351 15 -27 43 -64 62 -83 23 -23 39 -49 43 -73 4 -20 15 -53 24 -72 10
-19 27 -55 38 -80 11 -25 29 -66 41 -92 12 -26 21 -55 21 -65 0 -11 4 -23 9
-29 5 -5 21 -40 35 -79 15 -38 36 -92 46 -120 11 -27 25 -75 31 -105 6 -30 18
-63 26 -72 11 -13 14 -31 10 -65 -4 -32 1 -66 13 -103 10 -30 21 -80 24 -110
4 -30 14 -82 21 -115 8 -33 19 -107 25 -165 5 -58 15 -130 21 -160 12 -66 28
-1058 17 -1081 -11 -24 -46 -28 -186 -17 -139 10 -2030 4 -2099 -7 -56 -9 -63
6 -50 113 15 116 -18 618 -48 732 -7 30 -17 82 -21 115 -3 33 -12 71 -19 85
-7 14 -15 45 -19 70 -4 25 -16 65 -28 90 -11 25 -27 59 -34 75 -102 236 -219
380 -367 455 -23 11 -49 25 -57 30 -24 14 -178 56 -270 74 -238 46 -713 6
-870 -73 -215 -108 -359 -227 -440 -364 -17 -28 -36 -61 -42 -72 -7 -11 -20
-32 -30 -46 -9 -15 -20 -40 -24 -55 -4 -16 -13 -40 -20 -54 -30 -55 -77 -213
-99 -330 -8 -41 -18 -89 -23 -106 -5 -17 -13 -60 -17 -95 -4 -35 -12 -75 -17
-89 -83 -215 -117 -2544 -43 -2975 7 -44 16 -116 20 -160 3 -44 12 -102 20
-130 7 -27 17 -75 21 -105 3 -30 11 -66 16 -80 6 -14 16 -56 24 -95 24 -122
54 -221 111 -364 68 -173 236 -385 373 -471 103 -66 86 -57 175 -95 62 -27
162 -54 235 -64 41 -6 104 -15 140 -21 83 -12 376 -13 399 -1 9 5 55 14 101
21 220 29 437 158 600 356 56 69 158 297 185 418 8 32 18 70 24 85 9 24 20 98
42 291 4 41 8 125 8 186 1 111 10 138 41 119 4 -3 521 -5 1148 -5 628 0 1143
-4 1145 -8 10 -16 -14 -652 -28 -732 -7 -47 -17 -125 -20 -175 -4 -49 -13
-112 -20 -140 -7 -27 -16 -79 -20 -115 -4 -36 -13 -79 -20 -96 -7 -17 -16 -55
-20 -85 -4 -30 -14 -66 -21 -81 -8 -15 -14 -37 -14 -50 -1 -13 -8 -41 -16 -63
-9 -22 -20 -60 -26 -85 -6 -25 -16 -54 -24 -65 -7 -11 -16 -37 -19 -58 -4 -20
-11 -39 -15 -42 -5 -3 -14 -22 -20 -43 -18 -57 -145 -310 -190 -377 -22 -33
-44 -69 -50 -80 -27 -53 -159 -214 -265 -321 -93 -95 -294 -264 -313 -264 -5
0 -22 -11 -38 -25 -16 -14 -32 -25 -36 -25 -4 0 -27 -14 -50 -31 -89 -63 -132
-89 -149 -89 -9 0 -22 -6 -28 -14 -7 -8 -25 -18 -41 -21 -16 -3 -34 -12 -40
-20 -6 -8 -26 -17 -43 -21 -18 -3 -43 -12 -57 -20 -37 -19 -121 -54 -132 -54
-5 0 -28 -8 -51 -19 -23 -10 -58 -22 -77 -26 -19 -4 -46 -13 -60 -20 -14 -7
-45 -16 -70 -20 -25 -4 -56 -13 -70 -20 -14 -7 -45 -16 -70 -20 -25 -4 -65
-13 -90 -21 -57 -17 -188 -42 -305 -59 -49 -7 -108 -17 -130 -23 -22 -6 -107
-16 -190 -22 -82 -6 -186 -15 -230 -21 -114 -13 -831 -13 -940 1 -49 6 -155
17 -235 24 -80 8 -156 18 -170 24 -14 5 -59 13 -100 17 -41 4 -86 12 -100 18
-14 5 -56 16 -95 23 -97 18 -194 43 -233 60 -18 7 -50 17 -72 20 -22 4 -43 10
-46 15 -3 5 -24 13 -47 19 -44 12 -121 40 -197 73 -46 19 -56 24 -172 76 -36
17 -69 35 -72 40 -4 5 -31 15 -61 21 -45 9 -57 17 -74 46 -11 19 -25 34 -30
34 -27 0 -265 177 -375 279 -61 57 -192 193 -223 231 -15 20 -37 45 -48 55
-90 90 -425 645 -425 705 0 7 -6 24 -14 38 -35 66 -75 164 -102 252 -7 25 -25
77 -39 115 -15 39 -31 93 -36 120 -5 28 -16 73 -24 100 -23 80 -46 174 -61
253 -7 40 -17 80 -22 90 -5 9 -12 47 -16 84 -3 37 -13 85 -21 108 -8 23 -19
74 -24 113 -13 95 -38 252 -56 357 -8 47 -19 166 -25 265 -6 99 -15 227 -20
285 -13 138 -13 1764 0 1855 5 39 14 160 20 270 6 110 17 234 25 275 7 41 17
116 20 165 4 50 12 117 20 150 7 33 16 94 20 135 4 41 13 93 20 115 7 22 16
69 20 105 4 36 12 76 18 90 5 14 16 57 23 95 15 83 41 188 55 230 6 17 17 55
23 86 7 31 16 61 21 68 4 7 13 34 21 59 31 109 90 271 105 286 5 6 9 16 9 24
0 7 12 39 26 70 14 31 32 71 39 87 8 17 16 62 18 100 3 39 11 86 20 105 8 19
25 60 37 90 30 72 76 168 100 205 11 17 27 43 36 59 64 114 405 496 443 496 4
0 20 10 34 23 14 12 37 30 49 39 13 10 50 38 82 63 33 25 63 45 67 45 5 0 34
17 66 38 125 81 274 159 453 235 168 72 208 87 225 87 9 0 29 6 43 14 53 28
275 91 477 136 28 6 79 17 115 25 36 8 99 19 140 25 41 6 89 15 105 20 17 5
131 16 255 25 124 9 230 18 235 20 37 13 540 3 765 -15z m-11269 -1199 c0
-1114 1 -1093 -41 -1074 -15 7 -2005 21 -2046 15 -11 -2 -32 -13 -45 -25 l-24
-22 5 -3745 c5 -4009 8 -3785 -40 -3764 -22 11 -1800 16 -2049 7 -140 -5 -218
-5 -225 2 -8 7 -10 1043 -6 3755 3 2060 2 3755 -2 3766 -9 30 30 30 -1109 24
-558 -3 -1022 -3 -1032 -1 -16 3 -18 11 -13 65 16 175 18 1764 2 1828 -16 64
-22 218 -9 231 3 4 1498 6 3320 5 l3314 -3 0 -1064z m6762 2 c-2 -587 -6
-1070 -11 -1075 -4 -4 -46 -3 -92 2 -107 13 -1428 11 -1453 -2 -16 -8 -498
-16 -962 -16 -351 0 -630 7 -689 17 -84 14 -466 23 -466 11 -1 -6 -1 -385 -1
-842 l-1 -833 104 0 c115 1 2924 6 2948 5 13 0 15 -117 13 -1002 l-2 -1003
-1348 -3 c-741 -1 -1427 2 -1523 7 -211 10 -205 13 -196 -86 4 -39 7 -907 7
-1929 -1 -1971 1 -1883 -46 -1868 -33 10 -1834 16 -2055 6 -113 -5 -211 -7
-217 -4 -10 3 -13 981 -13 4843 l0 4839 3003 0 3002 0 -2 -1067z m7398 -65 c0
-2 3 -84 5 -182 4 -135 8 -184 19 -200 11 -14 15 -49 15 -118 0 -53 5 -109 10
-124 13 -33 -8 -166 -25 -161 -5 2 -13 42 -18 89 -4 47 -19 127 -33 179 -14
52 -27 110 -29 129 -5 54 -107 244 -133 248 -11 2 -26 10 -32 18 -7 8 -21 14
-32 14 -26 0 -17 25 9 25 10 1 32 10 46 22 15 12 47 25 70 28 23 4 51 14 62
21 16 12 63 20 66 12z m67 -830 c16 -16 15 -65 0 -71 -20 -7 -48 12 -48 33 0
45 23 63 48 38z m-15396 -8886 c8 -8 8 -18 1 -35 -8 -17 -7 -32 3 -56 8 -18
14 -41 14 -50 0 -9 11 -38 25 -66 13 -27 25 -57 25 -66 0 -21 36 -53 49 -44 6
3 11 19 11 34 0 15 7 36 15 47 8 10 15 26 15 34 0 9 9 33 20 55 12 24 20 59
20 92 0 70 -17 64 188 63 127 0 133 -4 111 -67 -15 -45 -14 -344 1 -373 24
-45 14 -57 -52 -63 -84 -7 -115 20 -68 60 30 26 30 331 0 381 -11 17 -22 32
-25 32 -12 0 -86 -110 -91 -138 -4 -17 -12 -37 -20 -43 -7 -6 -16 -26 -20 -45
-3 -18 -12 -38 -20 -45 -8 -6 -14 -18 -14 -26 0 -9 -9 -32 -19 -52 -11 -20
-22 -52 -26 -72 -12 -76 -81 -77 -100 -2 -5 22 -15 46 -21 54 -7 8 -15 30 -19
49 -4 19 -16 46 -26 59 -11 13 -19 33 -19 43 0 11 -9 31 -20 45 -11 14 -20 35
-20 47 0 20 -53 86 -69 86 -20 0 -29 47 -13 65 19 19 144 17 164 -3z m1353 8
c23 -9 26 -14 23 -52 -3 -48 -2 -47 -104 -33 -67 10 -84 -6 -84 -81 0 -70 29
-90 85 -60 44 24 65 16 65 -26 0 -50 -13 -65 -43 -49 -13 7 -41 11 -63 9 l-39
-3 0 -63 c-1 -72 8 -82 72 -82 42 0 53 6 69 35 31 56 76 13 50 -48 -20 -49
-28 -52 -161 -49 -143 4 -163 13 -127 61 32 44 33 304 1 370 -31 65 -25 70 93
74 57 1 111 4 120 5 9 1 29 -2 43 -8z m440 -15 c158 -84 196 -265 86 -412 -14
-18 -30 -33 -37 -33 -7 0 -17 -7 -22 -16 -35 -62 -215 -55 -294 11 -71 60 -83
89 -83 210 l0 110 40 52 c22 29 51 57 65 63 14 6 36 17 50 25 41 24 141 19
195 -10z m582 -9 c126 -68 78 -260 -68 -268 l-54 -3 -3 -59 c-3 -49 1 -65 19
-89 l22 -30 -23 -19 c-16 -13 -32 -17 -55 -12 -19 3 -35 1 -39 -5 -12 -19 -32
-12 -47 15 -12 24 -12 28 9 44 35 29 39 356 4 393 -27 29 -21 55 16 59 56 6
188 -9 219 -26z m865 9 c107 -57 138 -111 138 -241 0 -91 -2 -102 -28 -140
-47 -71 -111 -114 -168 -114 -13 0 -33 -5 -44 -12 -15 -10 -26 -9 -55 5 -20 9
-42 17 -50 17 -8 0 -20 8 -27 18 -7 9 -25 25 -40 35 -72 46 -102 205 -57 304
60 133 212 191 331 128z m497 -8 c62 -29 118 -91 131 -147 6 -25 14 -56 17
-68 16 -67 -45 -183 -124 -235 l-45 -31 -146 2 c-163 3 -171 6 -141 61 29 54
28 319 -1 376 -28 55 -16 64 88 68 119 4 169 -1 221 -26z m316 12 c6 -6 3 -19
-7 -37 -16 -27 -23 -126 -19 -262 3 -93 28 -123 107 -126 84 -3 113 28 115
123 3 152 -3 238 -19 265 -23 39 -5 53 64 52 67 0 80 -11 59 -50 -11 -22 -15
-63 -15 -166 0 -199 -34 -264 -155 -303 -52 -16 -57 -16 -103 2 -114 43 -138
93 -145 300 -3 108 -8 148 -20 167 -20 30 -8 43 48 48 45 5 75 0 90 -13z m722
-11 c45 -30 60 -65 48 -118 -9 -42 -40 -40 -59 3 -10 24 -27 37 -69 55 l-55
24 -54 -25 c-96 -44 -129 -130 -90 -238 35 -95 61 -114 147 -112 89 2 106 17
159 131 11 23 21 32 33 30 24 -4 31 -102 10 -127 -8 -9 -18 -26 -21 -38 -4
-13 -14 -23 -21 -23 -8 0 -19 -9 -25 -20 -6 -11 -20 -20 -31 -20 -11 0 -34 -7
-51 -16 -68 -35 -173 9 -273 116 -24 26 -35 206 -15 250 30 68 79 118 150 152
38 19 174 3 217 -24z m488 12 c9 -8 15 -8 20 0 10 15 144 13 151 -3 3 -8 -4
-35 -15 -60 -25 -58 -21 -333 5 -373 30 -45 4 -63 -78 -56 -65 5 -80 23 -48
57 27 29 31 339 4 380 -19 30 -34 32 -34 6 0 -36 -24 -44 -78 -25 -82 29 -82
30 -82 -169 0 -143 3 -177 15 -187 43 -36 2 -70 -86 -70 -59 0 -72 18 -46 62
14 24 17 58 17 188 0 209 1 207 -86 169 -46 -19 -49 -19 -61 -3 -17 24 -16 81
1 91 22 12 385 6 401 -7z m565 5 c14 -8 32 -17 40 -21 22 -11 65 -59 91 -101
34 -54 33 -203 -1 -259 -28 -47 -99 -113 -121 -114 -9 0 -35 -6 -57 -14 -36
-13 -48 -13 -99 1 -58 16 -153 82 -153 107 0 6 -9 28 -20 49 -53 98 4 287 100
331 8 4 26 13 40 21 15 9 51 15 90 15 39 0 75 -6 90 -15z m670 0 c12 -14 5
-55 -10 -55 -20 0 -28 -70 -26 -236 2 -200 2 -204 -26 -204 -21 0 -43 21 -138
130 -104 121 -173 191 -184 187 -22 -7 -8 -239 16 -258 28 -22 19 -51 -20 -63
-66 -19 -132 27 -87 60 15 11 17 37 19 220 1 186 3 208 19 218 15 9 22 5 45
-24 63 -82 247 -275 265 -278 30 -6 23 186 -9 245 -20 38 -21 45 -8 58 21 20
127 21 144 0z m574 -10 c48 -28 66 -59 66 -111 0 -48 -23 -54 -56 -14 -15 17
-52 43 -83 56 l-55 25 -55 -28 c-119 -61 -137 -215 -37 -320 36 -38 166 -34
206 7 17 17 30 39 30 50 0 50 34 68 58 30 35 -57 -39 -172 -121 -186 -20 -4
-40 -11 -43 -15 -32 -52 -264 83 -264 153 0 13 -7 33 -15 44 -16 22 -21 129
-5 139 5 3 14 23 20 43 34 125 234 197 354 127z m483 0 c63 -38 93 -72 119
-137 83 -204 -96 -419 -297 -357 -143 45 -201 156 -175 334 8 53 111 169 157
178 75 14 153 7 196 -18z m2221 9 c10 -3 12 -13 7 -35 -9 -38 41 -151 65 -146
25 4 72 107 65 144 -7 41 13 53 90 53 57 0 95 -12 95 -30 0 -15 -62 -69 -87
-76 -12 -3 -24 -17 -28 -32 -4 -15 -15 -35 -26 -45 -10 -10 -19 -24 -19 -31 0
-8 -6 -16 -13 -19 -41 -16 -46 -159 -9 -236 28 -57 25 -60 -55 -54 -93 7 -127
38 -83 76 42 35 19 193 -35 237 -8 6 -17 24 -20 40 -7 30 -96 120 -119 120
-26 0 -30 -35 -31 -250 l-1 -215 -29 2 c-21 2 -39 14 -60 40 -16 21 -73 85
-125 143 -52 58 -101 113 -109 123 -27 31 -31 19 -31 -107 0 -99 3 -126 16
-136 8 -8 14 -25 12 -39 -4 -30 -43 -39 -103 -22 -21 6 -59 6 -96 1 -85 -12
-110 -1 -109 47 3 102 -16 125 -97 121 -67 -3 -83 -23 -93 -113 -6 -57 -30
-73 -93 -61 -50 9 -53 30 -13 78 19 22 37 52 41 66 4 15 12 34 19 42 8 8 16
28 20 44 4 16 16 41 27 54 10 14 19 37 19 51 0 15 6 35 14 46 7 11 16 37 20
57 14 78 86 80 99 3 5 -27 15 -57 23 -66 8 -8 14 -22 14 -30 0 -8 9 -32 20
-54 11 -22 20 -44 20 -50 0 -6 8 -26 19 -45 10 -19 22 -50 25 -68 7 -30 59
-82 82 -82 32 0 50 225 29 362 -10 63 0 98 26 98 21 0 29 -7 132 -123 38 -42
90 -100 117 -129 27 -29 50 -56 50 -60 0 -5 7 -8 16 -8 25 0 17 240 -10 269
-22 25 -15 48 16 53 29 4 279 -2 296 -8z m-8876 -16 c184 -93 192 -347 15
-463 -23 -15 -52 -18 -172 -19 -164 -1 -181 5 -152 53 24 40 25 333 2 388 -26
61 -21 63 129 63 119 0 141 -3 178 -22z m1836 1 c45 -27 82 -80 82 -120 0 -31
-45 -119 -60 -119 -23 0 -20 -42 4 -73 65 -81 80 -96 108 -108 49 -20 35 -53
-24 -57 -41 -3 -50 1 -79 29 -33 33 -79 94 -79 107 -2 20 -60 74 -74 69 -19
-8 -11 -120 10 -152 31 -45 1 -67 -80 -58 -54 7 -67 24 -40 54 27 30 29 375 2
402 -35 36 -13 47 94 47 83 0 105 -3 136 -21z m5120 -4 c2 -11 13 -39 23 -62
10 -23 19 -45 19 -49 0 -7 13 -37 67 -153 l29 -63 27 39 c15 21 27 48 27 60 0
11 9 32 20 46 11 14 20 33 20 42 0 9 6 29 14 43 8 15 17 38 20 52 3 14 20 36
37 49 48 35 55 18 63 -151 7 -147 30 -266 53 -275 7 -3 13 -14 13 -24 0 -23
-30 -32 -91 -27 -40 3 -44 5 -41 28 5 38 2 192 -4 213 -10 33 -54 4 -54 -37 0
-13 -9 -31 -20 -41 -11 -10 -20 -29 -20 -42 0 -38 -48 -123 -68 -123 -18 0
-52 60 -68 120 -3 14 -12 32 -19 40 -7 8 -15 27 -19 42 -3 15 -17 39 -30 53
l-24 26 -7 -66 c-4 -36 -4 -99 0 -140 8 -84 -4 -96 -76 -78 -43 11 -47 34 -15
67 17 16 26 36 26 58 0 70 20 274 29 298 5 14 12 38 16 53 7 34 47 35 53 2z
m720 6 c140 -72 95 -270 -60 -271 l-58 0 0 -69 c0 -49 4 -72 15 -81 45 -37 -2
-73 -81 -62 -54 8 -68 30 -39 62 26 28 18 359 -9 389 -10 11 -16 27 -13 36 10
24 195 21 245 -4z"/>
<path d="M18980 16709 c-118 -4 -229 -8 -246 -8 -17 0 -63 -5 -104 -11 -51 -7
-76 -7 -85 0 -17 14 -316 -28 -330 -46 -23 -30 -89 -37 -120 -13 -6 4 -17 4
-25 -1 -8 -6 -27 -10 -41 -10 -14 0 -34 -7 -45 -15 -10 -8 -35 -15 -54 -15
-38 0 -99 -19 -121 -36 -8 -6 -34 -14 -59 -17 -24 -3 -46 -11 -48 -16 -2 -6
-23 -11 -46 -11 -48 0 -103 -16 -127 -36 -8 -8 -22 -14 -31 -14 -8 0 -27 -9
-41 -20 -14 -11 -40 -20 -61 -20 -20 0 -38 -6 -43 -14 -13 -23 -82 -66 -106
-66 -12 0 -44 -11 -72 -25 -27 -13 -75 -36 -105 -50 -30 -15 -62 -30 -70 -34
-104 -53 -168 -81 -181 -81 -22 0 -107 -92 -115 -124 -8 -32 -31 -46 -75 -46
-28 0 -45 -12 -116 -87 -46 -49 -108 -113 -138 -143 -30 -31 -55 -63 -55 -73
0 -10 -11 -22 -25 -27 -19 -7 -26 -19 -31 -49 -4 -27 -14 -46 -31 -56 -18 -12
-23 -23 -20 -37 3 -11 -1 -31 -9 -43 -8 -12 -16 -40 -18 -63 -2 -22 -11 -48
-20 -57 -9 -9 -17 -24 -18 -33 0 -9 -2 -29 -3 -44 -1 -14 -9 -34 -18 -43 -10
-9 -18 -33 -18 -53 -3 -83 -6 -93 -28 -108 -14 -10 -21 -23 -18 -35 3 -10 -4
-28 -14 -40 -10 -12 -20 -29 -20 -38 -1 -9 -2 -28 -3 -42 -1 -15 -10 -34 -19
-43 -9 -10 -18 -25 -19 -34 0 -9 -2 -29 -3 -44 -1 -14 -9 -34 -18 -43 -10 -9
-18 -24 -19 -33 0 -9 -2 -29 -3 -44 -1 -14 -9 -34 -18 -43 -10 -9 -18 -24 -19
-33 0 -9 -2 -29 -3 -44 -1 -14 -9 -33 -18 -42 -18 -18 -31 -86 -23 -114 4 -11
-2 -28 -14 -42 -19 -22 -23 -44 -24 -146 -1 -24 -8 -47 -18 -57 -20 -21 -33
-94 -24 -140 5 -25 1 -39 -13 -56 -23 -27 -36 -96 -27 -144 5 -26 1 -39 -14
-57 -19 -22 -22 -39 -25 -142 -1 -20 -8 -44 -15 -53 -24 -29 -30 -114 -8 -121
29 -9 22 -34 -9 -34 -46 0 -73 -33 -73 -87 0 -21 -9 -36 -30 -51 -33 -25 -41
-66 -14 -76 26 -10 89 -7 101 5 6 6 26 14 44 19 51 13 181 59 209 74 14 8 60
21 103 30 44 9 96 25 117 36 21 11 69 22 106 26 41 4 73 13 79 21 7 10 26 13
60 11 56 -3 77 -28 23 -28 -52 0 -62 -12 -54 -59 7 -47 -14 -68 -37 -37 -18
25 -50 10 -43 -20 3 -12 2 -25 -3 -28 -14 -9 -41 4 -41 20 0 16 -10 17 -64 4
-22 -5 -43 -15 -48 -24 -5 -8 -30 -18 -56 -22 -26 -4 -56 -13 -67 -20 -11 -8
-29 -14 -41 -14 -36 0 -55 -11 -65 -37 -5 -13 -24 -30 -41 -38 -18 -7 -44 -25
-58 -40 -14 -15 -41 -35 -61 -46 -24 -12 -39 -28 -44 -46 -3 -15 -17 -39 -29
-53 -13 -14 -36 -48 -52 -77 -30 -55 -31 -50 12 -136 14 -29 12 -44 -23 -172
-13 -49 -13 -50 12 -71 26 -20 26 -20 6 -38 -27 -24 -18 -36 25 -36 56 0 80
-17 59 -40 -12 -13 -15 -27 -11 -45 5 -18 1 -34 -14 -52 -23 -29 -26 -53 -8
-71 9 -9 9 -17 -1 -35 -7 -14 -11 -53 -10 -98 4 -114 -11 -259 -32 -306 -31
-69 -26 -89 24 -83 25 2 48 -56 34 -87 -7 -16 -7 -34 1 -62 7 -21 12 -50 12
-65 0 -19 5 -26 19 -26 10 0 29 -8 42 -18 13 -11 41 -20 63 -20 46 -2 66 -16
63 -45 -2 -20 3 -22 50 -22 59 0 84 -15 64 -39 -16 -19 -109 -11 -166 14 -60
26 -68 28 -97 19 -21 -6 -32 -2 -53 17 -72 66 -112 7 -55 -82 16 -26 27 -51
24 -56 -5 -7 -4 -225 1 -451 1 -37 7 -73 13 -79 17 -17 15 -108 -2 -122 -10
-8 -12 -30 -8 -83 4 -69 6 -73 28 -73 28 0 33 -39 12 -97 -10 -27 -10 -38 0
-53 17 -28 15 -40 -7 -40 -11 0 -22 -4 -25 -8 -7 -11 42 -112 54 -112 5 0 14
-18 20 -39 6 -22 21 -46 34 -55 13 -8 36 -40 50 -70 23 -48 30 -55 58 -58 25
-2 32 -7 30 -20 -3 -18 61 -82 136 -136 25 -17 60 -47 77 -65 51 -52 83 -75
115 -82 34 -7 40 -30 10 -40 -28 -9 -91 11 -141 45 -24 16 -54 30 -66 30 -13
0 -30 11 -39 25 -9 14 -23 25 -32 25 -8 0 -51 22 -96 49 -81 48 -156 73 -156
51 0 -18 29 -68 41 -72 7 -2 14 -17 16 -33 11 -92 16 -115 30 -126 13 -11 12
-15 -8 -29 -27 -21 -19 -35 29 -55 41 -18 163 -39 205 -36 126 7 195 5 210 -8
25 -20 21 -48 -10 -68 -16 -10 -32 -23 -36 -30 -4 -7 -24 -13 -42 -13 -47 0
-50 34 -5 44 37 7 39 23 4 32 -20 5 -31 2 -43 -14 -10 -14 -30 -22 -56 -24
-46 -3 -67 -38 -23 -38 46 0 51 -11 49 -118 -2 -92 0 -102 18 -114 13 -8 21
-23 21 -40 0 -17 8 -33 20 -40 11 -7 20 -24 20 -38 0 -35 96 -130 130 -130 15
0 31 -9 38 -21 11 -18 20 -21 54 -16 33 4 43 1 61 -19 l21 -24 562 0 c562 0
563 0 578 21 14 21 20 21 277 20 l262 -1 33 32 c29 29 36 58 13 58 -5 0 -25
18 -45 40 -26 29 -44 40 -65 40 -25 0 -29 4 -29 28 0 23 -7 32 -40 48 -44 21
-290 260 -290 281 0 30 -62 134 -85 145 -14 6 -25 17 -25 25 0 7 -9 21 -20 30
-11 10 -20 27 -20 38 0 27 -18 45 -47 45 -26 0 -43 26 -43 67 0 45 -9 49 -109
51 -98 2 -121 10 -121 45 0 25 59 80 78 72 8 -3 21 0 28 6 27 22 12 239 -16
239 -6 0 -10 29 -10 65 0 52 -5 72 -22 96 -20 26 -22 42 -22 145 -1 99 -3 117
-18 125 -22 12 -23 27 -3 50 36 39 -9 91 -72 82 -53 -8 -41 45 25 112 12 12
22 31 22 41 0 11 9 27 20 37 25 21 26 63 3 76 -20 11 -21 94 -3 117 15 17 21
106 9 125 -8 12 -11 12 -22 -2 -6 -8 -21 -27 -32 -40 -34 -42 -99 -47 -136
-10 -43 43 -44 156 -1 172 38 15 100 3 140 -28 30 -22 36 -24 49 -11 21 21 7
85 -22 104 -33 22 -37 39 -14 68 24 31 45 33 52 6 7 -26 27 -26 27 0 0 32 -36
95 -77 135 -29 28 -34 38 -24 48 10 9 16 7 30 -12 39 -51 47 -25 45 134 -2 81
-5 150 -8 153 -3 3 -6 23 -6 44 0 23 -7 46 -16 55 -9 9 -13 25 -10 37 3 12 6
71 7 131 0 61 5 117 9 125 12 23 18 157 8 172 -7 10 -11 9 -23 -7 -9 -11 -31
-37 -50 -57 -19 -21 -35 -46 -35 -56 0 -10 -5 -23 -12 -30 -7 -7 -12 -24 -13
-40 0 -22 -5 -28 -29 -30 l-29 -4 6 62 c3 35 12 69 21 79 41 46 48 211 10 266
-23 35 -26 47 -27 157 -2 97 -5 122 -18 131 -9 7 -19 22 -23 34 -4 12 -16 25
-27 28 -34 11 -12 85 25 85 24 0 107 -106 121 -155 9 -29 22 -59 30 -65 8 -7
17 -27 21 -46 7 -36 62 -90 77 -75 4 4 2 36 -3 72 -10 57 -19 117 -35 226 -2
18 3 49 11 69 16 37 12 84 -6 84 -6 0 -10 22 -10 50 0 39 -4 53 -20 62 -31 20
-24 54 20 100 40 42 47 66 40 146 -1 13 5 31 13 40 71 84 90 172 42 194 -31
14 -32 28 -4 52 16 13 20 25 16 49 -2 18 2 45 10 61 9 17 13 41 9 58 -3 17 0
41 8 56 8 15 17 63 20 107 4 43 11 84 15 90 5 5 16 55 26 110 9 58 22 105 31
111 27 21 17 82 -19 119 -33 34 -57 33 -57 -2 0 -26 -88 -3 -128 34 -51 47
-67 41 -68 -27 -1 -30 -6 -75 -12 -100 -15 -63 -15 -345 0 -369 9 -16 8 -27
-7 -60 -19 -44 -15 -74 21 -158 7 -18 11 -40 7 -49 -4 -10 1 -22 12 -30 13
-10 16 -21 11 -45 -5 -24 -1 -38 19 -61 54 -64 34 -76 -107 -65 -102 8 -120 7
-150 -8 -22 -11 -61 -18 -120 -20 -61 -1 -95 -7 -113 -19 -13 -9 -46 -19 -72
-22 -57 -8 -141 -47 -165 -77 -31 -38 -35 -7 -42 291 -3 158 -9 353 -12 435
-7 154 0 187 42 187 8 0 28 9 46 20 18 11 40 20 49 20 9 0 22 6 28 14 7 8 24
17 39 21 15 4 34 12 42 20 8 7 26 16 40 20 14 4 32 13 40 20 8 7 26 16 40 20
14 4 52 27 85 49 102 71 240 132 330 145 44 7 107 21 140 31 34 10 88 21 120
25 33 4 69 12 80 18 21 11 56 19 164 37 62 10 136 45 161 75 7 8 29 15 50 15
65 0 79 48 15 51 -11 0 -29 4 -40 9 -19 7 -19 8 5 18 53 21 90 24 90 9 0 -8 6
-20 14 -26 24 -20 49 14 41 58 -7 41 37 91 78 91 10 0 37 18 59 39 24 24 46
37 55 34 9 -3 25 5 39 20 15 16 30 24 40 20 10 -4 25 4 41 21 20 22 31 26 53
21 32 -7 107 10 112 26 2 5 56 12 128 15 97 3 128 8 143 21 15 14 22 15 37 5
11 -6 59 -15 107 -18 51 -4 92 -12 98 -19 6 -7 37 -15 70 -19 33 -4 73 -8 89
-10 29 -4 46 -20 46 -43 0 -44 49 -46 335 -12 50 6 137 12 195 13 81 2 111 6
132 20 49 32 262 52 308 29 30 -15 40 0 16 26 -15 17 -12 19 61 40 128 35 184
48 258 59 69 10 109 18 232 49 167 41 257 -13 224 -132 -12 -45 -1 -66 24 -45
19 16 45 -3 45 -33 0 -12 11 -37 23 -56 13 -20 31 -48 41 -63 9 -16 32 -34 51
-42 19 -8 35 -21 35 -29 0 -8 12 -23 27 -32 24 -16 25 -19 10 -30 -24 -18 -21
-27 20 -70 l37 -39 1 -93 c0 -82 2 -93 18 -93 23 0 37 38 25 72 -11 31 -7 73
6 73 5 0 14 -15 21 -34 14 -43 128 -93 168 -74 57 27 117 43 164 43 28 0 64 7
79 15 16 8 36 15 45 15 24 0 108 31 115 42 4 6 -3 18 -15 28 l-23 16 41 13
c49 14 51 25 11 46 -21 11 -30 23 -30 41 0 14 -11 35 -23 47 -13 12 -32 44
-42 70 -10 26 -26 53 -35 60 -9 7 -30 32 -46 57 -16 25 -39 55 -51 67 -13 12
-23 31 -23 42 0 34 -11 51 -35 51 -27 0 -42 16 -47 50 -2 18 -12 28 -35 35
-18 6 -48 28 -67 49 -37 39 -54 40 -86 2 -7 -9 -18 -16 -26 -16 -7 0 -19 -6
-26 -14 -8 -8 -37 -16 -64 -19 -27 -3 -85 -10 -129 -15 -225 -28 -221 -29
-186 17 16 20 30 25 82 29 35 2 97 15 138 28 40 13 88 24 106 24 18 0 38 7 45
15 9 11 25 13 64 9 45 -6 55 -3 81 19 17 13 56 32 88 41 69 20 72 36 15 72
-24 15 -45 31 -46 36 -2 5 -21 18 -43 28 -21 11 -39 25 -39 31 0 5 -15 16 -32
24 -18 7 -62 43 -98 79 -35 36 -78 71 -95 78 -16 6 -68 49 -115 96 -80 78 -87
83 -118 77 -29 -5 -38 -1 -81 42 -87 87 -111 104 -132 98 -13 -4 -28 0 -40 11
-26 23 -87 47 -121 46 -18 -1 -32 7 -43 24 -15 23 -21 24 -60 18 -48 -7 -47
-7 -59 49 -5 22 -12 27 -36 27 -16 0 -32 4 -35 10 -3 5 -28 12 -55 16 -27 4
-55 13 -61 20 -6 8 -15 14 -20 14 -4 0 -20 5 -36 11 -15 7 -40 11 -56 10 -15
-2 -48 7 -73 19 -24 12 -54 20 -65 17 -11 -3 -27 2 -36 11 -13 13 -35 17 -94
17 -64 0 -82 4 -108 22 -21 17 -38 21 -59 17 -20 -4 -43 1 -73 17 -40 21 -57
23 -199 24 -85 0 -162 4 -170 9 -19 13 -129 14 -390 5z m2548 -1260 c-2 -6 -7
-10 -11 -10 -4 1 -25 1 -47 1 -22 0 -40 5 -40 10 0 6 23 10 51 10 32 0 49 -4
47 -11z m-5101 -2595 c2 -51 -8 -67 -44 -68 l-28 -1 -3 -167 c-2 -162 -9 -192
-32 -149 -11 21 -12 265 -2 346 6 44 10 50 30 50 13 0 28 9 34 18 18 32 43 16
45 -29z m4 -469 c3 -17 14 -43 23 -60 30 -56 2 -79 -41 -32 -28 29 -32 130 -5
125 9 -2 19 -17 23 -33z m-570 -49 c29 -27 48 -36 74 -36 23 0 38 -6 42 -16 3
-8 16 -20 29 -25 13 -4 24 -13 24 -19 0 -16 -31 -12 -52 7 -12 10 -41 18 -77
21 -60 4 -151 66 -151 102 0 24 69 3 111 -34z m676 -123 c9 -24 53 -67 77 -76
15 -6 17 -10 7 -20 -9 -9 -15 -9 -29 1 -9 7 -36 22 -60 33 -30 14 -42 25 -38
36 3 8 6 21 6 29 0 20 29 17 37 -3z m-392 -184 c7 -33 -5 -56 -24 -45 -6 4
-11 23 -11 42 0 44 26 46 35 3z m62 -128 c24 -52 29 -109 17 -181 -11 -67 -44
-80 -44 -16 0 17 -6 38 -12 45 -16 15 -18 182 -3 193 16 12 19 10 42 -41z
m1017 -96 c10 -27 -16 -71 -36 -59 -10 6 -11 58 -1 67 11 12 31 8 37 -8z
m-636 -105 c-1 -51 11 -78 31 -66 6 4 11 14 11 22 0 9 6 14 13 12 35 -12 -5
-148 -44 -148 -28 0 -79 53 -79 83 0 13 -3 44 -6 69 -7 51 11 78 51 78 22 0
24 -4 23 -50z m440 -98 c-4 -103 -19 -122 -77 -94 -47 23 -67 79 -50 140 14
52 24 59 51 35 20 -18 21 -17 36 5 28 42 43 10 40 -86z m-962 -197 c1 -5 -13
-23 -32 -38 -43 -36 -62 -12 -23 29 23 24 50 29 55 9z m752 -67 c22 -19 15
-92 -12 -117 -28 -27 -73 -26 -68 1 1 10 -4 31 -13 48 -26 50 -12 79 38 78 23
0 48 -5 55 -10z m-291 -45 c19 -25 17 -128 -3 -147 -46 -47 -114 26 -114 123
0 50 86 68 117 24z m335 -378 c11 -87 11 -97 -6 -114 -14 -13 -20 -10 -54 27
-22 23 -48 42 -59 42 -25 0 -33 17 -26 53 8 39 40 58 93 55 l45 -3 7 -60z
m-644 -32 c3 -22 0 -23 -72 -23 -75 0 -91 6 -81 32 4 10 26 13 78 13 67 0 72
-2 75 -22z m161 -39 c1 -1 0 -7 -4 -13 -8 -13 -62 -14 -70 -2 -13 21 52 35 74
15z m75 -143 c35 -36 47 -54 42 -67 -7 -19 -116 77 -116 103 0 25 26 12 74
-36z m-589 -118 c-17 -90 -12 -129 23 -171 17 -23 32 -45 32 -51 0 -6 13 -25
29 -44 16 -18 33 -45 36 -60 4 -15 16 -32 26 -37 10 -6 25 -25 34 -43 8 -17
31 -42 50 -55 27 -17 35 -29 35 -51 0 -42 49 -75 143 -95 20 -5 27 -12 27 -30
0 -25 1 -26 93 -41 49 -8 47 -27 -7 -53 -47 -24 -71 -27 -81 -12 -3 6 -30 10
-58 10 -43 0 -60 6 -102 36 -85 60 -109 74 -126 74 -9 0 -25 12 -35 28 -34 50
-124 216 -124 228 0 6 -9 31 -20 55 -11 24 -20 55 -20 69 0 14 -9 39 -20 55
-25 38 -25 78 0 134 11 24 20 54 20 67 0 19 5 24 26 24 25 0 26 -2 19 -37z
m1263 1 c12 -4 22 -13 22 -20 0 -8 7 -17 15 -20 21 -9 19 -44 -2 -44 -22 1
-93 17 -99 23 -8 8 18 67 29 67 7 0 22 -3 35 -6z m-475 -324 c7 -87 3 -103
-23 -112 -44 -15 -67 43 -30 75 15 13 20 29 20 70 0 108 25 83 33 -33z m350
11 c28 -28 28 -29 8 -43 -12 -9 -21 -28 -23 -51 -4 -50 -22 -52 -26 -2 -2 27
-10 46 -25 57 -19 15 -20 19 -7 42 17 33 38 32 73 -3z m265 -299 c4 -50 -13
-79 -34 -61 -9 7 -14 31 -14 61 0 46 2 49 23 46 18 -2 23 -10 25 -46z m-75
-100 c27 -26 34 -55 18 -80 -12 -19 -75 9 -92 40 -7 12 -20 29 -31 36 -10 7
-18 20 -18 27 0 25 90 7 123 -23z"/>
<path d="M20784 15285 c-11 -8 -27 -15 -38 -15 -10 0 -42 -23 -70 -51 -49 -48
-51 -53 -47 -96 2 -34 8 -47 22 -50 36 -10 16 -63 -23 -63 -31 0 -68 30 -68
55 0 41 -28 95 -46 88 -12 -4 -25 4 -43 26 -18 21 -48 40 -94 56 -88 32 -97
32 -140 -10 -43 -42 -53 -43 -89 -8 -27 25 -29 26 -69 13 -23 -8 -43 -20 -46
-28 -4 -9 -21 -13 -57 -12 -67 3 -136 -10 -136 -24 0 -6 15 -23 34 -38 25 -20
36 -37 38 -60 2 -25 10 -36 31 -46 17 -8 35 -29 44 -50 8 -21 45 -68 83 -107
46 -47 70 -81 75 -104 4 -19 24 -50 46 -72 22 -22 49 -60 62 -86 40 -84 55
-89 208 -74 72 7 154 19 181 27 27 8 77 17 111 19 110 7 203 22 235 39 17 9
48 16 69 16 21 0 49 7 61 16 17 12 35 14 67 10 33 -5 53 -2 87 15 l45 21 -5
52 c-3 36 -12 59 -28 77 -13 14 -24 37 -24 51 0 15 -14 39 -35 61 -19 20 -35
42 -35 48 0 7 -6 20 -14 28 -7 9 -18 30 -23 46 -5 17 -19 34 -31 40 -11 5 -23
17 -25 27 -3 10 -14 18 -26 18 -12 0 -46 25 -81 60 -42 42 -68 60 -85 60 -14
0 -43 9 -64 20 -34 17 -41 17 -57 5z m-34 -295 c0 -26 -45 -73 -66 -68 -34 6
-29 47 8 78 35 29 58 25 58 -10z m40 -145 c0 -30 -16 -41 -35 -25 -18 15 -20
47 -2 53 21 7 37 -4 37 -28z m48 -105 c-2 -8 -11 -16 -21 -18 -18 -4 -26 46
-10 62 10 10 34 -25 31 -44z"/>
<path d="M22005 14729 c-16 -4 -59 -15 -94 -24 -36 -9 -73 -21 -83 -26 -10 -5
-46 -14 -81 -18 -34 -5 -82 -16 -107 -24 -136 -46 -179 -57 -213 -57 -21 0
-51 -7 -66 -15 -16 -8 -55 -19 -89 -24 -33 -5 -68 -14 -78 -20 -37 -21 -110
-43 -189 -56 -44 -7 -91 -17 -105 -23 -14 -5 -59 -12 -100 -16 -41 -4 -92 -14
-115 -21 -22 -7 -68 -15 -102 -19 -108 -10 -343 -82 -343 -105 0 -6 20 -21 44
-33 49 -26 108 -89 88 -96 -28 -9 14 -69 61 -85 25 -9 21 -34 -7 -41 -25 -6
-42 -53 -25 -71 16 -16 10 -35 -16 -45 -19 -7 -36 -30 -22 -30 1 0 29 -5 62
-11 33 -6 74 -12 91 -14 17 -2 45 -10 62 -19 17 -9 42 -16 55 -16 12 0 28 -5
34 -11 7 -7 25 -12 40 -13 41 -1 43 -32 2 -40 -20 -4 -45 -21 -66 -46 -42 -48
-50 -49 -61 -7 -16 62 -35 39 -39 -48 -3 -91 8 -144 37 -170 19 -17 21 -17 64
19 24 19 54 57 66 82 13 25 33 57 46 71 20 21 24 37 24 84 l0 58 38 10 c66 17
675 10 697 -9 41 -34 511 -40 613 -8 l63 20 -21 35 c-11 19 -20 44 -20 55 0
25 -27 47 -57 48 -36 0 -36 18 -1 22 46 4 49 32 6 58 -18 11 -33 28 -34 37 -1
10 -2 27 -3 39 0 12 -10 31 -20 43 -17 20 -19 33 -14 117 5 90 4 95 -18 113
-27 22 -19 37 21 43 34 4 40 48 9 79 -22 22 -14 38 19 39 19 0 32 44 32 108 0
80 -20 99 -85 81z"/>
<path d="M17064 14455 c-9 -23 15 -48 32 -34 19 15 18 35 -2 43 -22 8 -24 8
-30 -9z"/>
<path d="M16984 14325 c-14 -22 -21 -24 -56 -19 -38 7 -41 5 -103 -59 -43 -45
-69 -65 -80 -61 -41 16 -45 -7 -42 -250 l2 -231 -33 -3 c-53 -5 -36 -19 31
-24 51 -4 65 -2 80 13 14 15 33 19 91 19 59 0 75 3 80 16 4 11 13 14 27 11 48
-13 77 11 84 68 4 29 4 66 0 83 -5 23 -1 35 15 50 34 32 39 98 9 126 -24 22
-25 28 -22 124 2 87 0 103 -16 114 -9 7 -20 21 -24 31 -9 24 -24 21 -43 -8z"/>
<path d="M17060 13731 c0 -25 -22 -32 -72 -25 -38 7 -40 6 -36 -17 3 -23 6
-24 68 -21 76 4 84 10 75 51 -7 34 -35 43 -35 12z"/>
<path d="M21518 13698 c-27 -31 -28 -31 -47 -14 -21 19 -41 14 -41 -10 0 -7
-14 -26 -30 -41 -17 -15 -35 -44 -41 -67 -6 -23 -20 -51 -32 -64 l-21 -23 25
-24 24 -25 55 20 c30 11 69 20 87 20 17 0 39 8 49 17 12 12 35 18 73 20 60 2
81 -8 81 -38 0 -23 12 -24 51 -4 28 15 30 15 39 -10 15 -39 70 -32 85 10 11
34 51 75 72 75 17 0 28 30 37 96 9 64 -7 83 -58 67 -39 -12 -234 1 -249 16 -6
6 -38 11 -71 11 -56 0 -63 -3 -88 -32z m219 -54 c8 -23 -29 -94 -49 -94 -22 0
-24 28 -3 36 8 4 15 18 15 33 0 41 24 57 37 25z"/>
<path d="M16795 13651 c-8 -14 4 -17 79 -16 46 0 71 4 73 13 6 15 -142 18
-152 3z"/>
<path d="M20598 10109 c-4 -40 -30 -59 -58 -41 -32 20 -47 14 -69 -28 -27 -52
-26 -60 3 -60 16 0 31 -12 50 -40 16 -24 34 -40 46 -40 11 0 20 -4 20 -9 0
-10 -105 -9 -116 2 -13 13 -52 7 -58 -9 -14 -37 31 -88 85 -98 36 -6 68 -31
56 -42 -3 -4 -27 -9 -53 -12 -50 -5 -83 -50 -84 -115 0 -23 -5 -29 -30 -33
-24 -5 -30 -12 -31 -33 0 -14 -4 -35 -8 -46 -5 -11 -5 -30 0 -41 15 -42 -23
-83 -70 -77 -39 5 -41 4 -41 -21 0 -14 5 -26 10 -26 22 0 8 -28 -29 -58 -30
-24 -37 -36 -34 -55 6 -32 -13 -44 -37 -22 -20 18 -44 11 -70 -19 -15 -19 10
-66 35 -66 7 0 20 -8 27 -18 7 -11 31 -22 53 -25 85 -14 139 -28 154 -40 9 -7
43 -23 76 -35 33 -13 77 -32 97 -42 20 -11 52 -20 70 -20 18 0 56 -11 83 -25
28 -13 60 -25 71 -25 31 0 69 -33 61 -53 -3 -9 -23 -19 -44 -23 -21 -3 -48
-16 -61 -27 -21 -20 -27 -20 -92 -9 -39 7 -90 12 -113 12 -36 0 -49 6 -78 36
-18 20 -47 43 -64 51 -16 9 -48 35 -71 57 -24 24 -59 47 -83 54 -23 8 -48 24
-58 38 -25 39 -68 57 -120 49 -45 -7 -148 -49 -158 -66 -4 -5 -17 -9 -29 -9
-13 0 -29 -6 -35 -14 -7 -8 -23 -17 -36 -20 -33 -8 -32 -20 3 -33 l27 -11 -31
-1 c-46 -2 -61 -24 -33 -50 13 -12 29 -21 37 -21 26 0 119 -65 141 -97 11 -18
35 -40 53 -49 18 -9 43 -25 55 -36 13 -12 43 -23 75 -26 42 -6 55 -12 63 -29
9 -21 15 -23 74 -19 35 2 67 9 70 15 4 6 27 10 52 9 25 0 56 5 68 11 18 10 27
9 47 -4 14 -9 32 -14 39 -11 19 7 7 44 -17 52 -12 4 -18 13 -16 27 5 32 26 32
58 -3 27 -29 36 -32 126 -41 121 -12 138 -8 100 27 -15 14 -25 31 -23 37 5 16
47 21 60 8 12 -12 124 -15 151 -5 9 3 16 17 16 29 0 32 -35 43 -61 19 -23 -21
-59 3 -59 39 0 26 114 19 180 -12 25 -11 56 -21 70 -21 14 0 86 -20 160 -44
74 -24 159 -49 188 -55 30 -6 62 -16 72 -21 46 -25 255 -58 286 -46 14 5 14 8
0 28 -25 35 -19 54 29 95 25 20 45 45 45 54 0 9 9 24 20 34 22 20 26 55 8 73
-16 16 -322 16 -369 0 -50 -17 -167 -15 -214 4 -28 12 -70 17 -141 18 -90 0
-103 2 -120 21 -16 17 -26 20 -61 15 -23 -3 -45 -1 -48 4 -3 6 -35 10 -70 10
-63 0 -91 14 -64 31 8 4 62 6 120 2 121 -7 149 -2 128 23 -11 13 -26 15 -70
11 -62 -5 -85 3 -76 27 10 27 415 13 435 -15 7 -11 25 -19 41 -19 20 0 31 -7
39 -25 17 -37 75 -12 82 37 l5 33 87 -4 c79 -3 88 -1 100 18 8 13 23 21 40 21
23 0 29 6 36 33 5 22 17 36 40 46 28 13 32 20 32 52 0 20 7 42 15 49 9 7 13
20 11 29 -15 56 -16 90 -1 104 31 32 35 71 35 351 0 301 -1 306 -50 306 -15 0
-31 9 -38 21 -13 20 -18 20 -465 18 -403 -2 -456 0 -484 15 -40 20 -47 20 -89
0 -26 -13 -40 -14 -62 -6 -15 6 -48 13 -74 17 l-47 6 -3 -32z m176 -74 c7 -29
-2 -75 -15 -75 -20 0 -31 41 -19 71 15 36 26 37 34 4z m43 -310 c62 -18 79
-53 21 -41 -18 4 -71 12 -118 17 -47 6 -87 12 -89 14 -24 24 113 31 186 10z
m258 -57 c27 -12 32 -23 15 -33 -17 -10 -70 5 -70 20 0 11 5 16 27 24 1 1 14
-4 28 -11z"/>
<path d="M19503 8749 c-27 -10 -41 -35 -36 -63 4 -20 11 -22 53 -22 32 1 54
-5 66 -16 35 -31 224 -67 312 -59 22 2 2 21 -22 21 -13 0 -35 9 -49 20 -14 11
-34 20 -45 20 -35 0 -86 22 -117 50 -41 37 -125 63 -162 49z"/>
<path d="M20853 8663 c-28 -11 -13 -33 21 -33 41 0 54 15 27 29 -21 12 -29 12
-48 4z"/>
<path d="M17454 8581 c-33 -4 -65 -10 -70 -13 -14 -9 -1082 -14 -1090 -5 -9 9
-88 9 -97 1 -12 -12 23 -64 53 -79 17 -9 30 -20 30 -25 0 -6 14 -10 30 -10 25
0 30 -4 30 -25 0 -20 7 -26 40 -36 41 -13 56 -25 75 -63 6 -11 28 -30 49 -41
21 -11 42 -28 47 -37 6 -10 19 -18 29 -18 11 0 55 -37 102 -85 55 -57 90 -85
106 -85 13 0 37 -16 59 -41 25 -28 42 -39 55 -35 14 3 41 -17 97 -75 43 -43
86 -79 96 -79 10 0 37 -18 61 -40 24 -22 52 -40 63 -40 11 0 43 -25 72 -55 84
-88 102 -94 345 -105 115 -6 222 -8 237 -4 65 14 126 -5 147 -46 17 -33 24
-38 63 -42 24 -3 58 -15 74 -28 35 -25 66 -23 71 5 8 48 14 46 46 -16 27 -52
37 -64 57 -64 18 0 23 5 21 20 -10 54 -19 171 -15 186 14 53 130 87 172 50 28
-24 66 -28 75 -6 7 20 74 19 100 0 26 -20 61 -19 98 2 29 18 30 18 47 -5 17
-24 18 -24 71 -8 74 22 206 31 254 18 32 -9 44 -8 67 5 27 16 30 16 58 -5 35
-26 54 -28 71 -7 15 18 43 19 71 4 12 -6 28 -7 37 -3 9 5 33 9 52 10 19 2 68
6 109 10 57 5 75 4 82 -7 16 -25 10 -55 -16 -79 -38 -35 -31 -119 12 -148 24
-15 26 -15 43 8 18 24 19 24 40 5 20 -18 21 -18 36 3 12 17 26 22 62 23 68 1
94 12 64 28 -31 16 -28 23 21 57 38 26 50 29 127 30 292 3 417 8 435 17 11 6
42 14 70 17 42 4 50 8 55 30 4 18 14 26 32 28 14 2 40 19 57 38 17 19 41 34
52 34 13 0 46 25 81 60 34 33 69 60 80 60 11 0 36 16 55 35 27 27 43 35 72 35
39 0 61 14 61 39 0 24 69 91 93 91 13 0 48 28 94 75 68 71 93 88 93 65 0 -5 8
-10 18 -10 21 0 62 40 62 60 0 8 10 24 22 37 12 13 23 34 23 46 0 14 11 27 30
37 48 25 109 86 102 103 -12 32 -81 39 -471 50 -349 9 -399 9 -495 -6 -58 -10
-140 -17 -181 -17 -41 0 -123 -5 -183 -12 -84 -9 -139 -9 -250 1 -78 7 -203
15 -277 17 -74 2 -151 10 -170 16 -47 17 -244 15 -295 -2 -88 -30 -541 -15
-462 15 9 4 17 11 17 16 0 15 -22 10 -35 -7 -14 -20 -292 -3 -329 21 -23 14
-973 20 -1092 6z"/>
<path d="M18637 7573 c-4 -3 -7 -22 -7 -40 0 -42 23 -41 28 1 4 29 -9 52 -21
39z"/>
<path d="M19226 7565 c-3 -8 -3 -22 -1 -30 16 -49 15 -48 30 -35 23 19 20 80
-4 80 -10 0 -21 -7 -25 -15z"/>
<path d="M18435 7550 c-10 -31 2 -40 51 -40 36 0 44 3 44 18 0 37 -84 56 -95
22z"/>
<path d="M19530 7550 c-12 -7 -12 -18 -4 -60 8 -40 8 -55 -3 -70 -13 -19 -12
-20 15 -20 l28 0 0 77 c-1 76 -8 91 -36 73z"/>
<path d="M19086 7518 c-9 -12 -16 -39 -16 -59 0 -43 -20 -65 -47 -51 -24 12
-312 22 -319 10 -3 -4 -33 -6 -67 -2 -91 9 -117 8 -129 -4 -17 -17 1 -32 36
-32 19 0 49 -6 67 -14 30 -13 36 -13 51 1 14 13 25 14 59 5 29 -7 48 -7 65 0
19 9 28 8 42 -5 22 -20 64 -22 92 -5 16 10 24 10 40 0 28 -17 95 -15 110 3 14
17 53 20 80 5 12 -6 38 -6 76 1 40 7 70 7 100 0 44 -11 139 0 158 19 16 16
-38 34 -62 21 -16 -9 -29 -7 -56 5 -31 16 -38 16 -66 2 -53 -26 -135 -3 -135
38 0 57 -54 98 -79 62z"/>
<path d="M5145 16649 c-110 -9 -252 -18 -315 -18 -63 -1 -133 -7 -155 -13 -22
-6 -62 -11 -90 -10 -354 4 -798 0 -820 -8 -19 -7 -35 -6 -63 6 -44 19 -1385
12 -1408 -7 -7 -5 -52 -12 -101 -15 -127 -8 -133 -10 -133 -42 0 -17 -8 -32
-21 -40 -13 -9 -19 -20 -16 -32 3 -11 -4 -29 -14 -41 -28 -32 -30 -1049 -2
-1089 10 -14 16 -39 15 -60 -3 -44 58 -108 134 -141 27 -12 56 -31 66 -42 15
-19 19 -20 41 -8 14 8 32 11 41 8 50 -19 58 150 42 843 -8 305 -4 337 38 313
13 -7 34 -4 74 9 51 17 78 18 262 13 224 -7 261 -2 270 36 4 17 17 28 45 37
22 7 54 19 72 28 25 11 70 14 220 12 l188 -3 -2 -115 c-2 -63 -4 -146 -6 -185
-6 -118 -7 -482 -2 -635 5 -126 8 -148 26 -170 11 -14 22 -33 26 -42 3 -12 16
-18 36 -18 16 0 35 -7 42 -17 11 -15 15 -15 43 5 38 28 47 27 67 0 l16 -23 17
21 c9 12 25 24 35 27 9 4 17 12 17 19 0 10 35 13 153 13 149 0 152 0 162 -23
7 -17 15 -21 30 -17 11 4 34 9 50 12 17 2 40 9 51 15 36 17 59 6 62 -29 3 -29
1 -32 -30 -35 -21 -2 -33 -8 -33 -18 0 -20 56 -26 70 -7 31 42 86 39 125 -8 9
-11 27 -15 57 -13 36 1 46 -2 60 -21 14 -21 21 -23 75 -18 54 5 62 3 81 -19
11 -13 32 -24 45 -24 14 0 30 -8 37 -17 10 -13 29 -17 81 -18 l69 0 3 -33 c4
-41 27 -51 53 -23 21 23 72 26 173 13 74 -10 68 -28 -11 -36 -110 -11 -124
-34 -22 -36 115 -1 243 12 254 26 7 11 28 14 78 11 67 -3 68 -3 100 35 35 42
48 46 67 22 23 -27 74 -14 78 19 6 47 55 86 102 80 32 -4 41 -2 52 16 8 13 23
21 40 21 17 0 33 8 40 20 8 12 24 20 38 20 14 0 30 4 36 9 5 5 20 11 34 13 17
2 30 13 39 35 13 30 16 32 67 30 43 -2 57 2 74 21 15 16 32 22 61 22 34 0 47
7 81 39 24 24 46 37 55 34 9 -3 25 5 39 21 21 22 30 25 64 20 32 -5 41 -3 52
15 9 14 23 21 45 21 29 0 32 3 35 33 3 28 7 32 37 35 18 2 38 -1 44 -7 8 -8 6
-11 -5 -11 -22 0 -43 -26 -26 -33 18 -6 67 24 74 45 7 22 23 23 39 2 11 -15
15 -15 43 6 22 16 43 23 72 22 45 -2 63 19 38 44 -11 11 -81 15 -368 21 -386
7 -541 0 -565 -24 -22 -21 -18 -48 8 -60 21 -10 21 -11 3 -19 -13 -5 -21 -3
-24 4 -6 18 -37 14 -55 -6 -25 -27 -22 -52 7 -52 39 0 51 -54 14 -65 -13 -4
-34 -18 -48 -30 -17 -16 -37 -23 -63 -23 -20 0 -48 -7 -62 -16 -13 -9 -33 -16
-44 -16 -11 0 -25 -9 -31 -20 -14 -27 -39 -25 -49 3 -6 15 -5 29 5 44 21 33
17 43 -15 43 -20 0 -34 -8 -46 -26 l-17 -27 -102 7 c-187 11 -206 14 -231 30
-13 9 -47 25 -74 35 -110 44 -217 177 -204 254 4 26 0 45 -16 70 -30 48 -29
51 45 122 59 57 66 67 62 95 -4 26 0 33 22 45 15 8 33 28 40 45 7 17 25 37 41
45 15 8 40 26 54 39 27 25 93 27 122 4 15 -12 85 1 80 15 -2 7 -18 14 -36 18
-38 8 -38 8 -43 34 -7 42 109 37 140 -6 17 -25 68 -39 140 -40 l62 -1 70 -71
c39 -39 70 -79 70 -88 0 -29 56 -67 117 -79 32 -6 64 -13 71 -16 23 -7 2 -24
-32 -24 -66 0 -80 -56 -16 -66 51 -8 53 -13 25 -48 -23 -29 -24 -29 -86 -20
-63 9 -64 9 -70 46 -11 71 -131 174 -265 228 -130 52 -317 35 -365 -32 -11
-15 -26 -28 -33 -28 -47 0 -80 -144 -53 -228 9 -28 17 -60 17 -72 0 -53 103
-166 160 -176 19 -4 40 -10 45 -14 38 -28 312 -43 368 -21 16 6 37 11 47 11
11 0 22 12 29 32 18 52 56 93 98 106 25 8 52 28 81 61 59 70 98 87 160 71 34
-8 192 -11 582 -10 553 2 640 6 648 28 6 20 -65 45 -97 34 -26 -9 -343 -6
-391 4 -43 9 5 27 53 20 26 -3 54 0 72 8 l30 14 -29 11 c-16 6 -59 11 -95 11
-157 -1 -311 29 -198 38 22 2 41 10 44 18 3 8 11 14 19 14 8 0 14 6 14 14 0
16 -131 34 -302 40 -43 1 -83 8 -92 15 -8 7 -24 10 -34 7 -27 -9 -52 3 -52 25
0 15 7 19 35 19 28 0 38 5 44 23 12 30 9 31 -53 28 -47 -2 -55 1 -61 19 -7 24
-56 28 -74 6 -23 -28 -121 -28 -121 -1 0 9 -14 15 -37 17 -26 2 -38 8 -38 18
0 19 42 16 65 -5 22 -20 55 -19 91 2 44 26 36 40 -41 64 -70 22 -71 22 -106 3
l-35 -19 -21 28 c-13 18 -29 27 -46 27 -17 0 -32 8 -40 20 -10 17 -21 20 -60
18 -50 -3 -75 24 -32 35 11 3 20 10 20 15 0 17 -29 22 -44 7 -18 -19 -83 -19
-116 -2 -33 17 -119 39 -129 33 -4 -3 -29 6 -54 19 -48 26 -82 29 -186 19 -53
-6 -62 -10 -67 -30 -8 -29 -25 -36 -64 -21 -39 15 -65 0 -65 -36 0 -41 -22
-56 -41 -29 -8 12 -26 22 -38 22 -13 0 -30 9 -37 20 -14 19 -15 19 -54 1 -22
-11 -36 -20 -32 -20 4 -1 3 -11 -4 -22 -9 -18 -17 -21 -54 -16 -36 5 -45 3
-64 -19 -18 -20 -28 -24 -51 -19 -33 7 -107 -10 -112 -27 -3 -7 -30 -12 -66
-13 -46 -1 -70 -7 -92 -23 -32 -24 -65 -29 -129 -18 -40 8 -45 6 -72 -23 -26
-29 -34 -32 -83 -30 -30 1 -61 -3 -69 -9 -8 -7 -47 -12 -88 -12 -41 0 -120 -1
-175 -1 -116 -1 -149 10 -138 44 19 59 -18 84 -38 27 -12 -36 -51 -38 -102 -5
-40 26 -33 51 27 89 58 37 156 46 192 16 20 -17 62 -15 125 4 25 8 95 17 155
19 61 3 137 13 170 21 32 9 81 16 108 16 27 0 63 7 80 15 18 8 68 21 112 29
44 8 121 26 170 39 50 14 117 30 150 37 64 12 177 54 210 76 11 8 30 14 42 14
26 0 193 87 193 100 0 5 15 11 33 15 64 13 69 16 56 31 -14 17 -26 16 -284 -7z
m349 -320 c13 -12 5 -18 -32 -25 -25 -5 -33 -3 -38 11 -12 31 40 42 70 14z
m249 -91 c15 -23 -8 -48 -44 -48 -32 0 -48 32 -28 56 16 19 59 14 72 -8z m567
-348 c0 -23 -110 -26 -118 -2 -3 9 13 12 57 12 34 0 61 -4 61 -10z m515 -120
c-8 -13 -305 -13 -325 0 -10 6 43 10 158 10 113 0 171 -3 167 -10z m-565 -439
c0 -19 -29 -30 -62 -23 -21 4 -24 28 -5 35 31 13 67 7 67 -12z m-845 -331 c0
-18 -52 -27 -67 -12 -17 17 2 33 35 30 20 -2 32 -8 32 -18z"/>
<path d="M5500 16658 l-35 -10 40 -17 c22 -9 56 -26 75 -39 19 -12 55 -29 80
-38 25 -9 63 -24 86 -35 23 -10 46 -19 51 -19 6 0 16 -6 22 -14 7 -8 47 -26
91 -40 108 -36 144 -52 160 -70 7 -9 21 -16 32 -16 21 0 154 -48 236 -86 29
-13 60 -24 70 -24 10 0 33 -11 51 -24 18 -13 49 -27 69 -31 20 -4 57 -17 82
-30 25 -13 68 -30 95 -39 28 -9 72 -27 99 -41 27 -14 57 -25 65 -25 9 0 30 -9
46 -20 17 -11 41 -20 53 -20 13 0 35 -9 49 -20 14 -11 34 -20 44 -20 11 0 36
-9 56 -20 21 -11 50 -20 64 -20 14 0 43 -13 64 -30 21 -16 45 -30 53 -30 8 0
34 -11 56 -24 74 -43 125 -44 174 -3 40 34 45 35 111 33 74 -2 80 -5 154 -75
49 -47 56 -71 36 -113 -11 -24 -83 -81 -126 -101 -13 -6 -31 -26 -39 -45 l-14
-35 -128 8 c-70 4 -138 7 -152 7 -39 0 -317 -78 -355 -100 -11 -6 -45 -18 -75
-27 -76 -23 -180 -65 -212 -87 -14 -10 -34 -18 -44 -18 -10 0 -27 -9 -38 -19
-12 -11 -57 -39 -101 -62 -78 -42 -138 -78 -162 -98 -6 -6 -24 -13 -39 -17
-15 -4 -43 -18 -62 -31 -19 -12 -39 -23 -43 -23 -21 0 -31 -42 -14 -59 15 -15
18 -14 34 6 27 33 98 57 168 57 47 1 59 4 51 13 -16 20 38 36 75 23 42 -14 72
-13 87 5 9 11 33 15 88 15 62 0 80 4 97 20 20 18 23 19 35 5 16 -20 59 -19
101 2 23 12 54 16 98 15 45 -2 71 2 88 13 18 12 46 16 106 15 250 -3 420 0
455 9 45 13 87 53 78 76 -3 9 4 24 19 37 31 27 31 34 0 42 -34 9 -32 25 5 32
41 9 47 20 52 94 2 36 13 83 23 105 26 53 25 216 -1 266 -31 61 -35 88 -13 99
22 12 25 36 5 47 -16 10 -45 64 -44 83 1 8 0 106 0 216 l-2 202 -40 16 c-32
13 -40 21 -40 41 0 25 -1 26 -75 39 -16 3 -263 6 -549 6 -341 -1 -522 3 -531
10 -10 9 -127 14 -520 25 -102 3 -345 22 -390 30 -61 12 -151 14 -185 3z"/>
<path d="M5042 16368 c-19 -19 -14 -28 17 -28 29 0 57 21 44 33 -11 11 -48 8
-61 -5z"/>
<path d="M3265 16268 c-11 -6 -39 -10 -63 -9 -26 1 -53 -4 -68 -13 -13 -9 -30
-16 -38 -16 -8 0 -21 -7 -30 -15 -8 -8 -27 -20 -41 -25 -24 -9 -26 -14 -21
-45 4 -22 2 -44 -8 -62 -17 -35 -25 -685 -10 -802 16 -112 55 -131 108 -52
l29 44 27 -33 c23 -29 30 -32 59 -25 26 6 37 3 52 -14 35 -37 61 -25 84 39 38
103 47 304 19 384 -10 30 -14 95 -14 236 -1 215 -14 385 -31 406 -14 17 -27
17 -54 2z"/>
<path d="M2744 16167 c-3 -8 -4 -20 -2 -27 4 -18 -71 -42 -112 -36 -49 7 -80
-2 -80 -25 0 -16 8 -19 44 -19 59 0 80 -8 66 -25 -7 -9 -23 -12 -46 -8 -48 8
-70 -11 -49 -43 26 -40 22 -375 -5 -399 -15 -13 -20 -31 -20 -67 0 -27 -5 -48
-10 -48 -7 0 -10 -24 -8 -62 l3 -63 45 0 c34 0 45 -4 48 -17 3 -15 -4 -18 -48
-18 -44 0 -51 -3 -48 -17 2 -12 12 -17 28 -16 21 1 71 -4 233 -22 15 -2 34 -9
43 -15 43 -36 51 73 39 565 -7 324 -6 313 -48 317 -27 2 -32 7 -32 28 0 27
-31 41 -41 17z"/>
<path d="M4105 16160 c3 -5 30 -10 60 -10 30 0 57 5 60 10 4 6 -18 10 -60 10
-42 0 -64 -4 -60 -10z"/>
<path d="M2476 16055 c-7 -21 4 -47 18 -40 6 3 19 8 29 11 24 9 21 23 -9 34
-32 13 -31 13 -38 -5z"/>
<path d="M6466 16015 c-6 -18 22 -35 58 -35 28 0 34 18 14 38 -17 17 -65 15
-72 -3z"/>
<path d="M2519 15968 c-3 -86 1 -301 6 -306 17 -18 25 37 22 167 -1 105 -5
145 -14 149 -7 2 -13 -2 -14 -10z"/>
<path d="M4070 15196 c21 -19 76 -36 116 -36 45 0 44 16 -1 24 -19 4 -35 11
-35 16 0 6 -21 10 -47 10 -41 0 -45 -2 -33 -14z"/>
<path d="M3755 15120 c-11 -35 6 -129 25 -143 10 -7 20 -24 22 -37 2 -20 8
-24 27 -22 28 3 100 -37 154 -85 20 -18 41 -33 45 -33 4 0 19 -21 32 -47 14
-27 32 -56 40 -67 26 -31 22 -4177 -4 -4203 -3 -4 -6 -17 -6 -29 0 -27 -17
-70 -42 -103 -40 -53 -26 -71 55 -71 44 0 78 5 85 12 7 7 52 14 106 16 l94 4
110 -109 c138 -138 147 -153 138 -253 -5 -61 -2 -86 14 -132 11 -32 20 -63 20
-70 0 -7 10 -32 22 -56 21 -40 25 -43 55 -37 44 8 214 8 236 0 9 -4 17 -15 17
-24 0 -9 5 -22 12 -29 17 -17 58 -15 58 3 0 10 10 15 30 15 23 0 30 -4 30 -20
0 -16 -7 -20 -30 -20 -35 0 -43 -29 -10 -37 23 -6 26 -26 8 -40 -19 -14 -133
-10 -151 5 -12 10 -13 19 -5 40 7 18 6 36 -1 55 l-11 28 -29 -23 c-39 -30 -42
-40 -28 -78 14 -38 1 -50 -54 -50 -45 0 -63 19 -54 60 6 26 3 31 -21 40 -15 6
-33 18 -39 27 -12 17 -45 12 -45 -6 0 -5 18 -25 40 -44 49 -42 50 -54 4 -63
-36 -7 -162 1 -172 10 -2 3 1 19 7 35 9 21 10 35 2 49 -18 33 15 53 38 23 10
-13 25 -22 36 -20 25 5 25 22 -2 34 -15 6 -23 21 -28 55 -4 25 -15 53 -25 62
-20 19 -36 97 -26 124 6 15 -18 73 -32 75 -4 1 -24 2 -45 3 -45 3 -46 4 -54
52 -8 51 -15 59 -80 90 -87 41 -130 8 -113 -86 5 -25 6 -48 4 -51 -2 -4 2 -33
9 -65 12 -54 16 -59 46 -65 84 -17 92 -72 11 -79 -91 -8 -81 -70 12 -70 63 0
88 -13 88 -47 0 -22 3 -24 23 -18 68 23 139 14 85 -10 -29 -13 -28 -72 2 -96
16 -14 17 -18 5 -23 -8 -3 -17 -2 -19 3 -7 11 -156 6 -186 -7 -14 -6 -38 -13
-53 -17 -22 -4 -27 -10 -22 -25 3 -10 1 -76 -5 -145 -10 -110 -10 -131 4 -166
9 -22 16 -63 16 -92 0 -32 6 -61 16 -75 14 -21 14 -26 0 -56 -31 -66 -24 -80
62 -116 51 -22 55 -22 82 -7 38 23 55 21 77 -6 29 -38 52 -40 94 -12 46 30 58
31 106 5 53 -28 89 -26 118 7 33 40 104 18 121 -37 7 -19 17 -35 25 -35 7 0
17 16 22 35 23 89 96 84 106 -7 5 -43 9 -48 31 -48 23 0 25 4 28 53 3 54 11
63 32 37 12 -14 15 -14 31 1 12 11 40 18 80 19 75 3 79 8 79 108 0 59 4 79 15
83 24 10 35 -4 24 -30 -20 -42 33 -96 76 -80 19 8 19 40 0 48 -8 3 -15 12 -15
19 0 8 7 20 15 27 11 9 15 34 15 96 0 66 3 84 14 84 19 0 31 -74 22 -135 -5
-33 -4 -45 6 -45 7 0 22 -12 34 -27 21 -26 23 -27 30 -9 5 13 2 23 -9 31 -18
13 -22 45 -8 60 5 6 11 44 14 85 3 41 9 90 12 107 9 41 -8 65 -41 57 -21 -5
-23 -2 -26 38 -3 39 -7 45 -42 61 l-38 18 -35 -40 c-19 -23 -39 -39 -44 -35
-14 8 -10 57 6 78 22 29 18 61 -9 92 -22 27 -25 27 -63 16 -58 -17 -71 -15
-98 14 -31 33 -31 51 -4 80 25 26 18 44 -17 44 -16 0 -24 5 -21 13 4 12 28 13
86 1 36 -7 51 5 51 42 0 22 -104 84 -140 84 -9 0 -25 8 -34 19 -23 25 -75 35
-95 18 -77 -65 -114 -60 -93 11 17 55 42 195 42 230 0 40 57 106 106 122 19 6
34 18 34 25 0 56 287 151 315 105 4 -6 21 -16 38 -24 18 -7 46 -29 64 -49 22
-25 41 -37 65 -39 l33 -3 -1 -95 c-2 -176 -55 -312 -129 -331 -22 -6 -55 -15
-73 -21 -19 -5 -35 -8 -36 -6 -37 56 -48 109 -25 124 51 31 46 188 -8 238 -58
52 -61 52 -104 10 -38 -39 -60 -93 -76 -186 -6 -39 47 -116 100 -145 12 -6 24
-22 27 -35 4 -17 14 -24 38 -26 24 -2 36 -10 42 -27 12 -31 25 -38 40 -20 18
22 57 18 74 -6 12 -17 14 -42 9 -123 -4 -71 -2 -109 6 -125 l13 -23 22 21 c12
12 27 21 32 21 6 0 23 14 40 31 16 17 45 37 64 45 19 8 48 29 63 46 21 23 31
28 40 19 6 -6 16 -11 21 -11 6 0 0 9 -13 19 -23 17 -24 25 -29 165 -4 132 -6
146 -23 146 -10 0 -21 9 -24 20 -9 30 4 60 26 60 16 0 19 7 19 50 0 43 -3 50
-19 50 -11 0 -22 4 -25 9 -10 16 6 41 26 41 29 0 21 61 -9 75 -26 11 -31 52
-8 61 28 11 18 62 -15 79 -36 18 -36 20 -10 70 l21 40 -27 22 c-22 17 -25 25
-18 45 5 12 11 928 14 2033 5 2153 4 2117 53 2076 12 -9 18 0 36 50 26 69 31
75 126 136 74 47 115 81 115 95 0 14 -59 9 -91 -7 -16 -9 -55 -20 -87 -26 -31
-6 -69 -19 -84 -30 -15 -10 -33 -19 -40 -19 -7 -1 -31 -8 -53 -16 -207 -76
-411 -75 -635 4 -94 33 -177 57 -230 67 -19 4 -59 18 -87 31 -29 14 -76 29
-104 34 -29 6 -57 14 -63 19 -6 5 -40 15 -76 21 -36 7 -76 18 -90 25 -14 7
-49 18 -79 24 -30 6 -59 15 -65 20 -15 12 -207 51 -251 51 -21 0 -63 6 -94 14
-112 28 -129 29 -136 6z m666 -5305 l-16 -30 -3 44 c-5 62 7 85 23 46 11 -25
11 -34 -4 -60z m262 -516 c62 -17 29 -56 -38 -43 -36 6 -44 21 -23 42 14 14
14 14 61 1z m-53 -209 c0 -10 9 -24 20 -30 23 -13 27 -52 5 -70 -21 -17 -35
-3 -35 36 0 19 -4 34 -10 34 -5 0 -10 11 -10 25 0 16 6 25 15 25 8 0 15 -9 15
-20z m-300 -25 c11 -13 10 -20 -7 -43 -33 -44 -50 -40 -55 13 -5 66 21 79 62
30z"/>
<path d="M3602 15085 c-53 -53 -53 -79 -1 -83 46 -4 64 17 62 71 -3 58 -13 60
-61 12z"/>
<path d="M2922 15096 c-19 -6 -38 -19 -43 -29 -6 -9 -22 -17 -37 -17 -21 0
-24 -2 -12 -10 8 -5 23 -7 32 -4 9 3 25 0 36 -7 34 -21 77 1 77 41 0 39 -8 43
-53 26z"/>
<path d="M5467 10073 c-6 -37 -2 -53 12 -53 11 0 22 56 15 75 -10 25 -21 17
-27 -22z"/>
<path d="M4434 10066 c-9 -24 3 -46 26 -46 26 0 26 22 0 45 -18 16 -20 16 -26
1z"/>
<path d="M5026 9919 c-7 -41 -1 -63 13 -54 12 7 22 62 15 80 -10 26 -21 16
-28 -26z"/>
<path d="M3995 9740 c-4 -6 4 -29 17 -53 23 -39 26 -42 63 -39 58 4 65 8 65
41 0 26 -5 31 -47 45 -53 18 -89 20 -98 6z"/>
<path d="M3997 9614 c-3 -4 -2 -14 2 -23 5 -9 11 -224 13 -479 4 -448 8 -505
35 -479 13 14 17 924 3 957 -11 28 -37 39 -53 24z"/>
<path d="M5503 8825 c-3 -9 -2 -47 1 -84 10 -100 3 -118 -47 -126 -23 -4 -55
-10 -72 -15 -79 -22 -95 -21 -121 7 -21 23 -27 25 -34 13 -17 -26 -11 -96 9
-122 11 -13 23 -38 26 -54 4 -16 16 -58 26 -93 10 -35 19 -83 19 -106 0 -89
48 -130 123 -106 17 5 95 11 172 13 138 2 140 2 143 -20 2 -14 10 -22 22 -22
35 0 32 21 -8 59 -50 48 -57 71 -38 110 26 50 13 102 -17 72 -15 -15 -37 -14
-37 2 0 7 14 39 30 71 23 43 29 67 25 87 -5 21 -1 37 14 58 12 16 21 40 21 53
0 14 9 51 20 83 l20 57 -33 -6 c-99 -21 -122 -20 -140 8 -18 26 -87 76 -107
76 -6 0 -13 -7 -17 -15z"/>
<path d="M4538 8614 c-13 -13 -19 -14 -35 -3 -17 10 -24 9 -44 -4 -30 -21 -53
-21 -84 -1 -18 11 -35 14 -57 9 -18 -4 -53 -8 -78 -9 -25 -1 -51 -5 -58 -10
-7 -4 -43 -11 -80 -14 -78 -8 -87 -22 -47 -70 22 -26 24 -35 15 -52 -13 -24
-1 -51 32 -74 21 -15 21 -16 4 -35 -35 -39 -33 -396 4 -571 10 -46 9 -59 -4
-80 -8 -15 -14 -40 -12 -56 4 -35 85 -58 172 -48 44 4 57 1 89 -20 21 -14 50
-26 66 -26 15 0 34 -7 43 -15 8 -8 17 -15 20 -15 13 0 5 48 -9 60 -18 15 -20
64 -2 78 23 19 283 -1 308 -24 21 -18 21 -18 41 9 24 33 29 33 67 1 30 -25 51
-25 51 1 0 7 6 15 14 18 15 6 36 -11 36 -29 0 -25 20 -25 31 -1 11 24 12 25
170 25 l159 1 14 -27 c14 -25 13 -28 -11 -48 -26 -21 -26 -21 -8 -51 l18 -31
60 44 c32 24 64 44 71 45 6 0 60 3 119 5 124 4 140 9 106 35 l-24 17 22 39
c21 36 21 41 6 56 -14 14 -14 18 -3 33 15 17 30 41 52 83 55 104 -341 126
-486 27 -46 -31 -74 -33 -126 -6 -22 11 -54 20 -73 20 -19 0 -56 7 -83 16 -68
21 -301 31 -345 14 -19 -7 -70 -16 -114 -20 -96 -10 -167 -28 -227 -58 -13 -6
-19 39 -8 53 11 13 5 15 -42 15 -85 0 -130 44 -68 67 33 12 37 30 19 82 -7 20
-8 36 -1 44 5 6 12 34 15 61 3 29 12 55 21 61 9 7 16 18 16 26 1 67 120 273
144 249 6 -6 3 -17 -9 -29 -13 -15 -16 -29 -11 -52 4 -23 1 -38 -14 -56 -22
-29 -28 -87 -7 -81 6 2 21 23 32 46 11 23 31 51 43 62 12 12 30 33 39 48 10
15 26 33 35 40 10 7 18 21 18 30 0 10 9 34 20 55 30 56 17 80 -22 41z"/>
<path d="M4674 8608 c-3 -10 -14 -22 -24 -28 -11 -6 -20 -26 -24 -55 -5 -32
-14 -50 -32 -61 -13 -9 -29 -34 -36 -58 -7 -22 -27 -56 -45 -74 -18 -18 -36
-45 -39 -60 -4 -15 -17 -38 -31 -50 -18 -17 -23 -32 -21 -55 l3 -32 183 4
c133 3 182 0 182 -8 0 -22 56 -33 185 -38 71 -2 135 -9 142 -15 9 -7 17 -7 27
1 12 10 20 9 40 -4 24 -16 26 -16 33 1 16 42 -1 196 -23 215 -8 6 -14 22 -14
34 0 13 -11 47 -25 77 -14 29 -25 60 -25 69 0 9 -7 22 -16 30 -11 9 -15 26
-12 61 3 52 2 54 -36 36 -21 -9 -29 -8 -44 5 -25 23 -55 21 -77 -3 -22 -25
-31 -25 -75 -1 -51 27 -188 33 -196 9z m328 -156 c30 -64 29 -70 -9 -56 -29
10 -51 68 -39 99 10 26 20 16 48 -43z m58 -102 c0 -6 11 -21 23 -33 31 -29 43
-75 22 -83 -20 -8 -45 13 -45 37 0 11 -9 28 -20 39 -11 11 -17 26 -14 35 7 17
34 21 34 5z"/>
<path d="M12785 16691 c-15 -13 -111 -41 -140 -41 -19 0 -29 -6 -32 -20 -4
-15 -9 -18 -18 -10 -18 15 -98 16 -275 3 -85 -6 -182 -8 -215 -4 -33 4 -78 3
-100 -2 -22 -5 -89 -9 -149 -9 -60 1 -117 -3 -128 -9 -13 -7 -29 -6 -54 3 -34
12 -39 11 -87 -17 l-52 -30 -985 -3 -985 -2 -23 -26 c-20 -21 -29 -24 -58 -18
-31 6 -40 2 -70 -27 l-34 -33 0 -1478 c1 -1337 -1 -1480 -15 -1502 -13 -19
-16 -51 -16 -148 1 -211 -7 -392 -18 -428 -7 -19 -16 -118 -22 -220 -5 -102
-12 -192 -16 -200 -9 -20 -14 -117 -12 -237 0 -21 -7 -92 -15 -158 -20 -162
-21 -315 -2 -315 28 0 48 41 32 65 -12 18 -11 24 5 44 12 15 19 39 19 68 0 46
17 90 44 112 10 8 16 29 16 53 0 21 7 55 15 75 8 19 15 58 15 86 0 33 7 61 22
85 18 30 20 39 10 65 -10 27 -9 33 13 53 17 16 25 34 25 56 0 18 9 62 20 98
11 36 20 84 20 107 0 23 5 45 10 48 6 3 10 26 10 50 0 25 8 58 19 77 12 20 22
63 26 108 4 41 16 95 27 120 11 25 22 68 25 95 3 28 12 63 21 79 8 16 14 47
14 69 -1 22 5 52 12 66 7 14 16 49 19 76 3 28 15 68 27 90 15 27 20 52 17 77
-3 24 1 45 11 60 10 13 17 44 17 75 1 39 8 61 29 91 17 25 30 61 35 95 5 37
17 68 35 91 15 20 30 53 33 74 8 54 36 104 73 131 30 22 32 26 27 69 -4 34 0
57 13 82 15 30 19 64 20 201 4 310 2 341 -21 373 -27 36 -21 281 7 324 15 22
14 26 -7 48 -35 37 -41 167 -9 184 17 9 32 10 59 2 20 -6 56 -13 79 -16 27 -3
53 -13 68 -27 22 -20 27 -21 63 -11 55 17 67 15 103 -17 18 -16 72 -47 119
-70 121 -57 143 -91 94 -149 -25 -30 -31 -32 -96 -32 -90 0 -102 -15 -89 -109
5 -35 10 -64 12 -66 25 -23 86 -55 103 -55 55 0 69 -29 71 -140 2 -160 0 -164
-71 -170 l-60 -5 -7 -224 c-7 -250 -4 -271 42 -271 76 0 136 -58 124 -120 -4
-20 0 -42 15 -70 15 -28 21 -59 21 -101 0 -46 5 -67 20 -86 13 -16 20 -41 20
-67 0 -62 19 -165 36 -198 8 -16 18 -52 21 -81 3 -29 12 -61 19 -72 8 -11 14
-44 14 -75 1 -32 7 -63 15 -74 8 -11 15 -41 15 -66 0 -26 9 -63 20 -85 11 -22
20 -56 20 -76 0 -44 15 -125 36 -189 7 -25 18 -72 23 -105 5 -33 16 -87 25
-120 30 -115 36 -146 36 -183 0 -20 9 -50 20 -67 12 -19 20 -47 20 -75 0 -26
9 -63 20 -85 12 -23 19 -57 19 -84 -2 -66 15 -170 35 -213 9 -21 16 -56 16
-78 0 -22 7 -52 16 -66 11 -16 15 -37 11 -63 -3 -25 1 -51 14 -77 10 -21 18
-57 19 -78 0 -26 9 -53 27 -78 21 -31 24 -43 16 -61 -14 -32 53 -165 73 -144
18 18 22 214 13 817 -10 778 -9 757 -49 840 -9 20 -70 53 -100 55 -53 4 -142
176 -155 300 -3 33 -10 83 -15 110 -30 158 -43 1273 -16 1301 9 8 16 23 16 32
0 16 34 59 120 148 21 23 45 53 51 68 7 14 23 29 36 32 13 4 28 15 34 25 11
22 39 25 57 7 10 -10 14 -8 18 10 11 39 174 22 174 -18 0 -6 4 -10 10 -10 27
0 33 93 31 522 -2 338 0 442 10 460 7 13 14 37 15 53 3 46 23 126 35 141 9 11
15 38 18 87 1 19 94 110 144 140 65 40 162 49 562 56 209 3 386 10 393 14 7 5
21 26 32 47 26 50 75 124 95 140 8 7 15 19 15 26 0 15 -31 19 -45 5z"/>
<path d="M13586 16691 c-9 -14 12 -100 37 -151 21 -42 25 -45 67 -48 226 -14
320 -20 346 -21 69 -2 77 -21 104 -243 5 -43 17 -92 26 -110 15 -29 17 -89 19
-538 1 -278 4 -511 8 -517 4 -6 28 -10 53 -9 43 1 48 4 57 31 15 47 26 56 47
43 26 -16 91 15 152 71 l48 45 0 601 0 601 -34 33 c-22 22 -40 31 -51 28 -10
-4 -24 3 -37 19 l-22 25 -18 -23 c-18 -23 -19 -23 -33 -4 -8 11 -15 25 -15 32
0 20 -92 24 -113 5 -18 -15 -21 -14 -41 12 -19 24 -28 27 -76 26 -30 -1 -80 4
-110 11 -30 6 -93 17 -140 24 -80 12 -105 18 -205 52 -48 16 -62 17 -69 5z"/>
<path d="M13299 16481 c-21 -16 -41 -18 -161 -16 -122 1 -140 0 -155 -17 -9
-10 -30 -18 -48 -18 -27 0 -34 -5 -39 -25 -7 -29 -54 -35 -101 -13 -30 13 -45
1 -45 -38 0 -12 -17 -35 -41 -55 -22 -18 -42 -36 -45 -38 -5 -5 -84 -21 -141
-28 -29 -3 -44 -11 -48 -23 -11 -35 -29 -41 -72 -26 -36 13 -54 26 -118 85
-23 21 -106 63 -113 57 -2 -3 1 -21 8 -40 17 -53 14 -54 -170 -50 -135 2 -178
0 -206 -12 -47 -20 -32 -38 34 -40 26 -1 106 -5 179 -9 138 -8 173 -25 52 -25
-40 0 -82 -6 -97 -14 -15 -7 -59 -17 -99 -21 -72 -7 -107 -25 -81 -42 7 -4 87
-10 178 -13 130 -4 165 -8 165 -19 0 -22 -105 -48 -214 -53 -78 -5 -107 -10
-134 -27 -40 -25 -65 -27 -73 -6 -4 8 -14 15 -23 15 -19 0 -21 -214 -1 -234
13 -13 13 -49 -1 -63 -6 -6 -11 -69 -11 -159 l-1 -149 25 -12 c20 -10 27 -23
32 -62 8 -64 21 -73 95 -69 54 2 63 0 77 -21 15 -21 22 -23 77 -18 59 5 61 5
90 -29 38 -43 59 -43 78 -2 l14 33 165 -3 c133 -2 166 -5 173 -17 4 -8 15 -15
22 -15 20 0 19 29 -1 37 -11 4 -14 13 -9 30 5 23 -22 122 -38 134 -36 27 -29
229 10 265 26 24 29 39 9 47 -8 3 -16 22 -18 44 -2 30 -8 38 -28 43 -14 3 -26
14 -28 23 -4 22 25 34 48 19 24 -15 29 -7 23 36 -4 33 0 42 34 78 22 23 45 55
51 72 10 29 56 82 71 82 3 0 12 -10 20 -21 13 -22 13 -21 47 16 19 21 34 46
34 55 0 23 58 76 69 64 5 -5 11 -20 13 -34 7 -51 97 -32 161 35 24 26 101 43
112 26 9 -15 41 -14 73 3 46 23 122 30 122 11 0 -8 -12 -20 -26 -25 -40 -16
-16 -34 73 -55 43 -10 97 -26 120 -36 24 -11 47 -19 51 -19 19 0 62 -61 62
-89 0 -36 24 -47 56 -26 43 28 54 20 51 -37 -2 -45 1 -53 18 -56 30 -6 41 -20
27 -34 -18 -18 -15 -66 5 -77 9 -5 22 -29 28 -53 8 -33 15 -43 30 -43 50 0 55
221 7 278 -21 24 -4 39 36 31 26 -5 31 -11 34 -38 3 -27 6 -31 29 -28 26 2 45
-19 34 -38 -3 -5 2 -32 11 -60 12 -37 15 -69 11 -114 -6 -67 0 -109 14 -100 5
3 9 15 9 28 0 13 9 31 20 41 18 16 19 26 13 129 -3 61 -10 119 -15 129 -6 11
-5 30 4 52 10 31 10 39 -6 65 -9 17 -16 44 -14 59 4 47 -70 115 -126 116 -27
0 -32 5 -47 44 -8 24 -23 48 -32 53 -10 5 -17 17 -17 27 0 24 -26 45 -46 37
-19 -7 -11 -56 12 -69 19 -11 18 -46 -2 -54 -8 -3 -25 3 -37 14 -12 11 -30 23
-40 26 -9 4 -22 18 -29 32 -7 15 -24 28 -42 33 -25 7 -34 17 -48 57 -25 71
-52 84 -71 35 -17 -44 -93 -46 -103 -2 -13 61 -17 63 -55 33z m-75 -142 c15
-13 -1 -22 -36 -21 -40 2 -174 -52 -208 -83 -58 -52 -116 -61 -126 -19 -9 36
36 80 101 100 27 8 61 21 75 29 27 15 176 11 194 -6z m191 -59 c0 -11 -9 -14
-34 -12 -42 3 -51 10 -31 23 22 14 65 7 65 -11z m376 -207 c13 -35 -3 -76 -29
-71 -28 5 -31 98 -2 98 13 0 24 -10 31 -27z m-1323 -80 c5 -55 -12 -73 -67
-73 -77 0 -80 39 -5 85 50 31 68 28 72 -12z m-638 -694 c0 -40 -33 -37 -38 4
-3 22 1 27 17 27 17 0 21 -6 21 -31z"/>
<path d="M12793 16093 c-22 -8 -16 -53 7 -53 15 0 20 7 20 24 0 27 -8 36 -27
29z"/>
<path d="M13007 16039 c-22 -5 -50 -18 -64 -29 -14 -11 -32 -20 -40 -20 -12 0
-38 -22 -102 -85 -16 -16 -84 -97 -119 -142 -49 -64 -55 -86 -47 -197 6 -101
8 -108 86 -247 39 -69 153 -154 256 -190 121 -42 371 -30 445 22 15 10 30 19
34 19 3 0 22 14 41 30 18 17 42 30 53 30 12 0 35 21 59 54 23 30 45 57 51 61
6 4 10 69 10 169 0 156 -1 165 -24 199 -13 19 -27 45 -31 56 -4 12 -32 51 -64
86 -124 141 -373 224 -544 184z"/>
<path d="M13826 15543 c-8 -80 -52 -220 -78 -246 -10 -10 -18 -22 -18 -27 0
-6 -13 -29 -30 -52 -16 -22 -30 -45 -30 -49 0 -4 -11 -19 -25 -33 -30 -30 -33
-66 -6 -66 16 0 37 14 124 80 42 33 106 148 113 205 4 28 14 60 22 73 11 17
13 40 9 88 -5 72 -9 79 -48 89 -26 6 -27 6 -33 -62z"/>
<path d="M10170 15072 c0 -71 19 -85 90 -69 62 14 72 31 43 71 -13 17 -27 25
-48 24 -17 -1 -40 4 -52 10 -32 17 -33 16 -33 -36z"/>
<path d="M10211 14904 c-23 -29 -23 -30 -12 -59 8 -19 8 -19 20 3 10 20 17 21
70 16 98 -11 88 46 -10 60 -43 6 -49 4 -68 -20z"/>
<path d="M10191 14754 c-9 -20 -9 -30 0 -40 17 -20 41 2 37 34 -4 35 -22 38
-37 6z"/>
<path d="M10166 14528 c-22 -30 -22 -136 -1 -144 20 -8 19 -43 -2 -96 -25 -66
-41 -79 -87 -76 -53 4 -62 -32 -22 -85 33 -43 33 -61 0 -76 -21 -9 -24 -14
-14 -26 8 -9 9 -25 5 -42 -5 -16 -7 -35 -6 -45 1 -9 -3 -19 -9 -23 -5 -3 -10
-23 -10 -43 0 -27 -6 -41 -20 -50 -23 -14 -29 -163 -7 -190 13 -16 77 47 77
76 0 42 78 54 81 13 5 -63 4 -66 -28 -82 -115 -58 -181 -177 -111 -201 26 -9
28 -14 28 -60 0 -55 0 -55 -57 -4 -13 11 -23 18 -24 15 -13 -48 0 -145 16
-120 3 6 19 20 35 31 l30 21 0 -105 c0 -97 -2 -106 -19 -106 -10 0 -26 -11
-35 -25 -12 -19 -25 -25 -51 -25 -44 0 -48 -26 -6 -35 37 -8 50 -48 24 -77
-14 -15 -18 -40 -19 -122 -1 -62 -7 -113 -15 -127 -7 -13 -16 -49 -20 -81 -4
-38 -15 -68 -33 -91 -23 -30 -25 -38 -15 -66 9 -25 8 -42 -5 -81 -9 -27 -16
-56 -16 -64 0 -9 -9 -43 -21 -76 -12 -34 -18 -71 -15 -84 3 -13 -1 -40 -9 -60
-8 -19 -15 -51 -15 -69 0 -19 -9 -56 -21 -82 -13 -29 -19 -58 -15 -75 3 -18 0
-33 -9 -40 -7 -6 -17 -37 -20 -68 -4 -31 -13 -77 -21 -101 -8 -25 -14 -66 -14
-93 0 -37 -4 -51 -20 -60 -16 -10 -20 -24 -20 -63 0 -30 -8 -66 -18 -87 -12
-24 -21 -70 -26 -134 -6 -82 -10 -102 -29 -122 -17 -18 -22 -34 -20 -71 2 -37
-3 -56 -22 -81 -18 -24 -22 -40 -18 -65 3 -21 -1 -51 -11 -75 -9 -22 -16 -53
-16 -68 0 -15 -9 -52 -19 -82 -11 -30 -24 -96 -30 -147 -5 -50 -17 -105 -25
-122 -9 -16 -16 -54 -16 -83 0 -35 -7 -63 -19 -81 -10 -16 -17 -36 -14 -45 2
-10 -8 -71 -23 -137 -29 -134 -40 -195 -54 -307 -5 -43 -14 -86 -19 -96 -6
-11 -10 -39 -9 -63 1 -24 -2 -60 -6 -79 -7 -30 -3 -42 28 -87 26 -39 36 -63
36 -92 0 -45 13 -86 35 -108 11 -11 14 -29 11 -66 -16 -180 -12 -242 14 -245
79 -9 88 -25 20 -37 -42 -7 -54 -37 -31 -74 6 -10 5 -22 -5 -35 -8 -11 -14
-33 -14 -48 0 -27 2 -28 50 -28 32 0 66 8 92 21 23 12 64 25 92 29 78 12 237
58 255 74 9 8 47 17 85 21 38 4 80 14 95 21 14 8 41 11 61 9 56 -8 71 11 83
108 10 83 10 86 -18 140 -28 56 -28 57 -15 132 24 140 5 1680 -22 1723 -19 32
-20 46 -18 955 1 507 -1 941 -5 964 -9 53 6 78 38 61 46 -24 86 15 89 88 2 35
8 65 13 67 12 2 17 -185 6 -193 -20 -13 -21 -49 -2 -67 10 -10 22 -35 26 -56
6 -30 11 -37 26 -32 22 7 39 -21 39 -63 0 -34 19 -92 30 -92 4 0 10 46 13 103
3 66 11 113 22 135 11 21 18 66 21 129 5 93 18 133 45 133 18 0 20 -51 4 -108
-18 -62 -17 -111 4 -272 6 -47 13 -289 16 -538 5 -407 8 -459 24 -500 17 -44
18 -98 17 -912 -1 -838 0 -866 18 -900 17 -30 20 -58 22 -195 3 -321 14 -468
35 -491 14 -15 19 -34 18 -77 -1 -37 4 -65 15 -81 10 -16 12 -27 5 -31 -9 -6
-5 -72 8 -118 6 -23 26 -8 43 34 15 35 50 34 178 -7 41 -14 97 -24 128 -24
l56 0 -7 38 c-4 20 -15 53 -25 72 -17 32 -23 53 -35 135 -2 17 -4 192 -4 390
0 206 -5 383 -11 414 -6 34 -7 58 0 65 5 7 12 54 15 106 6 102 18 124 73 139
21 6 26 13 24 32 -6 47 -22 254 -22 276 0 12 -7 39 -14 61 -8 23 -12 57 -9 79
3 26 0 50 -11 71 -9 17 -16 49 -16 70 0 23 -6 45 -15 52 -9 7 -13 21 -9 34 3
12 0 35 -7 51 -6 17 -15 68 -19 115 -10 99 -27 186 -43 215 -6 11 -17 47 -23
80 -6 33 -16 74 -22 90 -15 45 -34 123 -42 180 -4 28 -13 65 -20 83 -7 18 -10
46 -7 61 4 17 0 36 -8 48 -8 11 -19 51 -24 89 -8 64 -23 124 -49 199 -17 50
-35 136 -43 210 -4 39 -19 122 -33 185 -58 257 -66 307 -60 366 6 52 4 61 -15
78 -22 20 -32 138 -13 150 19 12 49 -51 56 -116 5 -42 14 -74 26 -88 13 -15
17 -31 13 -54 -6 -37 41 -146 63 -146 20 0 39 67 24 85 -8 10 -12 50 -11 117
1 78 -2 108 -13 123 -10 12 -16 43 -16 80 0 69 -4 76 -47 99 -37 18 -44 51
-17 71 14 10 15 17 5 48 -7 20 -9 46 -6 58 5 16 2 27 -13 38 -25 19 -38 164
-14 167 6 1 17 2 22 3 25 3 8 31 -19 31 -50 0 -81 75 -79 192 1 60 -2 81 -15
96 -9 10 -17 25 -17 34 0 31 -33 110 -51 121 -23 14 -25 35 -4 43 19 8 19 24
0 24 -27 0 -48 46 -40 89 13 75 -33 116 -91 82 -46 -27 -58 -19 -51 35 3 28 0
47 -8 54 -8 6 -10 27 -7 59 8 91 -17 129 -52 79z m153 -335 c32 -19 37 -29 22
-52 -5 -8 -3 -34 5 -64 9 -36 10 -56 3 -70 -7 -11 -8 -43 -4 -79 7 -59 7 -60
-16 -56 -18 2 -25 10 -27 33 -2 17 -9 37 -17 45 -13 15 -29 243 -17 254 9 9
18 7 51 -11z m61 -489 c0 -67 -2 -74 -20 -74 -18 0 -20 7 -20 73 0 78 4 89 26
80 10 -4 14 -25 14 -79z m82 -210 c9 -59 5 -74 -22 -74 -22 0 -24 5 -20 70 4
79 31 82 42 4z m-77 -109 c0 -23 -5 -31 -22 -33 -23 -3 -35 43 -16 62 16 16
38 0 38 -29z"/>
<path d="M9862 13497 c-17 -20 23 -56 41 -38 8 8 9 16 1 28 -14 23 -29 26 -42
10z"/>
<path d="M9866 13316 c-8 -40 8 -86 29 -86 18 0 19 28 3 81 -14 48 -24 49 -32
5z"/>
<path d="M9795 13209 c-4 -6 -4 -30 0 -55 8 -53 31 -59 40 -10 10 49 -21 98
-40 65z"/>
<path d="M12871 12823 c-918 -3 -901 -2 -901 -48 0 -25 -61 -85 -85 -85 -8 0
-24 -14 -37 -30 -19 -26 -28 -30 -64 -28 -56 2 -74 -14 -74 -66 0 -65 -61 -98
-76 -42 -7 30 13 165 27 183 23 27 -2 31 -59 11 -31 -12 -79 -24 -107 -27
l-50 -6 -6 -553 c-4 -304 -10 -563 -13 -576 -12 -48 13 -61 114 -59 93 2 130
14 100 33 -8 5 -29 7 -47 4 -76 -14 -123 23 -123 98 0 60 10 78 41 78 37 0 42
-12 28 -60 -16 -54 -7 -61 83 -68 84 -5 97 -12 90 -47 -8 -47 -13 -46 1091
-46 1061 0 1117 2 1103 37 -3 8 -9 21 -12 29 -8 19 33 35 86 35 62 0 70 6 70
60 0 61 16 107 41 113 20 5 27 27 8 27 -7 0 -8 7 -4 18 12 31 6 741 -6 765 -7
12 -25 37 -40 55 -32 36 -35 52 -17 81 19 31 -5 51 -60 51 -27 0 -52 6 -62 15
-22 19 -124 56 -147 53 -10 -2 -411 -4 -892 -5z m1074 -137 c60 -60 50 -208
-14 -214 -29 -3 -31 -1 -31 31 0 19 -7 40 -16 48 -9 8 -13 21 -10 35 7 25 0
29 -76 39 -47 7 -73 43 -53 75 13 22 176 10 200 -14z m-1195 -295 c12 -24 5
-43 -33 -96 -37 -52 -33 -105 11 -147 22 -20 29 -33 25 -50 -32 -131 -173 -22
-173 134 l0 70 56 54 c60 58 96 68 114 35z m202 -22 c79 -21 95 -152 33 -258
-34 -58 -38 -61 -75 -61 -67 0 -95 66 -40 95 64 33 68 98 10 155 -71 70 -39
100 72 69z m1036 -457 c15 -19 16 -78 1 -87 -5 -4 -9 -21 -7 -38 4 -42 -42
-71 -91 -57 -18 5 -53 6 -79 3 -37 -4 -51 -1 -61 11 -26 31 -6 46 58 46 85 0
91 4 91 59 0 80 47 114 88 63z m-2294 -24 c3 -7 7 -25 10 -41 11 -49 39 -68
92 -60 l46 6 -4 -29 -3 -29 -85 3 c-97 4 -105 10 -114 75 -7 58 44 123 58 75z"/>
<path d="M10680 12591 c0 -31 4 -41 20 -46 43 -14 51 11 18 55 -29 40 -38 38
-38 -9z"/>
<path d="M10152 12578 c-21 -21 -11 -78 13 -78 18 0 60 59 49 70 -17 15 -50
20 -62 8z"/>
<path d="M11037 11584 c-16 -16 -8 -66 10 -62 10 2 19 10 21 18 3 19 -21 54
-31 44z"/>
<path d="M11403 11383 c-7 -3 -13 -11 -13 -19 0 -16 7 -17 72 -14 34 1 48 -3
56 -15 8 -16 9 -16 16 0 12 31 -8 46 -65 49 -30 2 -60 1 -66 -1z"/>
<path d="M10197 11183 c-14 -13 -7 -169 7 -189 22 -30 31 -10 35 82 3 92 -14
136 -42 107z"/>
<path d="M10238 9583 c-8 -15 0 -428 10 -538 6 -60 14 -177 17 -260 8 -183 8
-180 39 -160 18 12 25 29 31 68 10 71 6 355 -5 375 -5 10 -13 69 -18 133 -5
63 -14 124 -20 135 -23 43 -35 132 -23 162 16 39 11 86 -11 90 -9 2 -18 -1
-20 -5z"/>
<path d="M10040 8815 c-40 -24 -88 -45 -102 -45 -7 0 -22 -7 -32 -15 -11 -8
-29 -15 -40 -15 -11 0 -27 -7 -36 -15 -10 -9 -40 -18 -69 -22 -28 -3 -61 -14
-73 -24 -11 -11 -35 -19 -52 -19 -17 0 -44 -9 -61 -20 -16 -10 -53 -22 -82
-26 -29 -3 -64 -15 -77 -25 -13 -11 -31 -19 -40 -19 -8 0 -28 -11 -43 -25
l-28 -25 27 -24 c16 -14 36 -30 45 -35 18 -11 6 -29 -31 -45 -7 -3 -2 -13 12
-25 23 -20 23 -21 23 -285 1 -234 -1 -268 -16 -282 -12 -12 -16 -33 -15 -78 1
-33 -4 -76 -12 -94 -11 -28 -11 -34 2 -42 15 -10 137 -16 217 -11 26 2 51 -4
68 -15 21 -14 31 -15 45 -6 19 11 52 0 130 -44 33 -18 45 -3 53 66 8 70 9 70
92 70 71 0 75 -1 81 -25 8 -31 18 -32 38 -3 22 31 82 27 115 -9 l25 -26 22 28
c21 27 23 27 160 31 162 4 169 3 182 -36 11 -30 5 -40 -30 -53 -18 -6 -24 -37
-11 -50 3 -4 13 -1 20 5 8 7 34 12 57 13 26 0 53 9 74 24 28 20 46 23 140 26
131 3 147 8 136 44 -4 14 -9 174 -11 355 -4 341 -5 352 -46 358 -38 5 -19 23
30 28 l48 5 -3 43 c-2 38 1 44 28 60 16 9 30 22 30 29 0 20 -94 102 -124 109
-16 3 -50 22 -76 40 -26 19 -62 37 -79 40 -39 8 -91 55 -91 82 0 32 -22 38
-39 11 -9 -13 -28 -38 -43 -55 -33 -38 -41 -151 -13 -174 21 -18 20 -60 -2
-60 -10 0 -36 -12 -58 -25 -22 -14 -47 -25 -56 -25 -8 0 -37 -14 -64 -31 -27
-17 -67 -37 -90 -44 -22 -7 -54 -19 -71 -26 -39 -16 -78 -6 -91 23 -6 15 -6
86 0 207 9 174 8 185 -10 210 -24 31 -49 36 -83 16z"/>
<path d="M8696 5995 c-11 -8 -28 -15 -38 -15 -46 0 -88 -121 -74 -213 15 -101
79 -146 186 -130 154 23 169 292 19 351 -66 26 -68 26 -93 7z"/>
<path d="M9312 5977 c-12 -14 -19 -118 -8 -135 28 -46 106 14 106 81 0 59 -64
95 -98 54z"/>
<path d="M10118 5983 c-27 -13 -48 -28 -48 -34 0 -5 -10 -23 -21 -38 -30 -41
-24 -159 12 -213 56 -85 173 -94 242 -18 l39 44 -4 97 c-2 76 -7 101 -19 111
-9 7 -18 19 -21 26 -3 13 -102 53 -123 51 -5 -1 -31 -12 -57 -26z"/>
<path d="M10602 5982 c-9 -6 -12 -49 -10 -178 l3 -169 80 0 c90 1 115 16 155
95 38 75 11 208 -49 240 -25 13 -164 23 -179 12z"/>
<path d="M12720 5985 c-94 -34 -119 -215 -42 -304 35 -40 40 -42 104 -47 89
-7 145 37 159 127 28 174 -74 277 -221 224z"/>
<path d="M14464 5995 c-10 -8 -29 -15 -40 -15 -55 -1 -98 -132 -75 -227 22
-88 58 -118 146 -118 73 0 125 24 125 58 0 6 7 18 15 27 48 53 8 242 -55 257
-14 3 -34 12 -45 19 -25 18 -46 18 -71 -1z"/>
<path d="M15868 5844 c-18 -51 -13 -58 39 -52 36 4 42 34 13 71 -29 36 -32 35
-52 -19z"/>
<path d="M7755 5979 c-3 -8 -4 -89 -3 -179 l3 -165 75 0 c83 0 113 15 156 81
48 72 26 206 -42 250 -32 21 -182 31 -189 13z"/>
<path d="M9668 5983 c-11 -12 -16 -40 -17 -85 l-1 -68 36 0 c89 0 132 133 50
154 -13 3 -30 8 -38 11 -8 3 -21 -2 -30 -12z"/>
<path d="M15521 5986 c-14 -16 -22 -98 -14 -133 4 -17 12 -23 34 -23 74 0 113
133 44 152 -11 3 -27 9 -36 12 -9 4 -21 0 -28 -8z"/>
</g>
</svg>
