<svg width="1512" height="900" viewBox="0 0 1512 900" fill="none" xmlns="http://www.w3.org/2000/svg">
<g clip-path="url(#clip0_4817_18724)">
<rect width="1512" height="900" fill="#1B1C1E"/>
<g opacity="0.09">
<line x1="-10.6172" y1="624.328" x2="1500.96" y2="624.328" stroke="white" stroke-opacity="0.18" stroke-width="0.6"/>
<line x1="-10.6172" y1="301.59" x2="1500.96" y2="301.59" stroke="white" stroke-opacity="0.18" stroke-width="0.6"/>
<line x1="-10.6172" y1="462.958" x2="1500.96" y2="462.958" stroke="white" stroke-opacity="0.18" stroke-width="0.6"/>
<line x1="-10.6172" y1="785.696" x2="1500.96" y2="785.696" stroke="white" stroke-opacity="0.18" stroke-width="0.6"/>
<line x1="-10.6172" y1="140.22" x2="1500.96" y2="140.22" stroke="white" stroke-opacity="0.18" stroke-width="0.6"/>
<line x1="-10.6172" y1="543.642" x2="1500.96" y2="543.642" stroke="white" stroke-opacity="0.18" stroke-width="0.6"/>
<line x1="-10.6172" y1="866.381" x2="1500.96" y2="866.381" stroke="white" stroke-opacity="0.18" stroke-width="0.6"/>
<line x1="-10.6172" y1="220.904" x2="1500.96" y2="220.904" stroke="white" stroke-opacity="0.18" stroke-width="0.6"/>
<line x1="-10.6172" y1="382.272" x2="1500.96" y2="382.272" stroke="white" stroke-opacity="0.18" stroke-width="0.6"/>
<line x1="-10.6172" y1="705.012" x2="1500.96" y2="705.013" stroke="white" stroke-opacity="0.18" stroke-width="0.6"/>
<line x1="-10.6172" y1="59.534" x2="1500.96" y2="59.534" stroke="white" stroke-opacity="0.18" stroke-width="0.6"/>
<line x1="36.3273" y1="-49.8457" x2="36.3273" y2="1117.56" stroke="white" stroke-opacity="0.18" stroke-width="0.6"/>
<line x1="681.808" y1="-49.8457" x2="681.808" y2="1117.56" stroke="white" stroke-opacity="0.18" stroke-width="0.6"/>
<line x1="359.068" y1="-49.8457" x2="359.068" y2="1117.56" stroke="white" stroke-opacity="0.18" stroke-width="0.6"/>
<line x1="1004.54" y1="-49.8457" x2="1004.54" y2="1117.56" stroke="white" stroke-opacity="0.18" stroke-width="0.6"/>
<line x1="1327.28" y1="-49.8457" x2="1327.28" y2="1117.56" stroke="white" stroke-opacity="0.18" stroke-width="0.6"/>
<line x1="197.698" y1="-49.8457" x2="197.698" y2="1117.56" stroke="white" stroke-opacity="0.18" stroke-width="0.6"/>
<line x1="843.173" y1="-49.8457" x2="843.173" y2="1117.56" stroke="white" stroke-opacity="0.18" stroke-width="0.6"/>
<line x1="520.439" y1="-49.8457" x2="520.439" y2="1117.56" stroke="white" stroke-opacity="0.18" stroke-width="0.6"/>
<line x1="1165.92" y1="-49.8457" x2="1165.92" y2="1117.56" stroke="white" stroke-opacity="0.18" stroke-width="0.6"/>
<line x1="1488.66" y1="-49.8457" x2="1488.66" y2="1117.56" stroke="white" stroke-opacity="0.18" stroke-width="0.6"/>
<line x1="117.015" y1="-49.8457" x2="117.015" y2="1117.56" stroke="white" stroke-opacity="0.18" stroke-width="0.6"/>
<line x1="762.491" y1="-49.8457" x2="762.491" y2="1117.56" stroke="white" stroke-opacity="0.18" stroke-width="0.6"/>
<line x1="439.751" y1="-49.8457" x2="439.751" y2="1117.56" stroke="white" stroke-opacity="0.18" stroke-width="0.6"/>
<line x1="1085.23" y1="-49.8457" x2="1085.23" y2="1117.56" stroke="white" stroke-opacity="0.18" stroke-width="0.6"/>
<line x1="1407.97" y1="-49.8457" x2="1407.97" y2="1117.56" stroke="white" stroke-opacity="0.18" stroke-width="0.6"/>
<line x1="278.384" y1="-49.8457" x2="278.384" y2="1117.56" stroke="white" stroke-opacity="0.18" stroke-width="0.6"/>
<line x1="923.861" y1="-49.8457" x2="923.86" y2="1117.56" stroke="white" stroke-opacity="0.18" stroke-width="0.6"/>
<line x1="601.12" y1="-49.8457" x2="601.12" y2="1117.56" stroke="white" stroke-opacity="0.18" stroke-width="0.6"/>
<line x1="1246.6" y1="-49.8457" x2="1246.6" y2="1117.56" stroke="white" stroke-opacity="0.18" stroke-width="0.6"/>
</g>
<g opacity="0.5">
<rect x="440.141" y="785.309" width="80.2262" height="80.2262" fill="#3F76FF" fill-opacity="0.07"/>
<rect x="1165.39" y="221.433" width="80.8965" height="80" fill="#3F76FF" fill-opacity="0.07"/>
<rect x="520.367" y="463.207" width="80.2262" height="79.0801" fill="#3F76FF" fill-opacity="0.07"/>
<rect x="1085.39" y="301.659" width="80.2262" height="80.3408" fill="#3F76FF" fill-opacity="0.07"/>
<rect x="1166" y="382" width="80.2262" height="80.08" fill="#3F76FF" fill-opacity="0.07"/>
<rect x="1247" y="301" width="80.2262" height="81.08" fill="#3F76FF" fill-opacity="0.07"/>
<rect x="439.994" y="221.433" width="80.2262" height="79.0801" fill="#3F76FF" fill-opacity="0.07"/>
<rect x="1085.39" y="221.433" width="80" height="80" fill="#3F76FF" fill-opacity="0.07"/>
<rect x="439.994" y="463.207" width="80.2262" height="79.0801" fill="#3F76FF" fill-opacity="0.07"/>
<rect x="359.914" y="785.309" width="80.2262" height="80.2262" fill="#3F76FF" fill-opacity="0.07"/>
<rect x="359.914" y="865.535" width="80.2262" height="81.3723" fill="#3F76FF" fill-opacity="0.07"/>
<rect x="198.314" y="705.082" width="80.2262" height="80.2262" fill="#3F76FF" fill-opacity="0.07"/>
<rect x="1005.16" y="59.835" width="80.2262" height="80.2262" fill="#3F76FF" fill-opacity="0.07"/>
<rect x="924.059" y="-20.8525" width="80.2262" height="79.5062" fill="#3F76FF" fill-opacity="0.07"/>
<rect x="924.059" y="59.4053" width="80.2262" height="80.0285" fill="#3F76FF" fill-opacity="0.07"/>
<rect x="116.943" y="58.6885" width="81.3723" height="80.2262" fill="#3F76FF" fill-opacity="0.07"/>
<rect x="36.7168" y="59.835" width="81.3723" height="80.2262" fill="#3F76FF" fill-opacity="0.07"/>
<rect x="116.943" y="138.915" width="81.3723" height="82.5184" fill="#3F76FF" fill-opacity="0.07"/>
<rect x="440.141" y="-21.5381" width="81.3723" height="80.2262" fill="#3F76FF" fill-opacity="0.07"/>
<rect x="198.316" y="300.513" width="80.2262" height="81.3723" fill="#3F76FF" fill-opacity="0.07"/>
<rect x="1166.76" y="705.082" width="80.2262" height="80.2262" fill="#3F76FF" fill-opacity="0.07"/>
<rect x="1246.99" y="785.309" width="80.2262" height="80.2262" fill="#3F76FF" fill-opacity="0.07"/>
<rect x="37" y="220" width="81" height="82" fill="#3F76FF" fill-opacity="0.07"/>
<rect x="-44" y="140" width="81" height="82" fill="#3F76FF" fill-opacity="0.07"/>
</g>
</g>
<defs>
<clipPath id="clip0_4817_18724">
<rect width="1512" height="900" fill="white"/>
</clipPath>
</defs>
</svg>
