<svg width="51" height="12" viewBox="0 0 51 12" fill="none" xmlns="http://www.w3.org/2000/svg">
<g clip-path="url(#clip0_4942_85899)">
<path fill-rule="evenodd" clip-rule="evenodd" d="M15.3456 0.0493489C15.205 0.0895139 14.7431 0.119635 14.3113 0.109594C13.8796 0.0995527 13.5181 0.119635 13.4879 0.1598C13.4679 0.199965 13.3072 0.189926 13.1265 0.149761C12.9558 0.0995552 12.765 0.0895213 12.7047 0.119645C12.6445 0.15981 12.4637 0.179893 12.293 0.169851C12.1324 0.149769 11.8412 0.189926 11.6504 0.250174C11.4094 0.310422 11.2688 0.310424 11.1785 0.240135C11.0881 0.169846 10.9877 0.169844 10.827 0.250174C10.6563 0.350587 10.6262 0.340548 10.6864 0.240135C10.7467 0.149764 10.6764 0.129684 10.3852 0.17989C10.1743 0.210014 9.96346 0.290337 9.93334 0.360625C9.89317 0.420873 9.83292 0.430921 9.8028 0.380715C9.76264 0.320468 8.37694 0.280298 8.37694 0.350587C8.37694 0.38071 7.97529 0.46104 7.8548 0.450999C7.44311 0.420875 7.19208 0.430919 6.50927 0.491167C5.77626 0.561455 5.36457 0.6217 5.36457 0.651824C5.36457 0.671907 4.56127 0.762283 4.15962 0.782365C3.99896 0.792407 3.79813 0.842613 3.73788 0.882778C3.6676 0.932984 3.56718 0.932979 3.50694 0.902855C3.45673 0.872732 3.21574 0.892812 2.98479 0.963101C2.7438 1.02335 2.4526 1.07356 2.32207 1.07356C2.20157 1.07356 2.07104 1.11372 2.04091 1.16393C2.01079 1.21413 1.83005 1.2543 1.63926 1.2543C1.44848 1.2543 1.29786 1.29447 1.29786 1.34467C1.29786 1.40492 1.21753 1.425 1.10707 1.40492C0.996621 1.38484 0.825919 1.4752 0.705424 1.61578C0.474476 1.87685 0.434311 2.0576 0.605012 2.0576C0.655218 2.0576 0.685342 2.01743 0.655218 1.96723C0.564847 1.83669 0.795797 1.77645 1.22757 1.8367C1.43844 1.85678 1.5991 1.9371 1.5991 2.00739C1.5991 2.08772 1.74972 2.12789 2.04091 2.11784C2.47269 2.1078 2.60322 1.95719 2.18149 1.95719C1.82 1.95719 2.07104 1.83669 2.50281 1.79653C2.88438 1.76641 2.90446 1.77645 2.90446 2.03752V2.30863L3.10529 1.97728C3.21574 1.79653 3.35632 1.67603 3.40652 1.70616C3.46677 1.73628 3.50694 1.69611 3.50694 1.60574C3.50694 1.51537 3.55714 1.47521 3.60735 1.50533C3.6676 1.5455 3.68768 1.61578 3.65756 1.66599C3.61739 1.71619 3.73788 1.75636 3.89854 1.75636C4.07929 1.75636 4.20982 1.70616 4.20982 1.62583C4.20982 1.5455 4.24999 1.55554 4.31024 1.65595C4.36044 1.73628 4.41065 1.75636 4.41065 1.69612C4.41065 1.63587 4.48094 1.58567 4.56127 1.58567C4.6416 1.58567 4.71189 1.62583 4.71189 1.67604C4.71189 1.72625 4.79222 1.72625 4.89263 1.67604C4.983 1.62583 5.25411 1.60575 5.4951 1.62583C5.73609 1.64592 5.99717 1.61578 6.06746 1.55554C6.16787 1.47521 6.20803 1.47521 6.23816 1.57563C6.27832 1.67604 6.35865 1.67604 6.64985 1.58567C6.97117 1.48525 7.02138 1.49529 7.02138 1.63587C7.03142 1.78649 7.04146 1.78649 7.16195 1.62583C7.24228 1.52542 7.33265 1.48525 7.36278 1.53546C7.44311 1.666 7.33265 1.95719 7.21216 1.95719C7.16195 1.95719 7.12179 1.99736 7.12179 2.03752C7.12179 2.07769 7.27241 2.09777 7.46319 2.07769C7.76443 2.03752 7.80459 2.00739 7.79455 1.7664C7.77447 1.53545 7.81463 1.50534 8.15604 1.47521C8.38698 1.45513 8.52756 1.48525 8.52756 1.55554C8.52756 1.62583 8.46731 1.65596 8.38698 1.62583C8.28657 1.58567 8.26649 1.63587 8.29661 1.78649C8.33678 1.95719 8.32674 1.97727 8.23636 1.85677C8.12591 1.69611 7.96525 1.77645 8.07571 1.94715C8.15604 2.08773 8.42715 2.08772 8.42715 1.95719C8.42715 1.89694 8.47736 1.85677 8.52756 1.85677C8.58781 1.85677 8.61793 1.91703 8.60789 1.97728C8.58781 2.04757 8.64806 2.08772 8.72839 2.06764C8.80872 2.04756 9.07983 2.01744 9.33086 1.99735C9.58189 1.96723 9.89317 1.93711 10.0338 1.92707C10.2245 1.90699 10.2747 1.85677 10.2547 1.70616C10.2346 1.58566 10.2547 1.54549 10.3049 1.61578C10.4956 1.8869 11.2387 2.0576 11.2387 1.8367C11.2387 1.74633 11.1082 1.72624 10.7668 1.75636C10.6161 1.7664 10.5358 1.7162 10.5358 1.62583C10.5358 1.53546 10.5057 1.45513 10.4655 1.42501C10.4153 1.40493 10.4555 1.40493 10.5358 1.42501C11.1182 1.58567 11.2688 1.58567 11.2086 1.42501C11.1684 1.31455 11.1885 1.28443 11.2989 1.3246C11.3692 1.35472 11.4395 1.41496 11.4395 1.46516C11.4395 1.51537 11.5701 1.55554 11.7307 1.55554C11.8914 1.55554 12.0721 1.62583 12.1424 1.70616C12.2127 1.79653 12.3332 1.84673 12.4135 1.81661C12.4838 1.78648 12.5441 1.80657 12.5441 1.84674C12.5441 1.96723 12.8754 1.91703 12.9156 1.78649C12.9357 1.73628 12.7951 1.70615 12.5842 1.71619C12.283 1.74632 12.2428 1.72624 12.3432 1.60574C12.4035 1.53545 12.5641 1.48525 12.6947 1.51537C12.8252 1.53545 12.9658 1.51537 12.9959 1.45512C13.0361 1.39488 13.1164 1.38484 13.1767 1.42501C13.2469 1.47521 13.3775 1.50533 13.4879 1.50533C13.749 1.50533 13.9498 1.82665 13.7591 1.94715C13.6687 2.0074 13.7189 2.04757 13.9298 2.07769L14.231 2.11784L13.99 1.80657C13.6988 1.41496 13.6888 1.35471 13.9599 1.35471C14.1306 1.35471 14.1607 1.40492 14.1205 1.60574C14.0904 1.81661 14.1306 1.89694 14.3615 2.00739C14.5724 2.11785 14.6427 2.1279 14.6828 2.02748C14.713 1.93711 14.7833 1.9371 14.9941 2.0576C15.215 2.16805 15.2853 2.17809 15.3456 2.06764C15.3958 1.99735 15.4661 1.94715 15.5163 1.94715C15.6669 1.96723 15.6167 1.72625 15.456 1.67604C15.3757 1.64592 15.3355 1.66599 15.3757 1.70616C15.4661 1.79653 15.2853 2.0576 15.1347 2.0576C15.0745 2.0576 15.0544 1.98731 15.0945 1.90698C15.1347 1.79653 15.0845 1.75636 14.9038 1.75636C14.5724 1.75636 14.5824 1.61578 14.9138 1.46516C15.1447 1.36475 15.1749 1.37479 15.1146 1.50533C15.0745 1.62583 15.1146 1.64591 15.3054 1.5957C15.456 1.55554 15.6267 1.58566 15.7271 1.66599C15.8476 1.7664 15.8778 1.76641 15.8175 1.67604C15.6669 1.43505 15.8978 1.56559 16.1589 1.87686C16.3597 2.11785 16.4501 2.15801 16.5104 2.0576C16.5606 1.97727 16.5505 1.94715 16.4903 1.98732C16.43 2.02748 16.3597 1.96723 16.3296 1.85677C16.2895 1.70616 16.3397 1.63587 16.5204 1.5957C16.8116 1.52542 16.9723 1.62583 16.7614 1.75636C16.6811 1.80657 16.6409 1.87686 16.671 1.90698C16.7714 1.99735 17.0626 1.84674 17.0626 1.69612C17.0626 1.52542 17.2835 1.51538 17.4442 1.67604C17.5245 1.75637 17.5647 1.75637 17.5647 1.68608C17.5647 1.63587 17.6852 1.5957 17.8458 1.61578C18.1872 1.65595 18.4885 1.56558 18.4182 1.44509C18.378 1.39488 18.4282 1.35471 18.5086 1.35471C18.609 1.35471 18.6692 1.44508 18.6692 1.56558C18.6692 1.72624 18.619 1.76641 18.4784 1.72625C18.358 1.69612 18.2575 1.73629 18.2274 1.82666C18.1471 2.03752 18.137 2.03752 18.4282 1.97728C18.619 1.94715 18.6793 1.96723 18.6291 2.04756C18.5889 2.10781 18.609 2.15801 18.6592 2.15801C18.7194 2.15801 18.7696 2.10781 18.7696 2.04756C18.7696 1.97727 18.8701 1.95719 19.0207 1.97728C19.1612 2.0074 19.3018 1.98731 19.332 1.94715C19.3621 1.89694 19.2416 1.85677 19.0809 1.85677C18.9102 1.85677 18.7696 1.80657 18.7696 1.75636C18.7696 1.69611 18.8399 1.65595 18.9203 1.65595C19.0006 1.65595 19.0709 1.59571 19.0709 1.52542C19.0809 1.44509 19.111 1.45512 19.2014 1.55554C19.3319 1.7162 20.1754 1.79653 20.1754 1.65595C20.1754 1.56558 20.7678 1.60574 20.8582 1.70616C20.8883 1.73628 20.7478 1.75636 20.5469 1.75636C20.2156 1.75636 20.1754 1.78649 20.1955 2.00739C20.2156 2.21826 20.2357 2.2283 20.3762 2.11784C20.4566 2.03751 20.6373 1.94715 20.7779 1.90698C21.0088 1.83669 21.0189 1.83669 20.8783 2.00739C20.7377 2.17809 20.7478 2.18814 20.9586 2.13793C21.0791 2.09777 21.1795 2.10781 21.1795 2.15801C21.1795 2.29859 21.5009 2.36888 21.6414 2.25842C21.7117 2.19818 21.9226 2.13793 22.1033 2.13793C22.515 2.12789 22.6456 2.0576 22.4749 1.94715C22.3644 1.87686 22.3744 1.85677 22.515 1.85677C22.6154 1.85677 22.6757 1.81661 22.6456 1.7664C22.6154 1.71619 22.7359 1.65595 22.9066 1.61578C23.1075 1.57562 23.248 1.5957 23.2982 1.66599C23.3384 1.73628 23.4388 1.75637 23.5292 1.72625C23.6196 1.68608 23.6899 1.70615 23.6899 1.7664C23.6899 1.82665 23.7601 1.84673 23.8405 1.81661C23.9208 1.78648 24.0614 1.72624 24.1618 1.68608C24.2622 1.64591 24.3024 1.666 24.2622 1.72625C24.222 1.78649 24.2622 1.86682 24.3526 1.89694C24.4329 1.92707 24.4731 1.91702 24.4429 1.86681C24.4128 1.81661 24.5434 1.77645 24.7341 1.78649C24.9249 1.79653 25.0555 1.8367 25.0253 1.87686C25.0053 1.92707 25.0755 1.95719 25.196 1.95719C25.3266 1.95719 25.3868 1.91702 25.3366 1.84674C25.2965 1.77645 25.3667 1.78648 25.5073 1.86681C25.7784 2.00739 26.0897 2.03752 26.2805 1.92707C26.3407 1.87686 26.4914 1.89694 26.6018 1.95719C26.7324 2.02748 26.8026 2.02748 26.8026 1.95719C26.8026 1.90698 26.9231 1.85677 27.0838 1.85677C27.2344 1.85677 27.3047 1.89694 27.2445 1.93711C27.1541 1.98732 27.1641 2.04756 27.2645 2.13793C27.385 2.23835 27.4051 2.23834 27.4051 2.10781C27.4051 1.9371 27.5658 1.89694 27.626 2.0576C27.6662 2.17809 28.4092 2.2785 28.4092 2.16805C28.4092 2.04756 28.8209 2.10781 28.9113 2.24839C28.9615 2.32872 29.072 2.35884 29.2125 2.30863C29.333 2.26847 29.574 2.2283 29.7347 2.21826C30.0058 2.19817 30.0158 2.20823 29.8552 2.32872C29.6443 2.48938 29.6644 2.48937 30.1062 2.35884C30.3874 2.27851 30.4777 2.29859 30.5882 2.43917C30.6886 2.57975 30.7087 2.57975 30.6685 2.44921C30.6284 2.3488 30.6685 2.28855 30.7589 2.28855C30.8392 2.28855 30.8894 2.32872 30.8593 2.37893C30.8292 2.41909 30.8794 2.45925 30.9597 2.45925C31.0501 2.45925 31.1204 2.48938 31.1204 2.52955C31.1204 2.65004 31.6425 2.65004 31.8735 2.53958C31.9839 2.47934 32.0442 2.46929 32.004 2.50946C31.9638 2.54962 32.0341 2.67011 32.1546 2.77053L32.3755 2.95127L32.1546 2.89103C32.0241 2.8609 31.8433 2.87094 31.753 2.90107C31.6024 2.96131 31.6024 2.98139 31.7229 3.06172C31.8032 3.11193 31.9538 3.13202 32.0643 3.10189C32.1848 3.06173 32.2249 3.08181 32.1848 3.1521C32.1044 3.27259 32.255 3.29268 32.6065 3.2023C32.8776 3.12197 32.8977 2.96131 32.6266 3.01152C32.5161 3.0316 32.4458 3.01152 32.4759 2.96131C32.5061 2.91111 32.6467 2.87095 32.7772 2.88099C32.9077 2.89103 32.9881 2.94124 32.968 2.9814C32.9378 3.02157 32.9981 3.06172 33.0885 3.06172C33.1889 3.06172 33.2391 3.09185 33.1989 3.12197C33.1286 3.2023 33.45 3.56379 33.5403 3.50354C33.5905 3.48346 33.6006 3.38305 33.5704 3.28264C33.5202 3.14206 33.5303 3.14206 33.6106 3.26255C33.6709 3.34288 33.701 3.43325 33.6709 3.47341C33.6106 3.58387 34.4742 3.64413 34.6147 3.53367C34.6951 3.46338 34.7352 3.48346 34.7352 3.60396C34.7352 3.72445 34.8356 3.76461 35.167 3.77465C35.5586 3.78469 35.5687 3.7847 35.3076 3.86503C35.1469 3.91523 34.9561 3.92528 34.8859 3.90519C34.8156 3.87507 34.6549 3.90519 34.5445 3.96544C34.424 4.02569 34.2733 4.04577 34.2131 4.00561C34.0022 3.87507 33.1889 3.85498 32.8977 3.97548C32.6969 4.06585 32.5964 4.06585 32.486 3.97548C32.4057 3.90519 32.3153 3.89515 32.2852 3.94536C32.2249 4.04577 31.9237 4.03572 31.7429 3.92527C31.6727 3.88511 31.6224 3.90519 31.6224 3.96544C31.6224 4.03573 31.4216 4.05581 30.9999 4.00561C30.6484 3.96544 30.2769 3.94536 30.1665 3.94536C28.9916 4.00561 28.6101 4.00561 28.6101 3.9554C28.6101 3.92528 28.4092 3.92527 28.1582 3.96544C27.9172 4.0056 27.6963 3.99557 27.6863 3.94536C27.6662 3.89515 27.5256 3.89515 27.365 3.96544C27.1842 4.02569 27.0336 4.03572 26.9633 3.97548C26.9031 3.92527 26.6721 3.91523 26.4512 3.9554C26.2303 3.99556 25.0354 4.02569 23.7903 4.01564C22.5451 4.0056 21.4105 4.02568 21.2699 4.07589C21.1093 4.11605 20.9586 4.10602 20.8883 4.03573C20.8181 3.96545 20.7478 3.96545 20.6574 4.03573C20.5871 4.08594 20.306 4.11606 20.0348 4.10602C19.7637 4.08594 19.4826 4.11605 19.4123 4.1763C19.3219 4.24659 19.2215 4.24659 19.0809 4.16626C18.9303 4.09597 18.2676 4.07589 16.9321 4.11606C13.9699 4.20643 11.6002 4.32693 11.4696 4.38718C11.4295 4.40726 11.1684 4.41729 10.8873 4.41729C10.6061 4.41729 10.3551 4.45746 10.3149 4.51771C10.2647 4.57795 10.2346 4.57796 10.2346 4.49763C10.2346 4.4173 10.0639 4.39721 9.71243 4.42733C8.39703 4.52775 7.31257 4.588 6.64985 4.59804C6.25824 4.60808 5.9068 4.64825 5.86663 4.68842C5.82647 4.72858 5.74613 4.73862 5.67584 4.70849C5.60556 4.67837 5.46498 4.74866 5.36457 4.86915C5.26416 4.9796 5.13362 5.06998 5.06333 5.06998C4.90267 5.06998 4.51106 5.41138 4.51106 5.55196C4.51106 5.61221 4.59139 5.71262 4.6918 5.76282C4.79222 5.83311 4.82234 5.90341 4.76209 5.94357C4.6416 6.04398 4.60143 6.39542 4.72193 6.31509C4.77213 6.28497 4.8123 6.30505 4.8123 6.3653C4.8123 6.41551 4.76209 6.47576 4.70184 6.49584C4.61147 6.52596 4.61147 6.59625 4.70184 6.75691C4.79222 6.93765 4.90267 6.97782 5.24407 6.96777C5.47502 6.96777 5.82647 7.00794 6.01725 7.06819C6.46911 7.20877 6.931 7.2188 6.72014 7.07823C6.5896 6.9979 6.59964 6.97781 6.75026 6.97781C6.84063 6.97781 6.92096 7.02802 6.92096 7.08827C6.92096 7.14851 7.01133 7.1686 7.12179 7.12843C7.24228 7.08827 7.32261 7.10835 7.32261 7.18868C7.32261 7.26901 7.37282 7.25897 7.49331 7.1686C7.62385 7.05815 7.66401 7.05815 7.70418 7.15856C7.7343 7.25897 7.77447 7.25897 7.89496 7.1686C7.97529 7.09831 8.0255 7.08827 8.01546 7.13847C7.97529 7.34934 8.03554 7.39955 8.17612 7.27905C8.29661 7.17864 8.32674 7.17864 8.32674 7.28909C8.32674 7.36942 8.38699 7.3393 8.47736 7.21881C8.57108 7.09162 8.62128 7.09162 8.62798 7.21881C8.62798 7.32926 8.6581 7.37947 8.69826 7.34935C8.72839 7.30918 8.80872 7.31922 8.87901 7.37946C8.93925 7.42967 9.16016 7.47988 9.36099 7.49997C9.57185 7.51001 9.73251 7.57025 9.73251 7.64053C9.73251 7.71082 9.65218 7.74095 9.52165 7.71083C9.33086 7.66062 9.32082 7.69075 9.35094 8.31331C9.37103 8.67479 9.42123 8.9459 9.4614 8.91578C9.50156 8.8957 9.51161 8.98607 9.47144 9.11661C9.38107 9.51826 9.50156 9.78937 9.76264 9.71908C10.3752 9.56846 10.4956 9.5785 10.7065 9.77933C11.0078 10.0605 11.1483 10.0404 11.0981 9.73916C11.058 9.51825 11.0881 9.48813 11.3391 9.48813C11.4998 9.48813 11.7006 9.45801 11.791 9.41784C11.9416 9.36764 11.9516 9.38771 11.8412 9.59858C11.7408 9.76928 11.7408 9.83958 11.8311 9.8697C11.8914 9.88978 11.9215 9.93999 11.9014 9.98015C11.8713 10.0203 11.9014 10.0605 11.9717 10.0605C12.042 10.0605 12.2328 10.1006 12.4135 10.1308C12.5943 10.1609 12.765 10.1508 12.7951 10.0906C12.8252 10.0404 12.9357 9.99019 13.026 9.99019C13.1767 9.99019 13.1767 10.0103 13.0461 10.1006C12.9256 10.191 12.9256 10.2011 13.0762 10.1508C13.1767 10.1207 13.3072 10.0906 13.3574 10.0906C13.4177 10.0906 13.4277 10.0404 13.3976 9.99019C13.3674 9.92994 13.3775 9.88978 13.4177 9.88978C13.4679 9.88978 13.5482 9.97011 13.6185 10.0705C13.6888 10.191 13.8595 10.2613 14.0402 10.2713C14.2109 10.2713 14.3314 10.2412 14.3013 10.191C14.2712 10.1408 14.2912 10.0806 14.3515 10.0404C14.4017 10.0103 14.4519 10.0504 14.4519 10.1308C14.4519 10.2211 14.5222 10.2914 14.6025 10.2914C14.6929 10.2914 14.723 10.2312 14.6828 10.1207C14.6326 9.99019 14.6628 9.97011 14.7933 10.0203C14.8937 10.0605 14.9841 10.0906 15.0142 10.0906C15.0343 10.0906 15.0243 10.1609 14.9941 10.2412C14.954 10.3216 14.9841 10.3918 15.0443 10.3918C15.1046 10.3918 15.1548 10.3416 15.1548 10.2914C15.1548 10.2312 15.2853 10.191 15.446 10.191C15.6167 10.191 15.7773 10.1408 15.8075 10.0906C15.8978 9.93998 16.0585 10.0705 15.9882 10.2412C15.9581 10.3517 16.0083 10.3918 16.169 10.3918C16.3597 10.3918 16.3798 10.3718 16.2593 10.2914C16.179 10.2412 16.1489 10.1709 16.179 10.1308C16.2192 10.0906 16.1388 9.98015 16.0083 9.8697C15.6669 9.60863 15.697 9.51825 16.1087 9.52829C16.3497 9.53834 16.4501 9.57851 16.4099 9.65884C16.3899 9.72912 16.4099 9.78936 16.4602 9.78936C16.5104 9.78936 16.5706 9.70904 16.5907 9.60863C16.6309 9.44797 16.6409 9.44797 16.6509 9.60863C16.661 9.72912 16.7513 9.78936 16.9421 9.7994C17.2032 9.7994 17.2032 9.80945 16.9923 9.88978C16.8417 9.95002 16.7815 10.0404 16.8216 10.1408C16.8718 10.2513 16.8417 10.2814 16.7212 10.2312C16.6208 10.191 16.5706 10.1006 16.6007 10.0304C16.6309 9.95003 16.5907 9.88978 16.5204 9.88978C16.4401 9.88978 16.3999 9.97011 16.43 10.1207C16.4702 10.3015 16.5505 10.3517 16.8417 10.3718C17.0425 10.3918 17.3639 10.422 17.5446 10.442C17.7856 10.4722 17.8961 10.4421 17.9362 10.3216C17.9965 10.181 18.0165 10.181 18.137 10.3416C18.2475 10.5023 18.4483 10.5324 19.7236 10.5525C20.8582 10.5625 21.1996 10.5425 21.29 10.432C21.3804 10.3216 21.3703 10.2914 21.2398 10.2914C21.1494 10.2914 21.0791 10.2412 21.0791 10.191C21.0791 10.0504 21.2097 10.0705 21.4406 10.2412C21.7117 10.442 21.9628 10.422 22.033 10.2011C22.0732 10.0705 22.1535 10.0203 22.2439 10.0605C22.3343 10.0906 22.3845 10.0605 22.3644 9.98015C22.3443 9.89982 22.4347 9.83958 22.5853 9.81949L22.8363 9.7994L22.5853 9.8697C22.4146 9.91991 22.3744 9.97011 22.4648 10.0304C22.5251 10.0705 22.6355 10.0705 22.7058 10.0304C22.7761 9.99019 22.7861 10.0002 22.746 10.0705C22.7058 10.1408 22.5351 10.191 22.3544 10.191C22.0833 10.191 22.0632 10.2111 22.1837 10.3316C22.264 10.4119 22.505 10.5425 22.7158 10.6328C23.0472 10.7634 23.1075 10.7634 23.1577 10.6429C23.1878 10.5625 23.2681 10.4923 23.3485 10.4923C23.4187 10.4923 23.4589 10.5525 23.4288 10.6228C23.3987 10.7132 23.4991 10.7634 23.7501 10.7734C24.0915 10.8035 24.1116 10.7835 23.9811 10.6328C23.8505 10.4722 23.8606 10.4621 24.0714 10.5123C24.1919 10.5525 24.2923 10.5324 24.2923 10.4621C24.2923 10.4019 24.3225 10.3918 24.3626 10.422C24.453 10.5224 24.704 10.2914 24.6337 10.1709C24.5936 10.1107 24.6538 10.0906 24.7844 10.1408C24.9048 10.181 24.9952 10.1609 24.9952 10.1006C24.9952 10.0404 25.0655 9.99019 25.1458 9.99019C25.2262 9.99019 25.2965 10.0304 25.2965 10.0705C25.2965 10.1107 25.4169 10.1408 25.5776 10.1308C25.7383 10.1308 25.919 10.2011 26.0295 10.3216C26.2202 10.5425 26.2504 10.6931 26.0998 10.6931C26.0495 10.6931 26.0094 10.6328 26.0295 10.5625C26.0395 10.5023 25.9793 10.442 25.8989 10.442C25.8186 10.442 25.6981 10.4019 25.6379 10.3718C25.5776 10.3316 25.5274 10.3617 25.5274 10.442C25.5274 10.5224 25.6077 10.5927 25.7081 10.5927C25.8086 10.5927 25.919 10.6328 25.9491 10.6931C25.9793 10.7433 26.1098 10.7734 26.2303 10.7533C26.3508 10.7232 26.5014 10.7031 26.5717 10.7031C26.642 10.6931 26.6721 10.6228 26.642 10.5425C26.6018 10.4621 26.5416 10.4119 26.5014 10.442C26.4612 10.4722 26.401 10.432 26.3709 10.3617C26.3407 10.2714 26.411 10.2412 26.6119 10.2513C26.8227 10.2613 26.9031 10.2211 26.9131 10.1107C26.9131 10.0103 26.9432 9.9902 26.9633 10.0605C26.9934 10.1308 27.0738 10.1609 27.144 10.1308C27.2244 10.1006 27.3047 10.1508 27.3449 10.2412C27.375 10.3316 27.4453 10.3818 27.5055 10.3416C27.5557 10.3115 27.6863 10.3316 27.7967 10.3818C27.9273 10.4521 27.9976 10.4621 28.0277 10.3918C28.0879 10.191 28.7004 10.4019 28.7406 10.6328C28.7707 10.8035 28.7908 10.7935 28.8009 10.5726C28.8109 10.3918 28.8511 10.3115 28.9414 10.3517C29.0318 10.3818 29.0619 10.5123 29.0318 10.6931C28.9916 10.9441 29.0218 10.9943 29.2025 10.9943C29.4636 10.9943 29.4636 10.9542 29.2427 10.7332C29.072 10.5625 29.072 10.5525 29.2527 10.6228C29.3933 10.673 29.4234 10.663 29.3732 10.5425C29.333 10.432 29.3832 10.3918 29.564 10.3918C29.7046 10.3918 29.815 10.442 29.815 10.5023C29.815 10.5625 29.7447 10.5826 29.6544 10.5525C29.564 10.5123 29.5138 10.5425 29.5339 10.6027C29.5841 10.7634 30.0962 10.8136 30.1765 10.673C30.2167 10.6027 30.1966 10.5927 30.1363 10.6328C30.056 10.683 30.0158 10.6228 30.0158 10.4923C30.0158 10.3416 30.0661 10.2914 30.1564 10.3216C30.2368 10.3517 30.3271 10.3316 30.3472 10.2613C30.3773 10.1709 30.4275 10.181 30.5581 10.2814C30.7087 10.4119 30.7489 10.4119 30.8292 10.2814C30.9095 10.1609 30.9296 10.1609 31.02 10.2914C31.0702 10.3718 31.1204 10.3918 31.1204 10.3416C31.1204 10.2814 31.1907 10.3216 31.261 10.422C31.3413 10.5224 31.3815 10.6931 31.3513 10.7935C31.3212 10.9039 31.3513 10.9943 31.4116 10.9943C31.4718 10.9943 31.522 10.9541 31.522 10.9039C31.522 10.8437 31.6124 10.8136 31.7128 10.8236C31.8233 10.8236 31.8835 10.8839 31.8534 10.9642C31.8233 11.0345 31.8534 11.0947 31.9136 11.0947C31.9739 11.0947 32.0241 11.0445 32.0241 10.9943C32.0241 10.9341 32.1145 10.8939 32.235 10.8939C32.3454 10.8939 32.4057 10.9341 32.3755 10.9943C32.3454 11.0445 32.3555 11.0947 32.4157 11.0947C32.4659 11.0947 32.5262 11.0345 32.5563 10.9642C32.5964 10.8638 32.6266 10.8638 32.737 10.9642C32.8977 11.1249 33.0684 11.1349 32.968 10.9742C32.9178 10.8939 32.9479 10.8839 33.0885 10.9441C33.4801 11.1048 33.7512 11.1249 33.8416 10.9843C33.9119 10.8839 33.952 10.8738 34.0123 10.9541C34.0524 11.0345 34.3537 11.0646 34.8156 11.0546C35.2072 11.0445 35.5385 11.0747 35.5385 11.1249C35.5385 11.165 35.5887 11.1751 35.6389 11.1449C35.6992 11.1048 35.7193 11.0345 35.6892 10.9843C35.6088 10.8537 35.7795 10.8738 35.9101 11.0044C36.0607 11.155 36.2615 11.0847 36.1511 10.914C36.1109 10.8437 35.9402 10.7634 35.7795 10.7433C35.6189 10.7232 35.4682 10.7031 35.4381 10.7031C35.408 10.6931 35.4482 10.6529 35.5285 10.6027C35.6189 10.5425 35.7695 10.5525 35.9201 10.6027C36.0607 10.6529 36.2515 10.673 36.3519 10.6429C36.4925 10.5927 36.5728 10.6429 36.6431 10.8136C36.71 10.9609 36.7334 10.9475 36.7134 10.7734C36.6933 10.6228 36.7134 10.5224 36.7535 10.5525C36.8037 10.5826 36.8439 10.5224 36.8439 10.432C36.8439 10.2713 36.8539 10.2713 37.0347 10.432C37.1652 10.5425 37.3962 10.6128 37.6874 10.6128C38.089 10.6128 38.1493 10.6429 38.1493 10.8136C38.1493 10.9542 38.1995 10.9943 38.3099 10.9541C38.4003 10.924 38.4806 10.8939 38.5107 10.8939C38.5308 10.8939 38.5208 10.8337 38.4907 10.7533C38.4304 10.5927 38.7216 10.4521 38.812 10.6027C38.8421 10.663 38.9927 10.683 39.1433 10.6429C39.314 10.6027 39.3743 10.6127 39.304 10.683C39.2538 10.7332 39.0731 10.7935 38.9024 10.8236C38.7317 10.8437 38.8421 10.8738 39.1735 10.8839C39.5149 10.8839 39.7759 10.8437 39.8161 10.7734C39.8663 10.7031 39.8161 10.683 39.6755 10.7132C39.545 10.7533 39.4847 10.7332 39.5149 10.6529C39.535 10.5927 39.7057 10.5324 39.8864 10.5224C40.5893 10.4923 40.8704 10.432 40.9709 10.2914C41.0512 10.1609 41.0813 10.1609 41.2018 10.3115C41.3424 10.5023 41.7139 10.5525 41.8143 10.3918C41.8444 10.3416 41.9348 10.3216 42.0151 10.3617C42.1156 10.3918 42.1658 10.3416 42.1658 10.2011C42.1658 10.0404 42.1156 10.0002 41.9448 10.0304C41.8143 10.0504 41.6737 10.0304 41.6135 9.99019C41.5231 9.9199 41.1215 9.84961 40.2579 9.73916C40.1173 9.71908 39.8061 9.67891 39.555 9.63875C37.848 9.39776 36.0707 9.21701 35.167 9.19693C35.0264 9.18689 34.9361 9.12664 34.9361 9.03627C34.9361 8.95594 34.8959 8.88565 34.8457 8.88565C34.7955 8.88565 34.7252 8.81537 34.6951 8.72499C34.6649 8.64466 34.675 8.6045 34.7352 8.63462C34.7854 8.66474 34.8557 8.57437 34.8959 8.4338C34.926 8.30326 34.9963 8.21289 35.0465 8.23297C35.0867 8.26309 35.1871 8.20285 35.2574 8.08235C35.3277 7.9719 35.418 7.88153 35.4682 7.88153C35.6289 7.88153 36.7435 7.3393 36.7435 7.25897C36.7435 7.21881 36.7033 7.17864 36.6531 7.17864C36.6029 7.17864 36.5427 7.08827 36.5125 6.98785C36.4824 6.8774 36.2916 6.71674 36.0808 6.62637C35.7494 6.48579 35.7193 6.44563 35.8599 6.3653C35.9502 6.31509 36.3519 6.29501 36.7535 6.32513C37.2355 6.35526 37.5367 6.32514 37.6271 6.25485C37.7376 6.16448 37.7878 6.16447 37.848 6.28496C37.9183 6.40546 38.1894 6.43559 39.0831 6.46571C39.7057 6.47575 40.3885 6.50587 40.5893 6.52596C40.8604 6.54604 40.9608 6.51591 40.9909 6.38538C41.0311 6.2448 41.0411 6.24481 41.0512 6.39543C41.0612 6.53601 41.1616 6.55609 41.6135 6.54605C41.9147 6.53601 42.1658 6.55609 42.1658 6.59625C42.1658 6.69667 43.0795 6.69667 43.2402 6.59625C43.3205 6.54605 43.3305 6.46571 43.2703 6.37534C43.1197 6.14439 43.1498 6.0741 43.3707 6.0741C43.4812 6.0741 43.5715 6.1243 43.5715 6.18455C43.5715 6.23476 43.5314 6.25484 43.4711 6.22472C43.3506 6.14439 43.3406 6.27493 43.4611 6.46571C43.5715 6.64645 44.1037 6.71675 44.0134 6.54605C43.9832 6.47576 44.0134 6.49583 44.0937 6.57616C44.2443 6.75691 44.8769 6.83724 44.8769 6.67658C44.8769 6.62637 44.9974 6.57616 45.1581 6.5862C45.389 6.5862 45.399 6.60629 45.2384 6.66654C45.0576 6.73683 45.0576 6.74687 45.2183 6.80712C45.3187 6.84728 45.4794 6.82719 45.5798 6.77699C45.6802 6.72678 45.8409 6.7067 45.9212 6.73682C46.0216 6.77699 46.0818 6.74687 46.0818 6.66654C46.0818 6.55608 46.1019 6.54604 46.1722 6.6565C46.2124 6.72679 46.2927 6.77699 46.3429 6.76695C46.3931 6.75691 46.4534 6.76695 46.4835 6.77699C46.5136 6.78703 46.7245 6.80711 46.9655 6.82719C47.2968 6.84728 47.3872 6.8272 47.3973 6.69667C47.3973 6.55609 47.4073 6.54604 47.4675 6.67658C47.5479 6.85732 47.9094 6.87741 47.9696 6.69667C47.9897 6.63642 48.0801 6.57616 48.1604 6.57616C48.2809 6.57616 48.2909 6.60629 48.2006 6.7067C48.1102 6.81716 48.1503 6.84728 48.4014 6.85732C48.6926 6.86736 48.7026 6.84728 48.6323 6.54605C48.6022 6.3653 48.5319 6.21469 48.4817 6.1946C48.3512 6.1444 48.6524 5.87328 48.8231 5.87328C48.9034 5.87328 48.9938 5.81304 49.0239 5.74275C49.0741 5.61221 49.4858 5.38125 50.1285 5.13022C50.3293 5.04989 50.5 4.93944 50.5 4.87919C50.5 4.71853 50.0381 4.26668 49.8774 4.26668C49.7971 4.26668 49.6967 4.22651 49.6465 4.1763C49.5862 4.11605 49.4155 4.05581 49.2649 4.02568C49.0139 3.98552 47.6483 3.61399 46.8349 3.373C46.5437 3.28263 45.7404 3.12197 45.5296 3.11193C45.4794 3.11193 45.389 3.08181 45.3288 3.05169C45.2785 3.01152 45.0476 2.95127 44.8267 2.91111C44.6058 2.8609 44.3849 2.82073 44.3246 2.81069C44.0535 2.75045 42.5072 2.42912 42.4168 2.41908C42.3666 2.40904 42.2762 2.37892 42.216 2.3488C42.1658 2.30863 42.0252 2.29859 41.9248 2.31867C41.8143 2.32871 41.6537 2.30863 41.5733 2.25842C41.483 2.21826 41.2821 2.14797 41.1114 2.11784C40.9508 2.08772 40.5893 2.01743 40.3081 1.95719C40.037 1.90698 39.555 1.84673 39.2538 1.81661C38.9526 1.79652 38.4806 1.72624 38.1995 1.66599C36.9041 1.39487 35.1068 1.13381 34.1328 1.09364C33.7713 1.0836 33.4801 1.06352 33.4801 1.05347C33.4801 1.02335 33.0684 0.953064 32.5061 0.892817C32.0542 0.84261 31.9237 0.862688 31.9237 0.963101C31.9237 1.07355 31.9036 1.07356 31.8434 0.973152C31.7329 0.812492 31.4618 0.752237 30.5179 0.70203C30.1062 0.681948 29.6544 0.631739 29.5138 0.611657C29.3732 0.581533 28.831 0.531329 28.3088 0.501205C27.7867 0.471082 27.134 0.420883 26.8528 0.370676C26.5817 0.330511 26.0696 0.30038 25.7282 0.30038C25.3868 0.30038 25.0956 0.260223 25.0956 0.220058C25.0956 0.179893 25.0053 0.189926 24.9048 0.250174C24.6639 0.370669 24.5634 0.380718 24.6337 0.270264C24.6639 0.220058 24.4932 0.17989 24.2622 0.17989C24.0313 0.17989 23.4991 0.149769 23.0874 0.119645C22.1335 0.039315 21.3502 0.0292689 20.798 0.0895164C20.567 0.11964 20.3863 0.109604 20.4164 0.0694388C20.4767 -0.0309737 19.8441 -0.0209374 19.6834 0.0895164C19.593 0.149764 19.5227 0.149764 19.5026 0.0895164C19.4826 0.0393101 19.0307 0.00919127 18.4985 0.0192325C17.9563 0.0292738 17.1229 0.0393077 16.6409 0.0493489C16.1589 0.0593902 15.7271 0.0493563 15.687 0.0192325C15.6468 -0.000849979 15.4862 0.00918392 15.3456 0.0493489ZM5.66581 1.35471C5.69593 1.41496 5.65576 1.425 5.57543 1.39488C5.39469 1.32459 5.36457 1.2543 5.50515 1.2543C5.56539 1.2543 5.63568 1.29446 5.66581 1.35471ZM8.92921 1.66599C8.92921 1.71619 8.84888 1.75636 8.75851 1.74632C8.64806 1.74632 8.62797 1.7162 8.7083 1.68608C8.76855 1.666 8.79868 1.58567 8.76855 1.53546C8.72839 1.46517 8.74847 1.45513 8.80872 1.49529C8.87901 1.53546 8.92921 1.60574 8.92921 1.66599ZM9.64214 1.65595C9.64214 1.75636 9.67227 1.73628 9.73251 1.60574C9.81284 1.41496 9.82288 1.41496 9.82288 1.61578C9.83293 1.75636 9.7526 1.85678 9.61202 1.89694C9.28066 1.97727 9.10996 1.96723 9.1702 1.86681C9.21037 1.81661 9.18024 1.75637 9.10995 1.73628C8.90913 1.666 9.12 1.47521 9.38107 1.49529C9.53169 1.49529 9.6321 1.56558 9.64214 1.65595ZM10.084 1.55554C10.1141 1.60574 10.094 1.65595 10.0438 1.65595C9.98354 1.65595 9.93334 1.60574 9.93334 1.55554C9.93334 1.49529 9.95342 1.45512 9.9735 1.45512C10.0036 1.45512 10.0538 1.49529 10.084 1.55554ZM21.3 1.5455C21.1896 1.60575 21.2197 1.67604 21.4205 1.8367C21.6314 1.99736 21.6515 2.04756 21.5209 2.09777C21.4406 2.12789 21.4004 2.11784 21.4306 2.06764C21.4607 2.01743 21.3904 1.94715 21.28 1.90698C20.9888 1.81661 21.0289 1.45512 21.3201 1.45512C21.3804 1.45512 21.3703 1.49529 21.3 1.5455ZM21.8322 1.75636C21.8623 1.80657 21.8523 1.85677 21.7921 1.85677C21.7419 1.85677 21.6615 1.80657 21.6314 1.75636C21.6013 1.69611 21.6113 1.65595 21.6716 1.65595C21.7218 1.65595 21.8021 1.69611 21.8322 1.75636ZM22.1937 1.8869C22.0933 1.97727 22.0833 1.96724 22.1435 1.82666C22.1736 1.72625 22.2339 1.67603 22.264 1.70616C22.2941 1.73628 22.264 1.81661 22.1937 1.8869ZM14.6025 1.85677C14.6326 1.90698 14.6226 1.95719 14.5624 1.95719C14.5122 1.95719 14.4318 1.90698 14.4017 1.85677C14.3716 1.79653 14.3816 1.75636 14.4419 1.75636C14.4921 1.75636 14.5724 1.79653 14.6025 1.85677ZM34.183 2.92114C34.3135 2.97135 34.3235 3.00148 34.2131 3.07176C34.0123 3.2023 33.8315 3.18222 33.8315 3.01152C33.8315 2.85086 33.9219 2.82073 34.183 2.92114ZM35.6088 3.19227C35.5586 3.35293 35.0063 3.33284 34.9561 3.17218C34.926 3.09185 34.9561 3.06173 35.0164 3.10189C35.0766 3.13202 35.1469 3.12197 35.177 3.07176C35.2574 2.95127 35.659 3.06173 35.6088 3.19227ZM36.6129 3.18223C36.5828 3.26256 36.5527 3.23242 36.5527 3.12197C36.5427 3.01152 36.5728 2.95128 36.6029 2.99144C36.633 3.02156 36.6431 3.11194 36.6129 3.18223ZM36.2414 3.30272C36.4925 3.38305 36.6531 3.46337 36.5929 3.47341C36.2615 3.53366 36.0306 3.52363 35.9803 3.4433C35.9502 3.40313 35.8799 3.38305 35.8297 3.41317C35.7795 3.45333 35.7394 3.40313 35.7394 3.3228C35.7394 3.23242 35.7494 3.16214 35.7695 3.16214C35.7795 3.16214 35.9904 3.23243 36.2414 3.30272ZM25.196 5.37121C25.196 5.26076 25.2262 5.26076 25.3165 5.35114C25.5073 5.54192 25.2864 5.70257 24.9852 5.58208C24.8546 5.53187 24.7944 5.48166 24.8647 5.48166C24.935 5.47162 24.9651 5.40134 24.9249 5.29089C24.8747 5.15031 24.8948 5.16035 25.0253 5.32101C25.1458 5.46158 25.186 5.48167 25.196 5.37121ZM23.238 5.37121C23.2681 5.42142 23.248 5.47163 23.1978 5.47163C23.1376 5.47163 23.0874 5.42142 23.0874 5.37121C23.0874 5.31097 23.1075 5.2708 23.1275 5.2708C23.1577 5.2708 23.2079 5.31097 23.238 5.37121ZM27.9574 5.49172C28.098 5.55196 28.2084 5.64232 28.2084 5.68249C28.2084 5.77286 27.0336 5.73271 26.9332 5.64233C26.8729 5.58209 27.0436 5.53188 27.2344 5.562C27.2746 5.562 27.3047 5.52183 27.3047 5.47163C27.3047 5.34109 27.6361 5.3411 27.9574 5.49172ZM29.3431 5.562C29.6744 5.77287 29.5439 5.95361 29.2025 5.76282C29.0619 5.69254 29.0117 5.69254 29.0519 5.76282C29.092 5.82307 28.9916 5.85319 28.7406 5.83311C28.5398 5.81303 28.349 5.74274 28.3289 5.68249C28.2988 5.58208 28.4996 5.52183 28.7908 5.562C28.8511 5.57204 28.9113 5.53187 28.9113 5.47163C28.9113 5.32101 29.0218 5.35113 29.3431 5.562ZM26.2504 5.67245C26.2202 5.72266 26.1098 5.7327 25.9893 5.70258C25.8387 5.66241 25.8186 5.62224 25.909 5.57204C26.0596 5.47163 26.3207 5.562 26.2504 5.67245ZM30.2167 5.58208C30.2167 5.64232 30.297 5.66241 30.4075 5.62224C30.5581 5.57204 30.5982 5.61221 30.5882 5.76282C30.5782 5.9034 30.538 5.93353 30.4577 5.86324C30.3874 5.81303 30.2167 5.79294 30.066 5.83311C29.815 5.89336 29.805 5.88331 29.9054 5.68249C30.0259 5.46158 30.2167 5.39129 30.2167 5.58208ZM32.5663 5.61221C32.5262 5.72266 32.5764 5.74274 32.8475 5.68249C33.0282 5.64232 33.2893 5.64232 33.4299 5.68249L33.6809 5.75279L33.4098 5.76282C33.2491 5.77287 33.1286 5.82307 33.1286 5.88331C33.1286 5.96364 33.0784 5.96365 32.978 5.87328C32.8575 5.77286 32.7973 5.77287 32.6868 5.86324C32.5864 5.95361 32.5262 5.95361 32.4759 5.87328C32.4057 5.76282 32.476 5.47163 32.5663 5.47163C32.5964 5.47163 32.5964 5.53188 32.5663 5.61221ZM26.8026 5.67245C26.8026 5.72266 26.7826 5.77286 26.7625 5.77286C26.7324 5.77286 26.6821 5.72266 26.652 5.67245C26.6219 5.6122 26.642 5.57204 26.6922 5.57204C26.7524 5.57204 26.8026 5.6122 26.8026 5.67245ZM31.6526 5.69254C31.7731 5.76283 31.9839 5.80299 32.1245 5.79295C32.3655 5.76283 32.3655 5.77286 32.1848 5.92348C31.9337 6.11427 31.8634 6.11427 31.7831 5.92348C31.753 5.84315 31.6124 5.77286 31.4718 5.77286C31.2911 5.77286 31.2308 5.81304 31.281 5.89337C31.3313 5.9737 31.3011 5.98374 31.1806 5.94357C31.0802 5.90341 30.9798 5.87328 30.9597 5.87328C30.8392 5.87328 30.9497 5.6825 31.1003 5.64233C31.3915 5.562 31.4317 5.57205 31.6526 5.69254ZM33.9319 5.77286C33.9319 5.82307 33.8817 5.87328 33.8215 5.87328C33.7713 5.87328 33.7512 5.82307 33.7813 5.77286C33.8114 5.71262 33.8616 5.67245 33.8918 5.67245C33.9119 5.67245 33.9319 5.71262 33.9319 5.77286ZM34.5846 5.77286C34.5545 5.82307 34.4842 5.87328 34.424 5.87328C34.3737 5.87328 34.3336 5.82307 34.3336 5.77286C34.3336 5.71262 34.4039 5.67245 34.4942 5.67245C34.5746 5.67245 34.6147 5.71262 34.5846 5.77286ZM35.2373 5.93352C35.2373 5.9536 35.1469 5.93352 35.0365 5.87328C34.926 5.81303 34.8356 5.74274 34.8356 5.71262C34.8356 5.69254 34.926 5.71262 35.0365 5.77286C35.1469 5.83311 35.2373 5.9034 35.2373 5.93352ZM35.6892 5.77286C35.7193 5.82307 35.6791 5.87328 35.5988 5.87328C35.5084 5.87328 35.4381 5.82307 35.4381 5.77286C35.4381 5.71262 35.4783 5.67245 35.5285 5.67245C35.5887 5.67245 35.659 5.71262 35.6892 5.77286ZM36.2916 5.77286C36.2615 5.82307 36.1711 5.84316 36.0908 5.80299C35.8799 5.7327 35.9 5.67245 36.1511 5.67245C36.2615 5.67245 36.3318 5.71262 36.2916 5.77286ZM32.8776 5.97369C32.9077 6.02389 32.8876 6.0741 32.8374 6.0741C32.7772 6.0741 32.727 6.02389 32.727 5.97369C32.727 5.91344 32.7471 5.87328 32.7671 5.87328C32.7973 5.87328 32.8475 5.91344 32.8776 5.97369ZM40.4085 5.97369C40.3784 6.02389 40.288 6.0741 40.2278 6.0741C40.1575 6.0741 40.1675 6.03394 40.2579 5.97369C40.4487 5.85319 40.4889 5.85319 40.4085 5.97369ZM40.9608 6.02389C40.9608 6.10422 40.8905 6.17451 40.8102 6.17451C40.5491 6.17451 40.6294 5.97369 40.9407 5.88331C40.9508 5.87327 40.9608 5.94356 40.9608 6.02389ZM34.7854 6.0741C34.7553 6.12431 34.6649 6.17451 34.6047 6.17451C34.5344 6.17451 34.5444 6.13435 34.6348 6.0741C34.8256 5.95361 34.8658 5.95361 34.7854 6.0741ZM35.4883 6.28496C35.4883 6.35525 35.398 6.43559 35.2875 6.46571C35.1268 6.49584 35.1168 6.47576 35.2172 6.35526C35.2775 6.27493 35.2975 6.17451 35.2574 6.12431C35.2172 6.08414 35.2574 6.06407 35.3377 6.09419C35.418 6.12431 35.4883 6.20463 35.4883 6.28496ZM45.4794 6.1946C45.4794 6.27493 45.3187 6.33518 45.0777 6.34522C44.8468 6.3653 44.6761 6.32513 44.6761 6.26489C44.6761 6.20464 44.7162 6.1946 44.7765 6.22472C44.8267 6.25484 44.9572 6.23476 45.0476 6.18455C45.2986 6.04397 45.4794 6.05403 45.4794 6.1946ZM43.8728 6.27493C43.8728 6.32513 43.8527 6.37534 43.8326 6.37534C43.8025 6.37534 43.7523 6.32513 43.7222 6.27493C43.692 6.21468 43.7121 6.17451 43.7623 6.17451C43.8226 6.17451 43.8728 6.21468 43.8728 6.27493ZM44.5255 6.47575C44.5556 6.52596 44.5154 6.57616 44.425 6.57616C44.3347 6.57616 44.2945 6.52596 44.3246 6.47575C44.3548 6.4155 44.405 6.37534 44.425 6.37534C44.4451 6.37534 44.4953 6.4155 44.5255 6.47575ZM7.72426 6.73682C7.72426 6.81715 7.67406 6.85732 7.62385 6.82719C7.5636 6.78703 7.54352 6.71674 7.57364 6.66654C7.66402 6.52596 7.72426 6.55608 7.72426 6.73682ZM7.35274 6.74687C7.28245 6.76695 7.16195 6.76695 7.1017 6.74687C7.03142 6.71675 7.08162 6.69667 7.2222 6.69667C7.36278 6.69667 7.41298 6.71675 7.35274 6.74687ZM8.17612 6.78703C8.29661 6.97781 8.12591 7.01799 7.95521 6.84728C7.79455 6.68662 7.79455 6.67658 7.94517 6.67658C8.03554 6.67658 8.146 6.72678 8.17612 6.78703ZM8.75851 6.88744C8.79868 7.0481 8.78864 7.06819 8.66814 6.96777C8.50748 6.83724 8.47736 6.67658 8.61793 6.67658C8.66814 6.67658 8.72839 6.76694 8.75851 6.88744ZM6.51931 6.8774C6.51931 6.92761 6.49923 6.97781 6.47914 6.97781C6.44902 6.97781 6.39882 6.92761 6.36869 6.8774C6.33857 6.81715 6.35865 6.77699 6.40886 6.77699C6.46911 6.77699 6.51931 6.81715 6.51931 6.8774ZM9.58189 6.8774C9.72247 6.94769 9.66223 6.95774 9.38107 6.90753C9.16016 6.87741 8.95933 6.83724 8.93925 6.81716C8.84888 6.73683 9.39111 6.79707 9.58189 6.8774ZM10.1844 6.97781C10.2145 7.02802 10.1944 7.07823 10.1442 7.07823C10.084 7.07823 10.0338 7.02802 10.0338 6.97781C10.0338 6.91757 10.0538 6.8774 10.0739 6.8774C10.104 6.8774 10.1542 6.91757 10.1844 6.97781ZM31.7731 8.78524C31.8032 8.83545 31.763 8.88565 31.6827 8.88565C31.5923 8.88565 31.522 8.83545 31.522 8.78524C31.522 8.72499 31.5622 8.68483 31.6124 8.68483C31.6727 8.68483 31.7429 8.72499 31.7731 8.78524ZM13.5783 9.41784C13.6084 9.49817 13.5683 9.55842 13.498 9.55842C13.4277 9.55842 13.3875 9.49817 13.4177 9.41784C13.4478 9.34755 13.4779 9.2873 13.498 9.2873C13.5181 9.2873 13.5482 9.34755 13.5783 9.41784ZM12.6445 9.53833C12.6445 9.70903 12.3633 9.73916 12.1424 9.5785C12.0219 9.49817 12.052 9.47809 12.2729 9.51826C12.4236 9.53834 12.5441 9.51825 12.5441 9.47809C12.5441 9.42788 12.5641 9.38771 12.5943 9.38771C12.6244 9.38771 12.6445 9.458 12.6445 9.53833ZM14.3314 9.5785C14.6025 9.80945 14.6126 9.88978 14.3515 9.81949C14.231 9.78937 14.1707 9.73917 14.2009 9.70904C14.221 9.67892 14.2009 9.59859 14.1406 9.51826C13.98 9.32747 14.0804 9.35759 14.3314 9.5785ZM14 9.66887C13.9699 9.699 13.8896 9.66887 13.8193 9.59858C13.7289 9.49817 13.739 9.48812 13.8795 9.54837C13.98 9.5785 14.0302 9.63875 14 9.66887ZM21.4306 9.87974C21.3703 9.92994 21.1795 9.77933 21.1795 9.67891C21.1795 9.62871 21.2398 9.63875 21.3201 9.70904C21.4004 9.77933 21.4406 9.85966 21.4306 9.87974ZM15.1046 9.78936C14.8335 9.90986 14.6728 9.90986 14.8535 9.78936C14.9339 9.73916 15.0745 9.69899 15.1548 9.69899C15.2552 9.69899 15.2351 9.72912 15.1046 9.78936ZM18.9504 9.87974C19.0709 9.88978 19.1713 9.92994 19.1713 9.98015C19.1713 10.0304 19.0508 10.0605 18.9002 10.0504C18.7395 10.0304 18.5889 10.0605 18.5588 10.1207C18.4584 10.2613 18.2676 10.1107 18.3278 9.95002C18.358 9.86969 18.4584 9.81949 18.5487 9.83957C18.6391 9.85965 18.8198 9.87974 18.9504 9.87974ZM20.7176 9.84961C20.9787 9.95002 20.8984 10.0906 20.5871 10.0906C20.2457 10.0906 20.085 9.92995 20.3461 9.85966C20.4465 9.82954 20.5369 9.80944 20.5469 9.7994C20.557 9.7994 20.6273 9.81949 20.7176 9.84961ZM21.9326 9.88978C21.9025 9.93998 21.7921 9.99019 21.7017 9.98015C21.5611 9.98015 21.5711 9.96007 21.7318 9.88978C21.9126 9.81614 21.9795 9.81614 21.9326 9.88978ZM19.9344 10.0103C19.9846 10.0806 19.9344 10.1006 19.7938 10.0705C19.6734 10.0404 19.5629 10.0605 19.5428 10.1207C19.5027 10.2412 19.2717 10.1308 19.2717 9.98015C19.2717 9.84961 19.8441 9.8697 19.9344 10.0103ZM23.9208 10.1408C24.0714 10.1609 24.2622 10.1709 24.3425 10.181C24.4229 10.181 24.4932 10.2312 24.4932 10.2713C24.4932 10.3617 23.73 10.3617 23.6296 10.2713C23.5995 10.2312 23.489 10.2513 23.3886 10.3115C23.248 10.4019 23.1677 10.4019 23.0271 10.2914C22.8765 10.1508 22.8765 10.1408 23.0974 10.0806C23.228 10.0404 23.4087 10.0404 23.489 10.0705C23.5694 10.1006 23.7601 10.1308 23.9208 10.1408ZM30.4476 10.0605C30.3773 10.0806 30.2568 10.0806 30.1966 10.0605C30.1263 10.0304 30.1765 10.0103 30.3171 10.0103C30.4577 10.0103 30.5079 10.0304 30.4476 10.0605ZM33.3295 10.5525C33.7813 10.5826 33.8918 10.6027 33.7612 10.6529C33.6909 10.683 33.6508 10.7634 33.6709 10.8236C33.6809 10.8939 33.6809 10.914 33.6608 10.8638C33.6307 10.8236 33.5504 10.7935 33.47 10.7935C33.3897 10.7935 33.3295 10.7533 33.3295 10.7132C33.3295 10.663 32.9378 10.6328 32.4659 10.6529C31.994 10.663 31.6325 10.6429 31.6626 10.6128C31.6927 10.5826 31.8434 10.5525 31.994 10.5425C32.1546 10.5224 32.3655 10.4822 32.4659 10.442C32.6065 10.3818 32.6366 10.3918 32.5864 10.4722C32.5462 10.5425 32.5563 10.5927 32.6065 10.5927C32.6667 10.5927 32.737 10.5123 32.7772 10.4119C32.8374 10.2613 32.8575 10.2613 32.9579 10.3918C33.0282 10.4722 33.1889 10.5525 33.3295 10.5525ZM34.2332 10.4923C34.2332 10.5525 34.2934 10.5927 34.3637 10.5726C34.434 10.5525 34.4942 10.5826 34.5043 10.6429C34.5143 10.6931 34.3838 10.7533 34.2231 10.7634C33.9119 10.7935 33.9018 10.7834 33.9922 10.5525C34.0625 10.3718 34.2332 10.3316 34.2332 10.4923ZM23.0874 10.5927C23.0874 10.6429 23.0673 10.6931 23.0472 10.6931C23.0171 10.6931 22.9669 10.6429 22.9368 10.5927C22.9066 10.5324 22.9267 10.4923 22.9769 10.4923C23.0372 10.4923 23.0874 10.5324 23.0874 10.5927ZM35.0365 10.6328C35.0365 10.663 34.9963 10.7132 34.9361 10.7433C34.8859 10.7734 34.8356 10.7533 34.8356 10.7031C34.8356 10.6429 34.8859 10.5927 34.9361 10.5927C34.9963 10.5927 35.0365 10.6127 35.0365 10.6328ZM35.3377 10.7935C35.3377 10.8437 35.2975 10.8939 35.2373 10.8939C35.1871 10.8939 35.1369 10.8437 35.1369 10.7935C35.1369 10.7332 35.1871 10.6931 35.2373 10.6931C35.2975 10.6931 35.3377 10.7332 35.3377 10.7935Z" fill="#1A1A1A"/>
</g>
<defs>
<clipPath id="clip0_4942_85899">
<rect width="50" height="11.1625" fill="white" transform="translate(0.5)"/>
</clipPath>
</defs>
</svg>
