<svg width="50" height="12" viewBox="0 0 50 12" fill="none" xmlns="http://www.w3.org/2000/svg">
<g clip-path="url(#clip0_4949_86128)">
<path fill-rule="evenodd" clip-rule="evenodd" d="M14.8456 0.0493489C14.705 0.0895139 14.2431 0.119635 13.8113 0.109594C13.3796 0.0995527 13.0181 0.119635 12.9879 0.1598C12.9679 0.199965 12.8072 0.189926 12.6265 0.149761C12.4558 0.0995552 12.265 0.0895213 12.2047 0.119645C12.1445 0.15981 11.9637 0.179893 11.793 0.169851C11.6324 0.149769 11.3412 0.189926 11.1504 0.250174C10.9094 0.310422 10.7688 0.310424 10.6785 0.240135C10.5881 0.169846 10.4877 0.169844 10.327 0.250174C10.1563 0.350587 10.1262 0.340548 10.1864 0.240135C10.2467 0.149764 10.1764 0.129684 9.8852 0.17989C9.67433 0.210014 9.46346 0.290337 9.43334 0.360625C9.39317 0.420873 9.33292 0.430921 9.3028 0.380715C9.26264 0.320468 7.87694 0.280298 7.87694 0.350587C7.87694 0.38071 7.47529 0.46104 7.3548 0.450999C6.94311 0.420875 6.69208 0.430919 6.00927 0.491167C5.27626 0.561455 4.86457 0.6217 4.86457 0.651824C4.86457 0.671907 4.06127 0.762283 3.65962 0.782365C3.49896 0.792407 3.29813 0.842613 3.23788 0.882778C3.1676 0.932984 3.06718 0.932979 3.00694 0.902855C2.95673 0.872732 2.71574 0.892812 2.48479 0.963101C2.2438 1.02335 1.9526 1.07356 1.82207 1.07356C1.70157 1.07356 1.57104 1.11372 1.54091 1.16393C1.51079 1.21413 1.33005 1.2543 1.13926 1.2543C0.948479 1.2543 0.797861 1.29447 0.797861 1.34467C0.797861 1.40492 0.717528 1.425 0.607075 1.40492C0.496621 1.38484 0.325919 1.4752 0.205424 1.61578C-0.0255244 1.87685 -0.0656894 2.0576 0.105012 2.0576C0.155218 2.0576 0.185342 2.01743 0.155218 1.96723C0.0648469 1.83669 0.295797 1.77645 0.727571 1.8367C0.938437 1.85678 1.0991 1.9371 1.0991 2.00739C1.0991 2.08772 1.24972 2.12789 1.54091 2.11784C1.97269 2.1078 2.10322 1.95719 1.68149 1.95719C1.32 1.95719 1.57104 1.83669 2.00281 1.79653C2.38438 1.76641 2.40446 1.77645 2.40446 2.03752V2.30863L2.60529 1.97728C2.71574 1.79653 2.85632 1.67603 2.90652 1.70616C2.96677 1.73628 3.00694 1.69611 3.00694 1.60574C3.00694 1.51537 3.05714 1.47521 3.10735 1.50533C3.1676 1.5455 3.18768 1.61578 3.15756 1.66599C3.11739 1.71619 3.23788 1.75636 3.39854 1.75636C3.57929 1.75636 3.70982 1.70616 3.70982 1.62583C3.70982 1.5455 3.74999 1.55554 3.81024 1.65595C3.86044 1.73628 3.91065 1.75636 3.91065 1.69612C3.91065 1.63587 3.98094 1.58567 4.06127 1.58567C4.1416 1.58567 4.21189 1.62583 4.21189 1.67604C4.21189 1.72625 4.29222 1.72625 4.39263 1.67604C4.483 1.62583 4.75411 1.60575 4.9951 1.62583C5.23609 1.64592 5.49717 1.61578 5.56746 1.55554C5.66787 1.47521 5.70803 1.47521 5.73816 1.57563C5.77832 1.67604 5.85865 1.67604 6.14985 1.58567C6.47117 1.48525 6.52138 1.49529 6.52138 1.63587C6.53142 1.78649 6.54146 1.78649 6.66195 1.62583C6.74228 1.52542 6.83265 1.48525 6.86278 1.53546C6.94311 1.666 6.83265 1.95719 6.71216 1.95719C6.66195 1.95719 6.62179 1.99736 6.62179 2.03752C6.62179 2.07769 6.77241 2.09777 6.96319 2.07769C7.26443 2.03752 7.30459 2.00739 7.29455 1.7664C7.27447 1.53545 7.31463 1.50534 7.65604 1.47521C7.88698 1.45513 8.02756 1.48525 8.02756 1.55554C8.02756 1.62583 7.96731 1.65596 7.88698 1.62583C7.78657 1.58567 7.76649 1.63587 7.79661 1.78649C7.83678 1.95719 7.82674 1.97727 7.73636 1.85677C7.62591 1.69611 7.46525 1.77645 7.57571 1.94715C7.65604 2.08773 7.92715 2.08772 7.92715 1.95719C7.92715 1.89694 7.97736 1.85677 8.02756 1.85677C8.08781 1.85677 8.11793 1.91703 8.10789 1.97728C8.08781 2.04757 8.14806 2.08772 8.22839 2.06764C8.30872 2.04756 8.57983 2.01744 8.83086 1.99735C9.08189 1.96723 9.39317 1.93711 9.53375 1.92707C9.72454 1.90699 9.77474 1.85677 9.75466 1.70616C9.73457 1.58566 9.75466 1.54549 9.80486 1.61578C9.99565 1.8869 10.7387 2.0576 10.7387 1.8367C10.7387 1.74633 10.6082 1.72624 10.2668 1.75636C10.1161 1.7664 10.0358 1.7162 10.0358 1.62583C10.0358 1.53546 10.0057 1.45513 9.96552 1.42501C9.91532 1.40493 9.95548 1.40493 10.0358 1.42501C10.6182 1.58567 10.7688 1.58567 10.7086 1.42501C10.6684 1.31455 10.6885 1.28443 10.7989 1.3246C10.8692 1.35472 10.9395 1.41496 10.9395 1.46516C10.9395 1.51537 11.0701 1.55554 11.2307 1.55554C11.3914 1.55554 11.5721 1.62583 11.6424 1.70616C11.7127 1.79653 11.8332 1.84673 11.9135 1.81661C11.9838 1.78648 12.0441 1.80657 12.0441 1.84674C12.0441 1.96723 12.3754 1.91703 12.4156 1.78649C12.4357 1.73628 12.2951 1.70615 12.0842 1.71619C11.783 1.74632 11.7428 1.72624 11.8432 1.60574C11.9035 1.53545 12.0641 1.48525 12.1947 1.51537C12.3252 1.53545 12.4658 1.51537 12.4959 1.45512C12.5361 1.39488 12.6164 1.38484 12.6767 1.42501C12.7469 1.47521 12.8775 1.50533 12.9879 1.50533C13.249 1.50533 13.4498 1.82665 13.2591 1.94715C13.1687 2.0074 13.2189 2.04757 13.4298 2.07769L13.731 2.11784L13.49 1.80657C13.1988 1.41496 13.1888 1.35471 13.4599 1.35471C13.6306 1.35471 13.6607 1.40492 13.6205 1.60574C13.5904 1.81661 13.6306 1.89694 13.8615 2.00739C14.0724 2.11785 14.1427 2.1279 14.1828 2.02748C14.213 1.93711 14.2833 1.9371 14.4941 2.0576C14.715 2.16805 14.7853 2.17809 14.8456 2.06764C14.8958 1.99735 14.9661 1.94715 15.0163 1.94715C15.1669 1.96723 15.1167 1.72625 14.956 1.67604C14.8757 1.64592 14.8355 1.66599 14.8757 1.70616C14.9661 1.79653 14.7853 2.0576 14.6347 2.0576C14.5745 2.0576 14.5544 1.98731 14.5945 1.90698C14.6347 1.79653 14.5845 1.75636 14.4038 1.75636C14.0724 1.75636 14.0824 1.61578 14.4138 1.46516C14.6447 1.36475 14.6749 1.37479 14.6146 1.50533C14.5745 1.62583 14.6146 1.64591 14.8054 1.5957C14.956 1.55554 15.1267 1.58566 15.2271 1.66599C15.3476 1.7664 15.3778 1.76641 15.3175 1.67604C15.1669 1.43505 15.3978 1.56559 15.6589 1.87686C15.8597 2.11785 15.9501 2.15801 16.0104 2.0576C16.0606 1.97727 16.0505 1.94715 15.9903 1.98732C15.93 2.02748 15.8597 1.96723 15.8296 1.85677C15.7895 1.70616 15.8397 1.63587 16.0204 1.5957C16.3116 1.52542 16.4723 1.62583 16.2614 1.75636C16.1811 1.80657 16.1409 1.87686 16.171 1.90698C16.2714 1.99735 16.5626 1.84674 16.5626 1.69612C16.5626 1.52542 16.7835 1.51538 16.9442 1.67604C17.0245 1.75637 17.0647 1.75637 17.0647 1.68608C17.0647 1.63587 17.1852 1.5957 17.3458 1.61578C17.6872 1.65595 17.9885 1.56558 17.9182 1.44509C17.878 1.39488 17.9282 1.35471 18.0086 1.35471C18.109 1.35471 18.1692 1.44508 18.1692 1.56558C18.1692 1.72624 18.119 1.76641 17.9784 1.72625C17.858 1.69612 17.7575 1.73629 17.7274 1.82666C17.6471 2.03752 17.637 2.03752 17.9282 1.97728C18.119 1.94715 18.1793 1.96723 18.1291 2.04756C18.0889 2.10781 18.109 2.15801 18.1592 2.15801C18.2194 2.15801 18.2696 2.10781 18.2696 2.04756C18.2696 1.97727 18.3701 1.95719 18.5207 1.97728C18.6612 2.0074 18.8018 1.98731 18.832 1.94715C18.8621 1.89694 18.7416 1.85677 18.5809 1.85677C18.4102 1.85677 18.2696 1.80657 18.2696 1.75636C18.2696 1.69611 18.3399 1.65595 18.4203 1.65595C18.5006 1.65595 18.5709 1.59571 18.5709 1.52542C18.5809 1.44509 18.611 1.45512 18.7014 1.55554C18.8319 1.7162 19.6754 1.79653 19.6754 1.65595C19.6754 1.56558 20.2678 1.60574 20.3582 1.70616C20.3883 1.73628 20.2478 1.75636 20.0469 1.75636C19.7156 1.75636 19.6754 1.78649 19.6955 2.00739C19.7156 2.21826 19.7357 2.2283 19.8762 2.11784C19.9566 2.03751 20.1373 1.94715 20.2779 1.90698C20.5088 1.83669 20.5189 1.83669 20.3783 2.00739C20.2377 2.17809 20.2478 2.18814 20.4586 2.13793C20.5791 2.09777 20.6795 2.10781 20.6795 2.15801C20.6795 2.29859 21.0009 2.36888 21.1414 2.25842C21.2117 2.19818 21.4226 2.13793 21.6033 2.13793C22.015 2.12789 22.1456 2.0576 21.9749 1.94715C21.8644 1.87686 21.8744 1.85677 22.015 1.85677C22.1154 1.85677 22.1757 1.81661 22.1456 1.7664C22.1154 1.71619 22.2359 1.65595 22.4066 1.61578C22.6075 1.57562 22.748 1.5957 22.7982 1.66599C22.8384 1.73628 22.9388 1.75637 23.0292 1.72625C23.1196 1.68608 23.1899 1.70615 23.1899 1.7664C23.1899 1.82665 23.2601 1.84673 23.3405 1.81661C23.4208 1.78648 23.5614 1.72624 23.6618 1.68608C23.7622 1.64591 23.8024 1.666 23.7622 1.72625C23.722 1.78649 23.7622 1.86682 23.8526 1.89694C23.9329 1.92707 23.9731 1.91702 23.9429 1.86681C23.9128 1.81661 24.0434 1.77645 24.2341 1.78649C24.4249 1.79653 24.5555 1.8367 24.5253 1.87686C24.5053 1.92707 24.5755 1.95719 24.696 1.95719C24.8266 1.95719 24.8868 1.91702 24.8366 1.84674C24.7965 1.77645 24.8667 1.78648 25.0073 1.86681C25.2784 2.00739 25.5897 2.03752 25.7805 1.92707C25.8407 1.87686 25.9914 1.89694 26.1018 1.95719C26.2324 2.02748 26.3026 2.02748 26.3026 1.95719C26.3026 1.90698 26.4231 1.85677 26.5838 1.85677C26.7344 1.85677 26.8047 1.89694 26.7445 1.93711C26.6541 1.98732 26.6641 2.04756 26.7645 2.13793C26.885 2.23835 26.9051 2.23834 26.9051 2.10781C26.9051 1.9371 27.0658 1.89694 27.126 2.0576C27.1662 2.17809 27.9092 2.2785 27.9092 2.16805C27.9092 2.04756 28.3209 2.10781 28.4113 2.24839C28.4615 2.32872 28.572 2.35884 28.7125 2.30863C28.833 2.26847 29.074 2.2283 29.2347 2.21826C29.5058 2.19817 29.5158 2.20823 29.3552 2.32872C29.1443 2.48938 29.1644 2.48937 29.6062 2.35884C29.8874 2.27851 29.9777 2.29859 30.0882 2.43917C30.1886 2.57975 30.2087 2.57975 30.1685 2.44921C30.1284 2.3488 30.1685 2.28855 30.2589 2.28855C30.3392 2.28855 30.3894 2.32872 30.3593 2.37893C30.3292 2.41909 30.3794 2.45925 30.4597 2.45925C30.5501 2.45925 30.6204 2.48938 30.6204 2.52955C30.6204 2.65004 31.1425 2.65004 31.3735 2.53958C31.4839 2.47934 31.5442 2.46929 31.504 2.50946C31.4638 2.54962 31.5341 2.67011 31.6546 2.77053L31.8755 2.95127L31.6546 2.89103C31.5241 2.8609 31.3433 2.87094 31.253 2.90107C31.1024 2.96131 31.1024 2.98139 31.2229 3.06172C31.3032 3.11193 31.4538 3.13202 31.5643 3.10189C31.6848 3.06173 31.7249 3.08181 31.6848 3.1521C31.6044 3.27259 31.755 3.29268 32.1065 3.2023C32.3776 3.12197 32.3977 2.96131 32.1266 3.01152C32.0161 3.0316 31.9458 3.01152 31.9759 2.96131C32.0061 2.91111 32.1467 2.87095 32.2772 2.88099C32.4077 2.89103 32.4881 2.94124 32.468 2.9814C32.4378 3.02157 32.4981 3.06172 32.5885 3.06172C32.6889 3.06172 32.7391 3.09185 32.6989 3.12197C32.6286 3.2023 32.95 3.56379 33.0403 3.50354C33.0905 3.48346 33.1006 3.38305 33.0704 3.28264C33.0202 3.14206 33.0303 3.14206 33.1106 3.26255C33.1709 3.34288 33.201 3.43325 33.1709 3.47341C33.1106 3.58387 33.9742 3.64413 34.1147 3.53367C34.1951 3.46338 34.2352 3.48346 34.2352 3.60396C34.2352 3.72445 34.3356 3.76461 34.667 3.77465C35.0586 3.78469 35.0687 3.7847 34.8076 3.86503C34.6469 3.91523 34.4561 3.92528 34.3859 3.90519C34.3156 3.87507 34.1549 3.90519 34.0445 3.96544C33.924 4.02569 33.7733 4.04577 33.7131 4.00561C33.5022 3.87507 32.6889 3.85498 32.3977 3.97548C32.1969 4.06585 32.0964 4.06585 31.986 3.97548C31.9057 3.90519 31.8153 3.89515 31.7852 3.94536C31.7249 4.04577 31.4237 4.03572 31.2429 3.92527C31.1727 3.88511 31.1224 3.90519 31.1224 3.96544C31.1224 4.03573 30.9216 4.05581 30.4999 4.00561C30.1484 3.96544 29.7769 3.94536 29.6665 3.94536C28.4916 4.00561 28.1101 4.00561 28.1101 3.9554C28.1101 3.92528 27.9092 3.92527 27.6582 3.96544C27.4172 4.0056 27.1963 3.99557 27.1863 3.94536C27.1662 3.89515 27.0256 3.89515 26.865 3.96544C26.6842 4.02569 26.5336 4.03572 26.4633 3.97548C26.4031 3.92527 26.1721 3.91523 25.9512 3.9554C25.7303 3.99556 24.5354 4.02569 23.2903 4.01564C22.0451 4.0056 20.9105 4.02568 20.7699 4.07589C20.6093 4.11605 20.4586 4.10602 20.3883 4.03573C20.3181 3.96545 20.2478 3.96545 20.1574 4.03573C20.0871 4.08594 19.806 4.11606 19.5348 4.10602C19.2637 4.08594 18.9826 4.11605 18.9123 4.1763C18.8219 4.24659 18.7215 4.24659 18.5809 4.16626C18.4303 4.09597 17.7676 4.07589 16.4321 4.11606C13.4699 4.20643 11.1002 4.32693 10.9696 4.38718C10.9295 4.40726 10.6684 4.41729 10.3873 4.41729C10.1061 4.41729 9.85507 4.45746 9.81491 4.51771C9.7647 4.57795 9.73458 4.57796 9.73458 4.49763C9.73458 4.4173 9.56387 4.39721 9.21243 4.42733C7.89703 4.52775 6.81257 4.588 6.14985 4.59804C5.75824 4.60808 5.4068 4.64825 5.36663 4.68842C5.32647 4.72858 5.24613 4.73862 5.17584 4.70849C5.10556 4.67837 4.96498 4.74866 4.86457 4.86915C4.76416 4.9796 4.63362 5.06998 4.56333 5.06998C4.40267 5.06998 4.01106 5.41138 4.01106 5.55196C4.01106 5.61221 4.09139 5.71262 4.1918 5.76282C4.29222 5.83311 4.32234 5.90341 4.26209 5.94357C4.1416 6.04398 4.10143 6.39542 4.22193 6.31509C4.27213 6.28497 4.3123 6.30505 4.3123 6.3653C4.3123 6.41551 4.26209 6.47576 4.20184 6.49584C4.11147 6.52596 4.11147 6.59625 4.20184 6.75691C4.29222 6.93765 4.40267 6.97782 4.74407 6.96777C4.97502 6.96777 5.32647 7.00794 5.51725 7.06819C5.96911 7.20877 6.431 7.2188 6.22014 7.07823C6.0896 6.9979 6.09964 6.97781 6.25026 6.97781C6.34063 6.97781 6.42096 7.02802 6.42096 7.08827C6.42096 7.14851 6.51133 7.1686 6.62179 7.12843C6.74228 7.08827 6.82261 7.10835 6.82261 7.18868C6.82261 7.26901 6.87282 7.25897 6.99331 7.1686C7.12385 7.05815 7.16401 7.05815 7.20418 7.15856C7.2343 7.25897 7.27447 7.25897 7.39496 7.1686C7.47529 7.09831 7.5255 7.08827 7.51546 7.13847C7.47529 7.34934 7.53554 7.39955 7.67612 7.27905C7.79661 7.17864 7.82674 7.17864 7.82674 7.28909C7.82674 7.36942 7.88699 7.3393 7.97736 7.21881C8.07108 7.09162 8.12128 7.09162 8.12798 7.21881C8.12798 7.32926 8.1581 7.37947 8.19826 7.34935C8.22839 7.30918 8.30872 7.31922 8.37901 7.37946C8.43925 7.42967 8.66016 7.47988 8.86099 7.49997C9.07185 7.51001 9.23251 7.57025 9.23251 7.64053C9.23251 7.71082 9.15218 7.74095 9.02165 7.71083C8.83086 7.66062 8.82082 7.69075 8.85094 8.31331C8.87103 8.67479 8.92123 8.9459 8.9614 8.91578C9.00156 8.8957 9.01161 8.98607 8.97144 9.11661C8.88107 9.51826 9.00156 9.78937 9.26264 9.71908C9.87515 9.56846 9.99565 9.5785 10.2065 9.77933C10.5078 10.0605 10.6483 10.0404 10.5981 9.73916C10.558 9.51825 10.5881 9.48813 10.8391 9.48813C10.9998 9.48813 11.2006 9.45801 11.291 9.41784C11.4416 9.36764 11.4516 9.38771 11.3412 9.59858C11.2408 9.76928 11.2408 9.83958 11.3311 9.8697C11.3914 9.88978 11.4215 9.93999 11.4014 9.98015C11.3713 10.0203 11.4014 10.0605 11.4717 10.0605C11.542 10.0605 11.7328 10.1006 11.9135 10.1308C12.0943 10.1609 12.265 10.1508 12.2951 10.0906C12.3252 10.0404 12.4357 9.99019 12.526 9.99019C12.6767 9.99019 12.6767 10.0103 12.5461 10.1006C12.4256 10.191 12.4256 10.2011 12.5762 10.1508C12.6767 10.1207 12.8072 10.0906 12.8574 10.0906C12.9177 10.0906 12.9277 10.0404 12.8976 9.99019C12.8674 9.92994 12.8775 9.88978 12.9177 9.88978C12.9679 9.88978 13.0482 9.97011 13.1185 10.0705C13.1888 10.191 13.3595 10.2613 13.5402 10.2713C13.7109 10.2713 13.8314 10.2412 13.8013 10.191C13.7712 10.1408 13.7912 10.0806 13.8515 10.0404C13.9017 10.0103 13.9519 10.0504 13.9519 10.1308C13.9519 10.2211 14.0222 10.2914 14.1025 10.2914C14.1929 10.2914 14.223 10.2312 14.1828 10.1207C14.1326 9.99019 14.1628 9.97011 14.2933 10.0203C14.3937 10.0605 14.4841 10.0906 14.5142 10.0906C14.5343 10.0906 14.5243 10.1609 14.4941 10.2412C14.454 10.3216 14.4841 10.3918 14.5443 10.3918C14.6046 10.3918 14.6548 10.3416 14.6548 10.2914C14.6548 10.2312 14.7853 10.191 14.946 10.191C15.1167 10.191 15.2773 10.1408 15.3075 10.0906C15.3978 9.93998 15.5585 10.0705 15.4882 10.2412C15.4581 10.3517 15.5083 10.3918 15.669 10.3918C15.8597 10.3918 15.8798 10.3718 15.7593 10.2914C15.679 10.2412 15.6489 10.1709 15.679 10.1308C15.7192 10.0906 15.6388 9.98015 15.5083 9.8697C15.1669 9.60863 15.197 9.51825 15.6087 9.52829C15.8497 9.53834 15.9501 9.57851 15.9099 9.65884C15.8899 9.72912 15.9099 9.78936 15.9602 9.78936C16.0104 9.78936 16.0706 9.70904 16.0907 9.60863C16.1309 9.44797 16.1409 9.44797 16.1509 9.60863C16.161 9.72912 16.2513 9.78936 16.4421 9.7994C16.7032 9.7994 16.7032 9.80945 16.4923 9.88978C16.3417 9.95002 16.2815 10.0404 16.3216 10.1408C16.3718 10.2513 16.3417 10.2814 16.2212 10.2312C16.1208 10.191 16.0706 10.1006 16.1007 10.0304C16.1309 9.95003 16.0907 9.88978 16.0204 9.88978C15.9401 9.88978 15.8999 9.97011 15.93 10.1207C15.9702 10.3015 16.0505 10.3517 16.3417 10.3718C16.5425 10.3918 16.8639 10.422 17.0446 10.442C17.2856 10.4722 17.3961 10.4421 17.4362 10.3216C17.4965 10.181 17.5165 10.181 17.637 10.3416C17.7475 10.5023 17.9483 10.5324 19.2236 10.5525C20.3582 10.5625 20.6996 10.5425 20.79 10.432C20.8804 10.3216 20.8703 10.2914 20.7398 10.2914C20.6494 10.2914 20.5791 10.2412 20.5791 10.191C20.5791 10.0504 20.7097 10.0705 20.9406 10.2412C21.2117 10.442 21.4628 10.422 21.533 10.2011C21.5732 10.0705 21.6535 10.0203 21.7439 10.0605C21.8343 10.0906 21.8845 10.0605 21.8644 9.98015C21.8443 9.89982 21.9347 9.83958 22.0853 9.81949L22.3363 9.7994L22.0853 9.8697C21.9146 9.91991 21.8744 9.97011 21.9648 10.0304C22.0251 10.0705 22.1355 10.0705 22.2058 10.0304C22.2761 9.99019 22.2861 10.0002 22.246 10.0705C22.2058 10.1408 22.0351 10.191 21.8544 10.191C21.5833 10.191 21.5632 10.2111 21.6837 10.3316C21.764 10.4119 22.005 10.5425 22.2158 10.6328C22.5472 10.7634 22.6075 10.7634 22.6577 10.6429C22.6878 10.5625 22.7681 10.4923 22.8485 10.4923C22.9187 10.4923 22.9589 10.5525 22.9288 10.6228C22.8987 10.7132 22.9991 10.7634 23.2501 10.7734C23.5915 10.8035 23.6116 10.7835 23.4811 10.6328C23.3505 10.4722 23.3606 10.4621 23.5714 10.5123C23.6919 10.5525 23.7923 10.5324 23.7923 10.4621C23.7923 10.4019 23.8225 10.3918 23.8626 10.422C23.953 10.5224 24.204 10.2914 24.1337 10.1709C24.0936 10.1107 24.1538 10.0906 24.2844 10.1408C24.4048 10.181 24.4952 10.1609 24.4952 10.1006C24.4952 10.0404 24.5655 9.99019 24.6458 9.99019C24.7262 9.99019 24.7965 10.0304 24.7965 10.0705C24.7965 10.1107 24.9169 10.1408 25.0776 10.1308C25.2383 10.1308 25.419 10.2011 25.5295 10.3216C25.7202 10.5425 25.7504 10.6931 25.5998 10.6931C25.5495 10.6931 25.5094 10.6328 25.5295 10.5625C25.5395 10.5023 25.4793 10.442 25.3989 10.442C25.3186 10.442 25.1981 10.4019 25.1379 10.3718C25.0776 10.3316 25.0274 10.3617 25.0274 10.442C25.0274 10.5224 25.1077 10.5927 25.2081 10.5927C25.3086 10.5927 25.419 10.6328 25.4491 10.6931C25.4793 10.7433 25.6098 10.7734 25.7303 10.7533C25.8508 10.7232 26.0014 10.7031 26.0717 10.7031C26.142 10.6931 26.1721 10.6228 26.142 10.5425C26.1018 10.4621 26.0416 10.4119 26.0014 10.442C25.9612 10.4722 25.901 10.432 25.8709 10.3617C25.8407 10.2714 25.911 10.2412 26.1119 10.2513C26.3227 10.2613 26.4031 10.2211 26.4131 10.1107C26.4131 10.0103 26.4432 9.9902 26.4633 10.0605C26.4934 10.1308 26.5738 10.1609 26.644 10.1308C26.7244 10.1006 26.8047 10.1508 26.8449 10.2412C26.875 10.3316 26.9453 10.3818 27.0055 10.3416C27.0557 10.3115 27.1863 10.3316 27.2967 10.3818C27.4273 10.4521 27.4976 10.4621 27.5277 10.3918C27.5879 10.191 28.2004 10.4019 28.2406 10.6328C28.2707 10.8035 28.2908 10.7935 28.3009 10.5726C28.3109 10.3918 28.3511 10.3115 28.4414 10.3517C28.5318 10.3818 28.5619 10.5123 28.5318 10.6931C28.4916 10.9441 28.5218 10.9943 28.7025 10.9943C28.9636 10.9943 28.9636 10.9542 28.7427 10.7332C28.572 10.5625 28.572 10.5525 28.7527 10.6228C28.8933 10.673 28.9234 10.663 28.8732 10.5425C28.833 10.432 28.8832 10.3918 29.064 10.3918C29.2046 10.3918 29.315 10.442 29.315 10.5023C29.315 10.5625 29.2447 10.5826 29.1544 10.5525C29.064 10.5123 29.0138 10.5425 29.0339 10.6027C29.0841 10.7634 29.5962 10.8136 29.6765 10.673C29.7167 10.6027 29.6966 10.5927 29.6363 10.6328C29.556 10.683 29.5158 10.6228 29.5158 10.4923C29.5158 10.3416 29.5661 10.2914 29.6564 10.3216C29.7368 10.3517 29.8271 10.3316 29.8472 10.2613C29.8773 10.1709 29.9275 10.181 30.0581 10.2814C30.2087 10.4119 30.2489 10.4119 30.3292 10.2814C30.4095 10.1609 30.4296 10.1609 30.52 10.2914C30.5702 10.3718 30.6204 10.3918 30.6204 10.3416C30.6204 10.2814 30.6907 10.3216 30.761 10.422C30.8413 10.5224 30.8815 10.6931 30.8513 10.7935C30.8212 10.9039 30.8513 10.9943 30.9116 10.9943C30.9718 10.9943 31.022 10.9541 31.022 10.9039C31.022 10.8437 31.1124 10.8136 31.2128 10.8236C31.3233 10.8236 31.3835 10.8839 31.3534 10.9642C31.3233 11.0345 31.3534 11.0947 31.4136 11.0947C31.4739 11.0947 31.5241 11.0445 31.5241 10.9943C31.5241 10.9341 31.6145 10.8939 31.735 10.8939C31.8454 10.8939 31.9057 10.9341 31.8755 10.9943C31.8454 11.0445 31.8555 11.0947 31.9157 11.0947C31.9659 11.0947 32.0262 11.0345 32.0563 10.9642C32.0964 10.8638 32.1266 10.8638 32.237 10.9642C32.3977 11.1249 32.5684 11.1349 32.468 10.9742C32.4178 10.8939 32.4479 10.8839 32.5885 10.9441C32.9801 11.1048 33.2512 11.1249 33.3416 10.9843C33.4119 10.8839 33.452 10.8738 33.5123 10.9541C33.5524 11.0345 33.8537 11.0646 34.3156 11.0546C34.7072 11.0445 35.0385 11.0747 35.0385 11.1249C35.0385 11.165 35.0887 11.1751 35.1389 11.1449C35.1992 11.1048 35.2193 11.0345 35.1892 10.9843C35.1088 10.8537 35.2795 10.8738 35.4101 11.0044C35.5607 11.155 35.7615 11.0847 35.6511 10.914C35.6109 10.8437 35.4402 10.7634 35.2795 10.7433C35.1189 10.7232 34.9682 10.7031 34.9381 10.7031C34.908 10.6931 34.9482 10.6529 35.0285 10.6027C35.1189 10.5425 35.2695 10.5525 35.4201 10.6027C35.5607 10.6529 35.7515 10.673 35.8519 10.6429C35.9925 10.5927 36.0728 10.6429 36.1431 10.8136C36.21 10.9609 36.2334 10.9475 36.2134 10.7734C36.1933 10.6228 36.2134 10.5224 36.2535 10.5525C36.3037 10.5826 36.3439 10.5224 36.3439 10.432C36.3439 10.2713 36.3539 10.2713 36.5347 10.432C36.6652 10.5425 36.8962 10.6128 37.1874 10.6128C37.589 10.6128 37.6493 10.6429 37.6493 10.8136C37.6493 10.9542 37.6995 10.9943 37.8099 10.9541C37.9003 10.924 37.9806 10.8939 38.0107 10.8939C38.0308 10.8939 38.0208 10.8337 37.9907 10.7533C37.9304 10.5927 38.2216 10.4521 38.312 10.6027C38.3421 10.663 38.4927 10.683 38.6433 10.6429C38.814 10.6027 38.8743 10.6127 38.804 10.683C38.7538 10.7332 38.5731 10.7935 38.4024 10.8236C38.2317 10.8437 38.3421 10.8738 38.6735 10.8839C39.0149 10.8839 39.2759 10.8437 39.3161 10.7734C39.3663 10.7031 39.3161 10.683 39.1755 10.7132C39.045 10.7533 38.9847 10.7332 39.0149 10.6529C39.035 10.5927 39.2057 10.5324 39.3864 10.5224C40.0893 10.4923 40.3704 10.432 40.4709 10.2914C40.5512 10.1609 40.5813 10.1609 40.7018 10.3115C40.8424 10.5023 41.2139 10.5525 41.3143 10.3918C41.3444 10.3416 41.4348 10.3216 41.5151 10.3617C41.6156 10.3918 41.6658 10.3416 41.6658 10.2011C41.6658 10.0404 41.6156 10.0002 41.4448 10.0304C41.3143 10.0504 41.1737 10.0304 41.1135 9.99019C41.0231 9.9199 40.6215 9.84961 39.7579 9.73916C39.6173 9.71908 39.3061 9.67891 39.055 9.63875C37.348 9.39776 35.5707 9.21701 34.667 9.19693C34.5264 9.18689 34.4361 9.12664 34.4361 9.03627C34.4361 8.95594 34.3959 8.88565 34.3457 8.88565C34.2955 8.88565 34.2252 8.81537 34.1951 8.72499C34.1649 8.64466 34.175 8.6045 34.2352 8.63462C34.2854 8.66474 34.3557 8.57437 34.3959 8.4338C34.426 8.30326 34.4963 8.21289 34.5465 8.23297C34.5867 8.26309 34.6871 8.20285 34.7574 8.08235C34.8277 7.9719 34.918 7.88153 34.9682 7.88153C35.1289 7.88153 36.2435 7.3393 36.2435 7.25897C36.2435 7.21881 36.2033 7.17864 36.1531 7.17864C36.1029 7.17864 36.0427 7.08827 36.0125 6.98785C35.9824 6.8774 35.7916 6.71674 35.5808 6.62637C35.2494 6.48579 35.2193 6.44563 35.3599 6.3653C35.4502 6.31509 35.8519 6.29501 36.2535 6.32513C36.7355 6.35526 37.0367 6.32514 37.1271 6.25485C37.2376 6.16448 37.2878 6.16447 37.348 6.28496C37.4183 6.40546 37.6894 6.43559 38.5831 6.46571C39.2057 6.47575 39.8885 6.50587 40.0893 6.52596C40.3604 6.54604 40.4608 6.51591 40.4909 6.38538C40.5311 6.2448 40.5411 6.24481 40.5512 6.39543C40.5612 6.53601 40.6616 6.55609 41.1135 6.54605C41.4147 6.53601 41.6658 6.55609 41.6658 6.59625C41.6658 6.69667 42.5795 6.69667 42.7402 6.59625C42.8205 6.54605 42.8305 6.46571 42.7703 6.37534C42.6197 6.14439 42.6498 6.0741 42.8707 6.0741C42.9812 6.0741 43.0715 6.1243 43.0715 6.18455C43.0715 6.23476 43.0314 6.25484 42.9711 6.22472C42.8506 6.14439 42.8406 6.27493 42.9611 6.46571C43.0715 6.64645 43.6037 6.71675 43.5134 6.54605C43.4832 6.47576 43.5134 6.49583 43.5937 6.57616C43.7443 6.75691 44.3769 6.83724 44.3769 6.67658C44.3769 6.62637 44.4974 6.57616 44.6581 6.5862C44.889 6.5862 44.899 6.60629 44.7384 6.66654C44.5576 6.73683 44.5576 6.74687 44.7183 6.80712C44.8187 6.84728 44.9794 6.82719 45.0798 6.77699C45.1802 6.72678 45.3409 6.7067 45.4212 6.73682C45.5216 6.77699 45.5818 6.74687 45.5818 6.66654C45.5818 6.55608 45.6019 6.54604 45.6722 6.6565C45.7124 6.72679 45.7927 6.77699 45.8429 6.76695C45.8931 6.75691 45.9534 6.76695 45.9835 6.77699C46.0136 6.78703 46.2245 6.80711 46.4655 6.82719C46.7968 6.84728 46.8872 6.8272 46.8973 6.69667C46.8973 6.55609 46.9073 6.54604 46.9675 6.67658C47.0479 6.85732 47.4094 6.87741 47.4696 6.69667C47.4897 6.63642 47.5801 6.57616 47.6604 6.57616C47.7809 6.57616 47.7909 6.60629 47.7006 6.7067C47.6102 6.81716 47.6503 6.84728 47.9014 6.85732C48.1926 6.86736 48.2026 6.84728 48.1323 6.54605C48.1022 6.3653 48.0319 6.21469 47.9817 6.1946C47.8512 6.1444 48.1524 5.87328 48.3231 5.87328C48.4034 5.87328 48.4938 5.81304 48.5239 5.74275C48.5741 5.61221 48.9858 5.38125 49.6285 5.13022C49.8293 5.04989 50 4.93944 50 4.87919C50 4.71853 49.5381 4.26668 49.3774 4.26668C49.2971 4.26668 49.1967 4.22651 49.1465 4.1763C49.0862 4.11605 48.9155 4.05581 48.7649 4.02568C48.5139 3.98552 47.1483 3.61399 46.3349 3.373C46.0437 3.28263 45.2404 3.12197 45.0296 3.11193C44.9794 3.11193 44.889 3.08181 44.8288 3.05169C44.7785 3.01152 44.5476 2.95127 44.3267 2.91111C44.1058 2.8609 43.8849 2.82073 43.8246 2.81069C43.5535 2.75045 42.0072 2.42912 41.9168 2.41908C41.8666 2.40904 41.7762 2.37892 41.716 2.3488C41.6658 2.30863 41.5252 2.29859 41.4248 2.31867C41.3143 2.32871 41.1537 2.30863 41.0733 2.25842C40.983 2.21826 40.7821 2.14797 40.6114 2.11784C40.4508 2.08772 40.0893 2.01743 39.8081 1.95719C39.537 1.90698 39.055 1.84673 38.7538 1.81661C38.4526 1.79652 37.9806 1.72624 37.6995 1.66599C36.4041 1.39487 34.6068 1.13381 33.6328 1.09364C33.2713 1.0836 32.9801 1.06352 32.9801 1.05347C32.9801 1.02335 32.5684 0.953064 32.0061 0.892817C31.5542 0.84261 31.4237 0.862688 31.4237 0.963101C31.4237 1.07355 31.4036 1.07356 31.3434 0.973152C31.2329 0.812492 30.9618 0.752237 30.0179 0.70203C29.6062 0.681948 29.1544 0.631739 29.0138 0.611657C28.8732 0.581533 28.331 0.531329 27.8088 0.501205C27.2867 0.471082 26.634 0.420883 26.3528 0.370676C26.0817 0.330511 25.5696 0.30038 25.2282 0.30038C24.8868 0.30038 24.5956 0.260223 24.5956 0.220058C24.5956 0.179893 24.5053 0.189926 24.4048 0.250174C24.1639 0.370669 24.0634 0.380718 24.1337 0.270264C24.1639 0.220058 23.9932 0.17989 23.7622 0.17989C23.5313 0.17989 22.9991 0.149769 22.5874 0.119645C21.6335 0.039315 20.8502 0.0292689 20.298 0.0895164C20.067 0.11964 19.8863 0.109604 19.9164 0.0694388C19.9767 -0.0309737 19.3441 -0.0209374 19.1834 0.0895164C19.093 0.149764 19.0227 0.149764 19.0026 0.0895164C18.9826 0.0393101 18.5307 0.00919127 17.9985 0.0192325C17.4563 0.0292738 16.6229 0.0393077 16.1409 0.0493489C15.6589 0.0593902 15.2271 0.0493563 15.187 0.0192325C15.1468 -0.000849979 14.9862 0.00918392 14.8456 0.0493489ZM5.16581 1.35471C5.19593 1.41496 5.15576 1.425 5.07543 1.39488C4.89469 1.32459 4.86457 1.2543 5.00515 1.2543C5.06539 1.2543 5.13568 1.29446 5.16581 1.35471ZM8.42921 1.66599C8.42921 1.71619 8.34888 1.75636 8.25851 1.74632C8.14806 1.74632 8.12797 1.7162 8.2083 1.68608C8.26855 1.666 8.29868 1.58567 8.26855 1.53546C8.22839 1.46517 8.24847 1.45513 8.30872 1.49529C8.37901 1.53546 8.42921 1.60574 8.42921 1.66599ZM9.14214 1.65595C9.14214 1.75636 9.17227 1.73628 9.23251 1.60574C9.31284 1.41496 9.32288 1.41496 9.32288 1.61578C9.33293 1.75636 9.2526 1.85678 9.11202 1.89694C8.78066 1.97727 8.60996 1.96723 8.6702 1.86681C8.71037 1.81661 8.68024 1.75637 8.60995 1.73628C8.40913 1.666 8.62 1.47521 8.88107 1.49529C9.03169 1.49529 9.1321 1.56558 9.14214 1.65595ZM9.58396 1.55554C9.61408 1.60574 9.594 1.65595 9.54379 1.65595C9.48354 1.65595 9.43334 1.60574 9.43334 1.55554C9.43334 1.49529 9.45342 1.45512 9.4735 1.45512C9.50363 1.45512 9.55383 1.49529 9.58396 1.55554ZM20.8 1.5455C20.6896 1.60575 20.7197 1.67604 20.9205 1.8367C21.1314 1.99736 21.1515 2.04756 21.0209 2.09777C20.9406 2.12789 20.9004 2.11784 20.9306 2.06764C20.9607 2.01743 20.8904 1.94715 20.78 1.90698C20.4888 1.81661 20.5289 1.45512 20.8201 1.45512C20.8804 1.45512 20.8703 1.49529 20.8 1.5455ZM21.3322 1.75636C21.3623 1.80657 21.3523 1.85677 21.2921 1.85677C21.2419 1.85677 21.1615 1.80657 21.1314 1.75636C21.1013 1.69611 21.1113 1.65595 21.1716 1.65595C21.2218 1.65595 21.3021 1.69611 21.3322 1.75636ZM21.6937 1.8869C21.5933 1.97727 21.5833 1.96724 21.6435 1.82666C21.6736 1.72625 21.7339 1.67603 21.764 1.70616C21.7941 1.73628 21.764 1.81661 21.6937 1.8869ZM14.1025 1.85677C14.1326 1.90698 14.1226 1.95719 14.0624 1.95719C14.0122 1.95719 13.9318 1.90698 13.9017 1.85677C13.8716 1.79653 13.8816 1.75636 13.9419 1.75636C13.9921 1.75636 14.0724 1.79653 14.1025 1.85677ZM33.683 2.92114C33.8135 2.97135 33.8235 3.00148 33.7131 3.07176C33.5123 3.2023 33.3315 3.18222 33.3315 3.01152C33.3315 2.85086 33.4219 2.82073 33.683 2.92114ZM35.1088 3.19227C35.0586 3.35293 34.5063 3.33284 34.4561 3.17218C34.426 3.09185 34.4561 3.06173 34.5164 3.10189C34.5766 3.13202 34.6469 3.12197 34.677 3.07176C34.7574 2.95127 35.159 3.06173 35.1088 3.19227ZM36.1129 3.18223C36.0828 3.26256 36.0527 3.23242 36.0527 3.12197C36.0427 3.01152 36.0728 2.95128 36.1029 2.99144C36.133 3.02156 36.1431 3.11194 36.1129 3.18223ZM35.7414 3.30272C35.9925 3.38305 36.1531 3.46337 36.0929 3.47341C35.7615 3.53366 35.5306 3.52363 35.4803 3.4433C35.4502 3.40313 35.3799 3.38305 35.3297 3.41317C35.2795 3.45333 35.2394 3.40313 35.2394 3.3228C35.2394 3.23242 35.2494 3.16214 35.2695 3.16214C35.2795 3.16214 35.4904 3.23243 35.7414 3.30272ZM24.696 5.37121C24.696 5.26076 24.7262 5.26076 24.8165 5.35114C25.0073 5.54192 24.7864 5.70257 24.4852 5.58208C24.3546 5.53187 24.2944 5.48166 24.3647 5.48166C24.435 5.47162 24.4651 5.40134 24.4249 5.29089C24.3747 5.15031 24.3948 5.16035 24.5253 5.32101C24.6458 5.46158 24.686 5.48167 24.696 5.37121ZM22.738 5.37121C22.7681 5.42142 22.748 5.47163 22.6978 5.47163C22.6376 5.47163 22.5874 5.42142 22.5874 5.37121C22.5874 5.31097 22.6075 5.2708 22.6275 5.2708C22.6577 5.2708 22.7079 5.31097 22.738 5.37121ZM27.4574 5.49172C27.598 5.55196 27.7084 5.64232 27.7084 5.68249C27.7084 5.77286 26.5336 5.73271 26.4332 5.64233C26.3729 5.58209 26.5436 5.53188 26.7344 5.562C26.7746 5.562 26.8047 5.52183 26.8047 5.47163C26.8047 5.34109 27.1361 5.3411 27.4574 5.49172ZM28.8431 5.562C29.1744 5.77287 29.0439 5.95361 28.7025 5.76282C28.5619 5.69254 28.5117 5.69254 28.5519 5.76282C28.592 5.82307 28.4916 5.85319 28.2406 5.83311C28.0398 5.81303 27.849 5.74274 27.8289 5.68249C27.7988 5.58208 27.9996 5.52183 28.2908 5.562C28.3511 5.57204 28.4113 5.53187 28.4113 5.47163C28.4113 5.32101 28.5218 5.35113 28.8431 5.562ZM25.7504 5.67245C25.7202 5.72266 25.6098 5.7327 25.4893 5.70258C25.3387 5.66241 25.3186 5.62224 25.409 5.57204C25.5596 5.47163 25.8207 5.562 25.7504 5.67245ZM29.7167 5.58208C29.7167 5.64232 29.797 5.66241 29.9075 5.62224C30.0581 5.57204 30.0982 5.61221 30.0882 5.76282C30.0782 5.9034 30.038 5.93353 29.9577 5.86324C29.8874 5.81303 29.7167 5.79294 29.566 5.83311C29.315 5.89336 29.305 5.88331 29.4054 5.68249C29.5259 5.46158 29.7167 5.39129 29.7167 5.58208ZM32.0663 5.61221C32.0262 5.72266 32.0764 5.74274 32.3475 5.68249C32.5282 5.64232 32.7893 5.64232 32.9299 5.68249L33.1809 5.75279L32.9098 5.76282C32.7491 5.77287 32.6286 5.82307 32.6286 5.88331C32.6286 5.96364 32.5784 5.96365 32.478 5.87328C32.3575 5.77286 32.2973 5.77287 32.1868 5.86324C32.0864 5.95361 32.0262 5.95361 31.9759 5.87328C31.9057 5.76282 31.976 5.47163 32.0663 5.47163C32.0964 5.47163 32.0964 5.53188 32.0663 5.61221ZM26.3026 5.67245C26.3026 5.72266 26.2826 5.77286 26.2625 5.77286C26.2324 5.77286 26.1821 5.72266 26.152 5.67245C26.1219 5.6122 26.142 5.57204 26.1922 5.57204C26.2524 5.57204 26.3026 5.6122 26.3026 5.67245ZM31.1526 5.69254C31.2731 5.76283 31.4839 5.80299 31.6245 5.79295C31.8655 5.76283 31.8655 5.77286 31.6848 5.92348C31.4337 6.11427 31.3634 6.11427 31.2831 5.92348C31.253 5.84315 31.1124 5.77286 30.9718 5.77286C30.7911 5.77286 30.7308 5.81304 30.781 5.89337C30.8313 5.9737 30.8011 5.98374 30.6806 5.94357C30.5802 5.90341 30.4798 5.87328 30.4597 5.87328C30.3392 5.87328 30.4497 5.6825 30.6003 5.64233C30.8915 5.562 30.9317 5.57205 31.1526 5.69254ZM33.4319 5.77286C33.4319 5.82307 33.3817 5.87328 33.3215 5.87328C33.2713 5.87328 33.2512 5.82307 33.2813 5.77286C33.3114 5.71262 33.3616 5.67245 33.3918 5.67245C33.4119 5.67245 33.4319 5.71262 33.4319 5.77286ZM34.0846 5.77286C34.0545 5.82307 33.9842 5.87328 33.924 5.87328C33.8737 5.87328 33.8336 5.82307 33.8336 5.77286C33.8336 5.71262 33.9039 5.67245 33.9942 5.67245C34.0746 5.67245 34.1147 5.71262 34.0846 5.77286ZM34.7373 5.93352C34.7373 5.9536 34.6469 5.93352 34.5365 5.87328C34.426 5.81303 34.3356 5.74274 34.3356 5.71262C34.3356 5.69254 34.426 5.71262 34.5365 5.77286C34.6469 5.83311 34.7373 5.9034 34.7373 5.93352ZM35.1892 5.77286C35.2193 5.82307 35.1791 5.87328 35.0988 5.87328C35.0084 5.87328 34.9381 5.82307 34.9381 5.77286C34.9381 5.71262 34.9783 5.67245 35.0285 5.67245C35.0887 5.67245 35.159 5.71262 35.1892 5.77286ZM35.7916 5.77286C35.7615 5.82307 35.6711 5.84316 35.5908 5.80299C35.3799 5.7327 35.4 5.67245 35.6511 5.67245C35.7615 5.67245 35.8318 5.71262 35.7916 5.77286ZM32.3776 5.97369C32.4077 6.02389 32.3876 6.0741 32.3374 6.0741C32.2772 6.0741 32.227 6.02389 32.227 5.97369C32.227 5.91344 32.2471 5.87328 32.2671 5.87328C32.2973 5.87328 32.3475 5.91344 32.3776 5.97369ZM39.9085 5.97369C39.8784 6.02389 39.788 6.0741 39.7278 6.0741C39.6575 6.0741 39.6675 6.03394 39.7579 5.97369C39.9487 5.85319 39.9889 5.85319 39.9085 5.97369ZM40.4608 6.02389C40.4608 6.10422 40.3905 6.17451 40.3102 6.17451C40.0491 6.17451 40.1294 5.97369 40.4407 5.88331C40.4508 5.87327 40.4608 5.94356 40.4608 6.02389ZM34.2854 6.0741C34.2553 6.12431 34.1649 6.17451 34.1047 6.17451C34.0344 6.17451 34.0444 6.13435 34.1348 6.0741C34.3256 5.95361 34.3658 5.95361 34.2854 6.0741ZM34.9883 6.28496C34.9883 6.35525 34.898 6.43559 34.7875 6.46571C34.6268 6.49584 34.6168 6.47576 34.7172 6.35526C34.7775 6.27493 34.7975 6.17451 34.7574 6.12431C34.7172 6.08414 34.7574 6.06407 34.8377 6.09419C34.918 6.12431 34.9883 6.20463 34.9883 6.28496ZM44.9794 6.1946C44.9794 6.27493 44.8187 6.33518 44.5777 6.34522C44.3468 6.3653 44.1761 6.32513 44.1761 6.26489C44.1761 6.20464 44.2162 6.1946 44.2765 6.22472C44.3267 6.25484 44.4572 6.23476 44.5476 6.18455C44.7986 6.04397 44.9794 6.05403 44.9794 6.1946ZM43.3728 6.27493C43.3728 6.32513 43.3527 6.37534 43.3326 6.37534C43.3025 6.37534 43.2523 6.32513 43.2222 6.27493C43.192 6.21468 43.2121 6.17451 43.2623 6.17451C43.3226 6.17451 43.3728 6.21468 43.3728 6.27493ZM44.0255 6.47575C44.0556 6.52596 44.0154 6.57616 43.925 6.57616C43.8347 6.57616 43.7945 6.52596 43.8246 6.47575C43.8548 6.4155 43.905 6.37534 43.925 6.37534C43.9451 6.37534 43.9953 6.4155 44.0255 6.47575ZM7.22426 6.73682C7.22426 6.81715 7.17406 6.85732 7.12385 6.82719C7.0636 6.78703 7.04352 6.71674 7.07364 6.66654C7.16402 6.52596 7.22426 6.55608 7.22426 6.73682ZM6.85274 6.74687C6.78245 6.76695 6.66195 6.76695 6.6017 6.74687C6.53142 6.71675 6.58162 6.69667 6.7222 6.69667C6.86278 6.69667 6.91298 6.71675 6.85274 6.74687ZM7.67612 6.78703C7.79661 6.97781 7.62591 7.01799 7.45521 6.84728C7.29455 6.68662 7.29455 6.67658 7.44517 6.67658C7.53554 6.67658 7.646 6.72678 7.67612 6.78703ZM8.25851 6.88744C8.29868 7.0481 8.28864 7.06819 8.16814 6.96777C8.00748 6.83724 7.97736 6.67658 8.11793 6.67658C8.16814 6.67658 8.22839 6.76694 8.25851 6.88744ZM6.01931 6.8774C6.01931 6.92761 5.99923 6.97781 5.97914 6.97781C5.94902 6.97781 5.89882 6.92761 5.86869 6.8774C5.83857 6.81715 5.85865 6.77699 5.90886 6.77699C5.96911 6.77699 6.01931 6.81715 6.01931 6.8774ZM9.08189 6.8774C9.22247 6.94769 9.16223 6.95774 8.88107 6.90753C8.66016 6.87741 8.45933 6.83724 8.43925 6.81716C8.34888 6.73683 8.89111 6.79707 9.08189 6.8774ZM9.68437 6.97781C9.71449 7.02802 9.69441 7.07823 9.6442 7.07823C9.58396 7.07823 9.53375 7.02802 9.53375 6.97781C9.53375 6.91757 9.55383 6.8774 9.57392 6.8774C9.60404 6.8774 9.65425 6.91757 9.68437 6.97781ZM31.2731 8.78524C31.3032 8.83545 31.263 8.88565 31.1827 8.88565C31.0923 8.88565 31.022 8.83545 31.022 8.78524C31.022 8.72499 31.0622 8.68483 31.1124 8.68483C31.1727 8.68483 31.2429 8.72499 31.2731 8.78524ZM13.0783 9.41784C13.1084 9.49817 13.0683 9.55842 12.998 9.55842C12.9277 9.55842 12.8875 9.49817 12.9177 9.41784C12.9478 9.34755 12.9779 9.2873 12.998 9.2873C13.0181 9.2873 13.0482 9.34755 13.0783 9.41784ZM12.1445 9.53833C12.1445 9.70903 11.8633 9.73916 11.6424 9.5785C11.5219 9.49817 11.552 9.47809 11.7729 9.51826C11.9236 9.53834 12.0441 9.51825 12.0441 9.47809C12.0441 9.42788 12.0641 9.38771 12.0943 9.38771C12.1244 9.38771 12.1445 9.458 12.1445 9.53833ZM13.8314 9.5785C14.1025 9.80945 14.1126 9.88978 13.8515 9.81949C13.731 9.78937 13.6707 9.73917 13.7009 9.70904C13.721 9.67892 13.7009 9.59859 13.6406 9.51826C13.48 9.32747 13.5804 9.35759 13.8314 9.5785ZM13.5 9.66887C13.4699 9.699 13.3896 9.66887 13.3193 9.59858C13.2289 9.49817 13.239 9.48812 13.3795 9.54837C13.48 9.5785 13.5302 9.63875 13.5 9.66887ZM20.9306 9.87974C20.8703 9.92994 20.6795 9.77933 20.6795 9.67891C20.6795 9.62871 20.7398 9.63875 20.8201 9.70904C20.9004 9.77933 20.9406 9.85966 20.9306 9.87974ZM14.6046 9.78936C14.3335 9.90986 14.1728 9.90986 14.3535 9.78936C14.4339 9.73916 14.5745 9.69899 14.6548 9.69899C14.7552 9.69899 14.7351 9.72912 14.6046 9.78936ZM18.4504 9.87974C18.5709 9.88978 18.6713 9.92994 18.6713 9.98015C18.6713 10.0304 18.5508 10.0605 18.4002 10.0504C18.2395 10.0304 18.0889 10.0605 18.0588 10.1207C17.9584 10.2613 17.7676 10.1107 17.8278 9.95002C17.858 9.86969 17.9584 9.81949 18.0487 9.83957C18.1391 9.85965 18.3198 9.87974 18.4504 9.87974ZM20.2176 9.84961C20.4787 9.95002 20.3984 10.0906 20.0871 10.0906C19.7457 10.0906 19.585 9.92995 19.8461 9.85966C19.9465 9.82954 20.0369 9.80944 20.0469 9.7994C20.057 9.7994 20.1273 9.81949 20.2176 9.84961ZM21.4326 9.88978C21.4025 9.93998 21.2921 9.99019 21.2017 9.98015C21.0611 9.98015 21.0711 9.96007 21.2318 9.88978C21.4126 9.81614 21.4795 9.81614 21.4326 9.88978ZM19.4344 10.0103C19.4846 10.0806 19.4344 10.1006 19.2938 10.0705C19.1734 10.0404 19.0629 10.0605 19.0428 10.1207C19.0027 10.2412 18.7717 10.1308 18.7717 9.98015C18.7717 9.84961 19.3441 9.8697 19.4344 10.0103ZM23.4208 10.1408C23.5714 10.1609 23.7622 10.1709 23.8425 10.181C23.9229 10.181 23.9932 10.2312 23.9932 10.2713C23.9932 10.3617 23.23 10.3617 23.1296 10.2713C23.0995 10.2312 22.989 10.2513 22.8886 10.3115C22.748 10.4019 22.6677 10.4019 22.5271 10.2914C22.3765 10.1508 22.3765 10.1408 22.5974 10.0806C22.728 10.0404 22.9087 10.0404 22.989 10.0705C23.0694 10.1006 23.2601 10.1308 23.4208 10.1408ZM29.9476 10.0605C29.8773 10.0806 29.7568 10.0806 29.6966 10.0605C29.6263 10.0304 29.6765 10.0103 29.8171 10.0103C29.9577 10.0103 30.0079 10.0304 29.9476 10.0605ZM32.8295 10.5525C33.2813 10.5826 33.3918 10.6027 33.2612 10.6529C33.1909 10.683 33.1508 10.7634 33.1709 10.8236C33.1809 10.8939 33.1809 10.914 33.1608 10.8638C33.1307 10.8236 33.0504 10.7935 32.97 10.7935C32.8897 10.7935 32.8295 10.7533 32.8295 10.7132C32.8295 10.663 32.4378 10.6328 31.9659 10.6529C31.494 10.663 31.1325 10.6429 31.1626 10.6128C31.1927 10.5826 31.3434 10.5525 31.494 10.5425C31.6546 10.5224 31.8655 10.4822 31.9659 10.442C32.1065 10.3818 32.1366 10.3918 32.0864 10.4722C32.0462 10.5425 32.0563 10.5927 32.1065 10.5927C32.1667 10.5927 32.237 10.5123 32.2772 10.4119C32.3374 10.2613 32.3575 10.2613 32.4579 10.3918C32.5282 10.4722 32.6889 10.5525 32.8295 10.5525ZM33.7332 10.4923C33.7332 10.5525 33.7934 10.5927 33.8637 10.5726C33.934 10.5525 33.9942 10.5826 34.0043 10.6429C34.0143 10.6931 33.8838 10.7533 33.7231 10.7634C33.4119 10.7935 33.4018 10.7834 33.4922 10.5525C33.5625 10.3718 33.7332 10.3316 33.7332 10.4923ZM22.5874 10.5927C22.5874 10.6429 22.5673 10.6931 22.5472 10.6931C22.5171 10.6931 22.4669 10.6429 22.4368 10.5927C22.4066 10.5324 22.4267 10.4923 22.4769 10.4923C22.5372 10.4923 22.5874 10.5324 22.5874 10.5927ZM34.5365 10.6328C34.5365 10.663 34.4963 10.7132 34.4361 10.7433C34.3859 10.7734 34.3356 10.7533 34.3356 10.7031C34.3356 10.6429 34.3859 10.5927 34.4361 10.5927C34.4963 10.5927 34.5365 10.6127 34.5365 10.6328ZM34.8377 10.7935C34.8377 10.8437 34.7975 10.8939 34.7373 10.8939C34.6871 10.8939 34.6369 10.8437 34.6369 10.7935C34.6369 10.7332 34.6871 10.6931 34.7373 10.6931C34.7975 10.6931 34.8377 10.7332 34.8377 10.7935Z" fill="white"/>
</g>
<defs>
<clipPath id="clip0_4949_86128">
<rect width="50" height="11.1625" fill="white"/>
</clipPath>
</defs>
</svg>
