<svg width="151" height="35" viewBox="0 0 151 35" fill="none" xmlns="http://www.w3.org/2000/svg">
<path d="M40.3301 1.00018H50.4301C52.3344 0.96393 54.2273 1.30375 56.0001 2.00018C57.6195 2.6545 59.0106 3.77086 60.0001 5.21018C61.0612 6.872 61.585 8.82028 61.5001 10.7902C61.5813 12.8037 61.059 14.7956 60.0001 16.5102C59.0273 18.0146 57.6374 19.203 56.0001 19.9302C54.244 20.708 52.3405 21.0969 50.4201 21.0702H45.5501V34.4302H40.3301V1.00018ZM45.5501 16.8002H49.0001C50.19 16.8126 51.3734 16.6233 52.5001 16.2402C53.5061 15.8944 54.3798 15.2444 55.0001 14.3802C55.6514 13.3769 55.9731 12.1952 55.9201 11.0002C56.001 9.78031 55.6777 8.56776 55.0001 7.55018C54.3614 6.72011 53.4809 6.10866 52.4801 5.80018C51.3552 5.44259 50.1804 5.26704 49.0001 5.28018H45.5501V16.8002Z" fill="#F2F2F2"/>
<path d="M71.7895 34.43H66.4395V1H71.7895V34.43Z" fill="#F2F2F2"/>
<path d="M93.8298 34.4302V30.0502C93.5569 30.6645 93.1739 31.2237 92.6998 31.7002C91.9689 32.4725 91.1095 33.112 90.1598 33.5902C88.9837 34.1748 87.6827 34.4631 86.3698 34.4302C84.5743 34.4627 82.8051 33.9967 81.2586 33.084C79.7121 32.1713 78.4491 30.8477 77.6098 29.2602C76.7044 27.5276 76.2504 25.5947 76.2898 23.6402C76.2479 21.679 76.702 19.7391 77.6098 18.0002C78.4481 16.4104 79.7104 15.084 81.2567 14.1679C82.8029 13.2518 84.5727 12.7818 86.3698 12.8102C87.6462 12.776 88.9141 13.0289 90.0798 13.5502C91.0124 13.9744 91.8649 14.5562 92.5998 15.2702C93.1209 15.7485 93.5247 16.3405 93.7798 17.0002V13.4102H99.0598V34.4102L93.8298 34.4302ZM81.5398 23.6402C81.5121 24.8414 81.813 26.0273 82.4098 27.0702C82.9484 27.9992 83.7213 28.7706 84.6513 29.3076C85.5813 29.8445 86.6359 30.1281 87.7098 30.1302C88.7975 30.1636 89.8724 29.8871 90.809 29.3329C91.7456 28.7787 92.5054 27.9697 92.9998 27.0002C93.538 25.9528 93.8061 24.7875 93.7798 23.6102C93.8074 22.4295 93.5393 21.2607 92.9998 20.2102C92.4768 19.2938 91.7214 18.5315 90.8098 18.0002C89.8742 17.4394 88.8003 17.1519 87.7098 17.1702C86.656 17.172 85.6213 17.4514 84.7098 17.9802C83.7655 18.526 82.9798 19.3084 82.4298 20.2502C81.8348 21.2801 81.5275 22.4509 81.5398 23.6402V23.6402Z" fill="#F2F2F2"/>
<path d="M116.77 12.8203C118.147 12.8219 119.509 13.1079 120.77 13.6603C122.074 14.2354 123.184 15.1725 123.97 16.3603C124.866 17.7998 125.306 19.4766 125.23 21.1703V34.4303H119.88V22.1403C119.942 21.4105 119.858 20.6759 119.633 19.9789C119.408 19.2819 119.047 18.6366 118.57 18.0803C118.128 17.6437 117.6 17.3023 117.021 17.077C116.441 16.8517 115.822 16.7474 115.2 16.7703C114.275 16.7765 113.371 17.0434 112.59 17.5403C111.765 18.0656 111.079 18.7826 110.59 19.6303C110.065 20.542 109.796 21.5784 109.81 22.6303V34.4303H104.48V13.4303H109.81V16.8703C110.041 16.1787 110.456 15.5632 111.01 15.0903C111.746 14.4206 112.592 13.8828 113.51 13.5003C114.539 13.052 115.649 12.8205 116.77 12.8203V12.8203Z" fill="#F2F2F2"/>
<path d="M134.179 24.88C134.194 25.8983 134.459 26.8973 134.949 27.79C135.444 28.6538 136.186 29.3503 137.079 29.79C138.149 30.3092 139.33 30.5598 140.519 30.52C141.54 30.5376 142.555 30.3751 143.519 30.04C144.283 29.7577 145.001 29.3634 145.649 28.87C146.119 28.5014 146.536 28.0708 146.889 27.59L149.249 30.8C148.706 31.52 148.051 32.148 147.309 32.66C146.428 33.2585 145.445 33.6922 144.409 33.94C143.015 34.2761 141.583 34.4308 140.149 34.4C138.13 34.4525 136.131 33.9805 134.349 33.03C132.731 32.1419 131.405 30.8048 130.529 29.18C129.596 27.3848 129.131 25.3828 129.179 23.36C129.17 21.4953 129.612 19.6562 130.469 18C131.288 16.4157 132.544 15.1001 134.089 14.21C135.802 13.3226 137.698 12.847 139.626 12.821C141.555 12.7949 143.463 13.2192 145.199 14.06C146.707 14.8728 147.939 16.1154 148.739 17.63C149.622 19.3649 150.056 21.2939 149.999 23.24C149.999 23.37 149.999 23.65 149.999 24.06C150.004 24.335 149.981 24.6098 149.929 24.88H134.179ZM144.999 21C144.958 20.3618 144.777 19.7406 144.469 19.18C144.091 18.4566 143.529 17.846 142.839 17.41C141.939 16.858 140.893 16.593 139.839 16.65C138.755 16.5995 137.678 16.8523 136.729 17.38C136.083 17.764 135.531 18.289 135.116 18.9158C134.7 19.5425 134.431 20.2549 134.329 21H144.999Z" fill="#F2F2F2"/>
<path d="M32.8492 1.30029H10.9492V12.2503H21.8992V23.2003H32.8492V1.30029Z" fill="#F2F2F2"/>
<path d="M10.95 12.25H0V23.18H10.95V12.25Z" fill="#F2F2F2"/>
<path d="M21.9105 23.2002H10.9805V34.1502H21.9105V23.2002Z" fill="#F2F2F2"/>
</svg>
