<svg width="293" height="168" viewBox="0 0 293 168" fill="none" xmlns="http://www.w3.org/2000/svg">
<g clip-path="url(#clip0_5770_111765)">
<g filter="url(#filter0_bd_5770_111765)">
<g clip-path="url(#clip1_5770_111765)">
<path d="M-0.367806 -61.2677C-0.367806 -62.3628 0.519976 -63.2506 1.61511 -63.2506H292.385C293.48 -63.2506 294.368 -62.3628 294.368 -61.2677V177.868C294.368 178.964 293.48 179.851 292.385 179.851H1.6151C0.519971 179.851 -0.367806 178.964 -0.367806 177.868V-61.2677Z" fill="#18191B"/>
<path d="M-0.367806 -61.2677C-0.367806 -62.3628 0.519976 -63.2506 1.61511 -63.2506H292.385C293.48 -63.2506 294.368 -62.3628 294.368 -61.2677V177.868C294.368 178.964 293.48 179.851 292.385 179.851H1.6151C0.519971 179.851 -0.367806 178.964 -0.367806 177.868V-61.2677Z" stroke="#363A3F" stroke-width="0.264389"/>
<rect x="20.2959" y="107.227" width="65.2266" height="37.6709" rx="2.11511" transform="rotate(-90 20.2959 107.227)" fill="url(#paint0_linear_5770_111765)"/>
<rect x="60.089" y="107.227" width="65.2266" height="55.7104" rx="2.11511" transform="rotate(-90 60.089 107.227)" fill="url(#paint1_linear_5770_111765)"/>
<rect x="117.922" y="107.227" width="65.2266" height="85.9532" rx="2.11511" transform="rotate(-90 117.922 107.227)" fill="url(#paint2_linear_5770_111765)"/>
<rect x="205.998" y="107.227" width="65.2266" height="38.732" rx="2.11511" transform="rotate(-90 205.998 107.227)" fill="url(#paint3_linear_5770_111765)"/>
<rect x="246.851" y="107.227" width="65.2266" height="19.6313" rx="2.11511" transform="rotate(-90 246.851 107.227)" fill="url(#paint4_linear_5770_111765)"/>
<path d="M24.5639 95.9873L24.5639 94.9395L29.1167 94.9395C29.6011 94.9395 30.0304 95.0533 30.4044 95.2809C30.7762 95.5085 31.0692 95.8285 31.2832 96.2408C31.495 96.6532 31.6009 97.1365 31.6009 97.6908C31.6009 98.2429 31.495 98.7251 31.2832 99.1374C31.0692 99.5498 30.7762 99.8698 30.4044 100.097C30.0304 100.325 29.6011 100.439 29.1167 100.439L24.5639 100.439L24.5639 99.3943L29.0322 99.3943C29.3454 99.3943 29.6237 99.3256 29.867 99.1881C30.1104 99.0484 30.3019 98.8513 30.4416 98.5966C30.5791 98.342 30.6478 98.0401 30.6478 97.6908C30.6478 97.3393 30.5791 97.0362 30.4416 96.7816C30.3019 96.5247 30.1104 96.3287 29.867 96.1935C29.6237 96.056 29.3454 95.9873 29.0322 95.9873L24.5639 95.9873ZM31.486 93.5022L26.2944 93.5022L26.2944 92.5254L27.1191 92.5254L27.1191 92.4713C26.8397 92.3767 26.62 92.2099 26.46 91.9711C26.2978 91.73 26.2167 91.4573 26.2167 91.1531C26.2167 91.09 26.2189 91.0157 26.2234 90.93C26.2279 90.8422 26.2336 90.7734 26.2403 90.7239L27.207 90.7239C27.1957 90.7644 27.1833 90.8365 27.1698 90.9402C27.154 91.0438 27.1461 91.1475 27.1461 91.2511C27.1461 91.49 27.1968 91.7029 27.2982 91.8899C27.3974 92.0747 27.536 92.2212 27.714 92.3293C27.8897 92.4375 28.0903 92.4916 28.3156 92.4916L31.486 92.4916L31.486 93.5022ZM33.541 87.8585C33.541 88.2708 33.487 88.6257 33.3788 88.9232C33.2706 89.2184 33.1276 89.4595 32.9495 89.6465C32.7715 89.8335 32.5766 89.9732 32.3648 90.0656L32.0065 89.197C32.1057 89.1361 32.2105 89.055 32.3209 88.9536C32.4335 88.8499 32.5293 88.7102 32.6082 88.5345C32.687 88.3565 32.7265 88.1278 32.7265 87.8483C32.7265 87.4653 32.633 87.1487 32.4459 86.8986C32.2612 86.6485 31.966 86.5234 31.5604 86.5234L30.5396 86.5234L30.5396 86.5876C30.65 86.6485 30.7728 86.7363 30.908 86.8513C31.0432 86.9639 31.1604 87.1194 31.2596 87.3177C31.3587 87.516 31.4083 87.774 31.4083 88.0917C31.4083 88.5018 31.3125 88.8714 31.121 89.2003C30.9272 89.5271 30.6422 89.7862 30.2659 89.9777C29.8873 90.167 29.422 90.2616 28.8699 90.2616C28.3179 90.2616 27.8447 90.1681 27.4503 89.9811C27.056 89.7918 26.7541 89.5327 26.5445 89.2037C26.3327 88.8747 26.2268 88.5018 26.2268 88.0849C26.2268 87.7627 26.2809 87.5025 26.389 87.3042C26.4949 87.1059 26.6189 86.9515 26.7608 86.8411C26.9028 86.7285 27.0278 86.6417 27.136 86.5809L27.136 86.5065L26.2944 86.5065L26.2944 85.5162L31.6009 85.5162C32.0471 85.5162 32.4133 85.6198 32.6994 85.8271C32.9856 86.0344 33.1974 86.315 33.3349 86.6687C33.4723 87.0203 33.541 87.4168 33.541 87.8585ZM30.5701 87.8686C30.5701 87.578 30.5025 87.3323 30.3673 87.1318C30.2298 86.929 30.0338 86.7758 29.7791 86.6721C29.5223 86.5662 29.2147 86.5133 28.8564 86.5133C28.5071 86.5133 28.1996 86.5651 27.9337 86.6687C27.6678 86.7724 27.4605 86.9245 27.3118 87.125C27.1608 87.3256 27.0853 87.5734 27.0853 87.8686C27.0853 88.1728 27.1642 88.4263 27.3219 88.6291C27.4774 88.8319 27.6892 88.9851 27.9573 89.0888C28.2255 89.1902 28.5252 89.2409 28.8564 89.2409C29.1967 89.2409 29.4952 89.1891 29.7521 89.0854C30.009 88.9818 30.2095 88.8285 30.3537 88.6257C30.4979 88.4207 30.5701 88.1683 30.5701 87.8686ZM31.5908 81.9233C31.5908 82.4348 31.4815 82.8753 31.2629 83.2448C31.0421 83.6121 30.7323 83.896 30.3335 84.0966C29.9324 84.2949 29.4625 84.394 28.924 84.394C28.3922 84.394 27.9235 84.2949 27.5179 84.0966C27.1123 83.896 26.7958 83.6166 26.5682 83.2584C26.3406 82.8978 26.2268 82.4765 26.2268 81.9942C26.2268 81.7013 26.2752 81.4174 26.3721 81.1425C26.469 80.8676 26.6211 80.6209 26.8284 80.4023C27.0357 80.1837 27.305 80.0113 27.6362 79.8851C27.9652 79.759 28.3652 79.6959 28.8361 79.6959L29.1944 79.6959L29.1944 83.8228L28.4373 83.8228L28.4373 80.6862C28.1714 80.6862 27.9359 80.7403 27.7309 80.8484C27.5236 80.9566 27.3602 81.1087 27.2408 81.3047C27.1214 81.4985 27.0616 81.7261 27.0616 81.9875C27.0616 82.2714 27.1315 82.5193 27.2712 82.7311C27.4087 82.9406 27.5889 83.1029 27.812 83.2178C28.0328 83.3305 28.2728 83.3868 28.5319 83.3868L29.1234 83.3868C29.4704 83.3868 29.7656 83.326 30.009 83.2043C30.2523 83.0803 30.4382 82.908 30.5667 82.6871C30.6929 82.4663 30.7559 82.2083 30.7559 81.9131C30.7559 81.7216 30.7289 81.547 30.6748 81.3892C30.6185 81.2315 30.5351 81.0952 30.4247 80.9803C30.3143 80.8653 30.178 80.7775 30.0157 80.7166L30.1881 79.7601C30.4698 79.8367 30.7165 79.9742 30.9283 80.1724C31.1379 80.3685 31.3013 80.6152 31.4184 80.9127C31.5333 81.2078 31.5908 81.5447 31.5908 81.9233ZM28.4035 77.564L31.486 77.564L31.486 78.5746L26.2944 78.5746L26.2944 77.6045L27.1394 77.6045L27.1394 77.5403C26.8645 77.4209 26.6437 77.2338 26.4769 76.9792C26.3102 76.7223 26.2268 76.399 26.2268 76.0092C26.2268 75.6554 26.3012 75.3456 26.4499 75.0797C26.5963 74.8138 26.8149 74.6076 27.1056 74.4611C27.3963 74.3147 27.7557 74.2414 28.1838 74.2414L31.486 74.2414L31.486 75.2521L28.3055 75.2521C27.9292 75.2521 27.6351 75.3501 27.4233 75.5461C27.2092 75.7422 27.1022 76.0114 27.1022 76.3539C27.1022 76.5883 27.1529 76.7967 27.2543 76.9792C27.3557 77.1595 27.5044 77.3026 27.7005 77.4085C27.8942 77.5121 28.1286 77.564 28.4035 77.564ZM26.2944 70.4626L27.1056 70.4626L27.1056 73.2984L26.2944 73.2984L26.2944 70.4626ZM25.0506 72.5379L25.0506 71.5273L29.9617 71.5273C30.1577 71.5273 30.3053 71.498 30.4044 71.4395C30.5013 71.3809 30.5678 71.3054 30.6039 71.213C30.6376 71.1184 30.6545 71.0158 30.6545 70.9054C30.6545 70.8243 30.6489 70.7533 30.6377 70.6925C30.6264 70.6316 30.6174 70.5843 30.6106 70.5505L31.4455 70.368C31.468 70.4266 31.4905 70.51 31.5131 70.6181C31.5378 70.7263 31.5514 70.8615 31.5536 71.0237C31.5581 71.2896 31.5108 71.5375 31.4117 71.7673C31.3125 71.9972 31.1593 72.183 30.952 72.325C30.7447 72.467 30.4844 72.5379 30.1712 72.5379L25.0506 72.5379Z" fill="#FF9592"/>
<path d="M71.2458 100.439L64.3236 100.439L64.3236 99.3943L67.3318 99.3943L67.3318 95.9434L64.3236 95.9434L64.3236 94.8956L71.2458 94.8956L71.2458 95.9434L68.2275 95.9434L68.2275 99.3943L71.2458 99.3943L71.2458 100.439ZM71.2458 93.4557L66.0542 93.4557L66.0542 92.4451L71.2458 92.4451L71.2458 93.4557ZM65.2531 92.9453C65.2531 93.1211 65.1945 93.2721 65.0774 93.3983C64.9579 93.5222 64.816 93.5842 64.6515 93.5842C64.4847 93.5842 64.3428 93.5222 64.2256 93.3983C64.1062 93.2721 64.0465 93.1211 64.0465 92.9453C64.0465 92.7696 64.1062 92.6197 64.2256 92.4958C64.3428 92.3696 64.4847 92.3065 64.6515 92.3065C64.816 92.3065 64.9579 92.3696 65.0774 92.4958C65.1945 92.6197 65.2531 92.7696 65.2531 92.9453ZM73.3008 88.9088C73.3008 89.3212 73.2467 89.6761 73.1386 89.9735C73.0304 90.2687 72.8873 90.5098 72.7093 90.6968C72.5313 90.8838 72.3364 91.0235 72.1246 91.1159L71.7663 90.2473C71.8655 90.1864 71.9702 90.1053 72.0807 90.0039C72.1933 89.9003 72.2891 89.7606 72.3679 89.5848C72.4468 89.4068 72.4862 89.1781 72.4862 88.8987C72.4862 88.5156 72.3927 88.199 72.2057 87.9489C72.0209 87.6988 71.7258 87.5737 71.3202 87.5737L70.2994 87.5737L70.2994 87.6379C70.4098 87.6988 70.5326 87.7867 70.6678 87.9016C70.803 88.0142 70.9202 88.1697 71.0193 88.368C71.1185 88.5663 71.1681 88.8243 71.1681 89.142C71.1681 89.5521 71.0723 89.9217 70.8808 90.2507C70.687 90.5774 70.4019 90.8365 70.0256 91.0281C69.6471 91.2173 69.1818 91.312 68.6297 91.312C68.0776 91.312 67.6044 91.2185 67.2101 91.0314C66.8158 90.8422 66.5138 90.583 66.3043 90.254C66.0925 89.9251 65.9866 89.5521 65.9866 89.1353C65.9866 88.813 66.0407 88.5528 66.1488 88.3545C66.2547 88.1562 66.3786 88.0019 66.5206 87.8914C66.6626 87.7788 66.7876 87.692 66.8958 87.6312L66.8958 87.5568L66.0542 87.5568L66.0542 86.5665L71.3607 86.5665C71.8069 86.5665 72.173 86.6701 72.4592 86.8775C72.7454 87.0848 72.9572 87.3653 73.0946 87.7191C73.2321 88.0706 73.3008 88.4672 73.3008 88.9088ZM70.3298 88.919C70.3298 88.6283 70.2622 88.3827 70.127 88.1821C69.9896 87.9793 69.7935 87.8261 69.5389 87.7224C69.282 87.6165 68.9745 87.5636 68.6162 87.5636C68.2669 87.5636 67.9593 87.6154 67.6935 87.7191C67.4276 87.8227 67.2203 87.9748 67.0715 88.1754C66.9206 88.3759 66.8451 88.6238 66.8451 88.919C66.8451 89.2232 66.9239 89.4766 67.0817 89.6794C67.2372 89.8822 67.449 90.0355 67.7171 90.1391C67.9853 90.2405 68.2849 90.2912 68.6162 90.2912C68.9564 90.2912 69.255 90.2394 69.5119 90.1357C69.7688 90.0321 69.9693 89.8789 70.1135 89.6761C70.2577 89.471 70.3298 89.2186 70.3298 88.919ZM68.1633 84.2005L71.2458 84.2005L71.2458 85.2111L64.3236 85.2111L64.3236 84.214L66.8992 84.214L66.8992 84.1498C66.6198 84.0281 66.3978 83.8422 66.2333 83.5921C66.0688 83.342 65.9866 83.0153 65.9866 82.6119C65.9866 82.2559 66.0598 81.945 66.2063 81.6791C66.3527 81.4109 66.5713 81.2036 66.862 81.0572C67.1504 80.9084 67.5109 80.8341 67.9436 80.8341L71.2458 80.8341L71.2458 81.8447L68.0653 81.8447C67.6844 81.8447 67.3893 81.9427 67.1797 82.1387C66.9679 82.3348 66.862 82.6074 66.862 82.9567C66.862 83.1955 66.9127 83.4096 67.0141 83.5989C67.1155 83.7859 67.2642 83.9335 67.4602 84.0417C67.654 84.1476 67.8884 84.2005 68.1633 84.2005Z" fill="#AB4800"/>
<path d="M122.893 100.439L122.893 99.1712L128.274 96.9675L128.274 96.8864L122.893 94.6826L122.893 93.4152L129.815 93.4152L129.815 94.4089L124.806 94.4089L124.806 94.4731L129.805 96.5146L129.805 97.3393L124.803 99.3808L124.803 99.445L129.815 99.445L129.815 100.439L122.893 100.439ZM129.92 89.7403C129.92 90.2518 129.811 90.6923 129.592 91.0619C129.372 91.4291 129.062 91.7131 128.663 91.9136C128.262 92.1119 127.792 92.211 127.253 92.211C126.722 92.211 126.253 92.1119 125.847 91.9136C125.442 91.7131 125.125 91.4336 124.898 91.0754C124.67 90.7148 124.556 90.2935 124.556 89.8113C124.556 89.5183 124.605 89.2344 124.702 88.9595C124.798 88.6846 124.951 88.4379 125.158 88.2193C125.365 88.0007 125.634 87.8284 125.966 87.7022C126.295 87.576 126.695 87.5129 127.166 87.5129L127.524 87.5129L127.524 91.6398L126.767 91.6398L126.767 88.5032C126.501 88.5032 126.265 88.5573 126.06 88.6655C125.853 88.7736 125.69 88.9257 125.57 89.1218C125.451 89.3155 125.391 89.5431 125.391 89.8045C125.391 90.0884 125.461 90.3363 125.601 90.5481C125.738 90.7577 125.918 90.9199 126.141 91.0348C126.362 91.1475 126.602 91.2038 126.861 91.2038L127.453 91.2038C127.8 91.2038 128.095 91.143 128.338 91.0213C128.582 90.8974 128.768 90.725 128.896 90.5042C129.022 90.2833 129.085 90.0253 129.085 89.7301C129.085 89.5386 129.058 89.364 129.004 89.2063C128.948 89.0485 128.865 88.9122 128.754 88.7973C128.644 88.6824 128.507 88.5945 128.345 88.5336L128.518 87.5771C128.799 87.6537 129.046 87.7912 129.258 87.9895C129.467 88.1855 129.631 88.4322 129.748 88.7297C129.863 89.0249 129.92 89.3617 129.92 89.7403ZM129.917 84.4481C129.917 84.8672 129.81 85.2413 129.596 85.5703C129.379 85.897 129.072 86.1539 128.673 86.3409C128.272 86.5257 127.791 86.618 127.23 86.618C126.669 86.618 126.189 86.5245 125.79 86.3375C125.391 86.1482 125.086 85.8891 124.874 85.5601C124.662 85.2311 124.556 84.8582 124.556 84.4413C124.556 84.1191 124.61 83.86 124.718 83.664C124.824 83.4657 124.948 83.3124 125.09 83.2043C125.232 83.0939 125.357 83.0082 125.465 82.9474L125.465 82.8866L122.893 82.8866L122.893 81.8759L129.815 81.8759L129.815 82.8629L129.008 82.8629L129.008 82.9474C129.118 83.0082 129.244 83.0961 129.386 83.211C129.528 83.3237 129.652 83.4792 129.758 83.6775C129.864 83.8758 129.917 84.1326 129.917 84.4481ZM129.055 84.225C129.055 83.9343 128.978 83.6887 128.825 83.4882C128.67 83.2854 128.454 83.1322 128.18 83.0285C127.905 82.9226 127.585 82.8697 127.22 82.8697C126.859 82.8697 126.544 82.9215 126.273 83.0251C126.003 83.1288 125.792 83.2809 125.641 83.4814C125.49 83.682 125.415 83.9298 125.415 84.225C125.415 84.5292 125.494 84.7827 125.651 84.9855C125.809 85.1883 126.024 85.3415 126.297 85.4452C126.57 85.5466 126.877 85.5973 127.22 85.5973C127.567 85.5973 127.879 85.5455 128.156 85.4418C128.433 85.3382 128.653 85.1849 128.815 84.9821C128.975 84.7771 129.055 84.5247 129.055 84.225ZM129.815 80.4335L124.624 80.4335L124.624 79.4229L129.815 79.4229L129.815 80.4335ZM123.823 79.9232C123.823 80.0989 123.764 80.2499 123.647 80.3761C123.528 80.5 123.386 80.562 123.221 80.562C123.054 80.562 122.912 80.5 122.795 80.3761C122.676 80.2499 122.616 80.0989 122.616 79.9232C122.616 79.7474 122.676 79.5976 122.795 79.4736C122.912 79.3475 123.054 79.2844 123.221 79.2844C123.386 79.2844 123.528 79.3475 123.647 79.4736C123.764 79.5976 123.823 79.7474 123.823 79.9232ZM127.662 74.7746L124.624 74.7746L124.624 73.7606L129.815 73.7606L129.815 74.7544L128.916 74.7544L128.916 74.8084C129.194 74.9279 129.424 75.1194 129.609 75.383C129.792 75.6444 129.883 75.97 129.883 76.3598C129.883 76.6933 129.81 76.9885 129.663 77.2454C129.515 77.5 129.295 77.7006 129.004 77.847C128.714 77.9912 128.354 78.0633 127.926 78.0633L124.624 78.0633L124.624 77.0527L127.804 77.0527C128.158 77.0527 128.44 76.9547 128.649 76.7587C128.859 76.5626 128.964 76.308 128.964 75.9948C128.964 75.8055 128.916 75.6174 128.822 75.4304C128.727 75.2411 128.584 75.0845 128.392 74.9605C128.201 74.8344 127.958 74.7724 127.662 74.7746ZM129.815 72.4027L124.624 72.4027L124.624 71.4327L125.469 71.4327L125.469 71.3685C125.183 71.2603 124.96 71.0834 124.8 70.8378C124.637 70.5922 124.556 70.2982 124.556 69.9557C124.556 69.6086 124.637 69.318 124.8 69.0836C124.962 68.847 125.185 68.6724 125.469 68.5597L125.469 68.5056C125.192 68.3817 124.971 68.1845 124.806 67.9142C124.64 67.6438 124.556 67.3215 124.556 66.9475C124.556 66.4765 124.704 66.0923 124.999 65.7949C125.294 65.4952 125.739 65.3454 126.334 65.3454L129.815 65.3454L129.815 66.356L126.429 66.356C126.077 66.356 125.823 66.4518 125.665 66.6433C125.507 66.8348 125.428 67.0635 125.428 67.3294C125.428 67.6584 125.53 67.9142 125.732 68.0967C125.933 68.2792 126.191 68.3704 126.506 68.3704L129.815 68.3704L129.815 69.3777L126.364 69.3777C126.083 69.3777 125.856 69.4656 125.685 69.6413C125.514 69.8171 125.428 70.0458 125.428 70.3274C125.428 70.519 125.479 70.6959 125.58 70.8581C125.679 71.0181 125.818 71.1477 125.996 71.2468C126.174 71.3437 126.38 71.3921 126.615 71.3921L129.815 71.3921L129.815 72.4027Z" fill="#8F6424"/>
<path d="M217.207 100.439L210.285 100.439L210.285 99.3943L216.308 99.3943L216.308 96.2577L217.207 96.2577L217.207 100.439ZM217.312 92.9605C217.312 93.4473 217.201 93.872 216.978 94.2348C216.754 94.5976 216.442 94.8792 216.041 95.0798C215.64 95.2803 215.172 95.3806 214.635 95.3806C214.097 95.3806 213.626 95.2803 213.222 95.0798C212.819 94.8792 212.506 94.5976 212.283 94.2348C212.06 93.872 211.948 93.4473 211.948 92.9605C211.948 92.4738 212.06 92.0491 212.283 91.6863C212.506 91.3235 212.819 91.0419 213.222 90.8413C213.626 90.6408 214.097 90.5405 214.635 90.5405C215.172 90.5405 215.64 90.6408 216.041 90.8413C216.442 91.0419 216.754 91.3235 216.978 91.6863C217.201 92.0491 217.312 92.4738 217.312 92.9605ZM216.464 92.9572C216.464 92.6417 216.38 92.3803 216.214 92.173C216.047 91.9657 215.825 91.8125 215.548 91.7133C215.271 91.6119 214.965 91.5612 214.632 91.5612C214.301 91.5612 213.996 91.6119 213.719 91.7133C213.44 91.8125 213.216 91.9657 213.047 92.173C212.878 92.3803 212.793 92.6417 212.793 92.9572C212.793 93.2749 212.878 93.5385 213.047 93.7481C213.216 93.9554 213.44 94.1097 213.719 94.2111C213.996 94.3103 214.301 94.3599 214.632 94.3599C214.965 94.3599 215.271 94.3103 215.548 94.2111C215.825 94.1097 216.047 93.9554 216.214 93.7481C216.38 93.5385 216.464 93.2749 216.464 92.9572ZM217.207 88.4449L212.016 89.9727L212.016 88.9282L215.828 87.9109L215.828 87.8602L212.016 86.8394L212.016 85.795L215.811 84.781L215.811 84.7303L212.016 83.7197L212.016 82.6753L217.207 84.1997L217.207 85.2306L213.459 86.2851L213.459 86.3629L217.207 87.4174L217.207 88.4449Z" fill="#1D2E62"/>
<path d="M250.56 94.8516L257.483 94.8516L257.483 95.8116L252.406 99.3301L252.406 99.3943L257.483 99.3943L257.483 100.439L250.56 100.439L250.56 99.4721L255.644 95.9501L255.644 95.8859L250.56 95.8859L250.56 94.8516ZM257.587 91.2224C257.587 91.7091 257.476 92.1339 257.253 92.4966C257.03 92.8594 256.718 93.1411 256.317 93.3416C255.915 93.5422 255.447 93.6425 254.91 93.6425C254.372 93.6425 253.901 93.5422 253.498 93.3416C253.094 93.1411 252.781 92.8594 252.558 92.4966C252.335 92.1339 252.223 91.7091 252.223 91.2224C252.223 90.7357 252.335 90.3109 252.558 89.9482C252.781 89.5854 253.094 89.3037 253.498 89.1032C253.901 88.9026 254.372 88.8023 254.91 88.8023C255.447 88.8023 255.915 88.9026 256.317 89.1032C256.718 89.3037 257.03 89.5854 257.253 89.9482C257.476 90.3109 257.587 90.7357 257.587 91.2224ZM256.739 91.219C256.739 90.9036 256.656 90.6422 256.489 90.4349C256.322 90.2276 256.1 90.0743 255.823 89.9752C255.546 89.8738 255.241 89.8231 254.907 89.8231C254.576 89.8231 254.272 89.8738 253.994 89.9752C253.715 90.0743 253.491 90.2276 253.322 90.4349C253.153 90.6422 253.068 90.9036 253.068 91.219C253.068 91.5367 253.153 91.8004 253.322 92.0099C253.491 92.2172 253.715 92.3716 253.994 92.473C254.272 92.5721 254.576 92.6217 254.907 92.6217C255.241 92.6217 255.546 92.5721 255.823 92.473C256.1 92.3716 256.322 92.2172 256.489 92.0099C256.656 91.8004 256.739 91.5367 256.739 91.219ZM254.4 86.6637L257.483 86.6637L257.483 87.6743L252.291 87.6743L252.291 86.7042L253.136 86.7042L253.136 86.64C252.861 86.5206 252.64 86.3336 252.473 86.0789C252.307 85.8221 252.223 85.4987 252.223 85.1089C252.223 84.7551 252.298 84.4453 252.446 84.1794C252.593 83.9135 252.811 83.7073 253.102 83.5609C253.393 83.4144 253.752 83.3412 254.18 83.3412L257.483 83.3412L257.483 84.3518L254.302 84.3518C253.926 84.3518 253.632 84.4498 253.42 84.6458C253.206 84.8419 253.099 85.1111 253.099 85.4536C253.099 85.688 253.149 85.8964 253.251 86.0789C253.352 86.2592 253.501 86.4023 253.697 86.5082C253.891 86.6118 254.125 86.6637 254.4 86.6637ZM257.587 79.7483C257.587 80.2598 257.478 80.7003 257.26 81.0698C257.039 81.4371 256.729 81.721 256.33 81.9216C255.929 82.1199 255.459 82.219 254.921 82.219C254.389 82.219 253.92 82.1199 253.515 81.9216C253.109 81.721 252.792 81.4416 252.565 81.0833C252.337 80.7228 252.223 80.3014 252.223 79.8192C252.223 79.5263 252.272 79.2424 252.369 78.9675C252.466 78.6926 252.618 78.4458 252.825 78.2273C253.032 78.0087 253.302 77.8363 253.633 77.7101C253.962 77.584 254.362 77.5209 254.833 77.5209L255.191 77.5209L255.191 81.6478L254.434 81.6478L254.434 78.5112C254.168 78.5112 253.932 78.5653 253.727 78.6734C253.52 78.7816 253.357 78.9337 253.237 79.1297C253.118 79.3235 253.058 79.5511 253.058 79.8125C253.058 80.0964 253.128 80.3443 253.268 80.5561C253.405 80.7656 253.585 80.9279 253.809 81.0428C254.029 81.1555 254.269 81.2118 254.528 81.2118L255.12 81.2118C255.467 81.2118 255.762 81.1509 256.006 81.0293C256.249 80.9053 256.435 80.733 256.563 80.5121C256.689 80.2913 256.753 80.0333 256.753 79.7381C256.753 79.5466 256.725 79.372 256.671 79.2142C256.615 79.0565 256.532 78.9202 256.421 78.8052C256.311 78.6903 256.175 78.6025 256.012 78.5416L256.185 77.5851C256.466 77.6617 256.713 77.7991 256.925 77.9974C257.134 78.1935 257.298 78.4402 257.415 78.7376C257.53 79.0328 257.587 79.3697 257.587 79.7483Z" fill="#5A6169"/>
<rect x="20" y="114.121" width="10.461" height="10.9625" rx="2" fill="#EC5D5E"/>
<g clip-path="url(#clip2_5770_111765)">
<path d="M25.2877 122.493C26.9912 122.493 28.3722 121.112 28.3722 119.409C28.3722 117.705 26.9912 116.324 25.2877 116.324C23.5841 116.324 22.2031 117.705 22.2031 119.409C22.2031 121.112 23.5841 122.493 25.2877 122.493Z" stroke="#FFD1D9" stroke-width="0.528777" stroke-linecap="round" stroke-linejoin="round"/>
<path d="M25.2871 118.176V119.41" stroke="#FFD1D9" stroke-width="0.528777" stroke-linecap="round" stroke-linejoin="round"/>
<path d="M25.2871 120.641H25.2911" stroke="#FFD1D9" stroke-width="0.528777" stroke-linecap="round" stroke-linejoin="round"/>
</g>
<path d="M34.9835 116.968V122.352H34.0082V117.917H33.9766L32.7174 118.721V117.827L34.0555 116.968H34.9835ZM36.2532 121.353V120.577L38.5377 116.968H39.1844V118.072H38.7901L37.2522 120.509V120.551H40.441V121.353H36.2532ZM38.8216 122.352V121.116L38.8321 120.769V116.968H39.7522V122.352H38.8216ZM44.1595 121.342V121.058C44.1595 120.85 44.2033 120.658 44.291 120.482C44.3804 120.307 44.51 120.166 44.68 120.059C44.85 119.952 45.056 119.899 45.2978 119.899C45.5467 119.899 45.7552 119.952 45.9235 120.059C46.0917 120.164 46.2188 120.305 46.3047 120.48C46.3923 120.655 46.4361 120.848 46.4361 121.058V121.342C46.4361 121.551 46.3923 121.743 46.3047 121.918C46.2171 122.093 46.0882 122.234 45.9182 122.341C45.75 122.448 45.5432 122.501 45.2978 122.501C45.0525 122.501 44.8448 122.448 44.6748 122.341C44.5048 122.234 44.376 122.093 44.2883 121.918C44.2025 121.743 44.1595 121.551 44.1595 121.342ZM44.8457 121.058V121.342C44.8457 121.481 44.879 121.608 44.9456 121.723C45.0122 121.839 45.1296 121.897 45.2978 121.897C45.4678 121.897 45.5844 121.84 45.6475 121.726C45.7123 121.61 45.7447 121.482 45.7447 121.342V121.058C45.7447 120.918 45.7141 120.79 45.6527 120.674C45.5914 120.557 45.4731 120.498 45.2978 120.498C45.1331 120.498 45.0165 120.557 44.9482 120.674C44.8798 120.79 44.8457 120.918 44.8457 121.058ZM41.4229 118.261V117.977C41.4229 117.767 41.4676 117.574 41.557 117.399C41.6463 117.224 41.776 117.083 41.946 116.978C42.116 116.871 42.322 116.818 42.5638 116.818C42.8109 116.818 43.0186 116.871 43.1868 116.978C43.3568 117.083 43.4848 117.224 43.5707 117.399C43.6565 117.574 43.6995 117.767 43.6995 117.977V118.261C43.6995 118.471 43.6557 118.664 43.568 118.839C43.4822 119.013 43.3542 119.152 43.1842 119.257C43.0142 119.363 42.8074 119.415 42.5638 119.415C42.3167 119.415 42.1081 119.363 41.9381 119.257C41.7699 119.152 41.642 119.012 41.5543 118.837C41.4667 118.662 41.4229 118.47 41.4229 118.261ZM42.1143 117.977V118.261C42.1143 118.401 42.1467 118.529 42.2115 118.645C42.2781 118.759 42.3956 118.816 42.5638 118.816C42.7321 118.816 42.8477 118.759 42.9108 118.645C42.9757 118.529 43.0081 118.401 43.0081 118.261V117.977C43.0081 117.837 42.9774 117.709 42.9161 117.593C42.8547 117.476 42.7373 117.417 42.5638 117.417C42.3973 117.417 42.2808 117.476 42.2142 117.593C42.1476 117.711 42.1143 117.839 42.1143 117.977ZM41.7226 122.352L45.424 116.968H46.0812L42.3798 122.352H41.7226Z" fill="#EDEEF0"/>
<path d="M73.0826 122.352V121.647L74.9517 119.815C75.1304 119.634 75.2794 119.474 75.3986 119.334C75.5178 119.193 75.6071 119.058 75.6667 118.926C75.7263 118.795 75.7561 118.655 75.7561 118.506C75.7561 118.336 75.7175 118.19 75.6404 118.069C75.5633 117.946 75.4573 117.852 75.3223 117.785C75.1874 117.719 75.034 117.685 74.8623 117.685C74.6853 117.685 74.5302 117.722 74.397 117.796C74.2638 117.868 74.1604 117.97 74.0868 118.103C74.0149 118.237 73.979 118.395 73.979 118.579H73.051C73.051 118.237 73.129 117.94 73.285 117.688C73.441 117.436 73.6556 117.24 73.929 117.102C74.2042 116.963 74.5197 116.894 74.8754 116.894C75.2365 116.894 75.5537 116.962 75.8271 117.096C76.1005 117.231 76.3125 117.416 76.4633 117.651C76.6157 117.886 76.692 118.154 76.692 118.456C76.692 118.657 76.6534 118.855 76.5763 119.05C76.4992 119.244 76.3634 119.46 76.1688 119.696C75.9761 119.933 75.7053 120.22 75.3565 120.556L74.4285 121.5V121.537H76.7735V122.352H73.0826ZM79.6521 122.425C79.3945 122.423 79.143 122.379 78.8976 122.291C78.6522 122.202 78.4314 122.057 78.2351 121.857C78.0388 121.656 77.8829 121.389 77.7672 121.056C77.6515 120.721 77.5946 120.306 77.5963 119.812C77.5963 119.351 77.6454 118.94 77.7435 118.579C77.8417 118.218 77.9828 117.913 78.1668 117.664C78.3508 117.414 78.5725 117.223 78.8319 117.091C79.093 116.96 79.3848 116.894 79.7073 116.894C80.0455 116.894 80.3452 116.961 80.6064 117.094C80.8692 117.227 81.0813 117.409 81.2425 117.641C81.4038 117.87 81.5037 118.13 81.5422 118.419H80.5827C80.5336 118.212 80.4329 118.047 80.2804 117.925C80.1297 117.8 79.9386 117.738 79.7073 117.738C79.334 117.738 79.0466 117.9 78.845 118.224C78.6452 118.548 78.5445 118.994 78.5427 119.56H78.5795C78.6654 119.405 78.7767 119.273 78.9134 119.163C79.0501 119.052 79.2043 118.967 79.3761 118.908C79.5496 118.846 79.7327 118.816 79.9255 118.816C80.2409 118.816 80.524 118.891 80.7746 119.042C81.027 119.193 81.2268 119.4 81.374 119.665C81.5212 119.928 81.5939 120.229 81.5922 120.569C81.5939 120.923 81.5133 121.241 81.3503 121.523C81.1873 121.804 80.9604 122.025 80.6695 122.186C80.3785 122.347 80.0394 122.427 79.6521 122.425ZM79.6468 121.637C79.8379 121.637 80.0087 121.59 80.1595 121.497C80.3102 121.404 80.4293 121.279 80.517 121.121C80.6046 120.964 80.6475 120.787 80.6458 120.59C80.6475 120.397 80.6055 120.223 80.5196 120.067C80.4355 119.911 80.3189 119.788 80.17 119.696C80.021 119.605 79.851 119.56 79.66 119.56C79.518 119.56 79.3857 119.587 79.263 119.641C79.1403 119.696 79.0334 119.771 78.9423 119.867C78.8512 119.962 78.7793 120.072 78.7267 120.199C78.6759 120.323 78.6496 120.456 78.6479 120.598C78.6496 120.786 78.6934 120.958 78.7793 121.116C78.8652 121.274 78.9835 121.4 79.1342 121.495C79.2849 121.589 79.4558 121.637 79.6468 121.637ZM85.3593 121.342V121.058C85.3593 120.85 85.4032 120.658 85.4908 120.482C85.5802 120.307 85.7099 120.166 85.8799 120.059C86.0499 119.952 86.2558 119.899 86.4976 119.899C86.7465 119.899 86.9551 119.952 87.1233 120.059C87.2916 120.164 87.4186 120.305 87.5045 120.48C87.5921 120.655 87.6359 120.848 87.6359 121.058V121.342C87.6359 121.551 87.5921 121.743 87.5045 121.918C87.4169 122.093 87.2881 122.234 87.1181 122.341C86.9498 122.448 86.743 122.501 86.4976 122.501C86.2523 122.501 86.0446 122.448 85.8746 122.341C85.7046 122.234 85.5758 122.093 85.4882 121.918C85.4023 121.743 85.3593 121.551 85.3593 121.342ZM86.0455 121.058V121.342C86.0455 121.481 86.0788 121.608 86.1454 121.723C86.212 121.839 86.3294 121.897 86.4976 121.897C86.6676 121.897 86.7842 121.84 86.8473 121.726C86.9121 121.61 86.9445 121.482 86.9445 121.342V121.058C86.9445 120.918 86.9139 120.79 86.8525 120.674C86.7912 120.557 86.6729 120.498 86.4976 120.498C86.3329 120.498 86.2164 120.557 86.148 120.674C86.0797 120.79 86.0455 120.918 86.0455 121.058ZM82.6227 118.261V117.977C82.6227 117.767 82.6674 117.574 82.7568 117.399C82.8461 117.224 82.9758 117.083 83.1458 116.978C83.3158 116.871 83.5218 116.818 83.7636 116.818C84.0107 116.818 84.2184 116.871 84.3867 116.978C84.5567 117.083 84.6846 117.224 84.7705 117.399C84.8564 117.574 84.8993 117.767 84.8993 117.977V118.261C84.8993 118.471 84.8555 118.664 84.7678 118.839C84.682 119.013 84.554 119.152 84.384 119.257C84.214 119.363 84.0072 119.415 83.7636 119.415C83.5165 119.415 83.308 119.363 83.138 119.257C82.9697 119.152 82.8418 119.012 82.7541 118.837C82.6665 118.662 82.6227 118.47 82.6227 118.261ZM83.3141 117.977V118.261C83.3141 118.401 83.3465 118.529 83.4114 118.645C83.478 118.759 83.5954 118.816 83.7636 118.816C83.9319 118.816 84.0475 118.759 84.1106 118.645C84.1755 118.529 84.2079 118.401 84.2079 118.261V117.977C84.2079 117.837 84.1772 117.709 84.1159 117.593C84.0545 117.476 83.9371 117.417 83.7636 117.417C83.5971 117.417 83.4806 117.476 83.414 117.593C83.3474 117.711 83.3141 117.839 83.3141 117.977ZM82.9224 122.352L86.6238 116.968H87.281L83.5796 122.352H82.9224Z" fill="#EDEEF0"/>
<rect x="60.4004" y="114.385" width="9.43407" height="10.4337" rx="1.73561" fill="#57422F" stroke="#FE7043" stroke-width="0.528777"/>
<g clip-path="url(#clip3_5770_111765)">
<path d="M62.378 122.891H62.3818" stroke="#FE7043" stroke-width="1.05755" stroke-linecap="round" stroke-linejoin="round"/>
<path d="M64.2457 122.89V121.246" stroke="#FE7043" stroke-width="1.05755" stroke-linecap="round" stroke-linejoin="round"/>
<path d="M66.1133 122.894V119.605" stroke="#FE7043" stroke-width="1.05755" stroke-linecap="round" stroke-linejoin="round"/>
<path d="M67.981 122.894V117.961" stroke="#FE7043" stroke-width="1.05755" stroke-linecap="round" stroke-linejoin="round"/>
</g>
<path d="M133.735 122.976C133.357 122.976 133.02 122.911 132.726 122.781C132.433 122.652 132.202 122.471 132.032 122.24C131.862 122.009 131.772 121.741 131.761 121.438H132.749C132.758 121.584 132.806 121.711 132.894 121.819C132.982 121.926 133.098 122.009 133.244 122.069C133.389 122.129 133.552 122.158 133.733 122.158C133.925 122.158 134.096 122.125 134.245 122.058C134.394 121.99 134.511 121.895 134.595 121.775C134.679 121.654 134.72 121.514 134.719 121.357C134.72 121.194 134.678 121.05 134.592 120.925C134.506 120.801 134.382 120.704 134.219 120.634C134.058 120.564 133.863 120.528 133.635 120.528H133.16V119.777H133.635C133.823 119.777 133.987 119.744 134.127 119.679C134.269 119.615 134.38 119.523 134.461 119.406C134.541 119.287 134.581 119.149 134.579 118.993C134.581 118.841 134.547 118.708 134.477 118.596C134.408 118.482 134.311 118.394 134.185 118.331C134.06 118.268 133.914 118.236 133.746 118.236C133.581 118.236 133.429 118.266 133.288 118.325C133.148 118.385 133.035 118.47 132.949 118.58C132.863 118.689 132.818 118.819 132.813 118.97H131.874C131.881 118.668 131.968 118.403 132.134 118.176C132.303 117.946 132.527 117.767 132.807 117.639C133.088 117.51 133.402 117.445 133.751 117.445C134.11 117.445 134.422 117.512 134.687 117.647C134.953 117.78 135.159 117.96 135.305 118.186C135.45 118.412 135.523 118.662 135.523 118.935C135.525 119.239 135.435 119.493 135.255 119.698C135.076 119.903 134.841 120.037 134.55 120.1V120.142C134.929 120.195 135.219 120.335 135.42 120.563C135.624 120.789 135.724 121.07 135.723 121.407C135.723 121.708 135.637 121.978 135.465 122.216C135.295 122.453 135.06 122.639 134.761 122.774C134.463 122.908 134.121 122.976 133.735 122.976ZM138.597 122.976C138.339 122.974 138.088 122.93 137.842 122.842C137.597 122.752 137.376 122.608 137.18 122.408C136.983 122.207 136.828 121.939 136.712 121.606C136.596 121.272 136.539 120.857 136.541 120.363C136.541 119.902 136.59 119.491 136.688 119.13C136.786 118.769 136.927 118.464 137.111 118.215C137.295 117.964 137.517 117.773 137.777 117.642C138.038 117.511 138.329 117.445 138.652 117.445C138.99 117.445 139.29 117.511 139.551 117.645C139.814 117.778 140.026 117.96 140.187 118.191C140.348 118.421 140.448 118.68 140.487 118.97H139.527C139.478 118.763 139.378 118.598 139.225 118.475C139.074 118.351 138.883 118.289 138.652 118.289C138.279 118.289 137.991 118.451 137.79 118.775C137.59 119.099 137.489 119.544 137.487 120.11H137.524C137.61 119.956 137.721 119.824 137.858 119.714C137.995 119.603 138.149 119.518 138.321 119.459C138.494 119.397 138.677 119.367 138.87 119.367C139.186 119.367 139.469 119.442 139.719 119.593C139.972 119.743 140.171 119.951 140.319 120.216C140.466 120.479 140.539 120.78 140.537 121.12C140.539 121.474 140.458 121.792 140.295 122.074C140.132 122.355 139.905 122.575 139.614 122.737C139.323 122.898 138.984 122.978 138.597 122.976ZM138.591 122.187C138.783 122.187 138.953 122.141 139.104 122.048C139.255 121.955 139.374 121.83 139.462 121.672C139.549 121.514 139.592 121.337 139.59 121.141C139.592 120.948 139.55 120.774 139.464 120.618C139.38 120.462 139.264 120.338 139.115 120.247C138.966 120.156 138.796 120.11 138.605 120.11C138.463 120.11 138.33 120.138 138.208 120.192C138.085 120.246 137.978 120.322 137.887 120.418C137.796 120.513 137.724 120.623 137.671 120.749C137.621 120.874 137.594 121.007 137.593 121.149C137.594 121.336 137.638 121.509 137.724 121.667C137.81 121.825 137.928 121.951 138.079 122.045C138.23 122.14 138.4 122.187 138.591 122.187ZM144.304 121.893V121.609C144.304 121.4 144.348 121.208 144.435 121.033C144.525 120.858 144.655 120.717 144.825 120.61C144.995 120.503 145.2 120.45 145.442 120.45C145.691 120.45 145.9 120.503 146.068 120.61C146.236 120.715 146.363 120.855 146.449 121.031C146.537 121.206 146.581 121.399 146.581 121.609V121.893C146.581 122.101 146.537 122.293 146.449 122.469C146.362 122.644 146.233 122.785 146.063 122.892C145.894 122.999 145.688 123.052 145.442 123.052C145.197 123.052 144.989 122.999 144.819 122.892C144.649 122.785 144.52 122.644 144.433 122.469C144.347 122.293 144.304 122.101 144.304 121.893ZM144.99 121.609V121.893C144.99 122.031 145.023 122.158 145.09 122.274C145.157 122.39 145.274 122.448 145.442 122.448C145.612 122.448 145.729 122.391 145.792 122.277C145.857 122.161 145.889 122.033 145.889 121.893V121.609C145.889 121.469 145.859 121.341 145.797 121.225C145.736 121.108 145.618 121.049 145.442 121.049C145.278 121.049 145.161 121.108 145.093 121.225C145.024 121.341 144.99 121.469 144.99 121.609ZM141.567 118.812V118.528C141.567 118.318 141.612 118.125 141.701 117.95C141.791 117.774 141.92 117.634 142.09 117.529C142.26 117.422 142.466 117.369 142.708 117.369C142.955 117.369 143.163 117.422 143.331 117.529C143.501 117.634 143.629 117.774 143.715 117.95C143.801 118.125 143.844 118.318 143.844 118.528V118.812C143.844 119.022 143.8 119.215 143.712 119.39C143.627 119.564 143.499 119.703 143.329 119.808C143.159 119.913 142.952 119.966 142.708 119.966C142.461 119.966 142.253 119.913 142.083 119.808C141.914 119.703 141.786 119.563 141.699 119.388C141.611 119.212 141.567 119.02 141.567 118.812ZM142.259 118.528V118.812C142.259 118.952 142.291 119.08 142.356 119.196C142.423 119.31 142.54 119.367 142.708 119.367C142.877 119.367 142.992 119.31 143.055 119.196C143.12 119.08 143.153 118.952 143.153 118.812V118.528C143.153 118.388 143.122 118.26 143.061 118.144C142.999 118.027 142.882 117.968 142.708 117.968C142.542 117.968 142.425 118.027 142.359 118.144C142.292 118.262 142.259 118.389 142.259 118.528ZM141.867 122.902L145.568 117.518H146.226L142.524 122.902H141.867Z" fill="#EDEEF0"/>
<rect x="118.598" y="114.385" width="9.93222" height="10.4337" rx="1.85072" fill="#3F2700" stroke="#FFC53D" stroke-width="0.528777"/>
<path d="M120.687 122.891H120.691" stroke="#FFC53D" stroke-width="1.05755" stroke-linecap="round" stroke-linejoin="round"/>
<path d="M122.649 122.89V121.246" stroke="#FFC53D" stroke-width="1.05755" stroke-linecap="round" stroke-linejoin="round"/>
<path d="M124.61 122.894V119.605" stroke="#FFC53D" stroke-width="1.05755" stroke-linecap="round" stroke-linejoin="round"/>
<path d="M221.375 117.518V122.902H220.4V118.467H220.368L219.109 119.272V118.378L220.447 117.518H221.375ZM224.656 122.976C224.265 122.976 223.918 122.91 223.615 122.779C223.313 122.647 223.077 122.468 222.905 122.24C222.735 122.01 222.651 121.75 222.653 121.459C222.651 121.233 222.7 121.025 222.8 120.836C222.9 120.647 223.035 120.489 223.205 120.363C223.377 120.235 223.568 120.153 223.778 120.118V120.082C223.501 120.02 223.277 119.879 223.105 119.658C222.935 119.436 222.851 119.179 222.853 118.888C222.851 118.611 222.928 118.364 223.084 118.147C223.24 117.929 223.454 117.759 223.725 117.634C223.997 117.508 224.307 117.445 224.656 117.445C225.001 117.445 225.309 117.508 225.579 117.634C225.85 117.759 226.064 117.929 226.22 118.147C226.378 118.364 226.457 118.611 226.457 118.888C226.457 119.179 226.37 119.436 226.196 119.658C226.025 119.879 225.803 120.02 225.531 120.082V120.118C225.742 120.153 225.931 120.235 226.099 120.363C226.269 120.489 226.404 120.647 226.504 120.836C226.606 121.025 226.656 121.233 226.656 121.459C226.656 121.75 226.571 122.01 226.399 122.24C226.227 122.468 225.99 122.647 225.689 122.779C225.389 122.91 225.045 122.976 224.656 122.976ZM224.656 122.224C224.857 122.224 225.033 122.19 225.182 122.122C225.331 122.051 225.446 121.953 225.529 121.827C225.611 121.701 225.653 121.555 225.655 121.391C225.653 121.219 225.608 121.067 225.521 120.936C225.435 120.803 225.317 120.698 225.166 120.623C225.017 120.548 224.847 120.51 224.656 120.51C224.463 120.51 224.291 120.548 224.141 120.623C223.99 120.698 223.871 120.803 223.783 120.936C223.697 121.067 223.655 121.219 223.657 121.391C223.655 121.555 223.695 121.701 223.778 121.827C223.86 121.952 223.976 122.049 224.125 122.119C224.276 122.189 224.453 122.224 224.656 122.224ZM224.656 119.771C224.821 119.771 224.966 119.738 225.092 119.671C225.22 119.605 225.321 119.512 225.395 119.393C225.468 119.274 225.506 119.136 225.508 118.98C225.506 118.826 225.469 118.691 225.397 118.575C225.325 118.458 225.225 118.368 225.098 118.304C224.97 118.24 224.822 118.207 224.656 118.207C224.486 118.207 224.336 118.24 224.206 118.304C224.078 118.368 223.979 118.458 223.907 118.575C223.837 118.691 223.802 118.826 223.804 118.98C223.802 119.136 223.837 119.274 223.909 119.393C223.983 119.51 224.084 119.603 224.212 119.671C224.341 119.738 224.489 119.771 224.656 119.771ZM230.399 121.893V121.609C230.399 121.4 230.443 121.208 230.531 121.033C230.62 120.858 230.75 120.717 230.92 120.61C231.09 120.503 231.296 120.45 231.538 120.45C231.786 120.45 231.995 120.503 232.163 120.61C232.332 120.715 232.459 120.855 232.544 121.031C232.632 121.206 232.676 121.399 232.676 121.609V121.893C232.676 122.101 232.632 122.293 232.544 122.469C232.457 122.644 232.328 122.785 232.158 122.892C231.99 122.999 231.783 123.052 231.538 123.052C231.292 123.052 231.085 122.999 230.915 122.892C230.745 122.785 230.616 122.644 230.528 122.469C230.442 122.293 230.399 122.101 230.399 121.893ZM231.085 121.609V121.893C231.085 122.031 231.119 122.158 231.185 122.274C231.252 122.39 231.369 122.448 231.538 122.448C231.708 122.448 231.824 122.391 231.887 122.277C231.952 122.161 231.985 122.033 231.985 121.893V121.609C231.985 121.469 231.954 121.341 231.893 121.225C231.831 121.108 231.713 121.049 231.538 121.049C231.373 121.049 231.256 121.108 231.188 121.225C231.12 121.341 231.085 121.469 231.085 121.609ZM227.663 118.812V118.528C227.663 118.318 227.707 118.125 227.797 117.95C227.886 117.774 228.016 117.634 228.186 117.529C228.356 117.422 228.562 117.369 228.804 117.369C229.051 117.369 229.258 117.422 229.427 117.529C229.597 117.634 229.725 117.774 229.81 117.95C229.896 118.125 229.939 118.318 229.939 118.528V118.812C229.939 119.022 229.895 119.215 229.808 119.39C229.722 119.564 229.594 119.703 229.424 119.808C229.254 119.913 229.047 119.966 228.804 119.966C228.556 119.966 228.348 119.913 228.178 119.808C228.01 119.703 227.882 119.563 227.794 119.388C227.706 119.212 227.663 119.02 227.663 118.812ZM228.354 118.528V118.812C228.354 118.952 228.386 119.08 228.451 119.196C228.518 119.31 228.635 119.367 228.804 119.367C228.972 119.367 229.088 119.31 229.151 119.196C229.215 119.08 229.248 118.952 229.248 118.812V118.528C229.248 118.388 229.217 118.26 229.156 118.144C229.095 118.027 228.977 117.968 228.804 117.968C228.637 117.968 228.521 118.027 228.454 118.144C228.387 118.262 228.354 118.389 228.354 118.528ZM227.962 122.902L231.664 117.518H232.321L228.62 122.902H227.962Z" fill="#EDEEF0"/>
<rect x="205.896" y="115.167" width="9.93222" height="10.4337" rx="1.85072" fill="#182449" stroke="#3E63DD" stroke-width="0.528777"/>
<g clip-path="url(#clip4_5770_111765)">
<path d="M207.462 123.668H207.465" stroke="#3E63DD" stroke-width="1.05755" stroke-linecap="round" stroke-linejoin="round"/>
<path d="M209.421 123.668V122.023" stroke="#3E63DD" stroke-width="1.05755" stroke-linecap="round" stroke-linejoin="round"/>
</g>
<path d="M263.884 122.976C263.626 122.974 263.375 122.93 263.129 122.842C262.884 122.752 262.663 122.608 262.467 122.408C262.271 122.207 262.115 121.939 261.999 121.606C261.883 121.272 261.826 120.857 261.828 120.363C261.828 119.902 261.877 119.491 261.975 119.13C262.073 118.769 262.214 118.464 262.398 118.215C262.582 117.964 262.804 117.773 263.064 117.642C263.325 117.511 263.616 117.445 263.939 117.445C264.277 117.445 264.577 117.511 264.838 117.645C265.101 117.778 265.313 117.96 265.474 118.191C265.635 118.421 265.735 118.68 265.774 118.97H264.814C264.765 118.763 264.665 118.598 264.512 118.475C264.361 118.351 264.17 118.289 263.939 118.289C263.566 118.289 263.278 118.451 263.077 118.775C262.877 119.099 262.776 119.544 262.774 120.11H262.811C262.897 119.956 263.008 119.824 263.145 119.714C263.282 119.603 263.436 119.518 263.608 119.459C263.781 119.397 263.964 119.367 264.157 119.367C264.473 119.367 264.756 119.442 265.006 119.593C265.259 119.743 265.458 119.951 265.606 120.216C265.753 120.479 265.826 120.78 265.824 121.12C265.826 121.474 265.745 121.792 265.582 122.074C265.419 122.355 265.192 122.575 264.901 122.737C264.61 122.898 264.271 122.978 263.884 122.976ZM263.878 122.187C264.07 122.187 264.24 122.141 264.391 122.048C264.542 121.955 264.661 121.83 264.749 121.672C264.836 121.514 264.879 121.337 264.877 121.141C264.879 120.948 264.837 120.774 264.751 120.618C264.667 120.462 264.551 120.338 264.402 120.247C264.253 120.156 264.083 120.11 263.892 120.11C263.75 120.11 263.617 120.138 263.495 120.192C263.372 120.246 263.265 120.322 263.174 120.418C263.083 120.513 263.011 120.623 262.958 120.749C262.908 120.874 262.881 121.007 262.88 121.149C262.881 121.336 262.925 121.509 263.011 121.667C263.097 121.825 263.215 121.951 263.366 122.045C263.517 122.14 263.687 122.187 263.878 122.187ZM269.591 121.893V121.609C269.591 121.4 269.635 121.208 269.722 121.033C269.812 120.858 269.942 120.717 270.112 120.61C270.282 120.503 270.487 120.45 270.729 120.45C270.978 120.45 271.187 120.503 271.355 120.61C271.523 120.715 271.65 120.855 271.736 121.031C271.824 121.206 271.868 121.399 271.868 121.609V121.893C271.868 122.101 271.824 122.293 271.736 122.469C271.649 122.644 271.52 122.785 271.35 122.892C271.181 122.999 270.975 123.052 270.729 123.052C270.484 123.052 270.276 122.999 270.106 122.892C269.936 122.785 269.807 122.644 269.72 122.469C269.634 122.293 269.591 122.101 269.591 121.893ZM270.277 121.609V121.893C270.277 122.031 270.31 122.158 270.377 122.274C270.444 122.39 270.561 122.448 270.729 122.448C270.899 122.448 271.016 122.391 271.079 122.277C271.144 122.161 271.176 122.033 271.176 121.893V121.609C271.176 121.469 271.146 121.341 271.084 121.225C271.023 121.108 270.905 121.049 270.729 121.049C270.565 121.049 270.448 121.108 270.38 121.225C270.311 121.341 270.277 121.469 270.277 121.609ZM266.854 118.812V118.528C266.854 118.318 266.899 118.125 266.988 117.95C267.078 117.774 267.208 117.634 267.378 117.529C267.548 117.422 267.753 117.369 267.995 117.369C268.242 117.369 268.45 117.422 268.618 117.529C268.788 117.634 268.916 117.774 269.002 117.95C269.088 118.125 269.131 118.318 269.131 118.528V118.812C269.131 119.022 269.087 119.215 269 119.39C268.914 119.564 268.786 119.703 268.616 119.808C268.446 119.913 268.239 119.966 267.995 119.966C267.748 119.966 267.54 119.913 267.37 119.808C267.201 119.703 267.073 119.563 266.986 119.388C266.898 119.212 266.854 119.02 266.854 118.812ZM267.546 118.528V118.812C267.546 118.952 267.578 119.08 267.643 119.196C267.71 119.31 267.827 119.367 267.995 119.367C268.164 119.367 268.279 119.31 268.342 119.196C268.407 119.08 268.44 118.952 268.44 118.812V118.528C268.44 118.388 268.409 118.26 268.348 118.144C268.286 118.027 268.169 117.968 267.995 117.968C267.829 117.968 267.712 118.027 267.646 118.144C267.579 118.262 267.546 118.389 267.546 118.528ZM267.154 122.902L270.855 117.518H271.513L267.811 122.902H267.154Z" fill="#EDEEF0"/>
<path d="M248.707 117.017C248.707 115.995 249.535 115.167 250.557 115.167H256.788C257.81 115.167 258.639 115.995 258.639 117.017V123.75C258.639 124.772 257.81 125.6 256.788 125.6H250.557C249.535 125.6 248.707 124.772 248.707 123.75V117.017Z" fill="#272A2D" stroke="#5A6169" stroke-width="0.528777"/>
<g clip-path="url(#clip5_5770_111765)">
<path d="M253.446 123.344C255.131 123.344 256.497 121.912 256.497 120.147C256.497 118.381 255.131 116.949 253.446 116.949C251.761 116.949 250.395 118.381 250.395 120.147C250.395 121.912 251.761 123.344 253.446 123.344Z" stroke="#B0B4BA" stroke-width="0.528777" stroke-linecap="round" stroke-linejoin="round"/>
<path d="M251.28 117.875L255.612 122.415" stroke="#B0B4BA" stroke-width="0.528777" stroke-linecap="round" stroke-linejoin="round"/>
</g>
</g>
</g>
</g>
<defs>
<filter id="filter0_bd_5770_111765" x="-41.8442" y="-41.8442" width="377.688" height="252.688" filterUnits="userSpaceOnUse" color-interpolation-filters="sRGB">
<feFlood flood-opacity="0" result="BackgroundImageFix"/>
<feGaussianBlur in="BackgroundImageFix" stdDeviation="17.9221"/>
<feComposite in2="SourceAlpha" operator="in" result="effect1_backgroundBlur_5770_111765"/>
<feColorMatrix in="SourceAlpha" type="matrix" values="0 0 0 0 0 0 0 0 0 0 0 0 0 0 0 0 0 0 127 0" result="hardAlpha"/>
<feMorphology radius="23.8961" operator="erode" in="SourceAlpha" result="effect2_dropShadow_5770_111765"/>
<feOffset dy="12"/>
<feGaussianBlur stdDeviation="21.5065"/>
<feComposite in2="hardAlpha" operator="out"/>
<feColorMatrix type="matrix" values="0 0 0 0 0.153705 0 0 0 0 0.17665 0 0 0 0 0.350374 0 0 0 0.05 0"/>
<feBlend mode="normal" in2="effect1_backgroundBlur_5770_111765" result="effect2_dropShadow_5770_111765"/>
<feBlend mode="normal" in="SourceGraphic" in2="effect2_dropShadow_5770_111765" result="shape"/>
</filter>
<linearGradient id="paint0_linear_5770_111765" x1="52.9092" y1="107.227" x2="52.9092" y2="144.897" gradientUnits="userSpaceOnUse">
<stop stop-color="#DF4D51"/>
<stop offset="1" stop-color="#A90408"/>
</linearGradient>
<linearGradient id="paint1_linear_5770_111765" x1="92.7023" y1="107.227" x2="92.7023" y2="162.937" gradientUnits="userSpaceOnUse">
<stop stop-color="#FFAC88"/>
<stop offset="1" stop-color="#FE6B00"/>
</linearGradient>
<linearGradient id="paint2_linear_5770_111765" x1="150.535" y1="107.227" x2="150.535" y2="193.18" gradientUnits="userSpaceOnUse">
<stop stop-color="#FFD675"/>
<stop offset="1" stop-color="#F5AC00"/>
</linearGradient>
<linearGradient id="paint3_linear_5770_111765" x1="238.611" y1="107.227" x2="238.611" y2="145.959" gradientUnits="userSpaceOnUse">
<stop stop-color="#4F9BF4"/>
<stop offset="1" stop-color="#1B46DE"/>
</linearGradient>
<linearGradient id="paint4_linear_5770_111765" x1="279.464" y1="107.227" x2="279.464" y2="126.858" gradientUnits="userSpaceOnUse">
<stop stop-color="#B9BBC6"/>
<stop offset="1" stop-color="#A0A1A9"/>
</linearGradient>
<clipPath id="clip0_5770_111765">
<rect width="293" height="168" rx="4" fill="white"/>
</clipPath>
<clipPath id="clip1_5770_111765">
<path d="M-0.5 3.5C-0.5 1.29086 1.29086 -0.5 3.5 -0.5H290.5C292.709 -0.5 294.5 1.29086 294.5 3.5V165.5C294.5 167.709 292.709 169.5 290.5 169.5H3.50001C1.29087 169.5 -0.5 167.709 -0.5 165.5V3.5Z" fill="white"/>
</clipPath>
<clipPath id="clip2_5770_111765">
<rect width="7.40288" height="7.40288" fill="white" transform="translate(21.5859 115.707)"/>
</clipPath>
<clipPath id="clip3_5770_111765">
<rect x="61.6294" y="114.668" width="8.96657" height="9.86621" rx="2" fill="white"/>
</clipPath>
<clipPath id="clip4_5770_111765">
<rect width="9.41489" height="9.8662" fill="white" transform="translate(206.676 115.449)"/>
</clipPath>
<clipPath id="clip5_5770_111765">
<rect width="7.3227" height="7.67372" fill="white" transform="translate(249.785 116.309)"/>
</clipPath>
</defs>
</svg>
