<svg width="293" height="168" viewBox="0 0 293 168" fill="none" xmlns="http://www.w3.org/2000/svg">
<g clip-path="url(#clip0_5770_111685)">
<g filter="url(#filter0_bd_5770_111685)">
<g clip-path="url(#clip1_5770_111685)">
<path d="M-0.367806 -61.2677C-0.367806 -62.3628 0.519976 -63.2506 1.61511 -63.2506H292.385C293.48 -63.2506 294.368 -62.3628 294.368 -61.2677V177.868C294.368 178.964 293.48 179.851 292.385 179.851H1.6151C0.519971 179.851 -0.367806 178.964 -0.367806 177.868V-61.2677Z" fill="#18191B"/>
<path d="M-0.367806 -61.2677C-0.367806 -62.3628 0.519976 -63.2506 1.61511 -63.2506H292.385C293.48 -63.2506 294.368 -62.3628 294.368 -61.2677V177.868C294.368 178.964 293.48 179.851 292.385 179.851H1.6151C0.519971 179.851 -0.367806 178.964 -0.367806 177.868V-61.2677Z" stroke="#363A3F" stroke-width="0.264389"/>
<path d="M51.9859 50.8927V55.5078H51.0101V51.8189H50.9831L49.9262 52.4814V51.6161L51.0687 50.8927H51.9859ZM55.0906 50.8927V55.5078H54.1149V51.8189H54.0878L53.0309 52.4814V51.6161L54.1734 50.8927H55.0906ZM58.7136 54.6425V54.3991C58.7136 54.2143 58.7527 54.0446 58.8308 53.8898C58.9104 53.7336 59.0253 53.6089 59.1756 53.5157C59.3273 53.4211 59.5121 53.3738 59.7299 53.3738C59.9508 53.3738 60.1363 53.4204 60.2865 53.5135C60.4383 53.6066 60.5524 53.7313 60.6291 53.8876C60.7072 54.0423 60.7462 54.2128 60.7462 54.3991V54.6425C60.7462 54.8273 60.7072 54.9978 60.6291 55.154C60.5509 55.3088 60.436 55.4327 60.2843 55.5258C60.1325 55.6205 59.9478 55.6678 59.7299 55.6678C59.5091 55.6678 59.3236 55.6205 59.1733 55.5258C59.0231 55.4327 58.9089 55.3088 58.8308 55.154C58.7527 54.9978 58.7136 54.8273 58.7136 54.6425ZM59.3694 54.3991V54.6425C59.3694 54.7491 59.3949 54.8498 59.446 54.9444C59.4986 55.0391 59.5932 55.0864 59.7299 55.0864C59.8666 55.0864 59.9598 55.0398 60.0094 54.9467C60.0604 54.8536 60.086 54.7521 60.086 54.6425V54.3991C60.086 54.2894 60.0619 54.1873 60.0139 54.0926C59.9658 53.998 59.8711 53.9507 59.7299 53.9507C59.5947 53.9507 59.5008 53.998 59.4482 54.0926C59.3957 54.1873 59.3694 54.2894 59.3694 54.3991ZM56.3452 52.0014V51.758C56.3452 51.5718 56.385 51.4012 56.4647 51.2465C56.5443 51.0903 56.6592 50.9656 56.8094 50.8724C56.9612 50.7793 57.1444 50.7327 57.3593 50.7327C57.5816 50.7327 57.7679 50.7793 57.9181 50.8724C58.0684 50.9656 58.1825 51.0903 58.2607 51.2465C58.3388 51.4012 58.3778 51.5718 58.3778 51.758V52.0014C58.3778 52.1877 58.338 52.3582 58.2584 52.513C58.1803 52.6677 58.0654 52.7916 57.9136 52.8848C57.7634 52.9764 57.5786 53.0222 57.3593 53.0222C57.1399 53.0222 56.9544 52.9757 56.8027 52.8825C56.6524 52.7879 56.5383 52.6639 56.4601 52.5107C56.3835 52.356 56.3452 52.1862 56.3452 52.0014ZM57.0055 51.758V52.0014C57.0055 52.1111 57.031 52.2125 57.0821 52.3056C57.1347 52.3988 57.2271 52.4454 57.3593 52.4454C57.4975 52.4454 57.5914 52.3988 57.641 52.3056C57.692 52.2125 57.7176 52.1111 57.7176 52.0014V51.758C57.7176 51.6484 57.6935 51.5462 57.6455 51.4516C57.5974 51.3569 57.502 51.3096 57.3593 51.3096C57.2256 51.3096 57.1332 51.3577 57.0821 51.4538C57.031 51.55 57.0055 51.6514 57.0055 51.758ZM56.6427 55.5078L59.8156 50.8927H60.406L57.2331 55.5078H56.6427Z" fill="white"/>
<path d="M73.4821 38.1819C73.4197 37.0152 72.4225 36.1153 71.2597 36.2287C63.5083 36.9843 56.0411 39.5979 49.4962 43.8613C42.9504 48.1254 37.5385 53.9021 33.7092 60.6917C33.1356 61.7087 33.5543 62.9839 34.5949 63.5135L50.5271 71.6224C51.5688 72.1526 52.8359 71.7321 53.4469 70.7356C55.4931 67.3985 58.2593 64.55 61.5526 62.4046C64.8461 60.2592 68.5684 58.8811 72.4454 58.3598C73.6031 58.2041 74.5001 57.2166 74.4377 56.0502L73.4821 38.1819Z" fill="url(#paint0_linear_5770_111685)"/>
<path d="M122.032 83.7472C123.2 83.7424 124.148 82.791 124.093 81.624C123.819 75.7869 122.512 70.0449 120.231 64.6858C117.675 58.6807 113.951 53.2855 109.291 48.837C104.632 44.3885 99.1364 40.9823 93.149 38.8311C87.8251 36.9183 82.2137 36.0342 76.5935 36.2163C75.4301 36.254 74.5625 37.272 74.6492 38.4328L75.9645 56.0403C76.0518 57.2094 77.0745 58.0748 78.2469 58.0848C80.9583 58.108 83.6529 58.5886 86.2237 59.5122C89.4653 60.6769 92.4404 62.5211 94.9632 64.9295C97.4859 67.338 99.5022 70.259 100.886 73.5101C101.995 76.1148 102.679 78.8866 102.914 81.7127C103.011 82.8769 103.953 83.8215 105.122 83.8167L122.032 83.7472Z" fill="url(#paint1_linear_5770_111685)"/>
<path d="M75.5219 131.021C75.5219 132.189 76.4697 133.141 77.6368 133.09C89.5613 132.57 100.906 127.664 109.469 119.271C118.033 110.877 123.172 99.6269 123.943 87.7039C124.018 86.5381 123.086 85.5706 121.918 85.546L104.56 85.1802C103.392 85.1556 102.434 86.0843 102.318 87.2467C101.693 93.5141 98.8904 99.3904 94.3626 103.828C89.8352 108.265 83.9076 110.947 77.6352 111.44C76.4706 111.532 75.5219 112.471 75.5219 113.639L75.5219 131.021Z" fill="url(#paint2_linear_5770_111685)"/>
<path d="M34.0005 64.6643C32.9446 64.163 31.6777 64.6116 31.2237 65.6887C27.6129 74.2548 26.5345 83.6803 28.1169 92.8418C28.3158 93.9933 29.4481 94.7165 30.5897 94.4673L47.2547 90.8288C48.3957 90.5797 49.1102 89.4534 48.9507 88.2964C48.3235 83.7498 48.8537 79.1171 50.4917 74.8302C50.9085 73.7395 50.4672 72.4811 49.4124 71.9804L34.0005 64.6643Z" fill="url(#paint3_linear_5770_111685)"/>
<path d="M30.8115 95.4427C29.6761 95.7163 28.9728 96.86 29.2951 97.9825C32.0185 107.469 37.5716 115.918 45.2347 122.183C52.8971 128.448 62.2756 132.208 72.1051 132.985C73.2697 133.078 74.2504 132.16 74.2916 130.992L74.8938 113.926C74.935 112.759 74.0202 111.787 72.8595 111.655C67.6798 111.067 62.7611 109.001 58.7009 105.681C54.6405 102.362 51.6355 97.9495 50.0258 92.9864C49.6653 91.8748 48.5304 91.1721 47.3943 91.4459L30.8115 95.4427Z" fill="url(#paint4_linear_5770_111685)"/>
<path d="M61.3371 86.9805V85.3399L65.1702 81.7907C65.4962 81.4752 65.7697 81.1913 65.9905 80.9389C66.2149 80.6865 66.3849 80.4394 66.5005 80.1975C66.6162 79.9522 66.6741 79.6875 66.6741 79.4036C66.6741 79.0881 66.6022 78.8164 66.4585 78.5886C66.3148 78.3572 66.1185 78.1802 65.8696 78.0575C65.6207 77.9313 65.3385 77.8682 65.023 77.8682C64.6935 77.8682 64.4061 77.9348 64.1607 78.068C63.9153 78.2012 63.726 78.3923 63.5928 78.6411C63.4596 78.89 63.393 79.1862 63.393 79.5298H61.2319C61.2319 78.8252 61.3914 78.2135 61.7104 77.6947C62.0294 77.1759 62.4764 76.7745 63.0512 76.4906C63.6261 76.2066 64.2886 76.0647 65.0388 76.0647C65.81 76.0647 66.4813 76.2014 67.0526 76.4748C67.6275 76.7447 68.0745 77.1198 68.3935 77.6C68.7124 78.0803 68.8719 78.6306 68.8719 79.2511C68.8719 79.6577 68.7913 80.0591 68.6301 80.4552C68.4723 80.8513 68.1901 81.2912 67.7835 81.775C67.3769 82.2552 66.8038 82.8318 66.0641 83.5049L64.492 85.0455V85.1191H69.0139V86.9805H61.3371ZM74.5004 87.1277C73.9465 87.1242 73.4119 87.0313 72.8966 86.849C72.3849 86.6667 71.9256 86.3705 71.519 85.9604C71.1124 85.5503 70.7899 85.0069 70.5515 84.3304C70.3167 83.6539 70.1992 82.8231 70.1992 81.8381C70.2027 80.9337 70.3062 80.1257 70.5095 79.4141C70.7163 78.699 71.0107 78.0925 71.3928 77.5948C71.7784 77.097 72.2394 76.7184 72.7757 76.459C73.312 76.1961 73.9132 76.0647 74.5792 76.0647C75.2978 76.0647 75.9323 76.2049 76.4827 76.4853C77.033 76.7622 77.4747 77.1391 77.8077 77.6158C78.1442 78.0925 78.3475 78.6271 78.4176 79.2195H76.1724C76.0848 78.8445 75.9008 78.55 75.6203 78.3362C75.3399 78.1223 74.9929 78.0154 74.5792 78.0154C73.8781 78.0154 73.3453 78.3204 72.9808 78.9303C72.6197 79.5403 72.4357 80.3693 72.4287 81.4174H72.5023C72.6635 81.0984 72.8809 80.8268 73.1543 80.6024C73.4312 80.3746 73.7449 80.201 74.0955 80.0819C74.4495 79.9592 74.8229 79.8978 75.2155 79.8978C75.8534 79.8978 76.4213 80.0486 76.9191 80.35C77.4168 80.648 77.8094 81.0581 78.0969 81.5804C78.3843 82.1027 78.5281 82.7004 78.5281 83.3734C78.5281 84.1025 78.358 84.751 78.018 85.3189C77.6815 85.8868 77.21 86.332 76.6036 86.6545C76.0007 86.9735 75.2996 87.1312 74.5004 87.1277ZM74.4898 85.3399C74.8404 85.3399 75.1541 85.2558 75.431 85.0876C75.708 84.9193 75.9253 84.6914 76.083 84.404C76.2408 84.1166 76.3197 83.7941 76.3197 83.4365C76.3197 83.079 76.2408 82.7582 76.083 82.4743C75.9288 82.1903 75.715 81.9643 75.4416 81.796C75.1681 81.6277 74.8562 81.5436 74.5056 81.5436C74.2427 81.5436 73.9991 81.5927 73.7747 81.6908C73.5539 81.789 73.3594 81.9257 73.1911 82.101C73.0263 82.2762 72.8966 82.4795 72.802 82.7109C72.7073 82.9388 72.66 83.1824 72.66 83.4418C72.66 83.7888 72.7389 84.106 72.8966 84.3935C73.0579 84.6809 73.2752 84.9105 73.5486 85.0823C73.8256 85.2541 74.1393 85.3399 74.4898 85.3399ZM85.7405 84.9614V84.3935C85.7405 83.9623 85.8316 83.5662 86.0139 83.2052C86.1997 82.8406 86.4678 82.5497 86.8184 82.3323C87.1724 82.1115 87.6036 82.0011 88.1119 82.0011C88.6272 82.0011 89.0601 82.1097 89.4106 82.3271C89.7647 82.5444 90.0311 82.8353 90.2098 83.1999C90.3921 83.561 90.4833 83.9588 90.4833 84.3935V84.9614C90.4833 85.3925 90.3921 85.7904 90.2098 86.1549C90.0276 86.516 89.7594 86.8052 89.4054 87.0225C89.0513 87.2434 88.6201 87.3538 88.1119 87.3538C87.5966 87.3538 87.1637 87.2434 86.8131 87.0225C86.4626 86.8052 86.1962 86.516 86.0139 86.1549C85.8316 85.7904 85.7405 85.3925 85.7405 84.9614ZM87.2706 84.3935V84.9614C87.2706 85.2102 87.3302 85.4451 87.4493 85.6659C87.572 85.8868 87.7929 85.9972 88.1119 85.9972C88.4309 85.9972 88.6482 85.8885 88.7639 85.6712C88.8831 85.4539 88.9426 85.2173 88.9426 84.9614V84.3935C88.9426 84.1376 88.8866 83.8992 88.7744 83.6784C88.6622 83.4575 88.4414 83.3471 88.1119 83.3471C87.7964 83.3471 87.5773 83.4575 87.4546 83.6784C87.3319 83.8992 87.2706 84.1376 87.2706 84.3935ZM80.2142 78.7989V78.231C80.2142 77.7963 80.3071 77.3985 80.4929 77.0374C80.6787 76.6729 80.9468 76.3819 81.2974 76.1646C81.6514 75.9472 82.0791 75.8386 82.5804 75.8386C83.0992 75.8386 83.5338 75.9472 83.8844 76.1646C84.2349 76.3819 84.5013 76.6729 84.6836 77.0374C84.8659 77.3985 84.957 77.7963 84.957 78.231V78.7989C84.957 79.2336 84.8641 79.6314 84.6783 79.9925C84.4961 80.3535 84.2279 80.6427 83.8738 80.8601C83.5233 81.0739 83.0921 81.1808 82.5804 81.1808C82.0686 81.1808 81.6357 81.0721 81.2816 80.8548C80.9311 80.634 80.6647 80.3448 80.4824 79.9872C80.3036 79.6262 80.2142 79.23 80.2142 78.7989ZM81.7548 78.231V78.7989C81.7548 79.0548 81.8144 79.2914 81.9336 79.5087C82.0563 79.7261 82.2719 79.8347 82.5804 79.8347C82.9029 79.8347 83.1219 79.7261 83.2376 79.5087C83.3568 79.2914 83.4164 79.0548 83.4164 78.7989V78.231C83.4164 77.9751 83.3603 77.7367 83.2481 77.5159C83.136 77.2951 82.9134 77.1846 82.5804 77.1846C82.2684 77.1846 82.0528 77.2968 81.9336 77.5212C81.8144 77.7455 81.7548 77.9821 81.7548 78.231ZM80.9083 86.9805L88.3117 76.2119H89.6893L82.2859 86.9805H80.9083Z" fill="#FFCA16"/>
<path d="M68.5377 93.5934C68.5137 93.38 68.4145 93.2148 68.2402 93.0976C68.066 92.9789 67.8466 92.9196 67.5822 92.9196C67.3929 92.9196 67.2292 92.9496 67.091 93.0097C66.9528 93.0683 66.8454 93.1494 66.7687 93.2531C66.6936 93.3552 66.6561 93.4717 66.6561 93.6024C66.6561 93.712 66.6816 93.8067 66.7327 93.8863C66.7853 93.9659 66.8536 94.0328 66.9377 94.0869C67.0234 94.1394 67.115 94.1838 67.2127 94.2198C67.3103 94.2544 67.4042 94.2829 67.4944 94.3055L67.945 94.4226C68.0923 94.4587 68.2433 94.5075 68.398 94.5691C68.5527 94.6307 68.6962 94.7118 68.8284 94.8125C68.9606 94.9131 69.0673 95.0378 69.1484 95.1866C69.231 95.3353 69.2723 95.5133 69.2723 95.7206C69.2723 95.982 69.2047 96.2141 69.0695 96.417C68.9358 96.6198 68.7413 96.7798 68.4859 96.8969C68.232 97.0141 67.9248 97.0727 67.5642 97.0727C67.2187 97.0727 66.9197 97.0179 66.6673 96.9082C66.4149 96.7985 66.2174 96.6431 66.0747 96.4417C65.9319 96.2389 65.8531 95.9986 65.8381 95.7206H66.5366C66.5501 95.8874 66.6042 96.0264 66.6989 96.1375C66.795 96.2472 66.9175 96.3291 67.0662 96.3832C67.2164 96.4357 67.3809 96.462 67.5597 96.462C67.7565 96.462 67.9315 96.4312 68.0848 96.3696C68.2395 96.3065 68.3612 96.2194 68.4498 96.1082C68.5385 95.9956 68.5828 95.8641 68.5828 95.7139C68.5828 95.5772 68.5437 95.4652 68.4656 95.3781C68.389 95.291 68.2846 95.2189 68.1524 95.1618C68.0217 95.1047 67.8737 95.0544 67.7084 95.0108L67.1631 94.8621C66.7935 94.7614 66.5006 94.6134 66.2842 94.4181C66.0694 94.2228 65.962 93.9644 65.962 93.6429C65.962 93.377 66.0341 93.1449 66.1783 92.9466C66.3225 92.7483 66.5178 92.5943 66.7642 92.4847C67.0106 92.3735 67.2885 92.3179 67.598 92.3179C67.9105 92.3179 68.1862 92.3727 68.425 92.4824C68.6654 92.5921 68.8547 92.7431 68.9929 92.9353C69.1311 93.1261 69.2032 93.3455 69.2092 93.5934H68.5377ZM71.6661 93.5348V94.0756H69.7754V93.5348H71.6661ZM70.2825 92.7055H70.9562V95.9798C70.9562 96.1105 70.9758 96.2089 71.0148 96.275C71.0539 96.3396 71.1042 96.3839 71.1658 96.4079C71.2289 96.4305 71.2973 96.4417 71.3709 96.4417C71.425 96.4417 71.4723 96.438 71.5128 96.4305C71.5534 96.423 71.585 96.417 71.6075 96.4124L71.7292 96.9691C71.6901 96.9841 71.6345 96.9991 71.5624 97.0141C71.4903 97.0306 71.4002 97.0397 71.292 97.0412C71.1147 97.0442 70.9495 97.0126 70.7962 96.9465C70.643 96.8804 70.5191 96.7783 70.4244 96.64C70.3298 96.5018 70.2825 96.3283 70.2825 96.1195V92.7055ZM73.4187 97.0727C73.1994 97.0727 73.0011 97.0321 72.8238 96.951C72.6465 96.8684 72.5061 96.749 72.4024 96.5927C72.3002 96.4365 72.2492 96.2449 72.2492 96.0181C72.2492 95.8228 72.2867 95.662 72.3618 95.5358C72.437 95.4097 72.5384 95.3097 72.6661 95.2361C72.7938 95.1625 72.9365 95.1069 73.0942 95.0694C73.252 95.0318 73.4127 95.0033 73.5765 94.9837C73.7838 94.9597 73.952 94.9402 74.0812 94.9252C74.2104 94.9086 74.3043 94.8823 74.3629 94.8463C74.4215 94.8102 74.4508 94.7516 74.4508 94.6705V94.6547C74.4508 94.4579 74.3952 94.3055 74.284 94.1973C74.1744 94.0891 74.0106 94.035 73.7928 94.035C73.5659 94.035 73.3872 94.0854 73.2565 94.186C73.1273 94.2852 73.0379 94.3956 72.9883 94.5173L72.3551 94.3731C72.4302 94.1627 72.5399 93.993 72.6841 93.8638C72.8298 93.7331 72.9973 93.6384 73.1866 93.5798C73.3759 93.5197 73.575 93.4897 73.7838 93.4897C73.922 93.4897 74.0685 93.5062 74.2232 93.5393C74.3794 93.5708 74.5252 93.6294 74.6604 93.715C74.7971 93.8007 74.909 93.9231 74.9961 94.0824C75.0833 94.2401 75.1268 94.4452 75.1268 94.6976V96.9961H74.4688V96.5229H74.4418C74.3982 96.61 74.3329 96.6956 74.2457 96.7798C74.1586 96.8639 74.0467 96.9337 73.91 96.9893C73.7733 97.0449 73.6095 97.0727 73.4187 97.0727ZM73.5652 96.5319C73.7515 96.5319 73.9107 96.4951 74.0429 96.4215C74.1766 96.3478 74.278 96.2517 74.3471 96.133C74.4178 96.0128 74.4531 95.8844 74.4531 95.7477V95.3015C74.429 95.3255 74.3824 95.3481 74.3133 95.3691C74.2457 95.3886 74.1684 95.4059 74.0812 95.4209C73.9941 95.4344 73.9092 95.4472 73.8266 95.4592C73.744 95.4697 73.6749 95.4788 73.6193 95.4863C73.4886 95.5028 73.3691 95.5306 73.261 95.5696C73.1543 95.6087 73.0687 95.665 73.0041 95.7387C72.941 95.8108 72.9094 95.9069 72.9094 96.0271C72.9094 96.1939 72.971 96.3201 73.0942 96.4057C73.2174 96.4898 73.3744 96.5319 73.5652 96.5319ZM76.0243 96.9961V93.5348H76.6755V94.0846H76.7116C76.7747 93.8983 76.8859 93.7519 77.0451 93.6452C77.2059 93.537 77.3876 93.4829 77.5904 93.4829C77.6325 93.4829 77.6821 93.4844 77.7392 93.4874C77.7978 93.4905 77.8436 93.4942 77.8766 93.4987V94.1432C77.8496 94.1357 77.8015 94.1274 77.7324 94.1184C77.6633 94.1079 77.5942 94.1026 77.5251 94.1026C77.3659 94.1026 77.2239 94.1364 77.0992 94.204C76.976 94.2701 76.8784 94.3625 76.8062 94.4812C76.7341 94.5984 76.6981 94.7321 76.6981 94.8823V96.9961H76.0243ZM80.28 93.5348V94.0756H78.3893V93.5348H80.28ZM78.8963 92.7055H79.5701V95.9798C79.5701 96.1105 79.5896 96.2089 79.6287 96.275C79.6678 96.3396 79.7181 96.3839 79.7797 96.4079C79.8428 96.4305 79.9111 96.4417 79.9848 96.4417C80.0388 96.4417 80.0862 96.438 80.1267 96.4305C80.1673 96.423 80.1988 96.417 80.2214 96.4124L80.3431 96.9691C80.304 96.9841 80.2484 96.9991 80.1763 97.0141C80.1042 97.0306 80.0141 97.0397 79.9059 97.0412C79.7286 97.0442 79.5634 97.0126 79.4101 96.9465C79.2569 96.8804 79.1329 96.7783 79.0383 96.64C78.9437 96.5018 78.8963 96.3283 78.8963 96.1195V92.7055ZM82.4799 97.066C82.1389 97.066 81.8452 96.9931 81.5988 96.8474C81.3539 96.7001 81.1646 96.4936 81.0309 96.2277C80.8987 95.9603 80.8326 95.647 80.8326 95.288C80.8326 94.9334 80.8987 94.6209 81.0309 94.3505C81.1646 94.0801 81.3509 93.869 81.5898 93.7173C81.8302 93.5656 82.1111 93.4897 82.4326 93.4897C82.6279 93.4897 82.8172 93.522 83.0005 93.5866C83.1837 93.6512 83.3482 93.7526 83.494 93.8908C83.6397 94.029 83.7546 94.2086 83.8387 94.4294C83.9229 94.6487 83.9649 94.9154 83.9649 95.2294V95.4682H81.2135V94.9635H83.3047C83.3047 94.7862 83.2686 94.6292 83.1965 94.4925C83.1244 94.3543 83.023 94.2454 82.8923 94.1657C82.7631 94.0861 82.6114 94.0463 82.4371 94.0463C82.2478 94.0463 82.0825 94.0929 81.9413 94.186C81.8016 94.2777 81.6934 94.3978 81.6168 94.5466C81.5417 94.6938 81.5042 94.8538 81.5042 95.0266V95.4209C81.5042 95.6523 81.5447 95.8491 81.6258 96.0113C81.7085 96.1736 81.8234 96.2975 81.9706 96.3832C82.1178 96.4673 82.2899 96.5093 82.4867 96.5093C82.6144 96.5093 82.7308 96.4913 82.836 96.4553C82.9411 96.4177 83.032 96.3621 83.1086 96.2885C83.1852 96.2149 83.2438 96.124 83.2844 96.0158L83.9221 96.1308C83.871 96.3186 83.7794 96.4831 83.6472 96.6243C83.5165 96.764 83.352 96.8729 83.1537 96.951C82.9569 97.0276 82.7323 97.066 82.4799 97.066ZM86.0083 97.0637C85.7288 97.0637 85.4795 96.9923 85.2601 96.8496C85.0423 96.7054 84.871 96.5003 84.7463 96.2344C84.6231 95.967 84.5615 95.6463 84.5615 95.2722C84.5615 94.8981 84.6239 94.5781 84.7486 94.3122C84.8748 94.0463 85.0475 93.8427 85.2669 93.7015C85.4862 93.5603 85.7349 93.4897 86.0128 93.4897C86.2276 93.4897 86.4004 93.5258 86.5311 93.5979C86.6633 93.6685 86.7654 93.7511 86.8375 93.8457C86.9112 93.9404 86.9682 94.0238 87.0088 94.0959H87.0494V92.381H87.7232V96.9961H87.0651V96.4575H87.0088C86.9682 96.5311 86.9097 96.6153 86.833 96.7099C86.7579 96.8045 86.6543 96.8872 86.5221 96.9578C86.3899 97.0284 86.2186 97.0637 86.0083 97.0637ZM86.157 96.4891C86.3508 96.4891 86.5145 96.438 86.6483 96.3358C86.7835 96.2322 86.8856 96.0887 86.9547 95.9054C87.0253 95.7221 87.0606 95.5088 87.0606 95.2654C87.0606 95.0251 87.0261 94.8147 86.957 94.6345C86.8879 94.4542 86.7865 94.3137 86.6528 94.2131C86.5191 94.1124 86.3538 94.0621 86.157 94.0621C85.9542 94.0621 85.7852 94.1147 85.65 94.2198C85.5148 94.325 85.4126 94.4685 85.3435 94.6502C85.2759 94.832 85.2421 95.0371 85.2421 95.2654C85.2421 95.4968 85.2766 95.7049 85.3458 95.8896C85.4149 96.0744 85.517 96.2209 85.6522 96.3291C85.7889 96.4357 85.9572 96.4891 86.157 96.4891Z" fill="#EDEEF0"/>
<path d="M194.132 62.3774H194.947V65.9188C194.947 66.2956 194.859 66.6295 194.682 66.9204C194.505 67.2096 194.256 67.4375 193.935 67.604C193.614 67.7687 193.238 67.8511 192.807 67.8511C192.378 67.8511 192.003 67.7687 191.682 67.604C191.361 67.4375 191.112 67.2096 190.935 66.9204C190.758 66.6295 190.67 66.2956 190.67 65.9188V62.3774H191.482V65.853C191.482 66.0967 191.536 66.3131 191.642 66.5024C191.751 66.6917 191.905 66.8407 192.103 66.9493C192.301 67.0563 192.535 67.1097 192.807 67.1097C193.081 67.1097 193.316 67.0563 193.514 66.9493C193.714 66.8407 193.867 66.6917 193.972 66.5024C194.079 66.3131 194.132 66.0967 194.132 65.853V62.3774ZM196.851 65.364V67.7617H196.065V63.7235H196.82V64.3808H196.87C196.963 64.1669 197.108 63.9952 197.306 63.8655C197.506 63.7358 197.757 63.6709 198.061 63.6709C198.336 63.6709 198.577 63.7288 198.784 63.8444C198.99 63.9584 199.151 64.1284 199.265 64.3545C199.379 64.5806 199.436 64.8601 199.436 65.1931V67.7617H198.65V65.2878C198.65 64.9951 198.573 64.7664 198.421 64.6016C198.268 64.4351 198.059 64.3518 197.792 64.3518C197.61 64.3518 197.448 64.3913 197.306 64.4702C197.166 64.549 197.055 64.6647 196.972 64.8172C196.892 64.9679 196.851 65.1502 196.851 65.364ZM203.516 64.7094L202.803 64.8356C202.774 64.7445 202.726 64.6577 202.661 64.5753C202.598 64.4929 202.513 64.4255 202.404 64.3729C202.295 64.3203 202.159 64.294 201.996 64.294C201.774 64.294 201.588 64.344 201.439 64.4439C201.29 64.542 201.216 64.6691 201.216 64.8251C201.216 64.96 201.265 65.0687 201.365 65.1511C201.465 65.2335 201.627 65.3009 201.849 65.3535L202.491 65.5007C202.862 65.5866 203.139 65.719 203.321 65.8977C203.504 66.0765 203.595 66.3087 203.595 66.5944C203.595 66.8363 203.525 67.0519 203.384 67.2412C203.246 67.4287 203.052 67.5759 202.803 67.6828C202.556 67.7898 202.27 67.8432 201.944 67.8432C201.492 67.8432 201.123 67.7468 200.837 67.554C200.551 67.3595 200.376 67.0834 200.311 66.7259L201.071 66.6102C201.118 66.8083 201.216 66.9581 201.363 67.0598C201.51 67.1597 201.702 67.2096 201.938 67.2096C202.196 67.2096 202.402 67.1562 202.556 67.0492C202.711 66.9406 202.788 66.8083 202.788 66.6523C202.788 66.5261 202.74 66.42 202.646 66.3341C202.553 66.2483 202.41 66.1834 202.217 66.1396L201.534 65.9897C201.157 65.9039 200.878 65.7672 200.698 65.5796C200.519 65.3921 200.429 65.1546 200.429 64.8671C200.429 64.6288 200.496 64.4202 200.629 64.2414C200.762 64.0627 200.946 63.9233 201.181 63.8234C201.416 63.7218 201.685 63.6709 201.988 63.6709C202.425 63.6709 202.768 63.7656 203.019 63.9549C203.27 64.1424 203.435 64.3939 203.516 64.7094ZM206.344 63.7235V64.3545H204.138V63.7235H206.344ZM204.73 62.756H205.516V66.576C205.516 66.7285 205.539 66.8433 205.584 66.9204C205.63 66.9958 205.689 67.0475 205.76 67.0755C205.834 67.1018 205.914 67.115 206 67.115C206.063 67.115 206.118 67.1106 206.165 67.1018C206.213 67.0931 206.249 67.0861 206.276 67.0808L206.418 67.7302C206.372 67.7477 206.307 67.7652 206.223 67.7828C206.139 67.802 206.034 67.8125 205.908 67.8143C205.701 67.8178 205.508 67.781 205.329 67.7039C205.151 67.6268 205.006 67.5076 204.896 67.3463C204.785 67.1851 204.73 66.9826 204.73 66.739V62.756ZM208.389 67.8511C208.133 67.8511 207.902 67.8038 207.695 67.7091C207.488 67.6127 207.324 67.4734 207.203 67.2911C207.084 67.1088 207.024 66.8854 207.024 66.6207C207.024 66.3929 207.068 66.2053 207.156 66.0581C207.243 65.9109 207.362 65.7943 207.511 65.7084C207.66 65.6226 207.826 65.5577 208.01 65.5139C208.194 65.4701 208.382 65.4368 208.573 65.414C208.815 65.3859 209.011 65.3632 209.162 65.3456C209.313 65.3263 209.422 65.2957 209.49 65.2536C209.559 65.2115 209.593 65.1432 209.593 65.0485V65.0301C209.593 64.8005 209.528 64.6226 209.398 64.4964C209.27 64.3703 209.079 64.3072 208.825 64.3072C208.561 64.3072 208.352 64.3659 208.2 64.4833C208.049 64.599 207.945 64.7278 207.887 64.8698L207.148 64.7015C207.236 64.4561 207.364 64.2581 207.532 64.1073C207.702 63.9549 207.897 63.8444 208.118 63.7761C208.339 63.706 208.571 63.6709 208.815 63.6709C208.976 63.6709 209.147 63.6902 209.327 63.7288C209.51 63.7656 209.68 63.8339 209.837 63.9338C209.997 64.0337 210.128 64.1766 210.229 64.3624C210.331 64.5464 210.382 64.7856 210.382 65.0801V67.7617H209.614V67.2096H209.582C209.532 67.3113 209.455 67.4112 209.354 67.5093C209.252 67.6075 209.121 67.689 208.962 67.7538C208.802 67.8187 208.611 67.8511 208.389 67.8511ZM208.56 67.2201C208.777 67.2201 208.963 67.1772 209.117 67.0913C209.273 67.0054 209.391 66.8933 209.472 66.7548C209.554 66.6146 209.596 66.4647 209.596 66.3052V65.7847C209.568 65.8127 209.513 65.839 209.433 65.8635C209.354 65.8863 209.263 65.9065 209.162 65.924C209.06 65.9398 208.961 65.9547 208.865 65.9687C208.768 65.981 208.688 65.9915 208.623 66.0003C208.47 66.0195 208.331 66.052 208.205 66.0975C208.08 66.1431 207.98 66.2088 207.905 66.2947C207.831 66.3788 207.795 66.491 207.795 66.6312C207.795 66.8258 207.867 66.973 208.01 67.0729C208.154 67.1711 208.337 67.2201 208.56 67.2201ZM211.429 67.7617V63.7235H212.188V64.365H212.231C212.304 64.1477 212.434 63.9768 212.62 63.8523C212.807 63.7261 213.019 63.663 213.256 63.663C213.305 63.663 213.363 63.6648 213.429 63.6683C213.498 63.6718 213.551 63.6762 213.59 63.6814V64.4333C213.558 64.4246 213.502 64.4149 213.422 64.4044C213.341 64.3922 213.26 64.386 213.18 64.386C212.994 64.386 212.828 64.4255 212.683 64.5043C212.539 64.5815 212.425 64.6892 212.341 64.8277C212.257 64.9644 212.215 65.1204 212.215 65.2957V67.7617H211.429ZM216.394 63.7235V64.3545H214.188V63.7235H216.394ZM214.779 62.756H215.565V66.576C215.565 66.7285 215.588 66.8433 215.634 66.9204C215.679 66.9958 215.738 67.0475 215.81 67.0755C215.884 67.1018 215.963 67.115 216.049 67.115C216.112 67.115 216.168 67.1106 216.215 67.1018C216.262 67.0931 216.299 67.0861 216.325 67.0808L216.467 67.7302C216.422 67.7477 216.357 67.7652 216.273 67.7828C216.189 67.802 216.083 67.8125 215.957 67.8143C215.75 67.8178 215.558 67.781 215.379 67.7039C215.2 67.6268 215.055 67.5076 214.945 67.3463C214.835 67.1851 214.779 66.9826 214.779 66.739V62.756ZM218.96 67.8432C218.562 67.8432 218.22 67.7582 217.932 67.5882C217.647 67.4164 217.426 67.1754 217.27 66.8652C217.116 66.5532 217.038 66.1878 217.038 65.7689C217.038 65.3553 217.116 64.9907 217.27 64.6752C217.426 64.3597 217.643 64.1135 217.922 63.9365C218.202 63.7594 218.53 63.6709 218.905 63.6709C219.133 63.6709 219.354 63.7086 219.568 63.784C219.781 63.8593 219.973 63.9776 220.143 64.1389C220.313 64.3001 220.447 64.5096 220.546 64.7672C220.644 65.0231 220.693 65.3342 220.693 65.7005V65.9792H217.483V65.3903H219.922C219.922 65.1835 219.88 65.0003 219.796 64.8409C219.712 64.6796 219.594 64.5525 219.441 64.4596C219.291 64.3667 219.114 64.3203 218.91 64.3203C218.689 64.3203 218.497 64.3746 218.332 64.4833C218.169 64.5902 218.043 64.7304 217.953 64.9039C217.866 65.0757 217.822 65.2624 217.822 65.4639V65.924C217.822 66.1939 217.869 66.4235 217.964 66.6128C218.06 66.8021 218.194 66.9467 218.366 67.0466C218.538 67.1448 218.739 67.1938 218.968 67.1938C219.117 67.1938 219.253 67.1728 219.376 67.1307C219.498 67.0869 219.604 67.0221 219.694 66.9362C219.783 66.8503 219.851 66.7443 219.899 66.6181L220.643 66.7522C220.583 66.9713 220.476 67.1632 220.322 67.3279C220.17 67.4909 219.978 67.618 219.746 67.7091C219.517 67.7985 219.255 67.8432 218.96 67.8432ZM223.077 67.8406C222.751 67.8406 222.46 67.7573 222.204 67.5908C221.95 67.4226 221.75 67.1833 221.604 66.8731C221.461 66.5611 221.389 66.1869 221.389 65.7505C221.389 65.3141 221.462 64.9408 221.607 64.6305C221.754 64.3203 221.956 64.0828 222.212 63.9181C222.468 63.7533 222.758 63.6709 223.082 63.6709C223.333 63.6709 223.534 63.713 223.687 63.7971C223.841 63.8795 223.96 63.9759 224.044 64.0863C224.13 64.1967 224.197 64.294 224.244 64.3781H224.291V62.3774H225.077V67.7617H224.31V67.1334H224.244C224.197 67.2193 224.128 67.3174 224.039 67.4278C223.951 67.5382 223.83 67.6346 223.676 67.717C223.522 67.7994 223.322 67.8406 223.077 67.8406ZM223.25 67.1702C223.476 67.1702 223.667 67.1106 223.823 66.9914C223.981 66.8705 224.1 66.7031 224.181 66.4893C224.263 66.2754 224.304 66.0265 224.304 65.7426C224.304 65.4622 224.264 65.2168 224.183 65.0065C224.103 64.7962 223.985 64.6323 223.829 64.5148C223.673 64.3974 223.48 64.3387 223.25 64.3387C223.014 64.3387 222.816 64.4 222.659 64.5227C222.501 64.6454 222.382 64.8128 222.301 65.0249C222.222 65.237 222.183 65.4762 222.183 65.7426C222.183 66.0125 222.223 66.2553 222.304 66.4709C222.384 66.6864 222.504 66.8573 222.661 66.9835C222.821 67.108 223.017 67.1702 223.25 67.1702Z" fill="#EDEEF0"/>
<path d="M252.62 67.8353C252.273 67.8353 251.963 67.7757 251.692 67.6566C251.422 67.5374 251.207 67.3717 251.048 67.1597C250.89 66.9458 250.804 66.6978 250.79 66.4156H251.452C251.466 66.5892 251.526 66.739 251.631 66.8652C251.736 66.9897 251.874 67.0861 252.044 67.1544C252.214 67.2228 252.402 67.2569 252.609 67.2569C252.841 67.2569 253.046 67.2166 253.224 67.136C253.403 67.0554 253.543 66.9432 253.645 66.7995C253.747 66.6558 253.798 66.4893 253.798 66.3C253.798 66.1019 253.748 65.9275 253.65 65.7768C253.552 65.6243 253.408 65.5051 253.219 65.4192C253.03 65.3334 252.799 65.2904 252.525 65.2904H252.094V64.712H252.525C252.739 64.712 252.926 64.6735 253.088 64.5963C253.251 64.5192 253.378 64.4106 253.469 64.2703C253.562 64.1301 253.608 63.9654 253.608 63.7761C253.608 63.5938 253.568 63.4352 253.487 63.3002C253.407 63.1653 253.293 63.0601 253.146 62.9847C253 62.9094 252.828 62.8717 252.63 62.8717C252.444 62.8717 252.269 62.9059 252.104 62.9742C251.941 63.0408 251.808 63.1381 251.705 63.2661C251.601 63.3922 251.545 63.5447 251.537 63.7235H250.906C250.916 63.4413 251.001 63.1942 251.161 62.9821C251.32 62.7683 251.529 62.6018 251.786 62.4826C252.046 62.3634 252.331 62.3038 252.641 62.3038C252.974 62.3038 253.259 62.3713 253.498 62.5063C253.736 62.6395 253.919 62.8156 254.047 63.0347C254.175 63.2538 254.239 63.4904 254.239 63.7445C254.239 64.0478 254.16 64.3063 254 64.5201C253.842 64.7339 253.628 64.882 253.356 64.9644V65.0065C253.696 65.0626 253.961 65.2072 254.152 65.4403C254.344 65.6716 254.439 65.9582 254.439 66.3C254.439 66.5927 254.359 66.8556 254.2 67.0887C254.042 67.32 253.826 67.5023 253.553 67.6355C253.28 67.7687 252.969 67.8353 252.62 67.8353ZM257.407 62.3774V67.7617H256.755V63.061H256.724L255.409 63.9338V63.2713L256.755 62.3774H257.407ZM261.7 66.7522V66.4682C261.7 66.2719 261.741 66.0923 261.821 65.9293C261.904 65.7645 262.023 65.6331 262.179 65.5349C262.337 65.435 262.528 65.3851 262.752 65.3851C262.98 65.3851 263.171 65.435 263.325 65.5349C263.479 65.6331 263.596 65.7645 263.675 65.9293C263.754 66.0923 263.793 66.2719 263.793 66.4682V66.7522C263.793 66.9485 263.753 67.129 263.672 67.2937C263.593 67.4567 263.476 67.5882 263.32 67.6881C263.166 67.7863 262.976 67.8353 262.752 67.8353C262.524 67.8353 262.332 67.7863 262.176 67.6881C262.02 67.5882 261.902 67.4567 261.821 67.2937C261.741 67.129 261.7 66.9485 261.7 66.7522ZM262.237 66.4682V66.7522C262.237 66.9152 262.275 67.0615 262.352 67.1912C262.43 67.3192 262.563 67.3831 262.752 67.3831C262.936 67.3831 263.066 67.3192 263.141 67.1912C263.218 67.0615 263.257 66.9152 263.257 66.7522V66.4682C263.257 66.3052 263.22 66.1598 263.146 66.0318C263.073 65.9021 262.941 65.8373 262.752 65.8373C262.568 65.8373 262.436 65.9021 262.355 66.0318C262.276 66.1598 262.237 66.3052 262.237 66.4682ZM259.019 63.6709V63.387C259.019 63.1907 259.059 63.011 259.14 62.848C259.222 62.6833 259.341 62.5518 259.497 62.4537C259.655 62.3538 259.846 62.3038 260.07 62.3038C260.298 62.3038 260.489 62.3538 260.644 62.4537C260.798 62.5518 260.914 62.6833 260.993 62.848C261.072 63.011 261.112 63.1907 261.112 63.387V63.6709C261.112 63.8672 261.071 64.0478 260.991 64.2125C260.912 64.3755 260.794 64.507 260.638 64.6069C260.484 64.705 260.295 64.7541 260.07 64.7541C259.843 64.7541 259.651 64.705 259.495 64.6069C259.339 64.507 259.22 64.3755 259.14 64.2125C259.059 64.0478 259.019 63.8672 259.019 63.6709ZM259.555 63.387V63.6709C259.555 63.8339 259.594 63.9803 259.671 64.11C259.748 64.2379 259.881 64.3019 260.07 64.3019C260.255 64.3019 260.384 64.2379 260.46 64.11C260.537 63.9803 260.575 63.8339 260.575 63.6709V63.387C260.575 63.224 260.538 63.0785 260.465 62.9506C260.391 62.8209 260.26 62.756 260.07 62.756C259.886 62.756 259.754 62.8209 259.673 62.9506C259.595 63.0785 259.555 63.224 259.555 63.387ZM259.219 67.7617L262.92 62.3774H263.52L259.818 67.7617H259.219Z" fill="#EDEEF0"/>
<ellipse cx="181.633" cy="64.0545" rx="3.16659" ry="3.29274" fill="#777B84"/>
<path d="M190.67 46.9023V41.5181H192.642C193.024 41.5181 193.34 41.5812 193.591 41.7074C193.841 41.8318 194.029 42.0009 194.153 42.2148C194.278 42.4268 194.34 42.6661 194.34 42.9325C194.34 43.1568 194.299 43.3461 194.216 43.5004C194.134 43.6528 194.024 43.7755 193.885 43.8684C193.748 43.9596 193.598 44.0262 193.433 44.0682V44.1208C193.612 44.1296 193.786 44.1874 193.956 44.2943C194.128 44.3995 194.27 44.5493 194.382 44.7439C194.494 44.9384 194.55 45.1751 194.55 45.4537C194.55 45.7289 194.485 45.976 194.356 46.1951C194.228 46.4125 194.03 46.5851 193.762 46.7131C193.493 46.8392 193.151 46.9023 192.734 46.9023H190.67ZM191.482 46.2056H192.655C193.044 46.2056 193.322 46.1303 193.491 45.9795C193.659 45.8288 193.743 45.6404 193.743 45.4143C193.743 45.2443 193.7 45.0883 193.614 44.9463C193.528 44.8044 193.406 44.6913 193.246 44.6072C193.088 44.5231 192.901 44.481 192.684 44.481H191.482V46.2056ZM191.482 43.8474H192.571C192.753 43.8474 192.917 43.8123 193.062 43.7422C193.209 43.6721 193.326 43.574 193.412 43.4478C193.499 43.3198 193.543 43.1691 193.543 42.9956C193.543 42.773 193.465 42.5863 193.309 42.4356C193.153 42.2849 192.914 42.2095 192.592 42.2095H191.482V43.8474ZM196.626 46.9917C196.37 46.9917 196.139 46.9444 195.932 46.8498C195.725 46.7534 195.561 46.614 195.44 46.4317C195.321 46.2495 195.261 46.026 195.261 45.7613C195.261 45.5335 195.305 45.3459 195.393 45.1987C195.48 45.0515 195.599 44.9349 195.748 44.8491C195.897 44.7632 196.063 44.6983 196.247 44.6545C196.431 44.6107 196.619 44.5774 196.81 44.5546C197.052 44.5266 197.248 44.5038 197.399 44.4863C197.55 44.467 197.659 44.4363 197.727 44.3942C197.796 44.3522 197.83 44.2838 197.83 44.1892V44.1708C197.83 43.9412 197.765 43.7633 197.635 43.6371C197.507 43.5109 197.316 43.4478 197.062 43.4478C196.798 43.4478 196.589 43.5065 196.437 43.6239C196.286 43.7396 196.182 43.8684 196.124 44.0104L195.385 43.8421C195.473 43.5968 195.601 43.3987 195.769 43.248C195.939 43.0955 196.134 42.9851 196.355 42.9167C196.576 42.8466 196.808 42.8116 197.052 42.8116C197.213 42.8116 197.384 42.8308 197.564 42.8694C197.747 42.9062 197.917 42.9746 198.074 43.0745C198.234 43.1744 198.365 43.3172 198.466 43.503C198.568 43.687 198.619 43.9263 198.619 44.2207V46.9023H197.851V46.3502H197.819C197.769 46.4519 197.692 46.5518 197.591 46.65C197.489 46.7481 197.358 46.8296 197.199 46.8945C197.039 46.9593 196.848 46.9917 196.626 46.9917ZM196.797 46.3608C197.014 46.3608 197.2 46.3178 197.354 46.2319C197.51 46.1461 197.628 46.0339 197.709 45.8954C197.791 45.7552 197.833 45.6053 197.833 45.4459V44.9253C197.805 44.9533 197.75 44.9796 197.67 45.0042C197.591 45.027 197.5 45.0471 197.399 45.0646C197.297 45.0804 197.198 45.0953 197.102 45.1093C197.005 45.1216 196.925 45.1321 196.86 45.1409C196.707 45.1602 196.568 45.1926 196.442 45.2382C196.317 45.2837 196.217 45.3495 196.142 45.4353C196.068 45.5195 196.032 45.6316 196.032 45.7719C196.032 45.9664 196.104 46.1136 196.247 46.2135C196.391 46.3117 196.574 46.3608 196.797 46.3608ZM201.367 46.9838C200.976 46.9838 200.639 46.8953 200.357 46.7183C200.077 46.5395 199.861 46.2933 199.71 45.9795C199.56 45.6658 199.484 45.3065 199.484 44.9016C199.484 44.4915 199.561 44.1296 199.716 43.8158C199.87 43.5004 200.087 43.2541 200.368 43.0771C200.648 42.9001 200.978 42.8116 201.359 42.8116C201.666 42.8116 201.939 42.8685 202.179 42.9824C202.419 43.0946 202.613 43.2524 202.76 43.4557C202.909 43.659 202.998 43.8965 203.026 44.1681H202.261C202.218 43.9788 202.122 43.8158 201.971 43.6791C201.822 43.5424 201.623 43.4741 201.372 43.4741C201.153 43.4741 200.961 43.5319 200.796 43.6476C200.633 43.7615 200.506 43.9245 200.415 44.1366C200.324 44.3469 200.278 44.5958 200.278 44.8832C200.278 45.1777 200.323 45.4318 200.412 45.6457C200.502 45.8595 200.628 46.0251 200.791 46.1425C200.956 46.26 201.149 46.3187 201.372 46.3187C201.521 46.3187 201.656 46.2915 201.777 46.2372C201.899 46.1811 202.002 46.1014 202.084 45.998C202.169 45.8945 202.227 45.7701 202.261 45.6246H203.026C202.998 45.8858 202.913 46.1189 202.771 46.324C202.629 46.529 202.438 46.6903 202.2 46.8077C201.963 46.9251 201.686 46.9838 201.367 46.9838ZM204.589 45.5326L204.584 44.573H204.721L206.33 42.8641H207.271L205.436 44.8096H205.312L204.589 45.5326ZM203.866 46.9023V41.5181H204.652V46.9023H203.866ZM206.416 46.9023L204.97 44.9831L205.512 44.4337L207.381 46.9023H206.416ZM208.773 41.5181V46.9023H207.987V41.5181H208.773ZM211.532 46.9838C211.153 46.9838 210.823 46.8971 210.541 46.7236C210.259 46.5501 210.039 46.3073 209.883 45.9953C209.727 45.6833 209.649 45.3188 209.649 44.9016C209.649 44.4827 209.727 44.1164 209.883 43.8027C210.039 43.489 210.259 43.2453 210.541 43.0718C210.823 42.8983 211.153 42.8116 211.532 42.8116C211.91 42.8116 212.241 42.8983 212.523 43.0718C212.805 43.2453 213.024 43.489 213.18 43.8027C213.336 44.1164 213.414 44.4827 213.414 44.9016C213.414 45.3188 213.336 45.6833 213.18 45.9953C213.024 46.3073 212.805 46.5501 212.523 46.7236C212.241 46.8971 211.91 46.9838 211.532 46.9838ZM211.535 46.324C211.78 46.324 211.983 46.2591 212.144 46.1294C212.306 45.9997 212.425 45.8271 212.502 45.6115C212.581 45.3959 212.62 45.1584 212.62 44.899C212.62 44.6414 212.581 44.4048 212.502 44.1892C212.425 43.9718 212.306 43.7974 212.144 43.666C211.983 43.5345 211.78 43.4688 211.535 43.4688C211.287 43.4688 211.082 43.5345 210.919 43.666C210.758 43.7974 210.638 43.9718 210.559 44.1892C210.482 44.4048 210.443 44.6414 210.443 44.899C210.443 45.1584 210.482 45.3959 210.559 45.6115C210.638 45.8271 210.758 45.9997 210.919 46.1294C211.082 46.2591 211.287 46.324 211.535 46.324ZM215.985 48.5008C215.664 48.5008 215.388 48.4587 215.157 48.3746C214.927 48.2905 214.74 48.1792 214.594 48.0407C214.449 47.9023 214.34 47.7506 214.268 47.5859L214.944 47.3072C214.991 47.3843 215.054 47.4658 215.133 47.5517C215.214 47.6394 215.322 47.7138 215.459 47.7752C215.597 47.8365 215.775 47.8672 215.993 47.8672C216.291 47.8672 216.537 47.7945 216.731 47.649C216.926 47.5053 217.023 47.2757 217.023 46.9602V46.1662H216.973C216.926 46.2521 216.858 46.3476 216.768 46.4528C216.681 46.5579 216.56 46.6491 216.405 46.7262C216.251 46.8033 216.051 46.8419 215.803 46.8419C215.484 46.8419 215.197 46.7674 214.941 46.6184C214.687 46.4677 214.485 46.246 214.336 45.9533C214.189 45.6588 214.116 45.2969 214.116 44.8675C214.116 44.4381 214.188 44.07 214.334 43.7633C214.481 43.4565 214.683 43.2217 214.938 43.0587C215.194 42.8939 215.484 42.8116 215.809 42.8116C216.059 42.8116 216.262 42.8536 216.416 42.9377C216.57 43.0201 216.69 43.1165 216.776 43.2269C216.864 43.3374 216.931 43.4346 216.979 43.5188H217.036V42.8641H217.807V46.9917C217.807 47.3388 217.726 47.6236 217.565 47.8462C217.404 48.0688 217.185 48.2335 216.91 48.3404C216.637 48.4473 216.328 48.5008 215.985 48.5008ZM215.977 46.1899C216.203 46.1899 216.394 46.1373 216.55 46.0321C216.708 45.9252 216.827 45.7727 216.908 45.5747C216.99 45.3749 217.031 45.1356 217.031 44.8569C217.031 44.5853 216.991 44.346 216.91 44.1392C216.83 43.9324 216.711 43.7712 216.555 43.6555C216.399 43.538 216.207 43.4793 215.977 43.4793C215.74 43.4793 215.543 43.5407 215.385 43.6634C215.228 43.7843 215.108 43.9491 215.028 44.1576C214.949 44.3662 214.91 44.5993 214.91 44.8569C214.91 45.1216 214.95 45.3538 215.03 45.5536C215.111 45.7535 215.23 45.9094 215.388 46.0216C215.548 46.1338 215.744 46.1899 215.977 46.1899Z" fill="#EDEEF0"/>
<path d="M252.525 46.976C252.164 46.976 251.845 46.912 251.568 46.784C251.293 46.6543 251.078 46.4764 250.924 46.2503C250.77 46.0225 250.694 45.7631 250.695 45.4721C250.694 45.2443 250.738 45.034 250.829 44.8412C250.921 44.6466 251.045 44.4845 251.203 44.3548C251.362 44.2233 251.54 44.1401 251.736 44.105V44.0735C251.479 44.0069 251.274 43.8623 251.121 43.6397C250.969 43.4154 250.893 43.1603 250.895 42.8746C250.893 42.6012 250.963 42.3567 251.103 42.1411C251.243 41.9256 251.436 41.7556 251.681 41.6311C251.928 41.5067 252.21 41.4444 252.525 41.4444C252.837 41.4444 253.116 41.5067 253.361 41.6311C253.607 41.7556 253.799 41.9256 253.94 42.1411C254.082 42.3567 254.153 42.6012 254.155 42.8746C254.153 43.1603 254.075 43.4154 253.921 43.6397C253.769 43.8623 253.566 44.0069 253.314 44.0735V44.105C253.508 44.1401 253.684 44.2233 253.84 44.3548C253.996 44.4845 254.12 44.6466 254.213 44.8412C254.306 45.034 254.353 45.2443 254.355 45.4721C254.353 45.7631 254.274 46.0225 254.118 46.2503C253.964 46.4764 253.749 46.6543 253.474 46.784C253.201 46.912 252.884 46.976 252.525 46.976ZM252.525 46.3976C252.769 46.3976 252.979 46.3581 253.156 46.2793C253.333 46.2004 253.47 46.0891 253.566 45.9454C253.663 45.8017 253.712 45.6334 253.713 45.4406C253.712 45.2373 253.659 45.0576 253.556 44.9016C253.452 44.7457 253.311 44.623 253.132 44.5336C252.955 44.4442 252.753 44.3995 252.525 44.3995C252.296 44.3995 252.09 44.4442 251.91 44.5336C251.731 44.623 251.59 44.7457 251.487 44.9016C251.385 45.0576 251.335 45.2373 251.337 45.4406C251.335 45.6334 251.381 45.8017 251.476 45.9454C251.573 46.0891 251.71 46.2004 251.889 46.2793C252.068 46.3581 252.28 46.3976 252.525 46.3976ZM252.525 43.8421C252.718 43.8421 252.889 43.8036 253.038 43.7265C253.189 43.6493 253.307 43.5415 253.393 43.4031C253.479 43.2646 253.522 43.1025 253.524 42.9167C253.522 42.7344 253.479 42.5758 253.395 42.4409C253.311 42.3041 253.195 42.199 253.046 42.1254C252.897 42.05 252.723 42.0123 252.525 42.0123C252.324 42.0123 252.147 42.05 251.997 42.1254C251.846 42.199 251.729 42.3041 251.647 42.4409C251.565 42.5758 251.524 42.7344 251.526 42.9167C251.524 43.1025 251.566 43.2646 251.65 43.4031C251.736 43.5415 251.854 43.6493 252.005 43.7265C252.155 43.8036 252.329 43.8421 252.525 43.8421ZM258.107 45.8928V45.6089C258.107 45.4126 258.148 45.2329 258.228 45.0699C258.311 44.9051 258.43 44.7737 258.586 44.6755C258.743 44.5756 258.935 44.5257 259.159 44.5257C259.387 44.5257 259.578 44.5756 259.732 44.6755C259.886 44.7737 260.003 44.9051 260.082 45.0699C260.161 45.2329 260.2 45.4126 260.2 45.6089V45.8928C260.2 46.0891 260.16 46.2696 260.079 46.4344C260 46.5974 259.883 46.7288 259.727 46.8287C259.572 46.9269 259.383 46.976 259.159 46.976C258.931 46.976 258.739 46.9269 258.583 46.8287C258.427 46.7288 258.309 46.5974 258.228 46.4344C258.148 46.2696 258.107 46.0891 258.107 45.8928ZM258.644 45.6089V45.8928C258.644 46.0558 258.682 46.2021 258.759 46.3318C258.836 46.4598 258.97 46.5238 259.159 46.5238C259.343 46.5238 259.473 46.4598 259.548 46.3318C259.625 46.2021 259.664 46.0558 259.664 45.8928V45.6089C259.664 45.4459 259.627 45.3004 259.553 45.1724C259.48 45.0427 259.348 44.9779 259.159 44.9779C258.975 44.9779 258.842 45.0427 258.762 45.1724C258.683 45.3004 258.644 45.4459 258.644 45.6089ZM255.426 42.8116V42.5276C255.426 42.3313 255.466 42.1517 255.547 41.9887C255.629 41.8239 255.748 41.6925 255.904 41.5943C256.062 41.4944 256.253 41.4444 256.477 41.4444C256.705 41.4444 256.896 41.4944 257.05 41.5943C257.205 41.6925 257.321 41.8239 257.4 41.9887C257.479 42.1517 257.518 42.3313 257.518 42.5276V42.8116C257.518 43.0079 257.478 43.1884 257.397 43.3531C257.319 43.5161 257.201 43.6476 257.045 43.7475C256.891 43.8456 256.702 43.8947 256.477 43.8947C256.249 43.8947 256.057 43.8456 255.901 43.7475C255.745 43.6476 255.627 43.5161 255.547 43.3531C255.466 43.1884 255.426 43.0079 255.426 42.8116ZM255.962 42.5276V42.8116C255.962 42.9746 256 43.1209 256.078 43.2506C256.155 43.3785 256.288 43.4425 256.477 43.4425C256.661 43.4425 256.791 43.3785 256.866 43.2506C256.943 43.1209 256.982 42.9746 256.982 42.8116V42.5276C256.982 42.3646 256.945 42.2191 256.872 42.0912C256.798 41.9615 256.667 41.8966 256.477 41.8966C256.293 41.8966 256.161 41.9615 256.08 42.0912C256.001 42.2191 255.962 42.3646 255.962 42.5276ZM255.625 46.9023L259.327 41.5181H259.927L256.225 46.9023H255.625Z" fill="#EDEEF0"/>
<ellipse cx="181.633" cy="43.1951" rx="3.16659" ry="3.29274" fill="#43484E"/>
<path d="M193.606 84.6395C193.578 84.3906 193.463 84.1978 193.259 84.0611C193.056 83.9227 192.8 83.8534 192.492 83.8534C192.271 83.8534 192.08 83.8885 191.918 83.9586C191.757 84.027 191.632 84.1216 191.542 84.2425C191.455 84.3617 191.411 84.4975 191.411 84.65C191.411 84.778 191.441 84.8884 191.5 84.9813C191.562 85.0742 191.641 85.1522 191.74 85.2153C191.84 85.2766 191.946 85.3283 192.06 85.3704C192.174 85.4107 192.284 85.444 192.389 85.4703L192.915 85.607C193.087 85.6491 193.263 85.706 193.443 85.7779C193.624 85.8498 193.791 85.9444 193.945 86.0618C194.1 86.1793 194.224 86.3247 194.319 86.4983C194.415 86.6718 194.463 86.8795 194.463 87.1213C194.463 87.4263 194.384 87.6971 194.227 87.9337C194.071 88.1703 193.844 88.357 193.546 88.4937C193.25 88.6304 192.891 88.6988 192.471 88.6988C192.067 88.6988 191.719 88.6348 191.424 88.5068C191.13 88.3789 190.899 88.1975 190.733 87.9626C190.566 87.726 190.474 87.4456 190.457 87.1213H191.272C191.287 87.3159 191.351 87.478 191.461 87.6077C191.573 87.7357 191.716 87.8312 191.89 87.8943C192.065 87.9556 192.257 87.9863 192.465 87.9863C192.695 87.9863 192.899 87.9504 193.078 87.8785C193.258 87.8049 193.4 87.7032 193.504 87.5735C193.607 87.4421 193.659 87.2887 193.659 87.1134C193.659 86.954 193.613 86.8234 193.522 86.7217C193.433 86.6201 193.311 86.5359 193.157 86.4693C193.004 86.4027 192.832 86.344 192.639 86.2932L192.003 86.1197C191.571 86.0022 191.23 85.8296 190.977 85.6017C190.727 85.3739 190.601 85.0724 190.601 84.6974C190.601 84.3871 190.685 84.1163 190.854 83.885C191.022 83.6536 191.25 83.474 191.537 83.346C191.825 83.2163 192.149 83.1515 192.51 83.1515C192.875 83.1515 193.196 83.2155 193.475 83.3434C193.755 83.4713 193.976 83.6475 194.137 83.8718C194.299 84.0944 194.383 84.3503 194.39 84.6395H193.606ZM197.256 84.5712V85.2021H195.05V84.5712H197.256ZM195.642 83.6037H196.428V87.4237C196.428 87.5762 196.451 87.691 196.496 87.7681C196.542 87.8434 196.601 87.8952 196.672 87.9232C196.746 87.9495 196.826 87.9626 196.912 87.9626C196.975 87.9626 197.03 87.9582 197.077 87.9495C197.125 87.9407 197.161 87.9337 197.188 87.9285L197.33 88.5778C197.284 88.5954 197.219 88.6129 197.135 88.6304C197.051 88.6497 196.946 88.6602 196.82 88.662C196.613 88.6655 196.42 88.6287 196.241 88.5515C196.062 88.4744 195.918 88.3552 195.807 88.194C195.697 88.0327 195.642 87.8303 195.642 87.5867V83.6037ZM199.301 88.6988C199.045 88.6988 198.814 88.6514 198.607 88.5568C198.4 88.4604 198.236 88.3211 198.115 88.1388C197.996 87.9565 197.936 87.733 197.936 87.4684C197.936 87.2405 197.98 87.053 198.068 86.9058C198.155 86.7585 198.274 86.642 198.423 86.5561C198.572 86.4702 198.738 86.4054 198.922 86.3615C199.106 86.3177 199.294 86.2844 199.485 86.2616C199.727 86.2336 199.923 86.2108 200.074 86.1933C200.224 86.174 200.334 86.1433 200.402 86.1013C200.471 86.0592 200.505 85.9908 200.505 85.8962V85.8778C200.505 85.6482 200.44 85.4703 200.31 85.3441C200.182 85.2179 199.991 85.1548 199.737 85.1548C199.473 85.1548 199.264 85.2135 199.111 85.331C198.961 85.4466 198.856 85.5755 198.799 85.7174L198.06 85.5492C198.148 85.3038 198.275 85.1057 198.444 84.955C198.614 84.8025 198.809 84.6921 199.03 84.6237C199.251 84.5536 199.483 84.5186 199.727 84.5186C199.888 84.5186 200.059 84.5379 200.239 84.5764C200.422 84.6132 200.592 84.6816 200.749 84.7815C200.909 84.8814 201.039 85.0242 201.141 85.21C201.243 85.3941 201.294 85.6333 201.294 85.9277V88.6094H200.526V88.0573H200.494C200.444 88.1589 200.367 88.2588 200.266 88.357C200.164 88.4551 200.033 88.5366 199.874 88.6015C199.714 88.6663 199.523 88.6988 199.301 88.6988ZM199.472 88.0678C199.689 88.0678 199.875 88.0249 200.029 87.939C200.185 87.8531 200.303 87.7409 200.384 87.6025C200.466 87.4622 200.508 87.3124 200.508 87.1529V86.6323C200.479 86.6604 200.425 86.6867 200.345 86.7112C200.266 86.734 200.175 86.7541 200.074 86.7717C199.972 86.7874 199.873 86.8023 199.777 86.8164C199.68 86.8286 199.6 86.8392 199.535 86.8479C199.382 86.8672 199.243 86.8996 199.117 86.9452C198.992 86.9908 198.892 87.0565 198.817 87.1424C198.743 87.2265 198.707 87.3387 198.707 87.4789C198.707 87.6734 198.778 87.8207 198.922 87.9206C199.066 88.0187 199.249 88.0678 199.472 88.0678ZM202.341 88.6094V84.5712H203.1V85.2126H203.142C203.216 84.9953 203.346 84.8244 203.532 84.7C203.719 84.5738 203.931 84.5107 204.168 84.5107C204.217 84.5107 204.275 84.5124 204.341 84.516C204.41 84.5195 204.463 84.5238 204.502 84.5291V85.281C204.47 85.2722 204.414 85.2626 204.333 85.2521C204.253 85.2398 204.172 85.2337 204.092 85.2337C203.906 85.2337 203.74 85.2731 203.595 85.352C203.451 85.4291 203.337 85.5369 203.253 85.6754C203.169 85.8121 203.127 85.9681 203.127 86.1433V88.6094H202.341ZM207.306 84.5712V85.2021H205.1V84.5712H207.306ZM205.691 83.6037H206.477V87.4237C206.477 87.5762 206.5 87.691 206.546 87.7681C206.591 87.8434 206.65 87.8952 206.722 87.9232C206.796 87.9495 206.875 87.9626 206.961 87.9626C207.024 87.9626 207.079 87.9582 207.127 87.9495C207.174 87.9407 207.211 87.9337 207.237 87.9285L207.379 88.5778C207.334 88.5954 207.269 88.6129 207.185 88.6304C207.101 88.6497 206.995 88.6602 206.869 88.662C206.662 88.6655 206.47 88.6287 206.291 88.5515C206.112 88.4744 205.967 88.3552 205.857 88.194C205.747 88.0327 205.691 87.8303 205.691 87.5867V83.6037ZM209.872 88.6909C209.474 88.6909 209.132 88.6059 208.844 88.4359C208.559 88.2641 208.338 88.0231 208.182 87.7129C208.027 87.4009 207.95 87.0355 207.95 86.6166C207.95 86.2029 208.027 85.8384 208.182 85.5229C208.338 85.2074 208.555 84.9611 208.834 84.7841C209.114 84.6071 209.442 84.5186 209.817 84.5186C210.045 84.5186 210.266 84.5563 210.479 84.6316C210.693 84.707 210.885 84.8253 211.055 84.9866C211.225 85.1478 211.359 85.3572 211.457 85.6149C211.556 85.8708 211.605 86.1819 211.605 86.5482V86.8269H208.395V86.238H210.834C210.834 86.0312 210.792 85.848 210.708 85.6885C210.624 85.5273 210.506 85.4002 210.353 85.3073C210.203 85.2144 210.026 85.168 209.822 85.168C209.601 85.168 209.409 85.2223 209.244 85.331C209.081 85.4379 208.955 85.5781 208.865 85.7516C208.778 85.9234 208.734 86.11 208.734 86.3116V86.7717C208.734 87.0416 208.781 87.2712 208.876 87.4605C208.972 87.6498 209.106 87.7944 209.278 87.8943C209.45 87.9924 209.65 88.0415 209.88 88.0415C210.029 88.0415 210.165 88.0205 210.288 87.9784C210.41 87.9346 210.516 87.8697 210.606 87.7839C210.695 87.698 210.763 87.5919 210.811 87.4657L211.555 87.5998C211.495 87.8189 211.388 88.0108 211.234 88.1756C211.082 88.3386 210.89 88.4657 210.658 88.5568C210.429 88.6462 210.167 88.6909 209.872 88.6909ZM213.989 88.6882C213.663 88.6882 213.372 88.605 213.116 88.4385C212.862 88.2702 212.662 88.031 212.516 87.7208C212.373 87.4088 212.301 87.0346 212.301 86.5982C212.301 86.1617 212.373 85.7884 212.519 85.4782C212.666 85.168 212.868 84.9305 213.124 84.7657C213.38 84.601 213.67 84.5186 213.994 84.5186C214.244 84.5186 214.446 84.5606 214.599 84.6448C214.753 84.7272 214.872 84.8236 214.956 84.934C215.042 85.0444 215.109 85.1417 215.156 85.2258H215.203V83.2251H215.989V88.6094H215.222V87.981H215.156C215.109 88.0669 215.04 88.1651 214.951 88.2755C214.863 88.3859 214.742 88.4823 214.588 88.5647C214.434 88.6471 214.234 88.6882 213.989 88.6882ZM214.162 88.0178C214.388 88.0178 214.579 87.9582 214.735 87.8391C214.893 87.7181 215.012 87.5507 215.093 87.3369C215.175 87.1231 215.216 86.8742 215.216 86.5903C215.216 86.3098 215.176 86.0645 215.095 85.8541C215.015 85.6438 214.896 85.4799 214.741 85.3625C214.585 85.2451 214.392 85.1864 214.162 85.1864C213.926 85.1864 213.728 85.2477 213.571 85.3704C213.413 85.4931 213.294 85.6605 213.213 85.8725C213.134 86.0846 213.095 86.3239 213.095 86.5903C213.095 86.8602 213.135 87.1029 213.216 87.3185C213.296 87.5341 213.415 87.705 213.573 87.8312C213.733 87.9556 213.929 88.0178 214.162 88.0178Z" fill="#EDEEF0"/>
<path d="M251.33 88.6094V88.1361L253.107 86.1907C253.315 85.9628 253.487 85.7647 253.622 85.5965C253.757 85.4265 253.857 85.267 253.922 85.118C253.988 84.9673 254.022 84.8095 254.022 84.6448C254.022 84.4555 253.976 84.2916 253.885 84.1531C253.796 84.0147 253.673 83.9078 253.517 83.8324C253.361 83.757 253.186 83.7194 252.991 83.7194C252.784 83.7194 252.604 83.7623 252.45 83.8482C252.297 83.9323 252.179 84.0506 252.095 84.2031C252.012 84.3556 251.971 84.5344 251.971 84.7394H251.351C251.351 84.4239 251.423 84.147 251.569 83.9086C251.714 83.6703 251.912 83.4845 252.163 83.3513C252.415 83.2181 252.698 83.1515 253.012 83.1515C253.328 83.1515 253.607 83.2181 253.851 83.3513C254.094 83.4845 254.285 83.6641 254.424 83.8902C254.562 84.1163 254.632 84.3678 254.632 84.6448C254.632 84.8428 254.596 85.0365 254.524 85.2258C254.454 85.4133 254.331 85.6228 254.156 85.8541C253.982 86.0837 253.741 86.3642 253.433 86.6954L252.223 87.9889V88.031H254.726V88.6094H251.33ZM257.6 88.683C257.379 88.6795 257.158 88.6374 256.937 88.5568C256.716 88.4762 256.515 88.3403 256.333 88.1493C256.15 87.9565 256.004 87.6962 255.894 87.3685C255.783 87.039 255.728 86.6253 255.728 86.1276C255.728 85.6508 255.773 85.2284 255.862 84.8604C255.951 84.4905 256.081 84.1794 256.251 83.927C256.421 83.6729 256.626 83.4801 256.866 83.3487C257.108 83.2172 257.381 83.1515 257.684 83.1515C257.985 83.1515 258.254 83.2119 258.488 83.3329C258.725 83.4521 258.918 83.6186 259.067 83.8324C259.216 84.0462 259.312 84.2925 259.356 84.5712H258.715C258.655 84.3293 258.539 84.1286 258.368 83.9691C258.196 83.8096 257.968 83.7299 257.684 83.7299C257.267 83.7299 256.938 83.9113 256.698 84.2741C256.46 84.6369 256.34 85.146 256.338 85.8016H256.38C256.478 85.6526 256.595 85.5255 256.73 85.4203C256.866 85.3134 257.017 85.2311 257.182 85.1732C257.347 85.1154 257.521 85.0865 257.705 85.0865C258.013 85.0865 258.296 85.1636 258.552 85.3178C258.807 85.4703 259.013 85.6815 259.167 85.9514C259.321 86.2196 259.398 86.5272 259.398 86.8742C259.398 87.2072 259.324 87.5122 259.175 87.7891C259.026 88.0643 258.816 88.2834 258.546 88.4464C258.278 88.6076 257.963 88.6865 257.6 88.683ZM257.6 88.1046C257.821 88.1046 258.019 88.0494 258.194 87.939C258.371 87.8285 258.51 87.6804 258.612 87.4947C258.715 87.3089 258.767 87.1021 258.767 86.8742C258.767 86.6516 258.717 86.4492 258.617 86.2669C258.519 86.0829 258.383 85.9365 258.21 85.8278C258.038 85.7192 257.842 85.6648 257.621 85.6648C257.454 85.6648 257.299 85.6981 257.156 85.7647C257.012 85.8296 256.886 85.919 256.777 86.0329C256.67 86.1468 256.586 86.2774 256.525 86.4246C256.463 86.5701 256.433 86.7235 256.433 86.8847C256.433 87.0986 256.483 87.2984 256.582 87.4841C256.684 87.6699 256.823 87.8198 256.998 87.9337C257.175 88.0476 257.376 88.1046 257.6 88.1046ZM263.177 87.5998V87.3159C263.177 87.1196 263.217 86.9399 263.298 86.7769C263.38 86.6122 263.499 86.4807 263.655 86.3826C263.813 86.2827 264.004 86.2327 264.228 86.2327C264.456 86.2327 264.647 86.2827 264.801 86.3826C264.956 86.4807 265.072 86.6122 265.151 86.7769C265.23 86.9399 265.269 87.1196 265.269 87.3159V87.5998C265.269 87.7961 265.229 87.9767 265.148 88.1414C265.07 88.3044 264.952 88.4359 264.796 88.5358C264.642 88.6339 264.453 88.683 264.228 88.683C264 88.683 263.809 88.6339 263.653 88.5358C263.497 88.4359 263.378 88.3044 263.298 88.1414C263.217 87.9767 263.177 87.7961 263.177 87.5998ZM263.713 87.3159V87.5998C263.713 87.7628 263.752 87.9092 263.829 88.0389C263.906 88.1668 264.039 88.2308 264.228 88.2308C264.412 88.2308 264.542 88.1668 264.617 88.0389C264.695 87.9092 264.733 87.7628 264.733 87.5998V87.3159C264.733 87.1529 264.696 87.0074 264.623 86.8795C264.549 86.7498 264.418 86.6849 264.228 86.6849C264.044 86.6849 263.912 86.7498 263.831 86.8795C263.752 87.0074 263.713 87.1529 263.713 87.3159ZM260.495 84.5186V84.2346C260.495 84.0383 260.535 83.8587 260.616 83.6957C260.698 83.5309 260.818 83.3995 260.974 83.3013C261.131 83.2014 261.322 83.1515 261.547 83.1515C261.775 83.1515 261.966 83.2014 262.12 83.3013C262.274 83.3995 262.391 83.5309 262.469 83.6957C262.548 83.8587 262.588 84.0383 262.588 84.2346V84.5186C262.588 84.7149 262.547 84.8954 262.467 85.0602C262.388 85.2232 262.271 85.3546 262.115 85.4545C261.96 85.5527 261.771 85.6017 261.547 85.6017C261.319 85.6017 261.127 85.5527 260.971 85.4545C260.815 85.3546 260.697 85.2232 260.616 85.0602C260.535 84.8954 260.495 84.7149 260.495 84.5186ZM261.031 84.2346V84.5186C261.031 84.6816 261.07 84.8279 261.147 84.9576C261.224 85.0856 261.357 85.1496 261.547 85.1496C261.731 85.1496 261.86 85.0856 261.936 84.9576C262.013 84.8279 262.051 84.6816 262.051 84.5186V84.2346C262.051 84.0716 262.015 83.9262 261.941 83.7982C261.867 83.6685 261.736 83.6037 261.547 83.6037C261.363 83.6037 261.23 83.6685 261.15 83.7982C261.071 83.9262 261.031 84.0716 261.031 84.2346ZM260.695 88.6094L264.397 83.2251H264.996L261.294 88.6094H260.695Z" fill="#EDEEF0"/>
<ellipse cx="182.162" cy="84.9021" rx="3.16659" ry="3.29274" fill="#FFC53D"/>
<path d="M191.886 109.461H190.143V104.077H191.941C192.468 104.077 192.921 104.184 193.3 104.4C193.679 104.614 193.969 104.921 194.17 105.323C194.374 105.722 194.475 106.202 194.475 106.761C194.475 107.322 194.373 107.804 194.168 108.207C193.964 108.61 193.67 108.92 193.284 109.138C192.899 109.353 192.432 109.461 191.886 109.461ZM190.955 108.751H191.841C192.251 108.751 192.592 108.674 192.864 108.52C193.135 108.364 193.339 108.139 193.474 107.844C193.609 107.548 193.676 107.187 193.676 106.761C193.676 106.339 193.609 105.98 193.474 105.686C193.34 105.391 193.141 105.168 192.877 105.015C192.612 104.863 192.283 104.786 191.891 104.786H190.955V108.751ZM197.123 109.542C196.745 109.542 196.414 109.456 196.132 109.282C195.85 109.109 195.631 108.866 195.475 108.554C195.319 108.242 195.241 107.877 195.241 107.46C195.241 107.041 195.319 106.675 195.475 106.361C195.631 106.048 195.85 105.804 196.132 105.63C196.414 105.457 196.745 105.37 197.123 105.37C197.502 105.37 197.832 105.457 198.114 105.63C198.397 105.804 198.616 106.048 198.772 106.361C198.928 106.675 199.006 107.041 199.006 107.46C199.006 107.877 198.928 108.242 198.772 108.554C198.616 108.866 198.397 109.109 198.114 109.282C197.832 109.456 197.502 109.542 197.123 109.542ZM197.126 108.883C197.371 108.883 197.575 108.818 197.736 108.688C197.897 108.558 198.016 108.386 198.093 108.17C198.172 107.954 198.212 107.717 198.212 107.458C198.212 107.2 198.172 106.963 198.093 106.748C198.016 106.53 197.897 106.356 197.736 106.225C197.575 106.093 197.371 106.027 197.126 106.027C196.879 106.027 196.674 106.093 196.511 106.225C196.35 106.356 196.229 106.53 196.151 106.748C196.073 106.963 196.035 107.2 196.035 107.458C196.035 107.717 196.073 107.954 196.151 108.17C196.229 108.386 196.35 108.558 196.511 108.688C196.674 108.818 196.879 108.883 197.126 108.883ZM200.669 107.063V109.461H199.883V105.423H200.638V106.08H200.688C200.781 105.866 200.926 105.694 201.124 105.565C201.324 105.435 201.575 105.37 201.879 105.37C202.154 105.37 202.395 105.428 202.602 105.544C202.808 105.658 202.969 105.828 203.083 106.054C203.197 106.28 203.254 106.559 203.254 106.892V109.461H202.468V106.987C202.468 106.694 202.391 106.466 202.239 106.301C202.086 106.134 201.877 106.051 201.61 106.051C201.428 106.051 201.266 106.091 201.124 106.169C200.984 106.248 200.873 106.364 200.79 106.516C200.71 106.667 200.669 106.849 200.669 107.063ZM206.048 109.542C205.65 109.542 205.308 109.457 205.02 109.287C204.735 109.116 204.514 108.875 204.358 108.564C204.204 108.252 204.126 107.887 204.126 107.468C204.126 107.054 204.204 106.69 204.358 106.374C204.514 106.059 204.731 105.813 205.01 105.636C205.29 105.459 205.618 105.37 205.993 105.37C206.221 105.37 206.442 105.408 206.656 105.483C206.869 105.559 207.061 105.677 207.231 105.838C207.401 105.999 207.535 106.209 207.634 106.466C207.732 106.722 207.781 107.033 207.781 107.4V107.678H204.571V107.09H207.011C207.011 106.883 206.968 106.7 206.884 106.54C206.8 106.379 206.682 106.252 206.529 106.159C206.379 106.066 206.202 106.02 205.998 106.02C205.777 106.02 205.585 106.074 205.42 106.183C205.257 106.289 205.131 106.43 205.041 106.603C204.954 106.775 204.91 106.962 204.91 107.163V107.623C204.91 107.893 204.957 108.123 205.052 108.312C205.148 108.501 205.282 108.646 205.454 108.746C205.626 108.844 205.827 108.893 206.056 108.893C206.205 108.893 206.341 108.872 206.464 108.83C206.586 108.786 206.692 108.721 206.782 108.635C206.871 108.55 206.94 108.443 206.987 108.317L207.731 108.451C207.671 108.67 207.564 108.862 207.41 109.027C207.258 109.19 207.066 109.317 206.834 109.408C206.605 109.498 206.343 109.542 206.048 109.542Z" fill="#EDEEF0"/>
<path d="M250.801 109.461V108.988L252.578 107.042C252.786 106.814 252.958 106.616 253.093 106.448C253.228 106.278 253.328 106.119 253.393 105.97C253.459 105.819 253.493 105.661 253.493 105.496C253.493 105.307 253.447 105.143 253.356 105.005C253.267 104.866 253.144 104.759 252.988 104.684C252.832 104.609 252.657 104.571 252.462 104.571C252.255 104.571 252.075 104.614 251.921 104.7C251.768 104.784 251.65 104.902 251.566 105.055C251.483 105.207 251.442 105.386 251.442 105.591H250.822C250.822 105.275 250.894 104.999 251.04 104.76C251.185 104.522 251.383 104.336 251.634 104.203C251.886 104.07 252.169 104.003 252.483 104.003C252.799 104.003 253.078 104.07 253.322 104.203C253.565 104.336 253.757 104.516 253.895 104.742C254.033 104.968 254.103 105.219 254.103 105.496C254.103 105.694 254.067 105.888 253.995 106.077C253.925 106.265 253.802 106.474 253.627 106.706C253.453 106.935 253.212 107.216 252.904 107.547L251.694 108.84V108.883H254.197V109.461H250.801ZM255.041 108.357V107.82L257.407 104.077H257.797V104.907H257.534L255.746 107.736V107.778H258.932V108.357H255.041ZM257.576 109.461V108.194V107.944V104.077H258.196V109.461H257.576ZM262.662 108.451V108.167C262.662 107.971 262.703 107.791 262.783 107.628C262.866 107.464 262.985 107.332 263.141 107.234C263.298 107.134 263.489 107.084 263.714 107.084C263.942 107.084 264.133 107.134 264.287 107.234C264.441 107.332 264.558 107.464 264.637 107.628C264.715 107.791 264.755 107.971 264.755 108.167V108.451C264.755 108.648 264.715 108.828 264.634 108.993C264.555 109.156 264.438 109.287 264.282 109.387C264.127 109.485 263.938 109.535 263.714 109.535C263.486 109.535 263.294 109.485 263.138 109.387C262.982 109.287 262.864 109.156 262.783 108.993C262.703 108.828 262.662 108.648 262.662 108.451ZM263.199 108.167V108.451C263.199 108.614 263.237 108.761 263.314 108.89C263.391 109.018 263.525 109.082 263.714 109.082C263.898 109.082 264.028 109.018 264.103 108.89C264.18 108.761 264.219 108.614 264.219 108.451V108.167C264.219 108.004 264.182 107.859 264.108 107.731C264.035 107.601 263.903 107.536 263.714 107.536C263.53 107.536 263.397 107.601 263.317 107.731C263.238 107.859 263.199 108.004 263.199 108.167ZM259.981 105.37V105.086C259.981 104.89 260.021 104.71 260.102 104.547C260.184 104.382 260.303 104.251 260.459 104.153C260.617 104.053 260.808 104.003 261.032 104.003C261.26 104.003 261.451 104.053 261.605 104.153C261.76 104.251 261.876 104.382 261.955 104.547C262.034 104.71 262.073 104.89 262.073 105.086V105.37C262.073 105.566 262.033 105.747 261.952 105.912C261.873 106.075 261.756 106.206 261.6 106.306C261.446 106.404 261.257 106.453 261.032 106.453C260.804 106.453 260.612 106.404 260.456 106.306C260.3 106.206 260.182 106.075 260.102 105.912C260.021 105.747 259.981 105.566 259.981 105.37ZM260.517 105.086V105.37C260.517 105.533 260.555 105.679 260.633 105.809C260.71 105.937 260.843 106.001 261.032 106.001C261.216 106.001 261.346 105.937 261.421 105.809C261.498 105.679 261.537 105.533 261.537 105.37V105.086C261.537 104.923 261.5 104.778 261.427 104.65C261.353 104.52 261.221 104.455 261.032 104.455C260.848 104.455 260.716 104.52 260.635 104.65C260.556 104.778 260.517 104.923 260.517 105.086ZM260.18 109.461L263.882 104.077H264.482L260.78 109.461H260.18Z" fill="#EDEEF0"/>
<ellipse cx="182.162" cy="105.754" rx="3.16659" ry="3.29274" fill="#3E9B4F"/>
<ellipse cx="182.162" cy="127.16" rx="3.16659" ry="3.29274" fill="#E5484D"/>
<path d="M195.14 126.519H194.32C194.288 126.344 194.229 126.189 194.143 126.056C194.057 125.923 193.952 125.81 193.828 125.717C193.703 125.624 193.564 125.554 193.41 125.507C193.257 125.459 193.095 125.436 192.923 125.436C192.613 125.436 192.335 125.514 192.09 125.67C191.846 125.826 191.654 126.055 191.512 126.356C191.371 126.657 191.301 127.026 191.301 127.46C191.301 127.898 191.371 128.268 191.512 128.57C191.654 128.871 191.847 129.099 192.093 129.253C192.338 129.407 192.614 129.485 192.921 129.485C193.091 129.485 193.252 129.462 193.405 129.416C193.559 129.369 193.698 129.3 193.823 129.209C193.947 129.117 194.052 129.006 194.138 128.875C194.226 128.741 194.286 128.589 194.32 128.417L195.14 128.42C195.096 128.684 195.011 128.928 194.885 129.151C194.76 129.372 194.6 129.563 194.404 129.724C194.209 129.883 193.986 130.007 193.736 130.095C193.485 130.182 193.212 130.226 192.916 130.226C192.449 130.226 192.034 130.116 191.669 129.895C191.305 129.672 191.017 129.354 190.807 128.94C190.599 128.527 190.494 128.033 190.494 127.46C190.494 126.885 190.599 126.392 190.81 125.98C191.02 125.566 191.308 125.249 191.672 125.028C192.037 124.806 192.451 124.694 192.916 124.694C193.201 124.694 193.468 124.736 193.715 124.818C193.964 124.899 194.187 125.018 194.385 125.176C194.583 125.332 194.747 125.523 194.877 125.749C195.007 125.973 195.094 126.23 195.14 126.519ZM197.224 130.242C196.968 130.242 196.737 130.194 196.53 130.1C196.323 130.003 196.159 129.864 196.038 129.682C195.919 129.499 195.859 129.276 195.859 129.011C195.859 128.783 195.903 128.596 195.991 128.449C196.079 128.301 196.197 128.185 196.346 128.099C196.495 128.013 196.661 127.948 196.845 127.905C197.029 127.861 197.217 127.827 197.408 127.805C197.65 127.777 197.846 127.754 197.997 127.736C198.148 127.717 198.257 127.686 198.326 127.644C198.394 127.602 198.428 127.534 198.428 127.439V127.421C198.428 127.191 198.363 127.013 198.234 126.887C198.106 126.761 197.915 126.698 197.66 126.698C197.396 126.698 197.187 126.756 197.035 126.874C196.884 126.99 196.78 127.118 196.722 127.26L195.983 127.092C196.071 126.847 196.199 126.649 196.367 126.498C196.537 126.345 196.732 126.235 196.953 126.167C197.174 126.097 197.406 126.062 197.65 126.062C197.811 126.062 197.982 126.081 198.163 126.119C198.345 126.156 198.515 126.225 198.673 126.324C198.832 126.424 198.963 126.567 199.064 126.753C199.166 126.937 199.217 127.176 199.217 127.471V130.152H198.449V129.6H198.418C198.367 129.702 198.29 129.802 198.189 129.9C198.087 129.998 197.957 130.08 197.797 130.144C197.638 130.209 197.447 130.242 197.224 130.242ZM197.395 129.611C197.612 129.611 197.798 129.568 197.952 129.482C198.108 129.396 198.226 129.284 198.307 129.145C198.389 129.005 198.431 128.855 198.431 128.696V128.175C198.403 128.203 198.348 128.23 198.268 128.254C198.189 128.277 198.099 128.297 197.997 128.315C197.895 128.33 197.796 128.345 197.7 128.359C197.603 128.372 197.523 128.382 197.458 128.391C197.305 128.41 197.166 128.443 197.04 128.488C196.915 128.534 196.816 128.599 196.74 128.685C196.667 128.769 196.63 128.882 196.63 129.022C196.63 129.216 196.702 129.364 196.845 129.464C196.989 129.562 197.172 129.611 197.395 129.611ZM201.05 127.755V130.152H200.264V126.114H201.018V126.771H201.068C201.161 126.558 201.307 126.386 201.505 126.256C201.704 126.126 201.956 126.062 202.259 126.062C202.534 126.062 202.775 126.119 202.982 126.235C203.189 126.349 203.349 126.519 203.463 126.745C203.577 126.971 203.634 127.251 203.634 127.584V130.152H202.848V127.678C202.848 127.386 202.772 127.157 202.619 126.992C202.467 126.826 202.257 126.742 201.991 126.742C201.809 126.742 201.647 126.782 201.505 126.861C201.364 126.94 201.253 127.055 201.171 127.208C201.09 127.359 201.05 127.541 201.05 127.755ZM206.389 130.234C205.999 130.234 205.662 130.145 205.38 129.968C205.099 129.79 204.884 129.543 204.733 129.23C204.582 128.916 204.507 128.557 204.507 128.152C204.507 127.742 204.584 127.38 204.738 127.066C204.893 126.75 205.11 126.504 205.39 126.327C205.671 126.15 206.001 126.062 206.382 126.062C206.688 126.062 206.962 126.119 207.202 126.232C207.442 126.345 207.636 126.502 207.783 126.706C207.932 126.909 208.02 127.146 208.048 127.418H207.283C207.241 127.229 207.145 127.066 206.994 126.929C206.845 126.792 206.645 126.724 206.395 126.724C206.176 126.724 205.984 126.782 205.819 126.898C205.656 127.012 205.529 127.175 205.438 127.387C205.347 127.597 205.301 127.846 205.301 128.133C205.301 128.428 205.346 128.682 205.435 128.896C205.524 129.109 205.651 129.275 205.814 129.393C205.978 129.51 206.172 129.569 206.395 129.569C206.544 129.569 206.679 129.542 206.8 129.487C206.922 129.431 207.025 129.351 207.107 129.248C207.191 129.145 207.25 129.02 207.283 128.875H208.048C208.02 129.136 207.935 129.369 207.793 129.574C207.651 129.779 207.461 129.94 207.223 130.058C206.986 130.175 206.708 130.234 206.389 130.234ZM210.629 130.234C210.232 130.234 209.889 130.149 209.601 129.979C209.316 129.807 209.095 129.566 208.939 129.256C208.785 128.944 208.708 128.578 208.708 128.16C208.708 127.746 208.785 127.381 208.939 127.066C209.095 126.75 209.312 126.504 209.591 126.327C209.871 126.15 210.199 126.062 210.574 126.062C210.802 126.062 211.023 126.099 211.237 126.175C211.451 126.25 211.643 126.368 211.813 126.53C211.983 126.691 212.117 126.9 212.215 127.158C212.313 127.414 212.362 127.725 212.362 128.091V128.37H209.152V127.781H211.592C211.592 127.574 211.55 127.391 211.465 127.231C211.381 127.07 211.263 126.943 211.111 126.85C210.96 126.757 210.783 126.711 210.579 126.711C210.359 126.711 210.166 126.765 210.001 126.874C209.838 126.981 209.712 127.121 209.623 127.295C209.535 127.466 209.491 127.653 209.491 127.855V128.315C209.491 128.585 209.538 128.814 209.633 129.003C209.729 129.193 209.864 129.337 210.035 129.437C210.207 129.535 210.408 129.584 210.637 129.584C210.786 129.584 210.922 129.563 211.045 129.521C211.168 129.478 211.274 129.413 211.363 129.327C211.452 129.241 211.521 129.135 211.568 129.009L212.312 129.143C212.252 129.362 212.146 129.554 211.991 129.719C211.839 129.882 211.647 130.009 211.416 130.1C211.186 130.189 210.924 130.234 210.629 130.234ZM214.02 124.768V130.152H213.234V124.768H214.02ZM215.864 124.768V130.152H215.078V124.768H215.864ZM218.662 130.234C218.264 130.234 217.921 130.149 217.634 129.979C217.348 129.807 217.127 129.566 216.971 129.256C216.817 128.944 216.74 128.578 216.74 128.16C216.74 127.746 216.817 127.381 216.971 127.066C217.127 126.75 217.345 126.504 217.623 126.327C217.904 126.15 218.232 126.062 218.607 126.062C218.834 126.062 219.055 126.099 219.269 126.175C219.483 126.25 219.675 126.368 219.845 126.53C220.015 126.691 220.149 126.9 220.247 127.158C220.345 127.414 220.394 127.725 220.394 128.091V128.37H217.184V127.781H219.624C219.624 127.574 219.582 127.391 219.498 127.231C219.414 127.07 219.295 126.943 219.143 126.85C218.992 126.757 218.815 126.711 218.612 126.711C218.391 126.711 218.198 126.765 218.033 126.874C217.87 126.981 217.744 127.121 217.655 127.295C217.567 127.466 217.523 127.653 217.523 127.855V128.315C217.523 128.585 217.571 128.814 217.665 129.003C217.762 129.193 217.896 129.337 218.068 129.437C218.239 129.535 218.44 129.584 218.67 129.584C218.819 129.584 218.955 129.563 219.077 129.521C219.2 129.478 219.306 129.413 219.395 129.327C219.485 129.241 219.553 129.135 219.6 129.009L220.344 129.143C220.285 129.362 220.178 129.554 220.024 129.719C219.871 129.882 219.679 130.009 219.448 130.1C219.218 130.189 218.956 130.234 218.662 130.234ZM222.778 130.231C222.452 130.231 222.161 130.148 221.905 129.981C221.651 129.813 221.451 129.574 221.306 129.264C221.162 128.952 221.09 128.578 221.09 128.141C221.09 127.705 221.163 127.331 221.309 127.021C221.456 126.711 221.657 126.473 221.913 126.309C222.169 126.144 222.459 126.062 222.784 126.062C223.034 126.062 223.236 126.104 223.388 126.188C223.542 126.27 223.662 126.367 223.746 126.477C223.832 126.587 223.898 126.685 223.946 126.769H223.993V124.768H224.779V130.152H224.011V129.524H223.946C223.898 129.61 223.83 129.708 223.74 129.818C223.653 129.929 223.532 130.025 223.378 130.108C223.223 130.19 223.024 130.231 222.778 130.231ZM222.952 129.561C223.178 129.561 223.369 129.501 223.525 129.382C223.683 129.261 223.802 129.094 223.882 128.88C223.965 128.666 224.006 128.417 224.006 128.133C224.006 127.853 223.966 127.607 223.885 127.397C223.804 127.187 223.686 127.023 223.53 126.905C223.374 126.788 223.181 126.729 222.952 126.729C222.715 126.729 222.518 126.791 222.36 126.913C222.203 127.036 222.083 127.203 222.003 127.416C221.924 127.628 221.884 127.867 221.884 128.133C221.884 128.403 221.925 128.646 222.005 128.861C222.086 129.077 222.205 129.248 222.363 129.374C222.522 129.499 222.719 129.561 222.952 129.561Z" fill="#EDEEF0"/>
<path d="M252.693 125.483V130.867H252.041V126.166H252.01L250.695 127.039V126.377L252.041 125.483H252.693ZM256.135 125.483V130.867H255.483V126.166H255.451L254.137 127.039V126.377L255.483 125.483H256.135ZM260.428 129.858V129.574C260.428 129.377 260.468 129.198 260.549 129.035C260.631 128.87 260.75 128.739 260.906 128.64C261.064 128.54 261.255 128.491 261.48 128.491C261.707 128.491 261.899 128.54 262.053 128.64C262.207 128.739 262.324 128.87 262.402 129.035C262.481 129.198 262.521 129.377 262.521 129.574V129.858C262.521 130.054 262.48 130.234 262.4 130.399C262.321 130.562 262.203 130.694 262.047 130.794C261.893 130.892 261.704 130.941 261.48 130.941C261.252 130.941 261.06 130.892 260.904 130.794C260.748 130.694 260.63 130.562 260.549 130.399C260.468 130.234 260.428 130.054 260.428 129.858ZM260.964 129.574V129.858C260.964 130.021 261.003 130.167 261.08 130.297C261.157 130.425 261.29 130.489 261.48 130.489C261.664 130.489 261.793 130.425 261.869 130.297C261.946 130.167 261.984 130.021 261.984 129.858V129.574C261.984 129.411 261.948 129.265 261.874 129.137C261.8 129.008 261.669 128.943 261.48 128.943C261.296 128.943 261.163 129.008 261.083 129.137C261.004 129.265 260.964 129.411 260.964 129.574ZM257.746 126.776V126.492C257.746 126.296 257.787 126.117 257.867 125.954C257.95 125.789 258.069 125.657 258.225 125.559C258.383 125.459 258.574 125.409 258.798 125.409C259.026 125.409 259.217 125.459 259.371 125.559C259.525 125.657 259.642 125.789 259.721 125.954C259.8 126.117 259.839 126.296 259.839 126.492V126.776C259.839 126.973 259.799 127.153 259.718 127.318C259.639 127.481 259.522 127.612 259.366 127.712C259.212 127.81 259.022 127.86 258.798 127.86C258.57 127.86 258.378 127.81 258.222 127.712C258.066 127.612 257.948 127.481 257.867 127.318C257.787 127.153 257.746 126.973 257.746 126.776ZM258.283 126.492V126.776C258.283 126.939 258.321 127.086 258.398 127.215C258.475 127.343 258.609 127.407 258.798 127.407C258.982 127.407 259.112 127.343 259.187 127.215C259.264 127.086 259.303 126.939 259.303 126.776V126.492C259.303 126.329 259.266 126.184 259.192 126.056C259.119 125.926 258.987 125.861 258.798 125.861C258.614 125.861 258.482 125.926 258.401 126.056C258.322 126.184 258.283 126.329 258.283 126.492ZM257.946 130.867L261.648 125.483H262.247L258.546 130.867H257.946Z" fill="#EDEEF0"/>
</g>
</g>
</g>
<defs>
<filter id="filter0_bd_5770_111685" x="-41.8442" y="-41.8442" width="377.688" height="252.688" filterUnits="userSpaceOnUse" color-interpolation-filters="sRGB">
<feFlood flood-opacity="0" result="BackgroundImageFix"/>
<feGaussianBlur in="BackgroundImageFix" stdDeviation="17.9221"/>
<feComposite in2="SourceAlpha" operator="in" result="effect1_backgroundBlur_5770_111685"/>
<feColorMatrix in="SourceAlpha" type="matrix" values="0 0 0 0 0 0 0 0 0 0 0 0 0 0 0 0 0 0 127 0" result="hardAlpha"/>
<feMorphology radius="23.8961" operator="erode" in="SourceAlpha" result="effect2_dropShadow_5770_111685"/>
<feOffset dy="12"/>
<feGaussianBlur stdDeviation="21.5065"/>
<feComposite in2="hardAlpha" operator="out"/>
<feColorMatrix type="matrix" values="0 0 0 0 0.153705 0 0 0 0 0.17665 0 0 0 0 0.350374 0 0 0 0.05 0"/>
<feBlend mode="normal" in2="effect1_backgroundBlur_5770_111685" result="effect2_dropShadow_5770_111685"/>
<feBlend mode="normal" in="SourceGraphic" in2="effect2_dropShadow_5770_111685" result="shape"/>
</filter>
<linearGradient id="paint0_linear_5770_111685" x1="32.0166" y1="63.997" x2="74.7935" y2="33.132" gradientUnits="userSpaceOnUse">
<stop stop-color="#FF898B"/>
<stop offset="1" stop-color="#CE0004"/>
</linearGradient>
<linearGradient id="paint1_linear_5770_111685" x1="127.97" y1="83.7547" x2="82.2139" y2="47.503" gradientUnits="userSpaceOnUse">
<stop stop-color="#00920F"/>
<stop offset="1" stop-color="#35C543"/>
</linearGradient>
<linearGradient id="paint2_linear_5770_111685" x1="75.4048" y1="133" x2="118.943" y2="89.5383" gradientUnits="userSpaceOnUse">
<stop stop-color="#FEE466"/>
<stop offset="1" stop-color="#FFC700"/>
</linearGradient>
<linearGradient id="paint3_linear_5770_111685" x1="37.8177" y1="68.2244" x2="29.9148" y2="93.0032" gradientUnits="userSpaceOnUse">
<stop stop-color="#A4A4A4"/>
<stop offset="1" stop-color="#DFDFDF"/>
</linearGradient>
<linearGradient id="paint4_linear_5770_111685" x1="32.9048" y1="95.5" x2="75.9619" y2="133.1" gradientUnits="userSpaceOnUse">
<stop stop-color="#878796"/>
<stop offset="1" stop-color="#CCCCD9"/>
</linearGradient>
<clipPath id="clip0_5770_111685">
<rect width="293" height="168" rx="4" fill="white"/>
</clipPath>
<clipPath id="clip1_5770_111685">
<path d="M-0.5 3.5C-0.5 1.29086 1.29086 -0.5 3.5 -0.5H290.5C292.709 -0.5 294.5 1.29086 294.5 3.5V165.5C294.5 167.709 292.709 169.5 290.5 169.5H3.50001C1.29087 169.5 -0.5 167.709 -0.5 165.5V3.5Z" fill="white"/>
</clipPath>
</defs>
</svg>
