<svg width="94" height="94" viewBox="0 0 94 94" fill="none" xmlns="http://www.w3.org/2000/svg">
<circle cx="46.7188" cy="46.7188" r="46.7188" fill="#171717"/>
<path d="M69.625 35.4362V31.7487C69.625 30.4447 69.107 29.1941 68.1849 28.2721C67.2629 27.35 66.0123 26.832 64.7083 26.832H30.2917C28.9877 26.832 27.7371 27.35 26.8151 28.2721C25.893 29.1941 25.375 30.4447 25.375 31.7487V66.1654C25.375 67.4693 25.893 68.7199 26.8151 69.642C27.7371 70.564 28.9877 71.082 30.2917 71.082H38.8958" stroke="#4C4C4F" stroke-width="5" stroke-linecap="round" stroke-linejoin="round"/>
<path d="M57.332 21.918V31.7513" stroke="#696B74" stroke-width="5" stroke-linecap="round" stroke-linejoin="round"/>
<path d="M37.668 21.918V31.7513" stroke="#696B74" stroke-width="5" stroke-linecap="round" stroke-linejoin="round"/>
<path d="M25.375 41.582H37.6667" stroke="#4C4C4F" stroke-width="5" stroke-linecap="round" stroke-linejoin="round"/>
<path d="M61.0195 60.0221L57.332 57.0721V51.418" stroke="#696B74" stroke-width="3" stroke-linecap="round" stroke-linejoin="round"/>
<path d="M57.332 71.082C65.4782 71.082 72.082 64.4782 72.082 56.332C72.082 48.1858 65.4782 41.582 57.332 41.582C49.1858 41.582 42.582 48.1858 42.582 56.332C42.582 64.4782 49.1858 71.082 57.332 71.082Z" stroke="#696B74" stroke-width="4" stroke-linecap="round" stroke-linejoin="round"/>
</svg>
