<svg width="98" height="98" viewBox="0 0 98 98" fill="none" xmlns="http://www.w3.org/2000/svg">
<circle cx="49" cy="49" r="49" fill="#171717"/>
<path d="M24.5 50C24.5 55.0434 25.9955 59.9736 28.7975 64.167C31.5995 68.3605 35.5821 71.6289 40.2416 73.5589C44.9011 75.489 50.0283 75.9939 54.9748 75.01C59.9213 74.0261 64.465 71.5975 68.0312 68.0312C71.5975 64.465 74.0261 59.9213 75.01 54.9748C75.9939 50.0283 75.489 44.9011 73.5589 40.2416C71.6289 35.5821 68.3605 31.5995 64.167 28.7975C59.9736 25.9955 55.0434 24.5 50 24.5C42.8712 24.5268 36.0287 27.3085 30.9033 32.2633L24.5 38.6667" stroke="#4C4C4F" stroke-width="6" stroke-linecap="round" stroke-linejoin="round"/>
<path d="M24.5 24.5V38.6667H38.6667" stroke="#4C4C4F" stroke-width="6" stroke-linecap="round" stroke-linejoin="round"/>
<path d="M50 35.832V49.9987L61.3333 55.6654" stroke="#5D5D63" stroke-width="6" stroke-linecap="round" stroke-linejoin="round"/>
</svg>
