<svg width="333" height="208" viewBox="0 0 333 208" fill="none" xmlns="http://www.w3.org/2000/svg">
<g filter="url(#filter0_bd_5758_104461)">
<g clip-path="url(#clip0_5758_104461)">
<g clip-path="url(#clip1_5758_104461)">
<path d="M19.6322 9.11525C19.6322 8.02004 20.52 7.1322 21.6153 7.1322H311.385C312.48 7.1322 313.368 8.02004 313.368 9.11525V174.885C313.368 175.98 312.48 176.868 311.385 176.868H21.6153C20.52 176.868 19.6322 175.98 19.6322 174.885V9.11525Z" fill="white" stroke="#D9D9E0" stroke-width="0.264407"/>
<path d="M71.4093 54.5216V59.1367H70.4335V55.4478H70.4065L69.3496 56.1103V55.245L70.4921 54.5216H71.4093ZM74.514 54.5216V59.1367H73.5382V55.4478H73.5112L72.4543 56.1103V55.245L73.5968 54.5216H74.514ZM78.137 58.2714V58.028C78.137 57.8432 78.176 57.6735 78.2542 57.5187C78.3338 57.3625 78.4487 57.2378 78.5989 57.1447C78.7507 57.05 78.9355 57.0027 79.1533 57.0027C79.3741 57.0027 79.5597 57.0493 79.7099 57.1424C79.8616 57.2355 79.9758 57.3602 80.0524 57.5165C80.1306 57.6712 80.1696 57.8417 80.1696 58.028V58.2714C80.1696 58.4562 80.1306 58.6267 80.0524 58.7829C79.9743 58.9377 79.8594 59.0616 79.7077 59.1547C79.5559 59.2494 79.3711 59.2967 79.1533 59.2967C78.9325 59.2967 78.7469 59.2494 78.5967 59.1547C78.4465 59.0616 78.3323 58.9377 78.2542 58.7829C78.176 58.6267 78.137 58.4562 78.137 58.2714ZM78.7927 58.028V58.2714C78.7927 58.3781 78.8183 58.4787 78.8694 58.5734C78.9219 58.668 79.0166 58.7153 79.1533 58.7153C79.29 58.7153 79.3832 58.6687 79.4327 58.5756C79.4838 58.4825 79.5093 58.3811 79.5093 58.2714V58.028C79.5093 57.9183 79.4853 57.8162 79.4372 57.7215C79.3892 57.6269 79.2945 57.5796 79.1533 57.5796C79.0181 57.5796 78.9242 57.6269 78.8716 57.7215C78.819 57.8162 78.7927 57.9183 78.7927 58.028ZM75.7686 55.6303V55.3869C75.7686 55.2007 75.8084 55.0302 75.888 54.8754C75.9676 54.7192 76.0826 54.5945 76.2328 54.5013C76.3845 54.4082 76.5678 54.3616 76.7826 54.3616C77.005 54.3616 77.1913 54.4082 77.3415 54.5013C77.4917 54.5945 77.6059 54.7192 77.684 54.8754C77.7622 55.0302 77.8012 55.2007 77.8012 55.3869V55.6303C77.8012 55.8166 77.7614 55.9871 77.6818 56.1419C77.6037 56.2966 77.4887 56.4205 77.337 56.5137C77.1868 56.6053 77.002 56.6511 76.7826 56.6511C76.5633 56.6511 76.3778 56.6046 76.226 56.5114C76.0758 56.4168 75.9616 56.2928 75.8835 56.1396C75.8069 55.9849 75.7686 55.8151 75.7686 55.6303ZM76.4289 55.3869V55.6303C76.4289 55.74 76.4544 55.8414 76.5055 55.9345C76.5581 56.0277 76.6504 56.0743 76.7826 56.0743C76.9209 56.0743 77.0148 56.0277 77.0643 55.9345C77.1154 55.8414 77.141 55.74 77.141 55.6303V55.3869C77.141 55.2773 77.1169 55.1751 77.0688 55.0805C77.0208 54.9858 76.9254 54.9385 76.7826 54.9385C76.6489 54.9385 76.5566 54.9866 76.5055 55.0827C76.4544 55.1789 76.4289 55.2803 76.4289 55.3869ZM76.066 59.1367L79.2389 54.5216H79.8293L76.6565 59.1367H76.066Z" fill="white"/>
<path d="M92.8244 41.7927C92.7623 40.6256 91.7646 39.7252 90.6014 39.8394C82.8792 40.5977 75.4403 43.2166 68.92 47.4879C62.3931 51.7634 56.9974 57.5562 53.1808 64.3649C52.6117 65.3802 53.0288 66.6505 54.0649 67.1807L69.9346 75.303C70.9785 75.8372 72.2506 75.4151 72.8613 74.4141C74.9002 71.0726 77.6555 68.2202 80.9355 66.0716C84.2161 63.9226 87.9238 62.5418 91.7856 62.0187C92.9427 61.862 93.8392 60.8751 93.7772 59.7091L92.8244 41.7927Z" fill="url(#paint0_linear_5758_104461)"/>
<path d="M141.203 87.4599C142.371 87.4551 143.319 86.5037 143.264 85.3367C142.992 79.4853 141.689 73.7291 139.415 68.3569C136.868 62.3388 133.156 56.9318 128.512 52.4736C123.868 48.0154 118.392 44.6017 112.425 42.4458C107.121 40.5294 101.53 39.6434 95.9308 39.8251C94.7681 39.8629 93.901 40.8803 93.9872 42.0404L95.2987 59.6954C95.3856 60.8652 96.409 61.7311 97.5821 61.7416C100.281 61.7658 102.964 62.2474 105.523 63.1721C108.754 64.3393 111.719 66.1875 114.233 68.6012C116.747 71.0149 118.756 73.9422 120.136 77.2005C121.241 79.8123 121.923 82.5917 122.157 85.4255C122.253 86.5898 123.196 87.5344 124.364 87.5295L141.203 87.4599Z" fill="url(#paint1_linear_5758_104461)"/>
<path d="M94.8575 134.843C94.8575 136.011 95.8052 136.963 96.9723 136.911C108.854 136.388 120.157 131.472 128.69 123.062C137.226 114.649 142.348 103.372 143.114 91.421C143.189 90.2554 142.258 89.288 141.09 89.2633L123.805 88.897C122.637 88.8723 121.679 89.8011 121.563 90.9639C120.941 97.2464 118.148 103.137 113.634 107.585C109.124 112.031 103.219 114.717 96.9707 115.214C95.8061 115.306 94.8575 116.245 94.8575 117.413L94.8575 134.843Z" fill="url(#paint2_linear_5758_104461)"/>
<path d="M53.4896 68.3423C52.4315 67.8372 51.16 68.2875 50.7069 69.3688C47.1105 77.9518 46.0365 87.3953 47.613 96.5745C47.8112 97.728 48.9457 98.4527 50.0889 98.2017L66.6844 94.5582C67.8232 94.3082 68.5364 93.1841 68.3775 92.0289C67.75 87.4656 68.2794 82.8154 69.9163 78.5132C70.3303 77.4252 69.8907 76.1715 68.8402 75.67L53.4896 68.3423Z" fill="url(#paint3_linear_5758_104461)"/>
<path d="M50.2997 99.1815C49.1668 99.456 48.465 100.597 48.7848 101.718C51.4981 111.229 57.0334 119.7 64.673 125.981C72.3073 132.257 81.6511 136.025 91.4443 136.806C92.6092 136.899 93.5902 135.98 93.6312 134.813L94.2317 117.7C94.2726 116.533 93.3581 115.562 92.1979 115.429C87.038 114.839 82.1383 112.768 78.0935 109.443C74.0473 106.116 71.0527 101.695 69.4483 96.7216C69.0889 95.6075 67.9514 94.9033 66.8137 95.179L50.2997 99.1815Z" fill="url(#paint4_linear_5758_104461)"/>
<path d="M80.6708 90.6719V89.0314L84.5039 85.4821C84.8299 85.1667 85.1033 84.8827 85.3242 84.6303C85.5485 84.3779 85.7185 84.1308 85.8342 83.8889C85.9499 83.6436 86.0077 83.3789 86.0077 83.095C86.0077 82.7795 85.9359 82.5078 85.7921 82.28C85.6484 82.0486 85.4521 81.8716 85.2032 81.7489C84.9544 81.6227 84.6722 81.5596 84.3567 81.5596C84.0272 81.5596 83.7397 81.6262 83.4944 81.7594C83.249 81.8926 83.0597 82.0837 82.9265 82.3325C82.7933 82.5814 82.7267 82.8776 82.7267 83.2212H80.5656C80.5656 82.5166 80.7251 81.9049 81.0441 81.3861C81.3631 80.8673 81.81 80.4659 82.3849 80.182C82.9598 79.898 83.6223 79.7561 84.3725 79.7561C85.1437 79.7561 85.8149 79.8928 86.3863 80.1662C86.9612 80.4361 87.4081 80.8112 87.7271 81.2914C88.0461 81.7717 88.2056 82.322 88.2056 82.9425C88.2056 83.3491 88.125 83.7505 87.9637 84.1466C87.806 84.5427 87.5238 84.9826 87.1172 85.4664C86.7106 85.9466 86.1374 86.5232 85.3978 87.1963L83.8256 88.7369V88.8105H88.3476V90.6719H80.6708ZM93.834 90.8191C93.2802 90.8156 92.7456 90.7227 92.2303 90.5404C91.7185 90.3581 91.2593 90.0619 90.8527 89.6518C90.4461 89.2417 90.1236 88.6983 89.8852 88.0218C89.6503 87.3453 89.5329 86.5145 89.5329 85.5295C89.5364 84.6251 89.6398 83.8171 89.8431 83.1055C90.05 82.3904 90.3444 81.784 90.7265 81.2862C91.1121 80.7884 91.573 80.4098 92.1094 80.1504C92.6457 79.8875 93.2469 79.7561 93.9129 79.7561C94.6315 79.7561 95.266 79.8963 95.8163 80.1767C96.3667 80.4537 96.8084 80.8305 97.1414 81.3072C97.4779 81.784 97.6812 82.3185 97.7513 82.9109H95.5061C95.4185 82.5359 95.2344 82.2414 94.954 82.0276C94.6736 81.8137 94.3265 81.7068 93.9129 81.7068C93.2118 81.7068 92.679 82.0118 92.3144 82.6217C91.9534 83.2317 91.7693 84.0607 91.7623 85.1088H91.836C91.9972 84.7898 92.2145 84.5182 92.488 84.2938C92.7649 84.066 93.0786 83.8924 93.4292 83.7733C93.7832 83.6506 94.1565 83.5892 94.5491 83.5892C95.1871 83.5892 95.755 83.74 96.2527 84.0414C96.7505 84.3394 97.1431 84.7495 97.4306 85.2718C97.718 85.7941 97.8617 86.3918 97.8617 87.0648C97.8617 87.7939 97.6917 88.4424 97.3517 89.0103C97.0152 89.5782 96.5437 90.0234 95.9373 90.3459C95.3343 90.6649 94.6333 90.8226 93.834 90.8191ZM93.8235 89.0314C94.174 89.0314 94.4878 88.9472 94.7647 88.779C95.0416 88.6107 95.259 88.3829 95.4167 88.0954C95.5745 87.808 95.6533 87.4855 95.6533 87.1279C95.6533 86.7704 95.5745 86.4496 95.4167 86.1657C95.2625 85.8818 95.0486 85.6557 94.7752 85.4874C94.5018 85.3191 94.1898 85.235 93.8393 85.235C93.5764 85.235 93.3328 85.2841 93.1084 85.3822C92.8876 85.4804 92.693 85.6171 92.5248 85.7924C92.36 85.9676 92.2303 86.171 92.1357 86.4023C92.041 86.6302 91.9937 86.8738 91.9937 87.1332C91.9937 87.4802 92.0726 87.7975 92.2303 88.0849C92.3916 88.3723 92.6089 88.6019 92.8823 88.7737C93.1592 88.9455 93.473 89.0314 93.8235 89.0314ZM105.074 88.6528V88.0849C105.074 87.6537 105.165 87.2576 105.348 86.8966C105.533 86.532 105.802 86.2411 106.152 86.0237C106.506 85.8029 106.937 85.6925 107.446 85.6925C107.961 85.6925 108.394 85.8011 108.744 86.0185C109.098 86.2358 109.365 86.5267 109.544 86.8913C109.726 87.2524 109.817 87.6502 109.817 88.0849V88.6528C109.817 89.0839 109.726 89.4818 109.544 89.8464C109.361 90.2074 109.093 90.4966 108.739 90.7139C108.385 90.9348 107.954 91.0452 107.446 91.0452C106.93 91.0452 106.497 90.9348 106.147 90.7139C105.796 90.4966 105.53 90.2074 105.348 89.8464C105.165 89.4818 105.074 89.0839 105.074 88.6528ZM106.604 88.0849V88.6528C106.604 88.9017 106.664 89.1365 106.783 89.3574C106.906 89.5782 107.127 89.6886 107.446 89.6886C107.765 89.6886 107.982 89.5799 108.098 89.3626C108.217 89.1453 108.276 88.9087 108.276 88.6528V88.0849C108.276 87.829 108.22 87.5906 108.108 87.3698C107.996 87.149 107.775 87.0385 107.446 87.0385C107.13 87.0385 106.911 87.149 106.788 87.3698C106.666 87.5906 106.604 87.829 106.604 88.0849ZM99.5479 82.4903V81.9224C99.5479 81.4877 99.6408 81.0899 99.8266 80.7288C100.012 80.3643 100.281 80.0733 100.631 79.856C100.985 79.6387 101.413 79.53 101.914 79.53C102.433 79.53 102.867 79.6387 103.218 79.856C103.569 80.0733 103.835 80.3643 104.017 80.7288C104.2 81.0899 104.291 81.4877 104.291 81.9224V82.4903C104.291 82.925 104.198 83.3228 104.012 83.6839C103.83 84.0449 103.562 84.3341 103.208 84.5515C102.857 84.7653 102.426 84.8722 101.914 84.8722C101.402 84.8722 100.969 84.7635 100.615 84.5462C100.265 84.3254 99.9983 84.0362 99.816 83.6786C99.6373 83.3176 99.5479 82.9215 99.5479 82.4903ZM101.089 81.9224V82.4903C101.089 82.7462 101.148 82.9828 101.267 83.2001C101.39 83.4175 101.606 83.5261 101.914 83.5261C102.237 83.5261 102.456 83.4175 102.571 83.2001C102.69 82.9828 102.75 82.7462 102.75 82.4903V81.9224C102.75 81.6665 102.694 81.4282 102.582 81.2073C102.47 80.9865 102.247 80.8761 101.914 80.8761C101.602 80.8761 101.386 80.9882 101.267 81.2126C101.148 81.4369 101.089 81.6735 101.089 81.9224ZM100.242 90.6719L107.645 79.9033H109.023L101.62 90.6719H100.242Z" fill="#FFBA18"/>
<path d="M87.8687 97.3238C87.8447 97.1105 87.7455 96.9452 87.5712 96.8281C87.397 96.7094 87.1776 96.65 86.9132 96.65C86.7239 96.65 86.5602 96.6801 86.422 96.7402C86.2838 96.7988 86.1763 96.8799 86.0997 96.9836C86.0246 97.0857 85.987 97.2021 85.987 97.3328C85.987 97.4425 86.0126 97.5372 86.0637 97.6168C86.1162 97.6964 86.1846 97.7633 86.2687 97.8173C86.3544 97.8699 86.446 97.9142 86.5437 97.9503C86.6413 97.9848 86.7352 98.0134 86.8253 98.0359L87.276 98.1531C87.4233 98.1892 87.5742 98.238 87.729 98.2996C87.8837 98.3612 88.0272 98.4423 88.1594 98.543C88.2916 98.6436 88.3983 98.7683 88.4794 98.917C88.562 99.0658 88.6033 99.2438 88.6033 99.4511C88.6033 99.7125 88.5357 99.9446 88.4005 100.147C88.2668 100.35 88.0723 100.51 87.8169 100.627C87.563 100.745 87.2557 100.803 86.8952 100.803C86.5497 100.803 86.2507 100.748 85.9983 100.639C85.7459 100.529 85.5484 100.374 85.4057 100.172C85.2629 99.9694 85.1841 99.729 85.169 99.4511H85.8676C85.8811 99.6179 85.9352 99.7568 86.0299 99.868C86.126 99.9777 86.2484 100.06 86.3972 100.114C86.5474 100.166 86.7119 100.192 86.8907 100.192C87.0875 100.192 87.2625 100.162 87.4157 100.1C87.5705 100.037 87.6922 99.9499 87.7808 99.8387C87.8694 99.726 87.9138 99.5946 87.9138 99.4443C87.9138 99.3076 87.8747 99.1957 87.7966 99.1086C87.72 99.0214 87.6156 98.9493 87.4833 98.8922C87.3526 98.8352 87.2047 98.7848 87.0394 98.7413L86.4941 98.5925C86.1245 98.4919 85.8316 98.3439 85.6152 98.1486C85.4004 97.9533 85.293 97.6949 85.293 97.3734C85.293 97.1075 85.3651 96.8754 85.5093 96.6771C85.6535 96.4788 85.8488 96.3248 86.0952 96.2151C86.3416 96.104 86.6195 96.0484 86.929 96.0484C87.2415 96.0484 87.5172 96.1032 87.756 96.2129C87.9964 96.3225 88.1857 96.4735 88.3239 96.6658C88.4621 96.8566 88.5342 97.0759 88.5402 97.3238H87.8687ZM90.9971 97.2652V97.8061H89.1064V97.2652H90.9971ZM89.6134 96.436H90.2872V99.7102C90.2872 99.8409 90.3068 99.9394 90.3458 100.005C90.3849 100.07 90.4352 100.114 90.4968 100.138C90.5599 100.161 90.6283 100.172 90.7019 100.172C90.7559 100.172 90.8033 100.168 90.8438 100.161C90.8844 100.153 90.9159 100.147 90.9385 100.143L91.0602 100.7C91.0211 100.715 90.9655 100.73 90.8934 100.745C90.8213 100.761 90.7312 100.77 90.623 100.772C90.4457 100.775 90.2805 100.743 90.1272 100.677C89.974 100.611 89.8501 100.509 89.7554 100.371C89.6608 100.232 89.6134 100.059 89.6134 99.85V96.436ZM92.7497 100.803C92.5304 100.803 92.3321 100.763 92.1548 100.681C91.9775 100.599 91.837 100.479 91.7334 100.323C91.6312 100.167 91.5802 99.9754 91.5802 99.7486C91.5802 99.5533 91.6177 99.3925 91.6928 99.2663C91.7679 99.1401 91.8693 99.0402 91.997 98.9666C92.1247 98.893 92.2675 98.8374 92.4252 98.7998C92.5829 98.7623 92.7437 98.7337 92.9074 98.7142C93.1148 98.6902 93.283 98.6706 93.4122 98.6556C93.5414 98.6391 93.6353 98.6128 93.6939 98.5768C93.7525 98.5407 93.7818 98.4821 93.7818 98.401V98.3852C93.7818 98.1884 93.7262 98.0359 93.615 97.9278C93.5054 97.8196 93.3416 97.7655 93.1238 97.7655C92.8969 97.7655 92.7182 97.8158 92.5875 97.9165C92.4583 98.0156 92.3689 98.1261 92.3193 98.2477L91.6861 98.1035C91.7612 97.8932 91.8708 97.7234 92.0151 97.5942C92.1608 97.4635 92.3283 97.3689 92.5176 97.3103C92.7069 97.2502 92.9059 97.2202 93.1148 97.2202C93.253 97.2202 93.3995 97.2367 93.5542 97.2697C93.7104 97.3013 93.8562 97.3599 93.9914 97.4455C94.1281 97.5311 94.24 97.6536 94.3271 97.8128C94.4143 97.9706 94.4578 98.1756 94.4578 98.428V100.727H93.7998V100.253H93.7728C93.7292 100.34 93.6639 100.426 93.5767 100.51C93.4896 100.594 93.3777 100.664 93.241 100.72C93.1042 100.775 92.9405 100.803 92.7497 100.803ZM92.8962 100.262C93.0825 100.262 93.2417 100.226 93.3739 100.152C93.5076 100.078 93.609 99.9822 93.6781 99.8635C93.7487 99.7433 93.784 99.6149 93.784 99.4781V99.032C93.76 99.056 93.7134 99.0785 93.6443 99.0996C93.5767 99.1191 93.4994 99.1364 93.4122 99.1514C93.3251 99.1649 93.2402 99.1777 93.1576 99.1897C93.075 99.2002 93.0058 99.2092 92.9503 99.2167C92.8196 99.2333 92.7001 99.2611 92.592 99.3001C92.4853 99.3392 92.3997 99.3955 92.3351 99.4691C92.272 99.5412 92.2404 99.6374 92.2404 99.7576C92.2404 99.9243 92.302 100.051 92.4252 100.136C92.5484 100.22 92.7054 100.262 92.8962 100.262ZM95.3553 100.727V97.2652H96.0065V97.8151H96.0426C96.1057 97.6288 96.2168 97.4823 96.3761 97.3757C96.5368 97.2675 96.7186 97.2134 96.9214 97.2134C96.9635 97.2134 97.0131 97.2149 97.0702 97.2179C97.1288 97.2209 97.1746 97.2247 97.2076 97.2292V97.8737C97.1806 97.8662 97.1325 97.8579 97.0634 97.8489C96.9943 97.8384 96.9252 97.8331 96.8561 97.8331C96.6968 97.8331 96.5549 97.8669 96.4302 97.9345C96.307 98.0006 96.2093 98.093 96.1372 98.2117C96.0651 98.3289 96.0291 98.4626 96.0291 98.6128V100.727H95.3553ZM99.6109 97.2652V97.8061H97.7203V97.2652H99.6109ZM98.2273 96.436H98.9011V99.7102C98.9011 99.8409 98.9206 99.9394 98.9597 100.005C98.9988 100.07 99.0491 100.114 99.1107 100.138C99.1738 100.161 99.2421 100.172 99.3157 100.172C99.3698 100.172 99.4171 100.168 99.4577 100.161C99.4983 100.153 99.5298 100.147 99.5524 100.143L99.674 100.7C99.635 100.715 99.5794 100.73 99.5073 100.745C99.4352 100.761 99.345 100.77 99.2369 100.772C99.0596 100.775 98.8943 100.743 98.7411 100.677C98.5879 100.611 98.4639 100.509 98.3693 100.371C98.2746 100.232 98.2273 100.059 98.2273 99.85V96.436ZM101.811 100.796C101.47 100.796 101.176 100.724 100.93 100.578C100.685 100.431 100.496 100.224 100.362 99.9581C100.23 99.6907 100.164 99.3775 100.164 99.0184C100.164 98.6639 100.23 98.3514 100.362 98.081C100.496 97.8106 100.682 97.5995 100.921 97.4478C101.161 97.296 101.442 97.2202 101.764 97.2202C101.959 97.2202 102.148 97.2525 102.331 97.3171C102.515 97.3817 102.679 97.4831 102.825 97.6213C102.971 97.7595 103.086 97.939 103.17 98.1599C103.254 98.3792 103.296 98.6459 103.296 98.9598V99.1987H100.544V98.6939H102.636C102.636 98.5167 102.6 98.3597 102.527 98.223C102.455 98.0847 102.354 97.9758 102.223 97.8962C102.094 97.8166 101.942 97.7768 101.768 97.7768C101.579 97.7768 101.414 97.8233 101.272 97.9165C101.133 98.0081 101.024 98.1283 100.948 98.277C100.873 98.4243 100.835 98.5843 100.835 98.757V99.1514C100.835 99.3827 100.876 99.5795 100.957 99.7418C101.039 99.904 101.154 100.028 101.302 100.114C101.449 100.198 101.621 100.24 101.818 100.24C101.945 100.24 102.062 100.222 102.167 100.186C102.272 100.148 102.363 100.093 102.44 100.019C102.516 99.9454 102.575 99.8545 102.615 99.7463L103.253 99.8612C103.202 100.049 103.11 100.214 102.978 100.355C102.847 100.494 102.683 100.603 102.485 100.681C102.288 100.758 102.063 100.796 101.811 100.796ZM105.339 100.794C105.06 100.794 104.81 100.723 104.591 100.58C104.373 100.436 104.202 100.231 104.077 99.9649C103.954 99.6975 103.893 99.3767 103.893 99.0027C103.893 98.6286 103.955 98.3086 104.08 98.0427C104.206 97.7768 104.379 97.5732 104.598 97.432C104.817 97.2908 105.066 97.2202 105.344 97.2202C105.559 97.2202 105.731 97.2562 105.862 97.3283C105.994 97.3989 106.096 97.4816 106.169 97.5762C106.242 97.6709 106.299 97.7542 106.34 97.8264H106.38V96.1115H107.054V100.727H106.396V100.188H106.34C106.299 100.262 106.241 100.346 106.164 100.44C106.089 100.535 105.985 100.618 105.853 100.688C105.721 100.759 105.55 100.794 105.339 100.794ZM105.488 100.22C105.682 100.22 105.846 100.168 105.979 100.066C106.114 99.9626 106.217 99.8192 106.286 99.6359C106.356 99.4526 106.392 99.2393 106.392 98.9959C106.392 98.7555 106.357 98.5452 106.288 98.3649C106.219 98.1847 106.117 98.0442 105.984 97.9435C105.85 97.8429 105.685 97.7925 105.488 97.7925C105.285 97.7925 105.116 97.8451 104.981 97.9503C104.846 98.0555 104.744 98.1989 104.674 98.3807C104.607 98.5625 104.573 98.7675 104.573 98.9959C104.573 99.2273 104.608 99.4353 104.677 99.6201C104.746 99.8049 104.848 99.9514 104.983 100.06C105.12 100.166 105.288 100.22 105.488 100.22Z" fill="#60646C"/>
<path d="M213.079 67.7524H213.894V71.2938C213.894 71.6706 213.806 72.0045 213.629 72.2954C213.452 72.5846 213.203 72.8125 212.882 72.979C212.561 73.1437 212.186 73.2261 211.754 73.2261C211.325 73.2261 210.95 73.1437 210.629 72.979C210.308 72.8125 210.059 72.5846 209.882 72.2954C209.705 72.0045 209.617 71.6706 209.617 71.2938V67.7524H210.429V71.228C210.429 71.4717 210.483 71.6881 210.59 71.8774C210.698 72.0667 210.852 72.2157 211.05 72.3243C211.248 72.4313 211.483 72.4847 211.754 72.4847C212.028 72.4847 212.263 72.4313 212.462 72.3243C212.661 72.2157 212.814 72.0667 212.919 71.8774C213.026 71.6881 213.079 71.4717 213.079 71.228V67.7524ZM215.798 70.739V73.1367H215.012V69.0985H215.767V69.7558H215.817C215.91 69.5419 216.055 69.3702 216.253 69.2405C216.453 69.1108 216.705 69.0459 217.008 69.0459C217.283 69.0459 217.524 69.1038 217.731 69.2194C217.938 69.3334 218.098 69.5034 218.212 69.7295C218.326 69.9556 218.383 70.2351 218.383 70.5681V73.1367H217.597V70.6628C217.597 70.3701 217.52 70.1414 217.368 69.9766C217.216 69.8101 217.006 69.7268 216.74 69.7268C216.557 69.7268 216.395 69.7663 216.253 69.8452C216.113 69.924 216.002 70.0397 215.919 70.1922C215.839 70.3429 215.798 70.5252 215.798 70.739ZM222.463 70.0844L221.751 70.2106C221.721 70.1195 221.674 70.0327 221.609 69.9503C221.546 69.8679 221.46 69.8005 221.351 69.7479C221.242 69.6953 221.107 69.669 220.944 69.669C220.721 69.669 220.535 69.719 220.386 69.8189C220.237 69.917 220.163 70.0441 220.163 70.2001C220.163 70.335 220.213 70.4437 220.313 70.5261C220.412 70.6085 220.574 70.6759 220.796 70.7285L221.438 70.8757C221.809 70.9616 222.086 71.094 222.269 71.2727C222.451 71.4515 222.542 71.6837 222.542 71.9694C222.542 72.2113 222.472 72.4269 222.332 72.6162C222.193 72.8037 222 72.9509 221.751 73.0578C221.503 73.1648 221.217 73.2182 220.891 73.2182C220.439 73.2182 220.07 73.1218 219.784 72.929C219.498 72.7345 219.323 72.4584 219.258 72.1009L220.018 71.9852C220.065 72.1833 220.163 72.3331 220.31 72.4348C220.457 72.5347 220.649 72.5846 220.886 72.5846C221.143 72.5846 221.349 72.5312 221.503 72.4242C221.658 72.3156 221.735 72.1833 221.735 72.0273C221.735 71.9011 221.688 71.795 221.593 71.7091C221.5 71.6233 221.357 71.5584 221.164 71.5146L220.481 71.3647C220.104 71.2789 219.825 71.1422 219.645 70.9546C219.466 70.7671 219.377 70.5296 219.377 70.2421C219.377 70.0038 219.443 69.7952 219.576 69.6164C219.71 69.4377 219.894 69.2983 220.129 69.1984C220.363 69.0968 220.632 69.0459 220.936 69.0459C221.372 69.0459 221.716 69.1406 221.966 69.3299C222.217 69.5174 222.382 69.7689 222.463 70.0844ZM225.291 69.0985V69.7295H223.086V69.0985H225.291ZM223.677 68.131H224.463V71.951C224.463 72.1035 224.486 72.2183 224.531 72.2954C224.577 72.3708 224.636 72.4225 224.708 72.4505C224.781 72.4768 224.861 72.49 224.947 72.49C225.01 72.49 225.065 72.4856 225.113 72.4768C225.16 72.4681 225.197 72.4611 225.223 72.4558L225.365 73.1052C225.319 73.1227 225.254 73.1402 225.17 73.1578C225.086 73.177 224.981 73.1875 224.855 73.1893C224.648 73.1928 224.455 73.156 224.276 73.0789C224.098 73.0018 223.953 72.8826 223.843 72.7213C223.732 72.5601 223.677 72.3576 223.677 72.114V68.131ZM227.336 73.2261C227.08 73.2261 226.849 73.1788 226.642 73.0841C226.435 72.9877 226.271 72.8484 226.15 72.6661C226.031 72.4838 225.972 72.2604 225.972 71.9957C225.972 71.7679 226.015 71.5803 226.103 71.4331C226.191 71.2859 226.309 71.1693 226.458 71.0834C226.607 70.9976 226.773 70.9327 226.957 70.8889C227.141 70.8451 227.329 70.8118 227.52 70.789C227.762 70.7609 227.958 70.7382 228.109 70.7206C228.26 70.7013 228.369 70.6707 228.438 70.6286C228.506 70.5865 228.54 70.5182 228.54 70.4235V70.4051C228.54 70.1755 228.475 69.9976 228.346 69.8714C228.218 69.7453 228.027 69.6822 227.772 69.6822C227.508 69.6822 227.299 69.7409 227.147 69.8583C226.996 69.974 226.892 70.1028 226.834 70.2448L226.095 70.0765C226.183 69.8311 226.311 69.6331 226.479 69.4823C226.649 69.3299 226.844 69.2194 227.065 69.1511C227.286 69.081 227.518 69.0459 227.762 69.0459C227.923 69.0459 228.094 69.0652 228.275 69.1038C228.457 69.1406 228.627 69.2089 228.785 69.3088C228.944 69.4087 229.075 69.5516 229.176 69.7374C229.278 69.9214 229.329 70.1606 229.329 70.4551V73.1367H228.561V72.5846H228.53C228.479 72.6863 228.403 72.7862 228.301 72.8843C228.199 72.9825 228.069 73.064 227.909 73.1288C227.75 73.1937 227.559 73.2261 227.336 73.2261ZM227.507 72.5951C227.724 72.5951 227.91 72.5522 228.064 72.4663C228.22 72.3804 228.339 72.2683 228.419 72.1298C228.502 71.9896 228.543 71.8397 228.543 71.6802V71.1597C228.515 71.1877 228.46 71.214 228.38 71.2385C228.301 71.2613 228.211 71.2815 228.109 71.299C228.007 71.3148 227.908 71.3297 227.812 71.3437C227.715 71.356 227.635 71.3665 227.57 71.3753C227.418 71.3945 227.278 71.427 227.152 71.4725C227.028 71.5181 226.928 71.5838 226.852 71.6697C226.779 71.7538 226.742 71.866 226.742 72.0062C226.742 72.2008 226.814 72.348 226.957 72.4479C227.101 72.5461 227.284 72.5951 227.507 72.5951ZM230.376 73.1367V69.0985H231.136V69.74H231.178C231.251 69.5227 231.381 69.3518 231.567 69.2273C231.754 69.1011 231.966 69.038 232.203 69.038C232.252 69.038 232.31 69.0398 232.377 69.0433C232.445 69.0468 232.498 69.0512 232.537 69.0564V69.8083C232.505 69.7996 232.449 69.7899 232.369 69.7794C232.288 69.7672 232.207 69.761 232.127 69.761C231.941 69.761 231.775 69.8005 231.63 69.8793C231.486 69.9565 231.372 70.0642 231.288 70.2027C231.204 70.3394 231.162 70.4954 231.162 70.6707V73.1367H230.376ZM235.341 69.0985V69.7295H233.135V69.0985H235.341ZM233.727 68.131H234.513V71.951C234.513 72.1035 234.535 72.2183 234.581 72.2954C234.627 72.3708 234.685 72.4225 234.757 72.4505C234.831 72.4768 234.911 72.49 234.996 72.49C235.06 72.49 235.115 72.4856 235.162 72.4768C235.209 72.4681 235.246 72.4611 235.272 72.4558L235.414 73.1052C235.369 73.1227 235.304 73.1402 235.22 73.1578C235.136 73.177 235.031 73.1875 234.904 73.1893C234.698 73.1928 234.505 73.156 234.326 73.0789C234.147 73.0018 234.003 72.8826 233.892 72.7213C233.782 72.5601 233.727 72.3576 233.727 72.114V68.131ZM237.907 73.2182C237.51 73.2182 237.167 73.1332 236.879 72.9632C236.594 72.7914 236.373 72.5504 236.217 72.2402C236.063 71.9282 235.986 71.5628 235.986 71.1439C235.986 70.7303 236.063 70.3657 236.217 70.0502C236.373 69.7347 236.59 69.4885 236.869 69.3115C237.149 69.1344 237.477 69.0459 237.852 69.0459C238.08 69.0459 238.301 69.0836 238.515 69.159C238.729 69.2343 238.92 69.3526 239.09 69.5139C239.26 69.6751 239.395 69.8846 239.493 70.1422C239.591 70.3981 239.64 70.7092 239.64 71.0755V71.3542H236.43V70.7653H238.87C238.87 70.5585 238.828 70.3753 238.743 70.2159C238.659 70.0546 238.541 69.9275 238.389 69.8346C238.238 69.7417 238.061 69.6953 237.857 69.6953C237.637 69.6953 237.444 69.7496 237.279 69.8583C237.116 69.9652 236.99 70.1054 236.9 70.2789C236.813 70.4507 236.769 70.6374 236.769 70.8389V71.299C236.769 71.5689 236.816 71.7985 236.911 71.9878C237.007 72.1771 237.141 72.3217 237.313 72.4216C237.485 72.5198 237.686 72.5688 237.915 72.5688C238.064 72.5688 238.2 72.5478 238.323 72.5057C238.445 72.4619 238.552 72.3971 238.641 72.3112C238.73 72.2253 238.799 72.1193 238.846 71.9931L239.59 72.1272C239.53 72.3463 239.423 72.5382 239.269 72.7029C239.117 72.8659 238.925 72.993 238.694 73.0841C238.464 73.1735 238.202 73.2182 237.907 73.2182ZM242.024 73.2156C241.698 73.2156 241.407 73.1323 241.151 72.9658C240.897 72.7976 240.697 72.5583 240.552 72.2481C240.408 71.9361 240.336 71.5619 240.336 71.1255C240.336 70.6891 240.409 70.3158 240.554 70.0055C240.701 69.6953 240.903 69.4578 241.159 69.2931C241.415 69.1283 241.705 69.0459 242.029 69.0459C242.28 69.0459 242.481 69.088 242.634 69.1721C242.788 69.2545 242.907 69.3509 242.991 69.4613C243.077 69.5717 243.144 69.669 243.191 69.7531H243.238V67.7524H244.025V73.1367H243.257V72.5084H243.191C243.144 72.5943 243.075 72.6924 242.986 72.8028C242.898 72.9132 242.778 73.0096 242.623 73.092C242.469 73.1744 242.269 73.2156 242.024 73.2156ZM242.197 72.5452C242.423 72.5452 242.615 72.4856 242.77 72.3664C242.928 72.2455 243.047 72.0781 243.128 71.8643C243.21 71.6504 243.252 71.4015 243.252 71.1176C243.252 70.8372 243.211 70.5918 243.131 70.3815C243.05 70.1712 242.932 70.0073 242.776 69.8898C242.62 69.7724 242.427 69.7137 242.197 69.7137C241.961 69.7137 241.764 69.775 241.606 69.8977C241.448 70.0204 241.329 70.1878 241.248 70.3999C241.169 70.612 241.13 70.8512 241.13 71.1176C241.13 71.3875 241.17 71.6303 241.251 71.8459C241.332 72.0614 241.451 72.2323 241.608 72.3585C241.768 72.483 241.964 72.5452 242.197 72.5452Z" fill="#60646C"/>
<path d="M271.363 73.2103C271.016 73.2103 270.707 73.1507 270.435 73.0316C270.165 72.9124 269.95 72.7467 269.791 72.5347C269.633 72.3208 269.547 72.0728 269.533 71.7906H270.196C270.21 71.9642 270.269 72.114 270.374 72.2402C270.48 72.3647 270.617 72.4611 270.787 72.5294C270.957 72.5978 271.146 72.6319 271.352 72.6319C271.584 72.6319 271.789 72.5916 271.968 72.511C272.146 72.4304 272.287 72.3182 272.388 72.1745C272.49 72.0308 272.541 71.8643 272.541 71.675C272.541 71.4769 272.492 71.3025 272.394 71.1518C272.295 70.9993 272.152 70.8801 271.962 70.7942C271.773 70.7084 271.542 70.6654 271.268 70.6654H270.837V70.087H271.268C271.482 70.087 271.67 70.0485 271.831 69.9713C271.994 69.8942 272.121 69.7856 272.212 69.6453C272.305 69.5051 272.352 69.3404 272.352 69.1511C272.352 68.9688 272.311 68.8102 272.231 68.6752C272.15 68.5403 272.036 68.4351 271.889 68.3597C271.743 68.2844 271.572 68.2467 271.374 68.2467C271.188 68.2467 271.012 68.2809 270.848 68.3492C270.685 68.4158 270.551 68.5131 270.448 68.6411C270.345 68.7672 270.289 68.9197 270.28 69.0985H269.649C269.659 68.8163 269.744 68.5692 269.904 68.3571C270.063 68.1433 270.272 67.9768 270.53 67.8576C270.789 67.7384 271.074 67.6788 271.384 67.6788C271.717 67.6788 272.003 67.7463 272.241 67.8813C272.479 68.0145 272.663 68.1906 272.791 68.4097C272.919 68.6288 272.982 68.8654 272.982 69.1195C272.982 69.4228 272.903 69.6813 272.743 69.8951C272.585 70.1089 272.371 70.257 272.099 70.3394V70.3815C272.439 70.4376 272.705 70.5822 272.896 70.8153C273.087 71.0466 273.182 71.3332 273.182 71.675C273.182 71.9677 273.103 72.2306 272.943 72.4637C272.785 72.695 272.57 72.8773 272.296 73.0105C272.023 73.1437 271.712 73.2103 271.363 73.2103ZM276.15 67.7524V73.1367H275.498V68.436H275.467L274.152 69.3088V68.6463L275.498 67.7524H276.15ZM280.444 72.1272V71.8432C280.444 71.6469 280.484 71.4673 280.565 71.3043C280.647 71.1395 280.766 71.0081 280.922 70.9099C281.08 70.81 281.271 70.7601 281.495 70.7601C281.723 70.7601 281.914 70.81 282.068 70.9099C282.223 71.0081 282.339 71.1395 282.418 71.3043C282.497 71.4673 282.536 71.6469 282.536 71.8432V72.1272C282.536 72.3235 282.496 72.504 282.415 72.6687C282.337 72.8317 282.219 72.9632 282.063 73.0631C281.909 73.1613 281.72 73.2103 281.495 73.2103C281.267 73.2103 281.076 73.1613 280.92 73.0631C280.764 72.9632 280.645 72.8317 280.565 72.6687C280.484 72.504 280.444 72.3235 280.444 72.1272ZM280.98 71.8432V72.1272C280.98 72.2902 281.019 72.4365 281.096 72.5662C281.173 72.6942 281.306 72.7581 281.495 72.7581C281.679 72.7581 281.809 72.6942 281.884 72.5662C281.962 72.4365 282 72.2902 282 72.1272V71.8432C282 71.6802 281.963 71.5348 281.89 71.4068C281.816 71.2771 281.685 71.2123 281.495 71.2123C281.311 71.2123 281.179 71.2771 281.098 71.4068C281.019 71.5348 280.98 71.6802 280.98 71.8432ZM277.762 69.0459V68.762C277.762 68.5657 277.802 68.386 277.883 68.223C277.965 68.0583 278.085 67.9268 278.241 67.8287C278.398 67.7288 278.589 67.6788 278.814 67.6788C279.042 67.6788 279.233 67.7288 279.387 67.8287C279.541 67.9268 279.658 68.0583 279.736 68.223C279.815 68.386 279.855 68.5657 279.855 68.762V69.0459C279.855 69.2422 279.814 69.4228 279.734 69.5875C279.655 69.7505 279.538 69.882 279.382 69.9819C279.227 70.08 279.038 70.1291 278.814 70.1291C278.586 70.1291 278.394 70.08 278.238 69.9819C278.082 69.882 277.964 69.7505 277.883 69.5875C277.802 69.4228 277.762 69.2422 277.762 69.0459ZM278.298 68.762V69.0459C278.298 69.2089 278.337 69.3553 278.414 69.485C278.491 69.6129 278.624 69.6769 278.814 69.6769C278.998 69.6769 279.127 69.6129 279.203 69.485C279.28 69.3553 279.318 69.2089 279.318 69.0459V68.762C279.318 68.599 279.282 68.4535 279.208 68.3256C279.134 68.1959 279.003 68.131 278.814 68.131C278.63 68.131 278.497 68.1959 278.417 68.3256C278.338 68.4535 278.298 68.599 278.298 68.762ZM277.962 73.1367L281.664 67.7524H282.263L278.561 73.1367H277.962Z" fill="#80838D"/>
<ellipse cx="200.609" cy="70.3132" rx="3.15585" ry="3.17653" fill="#80838D"/>
<path d="M209.617 53.0156V47.6313H211.589C211.971 47.6313 212.287 47.6944 212.538 47.8206C212.788 47.9451 212.976 48.1142 213.1 48.328C213.225 48.5401 213.287 48.7794 213.287 49.0458C213.287 49.2701 213.246 49.4594 213.164 49.6136C213.081 49.7661 212.971 49.8888 212.832 49.9817C212.696 50.0728 212.545 50.1395 212.38 50.1815V50.2341C212.559 50.2429 212.733 50.3007 212.903 50.4076C213.075 50.5128 213.217 50.6626 213.329 50.8572C213.441 51.0517 213.497 51.2883 213.497 51.567C213.497 51.8422 213.433 52.0893 213.303 52.3084C213.175 52.5257 212.977 52.6984 212.709 52.8263C212.441 52.9525 212.098 53.0156 211.681 53.0156H209.617ZM210.429 52.3189H211.602C211.991 52.3189 212.27 52.2436 212.438 52.0928C212.606 51.9421 212.69 51.7537 212.69 51.5276C212.69 51.3576 212.647 51.2016 212.561 51.0596C212.476 50.9176 212.353 50.8046 212.193 50.7205C212.036 50.6363 211.848 50.5943 211.631 50.5943H210.429V52.3189ZM210.429 49.9607H211.518C211.7 49.9607 211.864 49.9256 212.009 49.8555C212.157 49.7854 212.273 49.6873 212.359 49.5611C212.447 49.4331 212.49 49.2824 212.49 49.1089C212.49 48.8863 212.412 48.6996 212.256 48.5489C212.1 48.3981 211.861 48.3228 211.539 48.3228H210.429V49.9607ZM215.573 53.105C215.317 53.105 215.086 53.0577 214.879 52.963C214.672 52.8666 214.508 52.7273 214.387 52.545C214.268 52.3627 214.209 52.1393 214.209 51.8746C214.209 51.6468 214.252 51.4592 214.34 51.312C214.428 51.1648 214.546 51.0482 214.695 50.9623C214.844 50.8765 215.01 50.8116 215.194 50.7678C215.378 50.724 215.566 50.6907 215.757 50.6679C215.999 50.6398 216.195 50.6171 216.346 50.5995C216.497 50.5803 216.606 50.5496 216.675 50.5075C216.743 50.4655 216.777 50.3971 216.777 50.3025V50.284C216.777 50.0544 216.712 49.8765 216.583 49.7504C216.455 49.6242 216.264 49.5611 216.009 49.5611C215.745 49.5611 215.536 49.6198 215.384 49.7372C215.233 49.8529 215.129 49.9817 215.071 50.1237L214.332 49.9554C214.42 49.71 214.548 49.512 214.716 49.3613C214.886 49.2088 215.081 49.0983 215.302 49.03C215.523 48.9599 215.755 48.9248 215.999 48.9248C216.16 48.9248 216.331 48.9441 216.512 48.9827C216.694 49.0195 216.864 49.0878 217.022 49.1877C217.181 49.2876 217.312 49.4305 217.413 49.6163C217.515 49.8003 217.566 50.0395 217.566 50.334V53.0156H216.798V52.4635H216.767C216.716 52.5652 216.64 52.6651 216.538 52.7632C216.436 52.8614 216.306 52.9429 216.146 53.0077C215.987 53.0726 215.796 53.105 215.573 53.105ZM215.744 52.474C215.961 52.474 216.147 52.4311 216.301 52.3452C216.457 52.2593 216.576 52.1472 216.656 52.0087C216.739 51.8685 216.78 51.7186 216.78 51.5591V51.0386C216.752 51.0666 216.697 51.0929 216.617 51.1175C216.538 51.1402 216.448 51.1604 216.346 51.1779C216.244 51.1937 216.145 51.2086 216.049 51.2226C215.952 51.2349 215.872 51.2454 215.807 51.2542C215.655 51.2734 215.515 51.3059 215.389 51.3514C215.265 51.397 215.165 51.4627 215.089 51.5486C215.016 51.6327 214.979 51.7449 214.979 51.8851C214.979 52.0797 215.051 52.2269 215.194 52.3268C215.338 52.425 215.521 52.474 215.744 52.474ZM220.314 53.0971C219.923 53.0971 219.586 53.0086 219.304 52.8316C219.024 52.6528 218.808 52.4066 218.658 52.0928C218.507 51.7791 218.431 51.4198 218.431 51.0149C218.431 50.6048 218.509 50.2429 218.663 49.9291C218.817 49.6136 219.034 49.3674 219.315 49.1904C219.595 49.0133 219.926 48.9248 220.306 48.9248C220.613 48.9248 220.886 48.9818 221.126 49.0957C221.366 49.2079 221.56 49.3656 221.707 49.5689C221.856 49.7723 221.945 50.0098 221.973 50.2814H221.208C221.166 50.0921 221.069 49.9291 220.919 49.7924C220.77 49.6557 220.57 49.5874 220.319 49.5874C220.1 49.5874 219.908 49.6452 219.743 49.7609C219.58 49.8748 219.453 50.0378 219.362 50.2499C219.271 50.4602 219.225 50.7091 219.225 50.9965C219.225 51.291 219.27 51.5451 219.36 51.7589C219.449 51.9728 219.575 52.1384 219.738 52.2558C219.903 52.3733 220.097 52.432 220.319 52.432C220.468 52.432 220.603 52.4048 220.724 52.3505C220.847 52.2944 220.949 52.2146 221.032 52.1112C221.116 52.0078 221.174 51.8834 221.208 51.7379H221.973C221.945 51.9991 221.86 52.2322 221.718 52.4372C221.576 52.6423 221.386 52.8035 221.147 52.921C220.911 53.0384 220.633 53.0971 220.314 53.0971ZM223.536 51.6459L223.531 50.6863H223.668L225.277 48.9774H226.218L224.383 50.9229H224.259L223.536 51.6459ZM222.813 53.0156V47.6313H223.599V53.0156H222.813ZM225.364 53.0156L223.918 51.0964L224.459 50.547L226.328 53.0156H225.364ZM227.721 47.6313V53.0156H226.934V47.6313H227.721ZM230.479 53.0971C230.1 53.0971 229.77 53.0104 229.488 52.8368C229.206 52.6633 228.987 52.4206 228.831 52.1086C228.675 51.7966 228.597 51.4321 228.597 51.0149C228.597 50.596 228.675 50.2297 228.831 49.916C228.987 49.6022 229.206 49.3586 229.488 49.1851C229.77 49.0116 230.1 48.9248 230.479 48.9248C230.858 48.9248 231.188 49.0116 231.47 49.1851C231.752 49.3586 231.971 49.6022 232.127 49.916C232.283 50.2297 232.361 50.596 232.361 51.0149C232.361 51.4321 232.283 51.7966 232.127 52.1086C231.971 52.4206 231.752 52.6633 231.47 52.8368C231.188 53.0104 230.858 53.0971 230.479 53.0971ZM230.482 52.4372C230.727 52.4372 230.93 52.3724 231.092 52.2427C231.253 52.113 231.372 51.9403 231.449 51.7248C231.528 51.5092 231.567 51.2717 231.567 51.0123C231.567 50.7546 231.528 50.518 231.449 50.3025C231.372 50.0851 231.253 49.9107 231.092 49.7793C230.93 49.6478 230.727 49.5821 230.482 49.5821C230.235 49.5821 230.029 49.6478 229.866 49.7793C229.705 49.9107 229.585 50.0851 229.506 50.3025C229.429 50.518 229.391 50.7546 229.391 51.0123C229.391 51.2717 229.429 51.5092 229.506 51.7248C229.585 51.9403 229.705 52.113 229.866 52.2427C230.029 52.3724 230.235 52.4372 230.482 52.4372ZM234.932 54.6141C234.611 54.6141 234.335 54.572 234.104 54.4879C233.874 54.4038 233.687 54.2925 233.541 54.154C233.396 54.0155 233.287 53.8639 233.215 53.6992L233.891 53.4205C233.938 53.4976 234.001 53.5791 234.08 53.665C234.161 53.7526 234.269 53.8271 234.406 53.8885C234.545 53.9498 234.723 53.9805 234.94 53.9805C235.238 53.9805 235.484 53.9077 235.679 53.7623C235.873 53.6186 235.97 53.3889 235.97 53.0735V52.2795H235.921C235.873 52.3654 235.805 52.4609 235.715 52.5661C235.628 52.6712 235.507 52.7624 235.353 52.8395C235.198 52.9166 234.998 52.9552 234.751 52.9552C234.432 52.9552 234.144 52.8807 233.888 52.7317C233.634 52.581 233.433 52.3592 233.284 52.0665C233.136 51.7721 233.063 51.4102 233.063 50.9807C233.063 50.5513 233.135 50.1833 233.281 49.8765C233.428 49.5698 233.63 49.335 233.886 49.172C234.142 49.0072 234.432 48.9248 234.756 48.9248C235.006 48.9248 235.209 48.9669 235.363 49.051C235.517 49.1334 235.637 49.2298 235.723 49.3402C235.811 49.4506 235.878 49.5479 235.926 49.632H235.984V48.9774H236.754V53.105C236.754 53.452 236.673 53.7369 236.512 53.9595C236.351 54.182 236.133 54.3468 235.857 54.4537C235.584 54.5606 235.276 54.6141 234.932 54.6141ZM234.924 52.3032C235.15 52.3032 235.341 52.2506 235.497 52.1454C235.655 52.0385 235.774 51.886 235.855 51.688C235.937 51.4882 235.978 51.2489 235.978 50.9702C235.978 50.6986 235.938 50.4593 235.857 50.2525C235.777 50.0457 235.658 49.8844 235.502 49.7688C235.347 49.6513 235.154 49.5926 234.924 49.5926C234.687 49.5926 234.49 49.654 234.333 49.7766C234.175 49.8976 234.056 50.0623 233.975 50.2709C233.896 50.4795 233.857 50.7126 233.857 50.9702C233.857 51.2349 233.897 51.4671 233.978 51.6669C234.058 51.8667 234.177 52.0227 234.335 52.1349C234.495 52.2471 234.691 52.3032 234.924 52.3032Z" fill="#60646C"/>
<path d="M271.268 53.0892C270.907 53.0892 270.588 53.0253 270.311 52.8973C270.036 52.7676 269.821 52.5897 269.667 52.3636C269.513 52.1358 269.437 51.8764 269.439 51.5854C269.437 51.3576 269.481 51.1473 269.573 50.9545C269.664 50.7599 269.788 50.5978 269.946 50.4681C270.105 50.3366 270.283 50.2534 270.48 50.2183V50.1868C270.222 50.1202 270.017 49.9756 269.864 49.753C269.712 49.5286 269.637 49.2736 269.638 48.9879C269.637 48.7145 269.706 48.47 269.846 48.2544C269.986 48.0388 270.179 47.8688 270.424 47.7444C270.672 47.6199 270.953 47.5577 271.268 47.5577C271.58 47.5577 271.859 47.6199 272.104 47.7444C272.35 47.8688 272.543 48.0388 272.683 48.2544C272.825 48.47 272.897 48.7145 272.898 48.9879C272.897 49.2736 272.819 49.5286 272.664 49.753C272.512 49.9756 272.309 50.1202 272.057 50.1868V50.2183C272.252 50.2534 272.427 50.3366 272.583 50.4681C272.739 50.5978 272.863 50.7599 272.956 50.9545C273.049 51.1473 273.096 51.3576 273.098 51.5854C273.096 51.8764 273.018 52.1358 272.862 52.3636C272.707 52.5897 272.493 52.7676 272.217 52.8973C271.944 53.0253 271.628 53.0892 271.268 53.0892ZM271.268 52.5108C271.512 52.5108 271.722 52.4714 271.899 52.3925C272.076 52.3137 272.213 52.2024 272.309 52.0587C272.406 51.9149 272.455 51.7467 272.457 51.5539C272.455 51.3506 272.402 51.1709 272.299 51.0149C272.196 50.8589 272.054 50.7362 271.876 50.6469C271.699 50.5575 271.496 50.5128 271.268 50.5128C271.039 50.5128 270.834 50.5575 270.653 50.6469C270.474 50.7362 270.333 50.8589 270.23 51.0149C270.128 51.1709 270.078 51.3506 270.08 51.5539C270.078 51.7467 270.125 51.9149 270.219 52.0587C270.316 52.2024 270.453 52.3137 270.632 52.3925C270.811 52.4714 271.023 52.5108 271.268 52.5108ZM271.268 49.9554C271.461 49.9554 271.632 49.9169 271.781 49.8397C271.932 49.7626 272.05 49.6548 272.136 49.5164C272.222 49.3779 272.266 49.2158 272.267 49.03C272.266 48.8477 272.223 48.6891 272.139 48.5541C272.054 48.4174 271.938 48.3123 271.789 48.2387C271.64 48.1633 271.466 48.1256 271.268 48.1256C271.067 48.1256 270.891 48.1633 270.74 48.2387C270.589 48.3123 270.473 48.4174 270.39 48.5541C270.308 48.6891 270.268 48.8477 270.269 49.03C270.268 49.2158 270.309 49.3779 270.393 49.5164C270.479 49.6548 270.597 49.7626 270.748 49.8397C270.899 49.9169 271.072 49.9554 271.268 49.9554ZM276.85 52.0061V51.7221C276.85 51.5258 276.891 51.3462 276.971 51.1832C277.054 51.0184 277.173 50.887 277.329 50.7888C277.487 50.6889 277.678 50.639 277.902 50.639C278.13 50.639 278.321 50.6889 278.475 50.7888C278.629 50.887 278.746 51.0184 278.825 51.1832C278.904 51.3462 278.943 51.5258 278.943 51.7221V52.0061C278.943 52.2024 278.903 52.3829 278.822 52.5477C278.743 52.7107 278.626 52.8421 278.47 52.942C278.316 53.0402 278.126 53.0892 277.902 53.0892C277.674 53.0892 277.482 53.0402 277.326 52.942C277.17 52.8421 277.052 52.7107 276.971 52.5477C276.891 52.3829 276.85 52.2024 276.85 52.0061ZM277.387 51.7221V52.0061C277.387 52.1691 277.425 52.3154 277.502 52.4451C277.58 52.5731 277.713 52.637 277.902 52.637C278.086 52.637 278.216 52.5731 278.291 52.4451C278.368 52.3154 278.407 52.1691 278.407 52.0061V51.7221C278.407 51.5591 278.37 51.4137 278.296 51.2857C278.223 51.156 278.091 51.0912 277.902 51.0912C277.718 51.0912 277.586 51.156 277.505 51.2857C277.426 51.4137 277.387 51.5591 277.387 51.7221ZM274.169 48.9248V48.6409C274.169 48.4446 274.209 48.2649 274.29 48.1019C274.372 47.9372 274.491 47.8057 274.647 47.7076C274.805 47.6077 274.996 47.5577 275.22 47.5577C275.448 47.5577 275.639 47.6077 275.794 47.7076C275.948 47.8057 276.064 47.9372 276.143 48.1019C276.222 48.2649 276.262 48.4446 276.262 48.6409V48.9248C276.262 49.1211 276.221 49.3017 276.141 49.4664C276.062 49.6294 275.944 49.7609 275.788 49.8608C275.634 49.9589 275.445 50.008 275.22 50.008C274.993 50.008 274.801 49.9589 274.645 49.8608C274.489 49.7609 274.37 49.6294 274.29 49.4664C274.209 49.3017 274.169 49.1211 274.169 48.9248ZM274.705 48.6409V48.9248C274.705 49.0878 274.744 49.2342 274.821 49.3639C274.898 49.4918 275.031 49.5558 275.22 49.5558C275.404 49.5558 275.534 49.4918 275.61 49.3639C275.687 49.2342 275.725 49.0878 275.725 48.9248V48.6409C275.725 48.4779 275.688 48.3324 275.615 48.2045C275.541 48.0748 275.41 48.0099 275.22 48.0099C275.036 48.0099 274.904 48.0748 274.823 48.2045C274.745 48.3324 274.705 48.4779 274.705 48.6409ZM274.369 53.0156L278.07 47.6313H278.67L274.968 53.0156H274.369Z" fill="#80838D"/>
<ellipse cx="200.609" cy="50.1922" rx="3.15585" ry="3.17653" fill="#CDCED6"/>
<path d="M212.553 89.2801C212.525 89.0313 212.41 88.8385 212.206 88.7018C212.003 88.5633 211.747 88.4941 211.439 88.4941C211.218 88.4941 211.027 88.5291 210.866 88.5992C210.704 88.6676 210.579 88.7622 210.49 88.8832C210.402 89.0023 210.358 89.1382 210.358 89.2907C210.358 89.4186 210.388 89.529 210.448 89.6219C210.509 89.7148 210.589 89.7928 210.687 89.8559C210.787 89.9172 210.894 89.969 211.008 90.011C211.121 90.0513 211.231 90.0846 211.336 90.1109L211.862 90.2476C212.034 90.2897 212.21 90.3467 212.39 90.4185C212.571 90.4904 212.738 90.585 212.893 90.7025C213.047 90.8199 213.171 90.9654 213.266 91.1389C213.362 91.3124 213.411 91.5201 213.411 91.762C213.411 92.0669 213.332 92.3377 213.174 92.5743C213.018 92.8109 212.791 92.9976 212.493 93.1343C212.197 93.271 211.838 93.3394 211.418 93.3394C211.015 93.3394 210.666 93.2754 210.371 93.1475C210.077 93.0195 209.846 92.8381 209.68 92.6033C209.513 92.3666 209.421 92.0862 209.404 91.762H210.219C210.235 91.9565 210.298 92.1186 210.408 92.2483C210.52 92.3763 210.663 92.4718 210.837 92.5349C211.012 92.5962 211.204 92.6269 211.412 92.6269C211.642 92.6269 211.846 92.591 212.025 92.5191C212.206 92.4455 212.348 92.3439 212.451 92.2142C212.554 92.0827 212.606 91.9293 212.606 91.7541C212.606 91.5946 212.56 91.464 212.469 91.3623C212.38 91.2607 212.258 91.1766 212.104 91.11C211.951 91.0434 211.779 90.9846 211.586 90.9338L210.95 90.7603C210.519 90.6429 210.177 90.4702 209.924 90.2424C209.674 90.0145 209.548 89.7131 209.548 89.338C209.548 89.0278 209.633 88.757 209.801 88.5256C209.969 88.2943 210.197 88.1146 210.484 87.9867C210.772 87.857 211.096 87.7921 211.457 87.7921C211.822 87.7921 212.143 87.8561 212.422 87.984C212.702 88.112 212.923 88.2881 213.085 88.5125C213.246 88.7351 213.33 88.9909 213.337 89.2801H212.553ZM216.203 89.2118V89.8428H213.997V89.2118H216.203ZM214.589 88.2443H215.375V92.0643C215.375 92.2168 215.398 92.3316 215.443 92.4087C215.489 92.4841 215.548 92.5358 215.62 92.5638C215.693 92.5901 215.773 92.6033 215.859 92.6033C215.922 92.6033 215.977 92.5989 216.024 92.5901C216.072 92.5813 216.109 92.5743 216.135 92.5691L216.277 93.2185C216.231 93.236 216.166 93.2535 216.082 93.271C215.998 93.2903 215.893 93.3008 215.767 93.3026C215.56 93.3061 215.367 93.2693 215.188 93.1922C215.01 93.115 214.865 92.9959 214.755 92.8346C214.644 92.6734 214.589 92.4709 214.589 92.2273V88.2443ZM218.248 93.3394C217.992 93.3394 217.761 93.2921 217.554 93.1974C217.347 93.101 217.183 92.9617 217.062 92.7794C216.943 92.5971 216.883 92.3737 216.883 92.109C216.883 91.8811 216.927 91.6936 217.015 91.5464C217.103 91.3992 217.221 91.2826 217.37 91.1967C217.519 91.1108 217.685 91.046 217.869 91.0022C218.053 90.9583 218.241 90.925 218.432 90.9023C218.674 90.8742 218.87 90.8514 219.021 90.8339C219.172 90.8146 219.281 90.784 219.35 90.7419C219.418 90.6998 219.452 90.6315 219.452 90.5368V90.5184C219.452 90.2888 219.387 90.1109 219.258 89.9847C219.13 89.8585 218.939 89.7954 218.684 89.7954C218.42 89.7954 218.211 89.8542 218.059 89.9716C217.908 90.0873 217.804 90.2161 217.746 90.3581L217.007 90.1898C217.095 89.9444 217.223 89.7464 217.391 89.5956C217.561 89.4431 217.756 89.3327 217.977 89.2644C218.198 89.1943 218.43 89.1592 218.674 89.1592C218.835 89.1592 219.006 89.1785 219.187 89.217C219.369 89.2539 219.539 89.3222 219.697 89.4221C219.856 89.522 219.987 89.6649 220.088 89.8506C220.19 90.0347 220.241 90.2739 220.241 90.5684V93.25H219.473V92.6979H219.442C219.391 92.7996 219.314 92.8995 219.213 92.9976C219.111 93.0958 218.981 93.1773 218.821 93.2421C218.662 93.307 218.471 93.3394 218.248 93.3394ZM218.419 92.7084C218.636 92.7084 218.822 92.6655 218.976 92.5796C219.132 92.4937 219.25 92.3815 219.331 92.2431C219.413 92.1029 219.455 91.953 219.455 91.7935V91.273C219.427 91.301 219.372 91.3273 219.292 91.3518C219.213 91.3746 219.123 91.3948 219.021 91.4123C218.919 91.4281 218.82 91.443 218.724 91.457C218.627 91.4693 218.547 91.4798 218.482 91.4885C218.329 91.5078 218.19 91.5402 218.064 91.5858C217.939 91.6314 217.84 91.6971 217.764 91.783C217.691 91.8671 217.654 91.9793 217.654 92.1195C217.654 92.3141 217.726 92.4613 217.869 92.5612C218.013 92.6593 218.196 92.7084 218.419 92.7084ZM221.288 93.25V89.2118H222.048V89.8533H222.09C222.163 89.6359 222.293 89.4651 222.479 89.3406C222.666 89.2144 222.878 89.1513 223.115 89.1513C223.164 89.1513 223.222 89.1531 223.288 89.1566C223.357 89.1601 223.41 89.1645 223.449 89.1697V89.9216C223.417 89.9129 223.361 89.9032 223.281 89.8927C223.2 89.8804 223.119 89.8743 223.039 89.8743C222.853 89.8743 222.687 89.9137 222.542 89.9926C222.398 90.0697 222.284 90.1775 222.2 90.316C222.116 90.4527 222.074 90.6087 222.074 90.784V93.25H221.288ZM226.253 89.2118V89.8428H224.047V89.2118H226.253ZM224.639 88.2443H225.425V92.0643C225.425 92.2168 225.447 92.3316 225.493 92.4087C225.539 92.4841 225.597 92.5358 225.669 92.5638C225.743 92.5901 225.822 92.6033 225.908 92.6033C225.971 92.6033 226.027 92.5989 226.074 92.5901C226.121 92.5813 226.158 92.5743 226.184 92.5691L226.326 93.2185C226.281 93.236 226.216 93.2535 226.132 93.271C226.048 93.2903 225.943 93.3008 225.816 93.3026C225.61 93.3061 225.417 93.2693 225.238 93.1922C225.059 93.115 224.915 92.9959 224.804 92.8346C224.694 92.6734 224.639 92.4709 224.639 92.2273V88.2443ZM228.819 93.3315C228.421 93.3315 228.079 93.2465 227.791 93.0765C227.506 92.9047 227.285 92.6637 227.129 92.3535C226.975 92.0415 226.898 91.6761 226.898 91.2572C226.898 90.8435 226.975 90.479 227.129 90.1635C227.285 89.848 227.502 89.6018 227.781 89.4247C228.061 89.2477 228.389 89.1592 228.764 89.1592C228.992 89.1592 229.213 89.1969 229.427 89.2723C229.64 89.3476 229.832 89.4659 230.002 89.6272C230.172 89.7884 230.307 89.9979 230.405 90.2555C230.503 90.5114 230.552 90.8225 230.552 91.1888V91.4675H227.342V90.8786H229.782C229.782 90.6718 229.74 90.4886 229.655 90.3291C229.571 90.1679 229.453 90.0408 229.3 89.9479C229.15 89.855 228.973 89.8086 228.769 89.8086C228.549 89.8086 228.356 89.8629 228.191 89.9716C228.028 90.0785 227.902 90.2187 227.812 90.3922C227.725 90.564 227.681 90.7507 227.681 90.9522V91.4123C227.681 91.6822 227.728 91.9118 227.823 92.1011C227.919 92.2904 228.053 92.435 228.225 92.5349C228.397 92.6331 228.598 92.6821 228.827 92.6821C228.976 92.6821 229.112 92.6611 229.235 92.619C229.357 92.5752 229.463 92.5104 229.553 92.4245C229.642 92.3386 229.711 92.2326 229.758 92.1064L230.502 92.2404C230.442 92.4595 230.335 92.6515 230.181 92.8162C230.029 92.9792 229.837 93.1063 229.605 93.1974C229.376 93.2868 229.114 93.3315 228.819 93.3315ZM232.936 93.3289C232.61 93.3289 232.319 93.2456 232.063 93.0791C231.809 92.9109 231.609 92.6716 231.464 92.3614C231.32 92.0494 231.248 91.6752 231.248 91.2388C231.248 90.8024 231.321 90.429 231.466 90.1188C231.613 89.8086 231.815 89.5711 232.071 89.4063C232.327 89.2416 232.617 89.1592 232.941 89.1592C233.192 89.1592 233.393 89.2013 233.546 89.2854C233.7 89.3678 233.819 89.4642 233.903 89.5746C233.989 89.685 234.056 89.7823 234.103 89.8664H234.15V87.8657H234.936V93.25H234.169V92.6217H234.103C234.056 92.7075 233.987 92.8057 233.898 92.9161C233.81 93.0265 233.689 93.1229 233.535 93.2053C233.381 93.2877 233.181 93.3289 232.936 93.3289ZM233.109 92.6585C233.335 92.6585 233.526 92.5989 233.682 92.4797C233.84 92.3588 233.959 92.1914 234.04 91.9775C234.122 91.7637 234.164 91.5148 234.164 91.2309C234.164 90.9505 234.123 90.7051 234.043 90.4948C233.962 90.2844 233.844 90.1206 233.688 90.0031C233.532 89.8857 233.339 89.827 233.109 89.827C232.873 89.827 232.675 89.8883 232.518 90.011C232.36 90.1337 232.241 90.3011 232.16 90.5132C232.081 90.7252 232.042 90.9645 232.042 91.2309C232.042 91.5008 232.082 91.7436 232.163 91.9591C232.243 92.1747 232.363 92.3456 232.52 92.4718C232.68 92.5962 232.876 92.6585 233.109 92.6585Z" fill="#60646C"/>
<path d="M270.071 93.25V92.7768L271.848 90.8313C272.057 90.6034 272.229 90.4054 272.364 90.2371C272.499 90.0671 272.598 89.9076 272.663 89.7586C272.73 89.6079 272.763 89.4502 272.763 89.2854C272.763 89.0961 272.718 88.9322 272.626 88.7938C272.537 88.6553 272.414 88.5484 272.258 88.473C272.102 88.3977 271.927 88.36 271.733 88.36C271.526 88.36 271.345 88.4029 271.191 88.4888C271.039 88.5729 270.92 88.6912 270.836 88.8437C270.754 88.9962 270.713 89.175 270.713 89.38H270.092C270.092 89.0646 270.165 88.7876 270.31 88.5493C270.456 88.3109 270.654 88.1251 270.904 87.9919C271.157 87.8587 271.44 87.7921 271.754 87.7921C272.069 87.7921 272.349 87.8587 272.592 87.9919C272.836 88.1251 273.027 88.3048 273.165 88.5309C273.304 88.757 273.373 89.0085 273.373 89.2854C273.373 89.4835 273.337 89.6771 273.265 89.8664C273.195 90.054 273.073 90.2634 272.897 90.4948C272.724 90.7244 272.483 91.0048 272.174 91.3361L270.965 92.6295V92.6716H273.468V93.25H270.071ZM276.341 93.3236C276.12 93.3201 275.9 93.278 275.679 93.1974C275.458 93.1168 275.256 92.981 275.074 92.7899C274.892 92.5971 274.745 92.3368 274.635 92.0091C274.525 91.6796 274.469 91.2659 274.469 90.7682C274.469 90.2914 274.514 89.869 274.604 89.501C274.693 89.1312 274.823 88.8201 274.993 88.5677C275.163 88.3135 275.368 88.1207 275.608 87.9893C275.85 87.8578 276.122 87.7921 276.425 87.7921C276.727 87.7921 276.995 87.8526 277.23 87.9735C277.467 88.0927 277.659 88.2592 277.808 88.473C277.957 88.6869 278.054 88.9331 278.098 89.2118H277.456C277.396 88.9699 277.281 88.7692 277.109 88.6097C276.937 88.4502 276.709 88.3705 276.425 88.3705C276.008 88.3705 275.68 88.5519 275.44 88.9147C275.201 89.2775 275.081 89.7867 275.079 90.4422H275.121C275.22 90.2932 275.336 90.1661 275.471 90.061C275.608 89.9541 275.759 89.8717 275.923 89.8138C276.088 89.756 276.262 89.7271 276.446 89.7271C276.755 89.7271 277.037 89.8042 277.293 89.9584C277.549 90.1109 277.754 90.3221 277.908 90.592C278.062 90.8602 278.14 91.1678 278.14 91.5148C278.14 91.8478 278.065 92.1528 277.916 92.4297C277.767 92.7049 277.558 92.924 277.288 93.087C277.02 93.2482 276.704 93.3271 276.341 93.3236ZM276.341 92.7452C276.562 92.7452 276.76 92.69 276.935 92.5796C277.112 92.4692 277.252 92.3211 277.353 92.1353C277.457 91.9495 277.509 91.7427 277.509 91.5148C277.509 91.2922 277.459 91.0898 277.359 90.9075C277.261 90.7235 277.125 90.5771 276.951 90.4685C276.779 90.3598 276.583 90.3055 276.362 90.3055C276.196 90.3055 276.041 90.3388 275.897 90.4054C275.753 90.4702 275.627 90.5596 275.518 90.6735C275.411 90.7875 275.327 90.918 275.266 91.0653C275.205 91.2107 275.174 91.3641 275.174 91.5253C275.174 91.7392 275.224 91.939 275.324 92.1248C275.426 92.3106 275.564 92.4604 275.739 92.5743C275.916 92.6883 276.117 92.7452 276.341 92.7452ZM281.918 92.2404V91.9565C281.918 91.7602 281.958 91.5806 282.039 91.4176C282.121 91.2528 282.241 91.1214 282.397 91.0232C282.554 90.9233 282.745 90.8733 282.97 90.8733C283.198 90.8733 283.389 90.9233 283.543 91.0232C283.697 91.1214 283.814 91.2528 283.893 91.4176C283.971 91.5806 284.011 91.7602 284.011 91.9565V92.2404C284.011 92.4367 283.971 92.6173 283.89 92.782C283.811 92.945 283.694 93.0765 283.538 93.1764C283.383 93.2745 283.194 93.3236 282.97 93.3236C282.742 93.3236 282.55 93.2745 282.394 93.1764C282.238 93.0765 282.12 92.945 282.039 92.782C281.958 92.6173 281.918 92.4367 281.918 92.2404ZM282.454 91.9565V92.2404C282.454 92.4034 282.493 92.5498 282.57 92.6795C282.647 92.8074 282.78 92.8714 282.97 92.8714C283.154 92.8714 283.284 92.8074 283.359 92.6795C283.436 92.5498 283.475 92.4034 283.475 92.2404V91.9565C283.475 91.7935 283.438 91.648 283.364 91.5201C283.291 91.3904 283.159 91.3255 282.97 91.3255C282.786 91.3255 282.653 91.3904 282.573 91.5201C282.494 91.648 282.454 91.7935 282.454 91.9565ZM279.237 89.1592V88.8753C279.237 88.679 279.277 88.4993 279.357 88.3363C279.44 88.1716 279.559 88.0401 279.715 87.942C279.873 87.8421 280.064 87.7921 280.288 87.7921C280.516 87.7921 280.707 87.8421 280.861 87.942C281.016 88.0401 281.132 88.1716 281.211 88.3363C281.29 88.4993 281.329 88.679 281.329 88.8753V89.1592C281.329 89.3555 281.289 89.536 281.208 89.7008C281.129 89.8638 281.012 89.9952 280.856 90.0951C280.702 90.1933 280.512 90.2424 280.288 90.2424C280.06 90.2424 279.868 90.1933 279.712 90.0951C279.556 89.9952 279.438 89.8638 279.357 89.7008C279.277 89.536 279.237 89.3555 279.237 89.1592ZM279.773 88.8753V89.1592C279.773 89.3222 279.811 89.4686 279.889 89.5983C279.966 89.7262 280.099 89.7902 280.288 89.7902C280.472 89.7902 280.602 89.7262 280.677 89.5983C280.754 89.4686 280.793 89.3222 280.793 89.1592V88.8753C280.793 88.7123 280.756 88.5668 280.683 88.4388C280.609 88.3091 280.477 88.2443 280.288 88.2443C280.104 88.2443 279.972 88.3091 279.891 88.4388C279.812 88.5668 279.773 88.7123 279.773 88.8753ZM279.436 93.25L283.138 87.8657H283.737L280.036 93.25H279.436Z" fill="#80838D"/>
<ellipse cx="201.136" cy="90.4265" rx="3.15585" ry="3.17653" fill="#FFC53D"/>
<path d="M210.835 113.363H209.092V107.979H210.89C211.417 107.979 211.87 108.087 212.249 108.302C212.628 108.516 212.918 108.824 213.119 109.225C213.323 109.625 213.424 110.104 213.424 110.663C213.424 111.224 213.322 111.706 213.117 112.109C212.913 112.512 212.619 112.823 212.233 113.04C211.848 113.255 211.381 113.363 210.835 113.363ZM209.904 112.653H210.79C211.2 112.653 211.541 112.576 211.813 112.422C212.084 112.266 212.288 112.041 212.423 111.746C212.557 111.45 212.625 111.089 212.625 110.663C212.625 110.241 212.557 109.882 212.423 109.588C212.289 109.294 212.09 109.07 211.826 108.918C211.561 108.765 211.232 108.689 210.84 108.689H209.904V112.653ZM216.072 113.445C215.694 113.445 215.363 113.358 215.081 113.185C214.799 113.011 214.58 112.768 214.424 112.456C214.268 112.144 214.19 111.78 214.19 111.363C214.19 110.944 214.268 110.577 214.424 110.264C214.58 109.95 214.799 109.706 215.081 109.533C215.363 109.359 215.694 109.272 216.072 109.272C216.451 109.272 216.781 109.359 217.063 109.533C217.346 109.706 217.565 109.95 217.721 110.264C217.877 110.577 217.955 110.944 217.955 111.363C217.955 111.78 217.877 112.144 217.721 112.456C217.565 112.768 217.346 113.011 217.063 113.185C216.781 113.358 216.451 113.445 216.072 113.445ZM216.075 112.785C216.32 112.785 216.524 112.72 216.685 112.59C216.846 112.461 216.965 112.288 217.042 112.072C217.121 111.857 217.161 111.619 217.161 111.36C217.161 111.102 217.121 110.866 217.042 110.65C216.965 110.433 216.846 110.258 216.685 110.127C216.524 109.995 216.32 109.93 216.075 109.93C215.828 109.93 215.623 109.995 215.46 110.127C215.298 110.258 215.178 110.433 215.1 110.65C215.022 110.866 214.984 111.102 214.984 111.36C214.984 111.619 215.022 111.857 215.1 112.072C215.178 112.288 215.298 112.461 215.46 112.59C215.623 112.72 215.828 112.785 216.075 112.785ZM219.618 110.966V113.363H218.832V109.325H219.587V109.982H219.637C219.73 109.769 219.875 109.597 220.073 109.467C220.273 109.337 220.524 109.272 220.828 109.272C221.103 109.272 221.344 109.33 221.551 109.446C221.757 109.56 221.918 109.73 222.032 109.956C222.146 110.182 222.203 110.462 222.203 110.795V113.363H221.416V110.889C221.416 110.597 221.34 110.368 221.188 110.203C221.035 110.037 220.826 109.953 220.559 109.953C220.377 109.953 220.215 109.993 220.073 110.072C219.933 110.151 219.822 110.266 219.739 110.419C219.659 110.569 219.618 110.752 219.618 110.966ZM224.997 113.445C224.599 113.445 224.257 113.36 223.969 113.19C223.684 113.018 223.463 112.777 223.307 112.467C223.153 112.155 223.075 111.789 223.075 111.37C223.075 110.957 223.153 110.592 223.307 110.277C223.463 109.961 223.68 109.715 223.959 109.538C224.239 109.361 224.567 109.272 224.942 109.272C225.17 109.272 225.391 109.31 225.605 109.386C225.818 109.461 226.01 109.579 226.18 109.74C226.35 109.902 226.484 110.111 226.583 110.369C226.681 110.625 226.73 110.936 226.73 111.302V111.581H223.52V110.992H225.959C225.959 110.785 225.917 110.602 225.833 110.442C225.749 110.281 225.631 110.154 225.478 110.061C225.328 109.968 225.151 109.922 224.947 109.922C224.726 109.922 224.534 109.976 224.369 110.085C224.206 110.192 224.08 110.332 223.99 110.506C223.903 110.677 223.859 110.864 223.859 111.065V111.526C223.859 111.795 223.906 112.025 224.001 112.214C224.097 112.404 224.231 112.548 224.403 112.648C224.575 112.746 224.776 112.795 225.005 112.795C225.154 112.795 225.29 112.774 225.413 112.732C225.535 112.688 225.641 112.624 225.731 112.538C225.82 112.452 225.889 112.346 225.936 112.22L226.68 112.354C226.62 112.573 226.513 112.765 226.359 112.929C226.207 113.092 226.015 113.22 225.783 113.311C225.554 113.4 225.292 113.445 224.997 113.445Z" fill="#60646C"/>
<path d="M269.544 113.363V112.89L271.321 110.945C271.53 110.717 271.701 110.519 271.836 110.35C271.971 110.18 272.071 110.021 272.136 109.872C272.203 109.721 272.236 109.563 272.236 109.399C272.236 109.209 272.191 109.046 272.099 108.907C272.01 108.769 271.887 108.662 271.731 108.586C271.575 108.511 271.4 108.473 271.205 108.473C270.999 108.473 270.818 108.516 270.664 108.602C270.511 108.686 270.393 108.805 270.309 108.957C270.227 109.109 270.185 109.288 270.185 109.493H269.565C269.565 109.178 269.638 108.901 269.783 108.663C269.929 108.424 270.127 108.238 270.377 108.105C270.63 107.972 270.913 107.905 271.227 107.905C271.542 107.905 271.822 107.972 272.065 108.105C272.309 108.238 272.5 108.418 272.638 108.644C272.777 108.87 272.846 109.122 272.846 109.399C272.846 109.597 272.81 109.79 272.738 109.98C272.668 110.167 272.545 110.377 272.37 110.608C272.197 110.838 271.956 111.118 271.647 111.449L270.438 112.743V112.785H272.941V113.363H269.544ZM273.785 112.259V111.723L276.151 107.979H276.54V108.81H276.277L274.489 111.639V111.681H277.676V112.259H273.785ZM276.319 113.363V112.096V111.846V107.979H276.939V113.363H276.319ZM281.406 112.354V112.07C281.406 111.873 281.446 111.694 281.526 111.531C281.609 111.366 281.728 111.235 281.884 111.136C282.042 111.037 282.233 110.987 282.457 110.987C282.685 110.987 282.876 111.037 283.03 111.136C283.185 111.235 283.301 111.366 283.38 111.531C283.459 111.694 283.498 111.873 283.498 112.07V112.354C283.498 112.55 283.458 112.731 283.377 112.895C283.298 113.058 283.181 113.19 283.025 113.29C282.871 113.388 282.681 113.437 282.457 113.437C282.229 113.437 282.037 113.388 281.881 113.29C281.725 113.19 281.607 113.058 281.526 112.895C281.446 112.731 281.406 112.55 281.406 112.354ZM281.942 112.07V112.354C281.942 112.517 281.98 112.663 282.058 112.793C282.135 112.921 282.268 112.985 282.457 112.985C282.641 112.985 282.771 112.921 282.846 112.793C282.923 112.663 282.962 112.517 282.962 112.354V112.07C282.962 111.907 282.925 111.761 282.851 111.633C282.778 111.504 282.646 111.439 282.457 111.439C282.273 111.439 282.141 111.504 282.06 111.633C281.981 111.761 281.942 111.907 281.942 112.07ZM278.724 109.272V108.989C278.724 108.792 278.764 108.613 278.845 108.45C278.927 108.285 279.046 108.153 279.202 108.055C279.36 107.955 279.551 107.905 279.776 107.905C280.003 107.905 280.194 107.955 280.349 108.055C280.503 108.153 280.619 108.285 280.698 108.45C280.777 108.613 280.817 108.792 280.817 108.989V109.272C280.817 109.469 280.776 109.649 280.696 109.814C280.617 109.977 280.499 110.109 280.343 110.208C280.189 110.307 280 110.356 279.776 110.356C279.548 110.356 279.356 110.307 279.2 110.208C279.044 110.109 278.925 109.977 278.845 109.814C278.764 109.649 278.724 109.469 278.724 109.272ZM279.26 108.989V109.272C279.26 109.435 279.299 109.582 279.376 109.712C279.453 109.839 279.586 109.903 279.776 109.903C279.96 109.903 280.089 109.839 280.165 109.712C280.242 109.582 280.28 109.435 280.28 109.272V108.989C280.28 108.826 280.243 108.68 280.17 108.552C280.096 108.422 279.965 108.358 279.776 108.358C279.591 108.358 279.459 108.422 279.379 108.552C279.3 108.68 279.26 108.826 279.26 108.989ZM278.924 113.363L282.625 107.979H283.225L279.523 113.363H278.924Z" fill="#80838D"/>
<ellipse cx="201.136" cy="110.54" rx="3.15585" ry="3.17653" fill="#3E9B4F"/>
<ellipse cx="201.136" cy="131.192" rx="3.15585" ry="3.17653" fill="#E5484D"/>
<path d="M214.087 129.691H213.267C213.235 129.516 213.176 129.361 213.091 129.228C213.005 129.095 212.9 128.982 212.775 128.889C212.651 128.796 212.511 128.726 212.357 128.679C212.205 128.631 212.042 128.608 211.871 128.608C211.56 128.608 211.283 128.686 211.037 128.842C210.794 128.998 210.601 129.226 210.459 129.528C210.319 129.829 210.249 130.197 210.249 130.632C210.249 131.07 210.319 131.44 210.459 131.742C210.601 132.043 210.795 132.271 211.04 132.425C211.285 132.579 211.561 132.656 211.868 132.656C212.038 132.656 212.199 132.634 212.352 132.588C212.506 132.541 212.645 132.472 212.77 132.38C212.894 132.289 212.999 132.178 213.085 132.047C213.173 131.913 213.233 131.761 213.267 131.589L214.087 131.592C214.043 131.856 213.958 132.1 213.832 132.323C213.708 132.543 213.547 132.734 213.351 132.896C213.156 133.055 212.934 133.179 212.683 133.266C212.432 133.354 212.159 133.398 211.863 133.398C211.397 133.398 210.981 133.287 210.617 133.067C210.252 132.844 209.965 132.526 209.754 132.112C209.546 131.699 209.441 131.205 209.441 130.632C209.441 130.057 209.547 129.564 209.757 129.152C209.967 128.738 210.255 128.421 210.619 128.2C210.984 127.978 211.398 127.866 211.863 127.866C212.148 127.866 212.415 127.908 212.662 127.99C212.911 128.071 213.134 128.19 213.332 128.347C213.53 128.503 213.694 128.694 213.824 128.921C213.954 129.145 214.041 129.402 214.087 129.691ZM216.171 133.414C215.915 133.414 215.684 133.366 215.477 133.272C215.27 133.175 215.106 133.036 214.985 132.854C214.866 132.671 214.807 132.448 214.807 132.183C214.807 131.955 214.85 131.768 214.938 131.621C215.026 131.473 215.144 131.357 215.293 131.271C215.442 131.185 215.609 131.12 215.793 131.076C215.977 131.033 216.164 130.999 216.355 130.976C216.597 130.948 216.793 130.926 216.944 130.908C217.095 130.889 217.204 130.858 217.273 130.816C217.341 130.774 217.375 130.706 217.375 130.611V130.593C217.375 130.363 217.31 130.185 217.181 130.059C217.053 129.933 216.862 129.87 216.608 129.87C216.343 129.87 216.134 129.928 215.982 130.046C215.831 130.161 215.727 130.29 215.669 130.432L214.93 130.264C215.018 130.019 215.146 129.821 215.314 129.67C215.484 129.517 215.68 129.407 215.9 129.339C216.121 129.268 216.353 129.233 216.597 129.233C216.758 129.233 216.929 129.253 217.11 129.291C217.292 129.328 217.462 129.396 217.62 129.496C217.779 129.596 217.91 129.739 218.011 129.925C218.113 130.109 218.164 130.348 218.164 130.643V133.324H217.396V132.772H217.365C217.314 132.874 217.238 132.974 217.136 133.072C217.034 133.17 216.904 133.251 216.744 133.316C216.585 133.381 216.394 133.414 216.171 133.414ZM216.342 132.783C216.559 132.783 216.745 132.74 216.899 132.654C217.055 132.568 217.174 132.456 217.254 132.317C217.337 132.177 217.378 132.027 217.378 131.868V131.347C217.35 131.375 217.296 131.402 217.215 131.426C217.136 131.449 217.046 131.469 216.944 131.487C216.842 131.502 216.743 131.517 216.647 131.531C216.551 131.543 216.47 131.554 216.405 131.563C216.253 131.582 216.113 131.614 215.987 131.66C215.863 131.706 215.763 131.771 215.687 131.857C215.614 131.941 215.577 132.054 215.577 132.194C215.577 132.388 215.649 132.536 215.793 132.635C215.936 132.734 216.119 132.783 216.342 132.783ZM219.997 130.927V133.324H219.211V129.286H219.966V129.943H220.015C220.108 129.729 220.254 129.558 220.452 129.428C220.652 129.298 220.903 129.233 221.206 129.233C221.482 129.233 221.723 129.291 221.929 129.407C222.136 129.521 222.297 129.691 222.411 129.917C222.524 130.143 222.581 130.423 222.581 130.756V133.324H221.795V130.85C221.795 130.558 221.719 130.329 221.567 130.164C221.414 129.998 221.205 129.914 220.938 129.914C220.756 129.914 220.594 129.954 220.452 130.033C220.312 130.112 220.2 130.227 220.118 130.38C220.037 130.53 219.997 130.713 219.997 130.927ZM225.337 133.406C224.946 133.406 224.609 133.317 224.327 133.14C224.047 132.961 223.831 132.715 223.68 132.401C223.53 132.088 223.454 131.728 223.454 131.324C223.454 130.913 223.531 130.551 223.686 130.238C223.84 129.922 224.057 129.676 224.338 129.499C224.618 129.322 224.948 129.233 225.329 129.233C225.635 129.233 225.909 129.29 226.149 129.404C226.389 129.516 226.583 129.674 226.73 129.878C226.879 130.081 226.968 130.318 226.996 130.59H226.231C226.188 130.401 226.092 130.238 225.941 130.101C225.792 129.964 225.593 129.896 225.342 129.896C225.123 129.896 224.931 129.954 224.766 130.069C224.603 130.183 224.476 130.346 224.385 130.558C224.294 130.769 224.248 131.018 224.248 131.305C224.248 131.6 224.293 131.854 224.382 132.068C224.472 132.281 224.598 132.447 224.761 132.564C224.926 132.682 225.119 132.741 225.342 132.741C225.491 132.741 225.626 132.713 225.747 132.659C225.869 132.603 225.972 132.523 226.054 132.42C226.139 132.316 226.197 132.192 226.231 132.047H226.996C226.968 132.308 226.883 132.541 226.741 132.746C226.599 132.951 226.408 133.112 226.17 133.23C225.933 133.347 225.656 133.406 225.337 133.406ZM229.577 133.406C229.179 133.406 228.836 133.321 228.549 133.151C228.263 132.979 228.042 132.738 227.886 132.428C227.732 132.116 227.655 131.75 227.655 131.331C227.655 130.918 227.732 130.553 227.886 130.238C228.042 129.922 228.259 129.676 228.538 129.499C228.819 129.322 229.146 129.233 229.521 129.233C229.749 129.233 229.97 129.271 230.184 129.346C230.398 129.422 230.59 129.54 230.76 129.701C230.93 129.863 231.064 130.072 231.162 130.33C231.26 130.586 231.309 130.897 231.309 131.263V131.542H228.099V130.953H230.539C230.539 130.746 230.497 130.563 230.413 130.403C230.329 130.242 230.21 130.115 230.058 130.022C229.907 129.929 229.73 129.883 229.527 129.883C229.306 129.883 229.113 129.937 228.948 130.046C228.785 130.153 228.659 130.293 228.57 130.466C228.482 130.638 228.438 130.825 228.438 131.026V131.487C228.438 131.756 228.486 131.986 228.58 132.175C228.677 132.365 228.811 132.509 228.982 132.609C229.154 132.707 229.355 132.756 229.585 132.756C229.734 132.756 229.869 132.735 229.992 132.693C230.115 132.649 230.221 132.585 230.31 132.499C230.4 132.413 230.468 132.307 230.515 132.181L231.259 132.315C231.2 132.534 231.093 132.726 230.938 132.89C230.786 133.053 230.594 133.18 230.363 133.272C230.133 133.361 229.871 133.406 229.577 133.406ZM232.967 127.94V133.324H232.181V127.94H232.967ZM234.811 127.94V133.324H234.025V127.94H234.811ZM237.609 133.406C237.211 133.406 236.869 133.321 236.581 133.151C236.295 132.979 236.075 132.738 235.919 132.428C235.764 132.116 235.687 131.75 235.687 131.331C235.687 130.918 235.764 130.553 235.919 130.238C236.075 129.922 236.292 129.676 236.571 129.499C236.851 129.322 237.179 129.233 237.554 129.233C237.782 129.233 238.003 129.271 238.216 129.346C238.43 129.422 238.622 129.54 238.792 129.701C238.962 129.863 239.096 130.072 239.194 130.33C239.293 130.586 239.342 130.897 239.342 131.263V131.542H236.132V130.953H238.571C238.571 130.746 238.529 130.563 238.445 130.403C238.361 130.242 238.243 130.115 238.09 130.022C237.939 129.929 237.762 129.883 237.559 129.883C237.338 129.883 237.145 129.937 236.981 130.046C236.818 130.153 236.692 130.293 236.602 130.466C236.514 130.638 236.471 130.825 236.471 131.026V131.487C236.471 131.756 236.518 131.986 236.613 132.175C236.709 132.365 236.843 132.509 237.015 132.609C237.187 132.707 237.387 132.756 237.617 132.756C237.766 132.756 237.902 132.735 238.024 132.693C238.147 132.649 238.253 132.585 238.343 132.499C238.432 132.413 238.5 132.307 238.548 132.181L239.292 132.315C239.232 132.534 239.125 132.726 238.971 132.89C238.818 133.053 238.626 133.18 238.395 133.272C238.166 133.361 237.903 133.406 237.609 133.406ZM241.725 133.403C241.399 133.403 241.109 133.32 240.853 133.153C240.598 132.985 240.399 132.746 240.253 132.436C240.109 132.124 240.038 131.749 240.038 131.313C240.038 130.877 240.11 130.503 240.256 130.193C240.403 129.883 240.605 129.645 240.861 129.481C241.116 129.316 241.406 129.233 241.731 129.233C241.981 129.233 242.183 129.275 242.335 129.36C242.49 129.442 242.609 129.538 242.693 129.649C242.779 129.759 242.845 129.857 242.893 129.941H242.94V127.94H243.726V133.324H242.958V132.696H242.893C242.845 132.782 242.777 132.88 242.688 132.99C242.6 133.101 242.479 133.197 242.325 133.28C242.171 133.362 241.971 133.403 241.725 133.403ZM241.899 132.733C242.125 132.733 242.316 132.673 242.472 132.554C242.63 132.433 242.749 132.266 242.83 132.052C242.912 131.838 242.953 131.589 242.953 131.305C242.953 131.025 242.913 130.779 242.832 130.569C242.752 130.359 242.633 130.195 242.477 130.077C242.321 129.96 242.129 129.901 241.899 129.901C241.662 129.901 241.465 129.963 241.307 130.085C241.15 130.208 241.031 130.375 240.95 130.587C240.871 130.799 240.832 131.039 240.832 131.305C240.832 131.575 240.872 131.818 240.953 132.033C241.033 132.249 241.152 132.42 241.31 132.546C241.47 132.67 241.666 132.733 241.899 132.733Z" fill="#60646C"/>
<path d="M271.437 128.631V134.016H270.785V129.315H270.753L269.439 130.188V129.525L270.785 128.631H271.437ZM274.878 128.631V134.016H274.226V129.315H274.194L272.88 130.188V129.525L274.226 128.631H274.878ZM279.171 133.006V132.722C279.171 132.526 279.212 132.346 279.292 132.183C279.375 132.018 279.494 131.887 279.65 131.789C279.807 131.689 279.999 131.639 280.223 131.639C280.451 131.639 280.642 131.689 280.796 131.789C280.95 131.887 281.067 132.018 281.146 132.183C281.225 132.346 281.264 132.526 281.264 132.722V133.006C281.264 133.202 281.224 133.383 281.143 133.548C281.064 133.711 280.947 133.842 280.791 133.942C280.637 134.04 280.447 134.089 280.223 134.089C279.995 134.089 279.803 134.04 279.647 133.942C279.491 133.842 279.373 133.711 279.292 133.548C279.212 133.383 279.171 133.202 279.171 133.006ZM279.708 132.722V133.006C279.708 133.169 279.746 133.315 279.823 133.445C279.9 133.573 280.034 133.637 280.223 133.637C280.407 133.637 280.537 133.573 280.612 133.445C280.689 133.315 280.728 133.169 280.728 133.006V132.722C280.728 132.559 280.691 132.414 280.617 132.286C280.544 132.156 280.412 132.091 280.223 132.091C280.039 132.091 279.907 132.156 279.826 132.286C279.747 132.414 279.708 132.559 279.708 132.722ZM276.49 129.925V129.641C276.49 129.445 276.53 129.265 276.611 129.102C276.693 128.937 276.812 128.806 276.968 128.708C277.126 128.608 277.317 128.558 277.541 128.558C277.769 128.558 277.96 128.608 278.114 128.708C278.269 128.806 278.385 128.937 278.464 129.102C278.543 129.265 278.582 129.445 278.582 129.641V129.925C278.582 130.121 278.542 130.302 278.461 130.466C278.383 130.629 278.265 130.761 278.109 130.861C277.955 130.959 277.766 131.008 277.541 131.008C277.313 131.008 277.121 130.959 276.965 130.861C276.809 130.761 276.691 130.629 276.611 130.466C276.53 130.302 276.49 130.121 276.49 129.925ZM277.026 129.641V129.925C277.026 130.088 277.065 130.234 277.142 130.364C277.219 130.492 277.352 130.556 277.541 130.556C277.725 130.556 277.855 130.492 277.93 130.364C278.007 130.234 278.046 130.088 278.046 129.925V129.641C278.046 129.478 278.009 129.332 277.936 129.204C277.862 129.075 277.731 129.01 277.541 129.01C277.357 129.01 277.225 129.075 277.144 129.204C277.065 129.332 277.026 129.478 277.026 129.641ZM276.689 134.016L280.391 128.631H280.991L277.289 134.016H276.689Z" fill="#80838D"/>
</g>
</g>
<rect x="20.5" y="8.5" width="292" height="167" rx="3.5" stroke="#D9D9E0" shape-rendering="crispEdges"/>
</g>
<defs>
<filter id="filter0_bd_5758_104461" x="-15.8442" y="-27.8442" width="364.688" height="239.688" filterUnits="userSpaceOnUse" color-interpolation-filters="sRGB">
<feFlood flood-opacity="0" result="BackgroundImageFix"/>
<feGaussianBlur in="BackgroundImageFix" stdDeviation="17.9221"/>
<feComposite in2="SourceAlpha" operator="in" result="effect1_backgroundBlur_5758_104461"/>
<feColorMatrix in="SourceAlpha" type="matrix" values="0 0 0 0 0 0 0 0 0 0 0 0 0 0 0 0 0 0 127 0" result="hardAlpha"/>
<feMorphology radius="23.8961" operator="erode" in="SourceAlpha" result="effect2_dropShadow_5758_104461"/>
<feOffset dy="12"/>
<feGaussianBlur stdDeviation="21.5065"/>
<feComposite in2="hardAlpha" operator="out"/>
<feColorMatrix type="matrix" values="0 0 0 0 0.153705 0 0 0 0 0.17665 0 0 0 0 0.350374 0 0 0 0.05 0"/>
<feBlend mode="normal" in2="effect1_backgroundBlur_5758_104461" result="effect2_dropShadow_5758_104461"/>
<feBlend mode="normal" in="SourceGraphic" in2="effect2_dropShadow_5758_104461" result="shape"/>
</filter>
<linearGradient id="paint0_linear_5758_104461" x1="51.4996" y1="67.6675" x2="94.294" y2="36.9616" gradientUnits="userSpaceOnUse">
<stop stop-color="#FF7679"/>
<stop offset="1" stop-color="#C90004"/>
</linearGradient>
<linearGradient id="paint1_linear_5758_104461" x1="147.127" y1="87.4674" x2="94.3939" y2="16.316" gradientUnits="userSpaceOnUse">
<stop stop-color="#0E8B1B"/>
<stop offset="1" stop-color="#37CB46"/>
</linearGradient>
<linearGradient id="paint2_linear_5758_104461" x1="105.935" y1="123.258" x2="158.216" y2="88.6312" gradientUnits="userSpaceOnUse">
<stop stop-color="#FFD300"/>
<stop offset="1" stop-color="#FFE97D" stop-opacity="0.35"/>
<stop offset="1" stop-color="#FAE270"/>
</linearGradient>
<linearGradient id="paint3_linear_5758_104461" x1="57.281" y1="71.9041" x2="62.6066" y2="95.7133" gradientUnits="userSpaceOnUse">
<stop stop-color="#BABABE"/>
<stop offset="1" stop-color="#DEDEDE"/>
</linearGradient>
<linearGradient id="paint4_linear_5758_104461" x1="59.3849" y1="79.3159" x2="95.6012" y2="136.745" gradientUnits="userSpaceOnUse">
<stop stop-color="#878796"/>
<stop offset="1" stop-color="#D4D4D4"/>
</linearGradient>
<clipPath id="clip0_5758_104461">
<rect x="20" y="8" width="293" height="168" rx="4" fill="white"/>
</clipPath>
<clipPath id="clip1_5758_104461">
<path d="M18.5 8.66994C18.5 7.50172 19.447 6.55469 20.6153 6.55469H311.385C312.553 6.55469 313.5 7.50172 313.5 8.66994V174.439C313.5 175.608 312.553 176.555 311.385 176.555H20.6153C19.447 176.555 18.5 175.608 18.5 174.439V8.66994Z" fill="white"/>
</clipPath>
</defs>
</svg>
