<svg width="293" height="168" viewBox="0 0 293 168" fill="none" xmlns="http://www.w3.org/2000/svg">
<g clip-path="url(#clip0_5758_104461)">
<g clip-path="url(#clip1_5758_104461)">
<path d="M-0.367797 1.11525C-0.367797 0.0200419 0.520045 -0.867797 1.61525 -0.867797H291.385C292.48 -0.867797 293.368 0.0200443 293.368 1.11525V166.885C293.368 167.98 292.48 168.868 291.385 168.868H1.61526C0.520049 168.868 -0.367797 167.98 -0.367797 166.885V1.11525Z" fill="white" stroke="#D9D9E0" stroke-width="0.264407"/>
<path d="M51.4093 46.5216V51.1367H50.4335V47.4478H50.4065L49.3496 48.1103V47.245L50.4921 46.5216H51.4093ZM54.514 46.5216V51.1367H53.5382V47.4478H53.5112L52.4543 48.1103V47.245L53.5968 46.5216H54.514ZM58.137 50.2714V50.028C58.137 49.8432 58.176 49.6735 58.2542 49.5187C58.3338 49.3625 58.4487 49.2378 58.5989 49.1447C58.7507 49.05 58.9355 49.0027 59.1533 49.0027C59.3741 49.0027 59.5597 49.0493 59.7099 49.1424C59.8616 49.2355 59.9758 49.3602 60.0524 49.5165C60.1306 49.6712 60.1696 49.8417 60.1696 50.028V50.2714C60.1696 50.4562 60.1306 50.6267 60.0524 50.7829C59.9743 50.9377 59.8594 51.0616 59.7077 51.1547C59.5559 51.2494 59.3711 51.2967 59.1533 51.2967C58.9325 51.2967 58.7469 51.2494 58.5967 51.1547C58.4465 51.0616 58.3323 50.9377 58.2542 50.7829C58.176 50.6267 58.137 50.4562 58.137 50.2714ZM58.7927 50.028V50.2714C58.7927 50.3781 58.8183 50.4787 58.8694 50.5734C58.9219 50.668 59.0166 50.7153 59.1533 50.7153C59.29 50.7153 59.3832 50.6687 59.4327 50.5756C59.4838 50.4825 59.5093 50.3811 59.5093 50.2714V50.028C59.5093 49.9183 59.4853 49.8162 59.4372 49.7215C59.3892 49.6269 59.2945 49.5796 59.1533 49.5796C59.0181 49.5796 58.9242 49.6269 58.8716 49.7215C58.819 49.8162 58.7927 49.9183 58.7927 50.028ZM55.7686 47.6303V47.3869C55.7686 47.2007 55.8084 47.0302 55.888 46.8754C55.9676 46.7192 56.0826 46.5945 56.2328 46.5013C56.3845 46.4082 56.5678 46.3616 56.7826 46.3616C57.005 46.3616 57.1913 46.4082 57.3415 46.5013C57.4917 46.5945 57.6059 46.7192 57.684 46.8754C57.7622 47.0302 57.8012 47.2007 57.8012 47.3869V47.6303C57.8012 47.8166 57.7614 47.9871 57.6818 48.1419C57.6037 48.2966 57.4887 48.4205 57.337 48.5137C57.1868 48.6053 57.002 48.6511 56.7826 48.6511C56.5633 48.6511 56.3778 48.6046 56.226 48.5114C56.0758 48.4168 55.9616 48.2928 55.8835 48.1396C55.8069 47.9849 55.7686 47.8151 55.7686 47.6303ZM56.4289 47.3869V47.6303C56.4289 47.74 56.4544 47.8414 56.5055 47.9345C56.5581 48.0277 56.6504 48.0743 56.7826 48.0743C56.9209 48.0743 57.0148 48.0277 57.0643 47.9345C57.1154 47.8414 57.141 47.74 57.141 47.6303V47.3869C57.141 47.2773 57.1169 47.1751 57.0688 47.0805C57.0208 46.9858 56.9254 46.9385 56.7826 46.9385C56.6489 46.9385 56.5566 46.9866 56.5055 47.0827C56.4544 47.1789 56.4289 47.2803 56.4289 47.3869ZM56.066 51.1367L59.2389 46.5216H59.8293L56.6565 51.1367H56.066Z" fill="white"/>
<path d="M72.8244 33.7927C72.7623 32.6256 71.7646 31.7252 70.6014 31.8394C62.8792 32.5977 55.4403 35.2166 48.92 39.4879C42.3931 43.7634 36.9974 49.5562 33.1808 56.3649C32.6117 57.3802 33.0288 58.6505 34.0649 59.1807L49.9346 67.303C50.9785 67.8372 52.2506 67.4151 52.8613 66.4141C54.9002 63.0726 57.6555 60.2202 60.9355 58.0716C64.2161 55.9226 67.9238 54.5418 71.7856 54.0187C72.9427 53.862 73.8392 52.8751 73.7772 51.7091L72.8244 33.7927Z" fill="url(#paint0_linear_5758_104461)"/>
<path d="M121.203 79.4599C122.371 79.4551 123.319 78.5037 123.264 77.3367C122.992 71.4853 121.689 65.7291 119.415 60.3569C116.868 54.3388 113.156 48.9318 108.512 44.4736C103.868 40.0154 98.3919 36.6017 92.4248 34.4458C87.1207 32.5294 81.5301 31.6434 75.9308 31.8251C74.7681 31.8629 73.901 32.8803 73.9872 34.0404L75.2987 51.6954C75.3856 52.8652 76.409 53.7311 77.5821 53.7416C80.2812 53.7658 82.9637 54.2474 85.5229 55.1721C88.7535 56.3393 91.7185 58.1875 94.2328 60.6012C96.747 63.0149 98.7564 65.9422 100.136 69.2005C101.241 71.8123 101.923 74.5917 102.157 77.4255C102.253 78.5898 103.196 79.5344 104.364 79.5295L121.203 79.4599Z" fill="url(#paint1_linear_5758_104461)"/>
<path d="M74.8575 126.843C74.8575 128.011 75.8052 128.963 76.9723 128.911C88.8538 128.388 100.157 123.472 108.69 115.062C117.226 106.649 122.348 95.3719 123.114 83.421C123.189 82.2554 122.258 81.288 121.09 81.2633L103.805 80.897C102.637 80.8723 101.679 81.8011 101.563 82.9639C100.941 89.2464 98.1476 95.1371 93.6342 99.5854C89.124 104.031 83.2192 106.717 76.9707 107.214C75.8061 107.306 74.8575 108.245 74.8575 109.413L74.8575 126.843Z" fill="url(#paint2_linear_5758_104461)"/>
<path d="M33.4896 60.3423C32.4315 59.8372 31.16 60.2875 30.7069 61.3688C27.1105 69.9518 26.0365 79.3953 27.613 88.5745C27.8112 89.728 28.9457 90.4527 30.0889 90.2017L46.6844 86.5582C47.8232 86.3082 48.5364 85.1841 48.3775 84.0289C47.75 79.4656 48.2794 74.8154 49.9163 70.5132C50.3303 69.4252 49.8907 68.1715 48.8402 67.67L33.4896 60.3423Z" fill="url(#paint3_linear_5758_104461)"/>
<path d="M30.2997 91.1815C29.1668 91.456 28.465 92.5972 28.7848 93.7182C31.4981 103.229 37.0334 111.7 44.673 117.981C52.3073 124.257 61.6511 128.025 71.4443 128.806C72.6092 128.899 73.5902 127.98 73.6312 126.813L74.2317 109.7C74.2726 108.533 73.3581 107.562 72.1979 107.429C67.038 106.839 62.1383 104.768 58.0935 101.443C54.0473 98.116 51.0527 93.695 49.4483 88.7216C49.0889 87.6075 47.9514 86.9033 46.8137 87.179L30.2997 91.1815Z" fill="url(#paint4_linear_5758_104461)"/>
<path d="M60.6708 82.6719V81.0314L64.5039 77.4821C64.8299 77.1667 65.1033 76.8827 65.3242 76.6303C65.5485 76.3779 65.7185 76.1308 65.8342 75.8889C65.9499 75.6436 66.0077 75.3789 66.0077 75.095C66.0077 74.7795 65.9359 74.5078 65.7921 74.28C65.6484 74.0486 65.4521 73.8716 65.2032 73.7489C64.9544 73.6227 64.6722 73.5596 64.3567 73.5596C64.0272 73.5596 63.7397 73.6262 63.4944 73.7594C63.249 73.8926 63.0597 74.0837 62.9265 74.3325C62.7933 74.5814 62.7267 74.8776 62.7267 75.2212H60.5656C60.5656 74.5166 60.7251 73.9049 61.0441 73.3861C61.3631 72.8673 61.81 72.4659 62.3849 72.182C62.9598 71.898 63.6223 71.7561 64.3725 71.7561C65.1437 71.7561 65.8149 71.8928 66.3863 72.1662C66.9612 72.4361 67.4081 72.8112 67.7271 73.2914C68.0461 73.7717 68.2056 74.322 68.2056 74.9425C68.2056 75.3491 68.125 75.7505 67.9637 76.1466C67.806 76.5427 67.5238 76.9826 67.1172 77.4664C66.7106 77.9466 66.1374 78.5232 65.3978 79.1963L63.8256 80.7369V80.8105H68.3476V82.6719H60.6708ZM73.834 82.8191C73.2802 82.8156 72.7456 82.7227 72.2303 82.5404C71.7185 82.3581 71.2593 82.0619 70.8527 81.6518C70.4461 81.2417 70.1236 80.6983 69.8852 80.0218C69.6503 79.3453 69.5329 78.5145 69.5329 77.5295C69.5364 76.6251 69.6398 75.8171 69.8431 75.1055C70.05 74.3904 70.3444 73.784 70.7265 73.2862C71.1121 72.7884 71.573 72.4098 72.1094 72.1504C72.6457 71.8875 73.2469 71.7561 73.9129 71.7561C74.6315 71.7561 75.266 71.8963 75.8163 72.1767C76.3667 72.4537 76.8084 72.8305 77.1414 73.3072C77.4779 73.784 77.6812 74.3185 77.7513 74.9109H75.5061C75.4185 74.5359 75.2344 74.2414 74.954 74.0276C74.6736 73.8137 74.3265 73.7068 73.9129 73.7068C73.2118 73.7068 72.679 74.0118 72.3144 74.6217C71.9534 75.2317 71.7693 76.0607 71.7623 77.1088H71.836C71.9972 76.7898 72.2145 76.5182 72.488 76.2938C72.7649 76.066 73.0786 75.8924 73.4292 75.7733C73.7832 75.6506 74.1565 75.5892 74.5491 75.5892C75.1871 75.5892 75.755 75.74 76.2527 76.0414C76.7505 76.3394 77.1431 76.7495 77.4306 77.2718C77.718 77.7941 77.8617 78.3918 77.8617 79.0648C77.8617 79.7939 77.6917 80.4424 77.3517 81.0103C77.0152 81.5782 76.5437 82.0234 75.9373 82.3459C75.3343 82.6649 74.6333 82.8226 73.834 82.8191ZM73.8235 81.0314C74.174 81.0314 74.4878 80.9472 74.7647 80.779C75.0416 80.6107 75.259 80.3829 75.4167 80.0954C75.5745 79.808 75.6533 79.4855 75.6533 79.1279C75.6533 78.7704 75.5745 78.4496 75.4167 78.1657C75.2625 77.8818 75.0486 77.6557 74.7752 77.4874C74.5018 77.3191 74.1898 77.235 73.8393 77.235C73.5764 77.235 73.3328 77.2841 73.1084 77.3822C72.8876 77.4804 72.693 77.6171 72.5248 77.7924C72.36 77.9676 72.2303 78.171 72.1357 78.4023C72.041 78.6302 71.9937 78.8738 71.9937 79.1332C71.9937 79.4802 72.0726 79.7975 72.2303 80.0849C72.3916 80.3723 72.6089 80.6019 72.8823 80.7737C73.1592 80.9455 73.473 81.0314 73.8235 81.0314ZM85.0741 80.6528V80.0849C85.0741 79.6537 85.1653 79.2576 85.3476 78.8966C85.5333 78.532 85.8015 78.2411 86.152 78.0237C86.5061 77.8029 86.9373 77.6925 87.4455 77.6925C87.9608 77.6925 88.3937 77.8011 88.7443 78.0185C89.0983 78.2358 89.3647 78.5267 89.5435 78.8913C89.7258 79.2524 89.8169 79.6502 89.8169 80.0849V80.6528C89.8169 81.0839 89.7258 81.4818 89.5435 81.8464C89.3612 82.2074 89.0931 82.4966 88.739 82.7139C88.385 82.9348 87.9538 83.0452 87.4455 83.0452C86.9302 83.0452 86.4973 82.9348 86.1468 82.7139C85.7963 82.4966 85.5298 82.2074 85.3476 81.8464C85.1653 81.4818 85.0741 81.0839 85.0741 80.6528ZM86.6042 80.0849V80.6528C86.6042 80.9017 86.6638 81.1365 86.783 81.3574C86.9057 81.5782 87.1265 81.6886 87.4455 81.6886C87.7645 81.6886 87.9819 81.5799 88.0975 81.3626C88.2167 81.1453 88.2763 80.9087 88.2763 80.6528V80.0849C88.2763 79.829 88.2202 79.5906 88.1081 79.3698C87.9959 79.149 87.775 79.0385 87.4455 79.0385C87.1301 79.0385 86.911 79.149 86.7883 79.3698C86.6656 79.5906 86.6042 79.829 86.6042 80.0849ZM79.5479 74.4903V73.9224C79.5479 73.4877 79.6408 73.0899 79.8266 72.7288C80.0124 72.3643 80.2805 72.0733 80.6311 71.856C80.9851 71.6387 81.4128 71.53 81.914 71.53C82.4328 71.53 82.8675 71.6387 83.218 71.856C83.5686 72.0733 83.835 72.3643 84.0173 72.7288C84.1995 73.0899 84.2907 73.4877 84.2907 73.9224V74.4903C84.2907 74.925 84.1978 75.3228 84.012 75.6839C83.8297 76.0449 83.5616 76.3341 83.2075 76.5515C82.857 76.7653 82.4258 76.8722 81.914 76.8722C81.4022 76.8722 80.9693 76.7635 80.6153 76.5462C80.2647 76.3254 79.9983 76.0362 79.816 75.6786C79.6373 75.3176 79.5479 74.9215 79.5479 74.4903ZM81.0885 73.9224V74.4903C81.0885 74.7462 81.1481 74.9828 81.2673 75.2001C81.39 75.4175 81.6056 75.5261 81.914 75.5261C82.2365 75.5261 82.4556 75.4175 82.5713 75.2001C82.6905 74.9828 82.7501 74.7462 82.7501 74.4903V73.9224C82.7501 73.6665 82.694 73.4282 82.5818 73.2073C82.4696 72.9865 82.247 72.8761 81.914 72.8761C81.602 72.8761 81.3865 72.9882 81.2673 73.2126C81.1481 73.4369 81.0885 73.6735 81.0885 73.9224ZM80.242 82.6719L87.6453 71.9033H89.023L81.6196 82.6719H80.242Z" fill="#FFBA18"/>
<path d="M67.8687 89.3238C67.8447 89.1105 67.7455 88.9452 67.5712 88.8281C67.397 88.7094 67.1776 88.65 66.9132 88.65C66.7239 88.65 66.5602 88.6801 66.422 88.7402C66.2838 88.7988 66.1763 88.8799 66.0997 88.9836C66.0246 89.0857 65.987 89.2021 65.987 89.3328C65.987 89.4425 66.0126 89.5372 66.0637 89.6168C66.1162 89.6964 66.1846 89.7633 66.2687 89.8173C66.3544 89.8699 66.446 89.9142 66.5437 89.9503C66.6413 89.9848 66.7352 90.0134 66.8253 90.0359L67.276 90.1531C67.4233 90.1892 67.5742 90.238 67.729 90.2996C67.8837 90.3612 68.0272 90.4423 68.1594 90.543C68.2916 90.6436 68.3983 90.7683 68.4794 90.917C68.562 91.0658 68.6033 91.2438 68.6033 91.4511C68.6033 91.7125 68.5357 91.9446 68.4005 92.1474C68.2668 92.3502 68.0723 92.5102 67.8169 92.6274C67.563 92.7446 67.2557 92.8032 66.8952 92.8032C66.5497 92.8032 66.2507 92.7483 65.9983 92.6387C65.7459 92.529 65.5484 92.3735 65.4057 92.1722C65.2629 91.9694 65.1841 91.729 65.169 91.4511H65.8676C65.8811 91.6179 65.9352 91.7568 66.0299 91.868C66.126 91.9777 66.2484 92.0595 66.3972 92.1136C66.5474 92.1662 66.7119 92.1925 66.8907 92.1925C67.0875 92.1925 67.2625 92.1617 67.4157 92.1001C67.5705 92.037 67.6922 91.9499 67.7808 91.8387C67.8694 91.726 67.9138 91.5946 67.9138 91.4443C67.9138 91.3076 67.8747 91.1957 67.7966 91.1086C67.72 91.0214 67.6156 90.9493 67.4833 90.8922C67.3526 90.8352 67.2047 90.7848 67.0394 90.7413L66.4941 90.5925C66.1245 90.4919 65.8316 90.3439 65.6152 90.1486C65.4004 89.9533 65.293 89.6949 65.293 89.3734C65.293 89.1075 65.3651 88.8754 65.5093 88.6771C65.6535 88.4788 65.8488 88.3248 66.0952 88.2151C66.3416 88.104 66.6195 88.0484 66.929 88.0484C67.2415 88.0484 67.5172 88.1032 67.756 88.2129C67.9964 88.3225 68.1857 88.4735 68.3239 88.6658C68.4621 88.8566 68.5342 89.0759 68.5402 89.3238H67.8687ZM70.9971 89.2652V89.8061H69.1064V89.2652H70.9971ZM69.6134 88.436H70.2872V91.7102C70.2872 91.8409 70.3068 91.9394 70.3458 92.0055C70.3849 92.0701 70.4352 92.1144 70.4968 92.1384C70.5599 92.1609 70.6283 92.1722 70.7019 92.1722C70.7559 92.1722 70.8033 92.1685 70.8438 92.1609C70.8844 92.1534 70.9159 92.1474 70.9385 92.1429L71.0602 92.6995C71.0211 92.7145 70.9655 92.7296 70.8934 92.7446C70.8213 92.7611 70.7312 92.7701 70.623 92.7716C70.4457 92.7746 70.2805 92.7431 70.1272 92.677C69.974 92.6109 69.8501 92.5087 69.7554 92.3705C69.6608 92.2323 69.6134 92.0588 69.6134 91.85V88.436ZM72.7497 92.8032C72.5304 92.8032 72.3321 92.7626 72.1548 92.6815C71.9775 92.5989 71.837 92.4794 71.7334 92.3232C71.6312 92.167 71.5802 91.9754 71.5802 91.7486C71.5802 91.5533 71.6177 91.3925 71.6928 91.2663C71.7679 91.1401 71.8693 91.0402 71.997 90.9666C72.1247 90.893 72.2675 90.8374 72.4252 90.7998C72.5829 90.7623 72.7437 90.7337 72.9074 90.7142C73.1148 90.6902 73.283 90.6706 73.4122 90.6556C73.5414 90.6391 73.6353 90.6128 73.6939 90.5768C73.7525 90.5407 73.7818 90.4821 73.7818 90.401V90.3852C73.7818 90.1884 73.7262 90.0359 73.615 89.9278C73.5054 89.8196 73.3416 89.7655 73.1238 89.7655C72.8969 89.7655 72.7182 89.8158 72.5875 89.9165C72.4583 90.0156 72.3689 90.1261 72.3193 90.2477L71.6861 90.1035C71.7612 89.8932 71.8708 89.7234 72.0151 89.5942C72.1608 89.4635 72.3283 89.3689 72.5176 89.3103C72.7069 89.2502 72.9059 89.2202 73.1148 89.2202C73.253 89.2202 73.3995 89.2367 73.5542 89.2697C73.7104 89.3013 73.8562 89.3599 73.9914 89.4455C74.1281 89.5311 74.24 89.6536 74.3271 89.8128C74.4143 89.9706 74.4578 90.1756 74.4578 90.428V92.7266H73.7998V92.2533H73.7728C73.7292 92.3405 73.6639 92.4261 73.5767 92.5102C73.4896 92.5944 73.3777 92.6642 73.241 92.7198C73.1042 92.7754 72.9405 92.8032 72.7497 92.8032ZM72.8962 92.2623C73.0825 92.2623 73.2417 92.2255 73.3739 92.1519C73.5076 92.0783 73.609 91.9822 73.6781 91.8635C73.7487 91.7433 73.784 91.6149 73.784 91.4781V91.032C73.76 91.056 73.7134 91.0785 73.6443 91.0996C73.5767 91.1191 73.4994 91.1364 73.4122 91.1514C73.3251 91.1649 73.2402 91.1777 73.1576 91.1897C73.075 91.2002 73.0058 91.2092 72.9503 91.2167C72.8196 91.2333 72.7001 91.2611 72.592 91.3001C72.4853 91.3392 72.3997 91.3955 72.3351 91.4691C72.272 91.5412 72.2404 91.6374 72.2404 91.7576C72.2404 91.9243 72.302 92.0505 72.4252 92.1362C72.5484 92.2203 72.7054 92.2623 72.8962 92.2623ZM75.3553 92.7266V89.2652H76.0065V89.8151H76.0426C76.1057 89.6288 76.2168 89.4823 76.3761 89.3757C76.5368 89.2675 76.7186 89.2134 76.9214 89.2134C76.9635 89.2134 77.0131 89.2149 77.0702 89.2179C77.1288 89.2209 77.1746 89.2247 77.2076 89.2292V89.8737C77.1806 89.8662 77.1325 89.8579 77.0634 89.8489C76.9943 89.8384 76.9252 89.8331 76.8561 89.8331C76.6968 89.8331 76.5549 89.8669 76.4302 89.9345C76.307 90.0006 76.2093 90.093 76.1372 90.2117C76.0651 90.3289 76.0291 90.4626 76.0291 90.6128V92.7266H75.3553ZM79.6109 89.2652V89.8061H77.7203V89.2652H79.6109ZM78.2273 88.436H78.9011V91.7102C78.9011 91.8409 78.9206 91.9394 78.9597 92.0055C78.9988 92.0701 79.0491 92.1144 79.1107 92.1384C79.1738 92.1609 79.2421 92.1722 79.3157 92.1722C79.3698 92.1722 79.4171 92.1685 79.4577 92.1609C79.4983 92.1534 79.5298 92.1474 79.5524 92.1429L79.674 92.6995C79.635 92.7145 79.5794 92.7296 79.5073 92.7446C79.4352 92.7611 79.345 92.7701 79.2369 92.7716C79.0596 92.7746 78.8943 92.7431 78.7411 92.677C78.5879 92.6109 78.4639 92.5087 78.3693 92.3705C78.2746 92.2323 78.2273 92.0588 78.2273 91.85V88.436ZM81.8109 92.7964C81.4699 92.7964 81.1762 92.7236 80.9298 92.5778C80.6849 92.4306 80.4956 92.224 80.3619 91.9581C80.2297 91.6907 80.1636 91.3775 80.1636 91.0184C80.1636 90.6639 80.2297 90.3514 80.3619 90.081C80.4956 89.8106 80.6819 89.5995 80.9208 89.4478C81.1611 89.296 81.4421 89.2202 81.7636 89.2202C81.9589 89.2202 82.1482 89.2525 82.3314 89.3171C82.5147 89.3817 82.6792 89.4831 82.825 89.6213C82.9707 89.7595 83.0856 89.939 83.1697 90.1599C83.2539 90.3792 83.2959 90.6459 83.2959 90.9598V91.1987H80.5444V90.6939H82.6357C82.6357 90.5167 82.5996 90.3597 82.5275 90.223C82.4554 90.0847 82.354 89.9758 82.2233 89.8962C82.0941 89.8166 81.9423 89.7768 81.7681 89.7768C81.5788 89.7768 81.4135 89.8233 81.2723 89.9165C81.1326 90.0081 81.0244 90.1283 80.9478 90.277C80.8727 90.4243 80.8351 90.5843 80.8351 90.757V91.1514C80.8351 91.3827 80.8757 91.5795 80.9568 91.7418C81.0395 91.904 81.1544 92.028 81.3016 92.1136C81.4488 92.1977 81.6208 92.2398 81.8177 92.2398C81.9453 92.2398 82.0618 92.2218 82.1669 92.1857C82.2721 92.1482 82.363 92.0926 82.4396 92.019C82.5162 91.9454 82.5748 91.8545 82.6154 91.7463L83.2531 91.8612C83.202 92.049 83.1104 92.2135 82.9782 92.3547C82.8475 92.4945 82.683 92.6034 82.4847 92.6815C82.2879 92.7581 82.0633 92.7964 81.8109 92.7964ZM85.3393 92.7942C85.0598 92.7942 84.8104 92.7228 84.5911 92.5801C84.3733 92.4359 84.202 92.2308 84.0773 91.9649C83.9541 91.6975 83.8925 91.3767 83.8925 91.0027C83.8925 90.6286 83.9549 90.3086 84.0796 90.0427C84.2058 89.7768 84.3785 89.5732 84.5979 89.432C84.8172 89.2908 85.0658 89.2202 85.3438 89.2202C85.5586 89.2202 85.7314 89.2562 85.8621 89.3283C85.9943 89.3989 86.0964 89.4816 86.1685 89.5762C86.2421 89.6709 86.2992 89.7542 86.3398 89.8264H86.3804V88.1115H87.0541V92.7266H86.3961V92.188H86.3398C86.2992 92.2616 86.2406 92.3457 86.164 92.4404C86.0889 92.535 85.9853 92.6176 85.853 92.6883C85.7208 92.7589 85.5496 92.7942 85.3393 92.7942ZM85.488 92.2195C85.6818 92.2195 85.8455 92.1685 85.9792 92.0663C86.1144 91.9626 86.2166 91.8192 86.2857 91.6359C86.3563 91.4526 86.3916 91.2393 86.3916 90.9959C86.3916 90.7555 86.3571 90.5452 86.288 90.3649C86.2189 90.1847 86.1175 90.0442 85.9837 89.9435C85.85 89.8429 85.6848 89.7925 85.488 89.7925C85.2852 89.7925 85.1162 89.8451 84.981 89.9503C84.8457 90.0555 84.7436 90.1989 84.6745 90.3807C84.6069 90.5625 84.5731 90.7675 84.5731 90.9959C84.5731 91.2273 84.6076 91.4353 84.6767 91.6201C84.7458 91.8049 84.848 91.9514 84.9832 92.0595C85.1199 92.1662 85.2882 92.2195 85.488 92.2195Z" fill="#60646C"/>
<path d="M193.079 59.7524H193.894V63.2938C193.894 63.6706 193.806 64.0045 193.629 64.2954C193.452 64.5846 193.203 64.8125 192.882 64.979C192.561 65.1437 192.186 65.2261 191.754 65.2261C191.325 65.2261 190.95 65.1437 190.629 64.979C190.308 64.8125 190.059 64.5846 189.882 64.2954C189.705 64.0045 189.617 63.6706 189.617 63.2938V59.7524H190.429V63.228C190.429 63.4717 190.483 63.6881 190.59 63.8774C190.698 64.0667 190.852 64.2157 191.05 64.3243C191.248 64.4313 191.483 64.4847 191.754 64.4847C192.028 64.4847 192.263 64.4313 192.462 64.3243C192.661 64.2157 192.814 64.0667 192.919 63.8774C193.026 63.6881 193.079 63.4717 193.079 63.228V59.7524ZM195.798 62.739V65.1367H195.012V61.0985H195.767V61.7558H195.817C195.91 61.5419 196.055 61.3702 196.253 61.2405C196.453 61.1108 196.705 61.0459 197.008 61.0459C197.283 61.0459 197.524 61.1038 197.731 61.2194C197.938 61.3334 198.098 61.5034 198.212 61.7295C198.326 61.9556 198.383 62.2351 198.383 62.5681V65.1367H197.597V62.6628C197.597 62.3701 197.52 62.1414 197.368 61.9766C197.216 61.8101 197.006 61.7268 196.74 61.7268C196.557 61.7268 196.395 61.7663 196.253 61.8452C196.113 61.924 196.002 62.0397 195.919 62.1922C195.839 62.3429 195.798 62.5252 195.798 62.739ZM202.463 62.0844L201.751 62.2106C201.721 62.1195 201.674 62.0327 201.609 61.9503C201.546 61.8679 201.46 61.8005 201.351 61.7479C201.242 61.6953 201.107 61.669 200.944 61.669C200.721 61.669 200.535 61.719 200.386 61.8189C200.237 61.917 200.163 62.0441 200.163 62.2001C200.163 62.335 200.213 62.4437 200.313 62.5261C200.412 62.6085 200.574 62.6759 200.796 62.7285L201.438 62.8757C201.809 62.9616 202.086 63.094 202.269 63.2727C202.451 63.4515 202.542 63.6837 202.542 63.9694C202.542 64.2113 202.472 64.4269 202.332 64.6162C202.193 64.8037 202 64.9509 201.751 65.0578C201.503 65.1648 201.217 65.2182 200.891 65.2182C200.439 65.2182 200.07 65.1218 199.784 64.929C199.498 64.7345 199.323 64.4584 199.258 64.1009L200.018 63.9852C200.065 64.1833 200.163 64.3331 200.31 64.4348C200.457 64.5347 200.649 64.5846 200.886 64.5846C201.143 64.5846 201.349 64.5312 201.503 64.4242C201.658 64.3156 201.735 64.1833 201.735 64.0273C201.735 63.9011 201.688 63.795 201.593 63.7091C201.5 63.6233 201.357 63.5584 201.164 63.5146L200.481 63.3647C200.104 63.2789 199.825 63.1422 199.645 62.9546C199.466 62.7671 199.377 62.5296 199.377 62.2421C199.377 62.0038 199.443 61.7952 199.576 61.6164C199.71 61.4377 199.894 61.2983 200.129 61.1984C200.363 61.0968 200.632 61.0459 200.936 61.0459C201.372 61.0459 201.716 61.1406 201.966 61.3299C202.217 61.5174 202.382 61.7689 202.463 62.0844ZM205.291 61.0985V61.7295H203.086V61.0985H205.291ZM203.677 60.131H204.463V63.951C204.463 64.1035 204.486 64.2183 204.531 64.2954C204.577 64.3708 204.636 64.4225 204.708 64.4505C204.781 64.4768 204.861 64.49 204.947 64.49C205.01 64.49 205.065 64.4856 205.113 64.4768C205.16 64.4681 205.197 64.4611 205.223 64.4558L205.365 65.1052C205.319 65.1227 205.254 65.1402 205.17 65.1578C205.086 65.177 204.981 65.1875 204.855 65.1893C204.648 65.1928 204.455 65.156 204.276 65.0789C204.098 65.0018 203.953 64.8826 203.843 64.7213C203.732 64.5601 203.677 64.3576 203.677 64.114V60.131ZM207.336 65.2261C207.08 65.2261 206.849 65.1788 206.642 65.0841C206.435 64.9877 206.271 64.8484 206.15 64.6661C206.031 64.4838 205.972 64.2604 205.972 63.9957C205.972 63.7679 206.015 63.5803 206.103 63.4331C206.191 63.2859 206.309 63.1693 206.458 63.0834C206.607 62.9976 206.773 62.9327 206.957 62.8889C207.141 62.8451 207.329 62.8118 207.52 62.789C207.762 62.7609 207.958 62.7382 208.109 62.7206C208.26 62.7013 208.369 62.6707 208.438 62.6286C208.506 62.5865 208.54 62.5182 208.54 62.4235V62.4051C208.54 62.1755 208.475 61.9976 208.346 61.8714C208.218 61.7453 208.027 61.6822 207.772 61.6822C207.508 61.6822 207.299 61.7409 207.147 61.8583C206.996 61.974 206.892 62.1028 206.834 62.2448L206.095 62.0765C206.183 61.8311 206.311 61.6331 206.479 61.4823C206.649 61.3299 206.844 61.2194 207.065 61.1511C207.286 61.081 207.518 61.0459 207.762 61.0459C207.923 61.0459 208.094 61.0652 208.275 61.1038C208.457 61.1406 208.627 61.2089 208.785 61.3088C208.944 61.4087 209.075 61.5516 209.176 61.7374C209.278 61.9214 209.329 62.1606 209.329 62.4551V65.1367H208.561V64.5846H208.53C208.479 64.6863 208.403 64.7862 208.301 64.8843C208.199 64.9825 208.069 65.064 207.909 65.1288C207.75 65.1937 207.559 65.2261 207.336 65.2261ZM207.507 64.5951C207.724 64.5951 207.91 64.5522 208.064 64.4663C208.22 64.3804 208.339 64.2683 208.419 64.1298C208.502 63.9896 208.543 63.8397 208.543 63.6802V63.1597C208.515 63.1877 208.46 63.214 208.38 63.2385C208.301 63.2613 208.211 63.2815 208.109 63.299C208.007 63.3148 207.908 63.3297 207.812 63.3437C207.715 63.356 207.635 63.3665 207.57 63.3753C207.418 63.3945 207.278 63.427 207.152 63.4725C207.028 63.5181 206.928 63.5838 206.852 63.6697C206.779 63.7538 206.742 63.866 206.742 64.0062C206.742 64.2008 206.814 64.348 206.957 64.4479C207.101 64.5461 207.284 64.5951 207.507 64.5951ZM210.376 65.1367V61.0985H211.136V61.74H211.178C211.251 61.5227 211.381 61.3518 211.567 61.2273C211.754 61.1011 211.966 61.038 212.203 61.038C212.252 61.038 212.31 61.0398 212.377 61.0433C212.445 61.0468 212.498 61.0512 212.537 61.0564V61.8083C212.505 61.7996 212.449 61.7899 212.369 61.7794C212.288 61.7672 212.207 61.761 212.127 61.761C211.941 61.761 211.775 61.8005 211.63 61.8793C211.486 61.9565 211.372 62.0642 211.288 62.2027C211.204 62.3394 211.162 62.4954 211.162 62.6707V65.1367H210.376ZM215.341 61.0985V61.7295H213.135V61.0985H215.341ZM213.727 60.131H214.513V63.951C214.513 64.1035 214.535 64.2183 214.581 64.2954C214.627 64.3708 214.685 64.4225 214.757 64.4505C214.831 64.4768 214.911 64.49 214.996 64.49C215.06 64.49 215.115 64.4856 215.162 64.4768C215.209 64.4681 215.246 64.4611 215.272 64.4558L215.414 65.1052C215.369 65.1227 215.304 65.1402 215.22 65.1578C215.136 65.177 215.031 65.1875 214.904 65.1893C214.698 65.1928 214.505 65.156 214.326 65.0789C214.147 65.0018 214.003 64.8826 213.892 64.7213C213.782 64.5601 213.727 64.3576 213.727 64.114V60.131ZM217.907 65.2182C217.51 65.2182 217.167 65.1332 216.879 64.9632C216.594 64.7914 216.373 64.5504 216.217 64.2402C216.063 63.9282 215.986 63.5628 215.986 63.1439C215.986 62.7303 216.063 62.3657 216.217 62.0502C216.373 61.7347 216.59 61.4885 216.869 61.3115C217.149 61.1344 217.477 61.0459 217.852 61.0459C218.08 61.0459 218.301 61.0836 218.515 61.159C218.729 61.2343 218.92 61.3526 219.09 61.5139C219.26 61.6751 219.395 61.8846 219.493 62.1422C219.591 62.3981 219.64 62.7092 219.64 63.0755V63.3542H216.43V62.7653H218.87C218.87 62.5585 218.828 62.3753 218.743 62.2159C218.659 62.0546 218.541 61.9275 218.389 61.8346C218.238 61.7417 218.061 61.6953 217.857 61.6953C217.637 61.6953 217.444 61.7496 217.279 61.8583C217.116 61.9652 216.99 62.1054 216.9 62.2789C216.813 62.4507 216.769 62.6374 216.769 62.8389V63.299C216.769 63.5689 216.816 63.7985 216.911 63.9878C217.007 64.1771 217.141 64.3217 217.313 64.4216C217.485 64.5198 217.686 64.5688 217.915 64.5688C218.064 64.5688 218.2 64.5478 218.323 64.5057C218.445 64.4619 218.552 64.3971 218.641 64.3112C218.73 64.2253 218.799 64.1193 218.846 63.9931L219.59 64.1272C219.53 64.3463 219.423 64.5382 219.269 64.7029C219.117 64.8659 218.925 64.993 218.694 65.0841C218.464 65.1735 218.202 65.2182 217.907 65.2182ZM222.024 65.2156C221.698 65.2156 221.407 65.1323 221.151 64.9658C220.897 64.7976 220.697 64.5583 220.552 64.2481C220.408 63.9361 220.336 63.5619 220.336 63.1255C220.336 62.6891 220.409 62.3158 220.554 62.0055C220.701 61.6953 220.903 61.4578 221.159 61.2931C221.415 61.1283 221.705 61.0459 222.029 61.0459C222.28 61.0459 222.481 61.088 222.634 61.1721C222.788 61.2545 222.907 61.3509 222.991 61.4613C223.077 61.5717 223.144 61.669 223.191 61.7531H223.238V59.7524H224.025V65.1367H223.257V64.5084H223.191C223.144 64.5943 223.075 64.6924 222.986 64.8028C222.898 64.9132 222.778 65.0096 222.623 65.092C222.469 65.1744 222.269 65.2156 222.024 65.2156ZM222.197 64.5452C222.423 64.5452 222.615 64.4856 222.77 64.3664C222.928 64.2455 223.047 64.0781 223.128 63.8643C223.21 63.6504 223.252 63.4015 223.252 63.1176C223.252 62.8372 223.211 62.5918 223.131 62.3815C223.05 62.1712 222.932 62.0073 222.776 61.8898C222.62 61.7724 222.427 61.7137 222.197 61.7137C221.961 61.7137 221.764 61.775 221.606 61.8977C221.448 62.0204 221.329 62.1878 221.248 62.3999C221.169 62.612 221.13 62.8512 221.13 63.1176C221.13 63.3875 221.17 63.6303 221.251 63.8459C221.332 64.0614 221.451 64.2323 221.608 64.3585C221.768 64.483 221.964 64.5452 222.197 64.5452Z" fill="#60646C"/>
<path d="M251.363 65.2103C251.016 65.2103 250.707 65.1507 250.435 65.0316C250.165 64.9124 249.95 64.7467 249.791 64.5347C249.633 64.3208 249.547 64.0728 249.533 63.7906H250.196C250.21 63.9642 250.269 64.114 250.374 64.2402C250.48 64.3647 250.617 64.4611 250.787 64.5294C250.957 64.5978 251.146 64.6319 251.352 64.6319C251.584 64.6319 251.789 64.5916 251.968 64.511C252.146 64.4304 252.287 64.3182 252.388 64.1745C252.49 64.0308 252.541 63.8643 252.541 63.675C252.541 63.4769 252.492 63.3025 252.394 63.1518C252.295 62.9993 252.152 62.8801 251.962 62.7942C251.773 62.7084 251.542 62.6654 251.268 62.6654H250.837V62.087H251.268C251.482 62.087 251.67 62.0485 251.831 61.9713C251.994 61.8942 252.121 61.7856 252.212 61.6453C252.305 61.5051 252.352 61.3404 252.352 61.1511C252.352 60.9688 252.311 60.8102 252.231 60.6752C252.15 60.5403 252.036 60.4351 251.889 60.3597C251.743 60.2844 251.572 60.2467 251.374 60.2467C251.188 60.2467 251.012 60.2809 250.848 60.3492C250.685 60.4158 250.551 60.5131 250.448 60.6411C250.345 60.7672 250.289 60.9197 250.28 61.0985H249.649C249.659 60.8163 249.744 60.5692 249.904 60.3571C250.063 60.1433 250.272 59.9768 250.53 59.8576C250.789 59.7384 251.074 59.6788 251.384 59.6788C251.717 59.6788 252.003 59.7463 252.241 59.8813C252.479 60.0145 252.663 60.1906 252.791 60.4097C252.919 60.6288 252.982 60.8654 252.982 61.1195C252.982 61.4228 252.903 61.6813 252.743 61.8951C252.585 62.1089 252.371 62.257 252.099 62.3394V62.3815C252.439 62.4376 252.705 62.5822 252.896 62.8153C253.087 63.0466 253.182 63.3332 253.182 63.675C253.182 63.9677 253.103 64.2306 252.943 64.4637C252.785 64.695 252.57 64.8773 252.296 65.0105C252.023 65.1437 251.712 65.2103 251.363 65.2103ZM256.15 59.7524V65.1367H255.498V60.436H255.467L254.152 61.3088V60.6463L255.498 59.7524H256.15ZM260.444 64.1272V63.8432C260.444 63.6469 260.484 63.4673 260.565 63.3043C260.647 63.1395 260.766 63.0081 260.922 62.9099C261.08 62.81 261.271 62.7601 261.495 62.7601C261.723 62.7601 261.914 62.81 262.068 62.9099C262.223 63.0081 262.339 63.1395 262.418 63.3043C262.497 63.4673 262.536 63.6469 262.536 63.8432V64.1272C262.536 64.3235 262.496 64.504 262.415 64.6687C262.337 64.8317 262.219 64.9632 262.063 65.0631C261.909 65.1613 261.72 65.2103 261.495 65.2103C261.267 65.2103 261.076 65.1613 260.92 65.0631C260.764 64.9632 260.645 64.8317 260.565 64.6687C260.484 64.504 260.444 64.3235 260.444 64.1272ZM260.98 63.8432V64.1272C260.98 64.2902 261.019 64.4365 261.096 64.5662C261.173 64.6942 261.306 64.7581 261.495 64.7581C261.679 64.7581 261.809 64.6942 261.884 64.5662C261.962 64.4365 262 64.2902 262 64.1272V63.8432C262 63.6802 261.963 63.5348 261.89 63.4068C261.816 63.2771 261.685 63.2123 261.495 63.2123C261.311 63.2123 261.179 63.2771 261.098 63.4068C261.019 63.5348 260.98 63.6802 260.98 63.8432ZM257.762 61.0459V60.762C257.762 60.5657 257.802 60.386 257.883 60.223C257.965 60.0583 258.085 59.9268 258.241 59.8287C258.398 59.7288 258.589 59.6788 258.814 59.6788C259.042 59.6788 259.233 59.7288 259.387 59.8287C259.541 59.9268 259.658 60.0583 259.736 60.223C259.815 60.386 259.855 60.5657 259.855 60.762V61.0459C259.855 61.2422 259.814 61.4228 259.734 61.5875C259.655 61.7505 259.538 61.882 259.382 61.9819C259.227 62.08 259.038 62.1291 258.814 62.1291C258.586 62.1291 258.394 62.08 258.238 61.9819C258.082 61.882 257.964 61.7505 257.883 61.5875C257.802 61.4228 257.762 61.2422 257.762 61.0459ZM258.298 60.762V61.0459C258.298 61.2089 258.337 61.3553 258.414 61.485C258.491 61.6129 258.624 61.6769 258.814 61.6769C258.998 61.6769 259.127 61.6129 259.203 61.485C259.28 61.3553 259.318 61.2089 259.318 61.0459V60.762C259.318 60.599 259.282 60.4535 259.208 60.3256C259.134 60.1959 259.003 60.131 258.814 60.131C258.63 60.131 258.497 60.1959 258.417 60.3256C258.338 60.4535 258.298 60.599 258.298 60.762ZM257.962 65.1367L261.664 59.7524H262.263L258.561 65.1367H257.962Z" fill="#80838D"/>
<ellipse cx="180.609" cy="62.3132" rx="3.15585" ry="3.17653" fill="#80838D"/>
<path d="M189.617 45.0156V39.6313H191.589C191.971 39.6313 192.287 39.6944 192.538 39.8206C192.788 39.9451 192.976 40.1142 193.1 40.328C193.225 40.5401 193.287 40.7794 193.287 41.0458C193.287 41.2701 193.246 41.4594 193.164 41.6136C193.081 41.7661 192.971 41.8888 192.832 41.9817C192.696 42.0728 192.545 42.1395 192.38 42.1815V42.2341C192.559 42.2429 192.733 42.3007 192.903 42.4076C193.075 42.5128 193.217 42.6626 193.329 42.8572C193.441 43.0517 193.497 43.2883 193.497 43.567C193.497 43.8422 193.433 44.0893 193.303 44.3084C193.175 44.5257 192.977 44.6984 192.709 44.8263C192.441 44.9525 192.098 45.0156 191.681 45.0156H189.617ZM190.429 44.3189H191.602C191.991 44.3189 192.27 44.2436 192.438 44.0928C192.606 43.9421 192.69 43.7537 192.69 43.5276C192.69 43.3576 192.647 43.2016 192.561 43.0596C192.476 42.9176 192.353 42.8046 192.193 42.7205C192.036 42.6363 191.848 42.5943 191.631 42.5943H190.429V44.3189ZM190.429 41.9607H191.518C191.7 41.9607 191.864 41.9256 192.009 41.8555C192.157 41.7854 192.273 41.6873 192.359 41.5611C192.447 41.4331 192.49 41.2824 192.49 41.1089C192.49 40.8863 192.412 40.6996 192.256 40.5489C192.1 40.3981 191.861 40.3228 191.539 40.3228H190.429V41.9607ZM195.573 45.105C195.317 45.105 195.086 45.0577 194.879 44.963C194.672 44.8666 194.508 44.7273 194.387 44.545C194.268 44.3627 194.209 44.1393 194.209 43.8746C194.209 43.6468 194.252 43.4592 194.34 43.312C194.428 43.1648 194.546 43.0482 194.695 42.9623C194.844 42.8765 195.01 42.8116 195.194 42.7678C195.378 42.724 195.566 42.6907 195.757 42.6679C195.999 42.6398 196.195 42.6171 196.346 42.5995C196.497 42.5803 196.606 42.5496 196.675 42.5075C196.743 42.4655 196.777 42.3971 196.777 42.3025V42.284C196.777 42.0544 196.712 41.8765 196.583 41.7504C196.455 41.6242 196.264 41.5611 196.009 41.5611C195.745 41.5611 195.536 41.6198 195.384 41.7372C195.233 41.8529 195.129 41.9817 195.071 42.1237L194.332 41.9554C194.42 41.71 194.548 41.512 194.716 41.3613C194.886 41.2088 195.081 41.0983 195.302 41.03C195.523 40.9599 195.755 40.9248 195.999 40.9248C196.16 40.9248 196.331 40.9441 196.512 40.9827C196.694 41.0195 196.864 41.0878 197.022 41.1877C197.181 41.2876 197.312 41.4305 197.413 41.6163C197.515 41.8003 197.566 42.0395 197.566 42.334V45.0156H196.798V44.4635H196.767C196.716 44.5652 196.64 44.6651 196.538 44.7632C196.436 44.8614 196.306 44.9429 196.146 45.0077C195.987 45.0726 195.796 45.105 195.573 45.105ZM195.744 44.474C195.961 44.474 196.147 44.4311 196.301 44.3452C196.457 44.2593 196.576 44.1472 196.656 44.0087C196.739 43.8685 196.78 43.7186 196.78 43.5591V43.0386C196.752 43.0666 196.697 43.0929 196.617 43.1175C196.538 43.1402 196.448 43.1604 196.346 43.1779C196.244 43.1937 196.145 43.2086 196.049 43.2226C195.952 43.2349 195.872 43.2454 195.807 43.2542C195.655 43.2734 195.515 43.3059 195.389 43.3514C195.265 43.397 195.165 43.4627 195.089 43.5486C195.016 43.6327 194.979 43.7449 194.979 43.8851C194.979 44.0797 195.051 44.2269 195.194 44.3268C195.338 44.425 195.521 44.474 195.744 44.474ZM200.314 45.0971C199.923 45.0971 199.586 45.0086 199.304 44.8316C199.024 44.6528 198.808 44.4066 198.658 44.0928C198.507 43.7791 198.431 43.4198 198.431 43.0149C198.431 42.6048 198.509 42.2429 198.663 41.9291C198.817 41.6136 199.034 41.3674 199.315 41.1904C199.595 41.0133 199.926 40.9248 200.306 40.9248C200.613 40.9248 200.886 40.9818 201.126 41.0957C201.366 41.2079 201.56 41.3656 201.707 41.5689C201.856 41.7723 201.945 42.0098 201.973 42.2814H201.208C201.166 42.0921 201.069 41.9291 200.919 41.7924C200.77 41.6557 200.57 41.5874 200.319 41.5874C200.1 41.5874 199.908 41.6452 199.743 41.7609C199.58 41.8748 199.453 42.0378 199.362 42.2499C199.271 42.4602 199.225 42.7091 199.225 42.9965C199.225 43.291 199.27 43.5451 199.36 43.7589C199.449 43.9728 199.575 44.1384 199.738 44.2558C199.903 44.3733 200.097 44.432 200.319 44.432C200.468 44.432 200.603 44.4048 200.724 44.3505C200.847 44.2944 200.949 44.2146 201.032 44.1112C201.116 44.0078 201.174 43.8834 201.208 43.7379H201.973C201.945 43.9991 201.86 44.2322 201.718 44.4372C201.576 44.6423 201.386 44.8035 201.147 44.921C200.911 45.0384 200.633 45.0971 200.314 45.0971ZM203.536 43.6459L203.531 42.6863H203.668L205.277 40.9774H206.218L204.383 42.9229H204.259L203.536 43.6459ZM202.813 45.0156V39.6313H203.599V45.0156H202.813ZM205.364 45.0156L203.918 43.0964L204.459 42.547L206.328 45.0156H205.364ZM207.721 39.6313V45.0156H206.934V39.6313H207.721ZM210.479 45.0971C210.1 45.0971 209.77 45.0104 209.488 44.8368C209.206 44.6633 208.987 44.4206 208.831 44.1086C208.675 43.7966 208.597 43.4321 208.597 43.0149C208.597 42.596 208.675 42.2297 208.831 41.916C208.987 41.6022 209.206 41.3586 209.488 41.1851C209.77 41.0116 210.1 40.9248 210.479 40.9248C210.858 40.9248 211.188 41.0116 211.47 41.1851C211.752 41.3586 211.971 41.6022 212.127 41.916C212.283 42.2297 212.361 42.596 212.361 43.0149C212.361 43.4321 212.283 43.7966 212.127 44.1086C211.971 44.4206 211.752 44.6633 211.47 44.8368C211.188 45.0104 210.858 45.0971 210.479 45.0971ZM210.482 44.4372C210.727 44.4372 210.93 44.3724 211.092 44.2427C211.253 44.113 211.372 43.9403 211.449 43.7248C211.528 43.5092 211.567 43.2717 211.567 43.0123C211.567 42.7546 211.528 42.518 211.449 42.3025C211.372 42.0851 211.253 41.9107 211.092 41.7793C210.93 41.6478 210.727 41.5821 210.482 41.5821C210.235 41.5821 210.029 41.6478 209.866 41.7793C209.705 41.9107 209.585 42.0851 209.506 42.3025C209.429 42.518 209.391 42.7546 209.391 43.0123C209.391 43.2717 209.429 43.5092 209.506 43.7248C209.585 43.9403 209.705 44.113 209.866 44.2427C210.029 44.3724 210.235 44.4372 210.482 44.4372ZM214.932 46.6141C214.611 46.6141 214.335 46.572 214.104 46.4879C213.874 46.4038 213.687 46.2925 213.541 46.154C213.396 46.0155 213.287 45.8639 213.215 45.6992L213.891 45.4205C213.938 45.4976 214.001 45.5791 214.08 45.665C214.161 45.7526 214.269 45.8271 214.406 45.8885C214.545 45.9498 214.723 45.9805 214.94 45.9805C215.238 45.9805 215.484 45.9077 215.679 45.7623C215.873 45.6186 215.97 45.3889 215.97 45.0735V44.2795H215.921C215.873 44.3654 215.805 44.4609 215.715 44.5661C215.628 44.6712 215.507 44.7624 215.353 44.8395C215.198 44.9166 214.998 44.9552 214.751 44.9552C214.432 44.9552 214.144 44.8807 213.888 44.7317C213.634 44.581 213.433 44.3592 213.284 44.0665C213.136 43.7721 213.063 43.4102 213.063 42.9807C213.063 42.5513 213.135 42.1833 213.281 41.8765C213.428 41.5698 213.63 41.335 213.886 41.172C214.142 41.0072 214.432 40.9248 214.756 40.9248C215.006 40.9248 215.209 40.9669 215.363 41.051C215.517 41.1334 215.637 41.2298 215.723 41.3402C215.811 41.4506 215.878 41.5479 215.926 41.632H215.984V40.9774H216.754V45.105C216.754 45.452 216.673 45.7369 216.512 45.9595C216.351 46.182 216.133 46.3468 215.857 46.4537C215.584 46.5606 215.276 46.6141 214.932 46.6141ZM214.924 44.3032C215.15 44.3032 215.341 44.2506 215.497 44.1454C215.655 44.0385 215.774 43.886 215.855 43.688C215.937 43.4882 215.978 43.2489 215.978 42.9702C215.978 42.6986 215.938 42.4593 215.857 42.2525C215.777 42.0457 215.658 41.8844 215.502 41.7688C215.347 41.6513 215.154 41.5926 214.924 41.5926C214.687 41.5926 214.49 41.654 214.333 41.7766C214.175 41.8976 214.056 42.0623 213.975 42.2709C213.896 42.4795 213.857 42.7126 213.857 42.9702C213.857 43.2349 213.897 43.4671 213.978 43.6669C214.058 43.8667 214.177 44.0227 214.335 44.1349C214.495 44.2471 214.691 44.3032 214.924 44.3032Z" fill="#60646C"/>
<path d="M251.268 45.0892C250.907 45.0892 250.588 45.0253 250.311 44.8973C250.036 44.7676 249.821 44.5897 249.667 44.3636C249.513 44.1358 249.437 43.8764 249.439 43.5854C249.437 43.3576 249.481 43.1473 249.573 42.9545C249.664 42.7599 249.788 42.5978 249.946 42.4681C250.105 42.3366 250.283 42.2534 250.48 42.2183V42.1868C250.222 42.1202 250.017 41.9756 249.864 41.753C249.712 41.5286 249.637 41.2736 249.638 40.9879C249.637 40.7145 249.706 40.47 249.846 40.2544C249.986 40.0388 250.179 39.8688 250.424 39.7444C250.672 39.6199 250.953 39.5577 251.268 39.5577C251.58 39.5577 251.859 39.6199 252.104 39.7444C252.35 39.8688 252.543 40.0388 252.683 40.2544C252.825 40.47 252.897 40.7145 252.898 40.9879C252.897 41.2736 252.819 41.5286 252.664 41.753C252.512 41.9756 252.309 42.1202 252.057 42.1868V42.2183C252.252 42.2534 252.427 42.3366 252.583 42.4681C252.739 42.5978 252.863 42.7599 252.956 42.9545C253.049 43.1473 253.096 43.3576 253.098 43.5854C253.096 43.8764 253.018 44.1358 252.862 44.3636C252.707 44.5897 252.493 44.7676 252.217 44.8973C251.944 45.0253 251.628 45.0892 251.268 45.0892ZM251.268 44.5108C251.512 44.5108 251.722 44.4714 251.899 44.3925C252.076 44.3137 252.213 44.2024 252.309 44.0587C252.406 43.9149 252.455 43.7467 252.457 43.5539C252.455 43.3506 252.402 43.1709 252.299 43.0149C252.196 42.8589 252.054 42.7362 251.876 42.6469C251.699 42.5575 251.496 42.5128 251.268 42.5128C251.039 42.5128 250.834 42.5575 250.653 42.6469C250.474 42.7362 250.333 42.8589 250.23 43.0149C250.128 43.1709 250.078 43.3506 250.08 43.5539C250.078 43.7467 250.125 43.9149 250.219 44.0587C250.316 44.2024 250.453 44.3137 250.632 44.3925C250.811 44.4714 251.023 44.5108 251.268 44.5108ZM251.268 41.9554C251.461 41.9554 251.632 41.9169 251.781 41.8397C251.932 41.7626 252.05 41.6548 252.136 41.5164C252.222 41.3779 252.266 41.2158 252.267 41.03C252.266 40.8477 252.223 40.6891 252.139 40.5541C252.054 40.4174 251.938 40.3123 251.789 40.2387C251.64 40.1633 251.466 40.1256 251.268 40.1256C251.067 40.1256 250.891 40.1633 250.74 40.2387C250.589 40.3123 250.473 40.4174 250.39 40.5541C250.308 40.6891 250.268 40.8477 250.269 41.03C250.268 41.2158 250.309 41.3779 250.393 41.5164C250.479 41.6548 250.597 41.7626 250.748 41.8397C250.899 41.9169 251.072 41.9554 251.268 41.9554ZM256.85 44.0061V43.7221C256.85 43.5258 256.891 43.3462 256.971 43.1832C257.054 43.0184 257.173 42.887 257.329 42.7888C257.487 42.6889 257.678 42.639 257.902 42.639C258.13 42.639 258.321 42.6889 258.475 42.7888C258.629 42.887 258.746 43.0184 258.825 43.1832C258.904 43.3462 258.943 43.5258 258.943 43.7221V44.0061C258.943 44.2024 258.903 44.3829 258.822 44.5477C258.743 44.7107 258.626 44.8421 258.47 44.942C258.316 45.0402 258.126 45.0892 257.902 45.0892C257.674 45.0892 257.482 45.0402 257.326 44.942C257.17 44.8421 257.052 44.7107 256.971 44.5477C256.891 44.3829 256.85 44.2024 256.85 44.0061ZM257.387 43.7221V44.0061C257.387 44.1691 257.425 44.3154 257.502 44.4451C257.58 44.5731 257.713 44.637 257.902 44.637C258.086 44.637 258.216 44.5731 258.291 44.4451C258.368 44.3154 258.407 44.1691 258.407 44.0061V43.7221C258.407 43.5591 258.37 43.4137 258.296 43.2857C258.223 43.156 258.091 43.0912 257.902 43.0912C257.718 43.0912 257.586 43.156 257.505 43.2857C257.426 43.4137 257.387 43.5591 257.387 43.7221ZM254.169 40.9248V40.6409C254.169 40.4446 254.209 40.2649 254.29 40.1019C254.372 39.9372 254.491 39.8057 254.647 39.7076C254.805 39.6077 254.996 39.5577 255.22 39.5577C255.448 39.5577 255.639 39.6077 255.794 39.7076C255.948 39.8057 256.064 39.9372 256.143 40.1019C256.222 40.2649 256.262 40.4446 256.262 40.6409V40.9248C256.262 41.1211 256.221 41.3017 256.141 41.4664C256.062 41.6294 255.944 41.7609 255.788 41.8608C255.634 41.9589 255.445 42.008 255.22 42.008C254.993 42.008 254.801 41.9589 254.645 41.8608C254.489 41.7609 254.37 41.6294 254.29 41.4664C254.209 41.3017 254.169 41.1211 254.169 40.9248ZM254.705 40.6409V40.9248C254.705 41.0878 254.744 41.2342 254.821 41.3639C254.898 41.4918 255.031 41.5558 255.22 41.5558C255.404 41.5558 255.534 41.4918 255.61 41.3639C255.687 41.2342 255.725 41.0878 255.725 40.9248V40.6409C255.725 40.4779 255.688 40.3324 255.615 40.2045C255.541 40.0748 255.41 40.0099 255.22 40.0099C255.036 40.0099 254.904 40.0748 254.823 40.2045C254.745 40.3324 254.705 40.4779 254.705 40.6409ZM254.369 45.0156L258.07 39.6313H258.67L254.968 45.0156H254.369Z" fill="#80838D"/>
<ellipse cx="180.609" cy="42.1922" rx="3.15585" ry="3.17653" fill="#CDCED6"/>
<path d="M192.553 81.2801C192.525 81.0313 192.41 80.8385 192.206 80.7018C192.003 80.5633 191.747 80.4941 191.439 80.4941C191.218 80.4941 191.027 80.5291 190.866 80.5992C190.704 80.6676 190.579 80.7622 190.49 80.8832C190.402 81.0023 190.358 81.1382 190.358 81.2907C190.358 81.4186 190.388 81.529 190.448 81.6219C190.509 81.7148 190.589 81.7928 190.687 81.8559C190.787 81.9172 190.894 81.969 191.008 82.011C191.121 82.0513 191.231 82.0846 191.336 82.1109L191.862 82.2476C192.034 82.2897 192.21 82.3467 192.39 82.4185C192.571 82.4904 192.738 82.585 192.893 82.7025C193.047 82.8199 193.171 82.9654 193.266 83.1389C193.362 83.3124 193.411 83.5201 193.411 83.762C193.411 84.0669 193.332 84.3377 193.174 84.5743C193.018 84.8109 192.791 84.9976 192.493 85.1343C192.197 85.271 191.838 85.3394 191.418 85.3394C191.015 85.3394 190.666 85.2754 190.371 85.1475C190.077 85.0195 189.846 84.8381 189.68 84.6033C189.513 84.3666 189.421 84.0862 189.404 83.762H190.219C190.235 83.9565 190.298 84.1186 190.408 84.2483C190.52 84.3763 190.663 84.4718 190.837 84.5349C191.012 84.5962 191.204 84.6269 191.412 84.6269C191.642 84.6269 191.846 84.591 192.025 84.5191C192.206 84.4455 192.348 84.3439 192.451 84.2142C192.554 84.0827 192.606 83.9293 192.606 83.7541C192.606 83.5946 192.56 83.464 192.469 83.3623C192.38 83.2607 192.258 83.1766 192.104 83.11C191.951 83.0434 191.779 82.9846 191.586 82.9338L190.95 82.7603C190.519 82.6429 190.177 82.4702 189.924 82.2424C189.674 82.0145 189.548 81.7131 189.548 81.338C189.548 81.0278 189.633 80.757 189.801 80.5256C189.969 80.2943 190.197 80.1146 190.484 79.9867C190.772 79.857 191.096 79.7921 191.457 79.7921C191.822 79.7921 192.143 79.8561 192.422 79.984C192.702 80.112 192.923 80.2881 193.085 80.5125C193.246 80.7351 193.33 80.9909 193.337 81.2801H192.553ZM196.203 81.2118V81.8428H193.997V81.2118H196.203ZM194.589 80.2443H195.375V84.0643C195.375 84.2168 195.398 84.3316 195.443 84.4087C195.489 84.4841 195.548 84.5358 195.62 84.5638C195.693 84.5901 195.773 84.6033 195.859 84.6033C195.922 84.6033 195.977 84.5989 196.024 84.5901C196.072 84.5813 196.109 84.5743 196.135 84.5691L196.277 85.2185C196.231 85.236 196.166 85.2535 196.082 85.271C195.998 85.2903 195.893 85.3008 195.767 85.3026C195.56 85.3061 195.367 85.2693 195.188 85.1922C195.01 85.115 194.865 84.9959 194.755 84.8346C194.644 84.6734 194.589 84.4709 194.589 84.2273V80.2443ZM198.248 85.3394C197.992 85.3394 197.761 85.2921 197.554 85.1974C197.347 85.101 197.183 84.9617 197.062 84.7794C196.943 84.5971 196.883 84.3737 196.883 84.109C196.883 83.8811 196.927 83.6936 197.015 83.5464C197.103 83.3992 197.221 83.2826 197.37 83.1967C197.519 83.1108 197.685 83.046 197.869 83.0022C198.053 82.9583 198.241 82.925 198.432 82.9023C198.674 82.8742 198.87 82.8514 199.021 82.8339C199.172 82.8146 199.281 82.784 199.35 82.7419C199.418 82.6998 199.452 82.6315 199.452 82.5368V82.5184C199.452 82.2888 199.387 82.1109 199.258 81.9847C199.13 81.8585 198.939 81.7954 198.684 81.7954C198.42 81.7954 198.211 81.8542 198.059 81.9716C197.908 82.0873 197.804 82.2161 197.746 82.3581L197.007 82.1898C197.095 81.9444 197.223 81.7464 197.391 81.5956C197.561 81.4431 197.756 81.3327 197.977 81.2644C198.198 81.1943 198.43 81.1592 198.674 81.1592C198.835 81.1592 199.006 81.1785 199.187 81.217C199.369 81.2539 199.539 81.3222 199.697 81.4221C199.856 81.522 199.987 81.6649 200.088 81.8506C200.19 82.0347 200.241 82.2739 200.241 82.5684V85.25H199.473V84.6979H199.442C199.391 84.7996 199.314 84.8995 199.213 84.9976C199.111 85.0958 198.981 85.1773 198.821 85.2421C198.662 85.307 198.471 85.3394 198.248 85.3394ZM198.419 84.7084C198.636 84.7084 198.822 84.6655 198.976 84.5796C199.132 84.4937 199.25 84.3815 199.331 84.2431C199.413 84.1029 199.455 83.953 199.455 83.7935V83.273C199.427 83.301 199.372 83.3273 199.292 83.3518C199.213 83.3746 199.123 83.3948 199.021 83.4123C198.919 83.4281 198.82 83.443 198.724 83.457C198.627 83.4693 198.547 83.4798 198.482 83.4885C198.329 83.5078 198.19 83.5402 198.064 83.5858C197.939 83.6314 197.84 83.6971 197.764 83.783C197.691 83.8671 197.654 83.9793 197.654 84.1195C197.654 84.3141 197.726 84.4613 197.869 84.5612C198.013 84.6593 198.196 84.7084 198.419 84.7084ZM201.288 85.25V81.2118H202.048V81.8533H202.09C202.163 81.6359 202.293 81.4651 202.479 81.3406C202.666 81.2144 202.878 81.1513 203.115 81.1513C203.164 81.1513 203.222 81.1531 203.288 81.1566C203.357 81.1601 203.41 81.1645 203.449 81.1697V81.9216C203.417 81.9129 203.361 81.9032 203.281 81.8927C203.2 81.8804 203.119 81.8743 203.039 81.8743C202.853 81.8743 202.687 81.9137 202.542 81.9926C202.398 82.0697 202.284 82.1775 202.2 82.316C202.116 82.4527 202.074 82.6087 202.074 82.784V85.25H201.288ZM206.253 81.2118V81.8428H204.047V81.2118H206.253ZM204.639 80.2443H205.425V84.0643C205.425 84.2168 205.447 84.3316 205.493 84.4087C205.539 84.4841 205.597 84.5358 205.669 84.5638C205.743 84.5901 205.822 84.6033 205.908 84.6033C205.971 84.6033 206.027 84.5989 206.074 84.5901C206.121 84.5813 206.158 84.5743 206.184 84.5691L206.326 85.2185C206.281 85.236 206.216 85.2535 206.132 85.271C206.048 85.2903 205.943 85.3008 205.816 85.3026C205.61 85.3061 205.417 85.2693 205.238 85.1922C205.059 85.115 204.915 84.9959 204.804 84.8346C204.694 84.6734 204.639 84.4709 204.639 84.2273V80.2443ZM208.819 85.3315C208.421 85.3315 208.079 85.2465 207.791 85.0765C207.506 84.9047 207.285 84.6637 207.129 84.3535C206.975 84.0415 206.898 83.6761 206.898 83.2572C206.898 82.8435 206.975 82.479 207.129 82.1635C207.285 81.848 207.502 81.6018 207.781 81.4247C208.061 81.2477 208.389 81.1592 208.764 81.1592C208.992 81.1592 209.213 81.1969 209.427 81.2723C209.64 81.3476 209.832 81.4659 210.002 81.6272C210.172 81.7884 210.307 81.9979 210.405 82.2555C210.503 82.5114 210.552 82.8225 210.552 83.1888V83.4675H207.342V82.8786H209.782C209.782 82.6718 209.74 82.4886 209.655 82.3291C209.571 82.1679 209.453 82.0408 209.3 81.9479C209.15 81.855 208.973 81.8086 208.769 81.8086C208.549 81.8086 208.356 81.8629 208.191 81.9716C208.028 82.0785 207.902 82.2187 207.812 82.3922C207.725 82.564 207.681 82.7507 207.681 82.9522V83.4123C207.681 83.6822 207.728 83.9118 207.823 84.1011C207.919 84.2904 208.053 84.435 208.225 84.5349C208.397 84.6331 208.598 84.6821 208.827 84.6821C208.976 84.6821 209.112 84.6611 209.235 84.619C209.357 84.5752 209.463 84.5104 209.553 84.4245C209.642 84.3386 209.711 84.2326 209.758 84.1064L210.502 84.2404C210.442 84.4595 210.335 84.6515 210.181 84.8162C210.029 84.9792 209.837 85.1063 209.605 85.1974C209.376 85.2868 209.114 85.3315 208.819 85.3315ZM212.936 85.3289C212.61 85.3289 212.319 85.2456 212.063 85.0791C211.809 84.9109 211.609 84.6716 211.464 84.3614C211.32 84.0494 211.248 83.6752 211.248 83.2388C211.248 82.8024 211.321 82.429 211.466 82.1188C211.613 81.8086 211.815 81.5711 212.071 81.4063C212.327 81.2416 212.617 81.1592 212.941 81.1592C213.192 81.1592 213.393 81.2013 213.546 81.2854C213.7 81.3678 213.819 81.4642 213.903 81.5746C213.989 81.685 214.056 81.7823 214.103 81.8664H214.15V79.8657H214.936V85.25H214.169V84.6217H214.103C214.056 84.7075 213.987 84.8057 213.898 84.9161C213.81 85.0265 213.689 85.1229 213.535 85.2053C213.381 85.2877 213.181 85.3289 212.936 85.3289ZM213.109 84.6585C213.335 84.6585 213.526 84.5989 213.682 84.4797C213.84 84.3588 213.959 84.1914 214.04 83.9775C214.122 83.7637 214.164 83.5148 214.164 83.2309C214.164 82.9505 214.123 82.7051 214.043 82.4948C213.962 82.2844 213.844 82.1206 213.688 82.0031C213.532 81.8857 213.339 81.827 213.109 81.827C212.873 81.827 212.675 81.8883 212.518 82.011C212.36 82.1337 212.241 82.3011 212.16 82.5132C212.081 82.7252 212.042 82.9645 212.042 83.2309C212.042 83.5008 212.082 83.7436 212.163 83.9591C212.243 84.1747 212.363 84.3456 212.52 84.4718C212.68 84.5962 212.876 84.6585 213.109 84.6585Z" fill="#60646C"/>
<path d="M250.071 85.25V84.7768L251.848 82.8313C252.057 82.6034 252.229 82.4054 252.364 82.2371C252.499 82.0671 252.598 81.9076 252.663 81.7586C252.73 81.6079 252.763 81.4502 252.763 81.2854C252.763 81.0961 252.718 80.9322 252.626 80.7938C252.537 80.6553 252.414 80.5484 252.258 80.473C252.102 80.3977 251.927 80.36 251.733 80.36C251.526 80.36 251.345 80.4029 251.191 80.4888C251.039 80.5729 250.92 80.6912 250.836 80.8437C250.754 80.9962 250.713 81.175 250.713 81.38H250.092C250.092 81.0646 250.165 80.7876 250.31 80.5493C250.456 80.3109 250.654 80.1251 250.904 79.9919C251.157 79.8587 251.44 79.7921 251.754 79.7921C252.069 79.7921 252.349 79.8587 252.592 79.9919C252.836 80.1251 253.027 80.3048 253.165 80.5309C253.304 80.757 253.373 81.0085 253.373 81.2854C253.373 81.4835 253.337 81.6771 253.265 81.8664C253.195 82.054 253.073 82.2634 252.897 82.4948C252.724 82.7244 252.483 83.0048 252.174 83.3361L250.965 84.6295V84.6716H253.468V85.25H250.071ZM256.341 85.3236C256.12 85.3201 255.9 85.278 255.679 85.1974C255.458 85.1168 255.256 84.981 255.074 84.7899C254.892 84.5971 254.745 84.3368 254.635 84.0091C254.525 83.6796 254.469 83.2659 254.469 82.7682C254.469 82.2914 254.514 81.869 254.604 81.501C254.693 81.1312 254.823 80.8201 254.993 80.5677C255.163 80.3135 255.368 80.1207 255.608 79.9893C255.85 79.8578 256.122 79.7921 256.425 79.7921C256.727 79.7921 256.995 79.8526 257.23 79.9735C257.467 80.0927 257.659 80.2592 257.808 80.473C257.957 80.6869 258.054 80.9331 258.098 81.2118H257.456C257.396 80.9699 257.281 80.7692 257.109 80.6097C256.937 80.4502 256.709 80.3705 256.425 80.3705C256.008 80.3705 255.68 80.5519 255.44 80.9147C255.201 81.2775 255.081 81.7867 255.079 82.4422H255.121C255.22 82.2932 255.336 82.1661 255.471 82.061C255.608 81.9541 255.759 81.8717 255.923 81.8138C256.088 81.756 256.262 81.7271 256.446 81.7271C256.755 81.7271 257.037 81.8042 257.293 81.9584C257.549 82.1109 257.754 82.3221 257.908 82.592C258.062 82.8602 258.14 83.1678 258.14 83.5148C258.14 83.8478 258.065 84.1528 257.916 84.4297C257.767 84.7049 257.558 84.924 257.288 85.087C257.02 85.2482 256.704 85.3271 256.341 85.3236ZM256.341 84.7452C256.562 84.7452 256.76 84.69 256.935 84.5796C257.112 84.4692 257.252 84.3211 257.353 84.1353C257.457 83.9495 257.509 83.7427 257.509 83.5148C257.509 83.2922 257.459 83.0898 257.359 82.9075C257.261 82.7235 257.125 82.5771 256.951 82.4685C256.779 82.3598 256.583 82.3055 256.362 82.3055C256.196 82.3055 256.041 82.3388 255.897 82.4054C255.753 82.4702 255.627 82.5596 255.518 82.6735C255.411 82.7875 255.327 82.918 255.266 83.0653C255.205 83.2107 255.174 83.3641 255.174 83.5253C255.174 83.7392 255.224 83.939 255.324 84.1248C255.426 84.3106 255.564 84.4604 255.739 84.5743C255.916 84.6883 256.117 84.7452 256.341 84.7452ZM261.918 84.2404V83.9565C261.918 83.7602 261.958 83.5806 262.039 83.4176C262.121 83.2528 262.241 83.1214 262.397 83.0232C262.554 82.9233 262.745 82.8733 262.97 82.8733C263.198 82.8733 263.389 82.9233 263.543 83.0232C263.697 83.1214 263.814 83.2528 263.893 83.4176C263.971 83.5806 264.011 83.7602 264.011 83.9565V84.2404C264.011 84.4367 263.971 84.6173 263.89 84.782C263.811 84.945 263.694 85.0765 263.538 85.1764C263.383 85.2745 263.194 85.3236 262.97 85.3236C262.742 85.3236 262.55 85.2745 262.394 85.1764C262.238 85.0765 262.12 84.945 262.039 84.782C261.958 84.6173 261.918 84.4367 261.918 84.2404ZM262.454 83.9565V84.2404C262.454 84.4034 262.493 84.5498 262.57 84.6795C262.647 84.8074 262.78 84.8714 262.97 84.8714C263.154 84.8714 263.284 84.8074 263.359 84.6795C263.436 84.5498 263.475 84.4034 263.475 84.2404V83.9565C263.475 83.7935 263.438 83.648 263.364 83.5201C263.291 83.3904 263.159 83.3255 262.97 83.3255C262.786 83.3255 262.653 83.3904 262.573 83.5201C262.494 83.648 262.454 83.7935 262.454 83.9565ZM259.237 81.1592V80.8753C259.237 80.679 259.277 80.4993 259.357 80.3363C259.44 80.1716 259.559 80.0401 259.715 79.942C259.873 79.8421 260.064 79.7921 260.288 79.7921C260.516 79.7921 260.707 79.8421 260.861 79.942C261.016 80.0401 261.132 80.1716 261.211 80.3363C261.29 80.4993 261.329 80.679 261.329 80.8753V81.1592C261.329 81.3555 261.289 81.536 261.208 81.7008C261.129 81.8638 261.012 81.9952 260.856 82.0951C260.702 82.1933 260.512 82.2424 260.288 82.2424C260.06 82.2424 259.868 82.1933 259.712 82.0951C259.556 81.9952 259.438 81.8638 259.357 81.7008C259.277 81.536 259.237 81.3555 259.237 81.1592ZM259.773 80.8753V81.1592C259.773 81.3222 259.811 81.4686 259.889 81.5983C259.966 81.7262 260.099 81.7902 260.288 81.7902C260.472 81.7902 260.602 81.7262 260.677 81.5983C260.754 81.4686 260.793 81.3222 260.793 81.1592V80.8753C260.793 80.7123 260.756 80.5668 260.683 80.4388C260.609 80.3091 260.477 80.2443 260.288 80.2443C260.104 80.2443 259.972 80.3091 259.891 80.4388C259.812 80.5668 259.773 80.7123 259.773 80.8753ZM259.436 85.25L263.138 79.8657H263.737L260.036 85.25H259.436Z" fill="#80838D"/>
<ellipse cx="181.136" cy="82.4265" rx="3.15585" ry="3.17653" fill="#FFC53D"/>
<path d="M190.835 105.363H189.092V99.979H190.89C191.417 99.979 191.87 100.087 192.249 100.302C192.628 100.516 192.918 100.824 193.119 101.225C193.323 101.625 193.424 102.104 193.424 102.663C193.424 103.224 193.322 103.706 193.117 104.109C192.913 104.512 192.619 104.823 192.233 105.04C191.848 105.255 191.381 105.363 190.835 105.363ZM189.904 104.653H190.79C191.2 104.653 191.541 104.576 191.813 104.422C192.084 104.266 192.288 104.041 192.423 103.746C192.557 103.45 192.625 103.089 192.625 102.663C192.625 102.241 192.557 101.882 192.423 101.588C192.289 101.294 192.09 101.07 191.826 100.918C191.561 100.765 191.232 100.689 190.84 100.689H189.904V104.653ZM196.072 105.445C195.694 105.445 195.363 105.358 195.081 105.185C194.799 105.011 194.58 104.768 194.424 104.456C194.268 104.144 194.19 103.78 194.19 103.363C194.19 102.944 194.268 102.577 194.424 102.264C194.58 101.95 194.799 101.706 195.081 101.533C195.363 101.359 195.694 101.272 196.072 101.272C196.451 101.272 196.781 101.359 197.063 101.533C197.346 101.706 197.565 101.95 197.721 102.264C197.877 102.577 197.955 102.944 197.955 103.363C197.955 103.78 197.877 104.144 197.721 104.456C197.565 104.768 197.346 105.011 197.063 105.185C196.781 105.358 196.451 105.445 196.072 105.445ZM196.075 104.785C196.32 104.785 196.524 104.72 196.685 104.59C196.846 104.461 196.965 104.288 197.042 104.072C197.121 103.857 197.161 103.619 197.161 103.36C197.161 103.102 197.121 102.866 197.042 102.65C196.965 102.433 196.846 102.258 196.685 102.127C196.524 101.995 196.32 101.93 196.075 101.93C195.828 101.93 195.623 101.995 195.46 102.127C195.298 102.258 195.178 102.433 195.1 102.65C195.022 102.866 194.984 103.102 194.984 103.36C194.984 103.619 195.022 103.857 195.1 104.072C195.178 104.288 195.298 104.461 195.46 104.59C195.623 104.72 195.828 104.785 196.075 104.785ZM199.618 102.966V105.363H198.832V101.325H199.587V101.982H199.637C199.73 101.769 199.875 101.597 200.073 101.467C200.273 101.337 200.524 101.272 200.828 101.272C201.103 101.272 201.344 101.33 201.551 101.446C201.757 101.56 201.918 101.73 202.032 101.956C202.146 102.182 202.203 102.462 202.203 102.795V105.363H201.416V102.889C201.416 102.597 201.34 102.368 201.188 102.203C201.035 102.037 200.826 101.953 200.559 101.953C200.377 101.953 200.215 101.993 200.073 102.072C199.933 102.151 199.822 102.266 199.739 102.419C199.659 102.569 199.618 102.752 199.618 102.966ZM204.997 105.445C204.599 105.445 204.257 105.36 203.969 105.19C203.684 105.018 203.463 104.777 203.307 104.467C203.153 104.155 203.075 103.789 203.075 103.37C203.075 102.957 203.153 102.592 203.307 102.277C203.463 101.961 203.68 101.715 203.959 101.538C204.239 101.361 204.567 101.272 204.942 101.272C205.17 101.272 205.391 101.31 205.605 101.386C205.818 101.461 206.01 101.579 206.18 101.74C206.35 101.902 206.484 102.111 206.583 102.369C206.681 102.625 206.73 102.936 206.73 103.302V103.581H203.52V102.992H205.959C205.959 102.785 205.917 102.602 205.833 102.442C205.749 102.281 205.631 102.154 205.478 102.061C205.328 101.968 205.151 101.922 204.947 101.922C204.726 101.922 204.534 101.976 204.369 102.085C204.206 102.192 204.08 102.332 203.99 102.506C203.903 102.677 203.859 102.864 203.859 103.065V103.526C203.859 103.795 203.906 104.025 204.001 104.214C204.097 104.404 204.231 104.548 204.403 104.648C204.575 104.746 204.776 104.795 205.005 104.795C205.154 104.795 205.29 104.774 205.413 104.732C205.535 104.688 205.641 104.624 205.731 104.538C205.82 104.452 205.889 104.346 205.936 104.22L206.68 104.354C206.62 104.573 206.513 104.765 206.359 104.929C206.207 105.092 206.015 105.22 205.783 105.311C205.554 105.4 205.292 105.445 204.997 105.445Z" fill="#60646C"/>
<path d="M249.544 105.363V104.89L251.321 102.945C251.53 102.717 251.701 102.519 251.836 102.35C251.971 102.18 252.071 102.021 252.136 101.872C252.203 101.721 252.236 101.563 252.236 101.399C252.236 101.209 252.191 101.046 252.099 100.907C252.01 100.769 251.887 100.662 251.731 100.586C251.575 100.511 251.4 100.473 251.205 100.473C250.999 100.473 250.818 100.516 250.664 100.602C250.511 100.686 250.393 100.805 250.309 100.957C250.227 101.109 250.185 101.288 250.185 101.493H249.565C249.565 101.178 249.638 100.901 249.783 100.663C249.929 100.424 250.127 100.238 250.377 100.105C250.63 99.972 250.913 99.9054 251.227 99.9054C251.542 99.9054 251.822 99.972 252.065 100.105C252.309 100.238 252.5 100.418 252.638 100.644C252.777 100.87 252.846 101.122 252.846 101.399C252.846 101.597 252.81 101.79 252.738 101.98C252.668 102.167 252.545 102.377 252.37 102.608C252.197 102.838 251.956 103.118 251.647 103.449L250.438 104.743V104.785H252.941V105.363H249.544ZM253.785 104.259V103.723L256.151 99.979H256.54V100.81H256.277L254.489 103.639V103.681H257.676V104.259H253.785ZM256.319 105.363V104.096V103.846V99.979H256.939V105.363H256.319ZM261.406 104.354V104.07C261.406 103.873 261.446 103.694 261.526 103.531C261.609 103.366 261.728 103.235 261.884 103.136C262.042 103.037 262.233 102.987 262.457 102.987C262.685 102.987 262.876 103.037 263.03 103.136C263.185 103.235 263.301 103.366 263.38 103.531C263.459 103.694 263.498 103.873 263.498 104.07V104.354C263.498 104.55 263.458 104.731 263.377 104.895C263.298 105.058 263.181 105.19 263.025 105.29C262.871 105.388 262.681 105.437 262.457 105.437C262.229 105.437 262.037 105.388 261.881 105.29C261.725 105.19 261.607 105.058 261.526 104.895C261.446 104.731 261.406 104.55 261.406 104.354ZM261.942 104.07V104.354C261.942 104.517 261.98 104.663 262.058 104.793C262.135 104.921 262.268 104.985 262.457 104.985C262.641 104.985 262.771 104.921 262.846 104.793C262.923 104.663 262.962 104.517 262.962 104.354V104.07C262.962 103.907 262.925 103.761 262.851 103.633C262.778 103.504 262.646 103.439 262.457 103.439C262.273 103.439 262.141 103.504 262.06 103.633C261.981 103.761 261.942 103.907 261.942 104.07ZM258.724 101.272V100.989C258.724 100.792 258.764 100.613 258.845 100.45C258.927 100.285 259.046 100.153 259.202 100.055C259.36 99.9553 259.551 99.9054 259.776 99.9054C260.003 99.9054 260.194 99.9553 260.349 100.055C260.503 100.153 260.619 100.285 260.698 100.45C260.777 100.613 260.817 100.792 260.817 100.989V101.272C260.817 101.469 260.776 101.649 260.696 101.814C260.617 101.977 260.499 102.109 260.343 102.208C260.189 102.307 260 102.356 259.776 102.356C259.548 102.356 259.356 102.307 259.2 102.208C259.044 102.109 258.925 101.977 258.845 101.814C258.764 101.649 258.724 101.469 258.724 101.272ZM259.26 100.989V101.272C259.26 101.435 259.299 101.582 259.376 101.712C259.453 101.839 259.586 101.903 259.776 101.903C259.96 101.903 260.089 101.839 260.165 101.712C260.242 101.582 260.28 101.435 260.28 101.272V100.989C260.28 100.826 260.243 100.68 260.17 100.552C260.096 100.422 259.965 100.358 259.776 100.358C259.591 100.358 259.459 100.422 259.379 100.552C259.3 100.68 259.26 100.826 259.26 100.989ZM258.924 105.363L262.625 99.979H263.225L259.523 105.363H258.924Z" fill="#80838D"/>
<ellipse cx="181.136" cy="102.54" rx="3.15585" ry="3.17653" fill="#3E9B4F"/>
<ellipse cx="181.136" cy="123.192" rx="3.15585" ry="3.17653" fill="#E5484D"/>
<path d="M194.087 121.691H193.267C193.235 121.516 193.176 121.361 193.091 121.228C193.005 121.095 192.9 120.982 192.775 120.889C192.651 120.796 192.511 120.726 192.357 120.679C192.205 120.631 192.042 120.608 191.871 120.608C191.56 120.608 191.283 120.686 191.037 120.842C190.794 120.998 190.601 121.226 190.459 121.528C190.319 121.829 190.249 122.197 190.249 122.632C190.249 123.07 190.319 123.44 190.459 123.742C190.601 124.043 190.795 124.271 191.04 124.425C191.285 124.579 191.561 124.656 191.868 124.656C192.038 124.656 192.199 124.634 192.352 124.588C192.506 124.541 192.645 124.472 192.77 124.38C192.894 124.289 192.999 124.178 193.085 124.047C193.173 123.913 193.233 123.761 193.267 123.589L194.087 123.592C194.043 123.856 193.958 124.1 193.832 124.323C193.708 124.543 193.547 124.734 193.351 124.896C193.156 125.055 192.934 125.179 192.683 125.266C192.432 125.354 192.159 125.398 191.863 125.398C191.397 125.398 190.981 125.287 190.617 125.067C190.252 124.844 189.965 124.526 189.754 124.112C189.546 123.699 189.441 123.205 189.441 122.632C189.441 122.057 189.547 121.564 189.757 121.152C189.967 120.738 190.255 120.421 190.619 120.2C190.984 119.978 191.398 119.866 191.863 119.866C192.148 119.866 192.415 119.908 192.662 119.99C192.911 120.071 193.134 120.19 193.332 120.347C193.53 120.503 193.694 120.694 193.824 120.921C193.954 121.145 194.041 121.402 194.087 121.691ZM196.171 125.414C195.915 125.414 195.684 125.366 195.477 125.272C195.27 125.175 195.106 125.036 194.985 124.854C194.866 124.671 194.807 124.448 194.807 124.183C194.807 123.955 194.85 123.768 194.938 123.621C195.026 123.473 195.144 123.357 195.293 123.271C195.442 123.185 195.609 123.12 195.793 123.076C195.977 123.033 196.164 122.999 196.355 122.976C196.597 122.948 196.793 122.926 196.944 122.908C197.095 122.889 197.204 122.858 197.273 122.816C197.341 122.774 197.375 122.706 197.375 122.611V122.593C197.375 122.363 197.31 122.185 197.181 122.059C197.053 121.933 196.862 121.87 196.608 121.87C196.343 121.87 196.134 121.928 195.982 122.046C195.831 122.161 195.727 122.29 195.669 122.432L194.93 122.264C195.018 122.019 195.146 121.821 195.314 121.67C195.484 121.517 195.68 121.407 195.9 121.339C196.121 121.268 196.353 121.233 196.597 121.233C196.758 121.233 196.929 121.253 197.11 121.291C197.292 121.328 197.462 121.396 197.62 121.496C197.779 121.596 197.91 121.739 198.011 121.925C198.113 122.109 198.164 122.348 198.164 122.643V125.324H197.396V124.772H197.365C197.314 124.874 197.238 124.974 197.136 125.072C197.034 125.17 196.904 125.251 196.744 125.316C196.585 125.381 196.394 125.414 196.171 125.414ZM196.342 124.783C196.559 124.783 196.745 124.74 196.899 124.654C197.055 124.568 197.174 124.456 197.254 124.317C197.337 124.177 197.378 124.027 197.378 123.868V123.347C197.35 123.375 197.296 123.402 197.215 123.426C197.136 123.449 197.046 123.469 196.944 123.487C196.842 123.502 196.743 123.517 196.647 123.531C196.551 123.543 196.47 123.554 196.405 123.563C196.253 123.582 196.113 123.614 195.987 123.66C195.863 123.706 195.763 123.771 195.687 123.857C195.614 123.941 195.577 124.054 195.577 124.194C195.577 124.388 195.649 124.536 195.793 124.635C195.936 124.734 196.119 124.783 196.342 124.783ZM199.997 122.927V125.324H199.211V121.286H199.966V121.943H200.015C200.108 121.729 200.254 121.558 200.452 121.428C200.652 121.298 200.903 121.233 201.206 121.233C201.482 121.233 201.723 121.291 201.929 121.407C202.136 121.521 202.297 121.691 202.411 121.917C202.524 122.143 202.581 122.423 202.581 122.756V125.324H201.795V122.85C201.795 122.558 201.719 122.329 201.567 122.164C201.414 121.998 201.205 121.914 200.938 121.914C200.756 121.914 200.594 121.954 200.452 122.033C200.312 122.112 200.2 122.227 200.118 122.38C200.037 122.53 199.997 122.713 199.997 122.927ZM205.337 125.406C204.946 125.406 204.609 125.317 204.327 125.14C204.047 124.961 203.831 124.715 203.68 124.401C203.53 124.088 203.454 123.728 203.454 123.324C203.454 122.913 203.531 122.551 203.686 122.238C203.84 121.922 204.057 121.676 204.338 121.499C204.618 121.322 204.948 121.233 205.329 121.233C205.635 121.233 205.909 121.29 206.149 121.404C206.389 121.516 206.583 121.674 206.73 121.878C206.879 122.081 206.968 122.318 206.996 122.59H206.231C206.188 122.401 206.092 122.238 205.941 122.101C205.792 121.964 205.593 121.896 205.342 121.896C205.123 121.896 204.931 121.954 204.766 122.069C204.603 122.183 204.476 122.346 204.385 122.558C204.294 122.769 204.248 123.018 204.248 123.305C204.248 123.6 204.293 123.854 204.382 124.068C204.472 124.281 204.598 124.447 204.761 124.564C204.926 124.682 205.119 124.741 205.342 124.741C205.491 124.741 205.626 124.713 205.747 124.659C205.869 124.603 205.972 124.523 206.054 124.42C206.139 124.316 206.197 124.192 206.231 124.047H206.996C206.968 124.308 206.883 124.541 206.741 124.746C206.599 124.951 206.408 125.112 206.17 125.23C205.933 125.347 205.656 125.406 205.337 125.406ZM209.577 125.406C209.179 125.406 208.836 125.321 208.549 125.151C208.263 124.979 208.042 124.738 207.886 124.428C207.732 124.116 207.655 123.75 207.655 123.331C207.655 122.918 207.732 122.553 207.886 122.238C208.042 121.922 208.259 121.676 208.538 121.499C208.819 121.322 209.146 121.233 209.521 121.233C209.749 121.233 209.97 121.271 210.184 121.346C210.398 121.422 210.59 121.54 210.76 121.701C210.93 121.863 211.064 122.072 211.162 122.33C211.26 122.586 211.309 122.897 211.309 123.263V123.542H208.099V122.953H210.539C210.539 122.746 210.497 122.563 210.413 122.403C210.329 122.242 210.21 122.115 210.058 122.022C209.907 121.929 209.73 121.883 209.527 121.883C209.306 121.883 209.113 121.937 208.948 122.046C208.785 122.153 208.659 122.293 208.57 122.466C208.482 122.638 208.438 122.825 208.438 123.026V123.487C208.438 123.756 208.486 123.986 208.58 124.175C208.677 124.365 208.811 124.509 208.982 124.609C209.154 124.707 209.355 124.756 209.585 124.756C209.734 124.756 209.869 124.735 209.992 124.693C210.115 124.649 210.221 124.585 210.31 124.499C210.4 124.413 210.468 124.307 210.515 124.181L211.259 124.315C211.2 124.534 211.093 124.726 210.938 124.89C210.786 125.053 210.594 125.18 210.363 125.272C210.133 125.361 209.871 125.406 209.577 125.406ZM212.967 119.94V125.324H212.181V119.94H212.967ZM214.811 119.94V125.324H214.025V119.94H214.811ZM217.609 125.406C217.211 125.406 216.869 125.321 216.581 125.151C216.295 124.979 216.075 124.738 215.919 124.428C215.764 124.116 215.687 123.75 215.687 123.331C215.687 122.918 215.764 122.553 215.919 122.238C216.075 121.922 216.292 121.676 216.571 121.499C216.851 121.322 217.179 121.233 217.554 121.233C217.782 121.233 218.003 121.271 218.216 121.346C218.43 121.422 218.622 121.54 218.792 121.701C218.962 121.863 219.096 122.072 219.194 122.33C219.293 122.586 219.342 122.897 219.342 123.263V123.542H216.132V122.953H218.571C218.571 122.746 218.529 122.563 218.445 122.403C218.361 122.242 218.243 122.115 218.09 122.022C217.939 121.929 217.762 121.883 217.559 121.883C217.338 121.883 217.145 121.937 216.981 122.046C216.818 122.153 216.692 122.293 216.602 122.466C216.514 122.638 216.471 122.825 216.471 123.026V123.487C216.471 123.756 216.518 123.986 216.613 124.175C216.709 124.365 216.843 124.509 217.015 124.609C217.187 124.707 217.387 124.756 217.617 124.756C217.766 124.756 217.902 124.735 218.024 124.693C218.147 124.649 218.253 124.585 218.343 124.499C218.432 124.413 218.5 124.307 218.548 124.181L219.292 124.315C219.232 124.534 219.125 124.726 218.971 124.89C218.818 125.053 218.626 125.18 218.395 125.272C218.166 125.361 217.903 125.406 217.609 125.406ZM221.725 125.403C221.399 125.403 221.109 125.32 220.853 125.153C220.598 124.985 220.399 124.746 220.253 124.436C220.109 124.124 220.038 123.749 220.038 123.313C220.038 122.877 220.11 122.503 220.256 122.193C220.403 121.883 220.605 121.645 220.861 121.481C221.116 121.316 221.406 121.233 221.731 121.233C221.981 121.233 222.183 121.275 222.335 121.36C222.49 121.442 222.609 121.538 222.693 121.649C222.779 121.759 222.845 121.857 222.893 121.941H222.94V119.94H223.726V125.324H222.958V124.696H222.893C222.845 124.782 222.777 124.88 222.688 124.99C222.6 125.101 222.479 125.197 222.325 125.28C222.171 125.362 221.971 125.403 221.725 125.403ZM221.899 124.733C222.125 124.733 222.316 124.673 222.472 124.554C222.63 124.433 222.749 124.266 222.83 124.052C222.912 123.838 222.953 123.589 222.953 123.305C222.953 123.025 222.913 122.779 222.832 122.569C222.752 122.359 222.633 122.195 222.477 122.077C222.321 121.96 222.129 121.901 221.899 121.901C221.662 121.901 221.465 121.963 221.307 122.085C221.15 122.208 221.031 122.375 220.95 122.587C220.871 122.799 220.832 123.039 220.832 123.305C220.832 123.575 220.872 123.818 220.953 124.033C221.033 124.249 221.152 124.42 221.31 124.546C221.47 124.67 221.666 124.733 221.899 124.733Z" fill="#60646C"/>
<path d="M251.437 120.631V126.016H250.785V121.315H250.753L249.439 122.188V121.525L250.785 120.631H251.437ZM254.878 120.631V126.016H254.226V121.315H254.194L252.88 122.188V121.525L254.226 120.631H254.878ZM259.171 125.006V124.722C259.171 124.526 259.212 124.346 259.292 124.183C259.375 124.018 259.494 123.887 259.65 123.789C259.807 123.689 259.999 123.639 260.223 123.639C260.451 123.639 260.642 123.689 260.796 123.789C260.95 123.887 261.067 124.018 261.146 124.183C261.225 124.346 261.264 124.526 261.264 124.722V125.006C261.264 125.202 261.224 125.383 261.143 125.548C261.064 125.711 260.947 125.842 260.791 125.942C260.637 126.04 260.447 126.089 260.223 126.089C259.995 126.089 259.803 126.04 259.647 125.942C259.491 125.842 259.373 125.711 259.292 125.548C259.212 125.383 259.171 125.202 259.171 125.006ZM259.708 124.722V125.006C259.708 125.169 259.746 125.315 259.823 125.445C259.9 125.573 260.034 125.637 260.223 125.637C260.407 125.637 260.537 125.573 260.612 125.445C260.689 125.315 260.728 125.169 260.728 125.006V124.722C260.728 124.559 260.691 124.414 260.617 124.286C260.544 124.156 260.412 124.091 260.223 124.091C260.039 124.091 259.907 124.156 259.826 124.286C259.747 124.414 259.708 124.559 259.708 124.722ZM256.49 121.925V121.641C256.49 121.445 256.53 121.265 256.611 121.102C256.693 120.937 256.812 120.806 256.968 120.708C257.126 120.608 257.317 120.558 257.541 120.558C257.769 120.558 257.96 120.608 258.114 120.708C258.269 120.806 258.385 120.937 258.464 121.102C258.543 121.265 258.582 121.445 258.582 121.641V121.925C258.582 122.121 258.542 122.302 258.461 122.466C258.383 122.629 258.265 122.761 258.109 122.861C257.955 122.959 257.766 123.008 257.541 123.008C257.313 123.008 257.121 122.959 256.965 122.861C256.809 122.761 256.691 122.629 256.611 122.466C256.53 122.302 256.49 122.121 256.49 121.925ZM257.026 121.641V121.925C257.026 122.088 257.065 122.234 257.142 122.364C257.219 122.492 257.352 122.556 257.541 122.556C257.725 122.556 257.855 122.492 257.93 122.364C258.007 122.234 258.046 122.088 258.046 121.925V121.641C258.046 121.478 258.009 121.332 257.936 121.204C257.862 121.075 257.731 121.01 257.541 121.01C257.357 121.01 257.225 121.075 257.144 121.204C257.065 121.332 257.026 121.478 257.026 121.641ZM256.689 126.016L260.391 120.631H260.991L257.289 126.016H256.689Z" fill="#80838D"/>
</g>
</g>
<rect x="0.5" y="0.5" width="292" height="167" rx="3.5" stroke="#D9D9E0"/>
<defs>
<linearGradient id="paint0_linear_5758_104461" x1="31.4996" y1="59.6675" x2="74.294" y2="28.9616" gradientUnits="userSpaceOnUse">
<stop stop-color="#FF7679"/>
<stop offset="1" stop-color="#C90004"/>
</linearGradient>
<linearGradient id="paint1_linear_5758_104461" x1="127.127" y1="79.4674" x2="74.3939" y2="8.31603" gradientUnits="userSpaceOnUse">
<stop stop-color="#0E8B1B"/>
<stop offset="1" stop-color="#37CB46"/>
</linearGradient>
<linearGradient id="paint2_linear_5758_104461" x1="85.9352" y1="115.258" x2="138.216" y2="80.6312" gradientUnits="userSpaceOnUse">
<stop stop-color="#FFD300"/>
<stop offset="1" stop-color="#FFE97D" stop-opacity="0.35"/>
<stop offset="1" stop-color="#FAE270"/>
</linearGradient>
<linearGradient id="paint3_linear_5758_104461" x1="37.281" y1="63.9041" x2="42.6066" y2="87.7133" gradientUnits="userSpaceOnUse">
<stop stop-color="#BABABE"/>
<stop offset="1" stop-color="#DEDEDE"/>
</linearGradient>
<linearGradient id="paint4_linear_5758_104461" x1="39.3849" y1="71.3159" x2="75.6012" y2="128.745" gradientUnits="userSpaceOnUse">
<stop stop-color="#878796"/>
<stop offset="1" stop-color="#D4D4D4"/>
</linearGradient>
<clipPath id="clip0_5758_104461">
<rect width="293" height="168" rx="4" fill="white"/>
</clipPath>
<clipPath id="clip1_5758_104461">
<path d="M-1.5 0.669938C-1.5 -0.498285 -0.552968 -1.44531 0.615254 -1.44531H291.385C292.553 -1.44531 293.5 -0.498281 293.5 0.669942V166.439C293.5 167.608 292.553 168.555 291.385 168.555H0.615262C-0.552961 168.555 -1.5 167.608 -1.5 166.439V0.669938Z" fill="white"/>
</clipPath>
</defs>
</svg>
