<svg width="333" height="208" viewBox="0 0 333 208" fill="none" xmlns="http://www.w3.org/2000/svg">
<g filter="url(#filter0_bd_5758_104499)">
<g clip-path="url(#clip0_5758_104499)">
<path d="M20 9.6698C20 8.50165 20.947 7.55469 22.1151 7.55469H311.885C313.053 7.55469 314 8.50165 314 9.6698V175.44C314 176.608 313.053 177.555 311.885 177.555H22.1151C20.947 177.555 20 176.608 20 175.44V9.6698Z" fill="white"/>
<rect x="40.2949" y="114.926" width="62.9245" height="37.5432" rx="2.11511" transform="rotate(-90 40.2949 114.926)" fill="url(#paint0_linear_5758_104499)"/>
<rect x="79.9531" y="114.926" width="62.9245" height="55.5216" rx="2.11511" transform="rotate(-90 79.9531 114.926)" fill="url(#paint1_linear_5758_104499)"/>
<rect x="137.59" y="114.926" width="62.9245" height="85.6619" rx="2.11511" transform="rotate(-90 137.59 114.926)" fill="url(#paint2_linear_5758_104499)"/>
<rect x="225.367" y="114.926" width="62.9245" height="38.6007" rx="2.11511" transform="rotate(-90 225.367 114.926)" fill="url(#paint3_linear_5758_104499)"/>
<rect x="266.082" y="114.926" width="62.9245" height="19.5647" rx="2.11511" transform="rotate(-90 266.082 114.926)" fill="url(#paint4_linear_5758_104499)"/>
<path d="M44.5622 103.897L44.5622 102.85L49.115 102.85C49.5995 102.85 50.0287 102.963 50.4028 103.191C50.7746 103.419 51.0675 103.739 51.2816 104.151C51.4934 104.563 51.5993 105.047 51.5993 105.601C51.5993 106.153 51.4934 106.635 51.2816 107.048C51.0675 107.46 50.7746 107.78 50.4028 108.008C50.0287 108.235 49.5995 108.349 49.115 108.349L44.5622 108.349L44.5622 107.304L49.0305 107.304C49.3437 107.304 49.622 107.236 49.8654 107.098C50.1087 106.959 50.3003 106.761 50.44 106.507C50.5774 106.252 50.6461 105.95 50.6461 105.601C50.6461 105.249 50.5774 104.946 50.44 104.692C50.3003 104.435 50.1087 104.239 49.8654 104.104C49.622 103.966 49.3437 103.897 49.0305 103.897L44.5622 103.897ZM51.4844 101.412L46.2927 101.412L46.2927 100.436L47.1175 100.436L47.1175 100.381C46.838 100.287 46.6183 100.12 46.4584 99.8812C46.2961 99.6401 46.215 99.3675 46.215 99.0633C46.215 99.0002 46.2173 98.9258 46.2218 98.8402C46.2263 98.7523 46.2319 98.6836 46.2387 98.634L47.2053 98.634C47.1941 98.6746 47.1817 98.7467 47.1682 98.8503C47.1524 98.954 47.1445 99.0576 47.1445 99.1613C47.1445 99.4001 47.1952 99.6131 47.2966 99.8001C47.3957 99.9849 47.5343 100.131 47.7123 100.239C47.8881 100.348 48.0886 100.402 48.314 100.402L51.4844 100.402L51.4844 101.412ZM53.5394 95.7686C53.5394 96.181 53.4853 96.5359 53.3772 96.8333C53.269 97.1285 53.1259 97.3696 52.9479 97.5566C52.7699 97.7437 52.575 97.8834 52.3632 97.9758L52.0049 97.1071C52.104 97.0463 52.2088 96.9652 52.3192 96.8638C52.4319 96.7601 52.5277 96.6204 52.6065 96.4446C52.6854 96.2666 52.7248 96.0379 52.7248 95.7585C52.7248 95.3754 52.6313 95.0589 52.4443 94.8087C52.2595 94.5586 51.9643 94.4336 51.5587 94.4336L50.538 94.4336L50.538 94.4978C50.6484 94.5586 50.7712 94.6465 50.9064 94.7614C51.0416 94.8741 51.1588 95.0296 51.2579 95.2279C51.3571 95.4261 51.4066 95.6841 51.4066 96.0019C51.4066 96.412 51.3109 96.7815 51.1193 97.1105C50.9256 97.4372 50.6405 97.6964 50.2642 97.8879C49.8857 98.0772 49.4203 98.1718 48.8683 98.1718C48.3162 98.1718 47.843 98.0783 47.4487 97.8913C47.0544 97.702 46.7524 97.4429 46.5429 97.1139C46.3311 96.7849 46.2251 96.412 46.2251 95.9951C46.2251 95.6729 46.2792 95.4126 46.3874 95.2143C46.4933 95.016 46.6172 94.8617 46.7592 94.7513C46.9011 94.6386 47.0262 94.5519 47.1344 94.491L47.1344 94.4167L46.2927 94.4167L46.2927 93.4263L51.5993 93.4263C52.0454 93.4263 52.4116 93.53 52.6978 93.7373C52.984 93.9446 53.1958 94.2251 53.3332 94.5789C53.4707 94.9304 53.5394 95.327 53.5394 95.7686ZM50.5684 95.7788C50.5684 95.4881 50.5008 95.2425 50.3656 95.042C50.2282 94.8392 50.0321 94.6859 49.7775 94.5823C49.5206 94.4764 49.213 94.4234 48.8548 94.4234C48.5055 94.4234 48.1979 94.4752 47.932 94.5789C47.6661 94.6825 47.4588 94.8346 47.3101 95.0352C47.1591 95.2357 47.0837 95.4836 47.0837 95.7788C47.0837 96.083 47.1625 96.3365 47.3203 96.5393C47.4757 96.7421 47.6875 96.8953 47.9557 96.999C48.2238 97.1004 48.5235 97.1511 48.8548 97.1511C49.195 97.1511 49.4936 97.0992 49.7505 96.9956C50.0073 96.8919 50.2079 96.7387 50.3521 96.5359C50.4963 96.3308 50.5684 96.0785 50.5684 95.7788ZM51.5892 89.8334C51.5892 90.3449 51.4799 90.7854 51.2613 91.155C51.0405 91.5223 50.7306 91.8062 50.3318 92.0067C49.9307 92.205 49.4609 92.3042 48.9224 92.3042C48.3906 92.3042 47.9219 92.205 47.5163 92.0067C47.1107 91.8062 46.7941 91.5268 46.5665 91.1685C46.3389 90.808 46.2251 90.3866 46.2251 89.9044C46.2251 89.6115 46.2736 89.3276 46.3705 89.0527C46.4674 88.7777 46.6195 88.531 46.8268 88.3124C47.0341 88.0939 47.3034 87.9215 47.6346 87.7953C47.9636 87.6691 48.3635 87.606 48.8345 87.606L49.1928 87.606L49.1928 91.733L48.4356 91.733L48.4356 88.5964C48.1698 88.5964 47.9343 88.6504 47.7292 88.7586C47.5219 88.8668 47.3586 89.0189 47.2391 89.2149C47.1197 89.4087 47.06 89.6363 47.06 89.8976C47.06 90.1816 47.1299 90.4294 47.2696 90.6412C47.407 90.8508 47.5873 91.013 47.8104 91.128C48.0312 91.2406 48.2712 91.2969 48.5303 91.2969L49.1218 91.2969C49.4688 91.2969 49.764 91.2361 50.0073 91.1144C50.2507 90.9905 50.4366 90.8181 50.565 90.5973C50.6912 90.3765 50.7543 90.1185 50.7543 89.8233C50.7543 89.6318 50.7273 89.4571 50.6732 89.2994C50.6168 89.1417 50.5335 89.0053 50.4231 88.8904C50.3127 88.7755 50.1763 88.6876 50.0141 88.6268L50.1865 87.6702C50.4681 87.7469 50.7149 87.8843 50.9267 88.0826C51.1362 88.2786 51.2996 88.5254 51.4168 88.8228C51.5317 89.118 51.5892 89.4549 51.5892 89.8334ZM48.4018 85.4741L51.4844 85.4741L51.4844 86.4847L46.2927 86.4847L46.2927 85.5147L47.1377 85.5147L47.1377 85.4505C46.8628 85.331 46.642 85.144 46.4753 84.8894C46.3085 84.6325 46.2251 84.3092 46.2251 83.9193C46.2251 83.5656 46.2995 83.2557 46.4482 82.9898C46.5947 82.7239 46.8133 82.5178 47.1039 82.3713C47.3946 82.2248 47.754 82.1516 48.1821 82.1516L51.4844 82.1516L51.4844 83.1622L48.3038 83.1622C47.9275 83.1622 47.6335 83.2602 47.4217 83.4563C47.2076 83.6523 47.1006 83.9216 47.1006 84.2641C47.1006 84.4984 47.1513 84.7069 47.2527 84.8894C47.3541 85.0696 47.5028 85.2127 47.6988 85.3186C47.8926 85.4223 48.1269 85.4741 48.4018 85.4741ZM46.2927 78.3728L47.1039 78.3728L47.1039 81.2086L46.2927 81.2086L46.2927 78.3728ZM45.0489 80.4481L45.0489 79.4375L49.96 79.4375C50.156 79.4375 50.3036 79.4082 50.4028 79.3496C50.4997 79.291 50.5661 79.2155 50.6022 79.1232C50.636 79.0285 50.6529 78.926 50.6529 78.8156C50.6529 78.7345 50.6473 78.6635 50.636 78.6026C50.6247 78.5418 50.6157 78.4945 50.609 78.4607L51.4438 78.2782C51.4663 78.3367 51.4889 78.4201 51.5114 78.5283C51.5362 78.6364 51.5497 78.7716 51.552 78.9339C51.5565 79.1998 51.5092 79.4476 51.41 79.6775C51.3109 79.9073 51.1576 80.0932 50.9503 80.2352C50.743 80.3771 50.4828 80.4481 50.1696 80.4481L45.0489 80.4481Z" fill="#F4A9AA"/>
<path d="M91.1094 108.349L84.1872 108.349L84.1872 107.304L87.1954 107.304L87.1954 103.854L84.1872 103.854L84.1872 102.806L91.1094 102.806L91.1094 103.854L88.0911 103.854L88.0911 107.304L91.1094 107.304L91.1094 108.349ZM91.1094 101.366L85.9177 101.366L85.9177 100.355L91.1094 100.355L91.1094 101.366ZM85.1167 100.855C85.1167 101.031 85.0581 101.182 84.9409 101.308C84.8215 101.432 84.6796 101.494 84.5151 101.494C84.3483 101.494 84.2064 101.432 84.0892 101.308C83.9698 101.182 83.91 101.031 83.91 100.855C83.91 100.68 83.9698 100.53 84.0892 100.406C84.2064 100.28 84.3483 100.217 84.5151 100.217C84.6796 100.217 84.8215 100.28 84.9409 100.406C85.0581 100.53 85.1167 100.68 85.1167 100.855ZM93.1644 96.819C93.1644 97.2313 93.1103 97.5862 93.0022 97.8837C92.894 98.1788 92.7509 98.4199 92.5729 98.607C92.3949 98.794 92.2 98.9337 91.9882 99.0261L91.6299 98.1574C91.729 98.0966 91.8338 98.0155 91.9442 97.9141C92.0569 97.8104 92.1527 97.6707 92.2315 97.495C92.3104 97.317 92.3498 97.0882 92.3498 96.8088C92.3498 96.4258 92.2563 96.1092 92.0693 95.8591C91.8845 95.6089 91.5893 95.4839 91.1837 95.4839L90.163 95.4839L90.163 95.5481C90.2734 95.6089 90.3962 95.6968 90.5314 95.8117C90.6666 95.9244 90.7838 96.0799 90.8829 96.2782C90.9821 96.4765 91.0316 96.7345 91.0316 97.0522C91.0316 97.4623 90.9359 97.8318 90.7443 98.1608C90.5506 98.4875 90.2655 98.7467 89.8892 98.9382C89.5107 99.1275 89.0453 99.2221 88.4933 99.2221C87.9412 99.2221 87.468 99.1286 87.0737 98.9416C86.6794 98.7523 86.3774 98.4932 86.1679 98.1642C85.9561 97.8352 85.8501 97.4623 85.8501 97.0454C85.8501 96.7232 85.9042 96.4629 86.0124 96.2647C86.1183 96.0664 86.2422 95.912 86.3842 95.8016C86.5261 95.6889 86.6512 95.6022 86.7594 95.5413L86.7594 95.467L85.9177 95.467L85.9177 94.4767L91.2243 94.4767C91.6704 94.4767 92.0366 94.5803 92.3228 94.7876C92.609 94.9949 92.8208 95.2755 92.9582 95.6292C93.0957 95.9807 93.1644 96.3773 93.1644 96.819ZM90.1934 96.8291C90.1934 96.5384 90.1258 96.2928 89.9906 96.0923C89.8532 95.8895 89.6571 95.7363 89.4025 95.6326C89.1456 95.5267 88.838 95.4737 88.4798 95.4737C88.1305 95.4737 87.8229 95.5256 87.557 95.6292C87.2911 95.7329 87.0838 95.885 86.9351 96.0855C86.7841 96.2861 86.7087 96.5339 86.7087 96.8291C86.7087 97.1333 86.7875 97.3868 86.9453 97.5896C87.1007 97.7924 87.3125 97.9456 87.5807 98.0493C87.8488 98.1507 88.1485 98.2014 88.4798 98.2014C88.82 98.2014 89.1186 98.1496 89.3755 98.0459C89.6323 97.9422 89.8329 97.789 89.9771 97.5862C90.1213 97.3812 90.1934 97.1288 90.1934 96.8291ZM88.0268 92.1107L91.1094 92.1107L91.1094 93.1213L84.1872 93.1213L84.1872 92.1242L86.7627 92.1242L86.7627 92.06C86.4833 91.9383 86.2614 91.7524 86.0969 91.5023C85.9324 91.2522 85.8501 90.9254 85.8501 90.5221C85.8501 90.1661 85.9234 89.8551 86.0698 89.5892C86.2163 89.3211 86.4349 89.1138 86.7256 88.9673C87.014 88.8186 87.3745 88.7442 87.8071 88.7442L91.1094 88.7442L91.1094 89.7548L87.9288 89.7548C87.548 89.7548 87.2528 89.8529 87.0433 90.0489C86.8315 90.2449 86.7256 90.5176 86.7256 90.8668C86.7256 91.1057 86.7763 91.3198 86.8777 91.509C86.9791 91.6961 87.1278 91.8437 87.3238 91.9518C87.5176 92.0577 87.7519 92.1107 88.0268 92.1107Z" fill="#AB4800"/>
<path d="M142.558 108.349L142.558 107.081L147.939 104.878L147.939 104.797L142.558 102.593L142.558 101.325L149.48 101.325L149.48 102.319L144.471 102.319L144.471 102.383L149.47 104.425L149.47 105.249L144.468 107.291L144.468 107.355L149.48 107.355L149.48 108.349L142.558 108.349ZM149.585 97.6504C149.585 98.1619 149.476 98.6025 149.257 98.972C149.037 99.3393 148.727 99.6232 148.328 99.8238C147.927 100.022 147.457 100.121 146.918 100.121C146.387 100.121 145.918 100.022 145.512 99.8238C145.107 99.6232 144.79 99.3438 144.563 98.9855C144.335 98.625 144.221 98.2036 144.221 97.7214C144.221 97.4285 144.27 97.1446 144.367 96.8697C144.463 96.5948 144.616 96.348 144.823 96.1295C145.03 95.9109 145.299 95.7385 145.631 95.6123C145.96 95.4861 146.36 95.423 146.831 95.423L147.189 95.423L147.189 99.55L146.432 99.55L146.432 96.4134C146.166 96.4134 145.93 96.4675 145.725 96.5756C145.518 96.6838 145.355 96.8359 145.235 97.0319C145.116 97.2257 145.056 97.4533 145.056 97.7147C145.056 97.9986 145.126 98.2464 145.266 98.4583C145.403 98.6678 145.583 98.8301 145.806 98.945C146.027 99.0576 146.267 99.114 146.526 99.114L147.118 99.114C147.465 99.114 147.76 99.0531 148.003 98.9314C148.247 98.8075 148.433 98.6351 148.561 98.4143C148.687 98.1935 148.75 97.9355 148.75 97.6403C148.75 97.4488 148.723 97.2741 148.669 97.1164C148.613 96.9587 148.53 96.8224 148.419 96.7074C148.309 96.5925 148.172 96.5046 148.01 96.4438L148.183 95.4873C148.464 95.5639 148.711 95.7013 148.923 95.8996C149.132 96.0957 149.296 96.3424 149.413 96.6398C149.528 96.935 149.585 97.2719 149.585 97.6504ZM149.582 92.3583C149.582 92.7774 149.475 93.1514 149.261 93.4804C149.044 93.8071 148.737 94.064 148.338 94.251C147.937 94.4358 147.456 94.5282 146.895 94.5282C146.334 94.5282 145.854 94.4347 145.455 94.2477C145.056 94.0584 144.751 93.7993 144.539 93.4703C144.327 93.1413 144.221 92.7684 144.221 92.3515C144.221 92.0293 144.275 91.7701 144.383 91.5741C144.489 91.3758 144.613 91.2226 144.755 91.1144C144.897 91.004 145.022 90.9184 145.13 90.8576L145.13 90.7967L142.558 90.7967L142.558 89.7861L149.48 89.7861L149.48 90.7731L148.673 90.7731L148.673 90.8576C148.783 90.9184 148.909 91.0063 149.051 91.1212C149.193 91.2339 149.317 91.3893 149.423 91.5876C149.529 91.7859 149.582 92.0428 149.582 92.3583ZM148.72 92.1352C148.72 91.8445 148.643 91.5989 148.49 91.3983C148.335 91.1956 148.119 91.0423 147.845 90.9387C147.57 90.8328 147.25 90.7798 146.885 90.7798C146.524 90.7798 146.209 90.8316 145.938 90.9353C145.668 91.0389 145.457 91.191 145.306 91.3916C145.155 91.5921 145.08 91.84 145.08 92.1352C145.08 92.4394 145.159 92.6929 145.316 92.8957C145.474 93.0985 145.689 93.2517 145.962 93.3553C146.235 93.4567 146.542 93.5074 146.885 93.5074C147.232 93.5074 147.544 93.4556 147.821 93.352C148.098 93.2483 148.318 93.0951 148.48 92.8923C148.64 92.6872 148.72 92.4349 148.72 92.1352ZM149.48 88.3437L144.289 88.3437L144.289 87.3331L149.48 87.3331L149.48 88.3437ZM143.488 87.8333C143.488 88.0091 143.429 88.1601 143.312 88.2862C143.193 88.4102 143.051 88.4721 142.886 88.4721C142.719 88.4721 142.577 88.4102 142.46 88.2862C142.341 88.1601 142.281 88.0091 142.281 87.8333C142.281 87.6576 142.341 87.5077 142.46 87.3838C142.577 87.2576 142.719 87.1945 142.886 87.1945C143.051 87.1945 143.193 87.2576 143.312 87.3838C143.429 87.5077 143.488 87.6576 143.488 87.8333ZM147.327 82.6848L144.289 82.6848L144.289 81.6708L149.48 81.6708L149.48 82.6645L148.581 82.6645L148.581 82.7186C148.859 82.838 149.09 83.0296 149.274 83.2932C149.457 83.5546 149.548 83.8802 149.548 84.27C149.548 84.6035 149.475 84.8987 149.328 85.1556C149.18 85.4102 148.96 85.6107 148.669 85.7572C148.379 85.9014 148.019 85.9735 147.591 85.9735L144.289 85.9735L144.289 84.9629L147.469 84.9629C147.823 84.9629 148.105 84.8649 148.314 84.6688C148.524 84.4728 148.629 84.2182 148.629 83.905C148.629 83.7157 148.581 83.5275 148.487 83.3405C148.392 83.1512 148.249 82.9946 148.058 82.8707C147.866 82.7445 147.623 82.6825 147.327 82.6848ZM149.48 80.3129L144.289 80.3129L144.289 79.3429L145.134 79.3429L145.134 79.2786C144.848 79.1705 144.625 78.9936 144.465 78.748C144.302 78.5024 144.221 78.2083 144.221 77.8658C144.221 77.5188 144.302 77.2281 144.465 76.9938C144.627 76.7572 144.85 76.5825 145.134 76.4699L145.134 76.4158C144.857 76.2919 144.636 76.0947 144.471 75.8243C144.305 75.5539 144.221 75.2317 144.221 74.8576C144.221 74.3867 144.369 74.0025 144.664 73.7051C144.959 73.4054 145.404 73.2555 145.999 73.2555L149.48 73.2555L149.48 74.2661L146.094 74.2661C145.742 74.2661 145.488 74.3619 145.33 74.5534C145.172 74.745 145.093 74.9737 145.093 75.2396C145.093 75.5686 145.195 75.8243 145.397 76.0068C145.598 76.1893 145.856 76.2806 146.171 76.2806L149.48 76.2806L149.48 77.2878L146.03 77.2878C145.748 77.2878 145.521 77.3757 145.35 77.5515C145.179 77.7272 145.093 77.9559 145.093 78.2376C145.093 78.4291 145.144 78.606 145.245 78.7683C145.345 78.9282 145.483 79.0578 145.661 79.157C145.839 79.2538 146.045 79.3023 146.28 79.3023L149.48 79.3023L149.48 80.3129Z" fill="#AB6400"/>
<path d="M236.576 108.349L229.654 108.349L229.654 107.304L235.677 107.304L235.677 104.168L236.576 104.168L236.576 108.349ZM236.681 100.871C236.681 101.357 236.569 101.782 236.346 102.145C236.123 102.508 235.811 102.789 235.41 102.99C235.009 103.19 234.54 103.291 234.004 103.291C233.465 103.291 232.995 103.19 232.591 102.99C232.188 102.789 231.875 102.508 231.652 102.145C231.428 101.782 231.317 101.357 231.317 100.871C231.317 100.384 231.428 99.9592 231.652 99.5965C231.875 99.2337 232.188 98.952 232.591 98.7515C232.995 98.5509 233.465 98.4506 234.004 98.4506C234.54 98.4506 235.009 98.5509 235.41 98.7515C235.811 98.952 236.123 99.2337 236.346 99.5965C236.569 99.9592 236.681 100.384 236.681 100.871ZM235.833 100.867C235.833 100.552 235.749 100.29 235.582 100.083C235.416 99.8759 235.194 99.7226 234.917 99.6235C234.639 99.5221 234.334 99.4714 234.001 99.4714C233.669 99.4714 233.365 99.5221 233.088 99.6235C232.809 99.7226 232.584 99.8759 232.415 100.083C232.246 100.29 232.162 100.552 232.162 100.867C232.162 101.185 232.246 101.449 232.415 101.658C232.584 101.866 232.809 102.02 233.088 102.121C233.365 102.22 233.669 102.27 234.001 102.27C234.334 102.27 234.639 102.22 234.917 102.121C235.194 102.02 235.416 101.866 235.582 101.658C235.749 101.449 235.833 101.185 235.833 100.867ZM236.576 96.3551L231.385 97.8828L231.385 96.8384L235.197 95.821L235.197 95.7703L231.385 94.7496L231.385 93.7052L235.18 92.6912L235.18 92.6405L231.385 91.6299L231.385 90.5855L236.576 92.1098L236.576 93.1407L232.828 94.1953L232.828 94.273L236.576 95.3276L236.576 96.3551Z" fill="#1F2D5C"/>
<path d="M269.793 102.762L276.715 102.762L276.715 103.722L271.638 107.24L271.638 107.304L276.715 107.304L276.715 108.349L269.793 108.349L269.793 107.382L274.876 103.86L274.876 103.796L269.793 103.796L269.793 102.762ZM276.82 99.1326C276.82 99.6193 276.708 100.044 276.485 100.407C276.262 100.77 275.95 101.051 275.549 101.252C275.148 101.452 274.679 101.553 274.143 101.553C273.604 101.553 273.133 101.452 272.73 101.252C272.327 101.051 272.013 100.77 271.79 100.407C271.567 100.044 271.456 99.6193 271.456 99.1326C271.456 98.6458 271.567 98.2211 271.79 97.8583C272.013 97.4955 272.327 97.2139 272.73 97.0133C273.133 96.8128 273.604 96.7125 274.143 96.7125C274.679 96.7125 275.148 96.8128 275.549 97.0133C275.95 97.2139 276.262 97.4955 276.485 97.8583C276.708 98.2211 276.82 98.6458 276.82 99.1326ZM275.971 99.1292C275.971 98.8137 275.888 98.5523 275.721 98.345C275.554 98.1377 275.332 97.9845 275.055 97.8854C274.778 97.784 274.473 97.7333 274.139 97.7333C273.808 97.7333 273.504 97.784 273.227 97.8854C272.947 97.9845 272.723 98.1377 272.554 98.345C272.385 98.5523 272.301 98.8137 272.301 99.1292C272.301 99.4469 272.385 99.7105 272.554 99.9201C272.723 100.127 272.947 100.282 273.227 100.383C273.504 100.482 273.808 100.532 274.139 100.532C274.473 100.532 274.778 100.482 275.055 100.383C275.332 100.282 275.554 100.127 275.721 99.9201C275.888 99.7105 275.971 99.4469 275.971 99.1292ZM273.632 94.5738L276.715 94.5738L276.715 95.5844L271.523 95.5844L271.523 94.6144L272.368 94.6144L272.368 94.5502C272.093 94.4307 271.872 94.2437 271.706 93.9891C271.539 93.7322 271.456 93.4089 271.456 93.019C271.456 92.6653 271.53 92.3554 271.679 92.0896C271.825 91.8237 272.044 91.6175 272.334 91.471C272.625 91.3246 272.984 91.2513 273.413 91.2513L276.715 91.2513L276.715 92.2619L273.534 92.2619C273.158 92.2619 272.864 92.3599 272.652 92.556C272.438 92.752 272.331 93.0213 272.331 93.3638C272.331 93.5981 272.382 93.8066 272.483 93.9891C272.585 94.1694 272.733 94.3124 272.929 94.4183C273.123 94.522 273.357 94.5738 273.632 94.5738ZM276.82 87.6584C276.82 88.1699 276.71 88.6104 276.492 88.98C276.271 89.3473 275.961 89.6312 275.562 89.8317C275.161 90.03 274.691 90.1292 274.153 90.1292C273.621 90.1292 273.152 90.03 272.747 89.8317C272.341 89.6312 272.025 89.3518 271.797 88.9935C271.569 88.633 271.456 88.2116 271.456 87.7294C271.456 87.4365 271.504 87.1525 271.601 86.8776C271.698 86.6027 271.85 86.356 272.057 86.1374C272.265 85.9189 272.534 85.7465 272.865 85.6203C273.194 85.4941 273.594 85.431 274.065 85.431L274.423 85.431L274.423 89.558L273.666 89.558L273.666 86.4213C273.4 86.4213 273.165 86.4754 272.96 86.5836C272.752 86.6917 272.589 86.8438 272.47 87.0399C272.35 87.2337 272.29 87.4613 272.29 87.7226C272.29 88.0066 272.36 88.2544 272.5 88.4662C272.637 88.6758 272.818 88.838 273.041 88.9529C273.262 89.0656 273.502 89.1219 273.761 89.1219L274.352 89.1219C274.699 89.1219 274.994 89.0611 275.238 88.9394C275.481 88.8155 275.667 88.6431 275.795 88.4223C275.922 88.2015 275.985 87.9435 275.985 87.6483C275.985 87.4567 275.958 87.2821 275.904 87.1244C275.847 86.9666 275.764 86.8303 275.654 86.7154C275.543 86.6005 275.407 86.5126 275.245 86.4518L275.417 85.4952C275.699 85.5718 275.945 85.7093 276.157 85.9076C276.367 86.1036 276.53 86.3504 276.647 86.6478C276.762 86.943 276.82 87.2799 276.82 87.6584Z" fill="#60646C"/>
<path d="M40 123.693C40 122.525 40.947 121.578 42.1151 121.578H48.3104C49.4786 121.578 50.4255 122.525 50.4255 123.693V130.039C50.4255 131.207 49.4786 132.154 48.3104 132.154H42.1151C40.947 132.154 40 131.207 40 130.039V123.693Z" fill="#CE2C31"/>
<g clip-path="url(#clip1_5758_104499)">
<path d="M45.2877 129.95C46.9912 129.95 48.3722 128.569 48.3722 126.866C48.3722 125.162 46.9912 123.781 45.2877 123.781C43.5841 123.781 42.2031 125.162 42.2031 126.866C42.2031 128.569 43.5841 129.95 45.2877 129.95Z" stroke="#FFFCFC" stroke-width="0.528777" stroke-linecap="round" stroke-linejoin="round"/>
<path d="M45.2871 125.633V126.867" stroke="#FFFCFC" stroke-width="0.528777" stroke-linecap="round" stroke-linejoin="round"/>
<path d="M45.2871 128.098H45.2911" stroke="#FFFCFC" stroke-width="0.528777" stroke-linecap="round" stroke-linejoin="round"/>
</g>
<path d="M54.9417 124.417V129.801H53.9664V125.366H53.9349L52.6757 126.17V125.277L54.0137 124.417H54.9417ZM56.2115 128.802V128.026L58.496 124.417H59.1427V125.521H58.7483L57.2104 127.958V128H60.3993V128.802H56.2115ZM58.7799 129.801V128.565L58.7904 128.218V124.417H59.7105V129.801H58.7799ZM64.1178 128.791V128.507C64.1178 128.299 64.1616 128.107 64.2492 127.932C64.3386 127.756 64.4683 127.615 64.6383 127.508C64.8083 127.402 65.0142 127.348 65.2561 127.348C65.5049 127.348 65.7135 127.402 65.8817 127.508C66.05 127.614 66.1771 127.754 66.2629 127.929C66.3506 128.104 66.3944 128.297 66.3944 128.507V128.791C66.3944 129 66.3506 129.192 66.2629 129.367C66.1753 129.542 66.0465 129.683 65.8765 129.79C65.7082 129.897 65.5014 129.951 65.2561 129.951C65.0107 129.951 64.803 129.897 64.633 129.79C64.463 129.683 64.3342 129.542 64.2466 129.367C64.1607 129.192 64.1178 129 64.1178 128.791ZM64.8039 128.507V128.791C64.8039 128.93 64.8372 129.057 64.9038 129.172C64.9704 129.288 65.0878 129.346 65.2561 129.346C65.4261 129.346 65.5426 129.289 65.6057 129.175C65.6706 129.059 65.703 128.932 65.703 128.791V128.507C65.703 128.367 65.6723 128.239 65.611 128.124C65.5496 128.006 65.4313 127.947 65.2561 127.947C65.0913 127.947 64.9748 128.006 64.9064 128.124C64.8381 128.239 64.8039 128.367 64.8039 128.507ZM61.3811 125.71V125.426C61.3811 125.216 61.4258 125.023 61.5152 124.848C61.6046 124.673 61.7343 124.533 61.9043 124.427C62.0743 124.32 62.2802 124.267 62.5221 124.267C62.7692 124.267 62.9769 124.32 63.1451 124.427C63.3151 124.533 63.443 124.673 63.5289 124.848C63.6148 125.023 63.6577 125.216 63.6577 125.426V125.71C63.6577 125.921 63.6139 126.113 63.5263 126.289C63.4404 126.462 63.3125 126.601 63.1425 126.707C62.9725 126.812 62.7657 126.864 62.5221 126.864C62.2749 126.864 62.0664 126.812 61.8964 126.707C61.7281 126.601 61.6002 126.461 61.5126 126.286C61.4249 126.111 61.3811 125.919 61.3811 125.71ZM62.0725 125.426V125.71C62.0725 125.85 62.1049 125.978 62.1698 126.094C62.2364 126.208 62.3538 126.265 62.5221 126.265C62.6903 126.265 62.806 126.208 62.8691 126.094C62.9339 125.978 62.9663 125.85 62.9663 125.71V125.426C62.9663 125.286 62.9357 125.158 62.8743 125.043C62.813 124.925 62.6956 124.866 62.5221 124.866C62.3556 124.866 62.239 124.925 62.1724 125.043C62.1058 125.16 62.0725 125.288 62.0725 125.426ZM61.6808 129.801L65.3823 124.417H66.0395L62.338 129.801H61.6808Z" fill="#60646C"/>
<path d="M92.9042 129.801V129.096L94.7734 127.264C94.9521 127.083 95.1011 126.923 95.2203 126.783C95.3394 126.643 95.4288 126.507 95.4884 126.375C95.548 126.244 95.5778 126.104 95.5778 125.955C95.5778 125.785 95.5392 125.639 95.4621 125.518C95.385 125.396 95.279 125.301 95.144 125.234C95.0091 125.168 94.8557 125.135 94.684 125.135C94.507 125.135 94.3519 125.171 94.2187 125.245C94.0855 125.317 93.9821 125.419 93.9085 125.553C93.8366 125.686 93.8007 125.844 93.8007 126.028H92.8727C92.8727 125.687 92.9507 125.39 93.1067 125.137C93.2626 124.885 93.4773 124.689 93.7507 124.551C94.0259 124.412 94.3413 124.343 94.6971 124.343C95.0581 124.343 95.3754 124.411 95.6488 124.546C95.9222 124.681 96.1342 124.866 96.285 125.1C96.4374 125.335 96.5137 125.603 96.5137 125.905C96.5137 126.106 96.4751 126.304 96.398 126.499C96.3209 126.693 96.1851 126.909 95.9905 127.146C95.7977 127.382 95.527 127.669 95.1782 128.005L94.2502 128.949V128.986H96.5952V129.801H92.9042ZM99.4738 129.874C99.2161 129.873 98.9646 129.828 98.7193 129.74C98.4739 129.651 98.2531 129.506 98.0568 129.307C97.8605 129.105 97.7045 128.838 97.5889 128.505C97.4732 128.17 97.4162 127.756 97.418 127.261C97.418 126.8 97.4671 126.389 97.5652 126.028C97.6634 125.667 97.8044 125.362 97.9885 125.114C98.1725 124.863 98.3942 124.672 98.6536 124.54C98.9147 124.409 99.2065 124.343 99.529 124.343C99.8672 124.343 100.167 124.41 100.428 124.543C100.691 124.676 100.903 124.859 101.064 125.09C101.225 125.319 101.325 125.579 101.364 125.868H100.404C100.355 125.661 100.255 125.496 100.102 125.374C99.9513 125.249 99.7603 125.187 99.529 125.187C99.1557 125.187 98.8682 125.349 98.6667 125.673C98.4669 125.998 98.3661 126.443 98.3644 127.009H98.4012C98.4871 126.855 98.5984 126.722 98.7351 126.612C98.8718 126.502 99.026 126.417 99.1977 126.357C99.3712 126.296 99.5544 126.265 99.7472 126.265C100.063 126.265 100.346 126.34 100.596 126.491C100.849 126.642 101.048 126.849 101.196 127.114C101.343 127.377 101.416 127.678 101.414 128.018C101.416 128.372 101.335 128.691 101.172 128.973C101.009 129.253 100.782 129.474 100.491 129.635C100.2 129.796 99.8611 129.876 99.4738 129.874ZM99.4685 129.086C99.6595 129.086 99.8304 129.039 99.9811 128.946C100.132 128.854 100.251 128.728 100.339 128.57C100.426 128.413 100.469 128.236 100.467 128.039C100.469 127.847 100.427 127.672 100.341 127.516C100.257 127.36 100.141 127.237 99.9916 127.146C99.8427 127.054 99.6727 127.009 99.4816 127.009C99.3397 127.009 99.2074 127.036 99.0847 127.09C98.962 127.145 98.8551 127.22 98.764 127.317C98.6728 127.411 98.601 127.522 98.5484 127.648C98.4976 127.772 98.4713 127.905 98.4695 128.047C98.4713 128.235 98.5151 128.407 98.601 128.565C98.6869 128.723 98.8052 128.849 98.9559 128.944C99.1066 129.038 99.2775 129.086 99.4685 129.086ZM105.181 128.791V128.507C105.181 128.299 105.225 128.107 105.312 127.932C105.402 127.756 105.532 127.615 105.702 127.508C105.872 127.402 106.077 127.348 106.319 127.348C106.568 127.348 106.777 127.402 106.945 127.508C107.113 127.614 107.24 127.754 107.326 127.929C107.414 128.104 107.458 128.297 107.458 128.507V128.791C107.458 129 107.414 129.192 107.326 129.367C107.239 129.542 107.11 129.683 106.94 129.79C106.771 129.897 106.565 129.951 106.319 129.951C106.074 129.951 105.866 129.897 105.696 129.79C105.526 129.683 105.397 129.542 105.31 129.367C105.224 129.192 105.181 129 105.181 128.791ZM105.867 128.507V128.791C105.867 128.93 105.9 129.057 105.967 129.172C106.034 129.288 106.151 129.346 106.319 129.346C106.489 129.346 106.606 129.289 106.669 129.175C106.734 129.059 106.766 128.932 106.766 128.791V128.507C106.766 128.367 106.736 128.239 106.674 128.124C106.613 128.006 106.495 127.947 106.319 127.947C106.155 127.947 106.038 128.006 105.97 128.124C105.901 128.239 105.867 128.367 105.867 128.507ZM102.444 125.71V125.426C102.444 125.216 102.489 125.023 102.578 124.848C102.668 124.673 102.798 124.533 102.968 124.427C103.138 124.32 103.343 124.267 103.585 124.267C103.832 124.267 104.04 124.32 104.208 124.427C104.378 124.533 104.506 124.673 104.592 124.848C104.678 125.023 104.721 125.216 104.721 125.426V125.71C104.721 125.921 104.677 126.113 104.59 126.289C104.504 126.462 104.376 126.601 104.206 126.707C104.036 126.812 103.829 126.864 103.585 126.864C103.338 126.864 103.13 126.812 102.96 126.707C102.791 126.601 102.663 126.461 102.576 126.286C102.488 126.111 102.444 125.919 102.444 125.71ZM103.136 125.426V125.71C103.136 125.85 103.168 125.978 103.233 126.094C103.3 126.208 103.417 126.265 103.585 126.265C103.754 126.265 103.869 126.208 103.932 126.094C103.997 125.978 104.03 125.85 104.03 125.71V125.426C104.03 125.286 103.999 125.158 103.938 125.043C103.876 124.925 103.759 124.866 103.585 124.866C103.419 124.866 103.302 124.925 103.236 125.043C103.169 125.16 103.136 125.288 103.136 125.426ZM102.744 129.801L106.446 124.417H107.103L103.401 129.801H102.744Z" fill="#60646C"/>
<path d="M80.2644 123.693C80.2644 122.671 81.093 121.843 82.1151 121.843H87.814C88.8361 121.843 89.6647 122.671 89.6647 123.693V130.039C89.6647 131.061 88.8361 131.889 87.814 131.889H82.1151C81.093 131.889 80.2644 131.061 80.2644 130.039V123.693Z" fill="#FFE2C7" stroke="#FF8E6A" stroke-width="0.528777"/>
<g clip-path="url(#clip2_5758_104499)">
<path d="M82.2344 130.039H82.2381" stroke="#FF4F18" stroke-width="1.05755" stroke-linecap="round" stroke-linejoin="round"/>
<path d="M84.0957 130.039V128.453" stroke="#FF4F18" stroke-width="1.05755" stroke-linecap="round" stroke-linejoin="round"/>
<path d="M85.957 130.04V126.867" stroke="#FF4F18" stroke-width="1.05755" stroke-linecap="round" stroke-linejoin="round"/>
<path d="M87.8184 130.04V125.281" stroke="#FF4F18" stroke-width="1.05755" stroke-linecap="round" stroke-linejoin="round"/>
</g>
<path d="M153.358 130.406C152.979 130.406 152.643 130.341 152.348 130.211C152.056 130.081 151.824 129.901 151.654 129.67C151.484 129.438 151.394 129.171 151.384 128.868H152.372C152.381 129.013 152.429 129.14 152.517 129.249C152.604 129.356 152.721 129.439 152.866 129.499C153.012 129.558 153.175 129.588 153.355 129.588C153.548 129.588 153.719 129.555 153.868 129.488C154.017 129.42 154.133 129.325 154.218 129.204C154.302 129.083 154.343 128.944 154.341 128.786C154.343 128.623 154.301 128.48 154.215 128.355C154.129 128.231 154.005 128.133 153.842 128.063C153.68 127.993 153.486 127.958 153.258 127.958H152.782V127.206H153.258C153.446 127.206 153.609 127.174 153.75 127.109C153.892 127.044 154.003 126.953 154.083 126.836C154.164 126.716 154.204 126.579 154.202 126.423C154.204 126.27 154.169 126.138 154.099 126.026C154.031 125.912 153.934 125.824 153.807 125.76C153.683 125.697 153.537 125.666 153.368 125.666C153.204 125.666 153.051 125.696 152.911 125.755C152.771 125.815 152.658 125.9 152.572 126.01C152.486 126.119 152.44 126.249 152.435 126.399H151.497C151.504 126.098 151.59 125.833 151.757 125.605C151.925 125.376 152.15 125.197 152.43 125.069C152.71 124.939 153.025 124.875 153.374 124.875C153.733 124.875 154.045 124.942 154.31 125.077C154.576 125.21 154.782 125.39 154.927 125.616C155.073 125.842 155.146 126.092 155.146 126.365C155.147 126.668 155.058 126.922 154.877 127.127C154.699 127.332 154.464 127.467 154.173 127.53V127.572C154.551 127.624 154.841 127.765 155.043 127.992C155.246 128.218 155.347 128.5 155.345 128.836C155.345 129.138 155.259 129.408 155.088 129.646C154.918 129.882 154.683 130.068 154.383 130.203C154.085 130.338 153.743 130.406 153.358 130.406ZM158.219 130.406C157.962 130.404 157.71 130.359 157.465 130.272C157.22 130.182 156.999 130.038 156.802 129.838C156.606 129.636 156.45 129.369 156.334 129.036C156.219 128.701 156.162 128.287 156.164 127.793C156.164 127.332 156.213 126.921 156.311 126.56C156.409 126.199 156.55 125.894 156.734 125.645C156.918 125.394 157.14 125.203 157.399 125.072C157.66 124.94 157.952 124.875 158.275 124.875C158.613 124.875 158.913 124.941 159.174 125.074C159.437 125.208 159.649 125.39 159.81 125.621C159.971 125.851 160.071 126.11 160.11 126.399H159.15C159.101 126.192 159 126.028 158.848 125.905C158.697 125.781 158.506 125.718 158.275 125.718C157.901 125.718 157.614 125.88 157.412 126.205C157.213 126.529 157.112 126.974 157.11 127.54H157.147C157.233 127.386 157.344 127.254 157.481 127.143C157.617 127.033 157.772 126.948 157.943 126.888C158.117 126.827 158.3 126.796 158.493 126.796C158.808 126.796 159.091 126.872 159.342 127.022C159.594 127.173 159.794 127.381 159.941 127.645C160.088 127.908 160.161 128.21 160.159 128.55C160.161 128.904 160.081 129.222 159.918 129.504C159.755 129.784 159.528 130.005 159.237 130.166C158.946 130.328 158.607 130.407 158.219 130.406ZM158.214 129.617C158.405 129.617 158.576 129.571 158.727 129.478C158.877 129.385 158.997 129.259 159.084 129.102C159.172 128.944 159.215 128.767 159.213 128.571C159.215 128.378 159.173 128.204 159.087 128.048C159.003 127.892 158.886 127.768 158.737 127.677C158.588 127.586 158.418 127.54 158.227 127.54C158.085 127.54 157.953 127.567 157.83 127.622C157.708 127.676 157.601 127.751 157.51 127.848C157.418 127.942 157.347 128.053 157.294 128.179C157.243 128.303 157.217 128.437 157.215 128.579C157.217 128.766 157.261 128.939 157.347 129.096C157.432 129.254 157.551 129.38 157.701 129.475C157.852 129.57 158.023 129.617 158.214 129.617ZM163.927 129.323V129.039C163.927 128.83 163.97 128.638 164.058 128.463C164.147 128.288 164.277 128.147 164.447 128.04C164.617 127.933 164.823 127.879 165.065 127.879C165.314 127.879 165.522 127.933 165.691 128.04C165.859 128.145 165.986 128.285 166.072 128.46C166.159 128.636 166.203 128.828 166.203 129.039V129.323C166.203 129.531 166.159 129.723 166.072 129.898C165.984 130.074 165.855 130.215 165.685 130.322C165.517 130.428 165.31 130.482 165.065 130.482C164.82 130.482 164.612 130.428 164.442 130.322C164.272 130.215 164.143 130.074 164.055 129.898C163.97 129.723 163.927 129.531 163.927 129.323ZM164.613 129.039V129.323C164.613 129.461 164.646 129.588 164.713 129.704C164.779 129.819 164.897 129.877 165.065 129.877C165.235 129.877 165.351 129.82 165.415 129.706C165.479 129.591 165.512 129.463 165.512 129.323V129.039C165.512 128.898 165.481 128.77 165.42 128.655C165.358 128.537 165.24 128.479 165.065 128.479C164.9 128.479 164.784 128.537 164.715 128.655C164.647 128.77 164.613 128.898 164.613 129.039ZM161.19 126.242V125.958C161.19 125.747 161.235 125.555 161.324 125.379C161.413 125.204 161.543 125.064 161.713 124.959C161.883 124.852 162.089 124.798 162.331 124.798C162.578 124.798 162.786 124.852 162.954 124.959C163.124 125.064 163.252 125.204 163.338 125.379C163.424 125.555 163.467 125.747 163.467 125.958V126.242C163.467 126.452 163.423 126.645 163.335 126.82C163.249 126.993 163.121 127.133 162.951 127.238C162.781 127.343 162.575 127.396 162.331 127.396C162.084 127.396 161.875 127.343 161.705 127.238C161.537 127.133 161.409 126.992 161.321 126.817C161.234 126.642 161.19 126.45 161.19 126.242ZM161.881 125.958V126.242C161.881 126.382 161.914 126.51 161.979 126.625C162.045 126.739 162.163 126.796 162.331 126.796C162.499 126.796 162.615 126.739 162.678 126.625C162.743 126.51 162.775 126.382 162.775 126.242V125.958C162.775 125.817 162.745 125.689 162.683 125.574C162.622 125.456 162.504 125.398 162.331 125.398C162.164 125.398 162.048 125.456 161.981 125.574C161.915 125.691 161.881 125.819 161.881 125.958ZM161.49 130.332L165.191 124.948H165.848L162.147 130.332H161.49Z" fill="#60646C"/>
<rect x="138.264" y="121.843" width="9.89676" height="10.0468" rx="1.85072" fill="#FEFBE9" stroke="#E2A336" stroke-width="0.528777"/>
<g clip-path="url(#clip3_5758_104499)">
<path d="M140.346 130.039H140.35" stroke="#E2A336" stroke-width="1.05755" stroke-linecap="round" stroke-linejoin="round"/>
<path d="M142.301 130.039V128.453" stroke="#E2A336" stroke-width="1.05755" stroke-linecap="round" stroke-linejoin="round"/>
<path d="M144.256 130.04V126.867" stroke="#E2A336" stroke-width="1.05755" stroke-linecap="round" stroke-linejoin="round"/>
</g>
<path d="M240.701 124.948V130.332H239.726V125.897H239.695L238.435 126.702V125.808L239.774 124.948H240.701ZM243.982 130.406C243.591 130.406 243.244 130.34 242.941 130.208C242.64 130.077 242.403 129.897 242.231 129.67C242.061 129.44 241.977 129.18 241.979 128.889C241.977 128.663 242.026 128.455 242.126 128.266C242.226 128.076 242.361 127.919 242.531 127.793C242.703 127.665 242.894 127.583 243.104 127.548V127.511C242.827 127.45 242.603 127.309 242.431 127.088C242.261 126.865 242.177 126.609 242.179 126.318C242.177 126.041 242.254 125.794 242.41 125.576C242.566 125.359 242.78 125.188 243.052 125.064C243.323 124.938 243.634 124.875 243.982 124.875C244.328 124.875 244.635 124.938 244.905 125.064C245.177 125.188 245.391 125.359 245.546 125.576C245.704 125.794 245.783 126.041 245.783 126.318C245.783 126.609 245.696 126.865 245.523 127.088C245.351 127.309 245.129 127.45 244.858 127.511V127.548C245.068 127.583 245.257 127.665 245.426 127.793C245.596 127.919 245.731 128.076 245.83 128.266C245.932 128.455 245.983 128.663 245.983 128.889C245.983 129.18 245.897 129.44 245.725 129.67C245.554 129.897 245.317 130.077 245.015 130.208C244.716 130.34 244.371 130.406 243.982 130.406ZM243.982 129.654C244.184 129.654 244.359 129.62 244.508 129.551C244.657 129.481 244.773 129.383 244.855 129.257C244.937 129.131 244.98 128.985 244.981 128.82C244.98 128.649 244.935 128.497 244.847 128.366C244.761 128.232 244.643 128.128 244.492 128.053C244.343 127.977 244.173 127.94 243.982 127.94C243.79 127.94 243.618 127.977 243.467 128.053C243.316 128.128 243.197 128.232 243.11 128.366C243.024 128.497 242.982 128.649 242.983 128.82C242.982 128.985 243.022 129.131 243.104 129.257C243.187 129.381 243.302 129.479 243.451 129.549C243.602 129.619 243.779 129.654 243.982 129.654ZM243.982 127.201C244.147 127.201 244.293 127.168 244.419 127.101C244.547 127.035 244.647 126.942 244.721 126.822C244.795 126.703 244.832 126.566 244.834 126.41C244.832 126.256 244.796 126.121 244.724 126.005C244.652 125.888 244.552 125.797 244.424 125.734C244.296 125.669 244.149 125.637 243.982 125.637C243.812 125.637 243.662 125.669 243.533 125.734C243.405 125.797 243.305 125.888 243.233 126.005C243.163 126.121 243.129 126.256 243.131 126.41C243.129 126.566 243.164 126.703 243.236 126.822C243.309 126.94 243.41 127.033 243.538 127.101C243.668 127.168 243.816 127.201 243.982 127.201ZM249.726 129.323V129.039C249.726 128.83 249.77 128.638 249.857 128.463C249.947 128.288 250.076 128.147 250.246 128.04C250.416 127.933 250.622 127.879 250.864 127.879C251.113 127.879 251.321 127.933 251.49 128.04C251.658 128.145 251.785 128.285 251.871 128.46C251.959 128.636 252.002 128.828 252.002 129.039V129.323C252.002 129.531 251.959 129.723 251.871 129.898C251.783 130.074 251.654 130.215 251.484 130.322C251.316 130.428 251.109 130.482 250.864 130.482C250.619 130.482 250.411 130.428 250.241 130.322C250.071 130.215 249.942 130.074 249.855 129.898C249.769 129.723 249.726 129.531 249.726 129.323ZM250.412 129.039V129.323C250.412 129.461 250.445 129.588 250.512 129.704C250.578 129.819 250.696 129.877 250.864 129.877C251.034 129.877 251.151 129.82 251.214 129.706C251.279 129.591 251.311 129.463 251.311 129.323V129.039C251.311 128.898 251.28 128.77 251.219 128.655C251.158 128.537 251.039 128.479 250.864 128.479C250.699 128.479 250.583 128.537 250.514 128.655C250.446 128.77 250.412 128.898 250.412 129.039ZM246.989 126.242V125.958C246.989 125.747 247.034 125.555 247.123 125.379C247.213 125.204 247.342 125.064 247.512 124.959C247.682 124.852 247.888 124.798 248.13 124.798C248.377 124.798 248.585 124.852 248.753 124.959C248.923 125.064 249.051 125.204 249.137 125.379C249.223 125.555 249.266 125.747 249.266 125.958V126.242C249.266 126.452 249.222 126.645 249.134 126.82C249.048 126.993 248.92 127.133 248.75 127.238C248.58 127.343 248.374 127.396 248.13 127.396C247.883 127.396 247.674 127.343 247.504 127.238C247.336 127.133 247.208 126.992 247.121 126.817C247.033 126.642 246.989 126.45 246.989 126.242ZM247.68 125.958V126.242C247.68 126.382 247.713 126.51 247.778 126.625C247.844 126.739 247.962 126.796 248.13 126.796C248.298 126.796 248.414 126.739 248.477 126.625C248.542 126.51 248.574 126.382 248.574 126.242V125.958C248.574 125.817 248.544 125.689 248.482 125.574C248.421 125.456 248.304 125.398 248.13 125.398C247.964 125.398 247.847 125.456 247.78 125.574C247.714 125.691 247.68 125.819 247.68 125.958ZM247.289 130.332L250.99 124.948H251.647L247.946 130.332H247.289Z" fill="#60646C"/>
<rect x="225.266" y="122.596" width="9.89676" height="10.0468" rx="1.85072" fill="#EDF2FE" stroke="#3E63DD" stroke-width="0.528777"/>
<g clip-path="url(#clip4_5758_104499)">
<path d="M226.826 130.789H226.83" stroke="#3E63DD" stroke-width="1.05755" stroke-linecap="round" stroke-linejoin="round"/>
<path d="M228.779 130.789V129.203" stroke="#3E63DD" stroke-width="1.05755" stroke-linecap="round" stroke-linejoin="round"/>
</g>
<path d="M283.065 130.406C282.808 130.404 282.556 130.359 282.311 130.272C282.065 130.182 281.845 130.038 281.648 129.838C281.452 129.636 281.296 129.369 281.18 129.036C281.065 128.701 281.008 128.287 281.01 127.793C281.01 127.332 281.059 126.921 281.157 126.56C281.255 126.199 281.396 125.894 281.58 125.645C281.764 125.394 281.986 125.203 282.245 125.072C282.506 124.94 282.798 124.875 283.121 124.875C283.459 124.875 283.758 124.941 284.02 125.074C284.282 125.208 284.495 125.39 284.656 125.621C284.817 125.851 284.917 126.11 284.955 126.399H283.996C283.947 126.192 283.846 126.028 283.694 125.905C283.543 125.781 283.352 125.718 283.121 125.718C282.747 125.718 282.46 125.88 282.258 126.205C282.058 126.529 281.958 126.974 281.956 127.54H281.993C282.079 127.386 282.19 127.254 282.327 127.143C282.463 127.033 282.618 126.948 282.789 126.888C282.963 126.827 283.146 126.796 283.339 126.796C283.654 126.796 283.937 126.872 284.188 127.022C284.44 127.173 284.64 127.381 284.787 127.645C284.934 127.908 285.007 128.21 285.005 128.55C285.007 128.904 284.927 129.222 284.764 129.504C284.601 129.784 284.374 130.005 284.083 130.166C283.792 130.328 283.453 130.407 283.065 130.406ZM283.06 129.617C283.251 129.617 283.422 129.571 283.573 129.478C283.723 129.385 283.843 129.259 283.93 129.102C284.018 128.944 284.061 128.767 284.059 128.571C284.061 128.378 284.019 128.204 283.933 128.048C283.849 127.892 283.732 127.768 283.583 127.677C283.434 127.586 283.264 127.54 283.073 127.54C282.931 127.54 282.799 127.567 282.676 127.622C282.554 127.676 282.447 127.751 282.356 127.848C282.264 127.942 282.193 128.053 282.14 128.179C282.089 128.303 282.063 128.437 282.061 128.579C282.063 128.766 282.107 128.939 282.193 129.096C282.278 129.254 282.397 129.38 282.547 129.475C282.698 129.57 282.869 129.617 283.06 129.617ZM288.773 129.323V129.039C288.773 128.83 288.816 128.638 288.904 128.463C288.993 128.288 289.123 128.147 289.293 128.04C289.463 127.933 289.669 127.879 289.911 127.879C290.16 127.879 290.368 127.933 290.537 128.04C290.705 128.145 290.832 128.285 290.918 128.46C291.005 128.636 291.049 128.828 291.049 129.039V129.323C291.049 129.531 291.005 129.723 290.918 129.898C290.83 130.074 290.701 130.215 290.531 130.322C290.363 130.428 290.156 130.482 289.911 130.482C289.666 130.482 289.458 130.428 289.288 130.322C289.118 130.215 288.989 130.074 288.901 129.898C288.816 129.723 288.773 129.531 288.773 129.323ZM289.459 129.039V129.323C289.459 129.461 289.492 129.588 289.559 129.704C289.625 129.819 289.743 129.877 289.911 129.877C290.081 129.877 290.197 129.82 290.261 129.706C290.325 129.591 290.358 129.463 290.358 129.323V129.039C290.358 128.898 290.327 128.77 290.266 128.655C290.204 128.537 290.086 128.479 289.911 128.479C289.746 128.479 289.63 128.537 289.561 128.655C289.493 128.77 289.459 128.898 289.459 129.039ZM286.036 126.242V125.958C286.036 125.747 286.081 125.555 286.17 125.379C286.259 125.204 286.389 125.064 286.559 124.959C286.729 124.852 286.935 124.798 287.177 124.798C287.424 124.798 287.632 124.852 287.8 124.959C287.97 125.064 288.098 125.204 288.184 125.379C288.27 125.555 288.313 125.747 288.313 125.958V126.242C288.313 126.452 288.269 126.645 288.181 126.82C288.095 126.993 287.967 127.133 287.797 127.238C287.627 127.343 287.42 127.396 287.177 127.396C286.93 127.396 286.721 127.343 286.551 127.238C286.383 127.133 286.255 126.992 286.167 126.817C286.08 126.642 286.036 126.45 286.036 126.242ZM286.727 125.958V126.242C286.727 126.382 286.76 126.51 286.825 126.625C286.891 126.739 287.009 126.796 287.177 126.796C287.345 126.796 287.461 126.739 287.524 126.625C287.589 126.51 287.621 126.382 287.621 126.242V125.958C287.621 125.817 287.59 125.689 287.529 125.574C287.468 125.456 287.35 125.398 287.177 125.398C287.01 125.398 286.894 125.456 286.827 125.574C286.761 125.691 286.727 125.819 286.727 125.958ZM286.336 130.332L290.037 124.948H290.694L286.993 130.332H286.336Z" fill="#60646C"/>
<path d="M267.932 124.447C267.932 123.425 268.761 122.596 269.783 122.596H275.978C277.001 122.596 277.829 123.425 277.829 124.447V130.792C277.829 131.815 277.001 132.643 275.978 132.643H269.783C268.761 132.643 267.932 131.815 267.932 130.792V124.447Z" fill="#E8E8EC" stroke="#B9BBC6" stroke-width="0.528777"/>
<g clip-path="url(#clip5_5758_104499)">
<path d="M272.655 130.474C274.334 130.474 275.696 129.093 275.696 127.389C275.696 125.686 274.334 124.305 272.655 124.305C270.975 124.305 269.614 125.686 269.614 127.389C269.614 129.093 270.975 130.474 272.655 130.474Z" stroke="#60646C" stroke-width="0.528777" stroke-linecap="round" stroke-linejoin="round"/>
<path d="M270.496 125.199L274.814 129.579" stroke="#60646C" stroke-width="0.528777" stroke-linecap="round" stroke-linejoin="round"/>
</g>
</g>
<rect x="20.5" y="8.5" width="292" height="167" rx="3.5" stroke="#D9D9E0" shape-rendering="crispEdges"/>
</g>
<defs>
<filter id="filter0_bd_5758_104499" x="-15.8442" y="-27.8442" width="364.688" height="239.688" filterUnits="userSpaceOnUse" color-interpolation-filters="sRGB">
<feFlood flood-opacity="0" result="BackgroundImageFix"/>
<feGaussianBlur in="BackgroundImageFix" stdDeviation="17.9221"/>
<feComposite in2="SourceAlpha" operator="in" result="effect1_backgroundBlur_5758_104499"/>
<feColorMatrix in="SourceAlpha" type="matrix" values="0 0 0 0 0 0 0 0 0 0 0 0 0 0 0 0 0 0 127 0" result="hardAlpha"/>
<feMorphology radius="23.8961" operator="erode" in="SourceAlpha" result="effect2_dropShadow_5758_104499"/>
<feOffset dy="12"/>
<feGaussianBlur stdDeviation="21.5065"/>
<feComposite in2="hardAlpha" operator="out"/>
<feColorMatrix type="matrix" values="0 0 0 0 0.153705 0 0 0 0 0.17665 0 0 0 0 0.350374 0 0 0 0.05 0"/>
<feBlend mode="normal" in2="effect1_backgroundBlur_5758_104499" result="effect2_dropShadow_5758_104499"/>
<feBlend mode="normal" in="SourceGraphic" in2="effect2_dropShadow_5758_104499" result="shape"/>
</filter>
<linearGradient id="paint0_linear_5758_104499" x1="71.7572" y1="114.926" x2="71.7572" y2="152.469" gradientUnits="userSpaceOnUse">
<stop stop-color="#DF4D51"/>
<stop offset="1" stop-color="#A90408"/>
</linearGradient>
<linearGradient id="paint1_linear_5758_104499" x1="111.415" y1="114.926" x2="111.415" y2="170.447" gradientUnits="userSpaceOnUse">
<stop stop-color="#FFAC88"/>
<stop offset="1" stop-color="#FE6B00"/>
</linearGradient>
<linearGradient id="paint2_linear_5758_104499" x1="169.052" y1="114.926" x2="169.052" y2="200.588" gradientUnits="userSpaceOnUse">
<stop stop-color="#FFD675"/>
<stop offset="1" stop-color="#F5AC00"/>
</linearGradient>
<linearGradient id="paint3_linear_5758_104499" x1="256.829" y1="114.926" x2="256.829" y2="153.527" gradientUnits="userSpaceOnUse">
<stop stop-color="#4F9BF4"/>
<stop offset="1" stop-color="#1B46DE"/>
</linearGradient>
<linearGradient id="paint4_linear_5758_104499" x1="297.544" y1="114.926" x2="297.544" y2="134.491" gradientUnits="userSpaceOnUse">
<stop stop-color="#B9BBC6"/>
<stop offset="1" stop-color="#A0A1A9"/>
</linearGradient>
<clipPath id="clip0_5758_104499">
<rect x="20" y="8" width="293" height="168" rx="4" fill="white"/>
</clipPath>
<clipPath id="clip1_5758_104499">
<rect width="7.40288" height="7.40288" fill="white" transform="translate(41.5859 123.164)"/>
</clipPath>
<clipPath id="clip2_5758_104499">
<rect width="8.93617" height="9.51799" fill="white" transform="translate(81.4883 122.105)"/>
</clipPath>
<clipPath id="clip3_5758_104499">
<rect width="9.38298" height="9.51799" fill="white" transform="translate(139.564 122.105)"/>
</clipPath>
<clipPath id="clip4_5758_104499">
<rect width="9.38298" height="9.51799" fill="white" transform="translate(226.043 122.859)"/>
</clipPath>
<clipPath id="clip5_5758_104499">
<rect width="7.29787" height="7.40288" fill="white" transform="translate(269.006 123.688)"/>
</clipPath>
</defs>
</svg>
