<svg width="293" height="168" viewBox="0 0 293 168" fill="none" xmlns="http://www.w3.org/2000/svg">
<g clip-path="url(#clip0_5758_104499)">
<path d="M0 1.6698C0 0.501654 0.946966 -0.445312 2.11511 -0.445312H291.885C293.053 -0.445312 294 0.501654 294 1.6698V167.44C294 168.608 293.053 169.555 291.885 169.555H2.11512C0.946977 169.555 0 168.608 0 167.44V1.6698Z" fill="white"/>
<rect x="20.2949" y="106.926" width="62.9245" height="37.5432" rx="2.11511" transform="rotate(-90 20.2949 106.926)" fill="url(#paint0_linear_5758_104499)"/>
<rect x="59.9531" y="106.926" width="62.9245" height="55.5216" rx="2.11511" transform="rotate(-90 59.9531 106.926)" fill="url(#paint1_linear_5758_104499)"/>
<rect x="117.59" y="106.926" width="62.9245" height="85.6619" rx="2.11511" transform="rotate(-90 117.59 106.926)" fill="url(#paint2_linear_5758_104499)"/>
<rect x="205.367" y="106.926" width="62.9245" height="38.6007" rx="2.11511" transform="rotate(-90 205.367 106.926)" fill="url(#paint3_linear_5758_104499)"/>
<rect x="246.082" y="106.926" width="62.9245" height="19.5647" rx="2.11511" transform="rotate(-90 246.082 106.926)" fill="url(#paint4_linear_5758_104499)"/>
<path d="M24.5622 95.8975L24.5622 94.8497L29.115 94.8497C29.5995 94.8497 30.0287 94.9635 30.4028 95.1911C30.7746 95.4186 31.0675 95.7386 31.2816 96.151C31.4934 96.5633 31.5993 97.0467 31.5993 97.601C31.5993 98.153 31.4934 98.6352 31.2816 99.0476C31.0675 99.46 30.7746 99.7799 30.4028 100.008C30.0287 100.235 29.5995 100.349 29.115 100.349L24.5622 100.349L24.5622 99.3045L29.0305 99.3045C29.3437 99.3045 29.622 99.2357 29.8654 99.0983C30.1087 98.9586 30.3003 98.7614 30.44 98.5068C30.5774 98.2522 30.6461 97.9502 30.6461 97.601C30.6461 97.2495 30.5774 96.9464 30.44 96.6918C30.3003 96.4349 30.1087 96.2388 29.8654 96.1036C29.622 95.9662 29.3437 95.8975 29.0305 95.8975L24.5622 95.8975ZM31.4844 93.4123L26.2927 93.4123L26.2927 92.4355L27.1175 92.4355L27.1175 92.3815C26.838 92.2868 26.6183 92.1201 26.4584 91.8812C26.2961 91.6401 26.215 91.3675 26.215 91.0633C26.215 91.0002 26.2173 90.9258 26.2218 90.8402C26.2263 90.7523 26.2319 90.6836 26.2387 90.634L27.2053 90.634C27.1941 90.6746 27.1817 90.7467 27.1682 90.8503C27.1524 90.954 27.1445 91.0576 27.1445 91.1613C27.1445 91.4001 27.1952 91.6131 27.2966 91.8001C27.3957 91.9849 27.5343 92.1313 27.7123 92.2395C27.8881 92.3477 28.0886 92.4017 28.314 92.4017L31.4844 92.4017L31.4844 93.4123ZM33.5394 87.7686C33.5394 88.181 33.4853 88.5359 33.3772 88.8333C33.269 89.1285 33.1259 89.3696 32.9479 89.5566C32.7699 89.7437 32.575 89.8834 32.3632 89.9758L32.0049 89.1071C32.104 89.0463 32.2088 88.9652 32.3192 88.8638C32.4319 88.7601 32.5277 88.6204 32.6065 88.4446C32.6854 88.2666 32.7248 88.0379 32.7248 87.7585C32.7248 87.3754 32.6313 87.0589 32.4443 86.8087C32.2595 86.5586 31.9643 86.4336 31.5587 86.4336L30.538 86.4336L30.538 86.4978C30.6484 86.5586 30.7712 86.6465 30.9064 86.7614C31.0416 86.8741 31.1588 87.0296 31.2579 87.2279C31.3571 87.4261 31.4066 87.6841 31.4066 88.0019C31.4066 88.412 31.3109 88.7815 31.1193 89.1105C30.9256 89.4372 30.6405 89.6964 30.2642 89.8879C29.8857 90.0772 29.4203 90.1718 28.8683 90.1718C28.3162 90.1718 27.843 90.0783 27.4487 89.8913C27.0544 89.702 26.7524 89.4429 26.5429 89.1139C26.3311 88.7849 26.2251 88.412 26.2251 87.9951C26.2251 87.6729 26.2792 87.4126 26.3874 87.2143C26.4933 87.016 26.6172 86.8617 26.7592 86.7513C26.9011 86.6386 27.0262 86.5519 27.1344 86.491L27.1344 86.4167L26.2927 86.4167L26.2927 85.4263L31.5993 85.4263C32.0454 85.4263 32.4116 85.53 32.6978 85.7373C32.984 85.9446 33.1958 86.2251 33.3332 86.5789C33.4707 86.9304 33.5394 87.327 33.5394 87.7686ZM30.5684 87.7788C30.5684 87.4881 30.5008 87.2425 30.3656 87.042C30.2282 86.8392 30.0321 86.6859 29.7775 86.5823C29.5206 86.4764 29.213 86.4234 28.8548 86.4234C28.5055 86.4234 28.1979 86.4752 27.932 86.5789C27.6661 86.6825 27.4588 86.8346 27.3101 87.0352C27.1591 87.2357 27.0837 87.4836 27.0837 87.7788C27.0837 88.083 27.1625 88.3365 27.3203 88.5393C27.4757 88.7421 27.6875 88.8953 27.9557 88.999C28.2238 89.1004 28.5235 89.1511 28.8548 89.1511C29.195 89.1511 29.4936 89.0992 29.7505 88.9956C30.0073 88.8919 30.2079 88.7387 30.3521 88.5359C30.4963 88.3308 30.5684 88.0785 30.5684 87.7788ZM31.5892 81.8334C31.5892 82.3449 31.4799 82.7854 31.2613 83.155C31.0405 83.5223 30.7306 83.8062 30.3318 84.0067C29.9307 84.205 29.4609 84.3042 28.9224 84.3042C28.3906 84.3042 27.9219 84.205 27.5163 84.0067C27.1107 83.8062 26.7941 83.5268 26.5665 83.1685C26.3389 82.808 26.2251 82.3866 26.2251 81.9044C26.2251 81.6115 26.2736 81.3276 26.3705 81.0527C26.4674 80.7777 26.6195 80.531 26.8268 80.3124C27.0341 80.0939 27.3034 79.9215 27.6346 79.7953C27.9636 79.6691 28.3635 79.606 28.8345 79.606L29.1928 79.606L29.1928 83.733L28.4356 83.733L28.4356 80.5964C28.1698 80.5964 27.9343 80.6504 27.7292 80.7586C27.5219 80.8668 27.3586 81.0189 27.2391 81.2149C27.1197 81.4087 27.06 81.6363 27.06 81.8976C27.06 82.1816 27.1299 82.4294 27.2696 82.6412C27.407 82.8508 27.5873 83.013 27.8104 83.128C28.0312 83.2406 28.2712 83.2969 28.5303 83.2969L29.1218 83.2969C29.4688 83.2969 29.764 83.2361 30.0073 83.1144C30.2507 82.9905 30.4366 82.8181 30.565 82.5973C30.6912 82.3765 30.7543 82.1185 30.7543 81.8233C30.7543 81.6318 30.7273 81.4571 30.6732 81.2994C30.6168 81.1417 30.5335 81.0053 30.4231 80.8904C30.3127 80.7755 30.1763 80.6876 30.0141 80.6268L30.1865 79.6702C30.4681 79.7469 30.7149 79.8843 30.9267 80.0826C31.1362 80.2786 31.2996 80.5254 31.4168 80.8228C31.5317 81.118 31.5892 81.4549 31.5892 81.8334ZM28.4018 77.4741L31.4844 77.4741L31.4844 78.4847L26.2927 78.4847L26.2927 77.5147L27.1377 77.5147L27.1377 77.4505C26.8628 77.331 26.642 77.144 26.4753 76.8894C26.3085 76.6325 26.2251 76.3092 26.2251 75.9193C26.2251 75.5656 26.2995 75.2557 26.4482 74.9898C26.5947 74.7239 26.8133 74.5178 27.1039 74.3713C27.3946 74.2248 27.754 74.1516 28.1821 74.1516L31.4844 74.1516L31.4844 75.1622L28.3038 75.1622C27.9275 75.1622 27.6335 75.2602 27.4217 75.4563C27.2076 75.6523 27.1006 75.9216 27.1006 76.2641C27.1006 76.4984 27.1513 76.7069 27.2527 76.8894C27.3541 77.0696 27.5028 77.2127 27.6988 77.3186C27.8926 77.4223 28.1269 77.4741 28.4018 77.4741ZM26.2927 70.3728L27.1039 70.3728L27.1039 73.2086L26.2927 73.2086L26.2927 70.3728ZM25.0489 72.4481L25.0489 71.4375L29.96 71.4375C30.156 71.4375 30.3036 71.4082 30.4028 71.3496C30.4997 71.291 30.5661 71.2155 30.6022 71.1232C30.636 71.0285 30.6529 70.926 30.6529 70.8156C30.6529 70.7345 30.6473 70.6635 30.636 70.6026C30.6247 70.5418 30.6157 70.4945 30.609 70.4607L31.4438 70.2782C31.4663 70.3367 31.4889 70.4201 31.5114 70.5283C31.5362 70.6364 31.5497 70.7716 31.552 70.9339C31.5565 71.1998 31.5092 71.4476 31.41 71.6775C31.3109 71.9073 31.1576 72.0932 30.9503 72.2352C30.743 72.3771 30.4828 72.4481 30.1696 72.4481L25.0489 72.4481Z" fill="#F4A9AA"/>
<path d="M71.1094 100.349L64.1872 100.349L64.1872 99.3045L67.1954 99.3045L67.1954 95.8535L64.1872 95.8535L64.1872 94.8057L71.1094 94.8057L71.1094 95.8535L68.0911 95.8535L68.0911 99.3045L71.1094 99.3045L71.1094 100.349ZM71.1094 93.3659L65.9177 93.3659L65.9177 92.3553L71.1094 92.3553L71.1094 93.3659ZM65.1167 92.8555C65.1167 93.0313 65.0581 93.1822 64.9409 93.3084C64.8215 93.4323 64.6796 93.4943 64.5151 93.4943C64.3483 93.4943 64.2064 93.4323 64.0892 93.3084C63.9698 93.1822 63.91 93.0313 63.91 92.8555C63.91 92.6797 63.9698 92.5299 64.0892 92.406C64.2064 92.2798 64.3483 92.2167 64.5151 92.2167C64.6796 92.2167 64.8215 92.2798 64.9409 92.406C65.0581 92.5299 65.1167 92.6797 65.1167 92.8555ZM73.1644 88.819C73.1644 89.2313 73.1103 89.5862 73.0022 89.8837C72.894 90.1788 72.7509 90.4199 72.5729 90.607C72.3949 90.794 72.2 90.9337 71.9882 91.0261L71.6299 90.1574C71.729 90.0966 71.8338 90.0155 71.9442 89.9141C72.0569 89.8104 72.1527 89.6707 72.2315 89.495C72.3104 89.317 72.3498 89.0882 72.3498 88.8088C72.3498 88.4258 72.2563 88.1092 72.0693 87.8591C71.8845 87.6089 71.5893 87.4839 71.1837 87.4839L70.163 87.4839L70.163 87.5481C70.2734 87.6089 70.3962 87.6968 70.5314 87.8117C70.6666 87.9244 70.7838 88.0799 70.8829 88.2782C70.9821 88.4765 71.0316 88.7345 71.0316 89.0522C71.0316 89.4623 70.9359 89.8318 70.7443 90.1608C70.5506 90.4875 70.2655 90.7467 69.8892 90.9382C69.5107 91.1275 69.0453 91.2221 68.4933 91.2221C67.9412 91.2221 67.468 91.1286 67.0737 90.9416C66.6794 90.7523 66.3774 90.4932 66.1679 90.1642C65.9561 89.8352 65.8501 89.4623 65.8501 89.0454C65.8501 88.7232 65.9042 88.4629 66.0124 88.2647C66.1183 88.0664 66.2422 87.912 66.3842 87.8016C66.5261 87.6889 66.6512 87.6022 66.7594 87.5413L66.7594 87.467L65.9177 87.467L65.9177 86.4767L71.2243 86.4767C71.6704 86.4767 72.0366 86.5803 72.3228 86.7876C72.609 86.9949 72.8208 87.2755 72.9582 87.6292C73.0957 87.9807 73.1644 88.3773 73.1644 88.819ZM70.1934 88.8291C70.1934 88.5384 70.1258 88.2928 69.9906 88.0923C69.8532 87.8895 69.6571 87.7363 69.4025 87.6326C69.1456 87.5267 68.838 87.4737 68.4798 87.4737C68.1305 87.4737 67.8229 87.5256 67.557 87.6292C67.2911 87.7329 67.0838 87.885 66.9351 88.0855C66.7841 88.2861 66.7087 88.5339 66.7087 88.8291C66.7087 89.1333 66.7875 89.3868 66.9453 89.5896C67.1007 89.7924 67.3125 89.9456 67.5807 90.0493C67.8488 90.1507 68.1485 90.2014 68.4798 90.2014C68.82 90.2014 69.1186 90.1496 69.3755 90.0459C69.6323 89.9422 69.8329 89.789 69.9771 89.5862C70.1213 89.3812 70.1934 89.1288 70.1934 88.8291ZM68.0268 84.1107L71.1094 84.1107L71.1094 85.1213L64.1872 85.1213L64.1872 84.1242L66.7627 84.1242L66.7627 84.06C66.4833 83.9383 66.2614 83.7524 66.0969 83.5023C65.9324 83.2522 65.8501 82.9254 65.8501 82.5221C65.8501 82.1661 65.9234 81.8551 66.0698 81.5892C66.2163 81.3211 66.4349 81.1138 66.7256 80.9673C67.014 80.8186 67.3745 80.7442 67.8071 80.7442L71.1094 80.7442L71.1094 81.7548L67.9288 81.7548C67.548 81.7548 67.2528 81.8529 67.0433 82.0489C66.8315 82.2449 66.7256 82.5176 66.7256 82.8668C66.7256 83.1057 66.7763 83.3198 66.8777 83.509C66.9791 83.6961 67.1278 83.8437 67.3238 83.9518C67.5176 84.0577 67.7519 84.1107 68.0268 84.1107Z" fill="#AB4800"/>
<path d="M122.558 100.349L122.558 99.0814L127.939 96.8777L127.939 96.7965L122.558 94.5928L122.558 93.3253L129.48 93.3253L129.48 94.319L124.471 94.319L124.471 94.3832L129.47 96.4247L129.47 97.2495L124.468 99.291L124.468 99.3552L129.48 99.3552L129.48 100.349L122.558 100.349ZM129.585 89.6504C129.585 90.1619 129.476 90.6025 129.257 90.972C129.037 91.3393 128.727 91.6232 128.328 91.8238C127.927 92.0221 127.457 92.1212 126.918 92.1212C126.387 92.1212 125.918 92.0221 125.512 91.8238C125.107 91.6232 124.79 91.3438 124.563 90.9855C124.335 90.625 124.221 90.2036 124.221 89.7214C124.221 89.4285 124.27 89.1446 124.367 88.8697C124.463 88.5948 124.616 88.348 124.823 88.1295C125.03 87.9109 125.299 87.7385 125.631 87.6123C125.96 87.4861 126.36 87.423 126.831 87.423L127.189 87.423L127.189 91.55L126.432 91.55L126.432 88.4134C126.166 88.4134 125.93 88.4675 125.725 88.5756C125.518 88.6838 125.355 88.8359 125.235 89.0319C125.116 89.2257 125.056 89.4533 125.056 89.7147C125.056 89.9986 125.126 90.2464 125.266 90.4583C125.403 90.6678 125.583 90.8301 125.806 90.945C126.027 91.0576 126.267 91.114 126.526 91.114L127.118 91.114C127.465 91.114 127.76 91.0531 128.003 90.9314C128.247 90.8075 128.433 90.6351 128.561 90.4143C128.687 90.1935 128.75 89.9355 128.75 89.6403C128.75 89.4488 128.723 89.2741 128.669 89.1164C128.613 88.9587 128.53 88.8224 128.419 88.7074C128.309 88.5925 128.172 88.5046 128.01 88.4438L128.183 87.4873C128.464 87.5639 128.711 87.7013 128.923 87.8996C129.132 88.0957 129.296 88.3424 129.413 88.6398C129.528 88.935 129.585 89.2719 129.585 89.6504ZM129.582 84.3583C129.582 84.7774 129.475 85.1514 129.261 85.4804C129.044 85.8071 128.737 86.064 128.338 86.251C127.937 86.4358 127.456 86.5282 126.895 86.5282C126.334 86.5282 125.854 86.4347 125.455 86.2477C125.056 86.0584 124.751 85.7993 124.539 85.4703C124.327 85.1413 124.221 84.7684 124.221 84.3515C124.221 84.0293 124.275 83.7701 124.383 83.5741C124.489 83.3758 124.613 83.2226 124.755 83.1144C124.897 83.004 125.022 82.9184 125.13 82.8576L125.13 82.7967L122.558 82.7967L122.558 81.7861L129.48 81.7861L129.48 82.7731L128.673 82.7731L128.673 82.8576C128.783 82.9184 128.909 83.0063 129.051 83.1212C129.193 83.2339 129.317 83.3893 129.423 83.5876C129.529 83.7859 129.582 84.0428 129.582 84.3583ZM128.72 84.1352C128.72 83.8445 128.643 83.5989 128.49 83.3983C128.335 83.1956 128.119 83.0423 127.845 82.9387C127.57 82.8328 127.25 82.7798 126.885 82.7798C126.524 82.7798 126.209 82.8316 125.938 82.9353C125.668 83.0389 125.457 83.191 125.306 83.3916C125.155 83.5921 125.08 83.84 125.08 84.1352C125.08 84.4394 125.159 84.6929 125.316 84.8957C125.474 85.0985 125.689 85.2517 125.962 85.3553C126.235 85.4567 126.542 85.5074 126.885 85.5074C127.232 85.5074 127.544 85.4556 127.821 85.352C128.098 85.2483 128.318 85.0951 128.48 84.8923C128.64 84.6872 128.72 84.4349 128.72 84.1352ZM129.48 80.3437L124.289 80.3437L124.289 79.3331L129.48 79.3331L129.48 80.3437ZM123.488 79.8333C123.488 80.0091 123.429 80.1601 123.312 80.2862C123.193 80.4102 123.051 80.4721 122.886 80.4721C122.719 80.4721 122.577 80.4102 122.46 80.2862C122.341 80.1601 122.281 80.0091 122.281 79.8333C122.281 79.6576 122.341 79.5077 122.46 79.3838C122.577 79.2576 122.719 79.1945 122.886 79.1945C123.051 79.1945 123.193 79.2576 123.312 79.3838C123.429 79.5077 123.488 79.6576 123.488 79.8333ZM127.327 74.6848L124.289 74.6848L124.289 73.6708L129.48 73.6708L129.48 74.6645L128.581 74.6645L128.581 74.7186C128.859 74.838 129.09 75.0296 129.274 75.2932C129.457 75.5546 129.548 75.8802 129.548 76.27C129.548 76.6035 129.475 76.8987 129.328 77.1556C129.18 77.4102 128.96 77.6107 128.669 77.7572C128.379 77.9014 128.019 77.9735 127.591 77.9735L124.289 77.9735L124.289 76.9629L127.469 76.9629C127.823 76.9629 128.105 76.8649 128.314 76.6688C128.524 76.4728 128.629 76.2182 128.629 75.905C128.629 75.7157 128.581 75.5275 128.487 75.3405C128.392 75.1512 128.249 74.9946 128.058 74.8707C127.866 74.7445 127.623 74.6825 127.327 74.6848ZM129.48 72.3129L124.289 72.3129L124.289 71.3429L125.134 71.3429L125.134 71.2786C124.848 71.1705 124.625 70.9936 124.465 70.748C124.302 70.5024 124.221 70.2083 124.221 69.8658C124.221 69.5188 124.302 69.2281 124.465 68.9938C124.627 68.7572 124.85 68.5825 125.134 68.4699L125.134 68.4158C124.857 68.2919 124.636 68.0947 124.471 67.8243C124.305 67.5539 124.221 67.2317 124.221 66.8576C124.221 66.3867 124.369 66.0025 124.664 65.7051C124.959 65.4054 125.404 65.2555 125.999 65.2555L129.48 65.2555L129.48 66.2661L126.094 66.2661C125.742 66.2661 125.488 66.3619 125.33 66.5534C125.172 66.745 125.093 66.9737 125.093 67.2396C125.093 67.5686 125.195 67.8243 125.397 68.0068C125.598 68.1893 125.856 68.2806 126.171 68.2806L129.48 68.2806L129.48 69.2878L126.03 69.2878C125.748 69.2878 125.521 69.3757 125.35 69.5515C125.179 69.7272 125.093 69.9559 125.093 70.2376C125.093 70.4291 125.144 70.606 125.245 70.7683C125.345 70.9282 125.483 71.0578 125.661 71.157C125.839 71.2538 126.045 71.3023 126.28 71.3023L129.48 71.3023L129.48 72.3129Z" fill="#AB6400"/>
<path d="M216.576 100.349L209.654 100.349L209.654 99.3045L215.677 99.3045L215.677 96.1679L216.576 96.1679L216.576 100.349ZM216.681 92.8707C216.681 93.3574 216.569 93.7822 216.346 94.145C216.123 94.5077 215.811 94.7894 215.41 94.9899C215.009 95.1905 214.54 95.2908 214.004 95.2908C213.465 95.2908 212.995 95.1905 212.591 94.9899C212.188 94.7894 211.875 94.5077 211.652 94.145C211.428 93.7822 211.317 93.3574 211.317 92.8707C211.317 92.384 211.428 91.9592 211.652 91.5965C211.875 91.2337 212.188 90.952 212.591 90.7515C212.995 90.5509 213.465 90.4506 214.004 90.4506C214.54 90.4506 215.009 90.5509 215.41 90.7515C215.811 90.952 216.123 91.2337 216.346 91.5965C216.569 91.9592 216.681 92.384 216.681 92.8707ZM215.833 92.8673C215.833 92.5519 215.749 92.2905 215.582 92.0832C215.416 91.8759 215.194 91.7226 214.917 91.6235C214.639 91.5221 214.334 91.4714 214.001 91.4714C213.669 91.4714 213.365 91.5221 213.088 91.6235C212.809 91.7226 212.584 91.8759 212.415 92.0832C212.246 92.2905 212.162 92.5519 212.162 92.8673C212.162 93.185 212.246 93.4487 212.415 93.6582C212.584 93.8655 212.809 94.0199 213.088 94.1213C213.365 94.2204 213.669 94.27 214.001 94.27C214.334 94.27 214.639 94.2204 214.917 94.1213C215.194 94.0199 215.416 93.8655 215.582 93.6582C215.749 93.4487 215.833 93.185 215.833 92.8673ZM216.576 88.3551L211.385 89.8828L211.385 88.8384L215.197 87.821L215.197 87.7703L211.385 86.7496L211.385 85.7052L215.18 84.6912L215.18 84.6405L211.385 83.6299L211.385 82.5855L216.576 84.1098L216.576 85.1407L212.828 86.1953L212.828 86.273L216.576 87.3276L216.576 88.3551Z" fill="#1F2D5C"/>
<path d="M249.793 94.7618L256.715 94.7618L256.715 95.7217L251.638 99.2403L251.638 99.3045L256.715 99.3045L256.715 100.349L249.793 100.349L249.793 99.3822L254.876 95.8603L254.876 95.7961L249.793 95.7961L249.793 94.7618ZM256.82 91.1326C256.82 91.6193 256.708 92.044 256.485 92.4068C256.262 92.7696 255.95 93.0513 255.549 93.2518C255.148 93.4523 254.679 93.5526 254.143 93.5526C253.604 93.5526 253.133 93.4523 252.73 93.2518C252.327 93.0513 252.013 92.7696 251.79 92.4068C251.567 92.044 251.456 91.6193 251.456 91.1326C251.456 90.6458 251.567 90.2211 251.79 89.8583C252.013 89.4955 252.327 89.2139 252.73 89.0133C253.133 88.8128 253.604 88.7125 254.143 88.7125C254.679 88.7125 255.148 88.8128 255.549 89.0133C255.95 89.2139 256.262 89.4955 256.485 89.8583C256.708 90.2211 256.82 90.6458 256.82 91.1326ZM255.971 91.1292C255.971 90.8137 255.888 90.5523 255.721 90.345C255.554 90.1377 255.332 89.9845 255.055 89.8854C254.778 89.784 254.473 89.7333 254.139 89.7333C253.808 89.7333 253.504 89.784 253.227 89.8854C252.947 89.9845 252.723 90.1377 252.554 90.345C252.385 90.5523 252.301 90.8137 252.301 91.1292C252.301 91.4469 252.385 91.7105 252.554 91.9201C252.723 92.1274 252.947 92.2817 253.227 92.3831C253.504 92.4823 253.808 92.5319 254.139 92.5319C254.473 92.5319 254.778 92.4823 255.055 92.3831C255.332 92.2817 255.554 92.1274 255.721 91.9201C255.888 91.7105 255.971 91.4469 255.971 91.1292ZM253.632 86.5738L256.715 86.5738L256.715 87.5844L251.523 87.5844L251.523 86.6144L252.368 86.6144L252.368 86.5502C252.093 86.4307 251.872 86.2437 251.706 85.9891C251.539 85.7322 251.456 85.4089 251.456 85.019C251.456 84.6653 251.53 84.3554 251.679 84.0896C251.825 83.8237 252.044 83.6175 252.334 83.471C252.625 83.3246 252.984 83.2513 253.413 83.2513L256.715 83.2513L256.715 84.2619L253.534 84.2619C253.158 84.2619 252.864 84.3599 252.652 84.556C252.438 84.752 252.331 85.0213 252.331 85.3638C252.331 85.5981 252.382 85.8066 252.483 85.9891C252.585 86.1694 252.733 86.3124 252.929 86.4183C253.123 86.522 253.357 86.5738 253.632 86.5738ZM256.82 79.6584C256.82 80.1699 256.71 80.6104 256.492 80.98C256.271 81.3473 255.961 81.6312 255.562 81.8317C255.161 82.03 254.691 82.1292 254.153 82.1292C253.621 82.1292 253.152 82.03 252.747 81.8317C252.341 81.6312 252.025 81.3518 251.797 80.9935C251.569 80.633 251.456 80.2116 251.456 79.7294C251.456 79.4365 251.504 79.1525 251.601 78.8776C251.698 78.6027 251.85 78.356 252.057 78.1374C252.265 77.9189 252.534 77.7465 252.865 77.6203C253.194 77.4941 253.594 77.431 254.065 77.431L254.423 77.431L254.423 81.558L253.666 81.558L253.666 78.4213C253.4 78.4213 253.165 78.4754 252.96 78.5836C252.752 78.6917 252.589 78.8438 252.47 79.0399C252.35 79.2337 252.29 79.4613 252.29 79.7226C252.29 80.0066 252.36 80.2544 252.5 80.4662C252.637 80.6758 252.818 80.838 253.041 80.9529C253.262 81.0656 253.502 81.1219 253.761 81.1219L254.352 81.1219C254.699 81.1219 254.994 81.0611 255.238 80.9394C255.481 80.8155 255.667 80.6431 255.795 80.4223C255.922 80.2015 255.985 79.9435 255.985 79.6483C255.985 79.4567 255.958 79.2821 255.904 79.1244C255.847 78.9666 255.764 78.8303 255.654 78.7154C255.543 78.6005 255.407 78.5126 255.245 78.4518L255.417 77.4952C255.699 77.5718 255.945 77.7093 256.157 77.9076C256.367 78.1036 256.53 78.3504 256.647 78.6478C256.762 78.943 256.82 79.2799 256.82 79.6584Z" fill="#60646C"/>
<path d="M20 115.693C20 114.525 20.947 113.578 22.1151 113.578H28.3104C29.4786 113.578 30.4255 114.525 30.4255 115.693V122.039C30.4255 123.207 29.4786 124.154 28.3104 124.154H22.1151C20.947 124.154 20 123.207 20 122.039V115.693Z" fill="#CE2C31"/>
<g clip-path="url(#clip1_5758_104499)">
<path d="M25.2877 121.95C26.9912 121.95 28.3722 120.569 28.3722 118.866C28.3722 117.162 26.9912 115.781 25.2877 115.781C23.5841 115.781 22.2031 117.162 22.2031 118.866C22.2031 120.569 23.5841 121.95 25.2877 121.95Z" stroke="#FFFCFC" stroke-width="0.528777" stroke-linecap="round" stroke-linejoin="round"/>
<path d="M25.2871 117.633V118.867" stroke="#FFFCFC" stroke-width="0.528777" stroke-linecap="round" stroke-linejoin="round"/>
<path d="M25.2871 120.098H25.2911" stroke="#FFFCFC" stroke-width="0.528777" stroke-linecap="round" stroke-linejoin="round"/>
</g>
<path d="M34.9417 116.417V121.801H33.9664V117.366H33.9349L32.6757 118.17V117.277L34.0137 116.417H34.9417ZM36.2115 120.802V120.026L38.496 116.417H39.1427V117.521H38.7483L37.2104 119.958V120H40.3993V120.802H36.2115ZM38.7799 121.801V120.565L38.7904 120.218V116.417H39.7105V121.801H38.7799ZM44.1178 120.791V120.507C44.1178 120.299 44.1616 120.107 44.2492 119.932C44.3386 119.756 44.4683 119.615 44.6383 119.508C44.8083 119.402 45.0142 119.348 45.2561 119.348C45.5049 119.348 45.7135 119.402 45.8817 119.508C46.05 119.614 46.1771 119.754 46.2629 119.929C46.3506 120.104 46.3944 120.297 46.3944 120.507V120.791C46.3944 121 46.3506 121.192 46.2629 121.367C46.1753 121.542 46.0465 121.683 45.8765 121.79C45.7082 121.897 45.5014 121.951 45.2561 121.951C45.0107 121.951 44.803 121.897 44.633 121.79C44.463 121.683 44.3342 121.542 44.2466 121.367C44.1607 121.192 44.1178 121 44.1178 120.791ZM44.8039 120.507V120.791C44.8039 120.93 44.8372 121.057 44.9038 121.172C44.9704 121.288 45.0878 121.346 45.2561 121.346C45.4261 121.346 45.5426 121.289 45.6057 121.175C45.6706 121.059 45.703 120.932 45.703 120.791V120.507C45.703 120.367 45.6723 120.239 45.611 120.124C45.5496 120.006 45.4313 119.947 45.2561 119.947C45.0913 119.947 44.9748 120.006 44.9064 120.124C44.8381 120.239 44.8039 120.367 44.8039 120.507ZM41.3811 117.71V117.426C41.3811 117.216 41.4258 117.023 41.5152 116.848C41.6046 116.673 41.7343 116.533 41.9043 116.427C42.0743 116.32 42.2802 116.267 42.5221 116.267C42.7692 116.267 42.9769 116.32 43.1451 116.427C43.3151 116.533 43.443 116.673 43.5289 116.848C43.6148 117.023 43.6577 117.216 43.6577 117.426V117.71C43.6577 117.921 43.6139 118.113 43.5263 118.289C43.4404 118.462 43.3125 118.601 43.1425 118.707C42.9725 118.812 42.7657 118.864 42.5221 118.864C42.2749 118.864 42.0664 118.812 41.8964 118.707C41.7281 118.601 41.6002 118.461 41.5126 118.286C41.4249 118.111 41.3811 117.919 41.3811 117.71ZM42.0725 117.426V117.71C42.0725 117.85 42.1049 117.978 42.1698 118.094C42.2364 118.208 42.3538 118.265 42.5221 118.265C42.6903 118.265 42.806 118.208 42.8691 118.094C42.9339 117.978 42.9663 117.85 42.9663 117.71V117.426C42.9663 117.286 42.9357 117.158 42.8743 117.043C42.813 116.925 42.6956 116.866 42.5221 116.866C42.3556 116.866 42.239 116.925 42.1724 117.043C42.1058 117.16 42.0725 117.288 42.0725 117.426ZM41.6808 121.801L45.3823 116.417H46.0395L42.338 121.801H41.6808Z" fill="#60646C"/>
<path d="M72.9042 121.801V121.096L74.7734 119.264C74.9521 119.083 75.1011 118.923 75.2203 118.783C75.3394 118.643 75.4288 118.507 75.4884 118.375C75.548 118.244 75.5778 118.104 75.5778 117.955C75.5778 117.785 75.5392 117.639 75.4621 117.518C75.385 117.396 75.279 117.301 75.144 117.234C75.0091 117.168 74.8557 117.135 74.684 117.135C74.507 117.135 74.3519 117.171 74.2187 117.245C74.0855 117.317 73.9821 117.419 73.9085 117.553C73.8366 117.686 73.8007 117.844 73.8007 118.028H72.8727C72.8727 117.687 72.9507 117.39 73.1067 117.137C73.2626 116.885 73.4773 116.689 73.7507 116.551C74.0259 116.412 74.3413 116.343 74.6971 116.343C75.0581 116.343 75.3754 116.411 75.6488 116.546C75.9222 116.681 76.1342 116.866 76.285 117.1C76.4374 117.335 76.5137 117.603 76.5137 117.905C76.5137 118.106 76.4751 118.304 76.398 118.499C76.3209 118.693 76.1851 118.909 75.9905 119.146C75.7977 119.382 75.527 119.669 75.1782 120.005L74.2502 120.949V120.986H76.5952V121.801H72.9042ZM79.4738 121.874C79.2161 121.873 78.9646 121.828 78.7193 121.74C78.4739 121.651 78.2531 121.506 78.0568 121.307C77.8605 121.105 77.7045 120.838 77.5889 120.505C77.4732 120.17 77.4162 119.756 77.418 119.261C77.418 118.8 77.4671 118.389 77.5652 118.028C77.6634 117.667 77.8044 117.362 77.9885 117.114C78.1725 116.863 78.3942 116.672 78.6536 116.54C78.9147 116.409 79.2065 116.343 79.529 116.343C79.8672 116.343 80.1669 116.41 80.428 116.543C80.6909 116.676 80.903 116.859 81.0642 117.09C81.2255 117.319 81.3254 117.579 81.3639 117.868H80.4044C80.3553 117.661 80.2545 117.496 80.1021 117.374C79.9513 117.249 79.7603 117.187 79.529 117.187C79.1557 117.187 78.8682 117.349 78.6667 117.673C78.4669 117.998 78.3661 118.443 78.3644 119.009H78.4012C78.4871 118.855 78.5984 118.722 78.7351 118.612C78.8718 118.502 79.026 118.417 79.1977 118.357C79.3712 118.296 79.5544 118.265 79.7472 118.265C80.0626 118.265 80.3457 118.34 80.5963 118.491C80.8487 118.642 81.0485 118.849 81.1957 119.114C81.3429 119.377 81.4156 119.678 81.4139 120.018C81.4156 120.372 81.335 120.691 81.172 120.973C81.009 121.253 80.7821 121.474 80.4911 121.635C80.2002 121.796 79.8611 121.876 79.4738 121.874ZM79.4685 121.086C79.6595 121.086 79.8304 121.039 79.9811 120.946C80.1319 120.854 80.251 120.728 80.3387 120.57C80.4263 120.413 80.4692 120.236 80.4675 120.039C80.4692 119.847 80.4272 119.672 80.3413 119.516C80.2572 119.36 80.1406 119.237 79.9916 119.146C79.8427 119.054 79.6727 119.009 79.4816 119.009C79.3397 119.009 79.2074 119.036 79.0847 119.09C78.962 119.145 78.8551 119.22 78.764 119.317C78.6728 119.411 78.601 119.522 78.5484 119.648C78.4976 119.772 78.4713 119.905 78.4695 120.047C78.4713 120.235 78.5151 120.407 78.601 120.565C78.6869 120.723 78.8052 120.849 78.9559 120.944C79.1066 121.038 79.2775 121.086 79.4685 121.086ZM85.181 120.791V120.507C85.181 120.299 85.2248 120.107 85.3125 119.932C85.4018 119.756 85.5315 119.615 85.7015 119.508C85.8715 119.402 86.0775 119.348 86.3193 119.348C86.5682 119.348 86.7767 119.402 86.945 119.508C87.1132 119.614 87.2403 119.754 87.3262 119.929C87.4138 120.104 87.4576 120.297 87.4576 120.507V120.791C87.4576 121 87.4138 121.192 87.3262 121.367C87.2385 121.542 87.1097 121.683 86.9397 121.79C86.7715 121.897 86.5647 121.951 86.3193 121.951C86.074 121.951 85.8663 121.897 85.6963 121.79C85.5263 121.683 85.3975 121.542 85.3098 121.367C85.224 121.192 85.181 121 85.181 120.791ZM85.8672 120.507V120.791C85.8672 120.93 85.9005 121.057 85.9671 121.172C86.0337 121.288 86.1511 121.346 86.3193 121.346C86.4893 121.346 86.6059 121.289 86.669 121.175C86.7338 121.059 86.7662 120.932 86.7662 120.791V120.507C86.7662 120.367 86.7356 120.239 86.6742 120.124C86.6129 120.006 86.4946 119.947 86.3193 119.947C86.1546 119.947 86.038 120.006 85.9697 120.124C85.9013 120.239 85.8672 120.367 85.8672 120.507ZM82.4444 117.71V117.426C82.4444 117.216 82.4891 117.023 82.5784 116.848C82.6678 116.673 82.7975 116.533 82.9675 116.427C83.1375 116.32 83.3434 116.267 83.5853 116.267C83.8324 116.267 84.0401 116.32 84.2083 116.427C84.3783 116.533 84.5063 116.673 84.5922 116.848C84.678 117.023 84.721 117.216 84.721 117.426V117.71C84.721 117.921 84.6772 118.113 84.5895 118.289C84.5037 118.462 84.3757 118.601 84.2057 118.707C84.0357 118.812 83.8289 118.864 83.5853 118.864C83.3382 118.864 83.1296 118.812 82.9596 118.707C82.7914 118.601 82.6634 118.461 82.5758 118.286C82.4882 118.111 82.4444 117.919 82.4444 117.71ZM83.1358 117.426V117.71C83.1358 117.85 83.1682 117.978 83.233 118.094C83.2996 118.208 83.4171 118.265 83.5853 118.265C83.7536 118.265 83.8692 118.208 83.9323 118.094C83.9972 117.978 84.0296 117.85 84.0296 117.71V117.426C84.0296 117.286 83.9989 117.158 83.9376 117.043C83.8762 116.925 83.7588 116.866 83.5853 116.866C83.4188 116.866 83.3023 116.925 83.2357 117.043C83.1691 117.16 83.1358 117.288 83.1358 117.426ZM82.7441 121.801L86.4455 116.417H87.1027L83.4013 121.801H82.7441Z" fill="#60646C"/>
<path d="M62.1151 113.843H67.814C68.8361 113.843 69.6647 114.671 69.6647 115.693V122.039C69.6647 123.061 68.8361 123.889 67.814 123.889H62.1151C61.093 123.889 60.2644 123.061 60.2644 122.039V115.693C60.2644 114.671 61.093 113.843 62.1151 113.843Z" fill="#FFE2C7" stroke="#FF8E6A" stroke-width="0.528777"/>
<g clip-path="url(#clip2_5758_104499)">
<path d="M62.2344 122.039H62.2381" stroke="#FF4F18" stroke-width="1.05755" stroke-linecap="round" stroke-linejoin="round"/>
<path d="M64.0957 122.039V120.453" stroke="#FF4F18" stroke-width="1.05755" stroke-linecap="round" stroke-linejoin="round"/>
<path d="M65.957 122.04V118.867" stroke="#FF4F18" stroke-width="1.05755" stroke-linecap="round" stroke-linejoin="round"/>
<path d="M67.8184 122.04V117.281" stroke="#FF4F18" stroke-width="1.05755" stroke-linecap="round" stroke-linejoin="round"/>
</g>
<path d="M133.358 122.406C132.979 122.406 132.643 122.341 132.348 122.211C132.056 122.081 131.824 121.901 131.654 121.67C131.484 121.438 131.394 121.171 131.384 120.868H132.372C132.381 121.013 132.429 121.14 132.517 121.249C132.604 121.356 132.721 121.439 132.866 121.499C133.012 121.558 133.175 121.588 133.355 121.588C133.548 121.588 133.719 121.555 133.868 121.488C134.017 121.42 134.133 121.325 134.218 121.204C134.302 121.083 134.343 120.944 134.341 120.786C134.343 120.623 134.301 120.48 134.215 120.355C134.129 120.231 134.005 120.133 133.842 120.063C133.68 119.993 133.486 119.958 133.258 119.958H132.782V119.206H133.258C133.446 119.206 133.609 119.174 133.75 119.109C133.892 119.044 134.003 118.953 134.083 118.836C134.164 118.716 134.204 118.579 134.202 118.423C134.204 118.27 134.169 118.138 134.099 118.026C134.031 117.912 133.934 117.824 133.807 117.76C133.683 117.697 133.537 117.666 133.368 117.666C133.204 117.666 133.051 117.696 132.911 117.755C132.771 117.815 132.658 117.9 132.572 118.01C132.486 118.119 132.44 118.249 132.435 118.399H131.497C131.504 118.098 131.59 117.833 131.757 117.605C131.925 117.376 132.15 117.197 132.43 117.069C132.71 116.939 133.025 116.875 133.374 116.875C133.733 116.875 134.045 116.942 134.31 117.077C134.576 117.21 134.782 117.39 134.927 117.616C135.073 117.842 135.146 118.092 135.146 118.365C135.147 118.668 135.058 118.922 134.877 119.127C134.699 119.332 134.464 119.467 134.173 119.53V119.572C134.551 119.624 134.841 119.765 135.043 119.992C135.246 120.218 135.347 120.5 135.345 120.836C135.345 121.138 135.259 121.408 135.088 121.646C134.918 121.882 134.683 122.068 134.383 122.203C134.085 122.338 133.743 122.406 133.358 122.406ZM138.219 122.406C137.962 122.404 137.71 122.359 137.465 122.272C137.22 122.182 136.999 122.038 136.802 121.838C136.606 121.636 136.45 121.369 136.334 121.036C136.219 120.701 136.162 120.287 136.164 119.793C136.164 119.332 136.213 118.921 136.311 118.56C136.409 118.199 136.55 117.894 136.734 117.645C136.918 117.394 137.14 117.203 137.399 117.072C137.66 116.94 137.952 116.875 138.275 116.875C138.613 116.875 138.913 116.941 139.174 117.074C139.437 117.208 139.649 117.39 139.81 117.621C139.971 117.851 140.071 118.11 140.11 118.399H139.15C139.101 118.192 139 118.028 138.848 117.905C138.697 117.781 138.506 117.718 138.275 117.718C137.901 117.718 137.614 117.88 137.412 118.205C137.213 118.529 137.112 118.974 137.11 119.54H137.147C137.233 119.386 137.344 119.254 137.481 119.143C137.617 119.033 137.772 118.948 137.943 118.888C138.117 118.827 138.3 118.796 138.493 118.796C138.808 118.796 139.091 118.872 139.342 119.022C139.594 119.173 139.794 119.381 139.941 119.645C140.088 119.908 140.161 120.21 140.159 120.55C140.161 120.904 140.081 121.222 139.918 121.504C139.755 121.784 139.528 122.005 139.237 122.166C138.946 122.328 138.607 122.407 138.219 122.406ZM138.214 121.617C138.405 121.617 138.576 121.571 138.727 121.478C138.877 121.385 138.997 121.259 139.084 121.102C139.172 120.944 139.215 120.767 139.213 120.571C139.215 120.378 139.173 120.204 139.087 120.048C139.003 119.892 138.886 119.768 138.737 119.677C138.588 119.586 138.418 119.54 138.227 119.54C138.085 119.54 137.953 119.567 137.83 119.622C137.708 119.676 137.601 119.751 137.51 119.848C137.418 119.942 137.347 120.053 137.294 120.179C137.243 120.303 137.217 120.437 137.215 120.579C137.217 120.766 137.261 120.939 137.347 121.096C137.432 121.254 137.551 121.38 137.701 121.475C137.852 121.57 138.023 121.617 138.214 121.617ZM143.927 121.323V121.039C143.927 120.83 143.97 120.638 144.058 120.463C144.147 120.288 144.277 120.147 144.447 120.04C144.617 119.933 144.823 119.879 145.065 119.879C145.314 119.879 145.522 119.933 145.691 120.04C145.859 120.145 145.986 120.285 146.072 120.46C146.159 120.636 146.203 120.828 146.203 121.039V121.323C146.203 121.531 146.159 121.723 146.072 121.898C145.984 122.074 145.855 122.215 145.685 122.322C145.517 122.428 145.31 122.482 145.065 122.482C144.82 122.482 144.612 122.428 144.442 122.322C144.272 122.215 144.143 122.074 144.055 121.898C143.97 121.723 143.927 121.531 143.927 121.323ZM144.613 121.039V121.323C144.613 121.461 144.646 121.588 144.713 121.704C144.779 121.819 144.897 121.877 145.065 121.877C145.235 121.877 145.351 121.82 145.415 121.706C145.479 121.591 145.512 121.463 145.512 121.323V121.039C145.512 120.898 145.481 120.77 145.42 120.655C145.358 120.537 145.24 120.479 145.065 120.479C144.9 120.479 144.784 120.537 144.715 120.655C144.647 120.77 144.613 120.898 144.613 121.039ZM141.19 118.242V117.958C141.19 117.747 141.235 117.555 141.324 117.379C141.413 117.204 141.543 117.064 141.713 116.959C141.883 116.852 142.089 116.798 142.331 116.798C142.578 116.798 142.786 116.852 142.954 116.959C143.124 117.064 143.252 117.204 143.338 117.379C143.424 117.555 143.467 117.747 143.467 117.958V118.242C143.467 118.452 143.423 118.645 143.335 118.82C143.249 118.993 143.121 119.133 142.951 119.238C142.781 119.343 142.575 119.396 142.331 119.396C142.084 119.396 141.875 119.343 141.705 119.238C141.537 119.133 141.409 118.992 141.321 118.817C141.234 118.642 141.19 118.45 141.19 118.242ZM141.881 117.958V118.242C141.881 118.382 141.914 118.51 141.979 118.625C142.045 118.739 142.163 118.796 142.331 118.796C142.499 118.796 142.615 118.739 142.678 118.625C142.743 118.51 142.775 118.382 142.775 118.242V117.958C142.775 117.817 142.745 117.689 142.683 117.574C142.622 117.456 142.504 117.398 142.331 117.398C142.164 117.398 142.048 117.456 141.981 117.574C141.915 117.691 141.881 117.819 141.881 117.958ZM141.49 122.332L145.191 116.948H145.848L142.147 122.332H141.49Z" fill="#60646C"/>
<rect x="118.264" y="113.843" width="9.89676" height="10.0468" rx="1.85072" fill="#FEFBE9" stroke="#E2A336" stroke-width="0.528777"/>
<g clip-path="url(#clip3_5758_104499)">
<path d="M120.346 122.039H120.35" stroke="#E2A336" stroke-width="1.05755" stroke-linecap="round" stroke-linejoin="round"/>
<path d="M122.301 122.039V120.453" stroke="#E2A336" stroke-width="1.05755" stroke-linecap="round" stroke-linejoin="round"/>
<path d="M124.256 122.04V118.867" stroke="#E2A336" stroke-width="1.05755" stroke-linecap="round" stroke-linejoin="round"/>
</g>
<path d="M220.701 116.948V122.332H219.726V117.897H219.695L218.435 118.702V117.808L219.774 116.948H220.701ZM223.982 122.406C223.591 122.406 223.244 122.34 222.941 122.208C222.64 122.077 222.403 121.897 222.231 121.67C222.061 121.44 221.977 121.18 221.979 120.889C221.977 120.663 222.026 120.455 222.126 120.266C222.226 120.076 222.361 119.919 222.531 119.793C222.703 119.665 222.894 119.583 223.104 119.548V119.511C222.827 119.45 222.603 119.309 222.431 119.088C222.261 118.865 222.177 118.609 222.179 118.318C222.177 118.041 222.254 117.794 222.41 117.576C222.566 117.359 222.78 117.188 223.052 117.064C223.323 116.938 223.634 116.875 223.982 116.875C224.328 116.875 224.635 116.938 224.905 117.064C225.177 117.188 225.391 117.359 225.546 117.576C225.704 117.794 225.783 118.041 225.783 118.318C225.783 118.609 225.696 118.865 225.523 119.088C225.351 119.309 225.129 119.45 224.858 119.511V119.548C225.068 119.583 225.257 119.665 225.426 119.793C225.596 119.919 225.731 120.076 225.83 120.266C225.932 120.455 225.983 120.663 225.983 120.889C225.983 121.18 225.897 121.44 225.725 121.67C225.554 121.897 225.317 122.077 225.015 122.208C224.716 122.34 224.371 122.406 223.982 122.406ZM223.982 121.654C224.184 121.654 224.359 121.62 224.508 121.551C224.657 121.481 224.773 121.383 224.855 121.257C224.937 121.131 224.98 120.985 224.981 120.82C224.98 120.649 224.935 120.497 224.847 120.366C224.761 120.232 224.643 120.128 224.492 120.053C224.343 119.977 224.173 119.94 223.982 119.94C223.79 119.94 223.618 119.977 223.467 120.053C223.316 120.128 223.197 120.232 223.11 120.366C223.024 120.497 222.982 120.649 222.983 120.82C222.982 120.985 223.022 121.131 223.104 121.257C223.187 121.381 223.302 121.479 223.451 121.549C223.602 121.619 223.779 121.654 223.982 121.654ZM223.982 119.201C224.147 119.201 224.293 119.168 224.419 119.101C224.547 119.035 224.647 118.942 224.721 118.822C224.795 118.703 224.832 118.566 224.834 118.41C224.832 118.256 224.796 118.121 224.724 118.005C224.652 117.888 224.552 117.797 224.424 117.734C224.296 117.669 224.149 117.637 223.982 117.637C223.812 117.637 223.662 117.669 223.533 117.734C223.405 117.797 223.305 117.888 223.233 118.005C223.163 118.121 223.129 118.256 223.131 118.41C223.129 118.566 223.164 118.703 223.236 118.822C223.309 118.94 223.41 119.033 223.538 119.101C223.668 119.168 223.816 119.201 223.982 119.201ZM229.726 121.323V121.039C229.726 120.83 229.77 120.638 229.857 120.463C229.947 120.288 230.076 120.147 230.246 120.04C230.416 119.933 230.622 119.879 230.864 119.879C231.113 119.879 231.321 119.933 231.49 120.04C231.658 120.145 231.785 120.285 231.871 120.46C231.959 120.636 232.002 120.828 232.002 121.039V121.323C232.002 121.531 231.959 121.723 231.871 121.898C231.783 122.074 231.654 122.215 231.484 122.322C231.316 122.428 231.109 122.482 230.864 122.482C230.619 122.482 230.411 122.428 230.241 122.322C230.071 122.215 229.942 122.074 229.855 121.898C229.769 121.723 229.726 121.531 229.726 121.323ZM230.412 121.039V121.323C230.412 121.461 230.445 121.588 230.512 121.704C230.578 121.819 230.696 121.877 230.864 121.877C231.034 121.877 231.151 121.82 231.214 121.706C231.279 121.591 231.311 121.463 231.311 121.323V121.039C231.311 120.898 231.28 120.77 231.219 120.655C231.158 120.537 231.039 120.479 230.864 120.479C230.699 120.479 230.583 120.537 230.514 120.655C230.446 120.77 230.412 120.898 230.412 121.039ZM226.989 118.242V117.958C226.989 117.747 227.034 117.555 227.123 117.379C227.213 117.204 227.342 117.064 227.512 116.959C227.682 116.852 227.888 116.798 228.13 116.798C228.377 116.798 228.585 116.852 228.753 116.959C228.923 117.064 229.051 117.204 229.137 117.379C229.223 117.555 229.266 117.747 229.266 117.958V118.242C229.266 118.452 229.222 118.645 229.134 118.82C229.048 118.993 228.92 119.133 228.75 119.238C228.58 119.343 228.374 119.396 228.13 119.396C227.883 119.396 227.674 119.343 227.504 119.238C227.336 119.133 227.208 118.992 227.121 118.817C227.033 118.642 226.989 118.45 226.989 118.242ZM227.68 117.958V118.242C227.68 118.382 227.713 118.51 227.778 118.625C227.844 118.739 227.962 118.796 228.13 118.796C228.298 118.796 228.414 118.739 228.477 118.625C228.542 118.51 228.574 118.382 228.574 118.242V117.958C228.574 117.817 228.544 117.689 228.482 117.574C228.421 117.456 228.304 117.398 228.13 117.398C227.964 117.398 227.847 117.456 227.78 117.574C227.714 117.691 227.68 117.819 227.68 117.958ZM227.289 122.332L230.99 116.948H231.647L227.946 122.332H227.289Z" fill="#60646C"/>
<rect x="205.266" y="114.596" width="9.89676" height="10.0468" rx="1.85072" fill="#EDF2FE" stroke="#3E63DD" stroke-width="0.528777"/>
<g clip-path="url(#clip4_5758_104499)">
<path d="M206.826 122.789H206.83" stroke="#3E63DD" stroke-width="1.05755" stroke-linecap="round" stroke-linejoin="round"/>
<path d="M208.779 122.789V121.203" stroke="#3E63DD" stroke-width="1.05755" stroke-linecap="round" stroke-linejoin="round"/>
</g>
<path d="M263.065 122.406C262.808 122.404 262.556 122.359 262.311 122.272C262.065 122.182 261.845 122.038 261.648 121.838C261.452 121.636 261.296 121.369 261.18 121.036C261.065 120.701 261.008 120.287 261.01 119.793C261.01 119.332 261.059 118.921 261.157 118.56C261.255 118.199 261.396 117.894 261.58 117.645C261.764 117.394 261.986 117.203 262.245 117.072C262.506 116.94 262.798 116.875 263.121 116.875C263.459 116.875 263.758 116.941 264.02 117.074C264.282 117.208 264.495 117.39 264.656 117.621C264.817 117.851 264.917 118.11 264.955 118.399H263.996C263.947 118.192 263.846 118.028 263.694 117.905C263.543 117.781 263.352 117.718 263.121 117.718C262.747 117.718 262.46 117.88 262.258 118.205C262.058 118.529 261.958 118.974 261.956 119.54H261.993C262.079 119.386 262.19 119.254 262.327 119.143C262.463 119.033 262.618 118.948 262.789 118.888C262.963 118.827 263.146 118.796 263.339 118.796C263.654 118.796 263.937 118.872 264.188 119.022C264.44 119.173 264.64 119.381 264.787 119.645C264.934 119.908 265.007 120.21 265.005 120.55C265.007 120.904 264.927 121.222 264.764 121.504C264.601 121.784 264.374 122.005 264.083 122.166C263.792 122.328 263.453 122.407 263.065 122.406ZM263.06 121.617C263.251 121.617 263.422 121.571 263.573 121.478C263.723 121.385 263.843 121.259 263.93 121.102C264.018 120.944 264.061 120.767 264.059 120.571C264.061 120.378 264.019 120.204 263.933 120.048C263.849 119.892 263.732 119.768 263.583 119.677C263.434 119.586 263.264 119.54 263.073 119.54C262.931 119.54 262.799 119.567 262.676 119.622C262.554 119.676 262.447 119.751 262.356 119.848C262.264 119.942 262.193 120.053 262.14 120.179C262.089 120.303 262.063 120.437 262.061 120.579C262.063 120.766 262.107 120.939 262.193 121.096C262.278 121.254 262.397 121.38 262.547 121.475C262.698 121.57 262.869 121.617 263.06 121.617ZM268.773 121.323V121.039C268.773 120.83 268.816 120.638 268.904 120.463C268.993 120.288 269.123 120.147 269.293 120.04C269.463 119.933 269.669 119.879 269.911 119.879C270.16 119.879 270.368 119.933 270.537 120.04C270.705 120.145 270.832 120.285 270.918 120.46C271.005 120.636 271.049 120.828 271.049 121.039V121.323C271.049 121.531 271.005 121.723 270.918 121.898C270.83 122.074 270.701 122.215 270.531 122.322C270.363 122.428 270.156 122.482 269.911 122.482C269.666 122.482 269.458 122.428 269.288 122.322C269.118 122.215 268.989 122.074 268.901 121.898C268.816 121.723 268.773 121.531 268.773 121.323ZM269.459 121.039V121.323C269.459 121.461 269.492 121.588 269.559 121.704C269.625 121.819 269.743 121.877 269.911 121.877C270.081 121.877 270.197 121.82 270.261 121.706C270.325 121.591 270.358 121.463 270.358 121.323V121.039C270.358 120.898 270.327 120.77 270.266 120.655C270.204 120.537 270.086 120.479 269.911 120.479C269.746 120.479 269.63 120.537 269.561 120.655C269.493 120.77 269.459 120.898 269.459 121.039ZM266.036 118.242V117.958C266.036 117.747 266.081 117.555 266.17 117.379C266.259 117.204 266.389 117.064 266.559 116.959C266.729 116.852 266.935 116.798 267.177 116.798C267.424 116.798 267.632 116.852 267.8 116.959C267.97 117.064 268.098 117.204 268.184 117.379C268.27 117.555 268.313 117.747 268.313 117.958V118.242C268.313 118.452 268.269 118.645 268.181 118.82C268.095 118.993 267.967 119.133 267.797 119.238C267.627 119.343 267.42 119.396 267.177 119.396C266.93 119.396 266.721 119.343 266.551 119.238C266.383 119.133 266.255 118.992 266.167 118.817C266.08 118.642 266.036 118.45 266.036 118.242ZM266.727 117.958V118.242C266.727 118.382 266.76 118.51 266.825 118.625C266.891 118.739 267.009 118.796 267.177 118.796C267.345 118.796 267.461 118.739 267.524 118.625C267.589 118.51 267.621 118.382 267.621 118.242V117.958C267.621 117.817 267.59 117.689 267.529 117.574C267.468 117.456 267.35 117.398 267.177 117.398C267.01 117.398 266.894 117.456 266.827 117.574C266.761 117.691 266.727 117.819 266.727 117.958ZM266.336 122.332L270.037 116.948H270.694L266.993 122.332H266.336Z" fill="#60646C"/>
<path d="M249.783 114.596H255.978C257.001 114.596 257.829 115.425 257.829 116.447V122.792C257.829 123.815 257.001 124.643 255.978 124.643H249.783C248.761 124.643 247.932 123.815 247.932 122.792V116.447C247.932 115.425 248.761 114.596 249.783 114.596Z" fill="#E8E8EC" stroke="#B9BBC6" stroke-width="0.528777"/>
<g clip-path="url(#clip5_5758_104499)">
<path d="M252.655 122.458C254.334 122.458 255.696 121.077 255.696 119.374C255.696 117.67 254.334 116.289 252.655 116.289C250.975 116.289 249.614 117.67 249.614 119.374C249.614 121.077 250.975 122.458 252.655 122.458Z" stroke="#60646C" stroke-width="0.528777" stroke-linecap="round" stroke-linejoin="round"/>
<path d="M250.496 117.184L254.814 121.564" stroke="#60646C" stroke-width="0.528777" stroke-linecap="round" stroke-linejoin="round"/>
</g>
</g>
<rect x="0.5" y="0.5" width="292" height="167" rx="3.5" stroke="#D9D9E0"/>
<defs>
<linearGradient id="paint0_linear_5758_104499" x1="51.7572" y1="106.926" x2="51.7572" y2="144.469" gradientUnits="userSpaceOnUse">
<stop stop-color="#DF4D51"/>
<stop offset="1" stop-color="#A90408"/>
</linearGradient>
<linearGradient id="paint1_linear_5758_104499" x1="91.4154" y1="106.926" x2="91.4154" y2="162.447" gradientUnits="userSpaceOnUse">
<stop stop-color="#FFAC88"/>
<stop offset="1" stop-color="#FE6B00"/>
</linearGradient>
<linearGradient id="paint2_linear_5758_104499" x1="149.052" y1="106.926" x2="149.052" y2="192.588" gradientUnits="userSpaceOnUse">
<stop stop-color="#FFD675"/>
<stop offset="1" stop-color="#F5AC00"/>
</linearGradient>
<linearGradient id="paint3_linear_5758_104499" x1="236.829" y1="106.926" x2="236.829" y2="145.527" gradientUnits="userSpaceOnUse">
<stop stop-color="#4F9BF4"/>
<stop offset="1" stop-color="#1B46DE"/>
</linearGradient>
<linearGradient id="paint4_linear_5758_104499" x1="277.544" y1="106.926" x2="277.544" y2="126.491" gradientUnits="userSpaceOnUse">
<stop stop-color="#B9BBC6"/>
<stop offset="1" stop-color="#A0A1A9"/>
</linearGradient>
<clipPath id="clip0_5758_104499">
<rect width="293" height="168" rx="4" fill="white"/>
</clipPath>
<clipPath id="clip1_5758_104499">
<rect width="7.40288" height="7.40288" fill="white" transform="translate(21.5859 115.164)"/>
</clipPath>
<clipPath id="clip2_5758_104499">
<rect width="8.93617" height="9.51799" fill="white" transform="translate(61.4883 114.105)"/>
</clipPath>
<clipPath id="clip3_5758_104499">
<rect width="9.38298" height="9.51799" fill="white" transform="translate(119.564 114.105)"/>
</clipPath>
<clipPath id="clip4_5758_104499">
<rect width="9.38298" height="9.51799" fill="white" transform="translate(206.043 114.859)"/>
</clipPath>
<clipPath id="clip5_5758_104499">
<rect width="7.29787" height="7.40288" fill="white" transform="translate(249.006 115.672)"/>
</clipPath>
</defs>
</svg>
