<svg width="94" height="94" viewBox="0 0 94 94" fill="none" xmlns="http://www.w3.org/2000/svg">
<circle cx="46.7188" cy="46.7188" r="46.7188" fill="#F9F9FB"/>
<path d="M74.5 34.2487V29.9987C74.5 28.4958 73.903 27.0545 72.8403 25.9918C71.7776 24.9291 70.3362 24.332 68.8333 24.332H29.1667C27.6638 24.332 26.2224 24.9291 25.1597 25.9918C24.097 27.0545 23.5 28.4958 23.5 29.9987V69.6654C23.5 71.1683 24.097 72.6096 25.1597 73.6723C26.2224 74.735 27.6638 75.332 29.1667 75.332H39.0833" stroke="#D9D9E0" stroke-width="5" stroke-linecap="round" stroke-linejoin="round"/>
<path d="M60.332 18.668V30.0013" stroke="#CDCED6" stroke-width="4" stroke-linecap="round" stroke-linejoin="round"/>
<path d="M37.668 18.668V30.0013" stroke="#CDCED6" stroke-width="4" stroke-linecap="round" stroke-linejoin="round"/>
<path d="M23.5 41.332H37.6667" stroke="#D9D9E0" stroke-width="4" stroke-linecap="round" stroke-linejoin="round"/>
<path d="M64.582 62.5846L60.332 59.1846V52.668" stroke="#B9BBC6" stroke-width="4" stroke-linecap="round" stroke-linejoin="round"/>
<path d="M60.332 75.332C69.7209 75.332 77.332 67.7209 77.332 58.332C77.332 48.9432 69.7209 41.332 60.332 41.332C50.9432 41.332 43.332 48.9432 43.332 58.332C43.332 67.7209 50.9432 75.332 60.332 75.332Z" stroke="#B9BBC6" stroke-width="4" stroke-linecap="round" stroke-linejoin="round"/>
</svg>
