<svg width="98" height="98" viewBox="0 0 98 98" fill="none" xmlns="http://www.w3.org/2000/svg">
<circle cx="49" cy="49" r="49" fill="#F8F9FA"/>
<path d="M23.5 49C23.5 54.0434 24.9955 58.9736 27.7975 63.167C30.5995 67.3605 34.5821 70.6289 39.2416 72.5589C43.9011 74.489 49.0283 74.9939 53.9748 74.01C58.9213 73.0261 63.465 70.5975 67.0312 67.0312C70.5975 63.465 73.0261 58.9213 74.01 53.9748C74.9939 49.0283 74.489 43.9011 72.5589 39.2416C70.6289 34.5821 67.3605 30.5995 63.167 27.7975C58.9736 24.9955 54.0434 23.5 49 23.5C41.8712 23.5268 35.0287 26.3085 29.9033 31.2633L23.5 37.6667" stroke="#D9D9E0" stroke-width="6" stroke-linecap="round" stroke-linejoin="round"/>
<path d="M23.5 23.5V37.6667H37.6667" stroke="#D9D9E0" stroke-width="6" stroke-linecap="round" stroke-linejoin="round"/>
<path d="M49 34.832V48.9987L60.3333 54.6654" stroke="#B9BBC6" stroke-width="6" stroke-linecap="round" stroke-linejoin="round"/>
</svg>
