<svg width="632" height="269" viewBox="0 0 632 269" fill="none" xmlns="http://www.w3.org/2000/svg">
<g clip-path="url(#clip0_2279_42539)">
<path d="M447.648 9.2942L108.777 58.3359L132.006 219.429L470.877 170.387L447.648 9.2942Z" fill="#F5F5F5"/>
<path d="M439.95 24.4973L120.459 70.7344L139.839 205.14L459.33 158.902L439.95 24.4973Z" fill="white"/>
<path d="M446.161 -0.00267782L107.291 49.0391L109.371 63.4616L448.241 14.4198L446.161 -0.00267782Z" fill="#E5E5E5"/>
<path d="M119.212 58.6596C120.701 58.6596 121.908 57.4504 121.908 55.9587C121.908 54.467 120.701 53.2578 119.212 53.2578C117.723 53.2578 116.516 54.467 116.516 55.9587C116.516 57.4504 117.723 58.6596 119.212 58.6596Z" fill="white"/>
<path d="M129.34 57.2065C130.829 57.2065 132.036 55.9973 132.036 54.5056C132.036 53.0139 130.829 51.8047 129.34 51.8047C127.852 51.8047 126.645 53.0139 126.645 54.5056C126.645 55.9973 127.852 57.2065 129.34 57.2065Z" fill="white"/>
<path d="M139.467 55.7377C140.956 55.7377 142.163 54.5285 142.163 53.0368C142.163 51.5452 140.956 50.3359 139.467 50.3359C137.978 50.3359 136.771 51.5452 136.771 53.0368C136.771 54.5285 137.978 55.7377 139.467 55.7377Z" fill="white"/>
<path d="M525.492 78.6016H183.104V241.367H525.492V78.6016Z" fill="#F1F1F1"/>
<path d="M515.702 92.5547H192.895V228.355H515.702V92.5547Z" fill="white"/>
<path d="M525.345 69.1953H182.957V83.7675H525.345V69.1953Z" fill="#E5E5E5"/>
<path d="M193.766 80.4643C195.255 80.4643 196.462 79.2551 196.462 77.7634C196.462 76.2717 195.255 75.0625 193.766 75.0625C192.277 75.0625 191.07 76.2717 191.07 77.7634C191.07 79.2551 192.277 80.4643 193.766 80.4643Z" fill="white"/>
<path d="M203.999 80.4643C205.488 80.4643 206.695 79.2551 206.695 77.7634C206.695 76.2717 205.488 75.0625 203.999 75.0625C202.51 75.0625 201.303 76.2717 201.303 77.7634C201.303 79.2551 202.51 80.4643 203.999 80.4643Z" fill="white"/>
<path d="M214.233 80.4643C215.722 80.4643 216.929 79.2551 216.929 77.7634C216.929 76.2717 215.722 75.0625 214.233 75.0625C212.744 75.0625 211.537 76.2717 211.537 77.7634C211.537 79.2551 212.744 80.4643 214.233 80.4643Z" fill="white"/>
<path d="M424.368 113.203H378.904V116.626H424.368V113.203Z" fill="#F1F1F1"/>
<path d="M449.11 123.258H378.904V126.681H449.11V123.258Z" fill="#F1F1F1"/>
<path d="M436.851 132.82H379.635V136.244H436.851V132.82Z" fill="#F1F1F1"/>
<path d="M412.306 143.328H378.904V146.751H412.306V143.328Z" fill="#F1F1F1"/>
<path d="M429.316 153.586H378.904V157.009H429.316V153.586Z" fill="#F1F1F1"/>
<path d="M363.751 112.133H358.184V117.71H363.751V112.133Z" fill="#F1F1F1"/>
<path d="M363.751 122.172H358.184V127.749H363.751V122.172Z" fill="#F1F1F1"/>
<path d="M363.751 131.75H358.184V137.327H363.751V131.75Z" fill="#F1F1F1"/>
<path d="M363.751 142.258H358.184V147.835H363.751V142.258Z" fill="#F1F1F1"/>
<path d="M363.751 152.508H358.184V158.085H363.751V152.508Z" fill="#F1F1F1"/>
<path d="M424.368 163.906H378.904V167.33H424.368V163.906Z" fill="#F1F1F1"/>
<path d="M449.11 173.945H378.904V177.369H449.11V173.945Z" fill="#F1F1F1"/>
<path d="M436.851 183.523H379.635V186.947H436.851V183.523Z" fill="#F1F1F1"/>
<path d="M412.306 194.031H378.904V197.455H412.306V194.031Z" fill="#F1F1F1"/>
<path d="M429.316 204.289H378.904V207.712H429.316V204.289Z" fill="#F1F1F1"/>
<path d="M363.751 162.836H358.184V168.413H363.751V162.836Z" fill="#F1F1F1"/>
<path d="M363.751 172.875H358.184V178.452H363.751V172.875Z" fill="#F1F1F1"/>
<path d="M363.751 182.453H358.184V188.03H363.751V182.453Z" fill="#F1F1F1"/>
<path d="M363.751 192.945H358.184V198.522H363.751V192.945Z" fill="#F1F1F1"/>
<path d="M363.751 203.219H358.184V208.796H363.751V203.219Z" fill="#F1F1F1"/>
<path d="M280.545 190.758H235.082V194.181H280.545V190.758Z" fill="#F1F1F1"/>
<path d="M286.216 199.664H229V203.087H286.216V199.664Z" fill="#F1F1F1"/>
<path d="M287.364 147.583C287.362 152.728 286.028 157.785 283.493 162.259C280.957 166.734 277.307 170.473 272.898 173.112C268.489 175.75 263.472 177.199 258.337 177.315C253.203 177.431 248.126 176.211 243.603 173.774L243.597 173.768C238.977 171.274 235.099 167.598 232.359 163.114C229.618 158.63 228.113 153.498 227.997 148.242C227.881 142.986 229.158 137.792 231.698 133.191C234.238 128.59 237.95 124.746 242.456 122.051C246.962 119.355 252.1 117.904 257.348 117.846C262.596 117.787 267.765 119.124 272.33 121.719C276.894 124.314 280.69 128.075 283.331 132.618C285.972 137.162 287.363 142.325 287.364 147.583Z" fill="#F1F1F1"/>
<path d="M257.829 146.138C262.286 146.138 265.899 142.518 265.899 138.053C265.899 133.588 262.286 129.969 257.829 129.969C253.373 129.969 249.76 133.588 249.76 138.053C249.76 142.518 253.373 146.138 257.829 146.138Z" fill="white"/>
<path d="M271.607 162.829C262.585 166.001 252.748 165.963 243.752 162.721L243.746 162.717L249.758 150.828H265.897L271.607 162.829Z" fill="white"/>
<path d="M315.893 221.387C301.828 221.387 290.385 209.209 290.385 194.24C290.385 179.272 301.828 167.094 315.893 167.094C329.959 167.094 341.402 179.272 341.402 194.24C341.402 209.209 329.959 221.387 315.893 221.387ZM315.893 173.953C305.603 173.953 297.232 183.054 297.232 194.24C297.232 205.427 305.603 214.528 315.893 214.528C326.184 214.528 334.555 205.427 334.555 194.24C334.555 183.054 326.184 173.953 315.893 173.953Z" fill="#3F76FF"/>
<rect x="275" y="194" width="80" height="74" rx="6" fill="#C5D6FF"/>
<path d="M325.307 221.118C325.308 219.442 324.864 217.795 324.018 216.348C323.173 214.901 321.958 213.706 320.499 212.886C319.039 212.065 317.388 211.65 315.715 211.681C314.041 211.713 312.407 212.191 310.979 213.066C309.552 213.941 308.383 215.181 307.593 216.66C306.803 218.138 306.421 219.8 306.486 221.475C306.55 223.151 307.059 224.778 307.961 226.191C308.862 227.604 310.123 228.75 311.614 229.512V244.268H320.172V229.512C321.717 228.723 323.014 227.522 323.921 226.04C324.827 224.559 325.307 222.856 325.307 221.118Z" fill="white"/>
</g>
<defs>
<clipPath id="clip0_2279_42539">
<rect width="632" height="269" fill="white"/>
</clipPath>
</defs>
</svg>
