<svg viewBox="113.973 38.701 281.415 172.368" xmlns="http://www.w3.org/2000/svg">
  <defs>
    <filter id="filter0_d_1537_45910" x="17.5323" y="0.532252" width="264.935" height="151.935" filterUnits="userSpaceOnUse" color-interpolation-filters="sRGB">
      <feFlood flood-opacity="0" result="BackgroundImageFix"/>
      <feColorMatrix in="SourceAlpha" type="matrix" values="0 0 0 0 0 0 0 0 0 0 0 0 0 0 0 0 0 0 127 0" result="hardAlpha"/>
      <feOffset/>
      <feGaussianBlur stdDeviation="1.23387"/>
      <feComposite in2="hardAlpha" operator="out"/>
      <feColorMatrix type="matrix" values="0 0 0 0 0 0 0 0 0 0 0 0 0 0 0 0 0 0 0.2 0"/>
      <feBlend mode="normal" in2="BackgroundImageFix" result="effect1_dropShadow_1537_45910"/>
      <feBlend mode="normal" in="SourceGraphic" in2="effect1_dropShadow_1537_45910" result="shape"/>
    </filter>
    <filter id="filter1_d_1537_45910" x="0.532252" y="21.5323" width="264.935" height="151.935" filterUnits="userSpaceOnUse" color-interpolation-filters="sRGB">
      <feFlood flood-opacity="0" result="BackgroundImageFix"/>
      <feColorMatrix in="SourceAlpha" type="matrix" values="0 0 0 0 0 0 0 0 0 0 0 0 0 0 0 0 0 0 127 0" result="hardAlpha"/>
      <feOffset/>
      <feGaussianBlur stdDeviation="1.23387"/>
      <feComposite in2="hardAlpha" operator="out"/>
      <feColorMatrix type="matrix" values="0 0 0 0 0 0 0 0 0 0 0 0 0 0 0 0 0 0 0.2 0"/>
      <feBlend mode="normal" in2="BackgroundImageFix" result="effect1_dropShadow_1537_45910"/>
      <feBlend mode="normal" in="SourceGraphic" in2="effect1_dropShadow_1537_45910" result="shape"/>
    </filter>
  </defs>
  <rect x="169.862" y="65.408" width="79.585" height="13.551" rx="6.169" fill="#EBEBEB" transform="matrix(0.9999999999999999, 0, 0, 0.9999999999999999, 0, -7.105427357601002e-15)"/>
  <rect x="264.871" y="65.408" width="79.585" height="13.551" rx="6.169" fill="#E2E2E2" transform="matrix(0.9999999999999999, 0, 0, 0.9999999999999999, 0, -7.105427357601002e-15)"/>
  <g filter="url(#filter0_d_1537_45910)" transform="matrix(0.9999999999999999, 0, 0, 0.9999999999999999, 113.2900695800781, 37.6835594177246)">
    <rect x="20" y="3" width="260" height="147" rx="6.16937" fill="white"/>
  </g>
  <path d="M 147.794 137.684 L 147.794 128.229 L 151.34 128.229 C 152.066 128.229 152.676 128.365 153.168 128.635 C 153.664 128.906 154.037 129.279 154.29 129.753 C 154.545 130.223 154.673 130.759 154.673 131.359 C 154.673 131.965 154.545 132.504 154.29 132.975 C 154.034 133.446 153.657 133.817 153.159 134.087 C 152.66 134.355 152.046 134.489 151.317 134.489 L 148.967 134.489 L 148.967 133.081 L 151.086 133.081 C 151.511 133.081 151.858 133.007 152.129 132.859 C 152.4 132.712 152.6 132.509 152.729 132.25 C 152.862 131.992 152.928 131.695 152.928 131.359 C 152.928 131.024 152.862 130.728 152.729 130.473 C 152.6 130.217 152.399 130.019 152.125 129.877 C 151.854 129.733 151.505 129.66 151.077 129.66 L 149.507 129.66 L 149.507 137.684 L 147.794 137.684 Z M 156.087 137.684 L 156.087 130.593 L 157.707 130.593 L 157.707 131.775 L 157.781 131.775 C 157.91 131.365 158.132 131.05 158.446 130.828 C 158.763 130.604 159.124 130.491 159.531 130.491 C 159.623 130.491 159.726 130.496 159.84 130.505 C 159.957 130.511 160.054 130.522 160.131 130.537 L 160.131 132.075 C 160.06 132.05 159.948 132.028 159.794 132.01 C 159.643 131.988 159.497 131.978 159.355 131.978 C 159.051 131.978 158.777 132.044 158.534 132.176 C 158.293 132.305 158.104 132.485 157.966 132.716 C 157.827 132.947 157.758 133.213 157.758 133.515 L 157.758 137.684 L 156.087 137.684 Z M 164.042 137.822 C 163.35 137.822 162.75 137.67 162.242 137.365 C 161.734 137.06 161.34 136.634 161.06 136.086 C 160.783 135.539 160.644 134.898 160.644 134.166 C 160.644 133.433 160.783 132.792 161.06 132.241 C 161.34 131.69 161.734 131.262 162.242 130.957 C 162.75 130.653 163.35 130.5 164.042 130.5 C 164.735 130.5 165.335 130.653 165.843 130.957 C 166.35 131.262 166.743 131.69 167.02 132.241 C 167.3 132.792 167.44 133.433 167.44 134.166 C 167.44 134.898 167.3 135.539 167.02 136.086 C 166.743 136.634 166.35 137.06 165.843 137.365 C 165.335 137.67 164.735 137.822 164.042 137.822 Z M 164.051 136.483 C 164.427 136.483 164.741 136.38 164.993 136.174 C 165.245 135.965 165.433 135.685 165.556 135.334 C 165.683 134.983 165.746 134.592 165.746 134.161 C 165.746 133.727 165.683 133.335 165.556 132.984 C 165.433 132.63 165.245 132.349 164.993 132.139 C 164.741 131.93 164.427 131.825 164.051 131.825 C 163.667 131.825 163.347 131.93 163.091 132.139 C 162.839 132.349 162.649 132.63 162.523 132.984 C 162.4 133.335 162.339 133.727 162.339 134.161 C 162.339 134.592 162.4 134.983 162.523 135.334 C 162.649 135.685 162.839 135.965 163.091 136.174 C 163.347 136.38 163.667 136.483 164.051 136.483 Z M 168.858 130.593 L 170.529 130.593 L 170.529 138.09 C 170.529 138.601 170.432 139.023 170.239 139.355 C 170.045 139.688 169.765 139.935 169.398 140.098 C 169.032 140.262 168.587 140.343 168.064 140.343 C 168.003 140.343 167.946 140.342 167.893 140.338 C 167.841 140.338 167.784 140.337 167.723 140.334 L 167.723 138.972 C 167.769 138.975 167.81 138.977 167.847 138.977 C 167.884 138.98 167.923 138.981 167.963 138.981 C 168.283 138.981 168.512 138.903 168.651 138.746 C 168.789 138.592 168.858 138.366 168.858 138.067 L 168.858 130.593 Z M 169.689 129.586 C 169.421 129.586 169.192 129.499 169.001 129.323 C 168.814 129.145 168.72 128.931 168.72 128.682 C 168.72 128.429 168.814 128.215 169.001 128.04 C 169.192 127.861 169.421 127.772 169.689 127.772 C 169.954 127.772 170.18 127.861 170.368 128.04 C 170.559 128.215 170.654 128.429 170.654 128.682 C 170.654 128.931 170.559 129.145 170.368 129.323 C 170.18 129.499 169.954 129.586 169.689 129.586 Z M 175.387 137.822 C 174.676 137.822 174.062 137.674 173.545 137.379 C 173.031 137.08 172.636 136.659 172.359 136.114 C 172.082 135.566 171.943 134.921 171.943 134.18 C 171.943 133.45 172.082 132.81 172.359 132.259 C 172.639 131.705 173.03 131.274 173.531 130.967 C 174.033 130.656 174.622 130.5 175.299 130.5 C 175.736 130.5 176.149 130.571 176.537 130.713 C 176.927 130.851 177.272 131.067 177.571 131.359 C 177.872 131.651 178.109 132.024 178.282 132.476 C 178.454 132.926 178.54 133.461 178.54 134.083 L 178.54 134.595 L 172.728 134.595 L 172.728 133.469 L 176.938 133.469 C 176.935 133.149 176.866 132.864 176.731 132.615 C 176.595 132.362 176.406 132.164 176.163 132.019 C 175.923 131.875 175.643 131.802 175.322 131.802 C 174.981 131.802 174.681 131.885 174.422 132.052 C 174.164 132.215 173.962 132.43 173.818 132.698 C 173.676 132.963 173.604 133.253 173.601 133.57 L 173.601 134.554 C 173.601 134.966 173.676 135.32 173.827 135.615 C 173.978 135.908 174.188 136.133 174.459 136.289 C 174.73 136.443 175.047 136.52 175.41 136.52 C 175.653 136.52 175.873 136.486 176.07 136.419 C 176.267 136.348 176.438 136.245 176.583 136.109 C 176.727 135.974 176.837 135.806 176.911 135.606 L 178.471 135.782 C 178.372 136.194 178.185 136.554 177.908 136.862 C 177.634 137.167 177.283 137.404 176.855 137.573 C 176.427 137.739 175.938 137.822 175.387 137.822 Z M 183.047 137.822 C 182.339 137.822 181.731 137.667 181.224 137.356 C 180.719 137.045 180.329 136.616 180.056 136.068 C 179.785 135.517 179.649 134.883 179.649 134.166 C 179.649 133.446 179.788 132.81 180.065 132.259 C 180.342 131.705 180.733 131.274 181.237 130.967 C 181.745 130.656 182.345 130.5 183.038 130.5 C 183.613 130.5 184.123 130.607 184.566 130.819 C 185.012 131.028 185.368 131.325 185.632 131.71 C 185.897 132.092 186.048 132.538 186.085 133.049 L 184.487 133.049 C 184.423 132.707 184.269 132.422 184.026 132.195 C 183.786 131.964 183.464 131.848 183.061 131.848 C 182.719 131.848 182.419 131.941 182.161 132.125 C 181.902 132.307 181.701 132.569 181.556 132.91 C 181.414 133.252 181.344 133.661 181.344 134.138 C 181.344 134.621 181.414 135.037 181.556 135.385 C 181.697 135.729 181.896 135.996 182.151 136.183 C 182.41 136.368 182.713 136.46 183.061 136.46 C 183.307 136.46 183.527 136.414 183.721 136.322 C 183.918 136.226 184.083 136.089 184.215 135.911 C 184.347 135.732 184.438 135.515 184.487 135.26 L 186.085 135.26 C 186.045 135.762 185.897 136.206 185.641 136.594 C 185.386 136.979 185.038 137.28 184.598 137.499 C 184.158 137.715 183.641 137.822 183.047 137.822 Z M 190.998 130.593 L 190.998 131.885 L 186.921 131.885 L 186.921 130.593 L 190.998 130.593 Z M 187.928 128.894 L 189.599 128.894 L 189.599 135.551 C 189.599 135.776 189.633 135.948 189.701 136.068 C 189.771 136.185 189.864 136.265 189.978 136.308 C 190.091 136.351 190.218 136.373 190.356 136.373 C 190.461 136.373 190.556 136.365 190.642 136.349 C 190.732 136.334 190.799 136.32 190.845 136.308 L 191.127 137.614 C 191.038 137.645 190.91 137.679 190.744 137.716 C 190.581 137.753 190.381 137.775 190.144 137.781 C 189.725 137.793 189.348 137.73 189.013 137.591 C 188.677 137.45 188.411 137.231 188.214 136.936 C 188.02 136.64 187.925 136.271 187.928 135.828 L 187.928 128.894 Z M 200.832 130.828 C 200.789 130.425 200.607 130.111 200.287 129.886 C 199.97 129.662 199.558 129.549 199.05 129.549 C 198.693 129.549 198.387 129.603 198.131 129.711 C 197.876 129.819 197.68 129.965 197.545 130.15 C 197.41 130.334 197.34 130.545 197.337 130.782 C 197.337 130.979 197.382 131.15 197.471 131.294 C 197.564 131.439 197.688 131.562 197.845 131.664 C 198.002 131.762 198.176 131.845 198.367 131.913 C 198.558 131.981 198.75 132.038 198.944 132.084 L 199.83 132.305 C 200.187 132.389 200.53 132.501 200.86 132.642 C 201.192 132.784 201.489 132.963 201.751 133.178 C 202.015 133.393 202.225 133.653 202.379 133.958 C 202.532 134.263 202.609 134.62 202.609 135.029 C 202.609 135.583 202.468 136.071 202.185 136.493 C 201.901 136.911 201.492 137.239 200.957 137.476 C 200.424 137.71 199.779 137.827 199.022 137.827 C 198.287 137.827 197.648 137.713 197.107 137.485 C 196.568 137.257 196.146 136.925 195.842 136.488 C 195.54 136.051 195.377 135.519 195.352 134.891 L 197.037 134.891 C 197.062 135.22 197.163 135.494 197.342 135.712 C 197.52 135.931 197.753 136.094 198.039 136.202 C 198.328 136.309 198.651 136.363 199.008 136.363 C 199.381 136.363 199.707 136.308 199.987 136.197 C 200.27 136.083 200.492 135.926 200.652 135.726 C 200.812 135.523 200.894 135.286 200.897 135.015 C 200.894 134.769 200.821 134.566 200.68 134.406 C 200.538 134.243 200.34 134.107 200.084 134 C 199.832 133.889 199.536 133.79 199.198 133.704 L 198.122 133.427 C 197.343 133.227 196.728 132.924 196.276 132.518 C 195.826 132.108 195.602 131.565 195.602 130.888 C 195.602 130.331 195.752 129.843 196.054 129.425 C 196.359 129.006 196.773 128.682 197.296 128.451 C 197.819 128.217 198.411 128.1 199.073 128.1 C 199.744 128.1 200.332 128.217 200.837 128.451 C 201.344 128.682 201.743 129.003 202.032 129.416 C 202.322 129.825 202.471 130.296 202.48 130.828 L 200.832 130.828 Z M 207.202 137.822 C 206.491 137.822 205.877 137.674 205.36 137.379 C 204.846 137.08 204.45 136.659 204.173 136.114 C 203.896 135.566 203.758 134.921 203.758 134.18 C 203.758 133.45 203.896 132.81 204.173 132.259 C 204.453 131.705 204.844 131.274 205.346 130.967 C 205.847 130.656 206.437 130.5 207.114 130.5 C 207.551 130.5 207.963 130.571 208.351 130.713 C 208.742 130.851 209.087 131.067 209.385 131.359 C 209.687 131.651 209.924 132.024 210.096 132.476 C 210.268 132.926 210.355 133.461 210.355 134.083 L 210.355 134.595 L 204.542 134.595 L 204.542 133.469 L 208.753 133.469 C 208.75 133.149 208.68 132.864 208.545 132.615 C 208.41 132.362 208.22 132.164 207.977 132.019 C 207.737 131.875 207.457 131.802 207.137 131.802 C 206.795 131.802 206.495 131.885 206.237 132.052 C 205.978 132.215 205.777 132.43 205.632 132.698 C 205.49 132.963 205.418 133.253 205.415 133.57 L 205.415 134.554 C 205.415 134.966 205.49 135.32 205.641 135.615 C 205.792 135.908 206.003 136.133 206.274 136.289 C 206.545 136.443 206.862 136.52 207.225 136.52 C 207.468 136.52 207.688 136.486 207.885 136.419 C 208.082 136.348 208.253 136.245 208.397 136.109 C 208.542 135.974 208.651 135.806 208.725 135.606 L 210.285 135.782 C 210.187 136.194 209.999 136.554 209.722 136.862 C 209.448 137.167 209.097 137.404 208.67 137.573 C 208.242 137.739 207.752 137.822 207.202 137.822 Z M 215.31 130.593 L 215.31 131.885 L 211.233 131.885 L 211.233 130.593 L 215.31 130.593 Z M 212.239 128.894 L 213.911 128.894 L 213.911 135.551 C 213.911 135.776 213.945 135.948 214.012 136.068 C 214.083 136.185 214.176 136.265 214.289 136.308 C 214.403 136.351 214.529 136.373 214.668 136.373 C 214.773 136.373 214.868 136.365 214.954 136.349 C 215.043 136.334 215.111 136.32 215.157 136.308 L 215.439 137.614 C 215.35 137.645 215.222 137.679 215.056 137.716 C 214.893 137.753 214.693 137.775 214.456 137.781 C 214.037 137.793 213.66 137.73 213.325 137.591 C 212.989 137.45 212.723 137.231 212.526 136.936 C 212.332 136.64 212.236 136.271 212.239 135.828 L 212.239 128.894 Z M 220.248 130.593 L 220.248 131.885 L 216.172 131.885 L 216.172 130.593 L 220.248 130.593 Z M 217.178 128.894 L 218.849 128.894 L 218.849 135.551 C 218.849 135.776 218.883 135.948 218.951 136.068 C 219.022 136.185 219.114 136.265 219.228 136.308 C 219.342 136.351 219.468 136.373 219.606 136.373 C 219.711 136.373 219.806 136.365 219.893 136.349 C 219.982 136.334 220.05 136.32 220.096 136.308 L 220.377 137.614 C 220.288 137.645 220.16 137.679 219.994 137.716 C 219.831 137.753 219.631 137.775 219.394 137.781 C 218.975 137.793 218.598 137.73 218.263 137.591 C 217.928 137.45 217.661 137.231 217.464 136.936 C 217.27 136.64 217.175 136.271 217.178 135.828 L 217.178 128.894 Z M 221.646 137.684 L 221.646 130.593 L 223.317 130.593 L 223.317 137.684 L 221.646 137.684 Z M 222.486 129.586 C 222.221 129.586 221.994 129.499 221.803 129.323 C 221.612 129.145 221.516 128.931 221.516 128.682 C 221.516 128.429 221.612 128.215 221.803 128.04 C 221.994 127.861 222.221 127.772 222.486 127.772 C 222.754 127.772 222.981 127.861 223.169 128.04 C 223.36 128.215 223.455 128.429 223.455 128.682 C 223.455 128.931 223.36 129.145 223.169 129.323 C 222.981 129.499 222.754 129.586 222.486 129.586 Z M 226.707 133.529 L 226.707 137.684 L 225.035 137.684 L 225.035 130.593 L 226.633 130.593 L 226.633 131.798 L 226.716 131.798 C 226.879 131.401 227.139 131.085 227.496 130.851 C 227.856 130.617 228.301 130.5 228.83 130.5 C 229.319 130.5 229.746 130.605 230.109 130.814 C 230.475 131.024 230.758 131.327 230.958 131.724 C 231.161 132.121 231.261 132.602 231.258 133.169 L 231.258 137.684 L 229.587 137.684 L 229.587 133.427 C 229.587 132.953 229.464 132.582 229.218 132.315 C 228.975 132.047 228.638 131.913 228.207 131.913 C 227.915 131.913 227.654 131.978 227.427 132.107 C 227.202 132.233 227.025 132.416 226.896 132.656 C 226.77 132.896 226.707 133.187 226.707 133.529 Z M 236.041 140.491 C 235.441 140.491 234.925 140.409 234.495 140.246 C 234.064 140.086 233.717 139.871 233.456 139.6 C 233.194 139.329 233.013 139.029 232.911 138.7 L 234.416 138.335 C 234.484 138.473 234.582 138.61 234.712 138.746 C 234.841 138.884 235.015 138.998 235.233 139.087 C 235.455 139.18 235.733 139.226 236.069 139.226 C 236.543 139.226 236.935 139.11 237.246 138.88 C 237.557 138.652 237.712 138.276 237.712 137.753 L 237.712 136.41 L 237.629 136.41 C 237.543 136.582 237.417 136.759 237.251 136.94 C 237.087 137.122 236.87 137.274 236.6 137.397 C 236.332 137.521 235.995 137.582 235.589 137.582 C 235.044 137.582 234.55 137.454 234.107 137.199 C 233.667 136.94 233.316 136.556 233.054 136.045 C 232.796 135.531 232.666 134.888 232.666 134.115 C 232.666 133.336 232.796 132.679 233.054 132.144 C 233.316 131.605 233.668 131.197 234.111 130.921 C 234.555 130.64 235.049 130.5 235.593 130.5 C 236.009 130.5 236.35 130.571 236.618 130.713 C 236.889 130.851 237.104 131.019 237.264 131.216 C 237.424 131.41 237.546 131.593 237.629 131.765 L 237.721 131.765 L 237.721 130.593 L 239.37 130.593 L 239.37 137.799 C 239.37 138.406 239.225 138.907 238.936 139.304 C 238.646 139.701 238.251 139.998 237.749 140.195 C 237.248 140.392 236.678 140.491 236.041 140.491 Z M 236.055 136.271 C 236.409 136.271 236.71 136.185 236.96 136.012 C 237.209 135.84 237.398 135.592 237.528 135.269 C 237.657 134.946 237.721 134.558 237.721 134.106 C 237.721 133.66 237.657 133.269 237.528 132.933 C 237.401 132.598 237.214 132.338 236.964 132.153 C 236.718 131.965 236.415 131.872 236.055 131.872 C 235.683 131.872 235.372 131.968 235.122 132.162 C 234.873 132.356 234.685 132.622 234.559 132.961 C 234.433 133.296 234.37 133.678 234.37 134.106 C 234.37 134.54 234.433 134.92 234.559 135.246 C 234.688 135.569 234.878 135.822 235.127 136.003 C 235.379 136.182 235.689 136.271 236.055 136.271 Z M 246.687 132.467 L 245.163 132.633 C 245.12 132.479 245.045 132.335 244.937 132.199 C 244.832 132.064 244.691 131.955 244.512 131.872 C 244.334 131.788 244.115 131.747 243.857 131.747 C 243.509 131.747 243.217 131.822 242.98 131.973 C 242.746 132.124 242.63 132.319 242.633 132.559 C 242.63 132.766 242.706 132.933 242.86 133.063 C 243.017 133.192 243.275 133.298 243.635 133.381 L 244.845 133.64 C 245.516 133.784 246.014 134.014 246.34 134.327 C 246.67 134.641 246.836 135.052 246.839 135.56 C 246.836 136.006 246.705 136.4 246.447 136.742 C 246.191 137.08 245.836 137.345 245.38 137.536 C 244.925 137.727 244.402 137.822 243.811 137.822 C 242.943 137.822 242.244 137.641 241.715 137.277 C 241.185 136.911 240.87 136.402 240.768 135.749 L 242.398 135.592 C 242.472 135.912 242.629 136.154 242.869 136.317 C 243.109 136.48 243.421 136.562 243.806 136.562 C 244.203 136.562 244.522 136.48 244.762 136.317 C 245.005 136.154 245.126 135.952 245.126 135.712 C 245.126 135.509 245.048 135.342 244.891 135.209 C 244.737 135.077 244.497 134.975 244.171 134.905 L 242.961 134.651 C 242.281 134.509 241.778 134.271 241.452 133.935 C 241.125 133.597 240.964 133.169 240.967 132.652 C 240.964 132.215 241.082 131.836 241.322 131.516 C 241.565 131.193 241.902 130.944 242.333 130.768 C 242.767 130.59 243.267 130.5 243.834 130.5 C 244.665 130.5 245.319 130.677 245.796 131.031 C 246.276 131.385 246.573 131.864 246.687 132.467 Z" fill="black" transform="matrix(0.9999999999999999, 0, 0, 0.9999999999999999, 0, -7.105427357601002e-15)"/>
  <rect x="147.29" y="150.495" width="232" height="8" rx="4" fill="#EBEBEB" transform="matrix(0.9999999999999999, 0, 0, 0.9999999999999999, 0, -7.105427357601002e-15)"/>
  <rect x="147.29" y="166.495" width="79.585" height="8.02" rx="4.01" fill="#E2E2E2" transform="matrix(0.9999999999999999, 0, 0, 0.9999999999999999, 0, -7.105427357601002e-15)"/>
  <path d="M 133.29 46.684 C 133.29 43.37 135.976 40.684 139.29 40.684 L 387.29 40.684 C 390.604 40.684 393.29 43.37 393.29 46.684 L 393.29 111.684 L 133.29 111.684 L 133.29 46.684 Z" fill="#FCECEF" transform="matrix(0.9999999999999999, 0, 0, 0.9999999999999999, 0, -7.105427357601002e-15)"/>
  <path d="M 250.832 95.85 C 250.033 95.85 249.355 95.57 248.796 95.011 C 248.237 94.452 247.957 93.773 247.957 92.975 L 247.957 72.179 C 247.957 71.38 248.237 70.701 248.796 70.142 C 249.355 69.583 250.033 69.304 250.832 69.304 L 254.186 69.304 L 254.186 64.704 C 254.186 62.18 255.073 60.032 256.846 58.259 C 258.618 56.486 260.767 55.6 263.29 55.6 C 265.814 55.6 267.962 56.486 269.735 58.259 C 271.508 60.032 272.394 62.18 272.394 64.704 L 272.394 69.304 L 275.749 69.304 C 276.547 69.304 277.226 69.583 277.785 70.142 C 278.344 70.701 278.624 71.38 278.624 72.179 L 278.624 92.975 C 278.624 93.773 278.344 94.452 277.785 95.011 C 277.226 95.57 276.547 95.85 275.749 95.85 L 250.832 95.85 Z M 250.832 92.975 L 275.749 92.975 L 275.749 72.179 L 250.832 72.179 L 250.832 92.975 Z M 263.29 86.266 C 264.313 86.266 265.183 85.915 265.902 85.212 C 266.621 84.509 266.98 83.663 266.98 82.673 C 266.98 81.714 266.621 80.844 265.902 80.061 C 265.183 79.278 264.313 78.887 263.29 78.887 C 262.268 78.887 261.398 79.278 260.679 80.061 C 259.96 80.844 259.601 81.714 259.601 82.673 C 259.601 83.663 259.96 84.509 260.679 85.212 C 261.398 85.915 262.268 86.266 263.29 86.266 Z M 257.061 69.304 L 269.519 69.304 L 269.519 64.704 C 269.519 62.979 268.913 61.509 267.699 60.295 C 266.485 59.082 265.015 58.475 263.29 58.475 C 261.565 58.475 260.096 59.082 258.882 60.295 C 257.668 61.509 257.061 62.979 257.061 64.704 L 257.061 69.304 Z M 250.832 92.975 L 250.832 72.179 L 250.832 92.975 Z" fill="#F19FA9" transform="matrix(0.9999999999999999, 0, 0, 0.9999999999999999, 0, -7.105427357601002e-15)"/>
  <rect x="152.862" y="86.408" width="79.585" height="13.551" rx="6.169" fill="#EBEBEB" transform="matrix(0.9999999999999999, 0, 0, 0.9999999999999999, 0, -7.105427357601002e-15)"/>
  <rect x="247.871" y="86.408" width="79.585" height="13.551" rx="6.169" fill="#E2E2E2" transform="matrix(0.9999999999999999, 0, 0, 0.9999999999999999, 0, -7.105427357601002e-15)"/>
  <g filter="url(#filter1_d_1537_45910)" transform="matrix(0.9999999999999999, 0, 0, 0.9999999999999999, 113.2900695800781, 37.6835594177246)">
    <rect x="3" y="24" width="260" height="147" rx="6.16937" fill="white"/>
  </g>
  <rect x="130.29" y="171.495" width="232" height="8" rx="4" fill="#EBEBEB" transform="matrix(0.9999999999999999, 0, 0, 0.9999999999999999, 0, -7.105427357601002e-15)"/>
  <rect x="130.29" y="187.495" width="79.585" height="8.02" rx="4.01" fill="#E2E2E2" transform="matrix(0.9999999999999999, 0, 0, 0.9999999999999999, 0, -7.105427357601002e-15)"/>
  <path d="M 116.29 67.684 C 116.29 64.37 118.976 61.684 122.29 61.684 L 370.29 61.684 C 373.604 61.684 376.29 64.37 376.29 67.684 L 376.29 132.684 L 116.29 132.684 L 116.29 67.684 Z" fill="#FCECEF" transform="matrix(0.9999999999999999, 0, 0, 0.9999999999999999, 0, -7.105427357601002e-15)"/>
  <path d="M 233.832 116.85 C 233.033 116.85 232.355 116.57 231.796 116.011 C 231.237 115.452 230.957 114.773 230.957 113.975 L 230.957 93.179 C 230.957 92.38 231.237 91.701 231.796 91.142 C 232.355 90.583 233.033 90.304 233.832 90.304 L 237.186 90.304 L 237.186 85.704 C 237.186 83.18 238.073 81.032 239.846 79.259 C 241.618 77.486 243.767 76.6 246.29 76.6 C 248.814 76.6 250.962 77.486 252.735 79.259 C 254.508 81.032 255.394 83.18 255.394 85.704 L 255.394 90.304 L 258.749 90.304 C 259.547 90.304 260.226 90.583 260.785 91.142 C 261.344 91.701 261.624 92.38 261.624 93.179 L 261.624 113.975 C 261.624 114.773 261.344 115.452 260.785 116.011 C 260.226 116.57 259.547 116.85 258.749 116.85 L 233.832 116.85 Z M 233.832 113.975 L 258.749 113.975 L 258.749 93.179 L 233.832 93.179 L 233.832 113.975 Z M 246.29 107.266 C 247.313 107.266 248.183 106.915 248.902 106.212 C 249.621 105.509 249.98 104.663 249.98 103.673 C 249.98 102.714 249.621 101.844 248.902 101.061 C 248.183 100.278 247.313 99.887 246.29 99.887 C 245.268 99.887 244.398 100.278 243.679 101.061 C 242.96 101.844 242.601 102.714 242.601 103.673 C 242.601 104.663 242.96 105.509 243.679 106.212 C 244.398 106.915 245.268 107.266 246.29 107.266 Z M 240.061 90.304 L 252.519 90.304 L 252.519 85.704 C 252.519 83.979 251.913 82.509 250.699 81.295 C 249.485 80.082 248.015 79.475 246.29 79.475 C 244.565 79.475 243.096 80.082 241.882 81.295 C 240.668 82.509 240.061 83.979 240.061 85.704 L 240.061 90.304 Z M 233.832 113.975 L 233.832 93.179 L 233.832 113.975 Z" fill="#F19FA9" transform="matrix(0.9999999999999999, 0, 0, 0.9999999999999999, 0, -7.105427357601002e-15)"/>
  <text style="fill: rgb(51, 51, 51); font-family: Arial, sans-serif; font-size: 29px; white-space: pre;" transform="matrix(0.46257600188255305, 0, 0, 0.4491150081157684, 71.06017303466794, 85.70719146728516)" x="126.837" y="162.177">Error unauthorized</text>
</svg>