<svg width="283" height="174" viewBox="0 0 283 174" fill="none" xmlns="http://www.w3.org/2000/svg">
<rect x="56.5723" y="27.7246" width="79.5849" height="13.5513" rx="6.16937" fill="#EBEBEB"/>
<rect x="151.581" y="27.7246" width="79.5849" height="13.5513" rx="6.16937" fill="#E2E2E2"/>
<g filter="url(#filter0_d_1537_45910)">
<rect x="20" y="3" width="260" height="147" rx="6.16937" fill="white"/>
</g>
<path d="M34.5048 100V90.5455H38.0502C38.7766 90.5455 39.3859 90.6809 39.8784 90.9517C40.3739 91.2225 40.7478 91.5949 41.0002 92.0689C41.2556 92.5398 41.3833 93.0753 41.3833 93.6754C41.3833 94.2817 41.2556 94.8203 41.0002 95.2912C40.7447 95.7621 40.3677 96.1329 39.8691 96.4038C39.3706 96.6715 38.7566 96.8054 38.0272 96.8054H35.6774V95.3974H37.7963C38.2211 95.3974 38.5688 95.3235 38.8397 95.1758C39.1105 95.0281 39.3105 94.8249 39.4398 94.5664C39.5721 94.3079 39.6383 94.0109 39.6383 93.6754C39.6383 93.34 39.5721 93.0445 39.4398 92.7891C39.3105 92.5336 39.109 92.3351 38.835 92.1935C38.5642 92.0489 38.2149 91.9766 37.7871 91.9766H36.2175V100H34.5048ZM42.7971 100V92.9091H44.4175V94.0909H44.4914C44.6206 93.6816 44.8422 93.3661 45.1562 93.1445C45.4732 92.9199 45.8348 92.8075 46.241 92.8075C46.3334 92.8075 46.4365 92.8121 46.5503 92.8214C46.6673 92.8275 46.7642 92.8383 46.8412 92.8537V94.391C46.7704 94.3664 46.6581 94.3448 46.5042 94.3263C46.3534 94.3048 46.2072 94.294 46.0656 94.294C45.7609 94.294 45.487 94.3602 45.2439 94.4925C45.0038 94.6218 44.8145 94.8018 44.676 95.0327C44.5376 95.2635 44.4683 95.5297 44.4683 95.8313V100H42.7971ZM50.7525 100.138C50.06 100.138 49.4599 99.9862 48.9521 99.6815C48.4442 99.3768 48.0503 98.9505 47.7702 98.4027C47.4933 97.8549 47.3548 97.2147 47.3548 96.4822C47.3548 95.7498 47.4933 95.1081 47.7702 94.5572C48.0503 94.0063 48.4442 93.5785 48.9521 93.2738C49.4599 92.9691 50.06 92.8168 50.7525 92.8168C51.445 92.8168 52.0451 92.9691 52.5529 93.2738C53.0607 93.5785 53.4531 94.0063 53.7301 94.5572C54.0102 95.1081 54.1502 95.7498 54.1502 96.4822C54.1502 97.2147 54.0102 97.8549 53.7301 98.4027C53.4531 98.9505 53.0607 99.3768 52.5529 99.6815C52.0451 99.9862 51.445 100.138 50.7525 100.138ZM50.7617 98.7997C51.1372 98.7997 51.4511 98.6966 51.7035 98.4904C51.9558 98.2811 52.1436 98.0011 52.2667 97.6502C52.3929 97.2994 52.456 96.9085 52.456 96.4776C52.456 96.0437 52.3929 95.6513 52.2667 95.3004C52.1436 94.9465 51.9558 94.6649 51.7035 94.4556C51.4511 94.2463 51.1372 94.1417 50.7617 94.1417C50.377 94.1417 50.0569 94.2463 49.8015 94.4556C49.5491 94.6649 49.3598 94.9465 49.2337 95.3004C49.1106 95.6513 49.049 96.0437 49.049 96.4776C49.049 96.9085 49.1106 97.2994 49.2337 97.6502C49.3598 98.0011 49.5491 98.2811 49.8015 98.4904C50.0569 98.6966 50.377 98.7997 50.7617 98.7997ZM55.5686 92.9091H57.2398V100.406C57.2398 100.917 57.1428 101.339 56.949 101.671C56.7551 102.004 56.475 102.251 56.1088 102.414C55.7425 102.578 55.2978 102.659 54.7746 102.659C54.713 102.659 54.6561 102.658 54.6038 102.654C54.5515 102.654 54.4945 102.653 54.433 102.65V101.288C54.4791 101.291 54.5207 101.293 54.5576 101.293C54.5945 101.296 54.633 101.297 54.673 101.297C54.9931 101.297 55.2224 101.219 55.3609 101.062C55.4994 100.908 55.5686 100.682 55.5686 100.383V92.9091ZM56.3996 91.9027C56.1318 91.9027 55.9026 91.815 55.7117 91.6396C55.524 91.4611 55.4301 91.2472 55.4301 90.9979C55.4301 90.7455 55.524 90.5316 55.7117 90.3562C55.9026 90.1777 56.1318 90.0884 56.3996 90.0884C56.6643 90.0884 56.8905 90.1777 57.0782 90.3562C57.269 90.5316 57.3644 90.7455 57.3644 90.9979C57.3644 91.2472 57.269 91.4611 57.0782 91.6396C56.8905 91.815 56.6643 91.9027 56.3996 91.9027ZM62.0975 100.138C61.3865 100.138 60.7725 99.9908 60.2555 99.6953C59.7415 99.3968 59.3461 98.9751 59.0691 98.4304C58.7921 97.8826 58.6536 97.2378 58.6536 96.4961C58.6536 95.7667 58.7921 95.1265 59.0691 94.5756C59.3491 94.0217 59.74 93.5908 60.2417 93.283C60.7433 92.9722 61.3327 92.8168 62.0098 92.8168C62.4468 92.8168 62.8592 92.8875 63.247 93.0291C63.6378 93.1676 63.9825 93.383 64.2811 93.6754C64.5827 93.9678 64.8197 94.3402 64.992 94.7926C65.1644 95.242 65.2505 95.7775 65.2505 96.3991V96.9116H59.4384V95.7852H63.6486C63.6455 95.4651 63.5763 95.1804 63.4409 94.9311C63.3055 94.6787 63.1162 94.4802 62.873 94.3356C62.633 94.1909 62.3529 94.1186 62.0328 94.1186C61.6912 94.1186 61.3912 94.2017 61.1326 94.3679C60.8741 94.531 60.6725 94.7464 60.5279 95.0142C60.3863 95.2789 60.314 95.5697 60.3109 95.8867V96.87C60.3109 97.2824 60.3863 97.6364 60.5371 97.9318C60.6879 98.2242 60.8987 98.4489 61.1696 98.6058C61.4404 98.7597 61.7574 98.8366 62.1206 98.8366C62.3637 98.8366 62.5837 98.8028 62.7807 98.7351C62.9777 98.6643 63.1485 98.5612 63.2931 98.4258C63.4378 98.2904 63.5471 98.1226 63.6209 97.9226L65.1813 98.098C65.0828 98.5104 64.8951 98.8705 64.6181 99.1783C64.3442 99.483 63.9933 99.7199 63.5655 99.8892C63.1377 100.055 62.6484 100.138 62.0975 100.138ZM69.7574 100.138C69.0495 100.138 68.4417 99.9831 67.9339 99.6722C67.4291 99.3614 67.0398 98.9321 66.7659 98.3842C66.4951 97.8333 66.3596 97.1993 66.3596 96.4822C66.3596 95.7621 66.4981 95.1265 66.7751 94.5756C67.0521 94.0217 67.443 93.5908 67.9477 93.283C68.4555 92.9722 69.0557 92.8168 69.7481 92.8168C70.3237 92.8168 70.833 92.9229 71.2762 93.1353C71.7224 93.3446 72.0779 93.6416 72.3426 94.0263C72.6073 94.4079 72.7581 94.8542 72.795 95.3651H71.1977C71.1331 95.0234 70.9792 94.7388 70.7361 94.511C70.496 94.2802 70.1744 94.1648 69.7712 94.1648C69.4296 94.1648 69.1295 94.2571 68.871 94.4418C68.6125 94.6233 68.4109 94.8849 68.2662 95.2266C68.1247 95.5682 68.0539 95.9775 68.0539 96.4545C68.0539 96.9377 68.1247 97.3532 68.2662 97.701C68.4078 98.0457 68.6063 98.3119 68.8618 98.4996C69.1203 98.6843 69.4234 98.7766 69.7712 98.7766C70.0174 98.7766 70.2375 98.7305 70.4314 98.6381C70.6283 98.5427 70.793 98.4058 70.9253 98.2273C71.0577 98.0488 71.1485 97.8318 71.1977 97.5763H72.795C72.755 98.078 72.6073 98.5227 72.3518 98.9105C72.0964 99.2952 71.7486 99.5968 71.3085 99.8153C70.8684 100.031 70.3514 100.138 69.7574 100.138ZM77.7081 92.9091V94.2017H73.6317V92.9091H77.7081ZM74.6381 91.2102H76.3093V97.8672C76.3093 98.0919 76.3432 98.2642 76.4109 98.3842C76.4817 98.5012 76.574 98.5812 76.6879 98.6243C76.8017 98.6674 76.9279 98.6889 77.0664 98.6889C77.171 98.6889 77.2665 98.6812 77.3526 98.6658C77.4419 98.6504 77.5096 98.6366 77.5558 98.6243L77.8374 99.9308C77.7481 99.9615 77.6204 99.9954 77.4542 100.032C77.2911 100.069 77.091 100.091 76.854 100.097C76.4355 100.109 76.0585 100.046 75.723 99.9077C75.3875 99.7661 75.1213 99.5476 74.9244 99.2521C74.7305 98.9567 74.6351 98.5874 74.6381 98.1442V91.2102ZM87.5423 93.1445C87.4993 92.7414 87.3177 92.4274 86.9976 92.2028C86.6806 91.9781 86.2682 91.8658 85.7604 91.8658C85.4034 91.8658 85.0972 91.9196 84.8417 92.0273C84.5863 92.1351 84.3908 92.2812 84.2554 92.4659C84.12 92.6506 84.0508 92.8614 84.0477 93.0984C84.0477 93.2953 84.0923 93.4661 84.1816 93.6108C84.2739 93.7554 84.3985 93.8786 84.5555 93.9801C84.7124 94.0786 84.8863 94.1617 85.0771 94.2294C85.268 94.2971 85.4603 94.354 85.6542 94.4002L86.5406 94.6218C86.8976 94.7049 87.2407 94.8172 87.57 94.9588C87.9024 95.1004 88.1994 95.2789 88.461 95.4943C88.7257 95.7098 88.935 95.9698 89.0889 96.2745C89.2427 96.5792 89.3197 96.9362 89.3197 97.3455C89.3197 97.8995 89.1781 98.3873 88.895 98.8089C88.6118 99.2275 88.2025 99.5553 87.667 99.7923C87.1346 100.026 86.4898 100.143 85.7327 100.143C84.9971 100.143 84.3585 100.029 83.8169 99.8015C83.2783 99.5737 82.8566 99.2414 82.5519 98.8043C82.2503 98.3673 82.0872 97.8349 82.0626 97.207H83.7476C83.7722 97.5363 83.8738 97.8103 84.0523 98.0288C84.2308 98.2473 84.4632 98.4104 84.7494 98.5181C85.0387 98.6258 85.3618 98.6797 85.7188 98.6797C86.0912 98.6797 86.4175 98.6243 86.6975 98.5135C86.9807 98.3996 87.2023 98.2427 87.3623 98.0426C87.5223 97.8395 87.6039 97.6025 87.607 97.3317C87.6039 97.0855 87.5316 96.8823 87.39 96.7223C87.2484 96.5592 87.0499 96.4238 86.7945 96.3161C86.5421 96.2053 86.2467 96.1068 85.9081 96.0206L84.8325 95.7436C84.0538 95.5436 83.4383 95.2404 82.9859 94.8342C82.5365 94.4248 82.3119 93.8816 82.3119 93.2045C82.3119 92.6475 82.4627 92.1597 82.7643 91.7411C83.069 91.3226 83.4829 90.9979 84.0061 90.767C84.5293 90.5331 85.1218 90.4162 85.7835 90.4162C86.4544 90.4162 87.0422 90.5331 87.547 90.767C88.0548 90.9979 88.4533 91.3195 88.7426 91.7319C89.0319 92.1412 89.1812 92.6121 89.1904 93.1445H87.5423ZM93.9119 100.138C93.201 100.138 92.587 99.9908 92.07 99.6953C91.556 99.3968 91.1605 98.9751 90.8835 98.4304C90.6065 97.8826 90.468 97.2378 90.468 96.4961C90.468 95.7667 90.6065 95.1265 90.8835 94.5756C91.1636 94.0217 91.5545 93.5908 92.0561 93.283C92.5578 92.9722 93.1471 92.8168 93.8242 92.8168C94.2612 92.8168 94.6737 92.8875 95.0614 93.0291C95.4523 93.1676 95.797 93.383 96.0955 93.6754C96.3971 93.9678 96.6341 94.3402 96.8065 94.7926C96.9788 95.242 97.065 95.7775 97.065 96.3991V96.9116H91.2528V95.7852H95.4631C95.46 95.4651 95.3907 95.1804 95.2553 94.9311C95.1199 94.6787 94.9306 94.4802 94.6875 94.3356C94.4474 94.1909 94.1674 94.1186 93.8473 94.1186C93.5057 94.1186 93.2056 94.2017 92.9471 94.3679C92.6886 94.531 92.487 94.7464 92.3423 95.0142C92.2008 95.2789 92.1284 95.5697 92.1254 95.8867V96.87C92.1254 97.2824 92.2008 97.6364 92.3516 97.9318C92.5024 98.2242 92.7132 98.4489 92.984 98.6058C93.2549 98.7597 93.5719 98.8366 93.935 98.8366C94.1781 98.8366 94.3982 98.8028 94.5952 98.7351C94.7921 98.6643 94.9629 98.5612 95.1076 98.4258C95.2522 98.2904 95.3615 98.1226 95.4354 97.9226L96.9957 98.098C96.8973 98.5104 96.7095 98.8705 96.4325 99.1783C96.1586 99.483 95.8078 99.7199 95.38 99.8892C94.9522 100.055 94.4628 100.138 93.9119 100.138ZM102.02 92.9091V94.2017H97.9433V92.9091H102.02ZM98.9497 91.2102H100.621V97.8672C100.621 98.0919 100.655 98.2642 100.722 98.3842C100.793 98.5012 100.886 98.5812 100.999 98.6243C101.113 98.6674 101.239 98.6889 101.378 98.6889C101.483 98.6889 101.578 98.6812 101.664 98.6658C101.753 98.6504 101.821 98.6366 101.867 98.6243L102.149 99.9308C102.06 99.9615 101.932 99.9954 101.766 100.032C101.603 100.069 101.403 100.091 101.166 100.097C100.747 100.109 100.37 100.046 100.035 99.9077C99.6991 99.7661 99.4329 99.5476 99.2359 99.2521C99.042 98.9567 98.9466 98.5874 98.9497 98.1442V91.2102ZM106.958 92.9091V94.2017H102.882V92.9091H106.958ZM103.888 91.2102H105.559V97.8672C105.559 98.0919 105.593 98.2642 105.661 98.3842C105.732 98.5012 105.824 98.5812 105.938 98.6243C106.052 98.6674 106.178 98.6889 106.316 98.6889C106.421 98.6889 106.516 98.6812 106.603 98.6658C106.692 98.6504 106.76 98.6366 106.806 98.6243L107.087 99.9308C106.998 99.9615 106.87 99.9954 106.704 100.032C106.541 100.069 106.341 100.091 106.104 100.097C105.685 100.109 105.308 100.046 104.973 99.9077C104.638 99.7661 104.371 99.5476 104.174 99.2521C103.98 98.9567 103.885 98.5874 103.888 98.1442V91.2102ZM108.356 100V92.9091H110.027V100H108.356ZM109.196 91.9027C108.931 91.9027 108.704 91.815 108.513 91.6396C108.322 91.4611 108.226 91.2472 108.226 90.9979C108.226 90.7455 108.322 90.5316 108.513 90.3562C108.704 90.1777 108.931 90.0884 109.196 90.0884C109.464 90.0884 109.691 90.1777 109.879 90.3562C110.07 90.5316 110.165 90.7455 110.165 90.9979C110.165 91.2472 110.07 91.4611 109.879 91.6396C109.691 91.815 109.464 91.9027 109.196 91.9027ZM113.417 95.8452V100H111.745V92.9091H113.343V94.114H113.426C113.589 93.717 113.849 93.4015 114.206 93.1676C114.566 92.9337 115.011 92.8168 115.54 92.8168C116.029 92.8168 116.456 92.9214 116.819 93.1307C117.185 93.34 117.468 93.6431 117.668 94.0401C117.871 94.4371 117.971 94.9188 117.968 95.4851V100H116.297V95.7436C116.297 95.2696 116.174 94.8988 115.928 94.631C115.685 94.3633 115.348 94.2294 114.917 94.2294C114.625 94.2294 114.364 94.294 114.137 94.4233C113.912 94.5495 113.735 94.7326 113.606 94.9727C113.48 95.2127 113.417 95.5036 113.417 95.8452ZM122.751 102.807C122.151 102.807 121.635 102.725 121.205 102.562C120.774 102.402 120.427 102.187 120.166 101.916C119.904 101.645 119.723 101.345 119.621 101.016L121.126 100.651C121.194 100.789 121.292 100.926 121.422 101.062C121.551 101.2 121.725 101.314 121.943 101.403C122.165 101.496 122.443 101.542 122.779 101.542C123.253 101.542 123.645 101.426 123.956 101.196C124.267 100.968 124.422 100.592 124.422 100.069V98.7259H124.339C124.253 98.8982 124.127 99.0752 123.961 99.2567C123.797 99.4383 123.58 99.5907 123.31 99.7138C123.042 99.8369 122.705 99.8984 122.299 99.8984C121.754 99.8984 121.26 99.7707 120.817 99.5153C120.377 99.2567 120.026 98.872 119.764 98.3612C119.506 97.8472 119.376 97.204 119.376 96.4315C119.376 95.6528 119.506 94.9957 119.764 94.4602C120.026 93.9216 120.378 93.5138 120.821 93.2369C121.265 92.9568 121.759 92.8168 122.303 92.8168C122.719 92.8168 123.06 92.8875 123.328 93.0291C123.599 93.1676 123.814 93.3353 123.974 93.5323C124.134 93.7262 124.256 93.9093 124.339 94.0817H124.431V92.9091H126.08V100.115C126.08 100.722 125.935 101.223 125.646 101.62C125.356 102.017 124.961 102.314 124.459 102.511C123.958 102.708 123.388 102.807 122.751 102.807ZM122.765 98.5874C123.119 98.5874 123.42 98.5012 123.67 98.3288C123.919 98.1565 124.108 97.9087 124.238 97.5856C124.367 97.2624 124.431 96.8746 124.431 96.4222C124.431 95.976 124.367 95.5851 124.238 95.2496C124.111 94.9142 123.924 94.6541 123.674 94.4695C123.428 94.2817 123.125 94.1879 122.765 94.1879C122.393 94.1879 122.082 94.2848 121.832 94.4787C121.583 94.6726 121.395 94.9388 121.269 95.2773C121.143 95.6128 121.08 95.9944 121.08 96.4222C121.08 96.8562 121.143 97.2363 121.269 97.5625C121.398 97.8857 121.588 98.138 121.837 98.3196C122.089 98.4981 122.399 98.5874 122.765 98.5874ZM133.397 94.7834L131.873 94.9496C131.83 94.7957 131.755 94.651 131.647 94.5156C131.542 94.3802 131.401 94.271 131.222 94.1879C131.044 94.1048 130.825 94.0632 130.567 94.0632C130.219 94.0632 129.927 94.1386 129.69 94.2894C129.456 94.4402 129.34 94.6357 129.343 94.8757C129.34 95.0819 129.416 95.2496 129.57 95.3789C129.727 95.5082 129.985 95.6143 130.345 95.6974L131.555 95.956C132.226 96.1006 132.724 96.3299 133.05 96.6438C133.38 96.9577 133.546 97.3686 133.549 97.8764C133.546 98.3227 133.415 98.7166 133.157 99.0582C132.901 99.3968 132.546 99.6615 132.09 99.8523C131.635 100.043 131.112 100.138 130.521 100.138C129.653 100.138 128.954 99.9569 128.425 99.5938C127.895 99.2275 127.58 98.7182 127.478 98.0657L129.108 97.9087C129.182 98.2288 129.339 98.4704 129.579 98.6335C129.819 98.7966 130.131 98.8782 130.516 98.8782C130.913 98.8782 131.232 98.7966 131.472 98.6335C131.715 98.4704 131.836 98.2688 131.836 98.0288C131.836 97.8256 131.758 97.6579 131.601 97.5256C131.447 97.3932 131.207 97.2917 130.881 97.2209L129.671 96.967C128.991 96.8254 128.488 96.5869 128.162 96.2514C127.835 95.9129 127.674 95.4851 127.677 94.968C127.674 94.531 127.792 94.1525 128.032 93.8324C128.275 93.5092 128.612 93.2599 129.043 93.0845C129.477 92.906 129.977 92.8168 130.544 92.8168C131.375 92.8168 132.029 92.9937 132.506 93.3477C132.986 93.7016 133.283 94.1802 133.397 94.7834Z" fill="black"/>
<rect x="34" y="112.811" width="232" height="8" rx="4" fill="#EBEBEB"/>
<rect x="34" y="128.811" width="79.5849" height="8.02018" rx="4.01009" fill="#E2E2E2"/>
<path d="M20 9C20 5.68629 22.6863 3 26 3H274C277.314 3 280 5.68629 280 9V74H20V9Z" fill="#FCECEF"/>
<path d="M137.542 58.166C136.743 58.166 136.065 57.8865 135.506 57.3275C134.947 56.7684 134.667 56.0896 134.667 55.291V34.4952C134.667 33.6966 134.947 33.0178 135.506 32.4587C136.065 31.8997 136.743 31.6202 137.542 31.6202H140.896V27.0202C140.896 24.4966 141.783 22.3483 143.556 20.5754C145.328 18.8025 147.477 17.916 150 17.916C152.524 17.916 154.672 18.8025 156.445 20.5754C158.218 22.3483 159.104 24.4966 159.104 27.0202V31.6202H162.459C163.257 31.6202 163.936 31.8997 164.495 32.4587C165.054 33.0178 165.334 33.6966 165.334 34.4952V55.291C165.334 56.0896 165.054 56.7684 164.495 57.3275C163.936 57.8865 163.257 58.166 162.459 58.166H137.542ZM137.542 55.291H162.459V34.4952H137.542V55.291ZM150 48.5827C151.023 48.5827 151.893 48.2313 152.612 47.5285C153.331 46.8257 153.69 45.9792 153.69 44.9889C153.69 44.0306 153.331 43.1601 152.612 42.3775C151.893 41.5948 151.023 41.2035 150 41.2035C148.978 41.2035 148.108 41.5948 147.389 42.3775C146.67 43.1601 146.311 44.0306 146.311 44.9889C146.311 45.9792 146.67 46.8257 147.389 47.5285C148.108 48.2313 148.978 48.5827 150 48.5827ZM143.771 31.6202H156.229V27.0202C156.229 25.2952 155.623 23.8257 154.409 22.6118C153.195 21.398 151.725 20.791 150 20.791C148.275 20.791 146.806 21.398 145.592 22.6118C144.378 23.8257 143.771 25.2952 143.771 27.0202V31.6202ZM137.542 55.291V34.4952V55.291Z" fill="#F19FA9"/>
<rect x="39.5723" y="48.7246" width="79.5849" height="13.5513" rx="6.16937" fill="#EBEBEB"/>
<rect x="134.581" y="48.7246" width="79.5849" height="13.5513" rx="6.16937" fill="#E2E2E2"/>
<g filter="url(#filter1_d_1537_45910)">
<rect x="3" y="24" width="260" height="147" rx="6.16937" fill="white"/>
</g>
<path d="M19.4945 121L16.8262 111.545H18.6681L20.3716 118.493H20.4593L22.2782 111.545H23.954L25.7775 118.498H25.8606L27.5641 111.545H29.4061L26.7377 121H25.0481L23.1554 114.366H23.0815L21.1841 121H19.4945ZM32.8892 121.138C32.1967 121.138 31.5966 120.986 31.0888 120.681C30.581 120.377 30.187 119.951 29.907 119.403C29.63 118.855 29.4915 118.215 29.4915 117.482C29.4915 116.75 29.63 116.108 29.907 115.557C30.187 115.006 30.581 114.578 31.0888 114.274C31.5966 113.969 32.1967 113.817 32.8892 113.817C33.5817 113.817 34.1818 113.969 34.6896 114.274C35.1974 114.578 35.5898 115.006 35.8668 115.557C36.1469 116.108 36.2869 116.75 36.2869 117.482C36.2869 118.215 36.1469 118.855 35.8668 119.403C35.5898 119.951 35.1974 120.377 34.6896 120.681C34.1818 120.986 33.5817 121.138 32.8892 121.138ZM32.8984 119.8C33.2739 119.8 33.5878 119.697 33.8402 119.49C34.0926 119.281 34.2803 119.001 34.4034 118.65C34.5296 118.299 34.5927 117.908 34.5927 117.478C34.5927 117.044 34.5296 116.651 34.4034 116.3C34.2803 115.946 34.0926 115.665 33.8402 115.456C33.5878 115.246 33.2739 115.142 32.8984 115.142C32.5137 115.142 32.1937 115.246 31.9382 115.456C31.6858 115.665 31.4966 115.946 31.3704 116.3C31.2473 116.651 31.1857 117.044 31.1857 117.478C31.1857 117.908 31.2473 118.299 31.3704 118.65C31.4966 119.001 31.6858 119.281 31.9382 119.49C32.1937 119.697 32.5137 119.8 32.8984 119.8ZM37.7053 121V113.909H39.3257V115.091H39.3996C39.5289 114.682 39.7504 114.366 40.0644 114.145C40.3814 113.92 40.743 113.808 41.1492 113.808C41.2416 113.808 41.3447 113.812 41.4585 113.821C41.5755 113.828 41.6724 113.838 41.7494 113.854V115.391C41.6786 115.366 41.5663 115.345 41.4124 115.326C41.2616 115.305 41.1154 115.294 40.9738 115.294C40.6691 115.294 40.3952 115.36 40.1521 115.493C39.912 115.622 39.7227 115.802 39.5843 116.033C39.4458 116.263 39.3765 116.53 39.3765 116.831V121H37.7053ZM44.3831 118.775L44.3785 116.757H44.6462L47.1945 113.909H49.1473L46.0127 117.399H45.6665L44.3831 118.775ZM42.8596 121V111.545H44.5308V121H42.8596ZM47.3099 121L45.0017 117.773L46.1281 116.596L49.3089 121H47.3099ZM55.8654 115.783L54.342 115.95C54.2989 115.796 54.2235 115.651 54.1158 115.516C54.0111 115.38 53.8696 115.271 53.6911 115.188C53.5125 115.105 53.294 115.063 53.0355 115.063C52.6877 115.063 52.3954 115.139 52.1584 115.289C51.9245 115.44 51.8091 115.636 51.8121 115.876C51.8091 116.082 51.8845 116.25 52.0384 116.379C52.1953 116.508 52.4538 116.614 52.8139 116.697L54.0234 116.956C54.6944 117.101 55.1929 117.33 55.5192 117.644C55.8485 117.958 56.0147 118.369 56.0178 118.876C56.0147 119.323 55.8839 119.717 55.6254 120.058C55.3699 120.397 55.0144 120.661 54.5589 120.852C54.1035 121.043 53.5803 121.138 52.9893 121.138C52.1214 121.138 51.4228 120.957 50.8935 120.594C50.3641 120.228 50.0487 119.718 49.9471 119.066L51.5767 118.909C51.6506 119.229 51.8075 119.47 52.0476 119.634C52.2876 119.797 52.6 119.878 52.9847 119.878C53.3817 119.878 53.7003 119.797 53.9403 119.634C54.1835 119.47 54.305 119.269 54.305 119.029C54.305 118.826 54.2266 118.658 54.0696 118.526C53.9157 118.393 53.6757 118.292 53.3494 118.221L52.1399 117.967C51.4598 117.825 50.9566 117.587 50.6303 117.251C50.3041 116.913 50.1425 116.485 50.1456 115.968C50.1425 115.531 50.261 115.152 50.5011 114.832C50.7442 114.509 51.0812 114.26 51.5121 114.085C51.946 113.906 52.4461 113.817 53.0124 113.817C53.8434 113.817 54.4974 113.994 54.9744 114.348C55.4545 114.702 55.7515 115.18 55.8654 115.783ZM57.3958 123.659V113.909H59.0392V115.082H59.1362C59.2224 114.909 59.3439 114.726 59.5009 114.532C59.6578 114.335 59.8702 114.168 60.138 114.029C60.4057 113.888 60.7473 113.817 61.1628 113.817C61.7106 113.817 62.2046 113.957 62.6447 114.237C63.0879 114.514 63.4387 114.925 63.6973 115.469C63.9589 116.011 64.0897 116.676 64.0897 117.464C64.0897 118.242 63.9619 118.904 63.7065 119.449C63.4511 119.994 63.1033 120.409 62.6632 120.695C62.2231 120.982 61.7245 121.125 61.1674 121.125C60.7612 121.125 60.4242 121.057 60.1564 120.922C59.8887 120.786 59.6732 120.623 59.5101 120.432C59.3501 120.238 59.2254 120.055 59.1362 119.883H59.0669V123.659H57.3958ZM59.0346 117.455C59.0346 117.913 59.0993 118.315 59.2285 118.659C59.3609 119.004 59.5501 119.273 59.7963 119.467C60.0456 119.658 60.3472 119.754 60.7012 119.754C61.0705 119.754 61.3798 119.655 61.6291 119.458C61.8784 119.258 62.0661 118.986 62.1923 118.641C62.3216 118.293 62.3862 117.898 62.3862 117.455C62.3862 117.014 62.3231 116.624 62.1969 116.282C62.0707 115.94 61.883 115.673 61.6337 115.479C61.3844 115.285 61.0736 115.188 60.7012 115.188C60.3442 115.188 60.041 115.282 59.7917 115.469C59.5424 115.657 59.3532 115.92 59.2239 116.259C59.0977 116.597 59.0346 116.996 59.0346 117.455ZM67.5613 121.143C67.1119 121.143 66.7072 121.063 66.3471 120.903C65.9901 120.74 65.707 120.5 65.4977 120.183C65.2915 119.866 65.1884 119.475 65.1884 119.01C65.1884 118.61 65.2623 118.279 65.41 118.018C65.5577 117.756 65.7593 117.547 66.0147 117.39C66.2702 117.233 66.5579 117.114 66.878 117.034C67.2012 116.951 67.5351 116.891 67.8798 116.854C68.2953 116.811 68.6323 116.773 68.8908 116.739C69.1493 116.702 69.3371 116.647 69.454 116.573C69.574 116.496 69.6341 116.377 69.6341 116.217V116.19C69.6341 115.842 69.531 115.573 69.3248 115.382C69.1185 115.191 68.8216 115.096 68.4338 115.096C68.0244 115.096 67.6998 115.185 67.4597 115.363C67.2227 115.542 67.0627 115.753 66.9796 115.996L65.4192 115.774C65.5423 115.343 65.7454 114.983 66.0286 114.694C66.3117 114.402 66.658 114.183 67.0673 114.038C67.4766 113.891 67.929 113.817 68.4245 113.817C68.7662 113.817 69.1062 113.857 69.4448 113.937C69.7833 114.017 70.0926 114.149 70.3727 114.334C70.6528 114.515 70.8774 114.763 71.0467 115.077C71.219 115.391 71.3052 115.783 71.3052 116.254V121H69.6987V120.026H69.6433C69.5417 120.223 69.3986 120.408 69.214 120.58C69.0324 120.749 68.8031 120.886 68.5261 120.991C68.2522 121.092 67.9306 121.143 67.5613 121.143ZM67.9952 119.915C68.3307 119.915 68.6215 119.849 68.8677 119.717C69.1139 119.581 69.3032 119.403 69.4355 119.181C69.571 118.96 69.6387 118.718 69.6387 118.456V117.621C69.5864 117.664 69.4971 117.704 69.3709 117.741C69.2478 117.778 69.1093 117.81 68.9554 117.838C68.8016 117.865 68.6492 117.89 68.4984 117.912C68.3476 117.933 68.2168 117.952 68.106 117.967C67.8567 118.001 67.6336 118.056 67.4366 118.133C67.2396 118.21 67.0842 118.318 66.9703 118.456C66.8565 118.592 66.7995 118.767 66.7995 118.983C66.7995 119.29 66.9119 119.523 67.1365 119.68C67.3612 119.837 67.6474 119.915 67.9952 119.915ZM76.0787 121.138C75.3708 121.138 74.763 120.983 74.2551 120.672C73.7504 120.361 73.3611 119.932 73.0872 119.384C72.8163 118.833 72.6809 118.199 72.6809 117.482C72.6809 116.762 72.8194 116.127 73.0964 115.576C73.3734 115.022 73.7643 114.591 74.269 114.283C74.7768 113.972 75.377 113.817 76.0694 113.817C76.6449 113.817 77.1543 113.923 77.5975 114.135C78.0437 114.345 78.3992 114.642 78.6639 115.026C78.9286 115.408 79.0794 115.854 79.1163 116.365H77.519C77.4544 116.023 77.3005 115.739 77.0574 115.511C76.8173 115.28 76.4957 115.165 76.0925 115.165C75.7509 115.165 75.4508 115.257 75.1923 115.442C74.9338 115.623 74.7322 115.885 74.5875 116.227C74.446 116.568 74.3752 116.978 74.3752 117.455C74.3752 117.938 74.446 118.353 74.5875 118.701C74.7291 119.046 74.9276 119.312 75.1831 119.5C75.4416 119.684 75.7447 119.777 76.0925 119.777C76.3387 119.777 76.5588 119.73 76.7527 119.638C76.9496 119.543 77.1143 119.406 77.2466 119.227C77.379 119.049 77.4698 118.832 77.519 118.576H79.1163C79.0763 119.078 78.9286 119.523 78.6731 119.911C78.4177 120.295 78.0699 120.597 77.6298 120.815C77.1897 121.031 76.6726 121.138 76.0787 121.138ZM83.6278 121.138C82.9168 121.138 82.3028 120.991 81.7858 120.695C81.2718 120.397 80.8763 119.975 80.5993 119.43C80.3224 118.883 80.1839 118.238 80.1839 117.496C80.1839 116.767 80.3224 116.127 80.5993 115.576C80.8794 115.022 81.2703 114.591 81.7719 114.283C82.2736 113.972 82.863 113.817 83.54 113.817C83.9771 113.817 84.3895 113.888 84.7773 114.029C85.1681 114.168 85.5128 114.383 85.8113 114.675C86.113 114.968 86.3499 115.34 86.5223 115.793C86.6946 116.242 86.7808 116.777 86.7808 117.399V117.912H80.9687V116.785H85.1789C85.1758 116.465 85.1066 116.18 84.9711 115.931C84.8357 115.679 84.6465 115.48 84.4033 115.336C84.1633 115.191 83.8832 115.119 83.5631 115.119C83.2215 115.119 82.9214 115.202 82.6629 115.368C82.4044 115.531 82.2028 115.746 82.0581 116.014C81.9166 116.279 81.8443 116.57 81.8412 116.887V117.87C81.8412 118.282 81.9166 118.636 82.0674 118.932C82.2182 119.224 82.429 119.449 82.6998 119.606C82.9707 119.76 83.2877 119.837 83.6508 119.837C83.894 119.837 84.114 119.803 84.311 119.735C84.508 119.664 84.6788 119.561 84.8234 119.426C84.9681 119.29 85.0773 119.123 85.1512 118.923L86.7116 119.098C86.6131 119.51 86.4253 119.871 86.1483 120.178C85.8744 120.483 85.5236 120.72 85.0958 120.889C84.668 121.055 84.1787 121.138 83.6278 121.138ZM96.6312 114.145C96.5881 113.741 96.4065 113.427 96.0865 113.203C95.7695 112.978 95.3571 112.866 94.8493 112.866C94.4922 112.866 94.186 112.92 93.9306 113.027C93.6751 113.135 93.4797 113.281 93.3443 113.466C93.2089 113.651 93.1396 113.861 93.1365 114.098C93.1365 114.295 93.1812 114.466 93.2704 114.611C93.3627 114.755 93.4874 114.879 93.6444 114.98C93.8013 115.079 93.9752 115.162 94.166 115.229C94.3568 115.297 94.5492 115.354 94.7431 115.4L95.6294 115.622C95.9864 115.705 96.3296 115.817 96.6589 115.959C96.9913 116.1 97.2883 116.279 97.5499 116.494C97.8146 116.71 98.0239 116.97 98.1777 117.275C98.3316 117.579 98.4086 117.936 98.4086 118.346C98.4086 118.9 98.267 119.387 97.9838 119.809C97.7007 120.228 97.2914 120.555 96.7559 120.792C96.2234 121.026 95.5787 121.143 94.8216 121.143C94.086 121.143 93.4474 121.029 92.9057 120.801C92.3671 120.574 91.9455 120.241 91.6408 119.804C91.3392 119.367 91.1761 118.835 91.1515 118.207H92.8365C92.8611 118.536 92.9627 118.81 93.1412 119.029C93.3197 119.247 93.552 119.41 93.8382 119.518C94.1275 119.626 94.4507 119.68 94.8077 119.68C95.1801 119.68 95.5063 119.624 95.7864 119.513C96.0695 119.4 96.2911 119.243 96.4512 119.043C96.6112 118.839 96.6928 118.603 96.6958 118.332C96.6928 118.085 96.6204 117.882 96.4789 117.722C96.3373 117.559 96.1388 117.424 95.8833 117.316C95.631 117.205 95.3355 117.107 94.997 117.021L93.9213 116.744C93.1427 116.544 92.5272 116.24 92.0748 115.834C91.6254 115.425 91.4007 114.882 91.4007 114.205C91.4007 113.647 91.5516 113.16 91.8532 112.741C92.1578 112.323 92.5718 111.998 93.095 111.767C93.6182 111.533 94.2106 111.416 94.8723 111.416C95.5433 111.416 96.1311 111.533 96.6358 111.767C97.1436 111.998 97.5422 112.319 97.8315 112.732C98.1208 113.141 98.2701 113.612 98.2793 114.145H96.6312ZM103.001 121.138C102.29 121.138 101.676 120.991 101.159 120.695C100.645 120.397 100.249 119.975 99.9724 119.43C99.6954 118.883 99.5569 118.238 99.5569 117.496C99.5569 116.767 99.6954 116.127 99.9724 115.576C100.252 115.022 100.643 114.591 101.145 114.283C101.647 113.972 102.236 113.817 102.913 113.817C103.35 113.817 103.763 113.888 104.15 114.029C104.541 114.168 104.886 114.383 105.184 114.675C105.486 114.968 105.723 115.34 105.895 115.793C106.068 116.242 106.154 116.777 106.154 117.399V117.912H100.342V116.785H104.552C104.549 116.465 104.48 116.18 104.344 115.931C104.209 115.679 104.02 115.48 103.776 115.336C103.536 115.191 103.256 115.119 102.936 115.119C102.595 115.119 102.294 115.202 102.036 115.368C101.777 115.531 101.576 115.746 101.431 116.014C101.29 116.279 101.217 116.57 101.214 116.887V117.87C101.214 118.282 101.29 118.636 101.44 118.932C101.591 119.224 101.802 119.449 102.073 119.606C102.344 119.76 102.661 119.837 103.024 119.837C103.267 119.837 103.487 119.803 103.684 119.735C103.881 119.664 104.052 119.561 104.196 119.426C104.341 119.29 104.45 119.123 104.524 118.923L106.085 119.098C105.986 119.51 105.798 119.871 105.521 120.178C105.247 120.483 104.897 120.72 104.469 120.889C104.041 121.055 103.552 121.138 103.001 121.138ZM111.108 113.909V115.202H107.032V113.909H111.108ZM108.039 112.21H109.71V118.867C109.71 119.092 109.744 119.264 109.811 119.384C109.882 119.501 109.974 119.581 110.088 119.624C110.202 119.667 110.328 119.689 110.467 119.689C110.571 119.689 110.667 119.681 110.753 119.666C110.842 119.65 110.91 119.637 110.956 119.624L111.238 120.931C111.148 120.962 111.021 120.995 110.855 121.032C110.691 121.069 110.491 121.091 110.254 121.097C109.836 121.109 109.459 121.046 109.123 120.908C108.788 120.766 108.522 120.548 108.325 120.252C108.131 119.957 108.035 119.587 108.039 119.144V112.21ZM116.047 113.909V115.202H111.971V113.909H116.047ZM112.977 112.21H114.648V118.867C114.648 119.092 114.682 119.264 114.75 119.384C114.821 119.501 114.913 119.581 115.027 119.624C115.141 119.667 115.267 119.689 115.405 119.689C115.51 119.689 115.605 119.681 115.691 119.666C115.781 119.65 115.848 119.637 115.895 119.624L116.176 120.931C116.087 120.962 115.959 120.995 115.793 121.032C115.63 121.069 115.43 121.091 115.193 121.097C114.774 121.109 114.397 121.046 114.062 120.908C113.726 120.766 113.46 120.548 113.263 120.252C113.069 119.957 112.974 119.587 112.977 119.144V112.21ZM117.445 121V113.909H119.116V121H117.445ZM118.285 112.903C118.02 112.903 117.792 112.815 117.602 112.64C117.411 112.461 117.315 112.247 117.315 111.998C117.315 111.746 117.411 111.532 117.602 111.356C117.792 111.178 118.02 111.088 118.285 111.088C118.553 111.088 118.78 111.178 118.968 111.356C119.159 111.532 119.254 111.746 119.254 111.998C119.254 112.247 119.159 112.461 118.968 112.64C118.78 112.815 118.553 112.903 118.285 112.903ZM122.505 116.845V121H120.834V113.909H122.432V115.114H122.515C122.678 114.717 122.938 114.402 123.295 114.168C123.655 113.934 124.1 113.817 124.629 113.817C125.118 113.817 125.545 113.921 125.908 114.131C126.274 114.34 126.557 114.643 126.757 115.04C126.96 115.437 127.06 115.919 127.057 116.485V121H125.386V116.744C125.386 116.27 125.263 115.899 125.017 115.631C124.774 115.363 124.437 115.229 124.006 115.229C123.713 115.229 123.453 115.294 123.226 115.423C123.001 115.549 122.824 115.733 122.695 115.973C122.569 116.213 122.505 116.504 122.505 116.845ZM131.84 123.807C131.24 123.807 130.724 123.725 130.293 123.562C129.863 123.402 129.516 123.187 129.255 122.916C128.993 122.645 128.812 122.345 128.71 122.016L130.215 121.651C130.283 121.789 130.381 121.926 130.51 122.062C130.64 122.2 130.814 122.314 131.032 122.403C131.254 122.496 131.532 122.542 131.868 122.542C132.342 122.542 132.734 122.426 133.045 122.196C133.356 121.968 133.511 121.592 133.511 121.069V119.726H133.428C133.342 119.898 133.216 120.075 133.049 120.257C132.886 120.438 132.669 120.591 132.399 120.714C132.131 120.837 131.794 120.898 131.388 120.898C130.843 120.898 130.349 120.771 129.906 120.515C129.466 120.257 129.115 119.872 128.853 119.361C128.595 118.847 128.465 118.204 128.465 117.431C128.465 116.653 128.595 115.996 128.853 115.46C129.115 114.922 129.467 114.514 129.91 114.237C130.353 113.957 130.847 113.817 131.392 113.817C131.808 113.817 132.149 113.888 132.417 114.029C132.688 114.168 132.903 114.335 133.063 114.532C133.223 114.726 133.345 114.909 133.428 115.082H133.52V113.909H135.168V121.115C135.168 121.722 135.024 122.223 134.734 122.62C134.445 123.017 134.05 123.314 133.548 123.511C133.046 123.708 132.477 123.807 131.84 123.807ZM131.854 119.587C132.208 119.587 132.509 119.501 132.759 119.329C133.008 119.156 133.197 118.909 133.326 118.586C133.456 118.262 133.52 117.875 133.52 117.422C133.52 116.976 133.456 116.585 133.326 116.25C133.2 115.914 133.013 115.654 132.763 115.469C132.517 115.282 132.214 115.188 131.854 115.188C131.481 115.188 131.171 115.285 130.921 115.479C130.672 115.673 130.484 115.939 130.358 116.277C130.232 116.613 130.169 116.994 130.169 117.422C130.169 117.856 130.232 118.236 130.358 118.562C130.487 118.886 130.677 119.138 130.926 119.32C131.178 119.498 131.488 119.587 131.854 119.587ZM142.486 115.783L140.962 115.95C140.919 115.796 140.844 115.651 140.736 115.516C140.631 115.38 140.49 115.271 140.311 115.188C140.133 115.105 139.914 115.063 139.656 115.063C139.308 115.063 139.015 115.139 138.778 115.289C138.545 115.44 138.429 115.636 138.432 115.876C138.429 116.082 138.505 116.25 138.658 116.379C138.815 116.508 139.074 116.614 139.434 116.697L140.644 116.956C141.314 117.101 141.813 117.33 142.139 117.644C142.469 117.958 142.635 118.369 142.638 118.876C142.635 119.323 142.504 119.717 142.245 120.058C141.99 120.397 141.635 120.661 141.179 120.852C140.724 121.043 140.2 121.138 139.609 121.138C138.742 121.138 138.043 120.957 137.514 120.594C136.984 120.228 136.669 119.718 136.567 119.066L138.197 118.909C138.271 119.229 138.428 119.47 138.668 119.634C138.908 119.797 139.22 119.878 139.605 119.878C140.002 119.878 140.32 119.797 140.56 119.634C140.804 119.47 140.925 119.269 140.925 119.029C140.925 118.826 140.847 118.658 140.69 118.526C140.536 118.393 140.296 118.292 139.97 118.221L138.76 117.967C138.08 117.825 137.577 117.587 137.25 117.251C136.924 116.913 136.763 116.485 136.766 115.968C136.763 115.531 136.881 115.152 137.121 114.832C137.364 114.509 137.701 114.26 138.132 114.085C138.566 113.906 139.066 113.817 139.633 113.817C140.464 113.817 141.118 113.994 141.595 114.348C142.075 114.702 142.372 115.18 142.486 115.783Z" fill="black"/>
<rect x="17" y="133.811" width="232" height="8" rx="4" fill="#EBEBEB"/>
<rect x="17" y="149.811" width="79.5849" height="8.02018" rx="4.01009" fill="#E2E2E2"/>
<path d="M3 30C3 26.6863 5.68629 24 9 24H257C260.314 24 263 26.6863 263 30V95H3V30Z" fill="#FCECEF"/>
<path d="M120.542 79.166C119.743 79.166 119.065 78.8865 118.506 78.3275C117.947 77.7684 117.667 77.0896 117.667 76.291V55.4952C117.667 54.6966 117.947 54.0178 118.506 53.4587C119.065 52.8997 119.743 52.6202 120.542 52.6202H123.896V48.0202C123.896 45.4966 124.783 43.3483 126.556 41.5754C128.328 39.8025 130.477 38.916 133 38.916C135.524 38.916 137.672 39.8025 139.445 41.5754C141.218 43.3483 142.104 45.4966 142.104 48.0202V52.6202H145.459C146.257 52.6202 146.936 52.8997 147.495 53.4587C148.054 54.0178 148.334 54.6966 148.334 55.4952V76.291C148.334 77.0896 148.054 77.7684 147.495 78.3275C146.936 78.8865 146.257 79.166 145.459 79.166H120.542ZM120.542 76.291H145.459V55.4952H120.542V76.291ZM133 69.5827C134.023 69.5827 134.893 69.2313 135.612 68.5285C136.331 67.8257 136.69 66.9792 136.69 65.9889C136.69 65.0306 136.331 64.1601 135.612 63.3775C134.893 62.5948 134.023 62.2035 133 62.2035C131.978 62.2035 131.108 62.5948 130.389 63.3775C129.67 64.1601 129.311 65.0306 129.311 65.9889C129.311 66.9792 129.67 67.8257 130.389 68.5285C131.108 69.2313 131.978 69.5827 133 69.5827ZM126.771 52.6202H139.229V48.0202C139.229 46.2952 138.623 44.8257 137.409 43.6118C136.195 42.398 134.725 41.791 133 41.791C131.275 41.791 129.806 42.398 128.592 43.6118C127.378 44.8257 126.771 46.2952 126.771 48.0202V52.6202ZM120.542 76.291V55.4952V76.291Z" fill="#F19FA9"/>
<defs>
<filter id="filter0_d_1537_45910" x="17.5323" y="0.532252" width="264.935" height="151.935" filterUnits="userSpaceOnUse" color-interpolation-filters="sRGB">
<feFlood flood-opacity="0" result="BackgroundImageFix"/>
<feColorMatrix in="SourceAlpha" type="matrix" values="0 0 0 0 0 0 0 0 0 0 0 0 0 0 0 0 0 0 127 0" result="hardAlpha"/>
<feOffset/>
<feGaussianBlur stdDeviation="1.23387"/>
<feComposite in2="hardAlpha" operator="out"/>
<feColorMatrix type="matrix" values="0 0 0 0 0 0 0 0 0 0 0 0 0 0 0 0 0 0 0.2 0"/>
<feBlend mode="normal" in2="BackgroundImageFix" result="effect1_dropShadow_1537_45910"/>
<feBlend mode="normal" in="SourceGraphic" in2="effect1_dropShadow_1537_45910" result="shape"/>
</filter>
<filter id="filter1_d_1537_45910" x="0.532252" y="21.5323" width="264.935" height="151.935" filterUnits="userSpaceOnUse" color-interpolation-filters="sRGB">
<feFlood flood-opacity="0" result="BackgroundImageFix"/>
<feColorMatrix in="SourceAlpha" type="matrix" values="0 0 0 0 0 0 0 0 0 0 0 0 0 0 0 0 0 0 127 0" result="hardAlpha"/>
<feOffset/>
<feGaussianBlur stdDeviation="1.23387"/>
<feComposite in2="hardAlpha" operator="out"/>
<feColorMatrix type="matrix" values="0 0 0 0 0 0 0 0 0 0 0 0 0 0 0 0 0 0 0.2 0"/>
<feBlend mode="normal" in2="BackgroundImageFix" result="effect1_dropShadow_1537_45910"/>
<feBlend mode="normal" in="SourceGraphic" in2="effect1_dropShadow_1537_45910" result="shape"/>
</filter>
</defs>
</svg>
