<svg width="450" height="180" viewBox="0 0 450 180" fill="none" xmlns="http://www.w3.org/2000/svg">
<rect x="240.942" y="81.5" width="93" height="93" rx="9.3" fill="#E9ECEF"/>
<path d="M269.261 154.757V102.58H277.133V127.497H277.77L299.655 102.58H309.565L288.521 126.07L309.641 154.757H300.164L283.298 131.446L277.133 138.528V154.757H269.261Z" fill="black"/>
<rect x="116.057" y="81.5" width="93" height="93" rx="9.3" fill="#E9ECEF"/>
<path d="M143.458 157.892C140.468 157.892 137.922 156.841 135.818 154.737C133.715 152.633 132.663 150.087 132.663 147.098C132.663 144.108 133.715 141.562 135.818 139.458C137.922 137.355 140.468 136.303 143.458 136.303H149.27V119.696H143.458C140.468 119.696 137.922 118.644 135.818 116.541C133.715 114.437 132.663 111.891 132.663 108.901C132.663 105.912 133.715 103.366 135.818 101.262C137.922 99.1585 140.468 98.1067 143.458 98.1067C146.447 98.1067 148.993 99.1585 151.097 101.262C153.201 103.366 154.252 105.912 154.252 108.901V114.714H170.86V108.901C170.86 105.912 171.911 103.366 174.015 101.262C176.118 99.1585 178.665 98.1067 181.654 98.1067C184.643 98.1067 187.19 99.1585 189.293 101.262C191.397 103.366 192.449 105.912 192.449 108.901C192.449 111.891 191.397 114.437 189.293 116.541C187.19 118.644 184.643 119.696 181.654 119.696H175.842V136.303H181.654C184.643 136.303 187.19 137.355 189.293 139.458C191.397 141.562 192.449 144.108 192.449 147.098C192.449 150.087 191.397 152.633 189.293 154.737C187.19 156.841 184.643 157.892 181.654 157.892C178.665 157.892 176.118 156.841 174.015 154.737C171.911 152.633 170.86 150.087 170.86 147.098V141.285H154.252V147.098C154.252 150.087 153.201 152.633 151.097 154.737C148.993 156.841 146.447 157.892 143.458 157.892V157.892ZM143.458 152.91C145.063 152.91 146.433 152.343 147.568 151.208C148.703 150.073 149.27 148.703 149.27 147.098V141.285H143.458C141.852 141.285 140.482 141.853 139.347 142.987C138.213 144.122 137.645 145.492 137.645 147.098C137.645 148.703 138.213 150.073 139.347 151.208C140.482 152.343 141.852 152.91 143.458 152.91ZM181.654 152.91C183.26 152.91 184.63 152.343 185.764 151.208C186.899 150.073 187.467 148.703 187.467 147.098C187.467 145.492 186.899 144.122 185.764 142.987C184.63 141.853 183.26 141.285 181.654 141.285H175.842V147.098C175.842 148.703 176.409 150.073 177.544 151.208C178.679 152.343 180.049 152.91 181.654 152.91ZM154.252 136.303H170.86V119.696H154.252V136.303ZM143.458 114.714H149.27V108.901C149.27 107.296 148.703 105.926 147.568 104.791C146.433 103.656 145.063 103.089 143.458 103.089C141.852 103.089 140.482 103.656 139.347 104.791C138.213 105.926 137.645 107.296 137.645 108.901C137.645 110.507 138.213 111.877 139.347 113.012C140.482 114.146 141.852 114.714 143.458 114.714ZM175.842 114.714H181.654C183.26 114.714 184.63 114.146 185.764 113.012C186.899 111.877 187.467 110.507 187.467 108.901C187.467 107.296 186.899 105.926 185.764 104.791C184.63 103.656 183.26 103.089 181.654 103.089C180.049 103.089 178.679 103.656 177.544 104.791C176.409 105.926 175.842 107.296 175.842 108.901V114.714Z" fill="black"/>
</svg>
