<svg width="506" height="202" viewBox="0 0 506 202" fill="none" xmlns="http://www.w3.org/2000/svg">
<g filter="url(#filter0_d_1478_40257)">
<rect x="6" y="6" width="494" height="190.203" rx="10.5668" fill="white"/>
<path d="M30.6342 66.3807V80.8342H28.884V66.3807H30.6342ZM41.5961 72.4218L40.0999 72.8453C40.0059 72.5959 39.8671 72.3536 39.6836 72.1184C39.5048 71.8784 39.2601 71.6808 38.9496 71.5256C38.6391 71.3703 38.2415 71.2927 37.7569 71.2927C37.0935 71.2927 36.5407 71.4456 36.0984 71.7514C35.6609 72.0525 35.4421 72.436 35.4421 72.9017C35.4421 73.3158 35.5926 73.6428 35.8938 73.8827C36.1949 74.1227 36.6654 74.3226 37.3052 74.4826L38.9143 74.8778C39.8835 75.1131 40.6057 75.473 41.0809 75.9576C41.5561 76.4375 41.7937 77.0562 41.7937 77.8137C41.7937 78.4347 41.6149 78.9899 41.2574 79.4792C40.9045 79.9685 40.4105 80.3543 39.7753 80.6366C39.1401 80.9189 38.4015 81.0601 37.5593 81.0601C36.4536 81.0601 35.5385 80.8201 34.814 80.3402C34.0894 79.8603 33.6307 79.1593 33.4378 78.2371L35.0186 77.8419C35.1692 78.4253 35.4538 78.8629 35.8726 79.1546C36.296 79.4463 36.8489 79.5921 37.5311 79.5921C38.3074 79.5921 38.9237 79.4275 39.3801 79.0981C39.8412 78.7641 40.0717 78.3641 40.0717 77.8984C40.0717 77.522 39.94 77.2067 39.6765 76.9527C39.413 76.6939 39.0084 76.501 38.4626 76.374L36.656 75.9505C35.6632 75.7153 34.934 75.3506 34.4682 74.8566C34.0071 74.3579 33.7765 73.7345 33.7765 72.9864C33.7765 72.3748 33.9483 71.8337 34.2917 71.3632C34.6399 70.8927 35.1127 70.5234 35.7103 70.2552C36.3125 69.987 36.9947 69.853 37.7569 69.853C38.8296 69.853 39.6718 70.0882 40.2834 70.5587C40.8998 71.0292 41.3373 71.6502 41.5961 72.4218ZM51.9793 72.4218L50.4831 72.8453C50.389 72.5959 50.2502 72.3536 50.0667 72.1184C49.8879 71.8784 49.6433 71.6808 49.3328 71.5256C49.0222 71.3703 48.6247 71.2927 48.1401 71.2927C47.4767 71.2927 46.9238 71.4456 46.4816 71.7514C46.044 72.0525 45.8252 72.436 45.8252 72.9017C45.8252 73.3158 45.9758 73.6428 46.2769 73.8827C46.578 74.1227 47.0485 74.3226 47.6884 74.4826L49.2975 74.8778C50.2667 75.1131 50.9889 75.473 51.4641 75.9576C51.9393 76.4375 52.1769 77.0562 52.1769 77.8137C52.1769 78.4347 51.9981 78.9899 51.6405 79.4792C51.2876 79.9685 50.7936 80.3543 50.1585 80.6366C49.5233 80.9189 48.7846 81.0601 47.9425 81.0601C46.8368 81.0601 45.9217 80.8201 45.1971 80.3402C44.4726 79.8603 44.0138 79.1593 43.8209 78.2371L45.4018 77.8419C45.5524 78.4253 45.837 78.8629 46.2557 79.1546C46.6792 79.4463 47.232 79.5921 47.9142 79.5921C48.6905 79.5921 49.3069 79.4275 49.7633 79.0981C50.2243 78.7641 50.4549 78.3641 50.4549 77.8984C50.4549 77.522 50.3231 77.2067 50.0597 76.9527C49.7962 76.6939 49.3916 76.501 48.8458 76.374L47.0391 75.9505C46.0464 75.7153 45.3171 75.3506 44.8513 74.8566C44.3902 74.3579 44.1597 73.7345 44.1597 72.9864C44.1597 72.3748 44.3314 71.8337 44.6749 71.3632C45.0231 70.8927 45.4959 70.5234 46.0934 70.2552C46.6957 69.987 47.3779 69.853 48.1401 69.853C49.2128 69.853 50.055 70.0882 50.6666 70.5587C51.2829 71.0292 51.7205 71.6502 51.9793 72.4218ZM61.5155 76.4022V69.9941H63.1811V80.8342H61.5155V78.9993H61.4026C61.1486 79.5498 60.7534 80.0179 60.217 80.4037C59.6806 80.7848 59.0031 80.9754 58.1845 80.9754C57.507 80.9754 56.9047 80.8272 56.3778 80.5308C55.8508 80.2296 55.4368 79.778 55.1357 79.1757C54.8346 78.5688 54.684 77.8043 54.684 76.8821V69.9941H56.3496V76.7692C56.3496 77.5596 56.5707 78.1901 57.0129 78.6606C57.4599 79.131 58.0292 79.3663 58.7208 79.3663C59.1349 79.3663 59.556 79.2604 59.9841 79.0487C60.417 78.837 60.7792 78.5124 61.0709 78.0748C61.3673 77.6372 61.5155 77.0797 61.5155 76.4022ZM70.7766 81.0601C69.7321 81.0601 68.8311 80.8295 68.0736 80.3684C67.3208 79.9027 66.7398 79.2534 66.3304 78.4206C65.9258 77.5831 65.7235 76.6092 65.7235 75.4989C65.7235 74.3885 65.9258 73.4099 66.3304 72.563C66.7398 71.7114 67.3091 71.048 68.0383 70.5728C68.7723 70.0929 69.6286 69.853 70.6072 69.853C71.1718 69.853 71.7293 69.9471 72.2798 70.1352C72.8303 70.3234 73.3314 70.6293 73.783 71.0527C74.2347 71.4714 74.5946 72.0266 74.8628 72.7182C75.131 73.4099 75.2651 74.2615 75.2651 75.273V75.9788H66.9091V74.5391H73.5713C73.5713 73.9274 73.449 73.3816 73.2043 72.9017C72.9644 72.4218 72.6209 72.0431 72.1739 71.7655C71.7317 71.4879 71.2094 71.3491 70.6072 71.3491C69.9438 71.3491 69.3698 71.5138 68.8852 71.8431C68.4053 72.1678 68.036 72.5912 67.7772 73.1135C67.5184 73.6357 67.389 74.1956 67.389 74.7931V75.7529C67.389 76.5716 67.5302 77.2655 67.8125 77.8348C68.0995 78.3994 68.4971 78.8299 69.0052 79.1263C69.5133 79.418 70.1038 79.5639 70.7766 79.5639C71.2141 79.5639 71.6094 79.5027 71.9622 79.3804C72.3198 79.2534 72.628 79.0652 72.8867 78.8158C73.1455 78.5618 73.3455 78.2465 73.4866 77.8701L75.0957 78.3218C74.9263 78.8676 74.6417 79.3475 74.2418 79.7615C73.8418 80.1708 73.3478 80.4908 72.7597 80.7213C72.1716 80.9471 71.5106 81.0601 70.7766 81.0601ZM87.4814 81.0601C86.578 81.0601 85.7806 80.8319 85.0889 80.3755C84.3973 79.9144 83.8563 79.2651 83.4657 78.4277C83.0752 77.5855 82.88 76.5904 82.88 75.4424C82.88 74.3038 83.0752 73.3158 83.4657 72.4783C83.8563 71.6408 84.3997 70.9939 85.096 70.5375C85.7923 70.0811 86.5969 69.853 87.5096 69.853C88.2154 69.853 88.7729 69.9706 89.1822 70.2058C89.5962 70.4364 89.9115 70.6998 90.1279 70.9962C90.349 71.288 90.5208 71.5279 90.6431 71.7161H90.7842V66.3807H92.4498V80.8342H90.8407V79.1687H90.6431C90.5208 79.3663 90.3467 79.6157 90.1208 79.9168C89.895 80.2132 89.5727 80.479 89.154 80.7143C88.7352 80.9448 88.1777 81.0601 87.4814 81.0601ZM87.7072 79.5639C88.3753 79.5639 88.9399 79.3898 89.401 79.0417C89.8621 78.6888 90.2126 78.2018 90.4525 77.5808C90.6925 76.955 90.8125 76.2328 90.8125 75.4142C90.8125 74.6049 90.6948 73.8968 90.4596 73.2899C90.2244 72.6783 89.8762 72.2031 89.4151 71.8643C88.954 71.5208 88.3847 71.3491 87.7072 71.3491C87.0015 71.3491 86.4134 71.5303 85.9429 71.8925C85.4771 72.2501 85.1266 72.7371 84.8913 73.3534C84.6608 73.9651 84.5455 74.652 84.5455 75.4142C84.5455 76.1858 84.6631 76.8868 84.8984 77.5173C85.1383 78.143 85.4912 78.6417 85.957 79.0134C86.4275 79.3804 87.0109 79.5639 87.7072 79.5639ZM100.276 81.0601C99.2319 81.0601 98.3309 80.8295 97.5734 80.3684C96.8207 79.9027 96.2396 79.2534 95.8303 78.4206C95.4256 77.5831 95.2233 76.6092 95.2233 75.4989C95.2233 74.3885 95.4256 73.4099 95.8303 72.563C96.2396 71.7114 96.8089 71.048 97.5381 70.5728C98.2721 70.0929 99.1284 69.853 100.107 69.853C100.672 69.853 101.229 69.9471 101.78 70.1352C102.33 70.3234 102.831 70.6293 103.283 71.0527C103.735 71.4714 104.094 72.0266 104.363 72.7182C104.631 73.4099 104.765 74.2615 104.765 75.273V75.9788H96.409V74.5391H103.071C103.071 73.9274 102.949 73.3816 102.704 72.9017C102.464 72.4218 102.121 72.0431 101.674 71.7655C101.232 71.4879 100.709 71.3491 100.107 71.3491C99.4436 71.3491 98.8696 71.5138 98.385 71.8431C97.9051 72.1678 97.5358 72.5912 97.277 73.1135C97.0183 73.6357 96.8889 74.1956 96.8889 74.7931V75.7529C96.8889 76.5716 97.03 77.2655 97.3123 77.8348C97.5993 78.3994 97.9969 78.8299 98.505 79.1263C99.0131 79.418 99.6036 79.5639 100.276 79.5639C100.714 79.5639 101.109 79.5027 101.462 79.3804C101.82 79.2534 102.128 79.0652 102.387 78.8158C102.645 78.5618 102.845 78.2465 102.986 77.8701L104.596 78.3218C104.426 78.8676 104.141 79.3475 103.742 79.7615C103.342 80.1708 102.848 80.4908 102.26 80.7213C101.671 80.9471 101.01 81.0601 100.276 81.0601ZM112.013 69.9941V71.4056H106.395V69.9941H112.013ZM108.032 67.397H109.698V77.729C109.698 78.1995 109.766 78.5523 109.903 78.7876C110.044 79.0181 110.223 79.1734 110.439 79.2534C110.66 79.3287 110.893 79.3663 111.138 79.3663C111.321 79.3663 111.472 79.3569 111.589 79.3381C111.707 79.3145 111.801 79.2957 111.872 79.2816L112.21 80.7778C112.098 80.8201 111.94 80.8625 111.738 80.9048C111.535 80.9519 111.279 80.9754 110.968 80.9754C110.498 80.9754 110.037 80.8742 109.585 80.6719C109.138 80.4696 108.766 80.1614 108.47 79.7474C108.178 79.3334 108.032 78.8111 108.032 78.1807V67.397ZM117.708 81.0883C117.021 81.0883 116.398 80.9589 115.838 80.7001C115.278 80.4367 114.833 80.0579 114.504 79.5639C114.175 79.0652 114.01 78.463 114.01 77.7572C114.01 77.1362 114.132 76.6327 114.377 76.2469C114.622 75.8564 114.949 75.5506 115.358 75.3295C115.767 75.1083 116.219 74.9437 116.713 74.8355C117.212 74.7225 117.713 74.6331 118.216 74.5673C118.875 74.4826 119.409 74.4191 119.818 74.3767C120.232 74.3297 120.533 74.2521 120.722 74.1438C120.915 74.0356 121.011 73.8474 121.011 73.5792V73.5228C121.011 72.8265 120.82 72.2854 120.439 71.8996C120.063 71.5138 119.491 71.3209 118.724 71.3209C117.929 71.3209 117.306 71.495 116.854 71.8431C116.403 72.1913 116.085 72.563 115.901 72.9582L114.321 72.3936C114.603 71.7349 114.979 71.2221 115.45 70.8551C115.925 70.4834 116.443 70.2246 117.002 70.0788C117.567 69.9282 118.122 69.853 118.668 69.853C119.016 69.853 119.416 69.8953 119.868 69.98C120.324 70.06 120.764 70.227 121.187 70.4811C121.616 70.7351 121.971 71.1186 122.253 71.6314C122.535 72.1442 122.677 72.8312 122.677 73.6922V80.8342H121.011V79.3663H120.926C120.813 79.6015 120.625 79.8533 120.362 80.1214C120.098 80.3896 119.748 80.6178 119.31 80.806C118.873 80.9942 118.339 81.0883 117.708 81.0883ZM117.962 79.5921C118.621 79.5921 119.176 79.4627 119.628 79.204C120.084 78.9452 120.428 78.6112 120.658 78.2018C120.893 77.7925 121.011 77.362 121.011 76.9103V75.3859C120.94 75.4706 120.785 75.5483 120.545 75.6188C120.31 75.6847 120.037 75.7435 119.727 75.7953C119.421 75.8423 119.122 75.8847 118.83 75.9223C118.543 75.9552 118.31 75.9835 118.132 76.007C117.699 76.0634 117.294 76.1552 116.918 76.2822C116.546 76.4046 116.245 76.5904 116.014 76.8398C115.789 77.0844 115.676 77.4185 115.676 77.8419C115.676 78.4206 115.89 78.8582 116.318 79.1546C116.751 79.4463 117.299 79.5921 117.962 79.5921ZM125.716 80.8342V69.9941H127.382V80.8342H125.716ZM126.563 68.1874C126.239 68.1874 125.959 68.0768 125.724 67.8557C125.493 67.6346 125.378 67.3688 125.378 67.0582C125.378 66.7477 125.493 66.4819 125.724 66.2608C125.959 66.0396 126.239 65.9291 126.563 65.9291C126.888 65.9291 127.166 66.0396 127.396 66.2608C127.631 66.4819 127.749 66.7477 127.749 67.0582C127.749 67.3688 127.631 67.6346 127.396 67.8557C127.166 68.0768 126.888 68.1874 126.563 68.1874ZM132.098 66.3807V80.8342H130.433V66.3807H132.098ZM143.928 81.0883C143.241 81.0883 142.618 80.9589 142.058 80.7001C141.498 80.4367 141.053 80.0579 140.724 79.5639C140.395 79.0652 140.23 78.463 140.23 77.7572C140.23 77.1362 140.352 76.6327 140.597 76.2469C140.842 75.8564 141.169 75.5506 141.578 75.3295C141.987 75.1083 142.439 74.9437 142.933 74.8355C143.432 74.7225 143.933 74.6331 144.436 74.5673C145.095 74.4826 145.629 74.4191 146.038 74.3767C146.452 74.3297 146.753 74.2521 146.942 74.1438C147.134 74.0356 147.231 73.8474 147.231 73.5792V73.5228C147.231 72.8265 147.04 72.2854 146.659 71.8996C146.283 71.5138 145.711 71.3209 144.944 71.3209C144.149 71.3209 143.526 71.495 143.074 71.8431C142.622 72.1913 142.305 72.563 142.121 72.9582L140.54 72.3936C140.823 71.7349 141.199 71.2221 141.67 70.8551C142.145 70.4834 142.662 70.2246 143.222 70.0788C143.787 69.9282 144.342 69.853 144.888 69.853C145.236 69.853 145.636 69.8953 146.088 69.98C146.544 70.06 146.984 70.227 147.407 70.4811C147.835 70.7351 148.191 71.1186 148.473 71.6314C148.755 72.1442 148.896 72.8312 148.896 73.6922V80.8342H147.231V79.3663H147.146C147.033 79.6015 146.845 79.8533 146.582 80.1214C146.318 80.3896 145.968 80.6178 145.53 80.806C145.092 80.9942 144.558 81.0883 143.928 81.0883ZM144.182 79.5921C144.841 79.5921 145.396 79.4627 145.848 79.204C146.304 78.9452 146.647 78.6112 146.878 78.2018C147.113 77.7925 147.231 77.362 147.231 76.9103V75.3859C147.16 75.4706 147.005 75.5483 146.765 75.6188C146.53 75.6847 146.257 75.7435 145.946 75.7953C145.641 75.8423 145.342 75.8847 145.05 75.9223C144.763 75.9552 144.53 75.9835 144.351 76.007C143.919 76.0634 143.514 76.1552 143.138 76.2822C142.766 76.4046 142.465 76.5904 142.234 76.8398C142.008 77.0844 141.896 77.4185 141.896 77.8419C141.896 78.4206 142.11 78.8582 142.538 79.1546C142.971 79.4463 143.519 79.5921 144.182 79.5921ZM156.34 81.0601C155.324 81.0601 154.449 80.8201 153.715 80.3402C152.981 79.8603 152.416 79.1993 152.021 78.3571C151.626 77.5149 151.428 76.5528 151.428 75.4706C151.428 74.3697 151.631 73.3981 152.035 72.5559C152.445 71.709 153.014 71.048 153.743 70.5728C154.477 70.0929 155.333 69.853 156.312 69.853C157.074 69.853 157.761 69.9941 158.373 70.2764C158.984 70.5587 159.485 70.9539 159.876 71.462C160.266 71.9702 160.509 72.563 160.603 73.2405H158.937C158.81 72.7465 158.528 72.3089 158.09 71.9278C157.658 71.542 157.074 71.3491 156.34 71.3491C155.691 71.3491 155.122 71.5185 154.632 71.8572C154.148 72.1913 153.769 72.6641 153.496 73.2758C153.228 73.8827 153.094 74.5955 153.094 75.4142C153.094 76.2516 153.226 76.9809 153.489 77.602C153.757 78.223 154.134 78.7053 154.618 79.0487C155.107 79.3922 155.681 79.5639 156.34 79.5639C156.773 79.5639 157.166 79.4886 157.519 79.3381C157.872 79.1875 158.17 78.9711 158.415 78.6888C158.66 78.4065 158.834 78.0677 158.937 77.6725H160.603C160.509 78.3124 160.276 78.8887 159.904 79.4016C159.537 79.9097 159.05 80.3143 158.443 80.6154C157.841 80.9119 157.14 81.0601 156.34 81.0601ZM167.752 69.9941V71.4056H162.134V69.9941H167.752ZM163.772 67.397H165.437V77.729C165.437 78.1995 165.505 78.5523 165.642 78.7876C165.783 79.0181 165.962 79.1734 166.178 79.2534C166.399 79.3287 166.632 79.3663 166.877 79.3663C167.06 79.3663 167.211 79.3569 167.329 79.3381C167.446 79.3145 167.54 79.2957 167.611 79.2816L167.95 80.7778C167.837 80.8201 167.679 80.8625 167.477 80.9048C167.274 80.9519 167.018 80.9754 166.707 80.9754C166.237 80.9754 165.776 80.8742 165.324 80.6719C164.877 80.4696 164.506 80.1614 164.209 79.7474C163.917 79.3334 163.772 78.8111 163.772 78.1807V67.397ZM170.257 80.8342V69.9941H171.923V80.8342H170.257ZM171.104 68.1874C170.78 68.1874 170.5 68.0768 170.264 67.8557C170.034 67.6346 169.919 67.3688 169.919 67.0582C169.919 66.7477 170.034 66.4819 170.264 66.2608C170.5 66.0396 170.78 65.9291 171.104 65.9291C171.429 65.9291 171.706 66.0396 171.937 66.2608C172.172 66.4819 172.29 66.7477 172.29 67.0582C172.29 67.3688 172.172 67.6346 171.937 67.8557C171.706 68.0768 171.429 68.1874 171.104 68.1874ZM183.837 69.9941L179.829 80.8342H178.135L174.127 69.9941H175.933L178.926 78.6323H179.038L182.031 69.9941H183.837ZM186.036 80.8342V69.9941H187.701V80.8342H186.036ZM186.883 68.1874C186.558 68.1874 186.278 68.0768 186.043 67.8557C185.812 67.6346 185.697 67.3688 185.697 67.0582C185.697 66.7477 185.812 66.4819 186.043 66.2608C186.278 66.0396 186.558 65.9291 186.883 65.9291C187.207 65.9291 187.485 66.0396 187.716 66.2608C187.951 66.4819 188.068 66.7477 188.068 67.0582C188.068 67.3688 187.951 67.6346 187.716 67.8557C187.485 68.0768 187.207 68.1874 186.883 68.1874ZM195.466 69.9941V71.4056H189.849V69.9941H195.466ZM191.486 67.397H193.151V77.729C193.151 78.1995 193.22 78.5523 193.356 78.7876C193.497 79.0181 193.676 79.1734 193.892 79.2534C194.114 79.3287 194.346 79.3663 194.591 79.3663C194.775 79.3663 194.925 79.3569 195.043 79.3381C195.16 79.3145 195.255 79.2957 195.325 79.2816L195.664 80.7778C195.551 80.8201 195.393 80.8625 195.191 80.9048C194.989 80.9519 194.732 80.9754 194.422 80.9754C193.951 80.9754 193.49 80.8742 193.039 80.6719C192.592 80.4696 192.22 80.1614 191.923 79.7474C191.632 79.3334 191.486 78.8111 191.486 78.1807V67.397ZM197.972 80.8342V69.9941H199.637V80.8342H197.972ZM198.819 68.1874C198.494 68.1874 198.214 68.0768 197.979 67.8557C197.748 67.6346 197.633 67.3688 197.633 67.0582C197.633 66.7477 197.748 66.4819 197.979 66.2608C198.214 66.0396 198.494 65.9291 198.819 65.9291C199.143 65.9291 199.421 66.0396 199.651 66.2608C199.887 66.4819 200.004 66.7477 200.004 67.0582C200.004 67.3688 199.887 67.6346 199.651 67.8557C199.421 68.0768 199.143 68.1874 198.819 68.1874ZM207.233 81.0601C206.188 81.0601 205.287 80.8295 204.53 80.3684C203.777 79.9027 203.196 79.2534 202.787 78.4206C202.382 77.5831 202.18 76.6092 202.18 75.4989C202.18 74.3885 202.382 73.4099 202.787 72.563C203.196 71.7114 203.765 71.048 204.494 70.5728C205.228 70.0929 206.085 69.853 207.063 69.853C207.628 69.853 208.185 69.9471 208.736 70.1352C209.286 70.3234 209.787 70.6293 210.239 71.0527C210.691 71.4714 211.051 72.0266 211.319 72.7182C211.587 73.4099 211.721 74.2615 211.721 75.273V75.9788H203.365V74.5391H210.027C210.027 73.9274 209.905 73.3816 209.66 72.9017C209.42 72.4218 209.077 72.0431 208.63 71.7655C208.188 71.4879 207.666 71.3491 207.063 71.3491C206.4 71.3491 205.826 71.5138 205.341 71.8431C204.861 72.1678 204.492 72.5912 204.233 73.1135C203.975 73.6357 203.845 74.1956 203.845 74.7931V75.7529C203.845 76.5716 203.986 77.2655 204.269 77.8348C204.556 78.3994 204.953 78.8299 205.461 79.1263C205.969 79.418 206.56 79.5639 207.233 79.5639C207.67 79.5639 208.065 79.5027 208.418 79.3804C208.776 79.2534 209.084 79.0652 209.343 78.8158C209.602 78.5618 209.802 78.2465 209.943 77.8701L211.552 78.3218C211.382 78.8676 211.098 79.3475 210.698 79.7615C210.298 80.1708 209.804 80.4908 209.216 80.7213C208.628 80.9471 207.967 81.0601 207.233 81.0601ZM221.933 72.4218L220.437 72.8453C220.343 72.5959 220.204 72.3536 220.021 72.1184C219.842 71.8784 219.597 71.6808 219.287 71.5256C218.976 71.3703 218.579 71.2927 218.094 71.2927C217.431 71.2927 216.878 71.4456 216.435 71.7514C215.998 72.0525 215.779 72.436 215.779 72.9017C215.779 73.3158 215.93 73.6428 216.231 73.8827C216.532 74.1227 217.002 74.3226 217.642 74.4826L219.251 74.8778C220.221 75.1131 220.943 75.473 221.418 75.9576C221.893 76.4375 222.131 77.0562 222.131 77.8137C222.131 78.4347 221.952 78.9899 221.594 79.4792C221.242 79.9685 220.748 80.3543 220.112 80.6366C219.477 80.9189 218.739 81.0601 217.896 81.0601C216.791 81.0601 215.876 80.8201 215.151 80.3402C214.426 79.8603 213.968 79.1593 213.775 78.2371L215.356 77.8419C215.506 78.4253 215.791 78.8629 216.21 79.1546C216.633 79.4463 217.186 79.5921 217.868 79.5921C218.644 79.5921 219.261 79.4275 219.717 79.0981C220.178 78.7641 220.409 78.3641 220.409 77.8984C220.409 77.522 220.277 77.2067 220.014 76.9527C219.75 76.6939 219.345 76.501 218.8 76.374L216.993 75.9505C216 75.7153 215.271 75.3506 214.805 74.8566C214.344 74.3579 214.114 73.7345 214.114 72.9864C214.114 72.3748 214.285 71.8337 214.629 71.3632C214.977 70.8927 215.45 70.5234 216.047 70.2552C216.65 69.987 217.332 69.853 218.094 69.853C219.167 69.853 220.009 70.0882 220.621 70.5587C221.237 71.0292 221.674 71.6502 221.933 72.4218ZM233.417 81.0883C232.73 81.0883 232.107 80.9589 231.547 80.7001C230.987 80.4367 230.543 80.0579 230.213 79.5639C229.884 79.0652 229.719 78.463 229.719 77.7572C229.719 77.1362 229.842 76.6327 230.086 76.2469C230.331 75.8564 230.658 75.5506 231.067 75.3295C231.477 75.1083 231.928 74.9437 232.422 74.8355C232.921 74.7225 233.422 74.6331 233.925 74.5673C234.584 74.4826 235.118 74.4191 235.527 74.3767C235.941 74.3297 236.243 74.2521 236.431 74.1438C236.624 74.0356 236.72 73.8474 236.72 73.5792V73.5228C236.72 72.8265 236.53 72.2854 236.148 71.8996C235.772 71.5138 235.2 71.3209 234.434 71.3209C233.638 71.3209 233.015 71.495 232.563 71.8431C232.112 72.1913 231.794 72.563 231.611 72.9582L230.03 72.3936C230.312 71.7349 230.688 71.2221 231.159 70.8551C231.634 70.4834 232.152 70.2246 232.712 70.0788C233.276 69.9282 233.831 69.853 234.377 69.853C234.725 69.853 235.125 69.8953 235.577 69.98C236.033 70.06 236.473 70.227 236.897 70.4811C237.325 70.7351 237.68 71.1186 237.962 71.6314C238.245 72.1442 238.386 72.8312 238.386 73.6922V80.8342H236.72V79.3663H236.635C236.523 79.6015 236.334 79.8533 236.071 80.1214C235.807 80.3896 235.457 80.6178 235.019 80.806C234.582 80.9942 234.048 81.0883 233.417 81.0883ZM233.671 79.5921C234.33 79.5921 234.885 79.4627 235.337 79.204C235.793 78.9452 236.137 78.6112 236.367 78.2018C236.603 77.7925 236.72 77.362 236.72 76.9103V75.3859C236.65 75.4706 236.494 75.5483 236.254 75.6188C236.019 75.6847 235.746 75.7435 235.436 75.7953C235.13 75.8423 234.831 75.8847 234.539 75.9223C234.252 75.9552 234.02 75.9835 233.841 76.007C233.408 76.0634 233.003 76.1552 232.627 76.2822C232.255 76.4046 231.954 76.5904 231.724 76.8398C231.498 77.0844 231.385 77.4185 231.385 77.8419C231.385 78.4206 231.599 78.8582 232.027 79.1546C232.46 79.4463 233.008 79.5921 233.671 79.5921ZM243.091 74.3132V80.8342H241.426V69.9941H243.035V71.6879H243.176C243.43 71.1374 243.816 70.6951 244.333 70.3611C244.851 70.0223 245.519 69.853 246.338 69.853C247.072 69.853 247.714 70.0035 248.264 70.3046C248.815 70.601 249.243 71.0527 249.549 71.6596C249.854 72.2619 250.007 73.0241 250.007 73.9462V80.8342H248.342V74.0591C248.342 73.2076 248.121 72.5442 247.678 72.069C247.236 71.5891 246.629 71.3491 245.858 71.3491C245.326 71.3491 244.851 71.4644 244.432 71.6949C244.018 71.9255 243.691 72.2619 243.451 72.7041C243.211 73.1464 243.091 73.6828 243.091 74.3132ZM257.144 81.0601C256.241 81.0601 255.443 80.8319 254.752 80.3755C254.06 79.9144 253.519 79.2651 253.129 78.4277C252.738 77.5855 252.543 76.5904 252.543 75.4424C252.543 74.3038 252.738 73.3158 253.129 72.4783C253.519 71.6408 254.062 70.9939 254.759 70.5375C255.455 70.0811 256.26 69.853 257.172 69.853C257.878 69.853 258.436 69.9706 258.845 70.2058C259.259 70.4364 259.574 70.6998 259.791 70.9962C260.012 71.288 260.184 71.5279 260.306 71.7161H260.447V66.3807H262.113V80.8342H260.503V79.1687H260.306C260.184 79.3663 260.009 79.6157 259.784 79.9168C259.558 80.2132 259.236 80.479 258.817 80.7143C258.398 80.9448 257.841 81.0601 257.144 81.0601ZM257.37 79.5639C258.038 79.5639 258.603 79.3898 259.064 79.0417C259.525 78.6888 259.875 78.2018 260.115 77.5808C260.355 76.955 260.475 76.2328 260.475 75.4142C260.475 74.6049 260.358 73.8968 260.122 73.2899C259.887 72.6783 259.539 72.2031 259.078 71.8643C258.617 71.5208 258.048 71.3491 257.37 71.3491C256.664 71.3491 256.076 71.5303 255.606 71.8925C255.14 72.2501 254.789 72.7371 254.554 73.3534C254.324 73.9651 254.208 74.652 254.208 75.4142C254.208 76.1858 254.326 76.8868 254.561 77.5173C254.801 78.143 255.154 78.6417 255.62 79.0134C256.09 79.3804 256.674 79.5639 257.37 79.5639ZM275.387 81.0601C274.371 81.0601 273.496 80.8201 272.762 80.3402C272.028 79.8603 271.464 79.1993 271.068 78.3571C270.673 77.5149 270.476 76.5528 270.476 75.4706C270.476 74.3697 270.678 73.3981 271.082 72.5559C271.492 71.709 272.061 71.048 272.79 70.5728C273.524 70.0929 274.381 69.853 275.359 69.853C276.121 69.853 276.808 69.9941 277.42 70.2764C278.032 70.5587 278.533 70.9539 278.923 71.462C279.314 71.9702 279.556 72.563 279.65 73.2405H277.985C277.858 72.7465 277.575 72.3089 277.138 71.9278C276.705 71.542 276.121 71.3491 275.387 71.3491C274.738 71.3491 274.169 71.5185 273.68 71.8572C273.195 72.1913 272.816 72.6641 272.543 73.2758C272.275 73.8827 272.141 74.5955 272.141 75.4142C272.141 76.2516 272.273 76.9809 272.536 77.602C272.804 78.223 273.181 78.7053 273.665 79.0487C274.155 79.3922 274.729 79.5639 275.387 79.5639C275.82 79.5639 276.213 79.4886 276.566 79.3381C276.919 79.1875 277.218 78.9711 277.462 78.6888C277.707 78.4065 277.881 78.0677 277.985 77.6725H279.65C279.556 78.3124 279.323 78.8887 278.951 79.4016C278.584 79.9097 278.098 80.3143 277.491 80.6154C276.888 80.9119 276.187 81.0601 275.387 81.0601ZM286.489 81.0601C285.51 81.0601 284.651 80.8272 283.913 80.3614C283.179 79.8956 282.605 79.244 282.191 78.4065C281.781 77.569 281.577 76.5904 281.577 75.4706C281.577 74.3414 281.781 73.3558 282.191 72.5136C282.605 71.6714 283.179 71.0174 283.913 70.5516C284.651 70.0858 285.51 69.853 286.489 69.853C287.467 69.853 288.324 70.0858 289.058 70.5516C289.796 71.0174 290.37 71.6714 290.78 72.5136C291.194 73.3558 291.401 74.3414 291.401 75.4706C291.401 76.5904 291.194 77.569 290.78 78.4065C290.37 79.244 289.796 79.8956 289.058 80.3614C288.324 80.8272 287.467 81.0601 286.489 81.0601ZM286.489 79.5639C287.232 79.5639 287.844 79.3734 288.324 78.9923C288.804 78.6112 289.159 78.1101 289.389 77.489C289.62 76.868 289.735 76.1952 289.735 75.4706C289.735 74.7461 289.62 74.0709 289.389 73.4452C289.159 72.8194 288.804 72.3136 288.324 71.9278C287.844 71.542 287.232 71.3491 286.489 71.3491C285.745 71.3491 285.134 71.542 284.654 71.9278C284.174 72.3136 283.819 72.8194 283.588 73.4452C283.358 74.0709 283.242 74.7461 283.242 75.4706C283.242 76.1952 283.358 76.868 283.588 77.489C283.819 78.1101 284.174 78.6112 284.654 78.9923C285.134 79.3734 285.745 79.5639 286.489 79.5639ZM293.943 80.8342V69.9941H295.552V71.6879H295.693C295.919 71.1092 296.284 70.6598 296.787 70.3399C297.291 70.0153 297.895 69.853 298.601 69.853C299.316 69.853 299.911 70.0153 300.386 70.3399C300.866 70.6598 301.24 71.1092 301.509 71.6879H301.622C301.899 71.128 302.315 70.6834 302.871 70.354C303.426 70.02 304.092 69.853 304.868 69.853C305.837 69.853 306.63 70.1564 307.246 70.7634C307.863 71.3656 308.171 72.3042 308.171 73.5792V80.8342H306.505V73.5792C306.505 72.7794 306.286 72.2078 305.849 71.8643C305.411 71.5208 304.896 71.3491 304.303 71.3491C303.541 71.3491 302.951 71.5797 302.532 72.0407C302.113 72.4971 301.904 73.0758 301.904 73.7769V80.8342H300.21V73.4099C300.21 72.7935 300.01 72.2972 299.61 71.9208C299.21 71.5397 298.695 71.3491 298.065 71.3491C297.632 71.3491 297.227 71.4644 296.851 71.6949C296.479 71.9255 296.178 72.2454 295.947 72.6547C295.722 73.0594 295.609 73.5275 295.609 74.0591V80.8342H293.943ZM311.216 80.8342V69.9941H312.825V71.6879H312.966C313.192 71.1092 313.557 70.6598 314.06 70.3399C314.564 70.0153 315.168 69.853 315.874 69.853C316.589 69.853 317.184 70.0153 317.659 70.3399C318.139 70.6598 318.513 71.1092 318.782 71.6879H318.894C319.172 71.128 319.588 70.6834 320.144 70.354C320.699 70.02 321.365 69.853 322.141 69.853C323.11 69.853 323.903 70.1564 324.519 70.7634C325.136 71.3656 325.444 72.3042 325.444 73.5792V80.8342H323.778V73.5792C323.778 72.7794 323.559 72.2078 323.122 71.8643C322.684 71.5208 322.169 71.3491 321.576 71.3491C320.814 71.3491 320.224 71.5797 319.805 72.0407C319.386 72.4971 319.177 73.0758 319.177 73.7769V80.8342H317.483V73.4099C317.483 72.7935 317.283 72.2972 316.883 71.9208C316.483 71.5397 315.968 71.3491 315.338 71.3491C314.905 71.3491 314.5 71.4644 314.124 71.6949C313.752 71.9255 313.451 72.2454 313.22 72.6547C312.994 73.0594 312.882 73.5275 312.882 74.0591V80.8342H311.216ZM333.034 81.0601C331.989 81.0601 331.088 80.8295 330.331 80.3684C329.578 79.9027 328.997 79.2534 328.588 78.4206C328.183 77.5831 327.981 76.6092 327.981 75.4989C327.981 74.3885 328.183 73.4099 328.588 72.563C328.997 71.7114 329.566 71.048 330.296 70.5728C331.03 70.0929 331.886 69.853 332.865 69.853C333.429 69.853 333.987 69.9471 334.537 70.1352C335.088 70.3234 335.589 70.6293 336.04 71.0527C336.492 71.4714 336.852 72.0266 337.12 72.7182C337.388 73.4099 337.522 74.2615 337.522 75.273V75.9788H329.166V74.5391H335.829C335.829 73.9274 335.706 73.3816 335.462 72.9017C335.222 72.4218 334.878 72.0431 334.431 71.7655C333.989 71.4879 333.467 71.3491 332.865 71.3491C332.201 71.3491 331.627 71.5138 331.143 71.8431C330.663 72.1678 330.293 72.5912 330.034 73.1135C329.776 73.6357 329.646 74.1956 329.646 74.7931V75.7529C329.646 76.5716 329.787 77.2655 330.07 77.8348C330.357 78.3994 330.754 78.8299 331.262 79.1263C331.771 79.418 332.361 79.5639 333.034 79.5639C333.471 79.5639 333.867 79.5027 334.22 79.3804C334.577 79.2534 334.885 79.0652 335.144 78.8158C335.403 78.5618 335.603 78.2465 335.744 77.8701L337.353 78.3218C337.184 78.8676 336.899 79.3475 336.499 79.7615C336.099 80.1708 335.605 80.4908 335.017 80.7213C334.429 80.9471 333.768 81.0601 333.034 81.0601ZM341.722 74.3132V80.8342H340.056V69.9941H341.665V71.6879H341.806C342.06 71.1374 342.446 70.6951 342.964 70.3611C343.481 70.0223 344.149 69.853 344.968 69.853C345.702 69.853 346.344 70.0035 346.895 70.3046C347.445 70.601 347.873 71.0527 348.179 71.6596C348.485 72.2619 348.638 73.0241 348.638 73.9462V80.8342H346.972V74.0591C346.972 73.2076 346.751 72.5442 346.309 72.069C345.867 71.5891 345.26 71.3491 344.488 71.3491C343.956 71.3491 343.481 71.4644 343.062 71.6949C342.648 71.9255 342.321 72.2619 342.081 72.7041C341.841 73.1464 341.722 73.6828 341.722 74.3132ZM356.396 69.9941V71.4056H350.778V69.9941H356.396ZM352.415 67.397H354.081V77.729C354.081 78.1995 354.149 78.5523 354.285 78.7876C354.427 79.0181 354.605 79.1734 354.822 79.2534C355.043 79.3287 355.276 79.3663 355.52 79.3663C355.704 79.3663 355.854 79.3569 355.972 79.3381C356.09 79.3145 356.184 79.2957 356.254 79.2816L356.593 80.7778C356.48 80.8201 356.323 80.8625 356.12 80.9048C355.918 80.9519 355.662 80.9754 355.351 80.9754C354.881 80.9754 354.419 80.8742 353.968 80.6719C353.521 80.4696 353.149 80.1614 352.853 79.7474C352.561 79.3334 352.415 78.8111 352.415 78.1807V67.397ZM366.385 72.4218L364.889 72.8453C364.795 72.5959 364.656 72.3536 364.473 72.1184C364.294 71.8784 364.049 71.6808 363.739 71.5256C363.428 71.3703 363.031 71.2927 362.546 71.2927C361.883 71.2927 361.33 71.4456 360.888 71.7514C360.45 72.0525 360.231 72.436 360.231 72.9017C360.231 73.3158 360.382 73.6428 360.683 73.8827C360.984 74.1227 361.454 74.3226 362.094 74.4826L363.703 74.8778C364.673 75.1131 365.395 75.473 365.87 75.9576C366.345 76.4375 366.583 77.0562 366.583 77.8137C366.583 78.4347 366.404 78.9899 366.046 79.4792C365.694 79.9685 365.2 80.3543 364.564 80.6366C363.929 80.9189 363.191 81.0601 362.348 81.0601C361.243 81.0601 360.328 80.8201 359.603 80.3402C358.879 79.8603 358.42 79.1593 358.227 78.2371L359.808 77.8419C359.958 78.4253 360.243 78.8629 360.662 79.1546C361.085 79.4463 361.638 79.5921 362.32 79.5921C363.097 79.5921 363.713 79.4275 364.169 79.0981C364.63 78.7641 364.861 78.3641 364.861 77.8984C364.861 77.522 364.729 77.2067 364.466 76.9527C364.202 76.6939 363.798 76.501 363.252 76.374L361.445 75.9505C360.452 75.7153 359.723 75.3506 359.257 74.8566C358.796 74.3579 358.566 73.7345 358.566 72.9864C358.566 72.3748 358.737 71.8337 359.081 71.3632C359.429 70.8927 359.902 70.5234 360.499 70.2552C361.102 69.987 361.784 69.853 362.546 69.853C363.619 69.853 364.461 70.0882 365.073 70.5587C365.689 71.0292 366.126 71.6502 366.385 72.4218ZM375.498 80.8342H373.663L378.97 66.3807H380.777L386.084 80.8342H384.249L379.93 68.6673H379.817L375.498 80.8342ZM376.176 75.1883H383.572V76.741H376.176V75.1883ZM388.335 80.8342V66.3807H393.219C394.353 66.3807 395.28 66.5854 396 66.9947C396.724 67.3993 397.261 67.9475 397.609 68.6391C397.957 69.3307 398.131 70.1023 398.131 70.9539C398.131 71.8055 397.957 72.5795 397.609 73.2758C397.265 73.9721 396.734 74.5273 396.014 74.9413C395.294 75.3506 394.372 75.5553 393.247 75.5553H389.747V74.0027H393.191C393.967 74.0027 394.591 73.8686 395.061 73.6004C395.532 73.3322 395.873 72.97 396.084 72.5136C396.301 72.0525 396.409 71.5326 396.409 70.9539C396.409 70.3752 396.301 69.8577 396.084 69.4013C395.873 68.9449 395.529 68.5873 395.054 68.3286C394.579 68.0651 393.948 67.9333 393.163 67.9333H390.086V80.8342H388.335ZM402.701 66.3807V80.8342H400.951V66.3807H402.701ZM33.2031 111.06C32.1586 111.06 31.2576 110.83 30.5002 110.368C29.7474 109.903 29.1663 109.253 28.757 108.421C28.3524 107.583 28.1501 106.609 28.1501 105.499C28.1501 104.388 28.3524 103.41 28.757 102.563C29.1663 101.711 29.7356 101.048 30.4649 100.573C31.1988 100.093 32.0551 99.853 33.0338 99.853C33.5983 99.853 34.1559 99.9471 34.7064 100.135C35.2568 100.323 35.7579 100.629 36.2096 101.053C36.6612 101.471 37.0212 102.027 37.2894 102.718C37.5575 103.41 37.6916 104.261 37.6916 105.273V105.979H29.3357V104.539H35.9979C35.9979 103.927 35.8755 103.382 35.6309 102.902C35.3909 102.422 35.0475 102.043 34.6005 101.766C34.1582 101.488 33.636 101.349 33.0338 101.349C32.3704 101.349 31.7964 101.514 31.3118 101.843C30.8319 102.168 30.4625 102.591 30.2037 103.113C29.945 103.636 29.8156 104.196 29.8156 104.793V105.753C29.8156 106.572 29.9567 107.266 30.239 107.835C30.526 108.399 30.9236 108.83 31.4317 109.126C31.9399 109.418 32.5303 109.564 33.2031 109.564C33.6407 109.564 34.0359 109.503 34.3888 109.38C34.7463 109.253 35.0545 109.065 35.3133 108.816C35.5721 108.562 35.772 108.247 35.9132 107.87L37.5222 108.322C37.3529 108.868 37.0682 109.347 36.6683 109.762C36.2684 110.171 35.7744 110.491 35.1863 110.721C34.5981 110.947 33.9371 111.06 33.2031 111.06ZM41.8908 104.313V110.834H40.2252V99.9941H41.8343V101.688H41.9754C42.2295 101.137 42.6153 100.695 43.1329 100.361C43.6504 100.022 44.3185 99.853 45.1371 99.853C45.8711 99.853 46.5133 100.004 47.0638 100.305C47.6143 100.601 48.0424 101.053 48.3483 101.66C48.6541 102.262 48.807 103.024 48.807 103.946V110.834H47.1414V104.059C47.1414 103.208 46.9203 102.544 46.478 102.069C46.0358 101.589 45.4289 101.349 44.6572 101.349C44.1256 101.349 43.6504 101.464 43.2317 101.695C42.8176 101.925 42.4906 102.262 42.2507 102.704C42.0107 103.146 41.8908 103.683 41.8908 104.313ZM55.9438 111.06C55.0404 111.06 54.2429 110.832 53.5513 110.375C52.8597 109.914 52.3186 109.265 51.9281 108.428C51.5376 107.585 51.3423 106.59 51.3423 105.442C51.3423 104.304 51.5376 103.316 51.9281 102.478C52.3186 101.641 52.862 100.994 53.5584 100.538C54.2547 100.081 55.0592 99.853 55.972 99.853C56.6777 99.853 57.2353 99.9706 57.6446 100.206C58.0586 100.436 58.3738 100.7 58.5903 100.996C58.8114 101.288 58.9831 101.528 59.1055 101.716H59.2466V96.3807H60.9121V110.834H59.3031V109.169H59.1055C58.9831 109.366 58.809 109.616 58.5832 109.917C58.3574 110.213 58.0351 110.479 57.6163 110.714C57.1976 110.945 56.6401 111.06 55.9438 111.06ZM56.1696 109.564C56.8377 109.564 57.4023 109.39 57.8634 109.042C58.3244 108.689 58.675 108.202 58.9149 107.581C59.1549 106.955 59.2748 106.233 59.2748 105.414C59.2748 104.605 59.1572 103.897 58.922 103.29C58.6867 102.678 58.3386 102.203 57.8775 101.864C57.4164 101.521 56.8471 101.349 56.1696 101.349C55.4639 101.349 54.8757 101.53 54.4052 101.893C53.9395 102.25 53.5889 102.737 53.3537 103.353C53.1232 103.965 53.0079 104.652 53.0079 105.414C53.0079 106.186 53.1255 106.887 53.3608 107.517C53.6007 108.143 53.9536 108.642 54.4194 109.013C54.8899 109.38 55.4733 109.564 56.1696 109.564ZM64.1938 114.899V99.9941H65.8029V101.716H66.0005C66.1228 101.528 66.2922 101.288 66.5086 100.996C66.7298 100.7 67.045 100.436 67.4543 100.206C67.8684 99.9706 68.4282 99.853 69.134 99.853C70.0467 99.853 70.8513 100.081 71.5476 100.538C72.2439 100.994 72.7874 101.641 73.1779 102.478C73.5684 103.316 73.7636 104.304 73.7636 105.442C73.7636 106.59 73.5684 107.585 73.1779 108.428C72.7874 109.265 72.2463 109.914 71.5547 110.375C70.863 110.832 70.0656 111.06 69.1622 111.06C68.4659 111.06 67.9084 110.945 67.4896 110.714C67.0709 110.479 66.7486 110.213 66.5228 109.917C66.2969 109.616 66.1228 109.366 66.0005 109.169H65.8594V114.899H64.1938ZM65.8311 105.414C65.8311 106.233 65.9511 106.955 66.1911 107.581C66.431 108.202 66.7815 108.689 67.2426 109.042C67.7037 109.39 68.2683 109.564 68.9364 109.564C69.6327 109.564 70.2138 109.38 70.6795 109.013C71.15 108.642 71.5029 108.143 71.7382 107.517C71.9781 106.887 72.0981 106.186 72.0981 105.414C72.0981 104.652 71.9805 103.965 71.7452 103.353C71.5147 102.737 71.1642 102.25 70.6937 101.893C70.2279 101.53 69.6421 101.349 68.9364 101.349C68.2589 101.349 67.6896 101.521 67.2285 101.864C66.7674 102.203 66.4192 102.678 66.184 103.29C65.9488 103.897 65.8311 104.605 65.8311 105.414ZM80.7081 111.06C79.7295 111.06 78.8708 110.827 78.1321 110.361C77.3982 109.896 76.8242 109.244 76.4101 108.406C76.0008 107.569 75.7961 106.59 75.7961 105.471C75.7961 104.341 76.0008 103.356 76.4101 102.514C76.8242 101.671 77.3982 101.017 78.1321 100.552C78.8708 100.086 79.7295 99.853 80.7081 99.853C81.6867 99.853 82.543 100.086 83.277 100.552C84.0156 101.017 84.5896 101.671 84.999 102.514C85.413 103.356 85.62 104.341 85.62 105.471C85.62 106.59 85.413 107.569 84.999 108.406C84.5896 109.244 84.0156 109.896 83.277 110.361C82.543 110.827 81.6867 111.06 80.7081 111.06ZM80.7081 109.564C81.4515 109.564 82.0631 109.373 82.543 108.992C83.0229 108.611 83.3781 108.11 83.6087 107.489C83.8392 106.868 83.9545 106.195 83.9545 105.471C83.9545 104.746 83.8392 104.071 83.6087 103.445C83.3781 102.819 83.0229 102.314 82.543 101.928C82.0631 101.542 81.4515 101.349 80.7081 101.349C79.9647 101.349 79.3531 101.542 78.8732 101.928C78.3933 102.314 78.038 102.819 77.8075 103.445C77.577 104.071 77.4617 104.746 77.4617 105.471C77.4617 106.195 77.577 106.868 77.8075 107.489C78.038 108.11 78.3933 108.611 78.8732 108.992C79.3531 109.373 79.9647 109.564 80.7081 109.564ZM88.1624 110.834V99.9941H89.828V110.834H88.1624ZM89.0093 98.1874C88.6847 98.1874 88.4047 98.0768 88.1695 97.8557C87.9389 97.6346 87.8237 97.3688 87.8237 97.0582C87.8237 96.7477 87.9389 96.4819 88.1695 96.2608C88.4047 96.0396 88.6847 95.9291 89.0093 95.9291C89.3339 95.9291 89.6115 96.0396 89.8421 96.2608C90.0773 96.4819 90.1949 96.7477 90.1949 97.0582C90.1949 97.3688 90.0773 97.6346 89.8421 97.8557C89.6115 98.0768 89.3339 98.1874 89.0093 98.1874ZM94.5441 104.313V110.834H92.8785V99.9941H94.4876V101.688H94.6287C94.8828 101.137 95.2686 100.695 95.7862 100.361C96.3037 100.022 96.9718 99.853 97.7905 99.853C98.5244 99.853 99.1666 100.004 99.7171 100.305C100.268 100.601 100.696 101.053 101.002 101.66C101.307 102.262 101.46 103.024 101.46 103.946V110.834H99.7947V104.059C99.7947 103.208 99.5736 102.544 99.1314 102.069C98.6891 101.589 98.0822 101.349 97.3105 101.349C96.7789 101.349 96.3037 101.464 95.885 101.695C95.4709 101.925 95.1439 102.262 94.904 102.704C94.664 103.146 94.5441 103.683 94.5441 104.313ZM109.218 99.9941V101.406H103.6V99.9941H109.218ZM105.238 97.397H106.903V107.729C106.903 108.199 106.971 108.552 107.108 108.788C107.249 109.018 107.428 109.173 107.644 109.253C107.865 109.329 108.098 109.366 108.343 109.366C108.526 109.366 108.677 109.357 108.795 109.338C108.912 109.315 109.006 109.296 109.077 109.282L109.416 110.778C109.303 110.82 109.145 110.862 108.943 110.905C108.741 110.952 108.484 110.975 108.174 110.975C107.703 110.975 107.242 110.874 106.79 110.672C106.343 110.47 105.972 110.161 105.675 109.747C105.384 109.333 105.238 108.811 105.238 108.181V97.397ZM119.208 102.422L117.712 102.845C117.618 102.596 117.479 102.354 117.295 102.118C117.116 101.878 116.872 101.681 116.561 101.526C116.251 101.37 115.853 101.293 115.369 101.293C114.705 101.293 114.152 101.446 113.71 101.751C113.273 102.053 113.054 102.436 113.054 102.902C113.054 103.316 113.204 103.643 113.505 103.883C113.807 104.123 114.277 104.323 114.917 104.483L116.526 104.878C117.495 105.113 118.217 105.473 118.693 105.958C119.168 106.437 119.405 107.056 119.405 107.814C119.405 108.435 119.227 108.99 118.869 109.479C118.516 109.969 118.022 110.354 117.387 110.637C116.752 110.919 116.013 111.06 115.171 111.06C114.065 111.06 113.15 110.82 112.426 110.34C111.701 109.86 111.242 109.159 111.049 108.237L112.63 107.842C112.781 108.425 113.066 108.863 113.484 109.155C113.908 109.446 114.461 109.592 115.143 109.592C115.919 109.592 116.535 109.427 116.992 109.098C117.453 108.764 117.683 108.364 117.683 107.898C117.683 107.522 117.552 107.207 117.288 106.953C117.025 106.694 116.62 106.501 116.074 106.374L114.268 105.951C113.275 105.715 112.546 105.351 112.08 104.857C111.619 104.358 111.388 103.735 111.388 102.986C111.388 102.375 111.56 101.834 111.903 101.363C112.252 100.893 112.724 100.523 113.322 100.255C113.924 99.987 114.606 99.853 115.369 99.853C116.441 99.853 117.284 100.088 117.895 100.559C118.511 101.029 118.949 101.65 119.208 102.422ZM124.397 108.858L124.284 109.62C124.204 110.157 124.082 110.731 123.917 111.342C123.757 111.954 123.59 112.53 123.416 113.071C123.242 113.612 123.098 114.043 122.985 114.363H121.715C121.776 114.062 121.856 113.664 121.955 113.17C122.054 112.676 122.152 112.123 122.251 111.512C122.355 110.905 122.439 110.284 122.505 109.649L122.59 108.858H124.397ZM136.262 111.088C135.575 111.088 134.952 110.959 134.392 110.7C133.832 110.437 133.387 110.058 133.058 109.564C132.729 109.065 132.564 108.463 132.564 107.757C132.564 107.136 132.686 106.633 132.931 106.247C133.176 105.856 133.503 105.551 133.912 105.329C134.321 105.108 134.773 104.944 135.267 104.835C135.766 104.723 136.267 104.633 136.77 104.567C137.429 104.483 137.963 104.419 138.372 104.377C138.786 104.33 139.087 104.252 139.275 104.144C139.468 104.036 139.565 103.847 139.565 103.579V103.523C139.565 102.826 139.374 102.285 138.993 101.9C138.617 101.514 138.045 101.321 137.278 101.321C136.483 101.321 135.86 101.495 135.408 101.843C134.956 102.191 134.639 102.563 134.455 102.958L132.874 102.394C133.157 101.735 133.533 101.222 134.004 100.855C134.479 100.483 134.996 100.225 135.556 100.079C136.121 99.9282 136.676 99.853 137.222 99.853C137.57 99.853 137.97 99.8953 138.422 99.98C138.878 100.06 139.318 100.227 139.741 100.481C140.169 100.735 140.525 101.119 140.807 101.631C141.089 102.144 141.23 102.831 141.23 103.692V110.834H139.565V109.366H139.48C139.367 109.602 139.179 109.853 138.916 110.121C138.652 110.39 138.302 110.618 137.864 110.806C137.426 110.994 136.892 111.088 136.262 111.088ZM136.516 109.592C137.175 109.592 137.73 109.463 138.182 109.204C138.638 108.945 138.981 108.611 139.212 108.202C139.447 107.793 139.565 107.362 139.565 106.91V105.386C139.494 105.471 139.339 105.548 139.099 105.619C138.864 105.685 138.591 105.744 138.28 105.795C137.975 105.842 137.676 105.885 137.384 105.922C137.097 105.955 136.864 105.983 136.685 106.007C136.253 106.063 135.848 106.155 135.472 106.282C135.1 106.405 134.799 106.59 134.568 106.84C134.342 107.084 134.229 107.418 134.229 107.842C134.229 108.421 134.444 108.858 134.872 109.155C135.305 109.446 135.853 109.592 136.516 109.592ZM145.936 104.313V110.834H144.27V99.9941H145.879V101.688H146.021C146.275 101.137 146.66 100.695 147.178 100.361C147.695 100.022 148.364 99.853 149.182 99.853C149.916 99.853 150.558 100.004 151.109 100.305C151.659 100.601 152.088 101.053 152.393 101.66C152.699 102.262 152.852 103.024 152.852 103.946V110.834H151.187V104.059C151.187 103.208 150.965 102.544 150.523 102.069C150.081 101.589 149.474 101.349 148.702 101.349C148.171 101.349 147.695 101.464 147.277 101.695C146.863 101.925 146.536 102.262 146.296 102.704C146.056 103.146 145.936 103.683 145.936 104.313ZM159.989 111.06C159.086 111.06 158.288 110.832 157.596 110.375C156.905 109.914 156.364 109.265 155.973 108.428C155.583 107.585 155.387 106.59 155.387 105.442C155.387 104.304 155.583 103.316 155.973 102.478C156.364 101.641 156.907 100.994 157.603 100.538C158.3 100.081 159.104 99.853 160.017 99.853C160.723 99.853 161.28 99.9706 161.69 100.206C162.104 100.436 162.419 100.7 162.635 100.996C162.856 101.288 163.028 101.528 163.151 101.716H163.292V96.3807H164.957V110.834H163.348V109.169H163.151C163.028 109.366 162.854 109.616 162.628 109.917C162.402 110.213 162.08 110.479 161.661 110.714C161.243 110.945 160.685 111.06 159.989 111.06ZM160.215 109.564C160.883 109.564 161.447 109.39 161.908 109.042C162.37 108.689 162.72 108.202 162.96 107.581C163.2 106.955 163.32 106.233 163.32 105.414C163.32 104.605 163.202 103.897 162.967 103.29C162.732 102.678 162.384 102.203 161.923 101.864C161.461 101.521 160.892 101.349 160.215 101.349C159.509 101.349 158.921 101.53 158.45 101.893C157.985 102.25 157.634 102.737 157.399 103.353C157.168 103.965 157.053 104.652 157.053 105.414C157.053 106.186 157.171 106.887 157.406 107.517C157.646 108.143 157.999 108.642 158.464 109.013C158.935 109.38 159.518 109.564 160.215 109.564ZM177.922 111.06C177.018 111.06 176.221 110.832 175.529 110.375C174.838 109.914 174.296 109.265 173.906 108.428C173.515 107.585 173.32 106.59 173.32 105.442C173.32 104.304 173.515 103.316 173.906 102.478C174.296 101.641 174.84 100.994 175.536 100.538C176.233 100.081 177.037 99.853 177.95 99.853C178.656 99.853 179.213 99.9706 179.622 100.206C180.036 100.436 180.352 100.7 180.568 100.996C180.789 101.288 180.961 101.528 181.083 101.716H181.224V96.3807H182.89V110.834H181.281V109.169H181.083C180.961 109.366 180.787 109.616 180.561 109.917C180.335 110.213 180.013 110.479 179.594 110.714C179.175 110.945 178.618 111.06 177.922 111.06ZM178.147 109.564C178.816 109.564 179.38 109.39 179.841 109.042C180.302 108.689 180.653 108.202 180.893 107.581C181.133 106.955 181.253 106.233 181.253 105.414C181.253 104.605 181.135 103.897 180.9 103.29C180.665 102.678 180.316 102.203 179.855 101.864C179.394 101.521 178.825 101.349 178.147 101.349C177.442 101.349 176.854 101.53 176.383 101.893C175.917 102.25 175.567 102.737 175.332 103.353C175.101 103.965 174.986 104.652 174.986 105.414C174.986 106.186 175.103 106.887 175.339 107.517C175.579 108.143 175.931 108.642 176.397 109.013C176.868 109.38 177.451 109.564 178.147 109.564ZM190.576 111.06C189.597 111.06 188.738 110.827 188 110.361C187.266 109.896 186.692 109.244 186.278 108.406C185.868 107.569 185.664 106.59 185.664 105.471C185.664 104.341 185.868 103.356 186.278 102.514C186.692 101.671 187.266 101.017 188 100.552C188.738 100.086 189.597 99.853 190.576 99.853C191.554 99.853 192.41 100.086 193.144 100.552C193.883 101.017 194.457 101.671 194.866 102.514C195.28 103.356 195.487 104.341 195.487 105.471C195.487 106.59 195.28 107.569 194.866 108.406C194.457 109.244 193.883 109.896 193.144 110.361C192.41 110.827 191.554 111.06 190.576 111.06ZM190.576 109.564C191.319 109.564 191.931 109.373 192.41 108.992C192.89 108.611 193.246 108.11 193.476 107.489C193.707 106.868 193.822 106.195 193.822 105.471C193.822 104.746 193.707 104.071 193.476 103.445C193.246 102.819 192.89 102.314 192.41 101.928C191.931 101.542 191.319 101.349 190.576 101.349C189.832 101.349 189.22 101.542 188.741 101.928C188.261 102.314 187.905 102.819 187.675 103.445C187.444 104.071 187.329 104.746 187.329 105.471C187.329 106.195 187.444 106.868 187.675 107.489C187.905 108.11 188.261 108.611 188.741 108.992C189.22 109.373 189.832 109.564 190.576 109.564ZM202.434 111.06C201.417 111.06 200.542 110.82 199.808 110.34C199.074 109.86 198.51 109.199 198.115 108.357C197.719 107.515 197.522 106.553 197.522 105.471C197.522 104.37 197.724 103.398 198.129 102.556C198.538 101.709 199.107 101.048 199.837 100.573C200.571 100.093 201.427 99.853 202.405 99.853C203.168 99.853 203.855 99.9941 204.466 100.276C205.078 100.559 205.579 100.954 205.969 101.462C206.36 101.97 206.602 102.563 206.696 103.24H205.031C204.904 102.746 204.621 102.309 204.184 101.928C203.751 101.542 203.168 101.349 202.434 101.349C201.784 101.349 201.215 101.518 200.726 101.857C200.241 102.191 199.862 102.664 199.59 103.276C199.321 103.883 199.187 104.596 199.187 105.414C199.187 106.252 199.319 106.981 199.582 107.602C199.851 108.223 200.227 108.705 200.712 109.049C201.201 109.392 201.775 109.564 202.434 109.564C202.867 109.564 203.259 109.489 203.612 109.338C203.965 109.188 204.264 108.971 204.509 108.689C204.753 108.406 204.927 108.068 205.031 107.673H206.696C206.602 108.312 206.369 108.889 205.998 109.402C205.631 109.91 205.144 110.314 204.537 110.615C203.935 110.912 203.233 111.06 202.434 111.06ZM215.963 106.402V99.9941H217.628V110.834H215.963V108.999H215.85C215.596 109.55 215.2 110.018 214.664 110.404C214.128 110.785 213.45 110.975 212.632 110.975C211.954 110.975 211.352 110.827 210.825 110.531C210.298 110.23 209.884 109.778 209.583 109.176C209.282 108.569 209.131 107.804 209.131 106.882V99.9941H210.797V106.769C210.797 107.56 211.018 108.19 211.46 108.661C211.907 109.131 212.476 109.366 213.168 109.366C213.582 109.366 214.003 109.26 214.431 109.049C214.864 108.837 215.226 108.512 215.518 108.075C215.814 107.637 215.963 107.08 215.963 106.402ZM220.679 110.834V99.9941H222.288V101.688H222.429C222.655 101.109 223.019 100.66 223.523 100.34C224.026 100.015 224.631 99.853 225.337 99.853C226.052 99.853 226.647 100.015 227.122 100.34C227.602 100.66 227.976 101.109 228.244 101.688H228.357C228.635 101.128 229.051 100.683 229.606 100.354C230.161 100.02 230.827 99.853 231.604 99.853C232.573 99.853 233.366 100.156 233.982 100.763C234.598 101.366 234.906 102.304 234.906 103.579V110.834H233.241V103.579C233.241 102.779 233.022 102.208 232.585 101.864C232.147 101.521 231.632 101.349 231.039 101.349C230.277 101.349 229.686 101.58 229.268 102.041C228.849 102.497 228.639 103.076 228.639 103.777V110.834H226.946V103.41C226.946 102.794 226.746 102.297 226.346 101.921C225.946 101.54 225.431 101.349 224.8 101.349C224.367 101.349 223.963 101.464 223.586 101.695C223.215 101.925 222.914 102.245 222.683 102.655C222.457 103.059 222.344 103.527 222.344 104.059V110.834H220.679ZM242.497 111.06C241.452 111.06 240.551 110.83 239.794 110.368C239.041 109.903 238.46 109.253 238.05 108.421C237.646 107.583 237.444 106.609 237.444 105.499C237.444 104.388 237.646 103.41 238.05 102.563C238.46 101.711 239.029 101.048 239.758 100.573C240.492 100.093 241.349 99.853 242.327 99.853C242.892 99.853 243.449 99.9471 244 100.135C244.55 100.323 245.051 100.629 245.503 101.053C245.955 101.471 246.315 102.027 246.583 102.718C246.851 103.41 246.985 104.261 246.985 105.273V105.979H238.629V104.539H245.291C245.291 103.927 245.169 103.382 244.924 102.902C244.684 102.422 244.341 102.043 243.894 101.766C243.452 101.488 242.929 101.349 242.327 101.349C241.664 101.349 241.09 101.514 240.605 101.843C240.125 102.168 239.756 102.591 239.497 103.113C239.238 103.636 239.109 104.196 239.109 104.793V105.753C239.109 106.572 239.25 107.266 239.533 107.835C239.82 108.399 240.217 108.83 240.725 109.126C241.233 109.418 241.824 109.564 242.497 109.564C242.934 109.564 243.329 109.503 243.682 109.38C244.04 109.253 244.348 109.065 244.607 108.816C244.866 108.562 245.065 108.247 245.207 107.87L246.816 108.322C246.646 108.868 246.362 109.347 245.962 109.762C245.562 110.171 245.068 110.491 244.48 110.721C243.892 110.947 243.231 111.06 242.497 111.06ZM251.184 104.313V110.834H249.519V99.9941H251.128V101.688H251.269C251.523 101.137 251.909 100.695 252.426 100.361C252.944 100.022 253.612 99.853 254.431 99.853C255.165 99.853 255.807 100.004 256.357 100.305C256.908 100.601 257.336 101.053 257.642 101.66C257.948 102.262 258.1 103.024 258.1 103.946V110.834H256.435V104.059C256.435 103.208 256.214 102.544 255.772 102.069C255.329 101.589 254.722 101.349 253.951 101.349C253.419 101.349 252.944 101.464 252.525 101.695C252.111 101.925 251.784 102.262 251.544 102.704C251.304 103.146 251.184 103.683 251.184 104.313ZM265.858 99.9941V101.406H260.241V99.9941H265.858ZM261.878 97.397H263.543V107.729C263.543 108.199 263.612 108.552 263.748 108.788C263.889 109.018 264.068 109.173 264.284 109.253C264.506 109.329 264.739 109.366 264.983 109.366C265.167 109.366 265.317 109.357 265.435 109.338C265.552 109.315 265.647 109.296 265.717 109.282L266.056 110.778C265.943 110.82 265.785 110.862 265.583 110.905C265.381 110.952 265.124 110.975 264.814 110.975C264.343 110.975 263.882 110.874 263.431 110.672C262.984 110.47 262.612 110.161 262.315 109.747C262.024 109.333 261.878 108.811 261.878 108.181V97.397ZM271.554 111.088C270.867 111.088 270.243 110.959 269.683 110.7C269.123 110.437 268.679 110.058 268.35 109.564C268.02 109.065 267.856 108.463 267.856 107.757C267.856 107.136 267.978 106.633 268.222 106.247C268.467 105.856 268.794 105.551 269.203 105.329C269.613 105.108 270.064 104.944 270.558 104.835C271.057 104.723 271.558 104.633 272.062 104.567C272.72 104.483 273.254 104.419 273.664 104.377C274.078 104.33 274.379 104.252 274.567 104.144C274.76 104.036 274.856 103.847 274.856 103.579V103.523C274.856 102.826 274.666 102.285 274.285 101.9C273.908 101.514 273.337 101.321 272.57 101.321C271.775 101.321 271.151 101.495 270.7 101.843C270.248 102.191 269.93 102.563 269.747 102.958L268.166 102.394C268.448 101.735 268.825 101.222 269.295 100.855C269.77 100.483 270.288 100.225 270.848 100.079C271.412 99.9282 271.968 99.853 272.513 99.853C272.862 99.853 273.261 99.8953 273.713 99.98C274.17 100.06 274.609 100.227 275.033 100.481C275.461 100.735 275.816 101.119 276.099 101.631C276.381 102.144 276.522 102.831 276.522 103.692V110.834H274.856V109.366H274.772C274.659 109.602 274.471 109.853 274.207 110.121C273.944 110.39 273.593 110.618 273.156 110.806C272.718 110.994 272.184 111.088 271.554 111.088ZM271.808 109.592C272.466 109.592 273.022 109.463 273.473 109.204C273.93 108.945 274.273 108.611 274.504 108.202C274.739 107.793 274.856 107.362 274.856 106.91V105.386C274.786 105.471 274.631 105.548 274.391 105.619C274.155 105.685 273.883 105.744 273.572 105.795C273.266 105.842 272.967 105.885 272.676 105.922C272.389 105.955 272.156 105.983 271.977 106.007C271.544 106.063 271.14 106.155 270.763 106.282C270.391 106.405 270.09 106.59 269.86 106.84C269.634 107.084 269.521 107.418 269.521 107.842C269.521 108.421 269.735 108.858 270.163 109.155C270.596 109.446 271.144 109.592 271.808 109.592ZM284.276 99.9941V101.406H278.659V99.9941H284.276ZM280.296 97.397H281.961V107.729C281.961 108.199 282.03 108.552 282.166 108.788C282.307 109.018 282.486 109.173 282.702 109.253C282.924 109.329 283.156 109.366 283.401 109.366C283.585 109.366 283.735 109.357 283.853 109.338C283.97 109.315 284.065 109.296 284.135 109.282L284.474 110.778C284.361 110.82 284.203 110.862 284.001 110.905C283.799 110.952 283.542 110.975 283.232 110.975C282.761 110.975 282.3 110.874 281.849 110.672C281.402 110.47 281.03 110.161 280.733 109.747C280.442 109.333 280.296 108.811 280.296 108.181V97.397ZM286.782 110.834V99.9941H288.447V110.834H286.782ZM287.629 98.1874C287.304 98.1874 287.024 98.0768 286.789 97.8557C286.558 97.6346 286.443 97.3688 286.443 97.0582C286.443 96.7477 286.558 96.4819 286.789 96.2608C287.024 96.0396 287.304 95.9291 287.629 95.9291C287.953 95.9291 288.231 96.0396 288.461 96.2608C288.697 96.4819 288.814 96.7477 288.814 97.0582C288.814 97.3688 288.697 97.6346 288.461 97.8557C288.231 98.0768 287.953 98.1874 287.629 98.1874ZM295.902 111.06C294.923 111.06 294.064 110.827 293.326 110.361C292.592 109.896 292.018 109.244 291.604 108.406C291.194 107.569 290.99 106.59 290.99 105.471C290.99 104.341 291.194 103.356 291.604 102.514C292.018 101.671 292.592 101.017 293.326 100.552C294.064 100.086 294.923 99.853 295.902 99.853C296.88 99.853 297.736 100.086 298.47 100.552C299.209 101.017 299.783 101.671 300.192 102.514C300.606 103.356 300.813 104.341 300.813 105.471C300.813 106.59 300.606 107.569 300.192 108.406C299.783 109.244 299.209 109.896 298.47 110.361C297.736 110.827 296.88 111.06 295.902 111.06ZM295.902 109.564C296.645 109.564 297.257 109.373 297.736 108.992C298.216 108.611 298.572 108.11 298.802 107.489C299.033 106.868 299.148 106.195 299.148 105.471C299.148 104.746 299.033 104.071 298.802 103.445C298.572 102.819 298.216 102.314 297.736 101.928C297.257 101.542 296.645 101.349 295.902 101.349C295.158 101.349 294.547 101.542 294.067 101.928C293.587 102.314 293.231 102.819 293.001 103.445C292.77 104.071 292.655 104.746 292.655 105.471C292.655 106.195 292.77 106.868 293.001 107.489C293.231 108.11 293.587 108.611 294.067 108.992C294.547 109.373 295.158 109.564 295.902 109.564ZM305.021 104.313V110.834H303.356V99.9941H304.965V101.688H305.106C305.36 101.137 305.746 100.695 306.263 100.361C306.781 100.022 307.449 99.853 308.268 99.853C309.002 99.853 309.644 100.004 310.194 100.305C310.745 100.601 311.173 101.053 311.479 101.66C311.785 102.262 311.938 103.024 311.938 103.946V110.834H310.272V104.059C310.272 103.208 310.051 102.544 309.609 102.069C309.166 101.589 308.559 101.349 307.788 101.349C307.256 101.349 306.781 101.464 306.362 101.695C305.948 101.925 305.621 102.262 305.381 102.704C305.141 103.146 305.021 103.683 305.021 104.313ZM316.195 110.947C315.847 110.947 315.548 110.822 315.299 110.573C315.049 110.324 314.925 110.025 314.925 109.677C314.925 109.329 315.049 109.03 315.299 108.781C315.548 108.531 315.847 108.406 316.195 108.406C316.543 108.406 316.842 108.531 317.091 108.781C317.341 109.03 317.465 109.329 317.465 109.677C317.465 109.907 317.407 110.119 317.289 110.312C317.176 110.505 317.023 110.66 316.83 110.778C316.642 110.891 316.43 110.947 316.195 110.947Z" fill="black"/>
<path d="M28.7623 41.1711V27.7224H36.8263V29.1671H30.3909V33.7113H36.2222V35.156H30.3909V41.1711H28.7623ZM50.4376 31.9252H48.809C48.7127 31.4567 48.5441 31.0452 48.3034 30.6906C48.067 30.336 47.778 30.0383 47.4365 29.7975C47.0995 29.5524 46.7252 29.3685 46.3136 29.2459C45.9021 29.1233 45.4731 29.062 45.0266 29.062C44.2123 29.062 43.4746 29.2678 42.8136 29.6793C42.1569 30.0908 41.6337 30.6972 41.2441 31.4983C40.8589 32.2995 40.6662 33.2823 40.6662 34.4468C40.6662 35.6113 40.8589 36.5941 41.2441 37.3953C41.6337 38.1964 42.1569 38.8027 42.8136 39.2142C43.4746 39.6258 44.2123 39.8315 45.0266 39.8315C45.4731 39.8315 45.9021 39.7702 46.3136 39.6477C46.7252 39.5251 47.0995 39.3434 47.4365 39.1026C47.778 38.8575 48.067 38.5576 48.3034 38.203C48.5441 37.844 48.7127 37.4325 48.809 36.9684H50.4376C50.315 37.6557 50.0917 38.2708 49.7677 38.8137C49.4438 39.3565 49.041 39.8184 48.5595 40.1993C48.0779 40.5758 47.5372 40.8625 46.9375 41.0595C46.3421 41.2565 45.7051 41.355 45.0266 41.355C43.8796 41.355 42.8595 41.0748 41.9664 40.5145C41.0734 39.9541 40.3707 39.1573 39.8585 38.1242C39.3463 37.091 39.0902 35.8652 39.0902 34.4468C39.0902 33.0284 39.3463 31.8026 39.8585 30.7694C40.3707 29.7362 41.0734 28.9395 41.9664 28.3791C42.8595 27.8187 43.8796 27.5386 45.0266 27.5386C45.7051 27.5386 46.3421 27.6371 46.9375 27.8341C47.5372 28.0311 48.0779 28.32 48.5595 28.7009C49.041 29.0774 49.4438 29.537 49.7677 30.0799C50.0917 30.6184 50.315 31.2335 50.4376 31.9252ZM58.6378 33.7244V35.1691H52.754V33.7244H58.6378ZM61.3433 41.1711L67.3584 29.2722V29.1671H60.4239V27.7224H69.0395V29.2459L63.0506 41.1711H61.3433Z" fill="#858E96"/>
<circle cx="194.697" cy="162.046" r="9.43137" fill="white"/>
<circle cx="194.697" cy="162.046" r="8.57398" fill="#F7AE59"/>
<circle cx="180.122" cy="162.046" r="9.43137" fill="white"/>
<circle cx="180.121" cy="162.046" r="8.57398" fill="#8CC1FF"/>
<circle cx="164.688" cy="162.046" r="9.43137" fill="white"/>
<circle cx="164.688" cy="162.046" r="8.57398" fill="#2C435F"/>
<rect x="71.0524" y="146.341" width="73.3075" height="31.0401" rx="4.95321" fill="white" stroke="#DEE2E6" stroke-width="0.660428"/>
<circle cx="82.2433" cy="161.201" r="3.96257" fill="#F7AE59"/>
<path d="M92.2548 156.412V155.173H100.9V156.412H97.2755V166.701H95.8796V156.412H92.2548ZM105.133 166.881C104.353 166.881 103.668 166.695 103.079 166.324C102.493 165.952 102.035 165.432 101.705 164.764C101.379 164.096 101.216 163.316 101.216 162.423C101.216 161.522 101.379 160.736 101.705 160.065C102.035 159.393 102.493 158.871 103.079 158.5C103.668 158.128 104.353 157.943 105.133 157.943C105.914 157.943 106.597 158.128 107.182 158.5C107.771 158.871 108.229 159.393 108.555 160.065C108.886 160.736 109.051 161.522 109.051 162.423C109.051 163.316 108.886 164.096 108.555 164.764C108.229 165.432 107.771 165.952 107.182 166.324C106.597 166.695 105.914 166.881 105.133 166.881ZM105.133 165.688C105.726 165.688 106.214 165.536 106.597 165.232C106.979 164.928 107.263 164.528 107.446 164.033C107.63 163.537 107.722 163.001 107.722 162.423C107.722 161.845 107.63 161.307 107.446 160.807C107.263 160.308 106.979 159.905 106.597 159.597C106.214 159.29 105.726 159.136 105.133 159.136C104.54 159.136 104.052 159.29 103.67 159.597C103.287 159.905 103.004 160.308 102.82 160.807C102.636 161.307 102.544 161.845 102.544 162.423C102.544 163.001 102.636 163.537 102.82 164.033C103.004 164.528 103.287 164.928 103.67 165.232C104.052 165.536 104.54 165.688 105.133 165.688ZM118.801 166.881C118.08 166.881 117.444 166.699 116.893 166.335C116.341 165.967 115.91 165.449 115.598 164.781C115.287 164.11 115.131 163.316 115.131 162.4C115.131 161.492 115.287 160.704 115.598 160.036C115.91 159.368 116.343 158.852 116.898 158.488C117.454 158.125 118.095 157.943 118.823 157.943C119.386 157.943 119.831 158.036 120.157 158.224C120.488 158.408 120.739 158.618 120.912 158.854C121.088 159.087 121.225 159.278 121.322 159.428H121.435V155.173H122.763V166.701H121.48V165.372H121.322C121.225 165.53 121.086 165.729 120.906 165.969C120.726 166.205 120.469 166.417 120.135 166.605C119.801 166.789 119.356 166.881 118.801 166.881ZM118.981 165.688C119.514 165.688 119.964 165.549 120.332 165.271C120.7 164.99 120.979 164.601 121.171 164.106C121.362 163.607 121.458 163.031 121.458 162.378C121.458 161.732 121.364 161.168 121.176 160.684C120.989 160.196 120.711 159.817 120.343 159.547C119.975 159.273 119.521 159.136 118.981 159.136C118.418 159.136 117.949 159.28 117.574 159.569C117.202 159.854 116.923 160.243 116.735 160.734C116.551 161.222 116.459 161.77 116.459 162.378C116.459 162.993 116.553 163.552 116.741 164.055C116.932 164.554 117.214 164.952 117.585 165.248C117.96 165.541 118.426 165.688 118.981 165.688ZM128.893 166.881C128.113 166.881 127.428 166.695 126.839 166.324C126.253 165.952 125.795 165.432 125.465 164.764C125.139 164.096 124.975 163.316 124.975 162.423C124.975 161.522 125.139 160.736 125.465 160.065C125.795 159.393 126.253 158.871 126.839 158.5C127.428 158.128 128.113 157.943 128.893 157.943C129.674 157.943 130.356 158.128 130.942 158.5C131.531 158.871 131.989 159.393 132.315 160.065C132.645 160.736 132.811 161.522 132.811 162.423C132.811 163.316 132.645 164.096 132.315 164.764C131.989 165.432 131.531 165.952 130.942 166.324C130.356 166.695 129.674 166.881 128.893 166.881ZM128.893 165.688C129.486 165.688 129.974 165.536 130.356 165.232C130.739 164.928 131.023 164.528 131.206 164.033C131.39 163.537 131.482 163.001 131.482 162.423C131.482 161.845 131.39 161.307 131.206 160.807C131.023 160.308 130.739 159.905 130.356 159.597C129.974 159.29 129.486 159.136 128.893 159.136C128.3 159.136 127.812 159.29 127.43 159.597C127.047 159.905 126.764 160.308 126.58 160.807C126.396 161.307 126.304 161.845 126.304 162.423C126.304 163.001 126.396 163.537 126.58 164.033C126.764 164.528 127.047 164.928 127.43 165.232C127.812 165.536 128.3 165.688 128.893 165.688Z" fill="#495057"/>
<rect x="28.4546" y="146.011" width="31.7005" height="31.7005" rx="5.28342" fill="#FFEDD5"/>
<rect x="36.3799" y="153.936" width="14.5294" height="14.5294" rx="6.60428" fill="#FFEDD5"/>
<path d="M47.7314 166.044C47.5195 166.044 47.3404 165.971 47.1941 165.824C47.0478 165.678 46.9746 165.499 46.9746 165.287V157.114C46.9746 156.903 47.0478 156.723 47.1941 156.577C47.3404 156.431 47.5195 156.358 47.7314 156.358C47.9433 156.358 48.1224 156.431 48.2687 156.577C48.415 156.723 48.4881 156.903 48.4881 157.114V165.287C48.4881 165.499 48.415 165.678 48.2687 165.824C48.1224 165.971 47.9433 166.044 47.7314 166.044ZM40.1791 166.044C40.0681 166.044 39.9647 166.024 39.8688 165.983C39.773 165.943 39.6923 165.89 39.6267 165.824C39.5611 165.759 39.5081 165.678 39.4678 165.582C39.4274 165.486 39.4072 165.388 39.4072 165.287V163.168C39.4072 162.956 39.4804 162.777 39.6267 162.631C39.773 162.485 39.9521 162.412 40.164 162.412C40.3759 162.412 40.5549 162.485 40.7013 162.631C40.8476 162.777 40.9207 162.956 40.9207 163.168V165.287C40.9207 165.388 40.9005 165.486 40.8602 165.582C40.8198 165.678 40.7668 165.759 40.7013 165.824C40.6357 165.89 40.5575 165.943 40.4667 165.983C40.3759 166.024 40.28 166.044 40.1791 166.044ZM43.9477 166.044C43.7358 166.044 43.5567 165.971 43.4104 165.824C43.2641 165.678 43.1909 165.499 43.1909 165.287V160.141C43.1909 159.929 43.2641 159.75 43.4104 159.604C43.5567 159.458 43.7358 159.385 43.9477 159.385C44.1596 159.385 44.3387 159.458 44.485 159.604C44.6313 159.75 44.7044 159.929 44.7044 160.141V165.287C44.7044 165.499 44.6313 165.678 44.485 165.824C44.3387 165.971 44.1596 166.044 43.9477 166.044Z" fill="#FF6B00"/>
</g>
<defs>
<filter id="filter0_d_1478_40257" x="0.716578" y="0.716578" width="504.567" height="200.77" filterUnits="userSpaceOnUse" color-interpolation-filters="sRGB">
<feFlood flood-opacity="0" result="BackgroundImageFix"/>
<feColorMatrix in="SourceAlpha" type="matrix" values="0 0 0 0 0 0 0 0 0 0 0 0 0 0 0 0 0 0 127 0" result="hardAlpha"/>
<feOffset/>
<feGaussianBlur stdDeviation="2.64171"/>
<feComposite in2="hardAlpha" operator="out"/>
<feColorMatrix type="matrix" values="0 0 0 0 0 0 0 0 0 0 0 0 0 0 0 0 0 0 0.2 0"/>
<feBlend mode="normal" in2="BackgroundImageFix" result="effect1_dropShadow_1478_40257"/>
<feBlend mode="normal" in="SourceGraphic" in2="effect1_dropShadow_1478_40257" result="shape"/>
</filter>
</defs>
</svg>
