<svg width="488" height="201" viewBox="0 0 488 201" fill="none" xmlns="http://www.w3.org/2000/svg">
<g filter="url(#filter0_d_2610_65027)">
<g filter="url(#filter1_d_2610_65027)">
<rect x="10" y="8.00537" width="468" height="180.193" rx="10.0107" fill="white"/>
</g>
<path d="M33.3377 65.366V79.0588H31.6796V65.366H33.3377ZM43.7226 71.0892L42.3052 71.4904C42.2161 71.2541 42.0846 71.0246 41.9107 70.8017C41.7414 70.5744 41.5096 70.3872 41.2154 70.2401C40.9212 70.093 40.5446 70.0195 40.0855 70.0195C39.457 70.0195 38.9333 70.1643 38.5143 70.454C38.0998 70.7393 37.8925 71.1026 37.8925 71.5438C37.8925 71.9361 38.0351 72.2459 38.3204 72.4732C38.6057 72.7005 39.0514 72.89 39.6576 73.0415L41.182 73.4159C42.1002 73.6388 42.7844 73.9798 43.2346 74.4389C43.6847 74.8935 43.9098 75.4796 43.9098 76.1973C43.9098 76.7856 43.7405 77.3116 43.4017 77.7751C43.0674 78.2387 42.5994 78.6042 41.9977 78.8716C41.3959 79.1391 40.6961 79.2728 39.8983 79.2728C38.8508 79.2728 37.9839 79.0455 37.2975 78.5908C36.611 78.1362 36.1764 77.472 35.9937 76.5984L37.4913 76.224C37.634 76.7767 37.9036 77.1912 38.3003 77.4676C38.7015 77.7439 39.2252 77.8821 39.8715 77.8821C40.607 77.8821 41.1909 77.7261 41.6232 77.4141C42.0601 77.0976 42.2785 76.7188 42.2785 76.2775C42.2785 75.9209 42.1537 75.6223 41.9041 75.3816C41.6545 75.1364 41.2711 74.9537 40.7541 74.8333L39.0425 74.4322C38.102 74.2093 37.4111 73.8639 36.9698 73.3959C36.533 72.9234 36.3146 72.3328 36.3146 71.6241C36.3146 71.0446 36.4773 70.532 36.8027 70.0863C37.1325 69.6406 37.5805 69.2907 38.1466 69.0366C38.7171 68.7826 39.3634 68.6555 40.0855 68.6555C41.1017 68.6555 41.8996 68.8784 42.479 69.3241C43.063 69.7698 43.4775 70.3582 43.7226 71.0892ZM53.5593 71.0892L52.1419 71.4904C52.0527 71.2541 51.9213 71.0246 51.7474 70.8017C51.578 70.5744 51.3463 70.3872 51.0521 70.2401C50.7579 70.093 50.3813 70.0195 49.9222 70.0195C49.2937 70.0195 48.77 70.1643 48.351 70.454C47.9364 70.7393 47.7292 71.1026 47.7292 71.5438C47.7292 71.9361 47.8718 72.2459 48.1571 72.4732C48.4423 72.7005 48.8881 72.89 49.4943 73.0415L51.0187 73.4159C51.9369 73.6388 52.6211 73.9798 53.0712 74.4389C53.5214 74.8935 53.7465 75.4796 53.7465 76.1973C53.7465 76.7856 53.5771 77.3116 53.2384 77.7751C52.9041 78.2387 52.4361 78.6042 51.8343 78.8716C51.2326 79.1391 50.5328 79.2728 49.735 79.2728C48.6875 79.2728 47.8206 79.0455 47.1341 78.5908C46.4477 78.1362 46.0131 77.472 45.8304 76.5984L47.328 76.224C47.4707 76.7767 47.7403 77.1912 48.137 77.4676C48.5382 77.7439 49.0619 77.8821 49.7082 77.8821C50.4437 77.8821 51.0276 77.7261 51.4599 77.4141C51.8967 77.0976 52.1152 76.7188 52.1152 76.2775C52.1152 75.9209 51.9903 75.6223 51.7407 75.3816C51.4911 75.1364 51.1078 74.9537 50.5908 74.8333L48.8792 74.4322C47.9387 74.2093 47.2478 73.8639 46.8065 73.3959C46.3697 72.9234 46.1513 72.3328 46.1513 71.6241C46.1513 71.0446 46.314 70.532 46.6394 70.0863C46.9692 69.6406 47.4172 69.2907 47.9832 69.0366C48.5538 68.7826 49.2001 68.6555 49.9222 68.6555C50.9384 68.6555 51.7363 68.8784 52.3157 69.3241C52.8996 69.7698 53.3142 70.3582 53.5593 71.0892ZM62.5937 74.8601V68.7892H64.1716V79.0588H62.5937V77.3205H62.4867C62.246 77.842 61.8716 78.2855 61.3635 78.651C60.8553 79.012 60.2135 79.1926 59.4379 79.1926C58.7961 79.1926 58.2255 79.0522 57.7263 78.7713C57.2271 78.4861 56.8349 78.0582 56.5496 77.4876C56.2643 76.9127 56.1217 76.1883 56.1217 75.3147V68.7892H57.6996V75.2077C57.6996 75.9566 57.9091 76.5538 58.3281 76.9996C58.7515 77.4453 59.2908 77.6682 59.946 77.6682C60.3383 77.6682 60.7372 77.5679 61.1428 77.3673C61.5529 77.1667 61.8961 76.8592 62.1725 76.4446C62.4533 76.0301 62.5937 75.5019 62.5937 74.8601ZM71.3673 79.2728C70.3778 79.2728 69.5242 79.0544 68.8066 78.6176C68.0934 78.1763 67.5429 77.5612 67.1552 76.7722C66.7718 75.9789 66.5802 75.0562 66.5802 74.0043C66.5802 72.9524 66.7718 72.0252 67.1552 71.2229C67.5429 70.4162 68.0823 69.7877 68.7732 69.3375C69.4685 68.8828 70.2797 68.6555 71.2068 68.6555C71.7417 68.6555 72.2699 68.7447 72.7914 68.923C73.3129 69.1013 73.7876 69.391 74.2155 69.7921C74.6434 70.1888 74.9844 70.7148 75.2384 71.37C75.4925 72.0252 75.6195 72.832 75.6195 73.7903V74.4589H67.7034V73.095H74.0149C74.0149 72.5155 73.899 71.9985 73.6673 71.5438C73.4399 71.0892 73.1145 70.7304 72.6911 70.4674C72.2721 70.2044 71.7774 70.0729 71.2068 70.0729C70.5784 70.0729 70.0346 70.2289 69.5755 70.541C69.1208 70.8485 68.7709 71.2497 68.5258 71.7444C68.2806 72.2392 68.158 72.7696 68.158 73.3357V74.245C68.158 75.0205 68.2918 75.678 68.5592 76.2173C68.8311 76.7522 69.2077 77.16 69.6891 77.4408C70.1705 77.7172 70.7299 77.8554 71.3673 77.8554C71.7818 77.8554 72.1562 77.7974 72.4905 77.6815C72.8293 77.5612 73.1212 77.3829 73.3664 77.1467C73.6115 76.906 73.801 76.6073 73.9347 76.2507L75.4591 76.6786C75.2986 77.1957 75.029 77.6503 74.6501 78.0426C74.2712 78.4304 73.8032 78.7335 73.246 78.9519C72.6889 79.1658 72.0626 79.2728 71.3673 79.2728ZM87.1929 79.2728C86.3371 79.2728 85.5816 79.0566 84.9264 78.6243C84.2711 78.1874 83.7586 77.5723 83.3886 76.7789C83.0186 75.9811 82.8337 75.0384 82.8337 73.9508C82.8337 72.8721 83.0186 71.9361 83.3886 71.1427C83.7586 70.3493 84.2734 69.7364 84.9331 69.3041C85.5927 68.8717 86.3549 68.6555 87.2196 68.6555C87.8882 68.6555 88.4164 68.767 88.8042 68.9898C89.1964 69.2082 89.4951 69.4578 89.7001 69.7386C89.9096 70.015 90.0723 70.2423 90.1882 70.4206H90.3219V65.366H91.8998V79.0588H90.3754V77.481H90.1882C90.0723 77.6682 89.9074 77.9044 89.6934 78.1897C89.4795 78.4705 89.1742 78.7223 88.7775 78.9452C88.3808 79.1636 87.8526 79.2728 87.1929 79.2728ZM87.4068 77.8554C88.0398 77.8554 88.5747 77.6905 89.0115 77.3606C89.4483 77.0263 89.7804 76.565 90.0077 75.9766C90.235 75.3838 90.3487 74.6996 90.3487 73.924C90.3487 73.1574 90.2372 72.4866 90.0144 71.9116C89.7915 71.3321 89.4617 70.8819 89.0248 70.561C88.588 70.2356 88.0487 70.0729 87.4068 70.0729C86.7383 70.0729 86.1811 70.2445 85.7354 70.5878C85.2941 70.9265 84.962 71.3878 84.7392 71.9717C84.5208 72.5512 84.4116 73.202 84.4116 73.924C84.4116 74.655 84.523 75.3192 84.7458 75.9164C84.9732 76.5093 85.3075 76.9817 85.7487 77.3339C86.1945 77.6815 86.7472 77.8554 87.4068 77.8554ZM99.3145 79.2728C98.325 79.2728 97.4714 79.0544 96.7538 78.6176C96.0406 78.1763 95.4901 77.5612 95.1024 76.7722C94.719 75.9789 94.5274 75.0562 94.5274 74.0043C94.5274 72.9524 94.719 72.0252 95.1024 71.2229C95.4901 70.4162 96.0295 69.7877 96.7204 69.3375C97.4157 68.8828 98.2269 68.6555 99.154 68.6555C99.6889 68.6555 100.217 68.7447 100.739 68.923C101.26 69.1013 101.735 69.391 102.163 69.7921C102.591 70.1888 102.932 70.7148 103.186 71.37C103.44 72.0252 103.567 72.832 103.567 73.7903V74.4589H95.6506V73.095H101.962C101.962 72.5155 101.846 71.9985 101.614 71.5438C101.387 71.0892 101.062 70.7304 100.638 70.4674C100.219 70.2044 99.7246 70.0729 99.154 70.0729C98.5256 70.0729 97.9818 70.2289 97.5227 70.541C97.068 70.8485 96.7181 71.2497 96.473 71.7444C96.2278 72.2392 96.1052 72.7696 96.1052 73.3357V74.245C96.1052 75.0205 96.239 75.678 96.5064 76.2173C96.7783 76.7522 97.1549 77.16 97.6363 77.4408C98.1177 77.7172 98.6771 77.8554 99.3145 77.8554C99.729 77.8554 100.103 77.7974 100.438 77.6815C100.776 77.5612 101.068 77.3829 101.314 77.1467C101.559 76.906 101.748 76.6073 101.882 76.2507L103.406 76.6786C103.246 77.1957 102.976 77.6503 102.597 78.0426C102.218 78.4304 101.75 78.7335 101.193 78.9519C100.636 79.1658 100.01 79.2728 99.3145 79.2728ZM110.433 68.7892V70.1264H105.111V68.7892H110.433ZM106.662 66.3288H108.24V76.117C108.24 76.5628 108.305 76.8971 108.434 77.1199C108.568 77.3383 108.737 77.4854 108.942 77.5612C109.152 77.6325 109.372 77.6682 109.604 77.6682C109.778 77.6682 109.921 77.6592 110.032 77.6414C110.143 77.6191 110.233 77.6013 110.299 77.5879L110.62 79.0054C110.513 79.0455 110.364 79.0856 110.172 79.1257C109.981 79.1703 109.738 79.1926 109.444 79.1926C108.998 79.1926 108.561 79.0967 108.133 78.9051C107.71 78.7134 107.358 78.4214 107.077 78.0292C106.801 77.637 106.662 77.1422 106.662 76.5449V66.3288ZM115.829 79.2995C115.178 79.2995 114.587 79.177 114.057 78.9318C113.527 78.6822 113.105 78.3234 112.793 77.8554C112.481 77.3829 112.325 76.8124 112.325 76.1438C112.325 75.5554 112.441 75.0785 112.673 74.713C112.905 74.343 113.215 74.0533 113.602 73.8438C113.99 73.6343 114.418 73.4783 114.886 73.3758C115.359 73.2688 115.833 73.1841 116.31 73.1217C116.934 73.0415 117.44 72.9813 117.828 72.9412C118.22 72.8966 118.505 72.8231 118.684 72.7206C118.866 72.6181 118.958 72.4398 118.958 72.1857V72.1322C118.958 71.4725 118.777 70.9599 118.416 70.5944C118.06 70.2289 117.518 70.0462 116.792 70.0462C116.038 70.0462 115.448 70.2111 115.02 70.541C114.592 70.8708 114.291 71.2229 114.117 71.5973L112.619 71.0625C112.887 70.4384 113.244 69.9526 113.689 69.6049C114.139 69.2528 114.63 69.0077 115.16 68.8695C115.695 68.7268 116.221 68.6555 116.738 68.6555C117.068 68.6555 117.447 68.6956 117.875 68.7759C118.307 68.8516 118.724 69.0099 119.125 69.2506C119.531 69.4913 119.867 69.8545 120.134 70.3404C120.402 70.8262 120.536 71.477 120.536 72.2927V79.0588H118.958V77.6682H118.878C118.771 77.891 118.592 78.1295 118.343 78.3836C118.093 78.6376 117.761 78.8538 117.346 79.0321C116.932 79.2104 116.426 79.2995 115.829 79.2995ZM116.069 77.8821C116.693 77.8821 117.219 77.7595 117.647 77.5144C118.08 77.2692 118.405 76.9528 118.623 76.565C118.846 76.1772 118.958 75.7694 118.958 75.3415V73.8973C118.891 73.9775 118.744 74.0511 118.516 74.1179C118.294 74.1803 118.035 74.2361 117.741 74.2851C117.451 74.3297 117.168 74.3698 116.892 74.4054C116.62 74.4366 116.399 74.4634 116.23 74.4857C115.82 74.5391 115.437 74.6261 115.08 74.7464C114.728 74.8623 114.443 75.0384 114.224 75.2746C114.01 75.5064 113.903 75.8228 113.903 76.224C113.903 76.7722 114.106 77.1868 114.512 77.4676C114.922 77.7439 115.441 77.8821 116.069 77.8821ZM123.416 79.0588V68.7892H124.993V79.0588H123.416ZM124.218 67.0776C123.91 67.0776 123.645 66.9729 123.422 66.7634C123.204 66.5539 123.095 66.3021 123.095 66.0079C123.095 65.7137 123.204 65.4619 123.422 65.2524C123.645 65.0429 123.91 64.9381 124.218 64.9381C124.525 64.9381 124.788 65.0429 125.007 65.2524C125.23 65.4619 125.341 65.7137 125.341 66.0079C125.341 66.3021 125.23 66.5539 125.007 66.7634C124.788 66.9729 124.525 67.0776 124.218 67.0776ZM129.461 65.366V79.0588H127.883V65.366H129.461ZM140.669 79.2995C140.018 79.2995 139.427 79.177 138.897 78.9318C138.366 78.6822 137.945 78.3234 137.633 77.8554C137.321 77.3829 137.165 76.8124 137.165 76.1438C137.165 75.5554 137.281 75.0785 137.513 74.713C137.745 74.343 138.054 74.0533 138.442 73.8438C138.83 73.6343 139.258 73.4783 139.726 73.3758C140.198 73.2688 140.673 73.1841 141.15 73.1217C141.774 73.0415 142.28 72.9813 142.668 72.9412C143.06 72.8966 143.345 72.8231 143.524 72.7206C143.706 72.6181 143.798 72.4398 143.798 72.1857V72.1322C143.798 71.4725 143.617 70.9599 143.256 70.5944C142.9 70.2289 142.358 70.0462 141.631 70.0462C140.878 70.0462 140.288 70.2111 139.86 70.541C139.432 70.8708 139.131 71.2229 138.957 71.5973L137.459 71.0625C137.727 70.4384 138.083 69.9526 138.529 69.6049C138.979 69.2528 139.47 69.0077 140 68.8695C140.535 68.7268 141.061 68.6555 141.578 68.6555C141.908 68.6555 142.287 68.6956 142.715 68.7759C143.147 68.8516 143.564 69.0099 143.965 69.2506C144.37 69.4913 144.707 69.8545 144.974 70.3404C145.242 70.8262 145.376 71.477 145.376 72.2927V79.0588H143.798V77.6682H143.717C143.61 77.891 143.432 78.1295 143.183 78.3836C142.933 78.6376 142.601 78.8538 142.186 79.0321C141.772 79.2104 141.266 79.2995 140.669 79.2995ZM140.909 77.8821C141.533 77.8821 142.059 77.7595 142.487 77.5144C142.92 77.2692 143.245 76.9528 143.463 76.565C143.686 76.1772 143.798 75.7694 143.798 75.3415V73.8973C143.731 73.9775 143.584 74.0511 143.356 74.1179C143.134 74.1803 142.875 74.2361 142.581 74.2851C142.291 74.3297 142.008 74.3698 141.732 74.4054C141.46 74.4366 141.239 74.4634 141.07 74.4857C140.66 74.5391 140.276 74.6261 139.92 74.7464C139.568 74.8623 139.282 75.0384 139.064 75.2746C138.85 75.5064 138.743 75.8228 138.743 76.224C138.743 76.7722 138.946 77.1868 139.352 77.4676C139.762 77.7439 140.281 77.8821 140.909 77.8821ZM152.428 79.2728C151.465 79.2728 150.636 79.0455 149.94 78.5908C149.245 78.1362 148.71 77.5099 148.336 76.7121C147.961 75.9142 147.774 75.0027 147.774 73.9775C147.774 72.9345 147.966 72.0141 148.349 71.2162C148.737 70.4139 149.276 69.7877 149.967 69.3375C150.662 68.8828 151.474 68.6555 152.401 68.6555C153.123 68.6555 153.774 68.7892 154.353 69.0567C154.933 69.3241 155.407 69.6985 155.777 70.1799C156.147 70.6613 156.377 71.2229 156.466 71.8648H154.888C154.768 71.3968 154.5 70.9822 154.086 70.6212C153.676 70.2557 153.123 70.0729 152.428 70.0729C151.812 70.0729 151.273 70.2334 150.81 70.5543C150.35 70.8708 149.992 71.3188 149.733 71.8982C149.479 72.4732 149.352 73.1485 149.352 73.924C149.352 74.7174 149.477 75.4083 149.726 75.9967C149.98 76.585 150.337 77.0419 150.796 77.3673C151.26 77.6927 151.804 77.8554 152.428 77.8554C152.838 77.8554 153.21 77.7841 153.544 77.6414C153.878 77.4988 154.161 77.2938 154.393 77.0263C154.625 76.7589 154.79 76.438 154.888 76.0635H156.466C156.377 76.6697 156.156 77.2157 155.804 77.7016C155.456 78.183 154.995 78.5663 154.42 78.8516C153.849 79.1324 153.185 79.2728 152.428 79.2728ZM163.239 68.7892V70.1264H157.917V68.7892H163.239ZM159.468 66.3288H161.046V76.117C161.046 76.5628 161.11 76.8971 161.24 77.1199C161.373 77.3383 161.543 77.4854 161.748 77.5612C161.957 77.6325 162.178 77.6682 162.41 77.6682C162.583 77.6682 162.726 77.6592 162.838 77.6414C162.949 77.6191 163.038 77.6013 163.105 77.5879L163.426 79.0054C163.319 79.0455 163.17 79.0856 162.978 79.1257C162.786 79.1703 162.543 79.1926 162.249 79.1926C161.803 79.1926 161.367 79.0967 160.939 78.9051C160.515 78.7134 160.163 78.4214 159.882 78.0292C159.606 77.637 159.468 77.1422 159.468 76.5449V66.3288ZM165.612 79.0588V68.7892H167.19V79.0588H165.612ZM166.415 67.0776C166.107 67.0776 165.842 66.9729 165.619 66.7634C165.4 66.5539 165.291 66.3021 165.291 66.0079C165.291 65.7137 165.4 65.4619 165.619 65.2524C165.842 65.0429 166.107 64.9381 166.415 64.9381C166.722 64.9381 166.985 65.0429 167.203 65.2524C167.426 65.4619 167.538 65.7137 167.538 66.0079C167.538 66.3021 167.426 66.5539 167.203 66.7634C166.985 66.9729 166.722 67.0776 166.415 67.0776ZM178.478 68.7892L174.68 79.0588H173.075L169.278 68.7892H170.989L173.824 76.9728H173.931L176.766 68.7892H178.478ZM180.56 79.0588V68.7892H182.138V79.0588H180.56ZM181.363 67.0776C181.055 67.0776 180.79 66.9729 180.567 66.7634C180.349 66.5539 180.239 66.3021 180.239 66.0079C180.239 65.7137 180.349 65.4619 180.567 65.2524C180.79 65.0429 181.055 64.9381 181.363 64.9381C181.67 64.9381 181.933 65.0429 182.152 65.2524C182.374 65.4619 182.486 65.7137 182.486 66.0079C182.486 66.3021 182.374 66.5539 182.152 66.7634C181.933 66.9729 181.67 67.0776 181.363 67.0776ZM189.494 68.7892V70.1264H184.172V68.7892H189.494ZM185.723 66.3288H187.301V76.117C187.301 76.5628 187.366 76.8971 187.495 77.1199C187.629 77.3383 187.798 77.4854 188.003 77.5612C188.213 77.6325 188.434 77.6682 188.665 77.6682C188.839 77.6682 188.982 77.6592 189.093 77.6414C189.205 77.6191 189.294 77.6013 189.361 77.5879L189.682 79.0054C189.575 79.0455 189.425 79.0856 189.234 79.1257C189.042 79.1703 188.799 79.1926 188.505 79.1926C188.059 79.1926 187.622 79.0967 187.194 78.9051C186.771 78.7134 186.419 78.4214 186.138 78.0292C185.862 77.637 185.723 77.1422 185.723 76.5449V66.3288ZM191.868 79.0588V68.7892H193.446V79.0588H191.868ZM192.67 67.0776C192.363 67.0776 192.097 66.9729 191.875 66.7634C191.656 66.5539 191.547 66.3021 191.547 66.0079C191.547 65.7137 191.656 65.4619 191.875 65.2524C192.097 65.0429 192.363 64.9381 192.67 64.9381C192.978 64.9381 193.241 65.0429 193.459 65.2524C193.682 65.4619 193.793 65.7137 193.793 66.0079C193.793 66.3021 193.682 66.5539 193.459 66.7634C193.241 66.9729 192.978 67.0776 192.67 67.0776ZM200.641 79.2728C199.652 79.2728 198.798 79.0544 198.081 78.6176C197.368 78.1763 196.817 77.5612 196.429 76.7722C196.046 75.9789 195.854 75.0562 195.854 74.0043C195.854 72.9524 196.046 72.0252 196.429 71.2229C196.817 70.4162 197.356 69.7877 198.047 69.3375C198.743 68.8828 199.554 68.6555 200.481 68.6555C201.016 68.6555 201.544 68.7447 202.066 68.923C202.587 69.1013 203.062 69.391 203.49 69.7921C203.918 70.1888 204.259 70.7148 204.513 71.37C204.767 72.0252 204.894 72.832 204.894 73.7903V74.4589H196.978V73.095H203.289C203.289 72.5155 203.173 71.9985 202.941 71.5438C202.714 71.0892 202.389 70.7304 201.965 70.4674C201.546 70.2044 201.052 70.0729 200.481 70.0729C199.853 70.0729 199.309 70.2289 198.85 70.541C198.395 70.8485 198.045 71.2497 197.8 71.7444C197.555 72.2392 197.432 72.7696 197.432 73.3357V74.245C197.432 75.0205 197.566 75.678 197.833 76.2173C198.105 76.7522 198.482 77.16 198.963 77.4408C199.445 77.7172 200.004 77.8554 200.641 77.8554C201.056 77.8554 201.43 77.7974 201.765 77.6815C202.103 77.5612 202.395 77.3829 202.641 77.1467C202.886 76.906 203.075 76.6073 203.209 76.2507L204.733 76.6786C204.573 77.1957 204.303 77.6503 203.924 78.0426C203.545 78.4304 203.077 78.7335 202.52 78.9519C201.963 79.1658 201.337 79.2728 200.641 79.2728ZM214.568 71.0892L213.151 71.4904C213.062 71.2541 212.93 71.0246 212.756 70.8017C212.587 70.5744 212.355 70.3872 212.061 70.2401C211.767 70.093 211.39 70.0195 210.931 70.0195C210.303 70.0195 209.779 70.1643 209.36 70.454C208.945 70.7393 208.738 71.1026 208.738 71.5438C208.738 71.9361 208.881 72.2459 209.166 72.4732C209.451 72.7005 209.897 72.89 210.503 73.0415L212.028 73.4159C212.946 73.6388 213.63 73.9798 214.08 74.4389C214.53 74.8935 214.755 75.4796 214.755 76.1973C214.755 76.7856 214.586 77.3116 214.247 77.7751C213.913 78.2387 213.445 78.6042 212.843 78.8716C212.242 79.1391 211.542 79.2728 210.744 79.2728C209.696 79.2728 208.83 79.0455 208.143 78.5908C207.457 78.1362 207.022 77.472 206.839 76.5984L208.337 76.224C208.48 76.7767 208.749 77.1912 209.146 77.4676C209.547 77.7439 210.071 77.8821 210.717 77.8821C211.453 77.8821 212.037 77.7261 212.469 77.4141C212.906 77.0976 213.124 76.7188 213.124 76.2775C213.124 75.9209 212.999 75.6223 212.75 75.3816C212.5 75.1364 212.117 74.9537 211.6 74.8333L209.888 74.4322C208.948 74.2093 208.257 73.8639 207.815 73.3959C207.379 72.9234 207.16 72.3328 207.16 71.6241C207.16 71.0446 207.323 70.532 207.648 70.0863C207.978 69.6406 208.426 69.2907 208.992 69.0366C209.563 68.7826 210.209 68.6555 210.931 68.6555C211.947 68.6555 212.745 68.8784 213.325 69.3241C213.909 69.7698 214.323 70.3582 214.568 71.0892ZM225.448 79.2995C224.797 79.2995 224.207 79.177 223.676 78.9318C223.146 78.6822 222.725 78.3234 222.413 77.8554C222.101 77.3829 221.945 76.8124 221.945 76.1438C221.945 75.5554 222.06 75.0785 222.292 74.713C222.524 74.343 222.834 74.0533 223.222 73.8438C223.609 73.6343 224.037 73.4783 224.505 73.3758C224.978 73.2688 225.452 73.1841 225.929 73.1217C226.553 73.0415 227.059 72.9813 227.447 72.9412C227.839 72.8966 228.125 72.8231 228.303 72.7206C228.486 72.6181 228.577 72.4398 228.577 72.1857V72.1322C228.577 71.4725 228.396 70.9599 228.035 70.5944C227.679 70.2289 227.137 70.0462 226.411 70.0462C225.657 70.0462 225.067 70.2111 224.639 70.541C224.211 70.8708 223.91 71.2229 223.736 71.5973L222.239 71.0625C222.506 70.4384 222.863 69.9526 223.308 69.6049C223.759 69.2528 224.249 69.0077 224.779 68.8695C225.314 68.7268 225.84 68.6555 226.357 68.6555C226.687 68.6555 227.066 68.6956 227.494 68.7759C227.926 68.8516 228.343 69.0099 228.744 69.2506C229.15 69.4913 229.486 69.8545 229.754 70.3404C230.021 70.8262 230.155 71.477 230.155 72.2927V79.0588H228.577V77.6682H228.497C228.39 77.891 228.211 78.1295 227.962 78.3836C227.712 78.6376 227.38 78.8538 226.966 79.0321C226.551 79.2104 226.045 79.2995 225.448 79.2995ZM225.689 77.8821C226.313 77.8821 226.839 77.7595 227.267 77.5144C227.699 77.2692 228.024 76.9528 228.243 76.565C228.466 76.1772 228.577 75.7694 228.577 75.3415V73.8973C228.51 73.9775 228.363 74.0511 228.136 74.1179C227.913 74.1803 227.654 74.2361 227.36 74.2851C227.07 74.3297 226.787 74.3698 226.511 74.4054C226.239 74.4366 226.018 74.4634 225.849 74.4857C225.439 74.5391 225.056 74.6261 224.699 74.7464C224.347 74.8623 224.062 75.0384 223.843 75.2746C223.629 75.5064 223.522 75.8228 223.522 76.224C223.522 76.7722 223.725 77.1868 224.131 77.4676C224.541 77.7439 225.06 77.8821 225.689 77.8821ZM234.613 72.881V79.0588H233.035V68.7892H234.559V70.3939H234.693C234.934 69.8724 235.299 69.4534 235.789 69.1369C236.28 68.816 236.913 68.6555 237.688 68.6555C238.384 68.6555 238.992 68.7982 239.513 69.0834C240.035 69.3642 240.441 69.7921 240.73 70.3671C241.02 70.9377 241.165 71.6597 241.165 72.5334V79.0588H239.587V72.6403C239.587 71.8336 239.378 71.2051 238.959 70.7549C238.54 70.3003 237.965 70.0729 237.234 70.0729C236.73 70.0729 236.28 70.1821 235.883 70.4006C235.491 70.619 235.181 70.9377 234.954 71.3566C234.726 71.7756 234.613 72.2838 234.613 72.881ZM247.926 79.2728C247.07 79.2728 246.315 79.0566 245.66 78.6243C245.004 78.1874 244.492 77.5723 244.122 76.7789C243.752 75.9811 243.567 75.0384 243.567 73.9508C243.567 72.8721 243.752 71.9361 244.122 71.1427C244.492 70.3493 245.007 69.7364 245.666 69.3041C246.326 68.8717 247.088 68.6555 247.953 68.6555C248.621 68.6555 249.15 68.767 249.537 68.9898C249.93 69.2082 250.228 69.4578 250.433 69.7386C250.643 70.015 250.805 70.2423 250.921 70.4206H251.055V65.366H252.633V79.0588H251.109V77.481H250.921C250.805 77.6682 250.641 77.9044 250.427 78.1897C250.213 78.4705 249.907 78.7223 249.511 78.9452C249.114 79.1636 248.586 79.2728 247.926 79.2728ZM248.14 77.8554C248.773 77.8554 249.308 77.6905 249.745 77.3606C250.181 77.0263 250.514 76.565 250.741 75.9766C250.968 75.3838 251.082 74.6996 251.082 73.924C251.082 73.1574 250.97 72.4866 250.748 71.9116C250.525 71.3321 250.195 70.8819 249.758 70.561C249.321 70.2356 248.782 70.0729 248.14 70.0729C247.471 70.0729 246.914 70.2445 246.469 70.5878C246.027 70.9265 245.695 71.3878 245.472 71.9717C245.254 72.5512 245.145 73.202 245.145 73.924C245.145 74.655 245.256 75.3192 245.479 75.9164C245.706 76.5093 246.041 76.9817 246.482 77.3339C246.928 77.6815 247.48 77.8554 248.14 77.8554ZM265.209 79.2728C264.246 79.2728 263.417 79.0455 262.722 78.5908C262.027 78.1362 261.492 77.5099 261.117 76.7121C260.743 75.9142 260.556 75.0027 260.556 73.9775C260.556 72.9345 260.747 72.0141 261.131 71.2162C261.519 70.4139 262.058 69.7877 262.749 69.3375C263.444 68.8828 264.255 68.6555 265.182 68.6555C265.905 68.6555 266.555 68.7892 267.135 69.0567C267.714 69.3241 268.189 69.6985 268.559 70.1799C268.929 70.6613 269.158 71.2229 269.248 71.8648H267.67C267.549 71.3968 267.282 70.9822 266.867 70.6212C266.457 70.2557 265.905 70.0729 265.209 70.0729C264.594 70.0729 264.055 70.2334 263.591 70.5543C263.132 70.8708 262.773 71.3188 262.515 71.8982C262.261 72.4732 262.134 73.1485 262.134 73.924C262.134 74.7174 262.258 75.4083 262.508 75.9967C262.762 76.585 263.119 77.0419 263.578 77.3673C264.041 77.6927 264.585 77.8554 265.209 77.8554C265.619 77.8554 265.991 77.7841 266.326 77.6414C266.66 77.4988 266.943 77.2938 267.175 77.0263C267.407 76.7589 267.572 76.438 267.67 76.0635H269.248C269.158 76.6697 268.938 77.2157 268.586 77.7016C268.238 78.183 267.777 78.5663 267.202 78.8516C266.631 79.1324 265.967 79.2728 265.209 79.2728ZM275.726 79.2728C274.799 79.2728 273.986 79.0522 273.286 78.6109C272.59 78.1696 272.047 77.5523 271.654 76.7589C271.267 75.9655 271.073 75.0384 271.073 73.9775C271.073 72.9078 271.267 71.974 271.654 71.1761C272.047 70.3783 272.59 69.7587 273.286 69.3174C273.986 68.8762 274.799 68.6555 275.726 68.6555C276.653 68.6555 277.465 68.8762 278.16 69.3174C278.86 69.7587 279.403 70.3783 279.791 71.1761C280.183 71.974 280.38 72.9078 280.38 73.9775C280.38 75.0384 280.183 75.9655 279.791 76.7589C279.403 77.5523 278.86 78.1696 278.16 78.6109C277.465 79.0522 276.653 79.2728 275.726 79.2728ZM275.726 77.8554C276.43 77.8554 277.01 77.6748 277.465 77.3138C277.919 76.9528 278.256 76.4781 278.474 75.8897C278.692 75.3013 278.802 74.664 278.802 73.9775C278.802 73.2911 278.692 72.6515 278.474 72.0587C278.256 71.4658 277.919 70.9867 277.465 70.6212C277.01 70.2557 276.43 70.0729 275.726 70.0729C275.022 70.0729 274.442 70.2557 273.988 70.6212C273.533 70.9867 273.197 71.4658 272.978 72.0587C272.76 72.6515 272.651 73.2911 272.651 73.9775C272.651 74.664 272.76 75.3013 272.978 75.8897C273.197 76.4781 273.533 76.9528 273.988 77.3138C274.442 77.6748 275.022 77.8554 275.726 77.8554ZM282.788 79.0588V68.7892H284.313V70.3939H284.446C284.66 69.8456 285.006 69.42 285.483 69.1169C285.96 68.8093 286.532 68.6555 287.201 68.6555C287.878 68.6555 288.442 68.8093 288.892 69.1169C289.347 69.42 289.701 69.8456 289.956 70.3939H290.062C290.325 69.8635 290.72 69.4422 291.246 69.1302C291.772 68.8138 292.403 68.6555 293.138 68.6555C294.056 68.6555 294.807 68.943 295.391 69.518C295.975 70.0885 296.267 70.9778 296.267 72.1857V79.0588H294.689V72.1857C294.689 71.428 294.482 70.8864 294.067 70.561C293.653 70.2356 293.165 70.0729 292.603 70.0729C291.881 70.0729 291.322 70.2914 290.925 70.7282C290.528 71.1605 290.33 71.7088 290.33 72.3729V79.0588H288.725V72.0252C288.725 71.4413 288.536 70.9711 288.157 70.6145C287.778 70.2535 287.29 70.0729 286.693 70.0729C286.283 70.0729 285.899 70.1821 285.543 70.4006C285.191 70.619 284.905 70.9221 284.687 71.3098C284.473 71.6932 284.366 72.1367 284.366 72.6403V79.0588H282.788ZM299.152 79.0588V68.7892H300.676V70.3939H300.81C301.024 69.8456 301.37 69.42 301.846 69.1169C302.323 68.8093 302.896 68.6555 303.565 68.6555C304.242 68.6555 304.806 68.8093 305.256 69.1169C305.711 69.42 306.065 69.8456 306.319 70.3939H306.426C306.689 69.8635 307.084 69.4422 307.61 69.1302C308.136 68.8138 308.766 68.6555 309.502 68.6555C310.42 68.6555 311.171 68.943 311.755 69.518C312.339 70.0885 312.631 70.9778 312.631 72.1857V79.0588H311.053V72.1857C311.053 71.428 310.846 70.8864 310.431 70.561C310.017 70.2356 309.529 70.0729 308.967 70.0729C308.245 70.0729 307.685 70.2914 307.289 70.7282C306.892 71.1605 306.694 71.7088 306.694 72.3729V79.0588H305.089V72.0252C305.089 71.4413 304.9 70.9711 304.521 70.6145C304.142 70.2535 303.654 70.0729 303.057 70.0729C302.647 70.0729 302.263 70.1821 301.907 70.4006C301.554 70.619 301.269 70.9221 301.051 71.3098C300.837 71.6932 300.73 72.1367 300.73 72.6403V79.0588H299.152ZM319.822 79.2728C318.832 79.2728 317.978 79.0544 317.261 78.6176C316.548 78.1763 315.997 77.5612 315.609 76.7722C315.226 75.9789 315.034 75.0562 315.034 74.0043C315.034 72.9524 315.226 72.0252 315.609 71.2229C315.997 70.4162 316.537 69.7877 317.227 69.3375C317.923 68.8828 318.734 68.6555 319.661 68.6555C320.196 68.6555 320.724 68.7447 321.246 68.923C321.767 69.1013 322.242 69.391 322.67 69.7921C323.098 70.1888 323.439 70.7148 323.693 71.37C323.947 72.0252 324.074 72.832 324.074 73.7903V74.4589H316.158V73.095H322.469C322.469 72.5155 322.353 71.9985 322.122 71.5438C321.894 71.0892 321.569 70.7304 321.145 70.4674C320.726 70.2044 320.232 70.0729 319.661 70.0729C319.033 70.0729 318.489 70.2289 318.03 70.541C317.575 70.8485 317.225 71.2497 316.98 71.7444C316.735 72.2392 316.612 72.7696 316.612 73.3357V74.245C316.612 75.0205 316.746 75.678 317.013 76.2173C317.285 76.7522 317.662 77.16 318.143 77.4408C318.625 77.7172 319.184 77.8554 319.822 77.8554C320.236 77.8554 320.611 77.7974 320.945 77.6815C321.284 77.5612 321.576 77.3829 321.821 77.1467C322.066 76.906 322.255 76.6073 322.389 76.2507L323.913 76.6786C323.753 77.1957 323.483 77.6503 323.104 78.0426C322.726 78.4304 322.257 78.7335 321.7 78.9519C321.143 79.1658 320.517 79.2728 319.822 79.2728ZM328.052 72.881V79.0588H326.474V68.7892H327.998V70.3939H328.132C328.373 69.8724 328.738 69.4534 329.229 69.1369C329.719 68.816 330.352 68.6555 331.127 68.6555C331.823 68.6555 332.431 68.7982 332.953 69.0834C333.474 69.3642 333.88 69.7921 334.17 70.3671C334.459 70.9377 334.604 71.6597 334.604 72.5334V79.0588H333.026V72.6403C333.026 71.8336 332.817 71.2051 332.398 70.7549C331.979 70.3003 331.404 70.0729 330.673 70.0729C330.169 70.0729 329.719 70.1821 329.322 70.4006C328.93 70.619 328.62 70.9377 328.393 71.3566C328.166 71.7756 328.052 72.2838 328.052 72.881ZM341.954 68.7892V70.1264H336.632V68.7892H341.954ZM338.183 66.3288H339.761V76.117C339.761 76.5628 339.825 76.8971 339.955 77.1199C340.088 77.3383 340.258 77.4854 340.463 77.5612C340.672 77.6325 340.893 77.6682 341.125 77.6682C341.298 77.6682 341.441 77.6592 341.553 77.6414C341.664 77.6191 341.753 77.6013 341.82 77.5879L342.141 79.0054C342.034 79.0455 341.885 79.0856 341.693 79.1257C341.501 79.1703 341.258 79.1926 340.964 79.1926C340.518 79.1926 340.082 79.0967 339.654 78.9051C339.23 78.7134 338.878 78.4214 338.597 78.0292C338.321 77.637 338.183 77.1422 338.183 76.5449V66.3288ZM351.418 71.0892L350 71.4904C349.911 71.2541 349.78 71.0246 349.606 70.8017C349.436 70.5744 349.205 70.3872 348.91 70.2401C348.616 70.093 348.24 70.0195 347.78 70.0195C347.152 70.0195 346.628 70.1643 346.209 70.454C345.795 70.7393 345.587 71.1026 345.587 71.5438C345.587 71.9361 345.73 72.2459 346.015 72.4732C346.301 72.7005 346.746 72.89 347.353 73.0415L348.877 73.4159C349.795 73.6388 350.479 73.9798 350.93 74.4389C351.38 74.8935 351.605 75.4796 351.605 76.1973C351.605 76.7856 351.435 77.3116 351.097 77.7751C350.762 78.2387 350.294 78.6042 349.693 78.8716C349.091 79.1391 348.391 79.2728 347.593 79.2728C346.546 79.2728 345.679 79.0455 344.992 78.5908C344.306 78.1362 343.871 77.472 343.689 76.5984L345.186 76.224C345.329 76.7767 345.599 77.1912 345.995 77.4676C346.396 77.7439 346.92 77.8821 347.567 77.8821C348.302 77.8821 348.886 77.7261 349.318 77.4141C349.755 77.0976 349.973 76.7188 349.973 76.2775C349.973 75.9209 349.849 75.6223 349.599 75.3816C349.349 75.1364 348.966 74.9537 348.449 74.8333L346.737 74.4322C345.797 74.2093 345.106 73.8639 344.665 73.3959C344.228 72.9234 344.01 72.3328 344.01 71.6241C344.01 71.0446 344.172 70.532 344.498 70.0863C344.828 69.6406 345.275 69.2907 345.842 69.0366C346.412 68.7826 347.058 68.6555 347.78 68.6555C348.797 68.6555 349.595 68.8784 350.174 69.3241C350.758 69.7698 351.172 70.3582 351.418 71.0892ZM360.051 79.0588H358.313L363.34 65.366H365.052L370.08 79.0588H368.341L364.25 67.5323H364.143L360.051 79.0588ZM360.693 73.7101H367.7V75.181H360.693V73.7101ZM372.213 79.0588V65.366H376.839C377.913 65.366 378.792 65.5599 379.473 65.9477C380.16 66.3311 380.668 66.8503 380.998 67.5055C381.328 68.1608 381.493 68.8918 381.493 69.6985C381.493 70.5053 381.328 71.2385 380.998 71.8982C380.672 72.5579 380.169 73.0838 379.487 73.4761C378.805 73.8639 377.931 74.0578 376.866 74.0578H373.55V72.5869H376.812C377.548 72.5869 378.139 72.4598 378.584 72.2058C379.03 71.9517 379.353 71.6085 379.554 71.1761C379.759 70.7393 379.861 70.2468 379.861 69.6985C379.861 69.1503 379.759 68.66 379.554 68.2276C379.353 67.7953 379.028 67.4565 378.578 67.2114C378.127 66.9618 377.53 66.837 376.786 66.837H373.871V79.0588H372.213ZM385.822 65.366V79.0588H384.164V65.366H385.822ZM35.7714 108.273C34.7819 108.273 33.9283 108.054 33.2107 107.618C32.4975 107.176 31.947 106.561 31.5592 105.772C31.1759 104.979 30.9843 104.056 30.9843 103.004C30.9843 101.952 31.1759 101.025 31.5592 100.223C31.947 99.4162 32.4864 98.7877 33.1772 98.3375C33.8726 97.8828 34.6838 97.6555 35.6109 97.6555C36.1458 97.6555 36.674 97.7447 37.1955 97.923C37.717 98.1013 38.1917 98.391 38.6196 98.7921C39.0475 99.1888 39.3885 99.7148 39.6425 100.37C39.8966 101.025 40.0236 101.832 40.0236 102.79V103.459H32.1075V102.095H38.419C38.419 101.516 38.3031 100.998 38.0713 100.544C37.844 100.089 37.5186 99.7304 37.0952 99.4674C36.6762 99.2044 36.1815 99.0729 35.6109 99.0729C34.9824 99.0729 34.4387 99.2289 33.9796 99.541C33.5249 99.8485 33.175 100.25 32.9299 100.744C32.6847 101.239 32.5621 101.77 32.5621 102.336V103.245C32.5621 104.021 32.6959 104.678 32.9633 105.217C33.2352 105.752 33.6118 106.16 34.0932 106.441C34.5746 106.717 35.134 106.855 35.7714 106.855C36.1859 106.855 36.5603 106.797 36.8946 106.682C37.2334 106.561 37.5253 106.383 37.7705 106.147C38.0156 105.906 38.2051 105.607 38.3388 105.251L39.8632 105.679C39.7027 106.196 39.433 106.65 39.0542 107.043C38.6753 107.43 38.2073 107.733 37.6501 107.952C37.093 108.166 36.4667 108.273 35.7714 108.273ZM44.0018 101.881V108.059H42.4239V97.7892H43.9483V99.3939H44.082C44.3227 98.8724 44.6882 98.4534 45.1785 98.1369C45.6688 97.816 46.3017 97.6555 47.0773 97.6555C47.7726 97.6555 48.3811 97.7982 48.9026 98.0834C49.4241 98.3642 49.8297 98.7921 50.1194 99.3671C50.4091 99.9377 50.554 100.66 50.554 101.533V108.059H48.9761V101.64C48.9761 100.834 48.7666 100.205 48.3476 99.7549C47.9286 99.3003 47.3537 99.0729 46.6227 99.0729C46.119 99.0729 45.6688 99.1821 45.2721 99.4006C44.8799 99.619 44.5701 99.9377 44.3428 100.357C44.1154 100.776 44.0018 101.284 44.0018 101.881ZM57.3151 108.273C56.4593 108.273 55.7038 108.057 55.0486 107.624C54.3934 107.187 53.8808 106.572 53.5108 105.779C53.1409 104.981 52.9559 104.038 52.9559 102.951C52.9559 101.872 53.1409 100.936 53.5108 100.143C53.8808 99.3493 54.3956 98.7364 55.0553 98.3041C55.715 97.8717 56.4772 97.6555 57.3419 97.6555C58.0105 97.6555 58.5387 97.767 58.9264 97.9898C59.3187 98.2082 59.6173 98.4578 59.8224 98.7386C60.0319 99.015 60.1945 99.2423 60.3104 99.4206H60.4442V94.366H62.022V108.059H60.4976V106.481H60.3104C60.1945 106.668 60.0296 106.904 59.8157 107.19C59.6017 107.47 59.2964 107.722 58.8997 107.945C58.503 108.164 57.9748 108.273 57.3151 108.273ZM57.5291 106.855C58.162 106.855 58.6969 106.69 59.1337 106.361C59.5705 106.026 59.9026 105.565 60.1299 104.977C60.3572 104.384 60.4709 103.7 60.4709 102.924C60.4709 102.157 60.3595 101.487 60.1366 100.912C59.9137 100.332 59.5839 99.8819 59.1471 99.561C58.7103 99.2356 58.1709 99.0729 57.5291 99.0729C56.8605 99.0729 56.3033 99.2445 55.8576 99.5878C55.4163 99.9265 55.0843 100.388 54.8614 100.972C54.643 101.551 54.5338 102.202 54.5338 102.924C54.5338 103.655 54.6452 104.319 54.8681 104.916C55.0954 105.509 55.4297 105.982 55.871 106.334C56.3167 106.682 56.8694 106.855 57.5291 106.855ZM65.131 111.91V97.7892H66.6554V99.4206H66.8426C66.9585 99.2423 67.1189 99.015 67.324 98.7386C67.5335 98.4578 67.8321 98.2082 68.2199 97.9898C68.6121 97.767 69.1426 97.6555 69.8111 97.6555C70.6759 97.6555 71.4381 97.8717 72.0977 98.3041C72.7574 98.7364 73.2722 99.3493 73.6422 100.143C74.0121 100.936 74.1971 101.872 74.1971 102.951C74.1971 104.038 74.0121 104.981 73.6422 105.779C73.2722 106.572 72.7596 107.187 72.1044 107.624C71.4492 108.057 70.6937 108.273 69.8379 108.273C69.1782 108.273 68.65 108.164 68.2533 107.945C67.8566 107.722 67.5513 107.47 67.3373 107.19C67.1234 106.904 66.9585 106.668 66.8426 106.481H66.7089V111.91H65.131ZM66.6821 102.924C66.6821 103.7 66.7958 104.384 67.0231 104.977C67.2504 105.565 67.5825 106.026 68.0193 106.361C68.4561 106.69 68.991 106.855 69.6239 106.855C70.2836 106.855 70.8341 106.682 71.2754 106.334C71.7211 105.982 72.0554 105.509 72.2783 104.916C72.5056 104.319 72.6192 103.655 72.6192 102.924C72.6192 102.202 72.5078 101.551 72.2849 100.972C72.0665 100.388 71.7345 99.9265 71.2887 99.5878C70.8475 99.2445 70.2925 99.0729 69.6239 99.0729C68.9821 99.0729 68.4428 99.2356 68.0059 99.561C67.5691 99.8819 67.2393 100.332 67.0164 100.912C66.7936 101.487 66.6821 102.157 66.6821 102.924ZM80.7761 108.273C79.849 108.273 79.0355 108.052 78.3357 107.611C77.6404 107.17 77.0966 106.552 76.7043 105.759C76.3166 104.965 76.1227 104.038 76.1227 102.978C76.1227 101.908 76.3166 100.974 76.7043 100.176C77.0966 99.3783 77.6404 98.7587 78.3357 98.3174C79.0355 97.8762 79.849 97.6555 80.7761 97.6555C81.7032 97.6555 82.5144 97.8762 83.2098 98.3174C83.9095 98.7587 84.4533 99.3783 84.8411 100.176C85.2334 100.974 85.4295 101.908 85.4295 102.978C85.4295 104.038 85.2334 104.965 84.8411 105.759C84.4533 106.552 83.9095 107.17 83.2098 107.611C82.5144 108.052 81.7032 108.273 80.7761 108.273ZM80.7761 106.855C81.4803 106.855 82.0598 106.675 82.5144 106.314C82.9691 105.953 83.3056 105.478 83.524 104.89C83.7424 104.301 83.8516 103.664 83.8516 102.978C83.8516 102.291 83.7424 101.651 83.524 101.059C83.3056 100.466 82.9691 99.9867 82.5144 99.6212C82.0598 99.2557 81.4803 99.0729 80.7761 99.0729C80.0718 99.0729 79.4924 99.2557 79.0377 99.6212C78.5831 99.9867 78.2466 100.466 78.0282 101.059C77.8097 101.651 77.7005 102.291 77.7005 102.978C77.7005 103.664 77.8097 104.301 78.0282 104.89C78.2466 105.478 78.5831 105.953 79.0377 106.314C79.4924 106.675 80.0718 106.855 80.7761 106.855ZM87.8381 108.059V97.7892H89.416V108.059H87.8381ZM88.6404 96.0776C88.3328 96.0776 88.0676 95.9729 87.8448 95.7634C87.6264 95.5539 87.5172 95.3021 87.5172 95.0079C87.5172 94.7137 87.6264 94.4619 87.8448 94.2524C88.0676 94.0429 88.3328 93.9381 88.6404 93.9381C88.948 93.9381 89.2109 94.0429 89.4293 94.2524C89.6522 94.4619 89.7636 94.7137 89.7636 95.0079C89.7636 95.3021 89.6522 95.5539 89.4293 95.7634C89.2109 95.9729 88.948 96.0776 88.6404 96.0776ZM93.8838 101.881V108.059H92.306V97.7892H93.8304V99.3939H93.9641C94.2048 98.8724 94.5703 98.4534 95.0606 98.1369C95.5509 97.816 96.1838 97.6555 96.9594 97.6555C97.6547 97.6555 98.2631 97.7982 98.7846 98.0834C99.3061 98.3642 99.7117 98.7921 100.001 99.3671C100.291 99.9377 100.436 100.66 100.436 101.533V108.059H98.8582V101.64C98.8582 100.834 98.6487 100.205 98.2297 99.7549C97.8107 99.3003 97.2357 99.0729 96.5047 99.0729C96.0011 99.0729 95.5509 99.1821 95.1542 99.4006C94.7619 99.619 94.4521 99.9377 94.2248 100.357C93.9975 100.776 93.8838 101.284 93.8838 101.881ZM107.786 97.7892V99.1264H102.464V97.7892H107.786ZM104.015 95.3288H105.593V105.117C105.593 105.563 105.657 105.897 105.786 106.12C105.92 106.338 106.09 106.485 106.295 106.561C106.504 106.633 106.725 106.668 106.957 106.668C107.13 106.668 107.273 106.659 107.384 106.641C107.496 106.619 107.585 106.601 107.652 106.588L107.973 108.005C107.866 108.045 107.716 108.086 107.525 108.126C107.333 108.17 107.09 108.193 106.796 108.193C106.35 108.193 105.914 108.097 105.486 107.905C105.062 107.713 104.71 107.421 104.429 107.029C104.153 106.637 104.015 106.142 104.015 105.545V95.3288ZM117.25 100.089L115.832 100.49C115.743 100.254 115.611 100.025 115.438 99.8017C115.268 99.5744 115.036 99.3872 114.742 99.2401C114.448 99.093 114.071 99.0195 113.612 99.0195C112.984 99.0195 112.46 99.1643 112.041 99.454C111.627 99.7393 111.419 100.103 111.419 100.544C111.419 100.936 111.562 101.246 111.847 101.473C112.133 101.701 112.578 101.89 113.184 102.041L114.709 102.416C115.627 102.639 116.311 102.98 116.761 103.439C117.212 103.894 117.437 104.48 117.437 105.197C117.437 105.786 117.267 106.312 116.929 106.775C116.594 107.239 116.126 107.604 115.525 107.872C114.923 108.139 114.223 108.273 113.425 108.273C112.378 108.273 111.511 108.045 110.824 107.591C110.138 107.136 109.703 106.472 109.521 105.598L111.018 105.224C111.161 105.777 111.431 106.191 111.827 106.468C112.228 106.744 112.752 106.882 113.398 106.882C114.134 106.882 114.718 106.726 115.15 106.414C115.587 106.098 115.805 105.719 115.805 105.277C115.805 104.921 115.681 104.622 115.431 104.382C115.181 104.136 114.798 103.954 114.281 103.833L112.569 103.432C111.629 103.209 110.938 102.864 110.497 102.396C110.06 101.923 109.841 101.333 109.841 100.624C109.841 100.045 110.004 99.532 110.33 99.0863C110.659 98.6406 111.107 98.2907 111.673 98.0366C112.244 97.7826 112.89 97.6555 113.612 97.6555C114.629 97.6555 115.426 97.8784 116.006 98.3241C116.59 98.7698 117.004 99.3582 117.25 100.089ZM122.165 106.187L122.058 106.909C121.983 107.417 121.867 107.961 121.711 108.54C121.559 109.12 121.401 109.666 121.236 110.178C121.071 110.691 120.935 111.099 120.828 111.402H119.625C119.683 111.117 119.758 110.74 119.852 110.272C119.946 109.804 120.039 109.28 120.133 108.701C120.231 108.126 120.311 107.537 120.374 106.936L120.454 106.187H122.165ZM133.406 108.3C132.755 108.3 132.165 108.177 131.634 107.932C131.104 107.682 130.683 107.323 130.371 106.855C130.059 106.383 129.903 105.812 129.903 105.144C129.903 104.555 130.019 104.078 130.25 103.713C130.482 103.343 130.792 103.053 131.18 102.844C131.567 102.634 131.995 102.478 132.463 102.376C132.936 102.269 133.411 102.184 133.887 102.122C134.511 102.041 135.017 101.981 135.405 101.941C135.797 101.897 136.083 101.823 136.261 101.721C136.444 101.618 136.535 101.44 136.535 101.186V101.132C136.535 100.473 136.355 99.9599 135.994 99.5944C135.637 99.2289 135.095 99.0462 134.369 99.0462C133.616 99.0462 133.025 99.2111 132.597 99.541C132.169 99.8708 131.868 100.223 131.694 100.597L130.197 100.062C130.464 99.4384 130.821 98.9526 131.267 98.6049C131.717 98.2528 132.207 98.0077 132.737 97.8695C133.272 97.7268 133.798 97.6555 134.315 97.6555C134.645 97.6555 135.024 97.6956 135.452 97.7759C135.884 97.8516 136.301 98.0099 136.702 98.2506C137.108 98.4913 137.444 98.8545 137.712 99.3404C137.979 99.8262 138.113 100.477 138.113 101.293V108.059H136.535V106.668H136.455C136.348 106.891 136.17 107.129 135.92 107.384C135.67 107.638 135.338 107.854 134.924 108.032C134.509 108.21 134.003 108.3 133.406 108.3ZM133.647 106.882C134.271 106.882 134.797 106.76 135.225 106.514C135.657 106.269 135.982 105.953 136.201 105.565C136.424 105.177 136.535 104.769 136.535 104.341V102.897C136.468 102.978 136.321 103.051 136.094 103.118C135.871 103.18 135.612 103.236 135.318 103.285C135.029 103.33 134.745 103.37 134.469 103.405C134.197 103.437 133.977 103.463 133.807 103.486C133.397 103.539 133.014 103.626 132.657 103.746C132.305 103.862 132.02 104.038 131.801 104.275C131.587 104.506 131.481 104.823 131.481 105.224C131.481 105.772 131.683 106.187 132.089 106.468C132.499 106.744 133.018 106.882 133.647 106.882ZM142.571 101.881V108.059H140.993V97.7892H142.517V99.3939H142.651C142.892 98.8724 143.257 98.4534 143.748 98.1369C144.238 97.816 144.871 97.6555 145.646 97.6555C146.342 97.6555 146.95 97.7982 147.472 98.0834C147.993 98.3642 148.399 98.7921 148.688 99.3671C148.978 99.9377 149.123 100.66 149.123 101.533V108.059H147.545V101.64C147.545 100.834 147.336 100.205 146.917 99.7549C146.498 99.3003 145.923 99.0729 145.192 99.0729C144.688 99.0729 144.238 99.1821 143.841 99.4006C143.449 99.619 143.139 99.9377 142.912 100.357C142.684 100.776 142.571 101.284 142.571 101.881ZM155.884 108.273C155.028 108.273 154.273 108.057 153.618 107.624C152.962 107.187 152.45 106.572 152.08 105.779C151.71 104.981 151.525 104.038 151.525 102.951C151.525 101.872 151.71 100.936 152.08 100.143C152.45 99.3493 152.965 98.7364 153.624 98.3041C154.284 97.8717 155.046 97.6555 155.911 97.6555C156.58 97.6555 157.108 97.767 157.495 97.9898C157.888 98.2082 158.186 98.4578 158.391 98.7386C158.601 99.015 158.764 99.2423 158.879 99.4206H159.013V94.366H160.591V108.059H159.067V106.481H158.879C158.764 106.668 158.599 106.904 158.385 107.19C158.171 107.47 157.865 107.722 157.469 107.945C157.072 108.164 156.544 108.273 155.884 108.273ZM156.098 106.855C156.731 106.855 157.266 106.69 157.703 106.361C158.14 106.026 158.472 105.565 158.699 104.977C158.926 104.384 159.04 103.7 159.04 102.924C159.04 102.157 158.928 101.487 158.706 100.912C158.483 100.332 158.153 99.8819 157.716 99.561C157.279 99.2356 156.74 99.0729 156.098 99.0729C155.43 99.0729 154.872 99.2445 154.427 99.5878C153.985 99.9265 153.653 100.388 153.43 100.972C153.212 101.551 153.103 102.202 153.103 102.924C153.103 103.655 153.214 104.319 153.437 104.916C153.664 105.509 153.999 105.982 154.44 106.334C154.886 106.682 155.438 106.855 156.098 106.855ZM172.873 108.273C172.017 108.273 171.262 108.057 170.607 107.624C169.951 107.187 169.439 106.572 169.069 105.779C168.699 104.981 168.514 104.038 168.514 102.951C168.514 101.872 168.699 100.936 169.069 100.143C169.439 99.3493 169.954 98.7364 170.613 98.3041C171.273 97.8717 172.035 97.6555 172.9 97.6555C173.568 97.6555 174.097 97.767 174.484 97.9898C174.877 98.2082 175.175 98.4578 175.38 98.7386C175.59 99.015 175.753 99.2423 175.868 99.4206H176.002V94.366H177.58V108.059H176.056V106.481H175.868C175.753 106.668 175.588 106.904 175.374 107.19C175.16 107.47 174.854 107.722 174.458 107.945C174.061 108.164 173.533 108.273 172.873 108.273ZM173.087 106.855C173.72 106.855 174.255 106.69 174.692 106.361C175.129 106.026 175.461 105.565 175.688 104.977C175.915 104.384 176.029 103.7 176.029 102.924C176.029 102.157 175.917 101.487 175.695 100.912C175.472 100.332 175.142 99.8819 174.705 99.561C174.268 99.2356 173.729 99.0729 173.087 99.0729C172.418 99.0729 171.861 99.2445 171.416 99.5878C170.974 99.9265 170.642 100.388 170.419 100.972C170.201 101.551 170.092 102.202 170.092 102.924C170.092 103.655 170.203 104.319 170.426 104.916C170.653 105.509 170.988 105.982 171.429 106.334C171.875 106.682 172.427 106.855 173.087 106.855ZM184.861 108.273C183.934 108.273 183.12 108.052 182.421 107.611C181.725 107.17 181.182 106.552 180.789 105.759C180.401 104.965 180.208 104.038 180.208 102.978C180.208 101.908 180.401 100.974 180.789 100.176C181.182 99.3783 181.725 98.7587 182.421 98.3174C183.12 97.8762 183.934 97.6555 184.861 97.6555C185.788 97.6555 186.599 97.8762 187.295 98.3174C187.994 98.7587 188.538 99.3783 188.926 100.176C189.318 100.974 189.514 101.908 189.514 102.978C189.514 104.038 189.318 104.965 188.926 105.759C188.538 106.552 187.994 107.17 187.295 107.611C186.599 108.052 185.788 108.273 184.861 108.273ZM184.861 106.855C185.565 106.855 186.145 106.675 186.599 106.314C187.054 105.953 187.391 105.478 187.609 104.89C187.827 104.301 187.937 103.664 187.937 102.978C187.937 102.291 187.827 101.651 187.609 101.059C187.391 100.466 187.054 99.9867 186.599 99.6212C186.145 99.2557 185.565 99.0729 184.861 99.0729C184.157 99.0729 183.577 99.2557 183.123 99.6212C182.668 99.9867 182.331 100.466 182.113 101.059C181.895 101.651 181.785 102.291 181.785 102.978C181.785 103.664 181.895 104.301 182.113 104.89C182.331 105.478 182.668 105.953 183.123 106.314C183.577 106.675 184.157 106.855 184.861 106.855ZM196.095 108.273C195.132 108.273 194.303 108.045 193.608 107.591C192.913 107.136 192.378 106.51 192.003 105.712C191.629 104.914 191.442 104.003 191.442 102.978C191.442 101.935 191.633 101.014 192.017 100.216C192.404 99.4139 192.944 98.7877 193.635 98.3375C194.33 97.8828 195.141 97.6555 196.068 97.6555C196.79 97.6555 197.441 97.7892 198.021 98.0567C198.6 98.3241 199.075 98.6985 199.445 99.1799C199.815 99.6613 200.044 100.223 200.133 100.865H198.555C198.435 100.397 198.168 99.9822 197.753 99.6212C197.343 99.2557 196.79 99.0729 196.095 99.0729C195.48 99.0729 194.941 99.2334 194.477 99.5543C194.018 99.8708 193.659 100.319 193.401 100.898C193.147 101.473 193.02 102.148 193.02 102.924C193.02 103.717 193.144 104.408 193.394 104.997C193.648 105.585 194.005 106.042 194.464 106.367C194.927 106.693 195.471 106.855 196.095 106.855C196.505 106.855 196.877 106.784 197.212 106.641C197.546 106.499 197.829 106.294 198.061 106.026C198.292 105.759 198.457 105.438 198.555 105.064H200.133C200.044 105.67 199.824 106.216 199.471 106.702C199.124 107.183 198.662 107.566 198.087 107.852C197.517 108.132 196.853 108.273 196.095 108.273ZM208.912 103.86V97.7892H210.49V108.059H208.912V106.32H208.805C208.564 106.842 208.19 107.285 207.682 107.651C207.174 108.012 206.532 108.193 205.756 108.193C205.114 108.193 204.544 108.052 204.045 107.771C203.545 107.486 203.153 107.058 202.868 106.488C202.583 105.913 202.44 105.188 202.44 104.315V97.7892H204.018V104.208C204.018 104.957 204.227 105.554 204.646 106C205.07 106.445 205.609 106.668 206.264 106.668C206.657 106.668 207.056 106.568 207.461 106.367C207.871 106.167 208.214 105.859 208.491 105.445C208.772 105.03 208.912 104.502 208.912 103.86ZM213.38 108.059V97.7892H214.904V99.3939H215.038C215.252 98.8456 215.597 98.42 216.074 98.1169C216.551 97.8093 217.124 97.6555 217.793 97.6555C218.47 97.6555 219.034 97.8093 219.484 98.1169C219.939 98.42 220.293 98.8456 220.547 99.3939H220.654C220.917 98.8635 221.312 98.4422 221.838 98.1302C222.364 97.8138 222.994 97.6555 223.73 97.6555C224.648 97.6555 225.399 97.943 225.983 98.518C226.567 99.0885 226.859 99.9778 226.859 101.186V108.059H225.281V101.186C225.281 100.428 225.074 99.8864 224.659 99.561C224.244 99.2356 223.756 99.0729 223.195 99.0729C222.473 99.0729 221.913 99.2914 221.517 99.7282C221.12 100.161 220.922 100.709 220.922 101.373V108.059H219.317V101.025C219.317 100.441 219.128 99.9711 218.749 99.6145C218.37 99.2535 217.882 99.0729 217.284 99.0729C216.874 99.0729 216.491 99.1821 216.134 99.4006C215.782 99.619 215.497 99.9221 215.279 100.31C215.065 100.693 214.958 101.137 214.958 101.64V108.059H213.38ZM234.049 108.273C233.06 108.273 232.206 108.054 231.489 107.618C230.776 107.176 230.225 106.561 229.837 105.772C229.454 104.979 229.262 104.056 229.262 103.004C229.262 101.952 229.454 101.025 229.837 100.223C230.225 99.4162 230.764 98.7877 231.455 98.3375C232.151 97.8828 232.962 97.6555 233.889 97.6555C234.424 97.6555 234.952 97.7447 235.474 97.923C235.995 98.1013 236.47 98.391 236.898 98.7921C237.326 99.1888 237.667 99.7148 237.921 100.37C238.175 101.025 238.302 101.832 238.302 102.79V103.459H230.386V102.095H236.697C236.697 101.516 236.581 100.998 236.349 100.544C236.122 100.089 235.797 99.7304 235.373 99.4674C234.954 99.2044 234.459 99.0729 233.889 99.0729C233.26 99.0729 232.717 99.2289 232.258 99.541C231.803 99.8485 231.453 100.25 231.208 100.744C230.963 101.239 230.84 101.77 230.84 102.336V103.245C230.84 104.021 230.974 104.678 231.241 105.217C231.513 105.752 231.89 106.16 232.371 106.441C232.853 106.717 233.412 106.855 234.049 106.855C234.464 106.855 234.838 106.797 235.173 106.682C235.511 106.561 235.803 106.383 236.049 106.147C236.294 105.906 236.483 105.607 236.617 105.251L238.141 105.679C237.981 106.196 237.711 106.65 237.332 107.043C236.953 107.43 236.485 107.733 235.928 107.952C235.371 108.166 234.745 108.273 234.049 108.273ZM242.28 101.881V108.059H240.702V97.7892H242.226V99.3939H242.36C242.601 98.8724 242.966 98.4534 243.457 98.1369C243.947 97.816 244.58 97.6555 245.355 97.6555C246.051 97.6555 246.659 97.7982 247.181 98.0834C247.702 98.3642 248.108 98.7921 248.397 99.3671C248.687 99.9377 248.832 100.66 248.832 101.533V108.059H247.254V101.64C247.254 100.834 247.045 100.205 246.626 99.7549C246.207 99.3003 245.632 99.0729 244.901 99.0729C244.397 99.0729 243.947 99.1821 243.55 99.4006C243.158 99.619 242.848 99.9377 242.621 100.357C242.393 100.776 242.28 101.284 242.28 101.881ZM256.182 97.7892V99.1264H250.86V97.7892H256.182ZM252.411 95.3288H253.989V105.117C253.989 105.563 254.053 105.897 254.182 106.12C254.316 106.338 254.486 106.485 254.691 106.561C254.9 106.633 255.121 106.668 255.352 106.668C255.526 106.668 255.669 106.659 255.78 106.641C255.892 106.619 255.981 106.601 256.048 106.588L256.369 108.005C256.262 108.045 256.112 108.086 255.921 108.126C255.729 108.17 255.486 108.193 255.192 108.193C254.746 108.193 254.309 108.097 253.882 107.905C253.458 107.713 253.106 107.421 252.825 107.029C252.549 106.637 252.411 106.142 252.411 105.545V95.3288ZM261.577 108.3C260.926 108.3 260.336 108.177 259.805 107.932C259.275 107.682 258.854 107.323 258.542 106.855C258.23 106.383 258.074 105.812 258.074 105.144C258.074 104.555 258.19 104.078 258.421 103.713C258.653 103.343 258.963 103.053 259.351 102.844C259.738 102.634 260.166 102.478 260.634 102.376C261.107 102.269 261.582 102.184 262.058 102.122C262.682 102.041 263.188 101.981 263.576 101.941C263.968 101.897 264.254 101.823 264.432 101.721C264.615 101.618 264.706 101.44 264.706 101.186V101.132C264.706 100.473 264.526 99.9599 264.165 99.5944C263.808 99.2289 263.266 99.0462 262.54 99.0462C261.787 99.0462 261.196 99.2111 260.768 99.541C260.34 99.8708 260.039 100.223 259.865 100.597L258.368 100.062C258.635 99.4384 258.992 98.9526 259.438 98.6049C259.888 98.2528 260.378 98.0077 260.908 97.8695C261.443 97.7268 261.969 97.6555 262.486 97.6555C262.816 97.6555 263.195 97.6956 263.623 97.7759C264.055 97.8516 264.472 98.0099 264.873 98.2506C265.279 98.4913 265.615 98.8545 265.883 99.3404C266.15 99.8262 266.284 100.477 266.284 101.293V108.059H264.706V106.668H264.626C264.519 106.891 264.341 107.129 264.091 107.384C263.841 107.638 263.509 107.854 263.095 108.032C262.68 108.21 262.174 108.3 261.577 108.3ZM261.818 106.882C262.442 106.882 262.968 106.76 263.396 106.514C263.828 106.269 264.153 105.953 264.372 105.565C264.595 105.177 264.706 104.769 264.706 104.341V102.897C264.639 102.978 264.492 103.051 264.265 103.118C264.042 103.18 263.783 103.236 263.489 103.285C263.2 103.33 262.916 103.37 262.64 103.405C262.368 103.437 262.148 103.463 261.978 103.486C261.568 103.539 261.185 103.626 260.828 103.746C260.476 103.862 260.191 104.038 259.972 104.275C259.758 104.506 259.652 104.823 259.652 105.224C259.652 105.772 259.854 106.187 260.26 106.468C260.67 106.744 261.189 106.882 261.818 106.882ZM273.63 97.7892V99.1264H268.308V97.7892H273.63ZM269.859 95.3288H271.437V105.117C271.437 105.563 271.502 105.897 271.631 106.12C271.765 106.338 271.934 106.485 272.139 106.561C272.349 106.633 272.569 106.668 272.801 106.668C272.975 106.668 273.118 106.659 273.229 106.641C273.34 106.619 273.43 106.601 273.496 106.588L273.817 108.005C273.71 108.045 273.561 108.086 273.369 108.126C273.178 108.17 272.935 108.193 272.641 108.193C272.195 108.193 271.758 108.097 271.33 107.905C270.907 107.713 270.555 107.421 270.274 107.029C269.997 106.637 269.859 106.142 269.859 105.545V95.3288ZM276.004 108.059V97.7892H277.582V108.059H276.004ZM276.806 96.0776C276.498 96.0776 276.233 95.9729 276.01 95.7634C275.792 95.5539 275.683 95.3021 275.683 95.0079C275.683 94.7137 275.792 94.4619 276.01 94.2524C276.233 94.0429 276.498 93.9381 276.806 93.9381C277.114 93.9381 277.376 94.0429 277.595 94.2524C277.818 94.4619 277.929 94.7137 277.929 95.0079C277.929 95.3021 277.818 95.5539 277.595 95.7634C277.376 95.9729 277.114 96.0776 276.806 96.0776ZM284.644 108.273C283.716 108.273 282.903 108.052 282.203 107.611C281.508 107.17 280.964 106.552 280.572 105.759C280.184 104.965 279.99 104.038 279.99 102.978C279.99 101.908 280.184 100.974 280.572 100.176C280.964 99.3783 281.508 98.7587 282.203 98.3174C282.903 97.8762 283.716 97.6555 284.644 97.6555C285.571 97.6555 286.382 97.8762 287.077 98.3174C287.777 98.7587 288.321 99.3783 288.709 100.176C289.101 100.974 289.297 101.908 289.297 102.978C289.297 104.038 289.101 104.965 288.709 105.759C288.321 106.552 287.777 107.17 287.077 107.611C286.382 108.052 285.571 108.273 284.644 108.273ZM284.644 106.855C285.348 106.855 285.927 106.675 286.382 106.314C286.837 105.953 287.173 105.478 287.391 104.89C287.61 104.301 287.719 103.664 287.719 102.978C287.719 102.291 287.61 101.651 287.391 101.059C287.173 100.466 286.837 99.9867 286.382 99.6212C285.927 99.2557 285.348 99.0729 284.644 99.0729C283.939 99.0729 283.36 99.2557 282.905 99.6212C282.451 99.9867 282.114 100.466 281.896 101.059C281.677 101.651 281.568 102.291 281.568 102.978C281.568 103.664 281.677 104.301 281.896 104.89C282.114 105.478 282.451 105.953 282.905 106.314C283.36 106.675 283.939 106.855 284.644 106.855ZM293.283 101.881V108.059H291.706V97.7892H293.23V99.3939H293.364C293.604 98.8724 293.97 98.4534 294.46 98.1369C294.95 97.816 295.583 97.6555 296.359 97.6555C297.054 97.6555 297.663 97.7982 298.184 98.0834C298.706 98.3642 299.111 98.7921 299.401 99.3671C299.691 99.9377 299.836 100.66 299.836 101.533V108.059H298.258V101.64C298.258 100.834 298.048 100.205 297.629 99.7549C297.21 99.3003 296.635 99.0729 295.904 99.0729C295.401 99.0729 294.95 99.1821 294.554 99.4006C294.162 99.619 293.852 99.9377 293.624 100.357C293.397 100.776 293.283 101.284 293.283 101.881ZM303.869 108.166C303.539 108.166 303.256 108.048 303.02 107.811C302.784 107.575 302.665 107.292 302.665 106.962C302.665 106.633 302.784 106.349 303.02 106.113C303.256 105.877 303.539 105.759 303.869 105.759C304.199 105.759 304.482 105.877 304.718 106.113C304.954 106.349 305.072 106.633 305.072 106.962C305.072 107.181 305.017 107.381 304.905 107.564C304.798 107.747 304.653 107.894 304.471 108.005C304.292 108.112 304.092 108.166 303.869 108.166Z" fill="black"/>
<path d="M31.5643 41.2727V28.5318H39.2039V29.9005H33.1072V34.2055H38.6315V35.5741H33.1072V41.2727H31.5643ZM52.0987 32.5133H50.5559C50.4647 32.0696 50.305 31.6797 50.0769 31.3438C49.8529 31.0078 49.5792 30.7258 49.2557 30.4977C48.9363 30.2654 48.5817 30.0913 48.1919 29.9751C47.802 29.859 47.3956 29.8009 46.9725 29.8009C46.2011 29.8009 45.5023 29.9959 44.876 30.3857C44.2539 30.7756 43.7583 31.35 43.3891 32.109C43.0242 32.868 42.8417 33.799 42.8417 34.9023C42.8417 36.0055 43.0242 36.9366 43.3891 37.6956C43.7583 38.4545 44.2539 39.0289 44.876 39.4188C45.5023 39.8087 46.2011 40.0036 46.9725 40.0036C47.3956 40.0036 47.802 39.9455 48.1919 39.8294C48.5817 39.7133 48.9363 39.5412 49.2557 39.313C49.5792 39.0808 49.8529 38.7967 50.0769 38.4608C50.305 38.1207 50.4647 37.7308 50.5559 37.2912H52.0987C51.9826 37.9423 51.7711 38.525 51.4642 39.0393C51.1573 39.5536 50.7757 39.9912 50.3195 40.352C49.8633 40.7087 49.3511 40.9803 48.7829 41.1669C48.2188 41.3536 47.6154 41.4469 46.9725 41.4469C45.8859 41.4469 44.9195 41.1815 44.0735 40.6506C43.2274 40.1197 42.5617 39.3649 42.0765 38.3861C41.5912 37.4073 41.3486 36.246 41.3486 34.9023C41.3486 33.5585 41.5912 32.3972 42.0765 31.4184C42.5617 30.4396 43.2274 29.6848 44.0735 29.1539C44.9195 28.6231 45.8859 28.3576 46.9725 28.3576C47.6154 28.3576 48.2188 28.4509 48.7829 28.6376C49.3511 28.8242 49.8633 29.0979 50.3195 29.4588C50.7757 29.8154 51.1573 30.2509 51.4642 30.7652C51.7711 31.2753 51.9826 31.8581 52.0987 32.5133ZM59.8674 34.2179V35.5866H54.2932V34.2179H59.8674ZM62.4305 41.2727L68.129 30V29.9005H61.5595V28.5318H69.7217V29.9751L64.048 41.2727H62.4305Z" fill="#858E96"/>
<circle cx="188.766" cy="155.839" r="8.93498" fill="white"/>
<circle cx="188.765" cy="155.839" r="8.12271" fill="#F7AE59"/>
<circle cx="174.957" cy="155.839" r="8.93498" fill="white"/>
<circle cx="174.957" cy="155.839" r="8.12271" fill="#8CC1FF"/>
<circle cx="160.336" cy="155.839" r="8.93498" fill="white"/>
<circle cx="160.336" cy="155.839" r="8.12271" fill="#2C435F"/>
<rect x="71.6288" y="140.96" width="69.4492" height="29.4064" rx="4.69251" fill="white" stroke="#DEE2E6" strokeWidth="0.625668"/>
<circle cx="82.5987" cy="155.037" r="3.75401" fill="#F7AE59"/>
<path d="M92.0831 150.29V149.117H100.274V150.29H96.8396V160.038H95.5172V150.29H92.0831ZM104.284 160.208C103.544 160.208 102.895 160.032 102.337 159.68C101.783 159.328 101.349 158.836 101.036 158.203C100.727 157.57 100.572 156.831 100.572 155.985C100.572 155.132 100.727 154.387 101.036 153.751C101.349 153.114 101.783 152.62 102.337 152.268C102.895 151.916 103.544 151.74 104.284 151.74C105.023 151.74 105.67 151.916 106.225 152.268C106.783 152.62 107.216 153.114 107.526 153.751C107.839 154.387 107.995 155.132 107.995 155.985C107.995 156.831 107.839 157.57 107.526 158.203C107.216 158.836 106.783 159.328 106.225 159.68C105.67 160.032 105.023 160.208 104.284 160.208ZM104.284 159.078C104.845 159.078 105.307 158.934 105.67 158.646C106.033 158.358 106.301 157.979 106.475 157.51C106.649 157.041 106.737 156.532 106.737 155.985C106.737 155.438 106.649 154.927 106.475 154.455C106.301 153.982 106.033 153.6 105.67 153.308C105.307 153.017 104.845 152.871 104.284 152.871C103.722 152.871 103.26 153.017 102.897 153.308C102.535 153.6 102.266 153.982 102.092 154.455C101.918 154.927 101.831 155.438 101.831 155.985C101.831 156.532 101.918 157.041 102.092 157.51C102.266 157.979 102.535 158.358 102.897 158.646C103.26 158.934 103.722 159.078 104.284 159.078ZM117.232 160.208C116.55 160.208 115.947 160.036 115.424 159.691C114.902 159.343 114.493 158.852 114.198 158.219C113.903 157.583 113.755 156.831 113.755 155.964C113.755 155.103 113.903 154.357 114.198 153.724C114.493 153.091 114.904 152.602 115.43 152.258C115.956 151.913 116.564 151.74 117.253 151.74C117.787 151.74 118.208 151.829 118.517 152.007C118.83 152.181 119.068 152.38 119.232 152.604C119.399 152.825 119.529 153.006 119.621 153.148H119.728V149.117H120.986V160.038H119.77V158.779H119.621C119.529 158.928 119.397 159.117 119.226 159.344C119.056 159.568 118.812 159.769 118.496 159.947C118.179 160.121 117.758 160.208 117.232 160.208ZM117.403 159.078C117.907 159.078 118.334 158.946 118.682 158.683C119.031 158.417 119.296 158.049 119.477 157.579C119.658 157.107 119.749 156.561 119.749 155.942C119.749 155.331 119.66 154.796 119.482 154.337C119.305 153.875 119.042 153.516 118.693 153.26C118.345 153.001 117.915 152.871 117.403 152.871C116.869 152.871 116.425 153.008 116.07 153.281C115.718 153.552 115.453 153.92 115.275 154.385C115.101 154.847 115.014 155.366 115.014 155.942C115.014 156.525 115.103 157.055 115.28 157.531C115.462 158.004 115.728 158.381 116.08 158.662C116.436 158.939 116.877 159.078 117.403 159.078ZM126.793 160.208C126.054 160.208 125.405 160.032 124.847 159.68C124.292 159.328 123.858 158.836 123.546 158.203C123.236 157.57 123.082 156.831 123.082 155.985C123.082 155.132 123.236 154.387 123.546 153.751C123.858 153.114 124.292 152.62 124.847 152.268C125.405 151.916 126.054 151.74 126.793 151.74C127.532 151.74 128.179 151.916 128.734 152.268C129.292 152.62 129.726 153.114 130.035 153.751C130.348 154.387 130.504 155.132 130.504 155.985C130.504 156.831 130.348 157.57 130.035 158.203C129.726 158.836 129.292 159.328 128.734 159.68C128.179 160.032 127.532 160.208 126.793 160.208ZM126.793 159.078C127.355 159.078 127.817 158.934 128.179 158.646C128.542 158.358 128.81 157.979 128.985 157.51C129.159 157.041 129.246 156.532 129.246 155.985C129.246 155.438 129.159 154.927 128.985 154.455C128.81 153.982 128.542 153.6 128.179 153.308C127.817 153.017 127.355 152.871 126.793 152.871C126.231 152.871 125.769 153.017 125.407 153.308C125.044 153.6 124.776 153.982 124.601 154.455C124.427 154.927 124.34 155.438 124.34 155.985C124.34 156.532 124.427 157.041 124.601 157.51C124.776 157.979 125.044 158.358 125.407 158.646C125.769 158.934 126.231 159.078 126.793 159.078Z" fill="#495057"/>
<rect x="31.2729" y="140.647" width="30.0321" height="30.0321" rx="5.00535" fill="#FFEDD5"/>
<rect x="38.7808" y="148.155" width="13.7647" height="13.7647" rx="6.25668" fill="#FFEDD5"/>
<path d="M49.535 159.626C49.3342 159.626 49.1645 159.557 49.0259 159.418C48.8873 159.279 48.818 159.11 48.818 158.909V151.166C48.818 150.966 48.8873 150.796 49.0259 150.657C49.1645 150.519 49.3342 150.449 49.535 150.449C49.7357 150.449 49.9054 150.519 50.044 150.657C50.1826 150.796 50.2519 150.966 50.2519 151.166V158.909C50.2519 159.11 50.1826 159.279 50.044 159.418C49.9054 159.557 49.7357 159.626 49.535 159.626ZM42.3802 159.626C42.275 159.626 42.1771 159.607 42.0862 159.569C41.9954 159.53 41.919 159.48 41.8568 159.418C41.7947 159.356 41.7445 159.279 41.7063 159.189C41.668 159.098 41.6489 159.005 41.6489 158.909V156.902C41.6489 156.701 41.7182 156.531 41.8568 156.393C41.9954 156.254 42.1651 156.185 42.3658 156.185C42.5666 156.185 42.7362 156.254 42.8748 156.393C43.0134 156.531 43.0827 156.701 43.0827 156.902V158.909C43.0827 159.005 43.0636 159.098 43.0254 159.189C42.9872 159.279 42.937 159.356 42.8748 159.418C42.8127 159.48 42.7386 159.53 42.6526 159.569C42.5666 159.607 42.4758 159.626 42.3802 159.626ZM45.9504 159.626C45.7497 159.626 45.58 159.557 45.4414 159.418C45.3028 159.279 45.2335 159.11 45.2335 158.909V154.034C45.2335 153.833 45.3028 153.664 45.4414 153.525C45.58 153.386 45.7497 153.317 45.9504 153.317C46.1511 153.317 46.3208 153.386 46.4594 153.525C46.598 153.664 46.6673 153.833 46.6673 154.034V158.909C46.6673 159.11 46.598 159.279 46.4594 159.418C46.3208 159.557 46.1511 159.626 45.9504 159.626Z" fill="#FF6B00"/>
</g>
<defs>
<filter id="filter0_d_2610_65027" x="4.99465" y="3.00002" width="478.011" height="190.203" filterUnits="userSpaceOnUse" color-interpolation-filters="sRGB">
<feFlood flood-opacity="0" result="BackgroundImageFix"/>
<feColorMatrix in="SourceAlpha" type="matrix" values="0 0 0 0 0 0 0 0 0 0 0 0 0 0 0 0 0 0 127 0" result="hardAlpha"/>
<feOffset/>
<feGaussianBlur stdDeviation="2.50267"/>
<feComposite in2="hardAlpha" operator="out"/>
<feColorMatrix type="matrix" values="0 0 0 0 0 0 0 0 0 0 0 0 0 0 0 0 0 0 0.2 0"/>
<feBlend mode="normal" in2="BackgroundImageFix" result="effect1_dropShadow_2610_65027"/>
<feBlend mode="normal" in="SourceGraphic" in2="effect1_dropShadow_2610_65027" result="shape"/>
</filter>
<filter id="filter1_d_2610_65027" x="0" y="0.00537109" width="488" height="200.193" filterUnits="userSpaceOnUse" color-interpolation-filters="sRGB">
<feFlood flood-opacity="0" result="BackgroundImageFix"/>
<feColorMatrix in="SourceAlpha" type="matrix" values="0 0 0 0 0 0 0 0 0 0 0 0 0 0 0 0 0 0 127 0" result="hardAlpha"/>
<feOffset dy="2"/>
<feGaussianBlur stdDeviation="5"/>
<feComposite in2="hardAlpha" operator="out"/>
<feColorMatrix type="matrix" values="0 0 0 0 0.3475 0 0 0 0 0.64765 0 0 0 0 1 0 0 0 0.63 0"/>
<feBlend mode="normal" in2="BackgroundImageFix" result="effect1_dropShadow_2610_65027"/>
<feBlend mode="normal" in="SourceGraphic" in2="effect1_dropShadow_2610_65027" result="shape"/>
</filter>
</defs>
</svg>
