<svg width="30" height="29" viewBox="0 0 30 29" fill="none" xmlns="http://www.w3.org/2000/svg">
<g clip-path="url(#clip0_11_12473)">
<rect width="30" height="29" rx="14.5" fill="#ECF1FF"/>
<path d="M24.6255 24.1658C24.6255 21.8239 23.4282 19.578 21.6591 17.9221C19.8899 16.2662 17.4904 15.3359 14.9884 15.3359C12.4864 15.3359 10.0869 16.2662 8.31776 17.9221C6.5486 19.578 5.55469 21.8239 5.55469 24.1658" fill="#C2D0F2"/>
<path d="M24.6255 24.1658C24.6255 21.8239 23.4282 19.578 21.6591 17.9221C19.8899 16.2662 17.4904 15.3359 14.9884 15.3359C12.4864 15.3359 10.0869 16.2662 8.31776 17.9221C6.5486 19.578 5.55469 21.8239 5.55469 24.1658C6.80126 28.8931 22.7194 29.9478 24.6255 24.1658Z" stroke="#C2D0F2" stroke-width="2" stroke-linecap="round" stroke-linejoin="round"/>
<path d="M24.5002 23.2546C24.799 24.4372 23.5063 25.9588 21.7371 26.9349C19.9679 27.911 17.8578 28.3064 15.3558 28.3064C12.8538 28.3064 10.4543 27.758 8.68516 26.7819C6.85637 26.0934 5.00781 24.3616 5.92208 23.1016L15.3558 23.1016L24.5002 23.2546Z" fill="#C2D0F2"/>
<path d="M15.0029 14.9375C18.1095 14.9375 20.6279 12.4191 20.6279 9.3125C20.6279 6.2059 18.1095 3.6875 15.0029 3.6875C11.8963 3.6875 9.37793 6.2059 9.37793 9.3125C9.37793 12.4191 11.8963 14.9375 15.0029 14.9375Z" fill="#CAD9FF"/>
</g>
<defs>
<clipPath id="clip0_11_12473">
<rect width="30" height="29" rx="14.5" fill="white"/>
</clipPath>
</defs>
</svg>
