<svg width="94" height="94" viewBox="0 0 94 94" fill="none" xmlns="http://www.w3.org/2000/svg">
<circle cx="46.7188" cy="47.2188" r="46.7188" fill="#F4F5F9"/>
<path d="M63.125 42.875H42.875V63.125H55.3994C57.1102 63.125 58.2811 63.1228 59.1875 63.0488C60.071 62.9766 60.5387 62.8464 60.8721 62.6768C61.6482 62.2813 62.2813 61.6482 62.6768 60.8721C62.8464 60.5387 62.9766 60.071 63.0488 59.1875C63.1228 58.2811 63.125 57.1102 63.125 55.3994V42.875ZM30.875 55.3994C30.875 57.1102 30.8772 58.2811 30.9512 59.1875C31.0234 60.071 31.1536 60.5387 31.3232 60.8721C31.7187 61.6482 32.3518 62.2813 33.1279 62.6768C33.4612 62.8464 33.9289 62.9766 34.8125 63.0488C35.7189 63.1228 36.8898 63.125 38.6006 63.125H39.125V42.875H30.875V55.3994ZM63.125 38.6006C63.125 36.8898 63.1228 35.7189 63.0488 34.8125C62.9766 33.9289 62.8464 33.4612 62.6768 33.1279C62.2813 32.3518 61.6482 31.7187 60.8721 31.3232C60.5387 31.1536 60.071 31.0234 59.1875 30.9512C58.2811 30.8772 57.1102 30.875 55.3994 30.875H38.6006C36.8898 30.875 35.7189 30.8772 34.8125 30.9512C33.9289 31.0234 33.4612 31.1536 33.1279 31.3232C32.3518 31.7187 31.7187 32.3518 31.3232 33.1279C31.1536 33.4612 31.0234 33.9289 30.9512 34.8125C30.8772 35.7189 30.875 36.8898 30.875 38.6006V39.125H63.125V38.6006ZM66.875 55.3994C66.875 57.048 66.8764 58.3979 66.7871 59.4922C66.6959 60.6084 66.5004 61.6243 66.0166 62.5742C65.2616 64.0561 64.0561 65.2616 62.5742 66.0166C61.6243 66.5004 60.6084 66.6959 59.4922 66.7871C58.3979 66.8764 57.048 66.875 55.3994 66.875H38.6006C36.952 66.875 35.6022 66.8764 34.5078 66.7871C33.3917 66.6959 32.3757 66.5005 31.4258 66.0166C29.944 65.2617 28.7384 64.0561 27.9834 62.5742C27.4996 61.6243 27.3041 60.6084 27.2129 59.4922C27.1236 58.3979 27.125 57.048 27.125 55.3994V38.6006C27.125 36.952 27.1236 35.6022 27.2129 34.5078C27.3041 33.3916 27.4996 32.3757 27.9834 31.4258C28.7384 29.944 29.944 28.7384 31.4258 27.9834C32.3757 27.4996 33.3916 27.3041 34.5078 27.2129C35.6022 27.1236 36.952 27.125 38.6006 27.125H55.3994C57.048 27.125 58.3979 27.1236 59.4922 27.2129C60.6084 27.3041 61.6243 27.4996 62.5742 27.9834C64.0561 28.7384 65.2617 29.944 66.0166 31.4258C66.5005 32.3757 66.6959 33.3917 66.7871 34.5078C66.8764 35.6022 66.875 36.952 66.875 38.6006V55.3994Z" fill="#9DA3BC"/>
</svg>
