<svg version="1.1" viewBox="0 0 155 155" width="155px" height="155px" xmlns="http://www.w3.org/2000/svg">
  <defs>
    <linearGradient id="shieldGradSpace" x1="0%" y1="0%" x2="100%" y2="100%">
      <stop offset="0%" stop-color="#3f76ff" />
      <stop offset="100%" stop-color="#00f0ff" />
    </linearGradient>
    <linearGradient id="wGradSpace" x1="0%" y1="0%" x2="0%" y2="100%">
      <stop offset="0%" stop-color="#00f0ff" />
      <stop offset="100%" stop-color="#3f76ff" />
    </linearGradient>
  </defs>
  <g transform="scale(5.5) translate(2, 2)">
    <path
      d="M12 2L4 5v6c0 5.25 3.41 10.17 8 11 4.59-.83 8-5.75 8-11V5l-8-3zm0 2.18c3.42.71 6 3.82 6 7.42 0 4.15-2.73 8.07-6 8.92-3.27-.85-6-4.77-6-8.92 0-3.6 2.58-6.71 6-7.42z"
      fill="url(#shieldGradSpace)"
    />
    <path
      d="M8.5 8.5L10.5 13.5L12 11.5L13.5 13.5L15.5 8.5H14.25L13.25 11.25L12 9.5L10.75 11.25L9.75 8.5H8.5Z"
      fill="url(#wGradSpace)"
    />
  </g>
</svg>
