<?xml version="1.0" encoding="UTF-8"?>
<svg xmlns="http://www.w3.org/2000/svg" viewBox="0 0 108 108">
<defs><style>.cls-1{fill:#2e6efe;}</style></defs>
<path class="cls-1" d="M54,0c4.1242981,0,8.1407013.462147,12,1.33789v27.3574091c-3.6371002-1.7277985-7.7055016-2.6952991-12-2.6952991-15.4640007,0-28,12.5359993-28,28s12.5359993,28,28,28,28-12.5360031,28-28c0-.3348007-.0078964-.6680984-.0195007-1h.0195007V7.8193402c12.8692017,7.81986,22.2109985,20.8663592,25.0770035,36.1943583.3069992-.0086975.6139984-.0136986.9229965-.0136986,17.6729965,0,32,14.3269005,32,32s-14.3270035,32-32,32h-54C24.1765995,108,0,83.8234024,0,54S24.1765995,0,54,0ZM54,42c6.6273994,0,12,5.3726006,12,12s-5.3726006,12-12,12-12-5.3726006-12-12,5.3726006-12,12-12Z"/>
</svg>
