<svg width="219" height="219" viewBox="0 0 219 219" fill="none" xmlns="http://www.w3.org/2000/svg">
<circle cx="109.5" cy="109.5" r="109.5" fill="#FAFAFA"/>
<path d="M110.423 153.361C104.339 153.361 98.6853 152.27 93.4608 150.087C88.2363 147.904 83.6917 144.88 79.827 141.016C75.9623 137.151 72.9385 132.606 70.7557 127.382C68.5728 122.157 67.4814 116.504 67.4814 110.42C67.4814 105.554 68.1971 100.973 69.6285 96.679C71.0598 92.3849 73.0638 88.4486 75.6402 84.8702L63.9388 73.1687C63.2946 72.5246 62.9905 71.7552 63.0263 70.8606C63.062 69.966 63.402 69.1967 64.0461 68.5525C64.6902 67.9084 65.4596 67.5864 66.3542 67.5864C67.2488 67.5864 68.0182 67.9084 68.6623 68.5525L150.68 150.678C151.324 151.322 151.646 152.073 151.646 152.932C151.646 153.791 151.324 154.542 150.68 155.186C150.036 155.83 149.266 156.153 148.372 156.153C147.477 156.153 146.708 155.83 146.064 155.186L135.973 145.203C132.394 147.779 128.458 149.783 124.164 151.214C119.87 152.646 115.289 153.361 110.423 153.361ZM110.423 146.92C114.359 146.92 118.08 146.366 121.587 145.256C125.094 144.147 128.351 142.59 131.356 140.586L112.355 121.585L106.343 127.597C105.699 128.241 104.948 128.581 104.089 128.617C103.23 128.652 102.478 128.348 101.834 127.704L88.7373 114.5C88.0932 113.855 87.789 113.05 87.8248 112.084C87.8606 111.118 88.2005 110.313 88.8446 109.669C89.4888 109.025 90.2939 108.703 91.2601 108.703C92.2263 108.703 93.0314 109.025 93.6755 109.669L104.089 120.189L107.524 116.754L80.2564 89.4864C78.2525 92.4922 76.6959 95.7486 75.5866 99.2555C74.4772 102.762 73.9226 106.484 73.9226 110.42C73.9226 120.798 77.4116 129.475 84.3895 136.453C91.3674 143.431 100.045 146.92 110.423 146.92ZM145.205 135.97L140.589 131.354C142.593 128.348 144.149 125.092 145.259 121.585C146.368 118.078 146.923 114.356 146.923 110.42C146.923 100.043 143.434 91.365 136.456 84.3871C129.478 77.4092 120.8 73.9202 110.423 73.9202C106.486 73.9202 102.765 74.4748 99.2579 75.5842C95.751 76.6935 92.4946 78.2501 89.4888 80.254L84.8726 75.6378C88.451 73.0614 92.3873 71.0574 96.6814 69.6261C100.976 68.1947 105.556 67.479 110.423 67.479C116.434 67.479 122.052 68.5883 127.277 70.8069C132.502 73.0256 137.046 76.0672 140.911 79.9319C144.776 83.7967 147.817 88.3413 150.036 93.5658C152.254 98.7903 153.364 104.408 153.364 110.42C153.364 115.287 152.648 119.867 151.217 124.161C149.785 128.455 147.781 132.392 145.205 135.97ZM121.695 112.353L116.756 107.522L127.17 97.1084C127.814 96.4643 128.601 96.1422 129.531 96.1422C130.462 96.1422 131.285 96.4643 132.001 97.1084C132.716 97.8241 133.074 98.6471 133.074 99.5775C133.074 100.508 132.716 101.331 132.001 102.047L121.695 112.353Z" fill="#B9B9B9"/>
</svg>
