<svg width="104" height="104" viewBox="0 0 104 104" fill="none" xmlns="http://www.w3.org/2000/svg">
<path d="M52.4226 95.3614C46.3393 95.3614 40.6853 94.2699 35.4608 92.0871C30.2363 89.9043 25.6917 86.8805 21.827 83.0158C17.9623 79.1511 14.9385 74.6065 12.7557 69.3819C10.5728 64.1574 9.48141 58.5035 9.48141 52.4202C9.48141 47.5535 10.1971 42.9731 11.6285 38.679C13.0598 34.3849 15.0638 30.4486 17.6402 26.8702L5.93876 15.1687C5.29464 14.5246 4.99048 13.7552 5.02626 12.8606C5.06205 11.966 5.402 11.1967 6.04612 10.5525C6.69023 9.90842 7.4596 9.58636 8.3542 9.58636C9.24881 9.58636 10.0182 9.90842 10.6623 10.5525L92.6799 92.6775C93.3241 93.3217 93.6461 94.0731 93.6461 94.9319C93.6461 95.7908 93.3241 96.5422 92.6799 97.1864C92.0358 97.8305 91.2665 98.1525 90.3718 98.1525C89.4772 98.1525 88.7079 97.8305 88.0638 97.1864L77.9726 87.2025C74.3942 89.779 70.4579 91.7829 66.1638 93.2143C61.8696 94.6457 57.2893 95.3614 52.4226 95.3614ZM52.4226 88.9202C56.3589 88.9202 60.0804 88.3655 63.5873 87.2562C67.0942 86.1469 70.3505 84.5903 73.3564 82.5864L54.3549 63.5849L48.3432 69.5967C47.6991 70.2408 46.9476 70.5807 46.0888 70.6165C45.2299 70.6523 44.4785 70.3481 43.8344 69.704L30.7373 56.4996C30.0932 55.8555 29.789 55.0503 29.8248 54.0842C29.8606 53.118 30.2005 52.3128 30.8446 51.6687C31.4888 51.0246 32.2939 50.7025 33.2601 50.7025C34.2263 50.7025 35.0314 51.0246 35.6755 51.6687L46.0888 62.1893L49.5241 58.754L22.2564 31.4864C20.2525 34.4922 18.6959 37.7486 17.5866 41.2555C16.4772 44.7623 15.9226 48.4839 15.9226 52.4202C15.9226 62.7976 19.4116 71.4753 26.3895 78.4533C33.3674 85.4312 42.0451 88.9202 52.4226 88.9202ZM87.2049 77.9702L82.5888 73.354C84.5927 70.3481 86.1493 67.0918 87.2586 63.5849C88.3679 60.078 88.9226 56.3565 88.9226 52.4202C88.9226 42.0427 85.4336 33.365 78.4557 26.3871C71.4777 19.4092 62.8 15.9202 52.4226 15.9202C48.4863 15.9202 44.7647 16.4748 41.2579 17.5842C37.751 18.6935 34.4946 20.2501 31.4888 22.254L26.8726 17.6378C30.451 15.0614 34.3873 13.0574 38.6814 11.6261C42.9755 10.1947 47.5559 9.479 52.4226 9.479C58.4343 9.479 64.0525 10.5883 69.277 12.8069C74.5015 15.0256 79.0461 18.0672 82.9108 21.9319C86.7755 25.7967 89.8172 30.3413 92.0358 35.5658C94.2544 40.7903 95.3638 46.4084 95.3638 52.4202C95.3638 57.2868 94.6481 61.8672 93.2167 66.1614C91.7853 70.4555 89.7814 74.3917 87.2049 77.9702ZM63.6946 54.3525L58.7564 49.5217L69.1696 39.1084C69.8138 38.4643 70.601 38.1422 71.5314 38.1422C72.4618 38.1422 73.2848 38.4643 74.0005 39.1084C74.7162 39.8241 75.0741 40.6471 75.0741 41.5775C75.0741 42.5079 74.7162 43.331 74.0005 44.0466L63.6946 54.3525Z" fill="#B9B9B9"/>
</svg>
