<svg width="125" height="125" viewBox="0 0 125 125" fill="none" xmlns="http://www.w3.org/2000/svg">
<path d="M17.5747 100.561C16.241 100.561 15.123 100.11 14.2207 99.2074C13.3184 98.3051 12.8672 97.187 12.8672 95.8533V88.9824C12.8672 86.218 13.5633 83.8025 14.9556 81.7359C16.3478 79.6694 18.1957 78.0518 20.4995 76.8832C24.9266 74.6263 29.6007 72.8 34.5217 71.4044C39.4429 70.0089 45.2455 69.3112 51.9296 69.3112C54.5337 69.3112 56.956 69.4164 59.1962 69.6267C61.4364 69.837 63.528 70.1525 65.4711 70.5732L58.5603 77.484C57.6054 77.3104 56.5721 77.2069 55.4603 77.1736C54.3485 77.1401 53.1716 77.1234 51.9296 77.1234C45.7664 77.1234 40.3661 77.8112 35.7286 79.1867C31.0912 80.5622 27.21 82.1181 24.085 83.8542C22.9032 84.4885 22.0401 85.2297 21.4958 86.0777C20.9517 86.9258 20.6796 87.8941 20.6796 88.9824V92.7484H52.23L60.0423 100.561H17.5747ZM80.3283 102.484C79.7051 102.484 79.1231 102.384 78.5822 102.183C78.0413 101.983 77.5241 101.636 77.0306 101.143L66.9135 91.0257C66.1925 90.3046 65.8235 89.3981 65.8068 88.3064C65.7901 87.2147 66.159 86.2916 66.9135 85.5371C67.6681 84.7825 68.5829 84.4052 69.6579 84.4052C70.7329 84.4052 71.6477 84.7825 72.4022 85.5371L80.335 93.4698L103.893 69.9121C104.614 69.1909 105.52 68.822 106.612 68.8053C107.704 68.7886 108.627 69.1575 109.381 69.9121C110.136 70.6666 110.513 71.5814 110.513 72.6564C110.513 73.7314 110.136 74.6461 109.381 75.4007L83.6302 101.152C83.1428 101.639 82.6264 101.983 82.0811 102.183C81.5358 102.384 80.9515 102.484 80.3283 102.484ZM51.9296 60.8974C46.9166 60.8974 42.6252 59.1125 39.0553 55.5427C35.4855 51.9728 33.7007 47.6814 33.7007 42.6685C33.7007 37.6555 35.4855 33.3641 39.0553 29.7943C42.6252 26.2244 46.9166 24.4395 51.9296 24.4395C56.9425 24.4395 61.2339 26.2244 64.8038 29.7943C68.3737 33.3641 70.1586 37.6555 70.1586 42.6685C70.1586 47.6814 68.3737 51.9728 64.8038 55.5427C61.2339 59.1125 56.9425 60.8974 51.9296 60.8974ZM51.9296 53.0852C54.7941 53.0852 57.2464 52.0652 59.2863 50.0253C61.3263 47.9853 62.3462 45.5331 62.3462 42.6685C62.3462 39.8039 61.3263 37.3517 59.2863 35.3117C57.2464 33.2718 54.7941 32.2518 51.9296 32.2518C49.065 32.2518 46.6127 33.2718 44.5728 35.3117C42.5329 37.3517 41.5129 39.8039 41.5129 42.6685C41.5129 45.5331 42.5329 47.9853 44.5728 50.0253C46.6127 52.0652 49.065 53.0852 51.9296 53.0852Z" fill="#9D9D9D"/>
</svg>
