<?xml version="1.0" standalone="no"?>
<!DOCTYPE svg PUBLIC "-//W3C//DTD SVG 20010904//EN"
 "http://www.w3.org/TR/2001/REC-SVG-20010904/DTD/svg10.dtd">
<svg version="1.0" xmlns="http://www.w3.org/2000/svg"
 width="276.000000pt" height="276.000000pt" viewBox="0 0 276.000000 276.000000"
 preserveAspectRatio="xMidYMid meet">

<g transform="translate(0.000000,276.000000) scale(0.100000,-0.100000)"
fill="#000000" stroke="none">
<path d="M930 2300 l0 -450 460 0 460 0 0 -460 0 -460 450 0 450 0 0 910 0
910 -910 0 -910 0 0 -450z"/>
<path d="M10 1380 l0 -450 450 0 450 0 0 450 0 450 -450 0 -450 0 0 -450z"/>
<path d="M930 460 l0 -450 450 0 450 0 0 450 0 450 -450 0 -450 0 0 -450z"/>
</g>
</svg>
