<svg width="126" height="136" viewBox="0 0 126 136" fill="none" xmlns="http://www.w3.org/2000/svg">
<path d="M113.955 135.906C113.919 135.906 113.883 135.906 113.848 135.906L19.4 134.786C14.0318 134.715 9.70802 130.233 9.74578 124.787C3.07794 102.326 0.140014 84.6385 0.220352 67.4423C0.304227 49.494 3.79635 31.2365 11.2096 9.98858C11.2958 4.57842 15.6643 0.222153 20.9864 0.222153C21.0208 0.222153 21.0552 0.222371 21.0897 0.222697L115.538 1.34477C120.918 1.41524 125.248 5.91626 125.189 11.3783L124.998 28.0142L124.856 28.0159L123.728 126.104C123.659 131.532 119.285 135.906 113.955 135.906ZM20.9863 0.668279C15.8915 0.668279 11.7123 4.84756 11.6484 10.0314L11.648 10.0683L11.6358 10.1031C-2.52107 50.6621 -2.90313 80.6475 10.1761 124.69L10.1858 124.723L10.1854 124.757C10.1319 129.973 14.2679 134.272 19.4054 134.34L113.853 135.459C113.887 135.46 113.921 135.46 113.955 135.46C119.046 135.46 123.223 131.282 123.289 126.099L124.33 35.5712L124.335 35.1254L124.456 24.7741L124.596 24.773L124.75 11.3732C124.806 6.15696 120.671 1.8582 115.532 1.79089L21.0848 0.668824C21.0522 0.668498 21.0188 0.668279 20.9863 0.668279Z" fill="#F5F5F5"/>
<path d="M105.57 95.7116L105.563 96.1577H51.6133V95.7116H105.57Z" fill="#F5F5F5"/>
<path d="M105.677 86.2315L105.673 86.6777H51.6133V86.2315H105.677Z" fill="#F5F5F5"/>
<path d="M105.787 76.7513L105.783 77.1975H51.6133V76.7513H105.787Z" fill="#F5F5F5"/>
<path d="M105.442 106.062L105.437 106.508H50.4023V59.6869L50.8417 59.6914V87.7104C50.8417 90.579 51.4897 93.2937 52.6451 95.7117C52.7176 95.8611 52.7901 96.0106 52.867 96.1578C55.8764 102.042 61.9348 106.062 68.9158 106.062H105.442Z" fill="#F5F5F5"/>
<path d="M29.1238 129.338C23.8536 129.27 19.6326 124.882 19.6882 119.53C7.13649 77.2648 6.35043 47.2084 21.1499 4.80458C21.1795 3.11704 21.6476 1.46746 22.5066 0.0226944L20.6481 0.000550955C15.3778 -0.0558841 11.0569 4.23032 10.9891 9.582C-3.81039 51.9859 -3.0243 82.0422 9.52746 124.308C9.47176 129.659 13.6928 134.047 18.963 134.116L113.411 135.237C116.826 135.266 119.994 133.434 121.713 130.437L29.1238 129.338Z" fill="#F5F5F5"/>
<path d="M17.1014 125.311C17.0716 124.32 17.9447 123.617 18.8372 123.436C19.9713 123.205 21.1291 123.799 22.09 124.338C23.8072 125.303 22.5893 124.924 24.6061 125.743C27.4295 126.563 29.8496 124.515 30.7316 121.601C31.2526 119.19 31.1434 117.133 31.2579 114.916C31.3681 112.78 31.9407 110.611 33.7234 109.285C34.4718 108.728 35.404 108.398 36.3333 108.594C37.3258 108.802 38.1186 109.527 39.075 109.842C40.8547 110.429 42.7264 109.637 44.061 108.429C45.6134 107.025 46.3714 105.05 46.9048 103.058C47.4579 100.992 47.7957 98.8294 48.8098 96.9266C49.6752 95.3029 51.0345 93.8043 52.908 93.4946C54.7436 93.1912 56.5024 94.105 58.0867 94.9234C59.7173 95.7656 61.4029 96.6782 63.2711 96.7567C67.2745 96.925 70.3669 93.4662 72.1019 90.1776C74.0822 86.424 75.2304 81.8692 78.7486 79.2155C80.2608 78.0749 82.1795 77.2786 84.09 77.5982C86.0209 77.9212 87.4315 79.3434 88.7138 80.7334C90.0273 82.1572 91.3314 83.5599 93.111 84.3799C94.8575 85.1846 96.8087 85.486 98.7111 85.2311C99.6298 85.108 100.509 84.8524 101.359 84.4796C101.747 84.3092 101.412 83.7326 101.026 83.9017C99.1621 84.7195 97.04 84.8612 95.0732 84.3691C93.0971 83.8747 91.5224 82.7522 90.127 81.2828C88.8495 79.9375 87.6484 78.4058 85.9773 77.5413C84.2868 76.6668 82.3485 76.6891 80.6038 77.3946C78.8348 78.1101 77.3023 79.3755 76.1402 80.8969C74.7902 82.6643 73.8925 84.7357 72.9901 86.7604C71.359 90.4199 69.2681 94.7415 65.0953 95.8789C61.1443 96.9559 58.221 93.4057 54.5355 92.8421C52.7237 92.5651 51.009 93.2021 49.726 94.5162C48.3977 95.8768 47.6298 97.6761 47.1226 99.4939C46.501 101.721 46.181 104.107 45.0397 106.146C44.1375 107.758 42.4664 109.253 40.5676 109.365C39.4798 109.429 38.6469 108.919 37.7171 108.427C36.879 107.983 36.0038 107.754 35.0617 107.941C33.2973 108.291 31.9264 109.874 31.2526 111.488C29.5906 115.47 31.8793 120.586 28.6257 123.99C28.0311 124.612 27.2683 125.08 26.4071 125.175C25.2534 125.303 24.1746 124.757 23.1966 124.204C21.5072 123.249 19.3683 121.971 17.5167 123.297C16.8596 123.768 16.4174 124.478 16.4424 125.311C16.4554 125.74 17.1144 125.742 17.1014 125.311Z" fill="#3A3A3A"/>
<path d="M82.8793 78.9819C83.9712 78.9819 84.8563 78.0831 84.8563 76.9743C84.8563 75.8656 83.9712 74.9667 82.8793 74.9667C81.7875 74.9667 80.9023 75.8656 80.9023 76.9743C80.9023 78.0831 81.7875 78.9819 82.8793 78.9819Z" fill="#3F76FF"/>
<path d="M64.4223 97.9423C65.5142 97.9423 66.3993 97.0435 66.3993 95.9347C66.3993 94.826 65.5142 93.9272 64.4223 93.9272C63.3304 93.9272 62.4453 94.826 62.4453 95.9347C62.4453 97.0435 63.3304 97.9423 64.4223 97.9423Z" fill="#3F76FF"/>
<path d="M53.1523 35.2409C54.3647 32.6859 57.5101 31.2629 60.1915 32.0564C61.702 32.5034 62.969 33.5304 64.3579 34.281C65.7468 35.0315 67.4699 35.4976 68.867 34.763C71.2685 33.5002 71.122 29.7301 73.2108 27.9858C74.6011 26.8248 76.6411 26.8791 78.3595 27.4234C80.0778 27.9677 81.6492 28.9286 83.3787 29.4352C86.5972 30.3778 90.2569 29.5851 92.8165 27.3909C92.8421 27.369 92.8673 27.3469 92.8922 27.3246C94.1594 26.191 96.1451 27.1252 96.0986 28.8395L95.7746 40.7943H53.3791L53.1523 35.2409Z" fill="#F5F5F5"/>
<path d="M90.36 33.0866C90.4996 33.029 90.4996 32.8303 90.3599 32.7727C89.3853 32.3712 88.2938 31.7997 87.4596 31.178C87.3261 31.0784 87.1476 31.2157 87.204 31.3738L87.6788 32.7065H79.5547V33.1527H87.6788L87.2039 34.4858C87.1476 34.644 87.326 34.7812 87.4596 34.6817C88.2937 34.0599 89.3853 33.4883 90.36 33.0866Z" fill="#3A3A3A"/>
<path d="M72.0801 30.9379C72.157 30.8062 72.0385 30.648 71.893 30.6881C70.8779 30.9678 69.6684 31.184 68.6339 31.2021C68.4682 31.205 68.408 31.4239 68.5472 31.5152L69.7197 32.2839L63.2539 37.2788L63.5199 37.6339L69.9857 32.6389L70.4026 33.9919C70.4521 34.1525 70.6759 34.1519 70.7229 33.9906C71.0161 32.9829 71.544 31.8569 72.0801 30.9379Z" fill="#3A3A3A"/>
<path d="M94.3087 30.3053C96.3884 30.3053 98.0744 28.5933 98.0744 26.4814C98.0744 24.3694 96.3884 22.6574 94.3087 22.6574C92.2289 22.6574 90.543 24.3694 90.543 26.4814C90.543 28.5933 92.2289 30.3053 94.3087 30.3053Z" fill="#3F76FF"/>
<path opacity="0.7" d="M75.8673 30.3053C77.947 30.3053 79.633 28.5933 79.633 26.4814C79.633 24.3694 77.947 22.6574 75.8673 22.6574C73.7875 22.6574 72.1016 24.3694 72.1016 26.4814C72.1016 28.5933 73.7875 30.3053 75.8673 30.3053Z" fill="#3F76FF"/>
<path opacity="0.25" d="M59.168 33.8743C61.2478 33.8743 62.9337 32.1623 62.9337 30.0504C62.9337 27.9384 61.2478 26.2264 59.168 26.2264C57.0883 26.2264 55.4023 27.9384 55.4023 30.0504C55.4023 32.1623 57.0883 33.8743 59.168 33.8743Z" fill="#3F76FF"/>
<path d="M104.847 48.4215L46.4175 47.9963C44.5394 47.9826 43.0018 49.5218 42.9884 51.4289C42.9749 53.336 44.4906 54.8974 46.3687 54.9111L104.798 55.3363C106.676 55.35 108.214 53.8109 108.227 51.9037C108.241 49.9966 106.725 48.4352 104.847 48.4215Z" fill="#F5F5F5"/>
<path d="M37.69 52.2934C38.5392 52.2934 39.2277 51.5943 39.2277 50.7319C39.2277 49.8695 38.5392 49.1705 37.69 49.1705C36.8408 49.1705 36.1523 49.8695 36.1523 50.7319C36.1523 51.5943 36.8408 52.2934 37.69 52.2934Z" fill="#F5F5F5"/>
<path d="M104.847 10.0546L46.4175 9.62939C44.5394 9.61572 43.0018 11.1549 42.9884 13.062C42.9749 14.9692 44.4906 16.5305 46.3687 16.5442L104.798 16.9694C106.676 16.9831 108.214 15.444 108.227 13.5368C108.241 11.6297 106.725 10.0683 104.847 10.0546Z" fill="#F5F5F5"/>
<path d="M37.69 13.9265C38.5392 13.9265 39.2277 13.2274 39.2277 12.365C39.2277 11.5027 38.5392 10.8036 37.69 10.8036C36.8408 10.8036 36.1523 11.5027 36.1523 12.365C36.1523 13.2274 36.8408 13.9265 37.69 13.9265Z" fill="#F5F5F5"/>
</svg>
