<svg width="277" height="167" viewBox="0 0 277 167" fill="none" xmlns="http://www.w3.org/2000/svg">
<path d="M55.1378 23.975H33.4777C31.3953 23.9769 29.3987 24.805 27.9262 26.2775C26.4538 27.75 25.6257 29.7465 25.6238 31.8289V55.3121C25.3469 55.2955 25.07 55.2708 24.7971 55.2377C19.6656 54.6978 14.787 52.7351 10.7113 49.5709C6.63556 46.4067 3.52485 42.1669 1.72986 37.3293C-0.0651362 32.4918 -0.473025 27.2491 0.552182 22.1921C1.57739 17.1352 3.99491 12.4652 7.5322 8.70874C11.0695 4.95225 15.5858 2.25865 20.5721 0.931613C25.5583 -0.395423 30.8161 -0.303114 35.7527 1.19814C40.6893 2.69939 45.1083 5.54988 48.5115 9.42823C51.9147 13.3066 54.1669 18.0585 55.0139 23.1483C55.0593 23.4211 55.1007 23.6981 55.1378 23.975Z" fill="#B2C8FF"/>
<path d="M310.84 23.1483H33.4736C31.1721 23.1508 28.9656 24.0662 27.3382 25.6936C25.7109 27.321 24.7955 29.5275 24.793 31.8289V178.159C24.7955 180.461 25.7109 182.667 27.3382 184.295C28.9656 185.922 31.1721 186.837 33.4736 186.84H310.84C313.141 186.837 315.348 185.922 316.975 184.295C318.603 182.667 319.518 180.461 319.521 178.159V31.8289C319.518 29.5275 318.603 27.321 316.975 25.6936C315.348 24.0662 313.141 23.1508 310.84 23.1483ZM318.694 178.159C318.692 180.242 317.864 182.238 316.391 183.711C314.919 185.183 312.922 186.011 310.84 186.013H33.4736C31.3912 186.011 29.3946 185.183 27.9221 183.711C26.4496 182.238 25.6216 180.242 25.6197 178.159V31.8289C25.6216 29.7465 26.4496 27.75 27.9221 26.2775C29.3946 24.805 31.3912 23.9769 33.4736 23.975H310.84C312.922 23.9769 314.919 24.805 316.391 26.2775C317.864 27.75 318.692 29.7465 318.694 31.8289V178.159Z" fill="#E5E5E5"/>
<path d="M297.201 46.8628H47.1165C47.0069 46.8628 46.9017 46.8192 46.8242 46.7417C46.7467 46.6642 46.7031 46.5591 46.7031 46.4494C46.7031 46.3398 46.7467 46.2347 46.8242 46.1571C46.9017 46.0796 47.0069 46.0361 47.1165 46.0361H297.201C297.31 46.0361 297.416 46.0796 297.493 46.1571C297.571 46.2347 297.614 46.3398 297.614 46.4494C297.614 46.5591 297.571 46.6642 297.493 46.7417C297.416 46.8192 297.31 46.8628 297.201 46.8628Z" fill="#E5E5E5"/>
<path d="M117.812 169.065C117.702 169.065 117.597 169.022 117.52 168.944C117.442 168.867 117.398 168.762 117.398 168.652V32.6557C117.398 32.546 117.442 32.4409 117.52 32.3634C117.597 32.2858 117.702 32.2423 117.812 32.2423C117.921 32.2423 118.027 32.2858 118.104 32.3634C118.182 32.4409 118.225 32.546 118.225 32.6557V168.652C118.225 168.762 118.182 168.867 118.104 168.944C118.027 169.022 117.921 169.065 117.812 169.065Z" fill="#E5E5E5"/>
<path d="M180.214 169.065C180.105 169.065 179.999 169.022 179.922 168.944C179.844 168.867 179.801 168.762 179.801 168.652V32.6557C179.801 32.546 179.844 32.4409 179.922 32.3634C179.999 32.2858 180.105 32.2423 180.214 32.2423C180.324 32.2423 180.429 32.2858 180.506 32.3634C180.584 32.4409 180.628 32.546 180.628 32.6557V168.652C180.628 168.762 180.584 168.867 180.506 168.944C180.429 169.022 180.324 169.065 180.214 169.065Z" fill="#E5E5E5"/>
<path d="M242.636 169.065C242.526 169.065 242.421 169.022 242.344 168.944C242.266 168.867 242.223 168.762 242.223 168.652V32.6557C242.223 32.546 242.266 32.4409 242.344 32.3634C242.421 32.2858 242.526 32.2423 242.636 32.2423C242.746 32.2423 242.851 32.2858 242.928 32.3634C243.006 32.4409 243.049 32.546 243.049 32.6557V168.652C243.049 168.762 243.006 168.867 242.928 168.944C242.851 169.022 242.746 169.065 242.636 169.065Z" fill="#E5E5E5"/>
<path d="M77.6675 89.5292H62.5633C62.0701 89.5286 61.5973 89.3325 61.2486 88.9838C60.8998 88.635 60.7037 88.1622 60.7031 87.6691V69.845C60.7037 69.3518 60.8998 68.879 61.2486 68.5303C61.5973 68.1816 62.0701 67.9854 62.5633 67.9849H77.6675C78.1607 67.9854 78.6335 68.1816 78.9822 68.5303C79.3309 68.879 79.5271 69.3518 79.5276 69.845V87.6691C79.5271 88.1622 79.3309 88.635 78.9822 88.9838C78.6335 89.3325 78.1607 89.5286 77.6675 89.5292Z" fill="#3F76FF"/>
<path d="M99.1753 140.373H84.0711C83.5779 140.372 83.1051 140.176 82.7564 139.827C82.4076 139.479 82.2115 139.006 82.2109 138.513V120.689C82.2115 120.195 82.4076 119.723 82.7564 119.374C83.1051 119.025 83.5779 118.829 84.0711 118.829H99.1753C99.6685 118.829 100.141 119.025 100.49 119.374C100.839 119.723 101.035 120.195 101.035 120.689V138.513C101.035 139.006 100.839 139.479 100.49 139.827C100.141 140.176 99.6685 140.372 99.1753 140.373Z" fill="#3F76FF"/>
<path d="M147.937 100.277H132.833C132.34 100.276 131.867 100.08 131.518 99.7311C131.169 99.3824 130.973 98.9096 130.973 98.4164V80.5924C130.973 80.0992 131.169 79.6264 131.518 79.2777C131.867 78.9289 132.34 78.7328 132.833 78.7322H147.937C148.43 78.7328 148.903 78.9289 149.252 79.2777C149.6 79.6264 149.797 80.0992 149.797 80.5924V98.4164C149.797 98.9096 149.6 99.3824 149.252 99.7311C148.903 100.08 148.43 100.276 147.937 100.277Z" fill="#3F76FF"/>
<path d="M211.195 80.8485H196.091C195.597 80.848 195.125 80.6518 194.776 80.3031C194.427 79.9544 194.231 79.4816 194.23 78.9884V61.1644C194.231 60.6712 194.427 60.1984 194.776 59.8497C195.125 59.5009 195.597 59.3048 196.091 59.3042H211.195C211.688 59.3048 212.161 59.5009 212.51 59.8497C212.858 60.1984 213.054 60.6712 213.055 61.1644V78.9884C213.054 79.4816 212.858 79.9544 212.51 80.3031C212.161 80.6518 211.688 80.848 211.195 80.8485Z" fill="#3F76FF"/>
<path d="M269.468 80.8485H254.364C253.871 80.848 253.398 80.6518 253.049 80.3031C252.701 79.9544 252.504 79.4816 252.504 78.9884V61.1644C252.504 60.6712 252.701 60.1984 253.049 59.8497C253.398 59.5009 253.871 59.3048 254.364 59.3042H269.468C269.961 59.3048 270.434 59.5009 270.783 59.8497C271.132 60.1984 271.328 60.6712 271.328 61.1644V78.9884C271.328 79.4816 271.132 79.9544 270.783 80.3031C270.434 80.6518 269.961 80.848 269.468 80.8485Z" fill="#3F76FF"/>
<path d="M284.347 117.638H269.243C268.75 117.637 268.277 117.441 267.928 117.092C267.58 116.744 267.383 116.271 267.383 115.778V97.9536C267.383 97.4604 267.58 96.9876 267.928 96.6389C268.277 96.2902 268.75 96.094 269.243 96.0935H284.347C284.84 96.094 285.313 96.2902 285.662 96.6389C286.011 96.9876 286.207 97.4604 286.207 97.9536V115.778C286.207 116.271 286.011 116.744 285.662 117.092C285.313 117.441 284.84 117.637 284.347 117.638Z" fill="#E5E5E5"/>
<path d="M233.105 111.024H218.001C217.508 111.023 217.035 110.827 216.686 110.479C216.337 110.13 216.141 109.657 216.141 109.164V91.3399C216.141 90.8467 216.337 90.3739 216.686 90.0252C217.035 89.6764 217.508 89.4803 218.001 89.4797H233.105C233.598 89.4803 234.071 89.6764 234.42 90.0252C234.768 90.3739 234.965 90.8467 234.965 91.3399V109.164C234.965 109.657 234.768 110.13 234.42 110.479C234.071 110.827 233.598 111.023 233.105 111.024Z" fill="#FF6584"/>
<path d="M203.757 117.638H188.653C188.16 117.637 187.687 117.441 187.338 117.092C186.99 116.744 186.794 116.271 186.793 115.778V97.9536C186.794 97.4604 186.99 96.9876 187.338 96.6389C187.687 96.2902 188.16 96.094 188.653 96.0935H203.757C204.251 96.094 204.723 96.2902 205.072 96.6389C205.421 96.9876 205.617 97.4604 205.617 97.9536V115.778C205.617 116.271 205.421 116.744 205.072 117.092C204.723 117.441 204.251 117.637 203.757 117.638Z" fill="#E5E5E5"/>
<path d="M140.496 145.746H125.391C124.898 145.746 124.425 145.55 124.077 145.201C123.728 144.852 123.532 144.379 123.531 143.886V126.062C123.532 125.569 123.728 125.096 124.077 124.748C124.425 124.399 124.898 124.203 125.391 124.202H140.496C140.989 124.203 141.462 124.399 141.81 124.748C142.159 125.096 142.355 125.569 142.356 126.062V143.886C142.355 144.38 142.159 144.852 141.81 145.201C141.462 145.55 140.989 145.746 140.496 145.746Z" fill="#E5E5E5"/>
<path d="M64.0308 122.185H48.9265C48.4334 122.184 47.9606 121.988 47.6118 121.639C47.2631 121.291 47.067 120.818 47.0664 120.325V102.501C47.067 102.008 47.2631 101.535 47.6118 101.186C47.9606 100.837 48.4334 100.641 48.9265 100.641H64.0308C64.524 100.641 64.9968 100.837 65.3455 101.186C65.6942 101.535 65.8904 102.008 65.8909 102.501V120.325C65.8904 120.818 65.6942 121.291 65.3455 121.639C64.9968 121.988 64.524 122.184 64.0308 122.185Z" fill="#FF6584"/>
<path d="M106.617 89.5292H91.5125C91.0193 89.5286 90.5465 89.3325 90.1978 88.9838C89.849 88.635 89.6529 88.1622 89.6523 87.6691V69.845C89.6529 69.3518 89.849 68.879 90.1978 68.5303C90.5465 68.1816 91.0193 67.9854 91.5125 67.9849H106.617C107.11 67.9854 107.583 68.1816 107.931 68.5303C108.28 68.879 108.476 69.3518 108.477 69.845V87.6691C108.476 88.1622 108.28 88.635 107.931 88.9838C107.583 89.3325 107.11 89.5286 106.617 89.5292Z" fill="#E5E5E5"/>
<path d="M94.2386 40.0962H70.6769C70.2384 40.0962 69.8178 39.922 69.5077 39.6119C69.1976 39.3018 69.0234 38.8813 69.0234 38.4427C69.0234 38.0042 69.1976 37.5837 69.5077 37.2736C69.8178 36.9635 70.2384 36.7893 70.6769 36.7893H94.2386C94.6771 36.7893 95.0976 36.9635 95.4077 37.2736C95.7178 37.5837 95.892 38.0042 95.892 38.4427C95.892 38.8813 95.7178 39.3018 95.4077 39.6119C95.0976 39.922 94.6771 40.0962 94.2386 40.0962Z" fill="#D4D4D4"/>
<path d="M160.782 40.0962H137.22C136.781 40.0962 136.361 39.922 136.051 39.6119C135.741 39.3018 135.566 38.8813 135.566 38.4427C135.566 38.0042 135.741 37.5837 136.051 37.2736C136.361 36.9635 136.781 36.7893 137.22 36.7893H160.782C161.22 36.7893 161.641 36.9635 161.951 37.2736C162.261 37.5837 162.435 38.0042 162.435 38.4427C162.435 38.8813 162.261 39.3018 161.951 39.6119C161.641 39.922 161.22 40.0962 160.782 40.0962Z" fill="#D4D4D4"/>
<path d="M223.207 40.0962H199.646C199.207 40.0962 198.787 39.922 198.476 39.6119C198.166 39.3018 197.992 38.8813 197.992 38.4427C197.992 38.0042 198.166 37.5837 198.476 37.2736C198.787 36.9635 199.207 36.7893 199.646 36.7893H223.207C223.646 36.7893 224.066 36.9635 224.376 37.2736C224.687 37.5837 224.861 38.0042 224.861 38.4427C224.861 38.8813 224.687 39.3018 224.376 39.6119C224.066 39.922 223.646 40.0962 223.207 40.0962Z" fill="#D4D4D4"/>
<path d="M281.496 40.0962H257.935C257.496 40.0962 257.076 39.922 256.766 39.6119C256.455 39.3018 256.281 38.8813 256.281 38.4427C256.281 38.0042 256.455 37.5837 256.766 37.2736C257.076 36.9635 257.496 36.7893 257.935 36.7893H281.496C281.935 36.7893 282.355 36.9635 282.666 37.2736C282.976 37.5837 283.15 38.0042 283.15 38.4427C283.15 38.8813 282.976 39.3018 282.666 39.6119C282.355 39.922 281.935 40.0962 281.496 40.0962Z" fill="#D4D4D4"/>
</svg>
