<svg width="289" height="116" viewBox="0 0 289 116" fill="none" xmlns="http://www.w3.org/2000/svg">
<g filter="url(#filter0_d_1424_38225)">
<rect x="26" y="3" width="260" height="87" rx="6.16937" fill="white"/>
</g>
<path d="M26 63H285.731V83.3589C285.731 86.7662 282.968 89.5283 279.561 89.5283H32.1694C28.7621 89.5283 26 86.7662 26 83.3589V63Z" fill="#FAFAFA"/>
<path d="M26 63H285.731" stroke="#E2E2E2" stroke-width="0.616937"/>
<path d="M40.5044 18.7349H42.6003L45.4071 25.5858H45.5179L48.3247 18.7349H50.4206V28.1895H48.7772V21.6941H48.6894L46.0765 28.1618H44.8485L42.2356 21.6802H42.1479V28.1895H40.5044V18.7349ZM55.3049 28.3279C54.6124 28.3279 54.0122 28.1756 53.5044 27.8709C52.9966 27.5662 52.6027 27.14 52.3226 26.5922C52.0456 26.0443 51.9071 25.4042 51.9071 24.6717C51.9071 23.9392 52.0456 23.2975 52.3226 22.7466C52.6027 22.1957 52.9966 21.7679 53.5044 21.4632C54.0122 21.1586 54.6124 21.0062 55.3049 21.0062C55.9973 21.0062 56.5975 21.1586 57.1053 21.4632C57.6131 21.7679 58.0055 22.1957 58.2825 22.7466C58.5625 23.2975 58.7026 23.9392 58.7026 24.6717C58.7026 25.4042 58.5625 26.0443 58.2825 26.5922C58.0055 27.14 57.6131 27.5662 57.1053 27.8709C56.5975 28.1756 55.9973 28.3279 55.3049 28.3279ZM55.3141 26.9892C55.6896 26.9892 56.0035 26.8861 56.2558 26.6799C56.5082 26.4706 56.696 26.1905 56.8191 25.8397C56.9452 25.4888 57.0083 25.098 57.0083 24.6671C57.0083 24.2331 56.9452 23.8407 56.8191 23.4899C56.696 23.1359 56.5082 22.8543 56.2558 22.6451C56.0035 22.4358 55.6896 22.3311 55.3141 22.3311C54.9294 22.3311 54.6093 22.4358 54.3539 22.6451C54.1015 22.8543 53.9122 23.1359 53.786 23.4899C53.6629 23.8407 53.6014 24.2331 53.6014 24.6671C53.6014 25.098 53.6629 25.4888 53.786 25.8397C53.9122 26.1905 54.1015 26.4706 54.3539 26.6799C54.6093 26.8861 54.9294 26.9892 55.3141 26.9892ZM62.7524 28.3141C62.1953 28.3141 61.6968 28.171 61.2566 27.8848C60.8165 27.5985 60.4688 27.1831 60.2133 26.6383C59.9579 26.0936 59.8302 25.4319 59.8302 24.6532C59.8302 23.8654 59.9594 23.2006 60.2179 22.6589C60.4795 22.1142 60.8319 21.7033 61.2751 21.4263C61.7183 21.1462 62.2123 21.0062 62.757 21.0062C63.1725 21.0062 63.5141 21.077 63.7819 21.2186C64.0496 21.3571 64.262 21.5248 64.4189 21.7218C64.5759 21.9157 64.6975 22.0988 64.7836 22.2711H64.8529V18.7349H66.5287V28.1895H64.8852V27.0723H64.7836C64.6975 27.2446 64.5728 27.4277 64.4097 27.6216C64.2466 27.8124 64.0312 27.9756 63.7634 28.111C63.4956 28.2464 63.1586 28.3141 62.7524 28.3141ZM63.2187 26.943C63.5726 26.943 63.8742 26.8476 64.1235 26.6568C64.3728 26.4629 64.562 26.1936 64.6913 25.8489C64.8206 25.5042 64.8852 25.1026 64.8852 24.644C64.8852 24.1854 64.8206 23.7869 64.6913 23.4483C64.5651 23.1098 64.3774 22.8466 64.1281 22.6589C63.8819 22.4712 63.5787 22.3773 63.2187 22.3773C62.8463 22.3773 62.5354 22.4743 62.2861 22.6681C62.0368 22.862 61.8491 23.1298 61.7229 23.4714C61.5967 23.813 61.5336 24.2039 61.5336 24.644C61.5336 25.0872 61.5967 25.4827 61.7229 25.8304C61.8522 26.1751 62.0414 26.4475 62.2907 26.6475C62.5431 26.8445 62.8524 26.943 63.2187 26.943ZM72.829 25.2072V21.0985H74.5002V28.1895H72.8798V26.9292H72.8059C72.6459 27.3262 72.3827 27.6509 72.0165 27.9032C71.6533 28.1556 71.2055 28.2818 70.6731 28.2818C70.2084 28.2818 69.7975 28.1787 69.4405 27.9725C69.0866 27.7632 68.8096 27.46 68.6095 27.063C68.4095 26.6629 68.3095 26.1797 68.3095 25.6135V21.0985H69.9806V25.3549C69.9806 25.8043 70.1037 26.1613 70.35 26.426C70.5962 26.6906 70.9193 26.823 71.3194 26.823C71.5656 26.823 71.8041 26.763 72.035 26.6429C72.2658 26.5229 72.4551 26.3444 72.6028 26.1074C72.7536 25.8674 72.829 25.5673 72.829 25.2072ZM77.8898 18.7349V28.1895H76.2187V18.7349H77.8898ZM82.7475 28.3279C82.0366 28.3279 81.4226 28.1802 80.9055 27.8848C80.3916 27.5862 79.9961 27.1646 79.7191 26.6199C79.4421 26.072 79.3036 25.4273 79.3036 24.6855C79.3036 23.9561 79.4421 23.316 79.7191 22.7651C79.9992 22.2111 80.39 21.7802 80.8917 21.4725C81.3933 21.1616 81.9827 21.0062 82.6598 21.0062C83.0968 21.0062 83.5092 21.077 83.897 21.2186C84.2879 21.3571 84.6326 21.5725 84.9311 21.8649C85.2327 22.1573 85.4697 22.5297 85.642 22.9821C85.8144 23.4314 85.9006 23.9669 85.9006 24.5886V25.101H80.0884V23.9746H84.2986C84.2956 23.6545 84.2263 23.3699 84.0909 23.1206C83.9555 22.8682 83.7662 22.6697 83.5231 22.525C83.283 22.3804 83.0029 22.3081 82.6829 22.3081C82.3413 22.3081 82.0412 22.3912 81.7827 22.5574C81.5241 22.7205 81.3226 22.9359 81.1779 23.2037C81.0363 23.4683 80.964 23.7592 80.9609 24.0762V25.0595C80.9609 25.4719 81.0363 25.8258 81.1871 26.1213C81.3379 26.4136 81.5488 26.6383 81.8196 26.7953C82.0904 26.9492 82.4074 27.0261 82.7706 27.0261C83.0137 27.0261 83.2338 26.9922 83.4307 26.9245C83.6277 26.8538 83.7985 26.7507 83.9432 26.6152C84.0878 26.4798 84.1971 26.3121 84.2709 26.112L85.8313 26.2875C85.7328 26.6999 85.5451 27.06 85.2681 27.3677C84.9942 27.6724 84.6433 27.9094 84.2155 28.0787C83.7877 28.2449 83.2984 28.3279 82.7475 28.3279ZM98.3824 18.7349V28.1895H96.8589L92.404 21.7495H92.3255V28.1895H90.6128V18.7349H92.1455L96.5958 25.1795H96.6789V18.7349H98.3824ZM102.215 28.3326C101.766 28.3326 101.361 28.2525 101.001 28.0925C100.644 27.9294 100.361 27.6893 100.152 27.3723C99.9454 27.0553 99.8423 26.6645 99.8423 26.1998C99.8423 25.7997 99.9162 25.4688 100.064 25.2072C100.212 24.9456 100.413 24.7363 100.669 24.5794C100.924 24.4224 101.212 24.3039 101.532 24.2239C101.855 24.1408 102.189 24.0808 102.534 24.0439C102.949 24.0008 103.286 23.9623 103.545 23.9284C103.803 23.8915 103.991 23.8361 104.108 23.7623C104.228 23.6853 104.288 23.5668 104.288 23.4068V23.3791C104.288 23.0313 104.185 22.762 103.979 22.5712C103.772 22.3804 103.475 22.285 103.088 22.285C102.678 22.285 102.354 22.3742 102.114 22.5527C101.877 22.7312 101.717 22.9421 101.634 23.1852L100.073 22.9636C100.196 22.5327 100.399 22.1726 100.683 21.8833C100.966 21.591 101.312 21.3725 101.721 21.2278C102.131 21.0801 102.583 21.0062 103.078 21.0062C103.42 21.0062 103.76 21.0462 104.099 21.1262C104.437 21.2063 104.747 21.3386 105.027 21.5233C105.307 21.7048 105.531 21.9526 105.701 22.2665C105.873 22.5804 105.959 22.9728 105.959 23.4437V28.1895H104.353V27.2154H104.297C104.196 27.4123 104.053 27.597 103.868 27.7694C103.686 27.9386 103.457 28.0756 103.18 28.1802C102.906 28.2818 102.585 28.3326 102.215 28.3326ZM102.649 27.1046C102.985 27.1046 103.275 27.0384 103.522 26.9061C103.768 26.7707 103.957 26.5922 104.089 26.3706C104.225 26.149 104.293 25.9074 104.293 25.6458V24.8102C104.24 24.8533 104.151 24.8933 104.025 24.9302C103.902 24.9672 103.763 24.9995 103.609 25.0272C103.455 25.0549 103.303 25.0795 103.152 25.101C103.002 25.1226 102.871 25.141 102.76 25.1564C102.511 25.1903 102.288 25.2457 102.091 25.3226C101.894 25.3996 101.738 25.5073 101.624 25.6458C101.51 25.7812 101.453 25.9566 101.453 26.1721C101.453 26.4798 101.566 26.7122 101.79 26.8691C102.015 27.0261 102.301 27.1046 102.649 27.1046ZM107.64 28.1895V21.0985H109.237V22.3034H109.32C109.468 21.8972 109.712 21.5802 110.054 21.3525C110.396 21.1216 110.803 21.0062 111.277 21.0062C111.757 21.0062 112.162 21.1232 112.491 21.3571C112.824 21.5879 113.058 21.9033 113.193 22.3034H113.267C113.424 21.9095 113.689 21.5956 114.061 21.3617C114.437 21.1247 114.881 21.0062 115.395 21.0062C116.048 21.0062 116.58 21.2124 116.993 21.6248C117.405 22.0372 117.611 22.6389 117.611 23.4299V28.1895H115.935V23.6884C115.935 23.2483 115.818 22.9267 115.585 22.7235C115.351 22.5173 115.064 22.4142 114.726 22.4142C114.323 22.4142 114.007 22.5404 113.779 22.7928C113.555 23.0421 113.442 23.3668 113.442 23.7669V28.1895H111.804V23.6191C111.804 23.2529 111.693 22.9605 111.471 22.742C111.253 22.5235 110.966 22.4142 110.613 22.4142C110.373 22.4142 110.154 22.4758 109.957 22.5989C109.76 22.7189 109.603 22.8897 109.486 23.1113C109.369 23.3298 109.311 23.5853 109.311 23.8777V28.1895H107.64ZM122.446 28.3279C121.735 28.3279 121.121 28.1802 120.604 27.8848C120.09 27.5862 119.694 27.1646 119.417 26.6199C119.14 26.072 119.002 25.4273 119.002 24.6855C119.002 23.9561 119.14 23.316 119.417 22.7651C119.697 22.2111 120.088 21.7802 120.59 21.4725C121.092 21.1616 121.681 21.0062 122.358 21.0062C122.795 21.0062 123.207 21.077 123.595 21.2186C123.986 21.3571 124.331 21.5725 124.629 21.8649C124.931 22.1573 125.168 22.5297 125.34 22.9821C125.513 23.4314 125.599 23.9669 125.599 24.5886V25.101H119.787V23.9746H123.997C123.994 23.6545 123.925 23.3699 123.789 23.1206C123.654 22.8682 123.464 22.6697 123.221 22.525C122.981 22.3804 122.701 22.3081 122.381 22.3081C122.039 22.3081 121.739 22.3912 121.481 22.5574C121.222 22.7205 121.021 22.9359 120.876 23.2037C120.735 23.4683 120.662 23.7592 120.659 24.0762V25.0595C120.659 25.4719 120.735 25.8258 120.885 26.1213C121.036 26.4136 121.247 26.6383 121.518 26.7953C121.789 26.9492 122.106 27.0261 122.469 27.0261C122.712 27.0261 122.932 26.9922 123.129 26.9245C123.326 26.8538 123.497 26.7507 123.641 26.6152C123.786 26.4798 123.895 26.3121 123.969 26.112L125.53 26.2875C125.431 26.6999 125.243 27.06 124.966 27.3677C124.692 27.6724 124.342 27.9094 123.914 28.0787C123.486 28.2449 122.997 28.3279 122.446 28.3279Z" fill="black"/>
<path d="M39.5732 76.5747C39.5732 75.8932 40.1257 75.3408 40.8071 75.3408H82.8896V77.8086H40.8071C40.1257 77.8086 39.5732 77.2561 39.5732 76.5747Z" fill="#DEE2E6"/>
<rect x="84.4091" y="75.3408" width="29.6375" height="2.46775" fill="#26B5CE"/>
<rect x="115.567" y="75.3408" width="61.5548" height="2.46775" fill="#F7AE59"/>
<rect x="178.641" y="75.3408" width="33.4372" height="2.46775" fill="#D687FF"/>
<path d="M213.599 75.3408H267.841C268.522 75.3408 269.075 75.8932 269.075 76.5747C269.075 77.2561 268.522 77.8086 267.841 77.8086H213.599V75.3408Z" fill="#09A953"/>
<rect x="39.5719" y="40.6328" width="79.5849" height="8.02018" rx="4.01009" fill="#EBEBEB"/>
<rect x="134.581" y="40.6328" width="79.5849" height="8.02018" rx="4.01009" fill="#E2E2E2"/>
<g filter="url(#filter1_d_1424_38225)">
<rect x="3" y="26" width="260" height="87" rx="6.16937" fill="white"/>
</g>
<path d="M3 86H262.731V106.359C262.731 109.766 259.968 112.528 256.561 112.528H9.16936C5.76211 112.528 3 109.766 3 106.359V86Z" fill="#FAFAFA"/>
<path d="M3 86H262.731" stroke="#E2E2E2" stroke-width="0.616937"/>
<path d="M17.5044 41.7349H19.6003L22.4071 48.5858H22.5179L25.3247 41.7349H27.4206V51.1895H25.7772V44.6941H25.6894L23.0765 51.1618H21.8485L19.2356 44.6802H19.1479V51.1895H17.5044V41.7349ZM32.3049 51.3279C31.6124 51.3279 31.0122 51.1756 30.5044 50.8709C29.9966 50.5662 29.6027 50.14 29.3226 49.5922C29.0456 49.0443 28.9071 48.4042 28.9071 47.6717C28.9071 46.9392 29.0456 46.2975 29.3226 45.7466C29.6027 45.1957 29.9966 44.7679 30.5044 44.4632C31.0122 44.1586 31.6124 44.0062 32.3049 44.0062C32.9973 44.0062 33.5975 44.1586 34.1053 44.4632C34.6131 44.7679 35.0055 45.1957 35.2825 45.7466C35.5625 46.2975 35.7026 46.9392 35.7026 47.6717C35.7026 48.4042 35.5625 49.0443 35.2825 49.5922C35.0055 50.14 34.6131 50.5662 34.1053 50.8709C33.5975 51.1756 32.9973 51.3279 32.3049 51.3279ZM32.3141 49.9892C32.6896 49.9892 33.0035 49.8861 33.2558 49.6799C33.5082 49.4706 33.696 49.1905 33.8191 48.8397C33.9452 48.4888 34.0083 48.098 34.0083 47.6671C34.0083 47.2331 33.9452 46.8407 33.8191 46.4899C33.696 46.1359 33.5082 45.8543 33.2558 45.6451C33.0035 45.4358 32.6896 45.3311 32.3141 45.3311C31.9294 45.3311 31.6093 45.4358 31.3539 45.6451C31.1015 45.8543 30.9122 46.1359 30.786 46.4899C30.6629 46.8407 30.6014 47.2331 30.6014 47.6671C30.6014 48.098 30.6629 48.4888 30.786 48.8397C30.9122 49.1905 31.1015 49.4706 31.3539 49.6799C31.6093 49.8861 31.9294 49.9892 32.3141 49.9892ZM39.7524 51.3141C39.1953 51.3141 38.6968 51.171 38.2566 50.8848C37.8165 50.5985 37.4688 50.1831 37.2133 49.6383C36.9579 49.0936 36.8302 48.4319 36.8302 47.6532C36.8302 46.8654 36.9594 46.2006 37.2179 45.6589C37.4795 45.1142 37.8319 44.7033 38.2751 44.4263C38.7183 44.1462 39.2123 44.0062 39.757 44.0062C40.1725 44.0062 40.5141 44.077 40.7819 44.2186C41.0496 44.3571 41.262 44.5248 41.4189 44.7218C41.5759 44.9157 41.6975 45.0988 41.7836 45.2711H41.8529V41.7349H43.5287V51.1895H41.8852V50.0723H41.7836C41.6975 50.2446 41.5728 50.4277 41.4097 50.6216C41.2466 50.8124 41.0312 50.9756 40.7634 51.111C40.4956 51.2464 40.1586 51.3141 39.7524 51.3141ZM40.2187 49.943C40.5726 49.943 40.8742 49.8476 41.1235 49.6568C41.3728 49.4629 41.562 49.1936 41.6913 48.8489C41.8206 48.5042 41.8852 48.1026 41.8852 47.644C41.8852 47.1854 41.8206 46.7869 41.6913 46.4483C41.5651 46.1098 41.3774 45.8466 41.1281 45.6589C40.8819 45.4712 40.5787 45.3773 40.2187 45.3773C39.8463 45.3773 39.5354 45.4743 39.2861 45.6681C39.0368 45.862 38.8491 46.1298 38.7229 46.4714C38.5967 46.813 38.5336 47.2039 38.5336 47.644C38.5336 48.0872 38.5967 48.4827 38.7229 48.8304C38.8522 49.1751 39.0414 49.4475 39.2907 49.6475C39.5431 49.8445 39.8524 49.943 40.2187 49.943ZM49.829 48.2072V44.0985H51.5002V51.1895H49.8798V49.9292H49.8059C49.6459 50.3262 49.3827 50.6509 49.0165 50.9032C48.6533 51.1556 48.2055 51.2818 47.6731 51.2818C47.2084 51.2818 46.7975 51.1787 46.4405 50.9725C46.0866 50.7632 45.8096 50.46 45.6095 50.063C45.4095 49.6629 45.3095 49.1797 45.3095 48.6135V44.0985H46.9806V48.3549C46.9806 48.8043 47.1037 49.1613 47.35 49.426C47.5962 49.6906 47.9193 49.823 48.3194 49.823C48.5656 49.823 48.8041 49.763 49.035 49.6429C49.2658 49.5229 49.4551 49.3444 49.6028 49.1074C49.7536 48.8674 49.829 48.5673 49.829 48.2072ZM54.8898 41.7349V51.1895H53.2187V41.7349H54.8898ZM59.7475 51.3279C59.0366 51.3279 58.4226 51.1802 57.9055 50.8848C57.3916 50.5862 56.9961 50.1646 56.7191 49.6199C56.4421 49.072 56.3036 48.4273 56.3036 47.6855C56.3036 46.9561 56.4421 46.316 56.7191 45.7651C56.9992 45.2111 57.39 44.7802 57.8917 44.4725C58.3933 44.1616 58.9827 44.0062 59.6598 44.0062C60.0968 44.0062 60.5092 44.077 60.897 44.2186C61.2879 44.3571 61.6326 44.5725 61.9311 44.8649C62.2327 45.1573 62.4697 45.5297 62.642 45.9821C62.8144 46.4314 62.9006 46.9669 62.9006 47.5886V48.101H57.0884V46.9746H61.2986C61.2956 46.6545 61.2263 46.3699 61.0909 46.1206C60.9555 45.8682 60.7662 45.6697 60.5231 45.525C60.283 45.3804 60.0029 45.3081 59.6829 45.3081C59.3413 45.3081 59.0412 45.3912 58.7827 45.5574C58.5241 45.7205 58.3226 45.9359 58.1779 46.2037C58.0363 46.4683 57.964 46.7592 57.9609 47.0762V48.0595C57.9609 48.4719 58.0363 48.8258 58.1871 49.1213C58.3379 49.4136 58.5488 49.6383 58.8196 49.7953C59.0904 49.9492 59.4074 50.0261 59.7706 50.0261C60.0137 50.0261 60.2338 49.9922 60.4307 49.9245C60.6277 49.8538 60.7985 49.7507 60.9432 49.6152C61.0878 49.4798 61.1971 49.3121 61.2709 49.112L62.8313 49.2875C62.7328 49.6999 62.5451 50.06 62.2681 50.3677C61.9942 50.6724 61.6433 50.9094 61.2155 51.0787C60.7877 51.2449 60.2984 51.3279 59.7475 51.3279ZM75.3824 41.7349V51.1895H73.8589L69.404 44.7495H69.3255V51.1895H67.6128V41.7349H69.1455L73.5958 48.1795H73.6789V41.7349H75.3824ZM79.2152 51.3326C78.7659 51.3326 78.3611 51.2525 78.0011 51.0925C77.644 50.9294 77.3609 50.6893 77.1516 50.3723C76.9454 50.0553 76.8423 49.6645 76.8423 49.1998C76.8423 48.7997 76.9162 48.4688 77.0639 48.2072C77.2116 47.9456 77.4132 47.7363 77.6687 47.5794C77.9241 47.4224 78.2119 47.3039 78.5319 47.2239C78.8551 47.1408 79.189 47.0808 79.5337 47.0439C79.9492 47.0008 80.2862 46.9623 80.5447 46.9284C80.8033 46.8915 80.991 46.8361 81.1079 46.7623C81.228 46.6853 81.288 46.5668 81.288 46.4068V46.3791C81.288 46.0313 81.1849 45.762 80.9787 45.5712C80.7725 45.3804 80.4755 45.285 80.0877 45.285C79.6784 45.285 79.3537 45.3742 79.1136 45.5527C78.8766 45.7312 78.7166 45.9421 78.6335 46.1852L77.0731 45.9636C77.1962 45.5327 77.3994 45.1726 77.6825 44.8833C77.9657 44.591 78.3119 44.3725 78.7212 44.2278C79.1306 44.0801 79.583 44.0062 80.0785 44.0062C80.4201 44.0062 80.7602 44.0462 81.0987 44.1262C81.4373 44.2063 81.7466 44.3386 82.0266 44.5233C82.3067 44.7048 82.5314 44.9526 82.7006 45.2665C82.873 45.5804 82.9592 45.9728 82.9592 46.4437V51.1895H81.3526V50.2154H81.2972C81.1957 50.4123 81.0525 50.597 80.8679 50.7694C80.6863 50.9386 80.457 51.0756 80.18 51.1802C79.9061 51.2818 79.5845 51.3326 79.2152 51.3326ZM79.6491 50.1046C79.9846 50.1046 80.2754 50.0384 80.5217 49.9061C80.7679 49.7707 80.9571 49.5922 81.0895 49.3706C81.2249 49.149 81.2926 48.9074 81.2926 48.6458V47.8102C81.2403 47.8533 81.151 47.8933 81.0248 47.9302C80.9017 47.9672 80.7632 47.9995 80.6094 48.0272C80.4555 48.0549 80.3031 48.0795 80.1523 48.101C80.0015 48.1226 79.8707 48.141 79.7599 48.1564C79.5106 48.1903 79.2875 48.2457 79.0905 48.3226C78.8936 48.3996 78.7382 48.5073 78.6243 48.6458C78.5104 48.7812 78.4535 48.9566 78.4535 49.1721C78.4535 49.4798 78.5658 49.7122 78.7905 49.8691C79.0151 50.0261 79.3014 50.1046 79.6491 50.1046ZM84.6395 51.1895V44.0985H86.2368V45.3034H86.3199C86.4677 44.8972 86.7123 44.5802 87.054 44.3525C87.3956 44.1216 87.8034 44.0062 88.2773 44.0062C88.7574 44.0062 89.1622 44.1232 89.4915 44.3571C89.8239 44.5879 90.0578 44.9033 90.1932 45.3034H90.267C90.424 44.9095 90.6887 44.5956 91.0611 44.3617C91.4365 44.1247 91.8813 44.0062 92.3952 44.0062C93.0477 44.0062 93.5801 44.2124 93.9925 44.6248C94.4049 45.0372 94.6111 45.6389 94.6111 46.4299V51.1895H92.9354V46.6884C92.9354 46.2483 92.8184 45.9267 92.5845 45.7235C92.3506 45.5173 92.0644 45.4142 91.7258 45.4142C91.3227 45.4142 91.0072 45.5404 90.7795 45.7928C90.5548 46.0421 90.4425 46.3668 90.4425 46.7669V51.1895H88.8036V46.6191C88.8036 46.2529 88.6928 45.9605 88.4712 45.742C88.2527 45.5235 87.9665 45.4142 87.6126 45.4142C87.3725 45.4142 87.154 45.4758 86.957 45.5989C86.7601 45.7189 86.6031 45.8897 86.4861 46.1113C86.3692 46.3298 86.3107 46.5853 86.3107 46.8777V51.1895H84.6395ZM99.4457 51.3279C98.7348 51.3279 98.1208 51.1802 97.6038 50.8848C97.0898 50.5862 96.6943 50.1646 96.4173 49.6199C96.1403 49.072 96.0019 48.4273 96.0019 47.6855C96.0019 46.9561 96.1403 46.316 96.4173 45.7651C96.6974 45.2111 97.0883 44.7802 97.5899 44.4725C98.0916 44.1616 98.6809 44.0062 99.358 44.0062C99.7951 44.0062 100.207 44.077 100.595 44.2186C100.986 44.3571 101.331 44.5725 101.629 44.8649C101.931 45.1573 102.168 45.5297 102.34 45.9821C102.513 46.4314 102.599 46.9669 102.599 47.5886V48.101H96.7867V46.9746H100.997C100.994 46.6545 100.925 46.3699 100.789 46.1206C100.654 45.8682 100.464 45.6697 100.221 45.525C99.9813 45.3804 99.7012 45.3081 99.3811 45.3081C99.0395 45.3081 98.7394 45.3912 98.4809 45.5574C98.2224 45.7205 98.0208 45.9359 97.8761 46.2037C97.7346 46.4683 97.6622 46.7592 97.6592 47.0762V48.0595C97.6592 48.4719 97.7346 48.8258 97.8854 49.1213C98.0362 49.4136 98.247 49.6383 98.5178 49.7953C98.7887 49.9492 99.1057 50.0261 99.4688 50.0261C99.712 50.0261 99.932 49.9922 100.129 49.9245C100.326 49.8538 100.497 49.7507 100.641 49.6152C100.786 49.4798 100.895 49.3121 100.969 49.112L102.53 49.2875C102.431 49.6999 102.243 50.06 101.966 50.3677C101.692 50.6724 101.342 50.9094 100.914 51.0787C100.486 51.2449 99.9966 51.3279 99.4457 51.3279Z" fill="black"/>
<path d="M16.5732 99.5747C16.5732 98.8932 17.1257 98.3408 17.8071 98.3408H59.8896V100.809H17.8071C17.1257 100.809 16.5732 100.256 16.5732 99.5747Z" fill="#DEE2E6"/>
<rect x="61.4091" y="98.3408" width="29.6375" height="2.46775" fill="#26B5CE"/>
<rect x="92.5669" y="98.3408" width="61.5548" height="2.46775" fill="#F7AE59"/>
<rect x="155.641" y="98.3408" width="33.4372" height="2.46775" fill="#D687FF"/>
<path d="M190.599 98.3408H244.841C245.522 98.3408 246.075 98.8932 246.075 99.5747C246.075 100.256 245.522 100.809 244.841 100.809H190.599V98.3408Z" fill="#09A953"/>
<rect x="16.5719" y="63.6328" width="79.5849" height="8.02018" rx="4.01009" fill="#EBEBEB"/>
<rect x="111.581" y="63.6328" width="79.5849" height="8.02018" rx="4.01009" fill="#E2E2E2"/>
<defs>
<filter id="filter0_d_1424_38225" x="23.5323" y="0.532252" width="264.935" height="91.9355" filterUnits="userSpaceOnUse" color-interpolation-filters="sRGB">
<feFlood flood-opacity="0" result="BackgroundImageFix"/>
<feColorMatrix in="SourceAlpha" type="matrix" values="0 0 0 0 0 0 0 0 0 0 0 0 0 0 0 0 0 0 127 0" result="hardAlpha"/>
<feOffset/>
<feGaussianBlur stdDeviation="1.23387"/>
<feComposite in2="hardAlpha" operator="out"/>
<feColorMatrix type="matrix" values="0 0 0 0 0 0 0 0 0 0 0 0 0 0 0 0 0 0 0.2 0"/>
<feBlend mode="normal" in2="BackgroundImageFix" result="effect1_dropShadow_1424_38225"/>
<feBlend mode="normal" in="SourceGraphic" in2="effect1_dropShadow_1424_38225" result="shape"/>
</filter>
<filter id="filter1_d_1424_38225" x="0.532252" y="23.5323" width="264.935" height="91.9355" filterUnits="userSpaceOnUse" color-interpolation-filters="sRGB">
<feFlood flood-opacity="0" result="BackgroundImageFix"/>
<feColorMatrix in="SourceAlpha" type="matrix" values="0 0 0 0 0 0 0 0 0 0 0 0 0 0 0 0 0 0 127 0" result="hardAlpha"/>
<feOffset/>
<feGaussianBlur stdDeviation="1.23387"/>
<feComposite in2="hardAlpha" operator="out"/>
<feColorMatrix type="matrix" values="0 0 0 0 0 0 0 0 0 0 0 0 0 0 0 0 0 0 0.2 0"/>
<feBlend mode="normal" in2="BackgroundImageFix" result="effect1_dropShadow_1424_38225"/>
<feBlend mode="normal" in="SourceGraphic" in2="effect1_dropShadow_1424_38225" result="shape"/>
</filter>
</defs>
</svg>
