<svg width="289" height="116" viewBox="0 0 289 116" fill="none" xmlns="http://www.w3.org/2000/svg">
<g filter="url(#filter0_d_1242_31463)">
<rect x="26" y="3" width="260" height="87" rx="6.16937" fill="white"/>
</g>
<path d="M26 63H285.731V83.3589C285.731 86.7662 282.968 89.5283 279.561 89.5283H32.1694C28.7621 89.5283 26 86.7662 26 83.3589V63Z" fill="#FAFAFA"/>
<path d="M26 63H285.731" stroke="#E2E2E2" stroke-width="0.616937"/>
<path d="M40.5048 28.1895V18.7349H42.2175V26.7537H46.3816V28.1895H40.5048ZM50.8873 28.3279C50.1948 28.3279 49.5946 28.1756 49.0868 27.8709C48.579 27.5662 48.1851 27.14 47.905 26.5922C47.628 26.0443 47.4895 25.4042 47.4895 24.6717C47.4895 23.9392 47.628 23.2975 47.905 22.7466C48.1851 22.1957 48.579 21.7679 49.0868 21.4632C49.5946 21.1586 50.1948 21.0062 50.8873 21.0062C51.5797 21.0062 52.1799 21.1586 52.6877 21.4632C53.1955 21.7679 53.5879 22.1957 53.8649 22.7466C54.1449 23.2975 54.285 23.9392 54.285 24.6717C54.285 25.4042 54.1449 26.0443 53.8649 26.5922C53.5879 27.14 53.1955 27.5662 52.6877 27.8709C52.1799 28.1756 51.5797 28.3279 50.8873 28.3279ZM50.8965 26.9892C51.272 26.9892 51.5859 26.8861 51.8382 26.6799C52.0906 26.4706 52.2783 26.1905 52.4015 25.8397C52.5276 25.4888 52.5907 25.098 52.5907 24.6671C52.5907 24.2331 52.5276 23.8407 52.4015 23.4899C52.2783 23.1359 52.0906 22.8543 51.8382 22.6451C51.5859 22.4358 51.272 22.3311 50.8965 22.3311C50.5118 22.3311 50.1917 22.4358 49.9363 22.6451C49.6839 22.8543 49.4946 23.1359 49.3684 23.4899C49.2453 23.8407 49.1838 24.2331 49.1838 24.6671C49.1838 25.098 49.2453 25.4888 49.3684 25.8397C49.4946 26.1905 49.6839 26.4706 49.9363 26.6799C50.1917 26.8861 50.5118 26.9892 50.8965 26.9892ZM57.7439 28.3326C57.2945 28.3326 56.8898 28.2525 56.5297 28.0925C56.1727 27.9294 55.8896 27.6893 55.6803 27.3723C55.4741 27.0553 55.371 26.6645 55.371 26.1998C55.371 25.7997 55.4449 25.4688 55.5926 25.2072C55.7403 24.9456 55.9419 24.7363 56.1974 24.5794C56.4528 24.4224 56.7406 24.3039 57.0606 24.2239C57.3838 24.1408 57.7177 24.0808 58.0624 24.0439C58.4779 24.0008 58.8149 23.9623 59.0734 23.9284C59.3319 23.8915 59.5197 23.8361 59.6366 23.7623C59.7567 23.6853 59.8167 23.5668 59.8167 23.4068V23.3791C59.8167 23.0313 59.7136 22.762 59.5074 22.5712C59.3012 22.3804 59.0042 22.285 58.6164 22.285C58.2071 22.285 57.8824 22.3742 57.6423 22.5527C57.4053 22.7312 57.2453 22.9421 57.1622 23.1852L55.6018 22.9636C55.7249 22.5327 55.9281 22.1726 56.2112 21.8833C56.4943 21.591 56.8406 21.3725 57.2499 21.2278C57.6592 21.0801 58.1117 21.0062 58.6072 21.0062C58.9488 21.0062 59.2889 21.0462 59.6274 21.1262C59.9659 21.2063 60.2752 21.3386 60.5553 21.5233C60.8354 21.7048 61.06 21.9526 61.2293 22.2665C61.4017 22.5804 61.4878 22.9728 61.4878 23.4437V28.1895H59.8813V27.2154H59.8259C59.7243 27.4123 59.5812 27.597 59.3966 27.7694C59.215 27.9386 58.9857 28.0756 58.7087 28.1802C58.4348 28.2818 58.1132 28.3326 57.7439 28.3326ZM58.1778 27.1046C58.5133 27.1046 58.8041 27.0384 59.0503 26.9061C59.2965 26.7707 59.4858 26.5922 59.6182 26.3706C59.7536 26.149 59.8213 25.9074 59.8213 25.6458V24.8102C59.769 24.8533 59.6797 24.8933 59.5535 24.9302C59.4304 24.9672 59.2919 24.9995 59.1381 25.0272C58.9842 25.0549 58.8318 25.0795 58.681 25.101C58.5302 25.1226 58.3994 25.141 58.2886 25.1564C58.0393 25.1903 57.8162 25.2457 57.6192 25.3226C57.4223 25.3996 57.2668 25.5073 57.153 25.6458C57.0391 25.7812 56.9822 25.9566 56.9822 26.1721C56.9822 26.4798 57.0945 26.7122 57.3192 26.8691C57.5438 27.0261 57.83 27.1046 58.1778 27.1046ZM65.7996 28.3141C65.2426 28.3141 64.744 28.171 64.3039 27.8848C63.8638 27.5985 63.516 27.1831 63.2606 26.6383C63.0051 26.0936 62.8774 25.4319 62.8774 24.6532C62.8774 23.8654 63.0067 23.2006 63.2652 22.6589C63.5268 22.1142 63.8792 21.7033 64.3224 21.4263C64.7655 21.1462 65.2595 21.0062 65.8042 21.0062C66.2197 21.0062 66.5613 21.077 66.8291 21.2186C67.0969 21.3571 67.3092 21.5248 67.4662 21.7218C67.6231 21.9157 67.7447 22.0988 67.8309 22.2711H67.9001V18.7349H69.5759V28.1895H67.9324V27.0723H67.8309C67.7447 27.2446 67.6201 27.4277 67.4569 27.6216C67.2938 27.8124 67.0784 27.9756 66.8106 28.111C66.5429 28.2464 66.2059 28.3141 65.7996 28.3141ZM66.2659 26.943C66.6198 26.943 66.9214 26.8476 67.1707 26.6568C67.42 26.4629 67.6093 26.1936 67.7385 25.8489C67.8678 25.5042 67.9324 25.1026 67.9324 24.644C67.9324 24.1854 67.8678 23.7869 67.7385 23.4483C67.6124 23.1098 67.4246 22.8466 67.1753 22.6589C66.9291 22.4712 66.626 22.3773 66.2659 22.3773C65.8935 22.3773 65.5827 22.4743 65.3334 22.6681C65.0841 22.862 64.8963 23.1298 64.7702 23.4714C64.644 23.813 64.5809 24.2039 64.5809 24.644C64.5809 25.0872 64.644 25.4827 64.7702 25.8304C64.8994 26.1751 65.0887 26.4475 65.338 26.6475C65.5903 26.8445 65.8997 26.943 66.2659 26.943ZM71.3567 28.1895V21.0985H73.0279V28.1895H71.3567ZM72.1969 20.0922C71.9322 20.0922 71.7045 20.0044 71.5137 19.829C71.3229 19.6505 71.2275 19.4366 71.2275 19.1873C71.2275 18.935 71.3229 18.7211 71.5137 18.5456C71.7045 18.3671 71.9322 18.2779 72.1969 18.2779C72.4647 18.2779 72.6924 18.3671 72.8801 18.5456C73.071 18.7211 73.1664 18.935 73.1664 19.1873C73.1664 19.4366 73.071 19.6505 72.8801 19.829C72.6924 20.0044 72.4647 20.0922 72.1969 20.0922ZM76.4175 24.0346V28.1895H74.7464V21.0985H76.3437V22.3034H76.4268C76.5899 21.9064 76.8499 21.591 77.2069 21.3571C77.567 21.1232 78.0117 21.0062 78.5411 21.0062C79.0305 21.0062 79.4567 21.1109 79.8199 21.3201C80.1861 21.5294 80.4693 21.8326 80.6693 22.2296C80.8724 22.6266 80.9724 23.1083 80.9694 23.6745V28.1895H79.2982V23.9331C79.2982 23.4591 79.1751 23.0882 78.9289 22.8205C78.6858 22.5527 78.3488 22.4189 77.9179 22.4189C77.6255 22.4189 77.3654 22.4835 77.1377 22.6127C76.913 22.7389 76.7361 22.9221 76.6068 23.1621C76.4806 23.4022 76.4175 23.693 76.4175 24.0346ZM85.752 30.9963C85.1519 30.9963 84.6364 30.9147 84.2055 30.7516C83.7747 30.5916 83.4284 30.3761 83.1668 30.1053C82.9052 29.8345 82.7236 29.5344 82.6221 29.2051L84.127 28.8404C84.1948 28.9789 84.2932 29.1158 84.4225 29.2512C84.5518 29.3897 84.7256 29.5036 84.9442 29.5929C85.1657 29.6852 85.4443 29.7314 85.7797 29.7314C86.2537 29.7314 86.6461 29.6159 86.9569 29.3851C87.2678 29.1574 87.4232 28.7819 87.4232 28.2587V26.9153H87.3401C87.2539 27.0877 87.1278 27.2646 86.9616 27.4462C86.7984 27.6278 86.5815 27.7801 86.3106 27.9032C86.0429 28.0263 85.7059 28.0879 85.2996 28.0879C84.7549 28.0879 84.2609 27.9602 83.8177 27.7047C83.3776 27.4462 83.0268 27.0615 82.7652 26.5506C82.5067 26.0366 82.3774 25.3934 82.3774 24.6209C82.3774 23.8423 82.5067 23.1852 82.7652 22.6497C83.0268 22.1111 83.3792 21.7033 83.8224 21.4263C84.2655 21.1462 84.7595 21.0062 85.3042 21.0062C85.7197 21.0062 86.0613 21.077 86.3291 21.2186C86.5999 21.3571 86.8154 21.5248 86.9754 21.7218C87.1354 21.9157 87.257 22.0988 87.3401 22.2711H87.4324V21.0985H89.0805V28.3049C89.0805 28.9112 88.9359 29.4128 88.6466 29.8098C88.3573 30.2069 87.9618 30.5038 87.4601 30.7008C86.9585 30.8978 86.3891 30.9963 85.752 30.9963ZM85.7659 26.7768C86.1198 26.7768 86.4214 26.6906 86.6707 26.5183C86.92 26.3459 87.1093 26.0982 87.2385 25.775C87.3678 25.4519 87.4324 25.0641 87.4324 24.6117C87.4324 24.1654 87.3678 23.7746 87.2385 23.4391C87.1124 23.1036 86.9246 22.8436 86.6753 22.6589C86.4291 22.4712 86.126 22.3773 85.7659 22.3773C85.3935 22.3773 85.0827 22.4743 84.8334 22.6681C84.5841 22.862 84.3963 23.1283 84.2702 23.4668C84.144 23.8023 84.0809 24.1839 84.0809 24.6117C84.0809 25.0456 84.144 25.4257 84.2702 25.752C84.3994 26.0751 84.5887 26.3275 84.838 26.5091C85.0903 26.6876 85.3997 26.7768 85.7659 26.7768ZM91.8227 28.291C91.5426 28.291 91.3026 28.1925 91.1025 27.9956C90.9025 27.7986 90.804 27.5585 90.8071 27.2754C90.804 26.9984 90.9025 26.7614 91.1025 26.5645C91.3026 26.3675 91.5426 26.269 91.8227 26.269C92.0935 26.269 92.329 26.3675 92.529 26.5645C92.7322 26.7614 92.8353 26.9984 92.8383 27.2754C92.8353 27.4631 92.786 27.6339 92.6906 27.7878C92.5983 27.9417 92.4752 28.0648 92.3213 28.1571C92.1705 28.2464 92.0043 28.291 91.8227 28.291ZM95.5932 28.291C95.3132 28.291 95.0731 28.1925 94.873 27.9956C94.673 27.7986 94.5745 27.5585 94.5776 27.2754C94.5745 26.9984 94.673 26.7614 94.873 26.5645C95.0731 26.3675 95.3132 26.269 95.5932 26.269C95.8641 26.269 96.0995 26.3675 96.2995 26.5645C96.5027 26.7614 96.6058 26.9984 96.6088 27.2754C96.6058 27.4631 96.5565 27.6339 96.4611 27.7878C96.3688 27.9417 96.2457 28.0648 96.0918 28.1571C95.941 28.2464 95.7748 28.291 95.5932 28.291ZM99.3637 28.291C99.0837 28.291 98.8436 28.1925 98.6436 27.9956C98.4435 27.7986 98.345 27.5585 98.3481 27.2754C98.345 26.9984 98.4435 26.7614 98.6436 26.5645C98.8436 26.3675 99.0837 26.269 99.3637 26.269C99.6346 26.269 99.87 26.3675 100.07 26.5645C100.273 26.7614 100.376 26.9984 100.379 27.2754C100.376 27.4631 100.327 27.6339 100.232 27.7878C100.139 27.9417 100.016 28.0648 99.8623 28.1571C99.7115 28.2464 99.5453 28.291 99.3637 28.291Z" fill="black"/>
<path d="M39.5732 76.5747C39.5732 75.8932 40.1257 75.3408 40.8071 75.3408H82.8896V77.8086H40.8071C40.1257 77.8086 39.5732 77.2561 39.5732 76.5747Z" fill="#DEE2E6"/>
<rect x="84.4092" y="75.3408" width="29.6375" height="2.46775" fill="#26B5CE"/>
<rect x="115.566" y="75.3408" width="61.5548" height="2.46775" fill="#F7AE59"/>
<rect x="178.641" y="75.3408" width="33.4372" height="2.46775" fill="#D687FF"/>
<path d="M213.6 75.3408H267.841C268.522 75.3408 269.075 75.8932 269.075 76.5747C269.075 77.2561 268.522 77.8086 267.841 77.8086H213.6V75.3408Z" fill="#09A953"/>
<rect x="39.5723" y="40.6328" width="79.5849" height="8.02018" rx="4.01009" fill="#EBEBEB"/>
<rect x="134.581" y="40.6328" width="79.5849" height="8.02018" rx="4.01009" fill="#E2E2E2"/>
<g filter="url(#filter1_d_1242_31463)">
<rect x="3" y="26" width="260" height="87" rx="6.16937" fill="white"/>
</g>
<path d="M3 86H262.731V106.359C262.731 109.766 259.968 112.528 256.561 112.528H9.16936C5.76211 112.528 3 109.766 3 106.359V86Z" fill="#FAFAFA"/>
<path d="M3 86H262.731" stroke="#E2E2E2" stroke-width="0.616937"/>
<path d="M17.5048 51.1895V41.7349H19.2175V49.7537H23.3816V51.1895H17.5048ZM27.8873 51.3279C27.1948 51.3279 26.5946 51.1756 26.0868 50.8709C25.579 50.5662 25.1851 50.14 24.905 49.5922C24.628 49.0443 24.4895 48.4042 24.4895 47.6717C24.4895 46.9392 24.628 46.2975 24.905 45.7466C25.1851 45.1957 25.579 44.7679 26.0868 44.4632C26.5946 44.1586 27.1948 44.0062 27.8873 44.0062C28.5797 44.0062 29.1799 44.1586 29.6877 44.4632C30.1955 44.7679 30.5879 45.1957 30.8649 45.7466C31.1449 46.2975 31.285 46.9392 31.285 47.6717C31.285 48.4042 31.1449 49.0443 30.8649 49.5922C30.5879 50.14 30.1955 50.5662 29.6877 50.8709C29.1799 51.1756 28.5797 51.3279 27.8873 51.3279ZM27.8965 49.9892C28.272 49.9892 28.5859 49.8861 28.8382 49.6799C29.0906 49.4706 29.2783 49.1905 29.4015 48.8397C29.5276 48.4888 29.5907 48.098 29.5907 47.6671C29.5907 47.2331 29.5276 46.8407 29.4015 46.4899C29.2783 46.1359 29.0906 45.8543 28.8382 45.6451C28.5859 45.4358 28.272 45.3311 27.8965 45.3311C27.5118 45.3311 27.1917 45.4358 26.9363 45.6451C26.6839 45.8543 26.4946 46.1359 26.3684 46.4899C26.2453 46.8407 26.1838 47.2331 26.1838 47.6671C26.1838 48.098 26.2453 48.4888 26.3684 48.8397C26.4946 49.1905 26.6839 49.4706 26.9363 49.6799C27.1917 49.8861 27.5118 49.9892 27.8965 49.9892ZM34.7439 51.3326C34.2945 51.3326 33.8898 51.2525 33.5297 51.0925C33.1727 50.9294 32.8896 50.6893 32.6803 50.3723C32.4741 50.0553 32.371 49.6645 32.371 49.1998C32.371 48.7997 32.4449 48.4688 32.5926 48.2072C32.7403 47.9456 32.9419 47.7363 33.1974 47.5794C33.4528 47.4224 33.7406 47.3039 34.0606 47.2239C34.3838 47.1408 34.7177 47.0808 35.0624 47.0439C35.4779 47.0008 35.8149 46.9623 36.0734 46.9284C36.3319 46.8915 36.5197 46.8361 36.6366 46.7623C36.7567 46.6853 36.8167 46.5668 36.8167 46.4068V46.3791C36.8167 46.0313 36.7136 45.762 36.5074 45.5712C36.3012 45.3804 36.0042 45.285 35.6164 45.285C35.2071 45.285 34.8824 45.3742 34.6423 45.5527C34.4053 45.7312 34.2453 45.9421 34.1622 46.1852L32.6018 45.9636C32.7249 45.5327 32.9281 45.1726 33.2112 44.8833C33.4943 44.591 33.8406 44.3725 34.2499 44.2278C34.6592 44.0801 35.1117 44.0062 35.6072 44.0062C35.9488 44.0062 36.2889 44.0462 36.6274 44.1262C36.9659 44.2063 37.2752 44.3386 37.5553 44.5233C37.8354 44.7048 38.06 44.9526 38.2293 45.2665C38.4017 45.5804 38.4878 45.9728 38.4878 46.4437V51.1895H36.8813V50.2154H36.8259C36.7243 50.4123 36.5812 50.597 36.3966 50.7694C36.215 50.9386 35.9857 51.0756 35.7087 51.1802C35.4348 51.2818 35.1132 51.3326 34.7439 51.3326ZM35.1778 50.1046C35.5133 50.1046 35.8041 50.0384 36.0503 49.9061C36.2965 49.7707 36.4858 49.5922 36.6182 49.3706C36.7536 49.149 36.8213 48.9074 36.8213 48.6458V47.8102C36.769 47.8533 36.6797 47.8933 36.5535 47.9302C36.4304 47.9672 36.2919 47.9995 36.1381 48.0272C35.9842 48.0549 35.8318 48.0795 35.681 48.101C35.5302 48.1226 35.3994 48.141 35.2886 48.1564C35.0393 48.1903 34.8162 48.2457 34.6192 48.3226C34.4223 48.3996 34.2668 48.5073 34.153 48.6458C34.0391 48.7812 33.9822 48.9566 33.9822 49.1721C33.9822 49.4798 34.0945 49.7122 34.3192 49.8691C34.5438 50.0261 34.83 50.1046 35.1778 50.1046ZM42.7996 51.3141C42.2426 51.3141 41.744 51.171 41.3039 50.8848C40.8638 50.5985 40.516 50.1831 40.2606 49.6383C40.0051 49.0936 39.8774 48.4319 39.8774 47.6532C39.8774 46.8654 40.0067 46.2006 40.2652 45.6589C40.5268 45.1142 40.8792 44.7033 41.3224 44.4263C41.7655 44.1462 42.2595 44.0062 42.8042 44.0062C43.2197 44.0062 43.5613 44.077 43.8291 44.2186C44.0969 44.3571 44.3092 44.5248 44.4662 44.7218C44.6231 44.9157 44.7447 45.0988 44.8309 45.2711H44.9001V41.7349H46.5759V51.1895H44.9324V50.0723H44.8309C44.7447 50.2446 44.6201 50.4277 44.4569 50.6216C44.2938 50.8124 44.0784 50.9756 43.8106 51.111C43.5429 51.2464 43.2059 51.3141 42.7996 51.3141ZM43.2659 49.943C43.6198 49.943 43.9214 49.8476 44.1707 49.6568C44.42 49.4629 44.6093 49.1936 44.7385 48.8489C44.8678 48.5042 44.9324 48.1026 44.9324 47.644C44.9324 47.1854 44.8678 46.7869 44.7385 46.4483C44.6124 46.1098 44.4246 45.8466 44.1753 45.6589C43.9291 45.4712 43.626 45.3773 43.2659 45.3773C42.8935 45.3773 42.5827 45.4743 42.3334 45.6681C42.0841 45.862 41.8963 46.1298 41.7702 46.4714C41.644 46.813 41.5809 47.2039 41.5809 47.644C41.5809 48.0872 41.644 48.4827 41.7702 48.8304C41.8994 49.1751 42.0887 49.4475 42.338 49.6475C42.5903 49.8445 42.8997 49.943 43.2659 49.943ZM48.3567 51.1895V44.0985H50.0279V51.1895H48.3567ZM49.1969 43.0922C48.9322 43.0922 48.7045 43.0044 48.5137 42.829C48.3229 42.6505 48.2275 42.4366 48.2275 42.1873C48.2275 41.935 48.3229 41.7211 48.5137 41.5456C48.7045 41.3671 48.9322 41.2779 49.1969 41.2779C49.4647 41.2779 49.6924 41.3671 49.8801 41.5456C50.071 41.7211 50.1664 41.935 50.1664 42.1873C50.1664 42.4366 50.071 42.6505 49.8801 42.829C49.6924 43.0044 49.4647 43.0922 49.1969 43.0922ZM53.4175 47.0346V51.1895H51.7464V44.0985H53.3437V45.3034H53.4268C53.5899 44.9064 53.8499 44.591 54.2069 44.3571C54.567 44.1232 55.0117 44.0062 55.5411 44.0062C56.0305 44.0062 56.4567 44.1109 56.8199 44.3201C57.1861 44.5294 57.4693 44.8326 57.6693 45.2296C57.8724 45.6266 57.9724 46.1083 57.9694 46.6745V51.1895H56.2982V46.9331C56.2982 46.4591 56.1751 46.0882 55.9289 45.8205C55.6858 45.5527 55.3488 45.4189 54.9179 45.4189C54.6255 45.4189 54.3654 45.4835 54.1377 45.6127C53.913 45.7389 53.7361 45.9221 53.6068 46.1621C53.4806 46.4022 53.4175 46.693 53.4175 47.0346ZM62.752 53.9963C62.1519 53.9963 61.6364 53.9147 61.2055 53.7516C60.7747 53.5916 60.4284 53.3761 60.1668 53.1053C59.9052 52.8345 59.7236 52.5344 59.6221 52.2051L61.127 51.8404C61.1948 51.9789 61.2932 52.1158 61.4225 52.2512C61.5518 52.3897 61.7256 52.5036 61.9442 52.5929C62.1657 52.6852 62.4443 52.7314 62.7797 52.7314C63.2537 52.7314 63.6461 52.6159 63.9569 52.3851C64.2678 52.1574 64.4232 51.7819 64.4232 51.2587V49.9153H64.3401C64.2539 50.0877 64.1278 50.2646 63.9616 50.4462C63.7984 50.6278 63.5815 50.7801 63.3106 50.9032C63.0429 51.0263 62.7059 51.0879 62.2996 51.0879C61.7549 51.0879 61.2609 50.9602 60.8177 50.7047C60.3776 50.4462 60.0268 50.0615 59.7652 49.5506C59.5067 49.0366 59.3774 48.3934 59.3774 47.6209C59.3774 46.8423 59.5067 46.1852 59.7652 45.6497C60.0268 45.1111 60.3792 44.7033 60.8224 44.4263C61.2655 44.1462 61.7595 44.0062 62.3042 44.0062C62.7197 44.0062 63.0613 44.077 63.3291 44.2186C63.5999 44.3571 63.8154 44.5248 63.9754 44.7218C64.1354 44.9157 64.257 45.0988 64.3401 45.2711H64.4324V44.0985H66.0805V51.3049C66.0805 51.9112 65.9359 52.4128 65.6466 52.8098C65.3573 53.2069 64.9618 53.5038 64.4601 53.7008C63.9585 53.8978 63.3891 53.9963 62.752 53.9963ZM62.7659 49.7768C63.1198 49.7768 63.4214 49.6906 63.6707 49.5183C63.92 49.3459 64.1093 49.0982 64.2385 48.775C64.3678 48.4519 64.4324 48.0641 64.4324 47.6117C64.4324 47.1654 64.3678 46.7746 64.2385 46.4391C64.1124 46.1036 63.9246 45.8436 63.6753 45.6589C63.4291 45.4712 63.126 45.3773 62.7659 45.3773C62.3935 45.3773 62.0827 45.4743 61.8334 45.6681C61.5841 45.862 61.3963 46.1283 61.2702 46.4668C61.144 46.8023 61.0809 47.1839 61.0809 47.6117C61.0809 48.0456 61.144 48.4257 61.2702 48.752C61.3994 49.0751 61.5887 49.3275 61.838 49.5091C62.0903 49.6876 62.3997 49.7768 62.7659 49.7768ZM68.8227 51.291C68.5426 51.291 68.3026 51.1925 68.1025 50.9956C67.9025 50.7986 67.804 50.5585 67.8071 50.2754C67.804 49.9984 67.9025 49.7614 68.1025 49.5645C68.3026 49.3675 68.5426 49.269 68.8227 49.269C69.0935 49.269 69.329 49.3675 69.529 49.5645C69.7322 49.7614 69.8353 49.9984 69.8383 50.2754C69.8353 50.4631 69.786 50.6339 69.6906 50.7878C69.5983 50.9417 69.4752 51.0648 69.3213 51.1571C69.1705 51.2464 69.0043 51.291 68.8227 51.291ZM72.5932 51.291C72.3132 51.291 72.0731 51.1925 71.873 50.9956C71.673 50.7986 71.5745 50.5585 71.5776 50.2754C71.5745 49.9984 71.673 49.7614 71.873 49.5645C72.0731 49.3675 72.3132 49.269 72.5932 49.269C72.8641 49.269 73.0995 49.3675 73.2995 49.5645C73.5027 49.7614 73.6058 49.9984 73.6088 50.2754C73.6058 50.4631 73.5565 50.6339 73.4611 50.7878C73.3688 50.9417 73.2457 51.0648 73.0918 51.1571C72.941 51.2464 72.7748 51.291 72.5932 51.291ZM76.3637 51.291C76.0837 51.291 75.8436 51.1925 75.6436 50.9956C75.4435 50.7986 75.345 50.5585 75.3481 50.2754C75.345 49.9984 75.4435 49.7614 75.6436 49.5645C75.8436 49.3675 76.0837 49.269 76.3637 49.269C76.6346 49.269 76.87 49.3675 77.07 49.5645C77.2732 49.7614 77.3763 49.9984 77.3794 50.2754C77.3763 50.4631 77.327 50.6339 77.2316 50.7878C77.1393 50.9417 77.0162 51.0648 76.8623 51.1571C76.7115 51.2464 76.5453 51.291 76.3637 51.291Z" fill="black"/>
<path d="M16.5732 99.5747C16.5732 98.8932 17.1257 98.3408 17.8071 98.3408H59.8896V100.809H17.8071C17.1257 100.809 16.5732 100.256 16.5732 99.5747Z" fill="#DEE2E6"/>
<rect x="61.4092" y="98.3408" width="29.6375" height="2.46775" fill="#26B5CE"/>
<rect x="92.5664" y="98.3408" width="61.5548" height="2.46775" fill="#F7AE59"/>
<rect x="155.641" y="98.3408" width="33.4372" height="2.46775" fill="#D687FF"/>
<path d="M190.6 98.3408H244.841C245.522 98.3408 246.075 98.8932 246.075 99.5747C246.075 100.256 245.522 100.809 244.841 100.809H190.6V98.3408Z" fill="#09A953"/>
<rect x="16.5723" y="63.6328" width="79.5849" height="8.02018" rx="4.01009" fill="#EBEBEB"/>
<rect x="111.581" y="63.6328" width="79.5849" height="8.02018" rx="4.01009" fill="#E2E2E2"/>
<defs>
<filter id="filter0_d_1242_31463" x="23.5323" y="0.532252" width="264.935" height="91.9355" filterUnits="userSpaceOnUse" color-interpolation-filters="sRGB">
<feFlood flood-opacity="0" result="BackgroundImageFix"/>
<feColorMatrix in="SourceAlpha" type="matrix" values="0 0 0 0 0 0 0 0 0 0 0 0 0 0 0 0 0 0 127 0" result="hardAlpha"/>
<feOffset/>
<feGaussianBlur stdDeviation="1.23387"/>
<feComposite in2="hardAlpha" operator="out"/>
<feColorMatrix type="matrix" values="0 0 0 0 0 0 0 0 0 0 0 0 0 0 0 0 0 0 0.2 0"/>
<feBlend mode="normal" in2="BackgroundImageFix" result="effect1_dropShadow_1242_31463"/>
<feBlend mode="normal" in="SourceGraphic" in2="effect1_dropShadow_1242_31463" result="shape"/>
</filter>
<filter id="filter1_d_1242_31463" x="0.532252" y="23.5323" width="264.935" height="91.9355" filterUnits="userSpaceOnUse" color-interpolation-filters="sRGB">
<feFlood flood-opacity="0" result="BackgroundImageFix"/>
<feColorMatrix in="SourceAlpha" type="matrix" values="0 0 0 0 0 0 0 0 0 0 0 0 0 0 0 0 0 0 127 0" result="hardAlpha"/>
<feOffset/>
<feGaussianBlur stdDeviation="1.23387"/>
<feComposite in2="hardAlpha" operator="out"/>
<feColorMatrix type="matrix" values="0 0 0 0 0 0 0 0 0 0 0 0 0 0 0 0 0 0 0.2 0"/>
<feBlend mode="normal" in2="BackgroundImageFix" result="effect1_dropShadow_1242_31463"/>
<feBlend mode="normal" in="SourceGraphic" in2="effect1_dropShadow_1242_31463" result="shape"/>
</filter>
</defs>
</svg>
