<svg width="289" height="116" viewBox="0 0 289 116" fill="none" xmlns="http://www.w3.org/2000/svg">
<g filter="url(#filter0_d_1424_38225)">
<rect x="26" y="3" width="260" height="87" rx="6.16937" fill="white"/>
</g>
<path d="M26 63H285.731V83.3589C285.731 86.7662 282.968 89.5283 279.561 89.5283H32.1694C28.7621 89.5283 26 86.7662 26 83.3589V63Z" fill="#FAFAFA"/>
<path d="M26 63H285.731" stroke="#E2E2E2" strokeWidth="0.616937"/>
<path d="M41.7186 28.1895H39.8904L43.2189 18.7349H45.3333L48.6664 28.1895H46.8382L44.313 20.6738H44.2392L41.7186 28.1895ZM41.7786 24.4824H46.7644V25.8581H41.7786V24.4824ZM51.6244 18.7349V28.1895H49.9117V18.7349H51.6244ZM58.4164 18.7349V28.1895H56.7036V18.7349H58.4164ZM61.8683 24.0346V28.1895H60.1972V21.0985H61.7945V22.3034H61.8776C62.0407 21.9064 62.3007 21.591 62.6577 21.3571C63.0178 21.1232 63.4626 21.0062 63.9919 21.0062C64.4813 21.0062 64.9075 21.1109 65.2707 21.3201C65.6369 21.5294 65.9201 21.8326 66.1201 22.2296C66.3232 22.6266 66.4233 23.1083 66.4202 23.6745V28.1895H64.749V23.9331C64.749 23.4591 64.6259 23.0882 64.3797 22.8205C64.1366 22.5527 63.7996 22.4189 63.3687 22.4189C63.0763 22.4189 62.8162 22.4835 62.5885 22.6127C62.3638 22.7389 62.1869 22.9221 62.0576 23.1621C61.9314 23.4022 61.8683 23.693 61.8683 24.0346ZM71.6599 21.0985V22.3912H67.5835V21.0985H71.6599ZM68.5899 19.3997H70.2611V26.0566C70.2611 26.2813 70.2949 26.4537 70.3626 26.5737C70.4334 26.6906 70.5258 26.7707 70.6396 26.8137C70.7535 26.8568 70.8797 26.8784 71.0182 26.8784C71.1228 26.8784 71.2182 26.8707 71.3044 26.8553C71.3937 26.8399 71.4614 26.8261 71.5075 26.8137L71.7891 28.1202C71.6999 28.151 71.5722 28.1848 71.406 28.2218C71.2429 28.2587 71.0428 28.2802 70.8058 28.2864C70.3873 28.2987 70.0103 28.2356 69.6748 28.0971C69.3393 27.9556 69.0731 27.737 68.8761 27.4416C68.6823 27.1461 68.5868 26.7768 68.5899 26.3336V19.3997ZM76.1205 28.3279C75.4096 28.3279 74.7956 28.1802 74.2786 27.8848C73.7646 27.5862 73.3691 27.1646 73.0921 26.6199C72.8152 26.072 72.6767 25.4273 72.6767 24.6855C72.6767 23.9561 72.8152 23.316 73.0921 22.7651C73.3722 22.2111 73.7631 21.7802 74.2647 21.4725C74.7664 21.1616 75.3558 21.0062 76.0328 21.0062C76.4699 21.0062 76.8823 21.077 77.2701 21.2186C77.6609 21.3571 78.0056 21.5725 78.3041 21.8649C78.6058 22.1573 78.8427 22.5297 79.0151 22.9821C79.1874 23.4314 79.2736 23.9669 79.2736 24.5886V25.101H73.4615V23.9746H77.6717C77.6686 23.6545 77.5994 23.3699 77.4639 23.1206C77.3285 22.8682 77.1393 22.6697 76.8961 22.525C76.6561 22.3804 76.376 22.3081 76.0559 22.3081C75.7143 22.3081 75.4142 22.3912 75.1557 22.5574C74.8972 22.7205 74.6956 22.9359 74.5509 23.2037C74.4094 23.4683 74.3371 23.7592 74.334 24.0762V25.0595C74.334 25.4719 74.4094 25.8258 74.5602 26.1213C74.711 26.4136 74.9218 26.6383 75.1926 26.7953C75.4635 26.9492 75.7805 27.0261 76.1436 27.0261C76.3868 27.0261 76.6068 26.9922 76.8038 26.9245C77.0008 26.8538 77.1716 26.7507 77.3162 26.6152C77.4609 26.4798 77.5701 26.3121 77.644 26.112L79.2044 26.2875C79.1059 26.6999 78.9181 27.06 78.6411 27.3677C78.3672 27.6724 78.0164 27.9094 77.5886 28.0787C77.1608 28.2449 76.6714 28.3279 76.1205 28.3279ZM83.7712 30.9963C83.1711 30.9963 82.6556 30.9147 82.2247 30.7516C81.7938 30.5916 81.4476 30.3761 81.186 30.1053C80.9244 29.8345 80.7428 29.5344 80.6412 29.2051L82.1462 28.8404C82.2139 28.9789 82.3124 29.1158 82.4417 29.2512C82.5709 29.3897 82.7448 29.5036 82.9633 29.5929C83.1849 29.6852 83.4634 29.7314 83.7989 29.7314C84.2729 29.7314 84.6653 29.6159 84.9761 29.3851C85.287 29.1574 85.4424 28.7819 85.4424 28.2587V26.9153H85.3593C85.2731 27.0877 85.1469 27.2646 84.9807 27.4462C84.8176 27.6278 84.6006 27.7801 84.3298 27.9032C84.062 28.0263 83.725 28.0879 83.3188 28.0879C82.774 28.0879 82.2801 27.9602 81.8369 27.7047C81.3968 27.4462 81.0459 27.0615 80.7843 26.5506C80.5258 26.0366 80.3966 25.3934 80.3966 24.6209C80.3966 23.8423 80.5258 23.1852 80.7843 22.6497C81.0459 22.1111 81.3983 21.7033 81.8415 21.4263C82.2847 21.1462 82.7787 21.0062 83.3234 21.0062C83.7389 21.0062 84.0805 21.077 84.3483 21.2186C84.6191 21.3571 84.8345 21.5248 84.9946 21.7218C85.1546 21.9157 85.2762 22.0988 85.3593 22.2711H85.4516V21.0985H87.0997V28.3049C87.0997 28.9112 86.955 29.4128 86.6657 29.8098C86.3764 30.2069 85.981 30.5038 85.4793 30.7008C84.9776 30.8978 84.4083 30.9963 83.7712 30.9963ZM83.7851 26.7768C84.139 26.7768 84.4406 26.6906 84.6899 26.5183C84.9392 26.3459 85.1285 26.0982 85.2577 25.775C85.387 25.4519 85.4516 25.0641 85.4516 24.6117C85.4516 24.1654 85.387 23.7746 85.2577 23.4391C85.1315 23.1036 84.9438 22.8436 84.6945 22.6589C84.4483 22.4712 84.1451 22.3773 83.7851 22.3773C83.4127 22.3773 83.1018 22.4743 82.8525 22.6681C82.6032 22.862 82.4155 23.1283 82.2893 23.4668C82.1631 23.8023 82.1 24.1839 82.1 24.6117C82.1 25.0456 82.1631 25.4257 82.2893 25.752C82.4186 26.0751 82.6079 26.3275 82.8571 26.5091C83.1095 26.6876 83.4188 26.7768 83.7851 26.7768ZM88.8124 28.1895V21.0985H90.4328V22.2804H90.5066C90.6359 21.871 90.8575 21.5556 91.1714 21.334C91.4884 21.1093 91.85 20.997 92.2563 20.997C92.3486 20.997 92.4517 21.0016 92.5656 21.0108C92.6825 21.017 92.7795 21.0278 92.8564 21.0431V22.5804C92.7856 22.5558 92.6733 22.5343 92.5194 22.5158C92.3686 22.4943 92.2224 22.4835 92.0809 22.4835C91.7762 22.4835 91.5023 22.5497 91.2591 22.682C91.0191 22.8113 90.8298 22.9913 90.6913 23.2221C90.5528 23.4529 90.4836 23.7192 90.4836 24.0208V28.1895H88.8124ZM95.8802 28.3326C95.4309 28.3326 95.0262 28.2525 94.6661 28.0925C94.3091 27.9294 94.0259 27.6893 93.8167 27.3723C93.6105 27.0553 93.5074 26.6645 93.5074 26.1998C93.5074 25.7997 93.5812 25.4688 93.7289 25.2072C93.8767 24.9456 94.0783 24.7363 94.3337 24.5794C94.5892 24.4224 94.8769 24.3039 95.197 24.2239C95.5201 24.1408 95.8541 24.0808 96.1988 24.0439C96.6142 24.0008 96.9512 23.9623 97.2098 23.9284C97.4683 23.8915 97.656 23.8361 97.773 23.7623C97.893 23.6853 97.953 23.5668 97.953 23.4068V23.3791C97.953 23.0313 97.8499 22.762 97.6437 22.5712C97.4375 22.3804 97.1405 22.285 96.7527 22.285C96.3434 22.285 96.0187 22.3742 95.7787 22.5527C95.5417 22.7312 95.3816 22.9421 95.2986 23.1852L93.7382 22.9636C93.8613 22.5327 94.0644 22.1726 94.3476 21.8833C94.6307 21.591 94.9769 21.3725 95.3863 21.2278C95.7956 21.0801 96.248 21.0062 96.7435 21.0062C97.0851 21.0062 97.4252 21.0462 97.7637 21.1262C98.1023 21.2063 98.4116 21.3386 98.6917 21.5233C98.9717 21.7048 99.1964 21.9526 99.3657 22.2665C99.538 22.5804 99.6242 22.9728 99.6242 23.4437V28.1895H98.0177V27.2154H97.9623C97.8607 27.4123 97.7176 27.597 97.5329 27.7694C97.3513 27.9386 97.1221 28.0756 96.8451 28.1802C96.5712 28.2818 96.2495 28.3326 95.8802 28.3326ZM96.3142 27.1046C96.6496 27.1046 96.9405 27.0384 97.1867 26.9061C97.4329 26.7707 97.6222 26.5922 97.7545 26.3706C97.8899 26.149 97.9576 25.9074 97.9576 25.6458V24.8102C97.9053 24.8533 97.8161 24.8933 97.6899 24.9302C97.5668 24.9672 97.4283 24.9995 97.2744 25.0272C97.1205 25.0549 96.9682 25.0795 96.8174 25.101C96.6666 25.1226 96.5358 25.141 96.425 25.1564C96.1757 25.1903 95.9526 25.2457 95.7556 25.3226C95.5586 25.3996 95.4032 25.5073 95.2893 25.6458C95.1754 25.7812 95.1185 25.9566 95.1185 26.1721C95.1185 26.4798 95.2308 26.7122 95.4555 26.8691C95.6802 27.0261 95.9664 27.1046 96.3142 27.1046ZM104.845 21.0985V22.3912H100.769V21.0985H104.845ZM101.775 19.3997H103.447V26.0566C103.447 26.2813 103.48 26.4537 103.548 26.5737C103.619 26.6906 103.711 26.7707 103.825 26.8137C103.939 26.8568 104.065 26.8784 104.204 26.8784C104.308 26.8784 104.404 26.8707 104.49 26.8553C104.579 26.8399 104.647 26.8261 104.693 26.8137L104.975 28.1202C104.885 28.151 104.758 28.1848 104.592 28.2218C104.428 28.2587 104.228 28.2802 103.991 28.2864C103.573 28.2987 103.196 28.2356 102.86 28.0971C102.525 27.9556 102.259 27.737 102.062 27.4416C101.868 27.1461 101.772 26.7768 101.775 26.3336V19.3997ZM106.243 28.1895V21.0985H107.914V28.1895H106.243ZM107.083 20.0922C106.819 20.0922 106.591 20.0044 106.4 19.829C106.209 19.6505 106.114 19.4366 106.114 19.1873C106.114 18.935 106.209 18.7211 106.4 18.5456C106.591 18.3671 106.819 18.2779 107.083 18.2779C107.351 18.2779 107.579 18.3671 107.767 18.5456C107.957 18.7211 108.053 18.935 108.053 19.1873C108.053 19.4366 107.957 19.6505 107.767 19.829C107.579 20.0044 107.351 20.0922 107.083 20.0922ZM112.726 28.3279C112.033 28.3279 111.433 28.1756 110.925 27.8709C110.418 27.5662 110.024 27.14 109.744 26.5922C109.467 26.0443 109.328 25.4042 109.328 24.6717C109.328 23.9392 109.467 23.2975 109.744 22.7466C110.024 22.1957 110.418 21.7679 110.925 21.4632C111.433 21.1586 112.033 21.0062 112.726 21.0062C113.418 21.0062 114.018 21.1586 114.526 21.4632C115.034 21.7679 115.426 22.1957 115.703 22.7466C115.983 23.2975 116.123 23.9392 116.123 24.6717C116.123 25.4042 115.983 26.0443 115.703 26.5922C115.426 27.14 115.034 27.5662 114.526 27.8709C114.018 28.1756 113.418 28.3279 112.726 28.3279ZM112.735 26.9892C113.11 26.9892 113.424 26.8861 113.677 26.6799C113.929 26.4706 114.117 26.1905 114.24 25.8397C114.366 25.4888 114.429 25.098 114.429 24.6671C114.429 24.2331 114.366 23.8407 114.24 23.4899C114.117 23.1359 113.929 22.8543 113.677 22.6451C113.424 22.4358 113.11 22.3311 112.735 22.3311C112.35 22.3311 112.03 22.4358 111.775 22.6451C111.522 22.8543 111.333 23.1359 111.207 23.4899C111.084 23.8407 111.022 24.2331 111.022 24.6671C111.022 25.098 111.084 25.4888 111.207 25.8397C111.333 26.1905 111.522 26.4706 111.775 26.6799C112.03 26.8861 112.35 26.9892 112.735 26.9892ZM119.213 24.0346V28.1895H117.542V21.0985H119.139V22.3034H119.222C119.385 21.9064 119.645 21.591 120.002 21.3571C120.363 21.1232 120.807 21.0062 121.337 21.0062C121.826 21.0062 122.252 21.1109 122.615 21.3201C122.982 21.5294 123.265 21.8326 123.465 22.2296C123.668 22.6266 123.768 23.1083 123.765 23.6745V28.1895H122.094V23.9331C122.094 23.4591 121.971 23.0882 121.724 22.8205C121.481 22.5527 121.144 22.4189 120.713 22.4189C120.421 22.4189 120.161 22.4835 119.933 22.6127C119.709 22.7389 119.532 22.9221 119.402 23.1621C119.276 23.4022 119.213 23.693 119.213 24.0346ZM131.068 22.9728L129.545 23.139C129.502 22.9851 129.426 22.8405 129.319 22.7051C129.214 22.5697 129.072 22.4604 128.894 22.3773C128.715 22.2942 128.497 22.2527 128.238 22.2527C127.89 22.2527 127.598 22.3281 127.361 22.4789C127.127 22.6297 127.012 22.8251 127.015 23.0652C127.012 23.2714 127.087 23.4391 127.241 23.5684C127.398 23.6976 127.657 23.8038 128.017 23.8869L129.226 24.1454C129.897 24.2901 130.396 24.5194 130.722 24.8333C131.051 25.1472 131.217 25.5581 131.221 26.0659C131.217 26.5121 131.087 26.9061 130.828 27.2477C130.573 27.5862 130.217 27.8509 129.762 28.0417C129.306 28.2325 128.783 28.3279 128.192 28.3279C127.324 28.3279 126.626 28.1464 126.096 27.7832C125.567 27.417 125.251 26.9076 125.15 26.2551L126.779 26.0982C126.853 26.4183 127.01 26.6599 127.25 26.823C127.49 26.9861 127.803 27.0676 128.187 27.0676C128.585 27.0676 128.903 26.9861 129.143 26.823C129.386 26.6599 129.508 26.4583 129.508 26.2182C129.508 26.0151 129.429 25.8474 129.272 25.715C129.118 25.5827 128.878 25.4811 128.552 25.4103L127.343 25.1564C126.663 25.0149 126.159 24.7763 125.833 24.4409C125.507 24.1023 125.345 23.6745 125.348 23.1575C125.345 22.7205 125.464 22.3419 125.704 22.0218C125.947 21.6987 126.284 21.4494 126.715 21.274C127.149 21.0955 127.649 21.0062 128.215 21.0062C129.046 21.0062 129.7 21.1832 130.177 21.5371C130.657 21.891 130.954 22.3696 131.068 22.9728Z" fill="black"/>
<path d="M39.5732 76.5747C39.5732 75.8932 40.1257 75.3408 40.8071 75.3408H82.8896V77.8086H40.8071C40.1257 77.8086 39.5732 77.2561 39.5732 76.5747Z" fill="#DEE2E6"/>
<rect x="84.4091" y="75.3408" width="29.6375" height="2.46775" fill="#26B5CE"/>
<rect x="115.567" y="75.3408" width="61.5548" height="2.46775" fill="#F7AE59"/>
<rect x="178.641" y="75.3408" width="33.4372" height="2.46775" fill="#D687FF"/>
<path d="M213.599 75.3408H267.841C268.522 75.3408 269.075 75.8932 269.075 76.5747C269.075 77.2561 268.522 77.8086 267.841 77.8086H213.599V75.3408Z" fill="#09A953"/>
<rect x="39.5719" y="40.6328" width="79.5849" height="8.02018" rx="4.01009" fill="#EBEBEB"/>
<rect x="134.581" y="40.6328" width="79.5849" height="8.02018" rx="4.01009" fill="#E2E2E2"/>
<g filter="url(#filter1_d_1424_38225)">
<rect x="3" y="26" width="260" height="87" rx="6.16937" fill="white"/>
</g>
<path d="M3 86H262.731V106.359C262.731 109.766 259.968 112.528 256.561 112.528H9.16936C5.76211 112.528 3 109.766 3 106.359V86Z" fill="#FAFAFA"/>
<path d="M3 86H262.731" stroke="#E2E2E2" strokeWidth="0.616937"/>
<path d="M25.5971 44.9249H23.8706C23.8213 44.6417 23.7305 44.3909 23.5982 44.1724C23.4658 43.9508 23.3012 43.7631 23.1042 43.6092C22.9072 43.4553 22.6826 43.3399 22.4302 43.263C22.1809 43.1829 21.9116 43.1429 21.6223 43.1429C21.1084 43.1429 20.6529 43.2722 20.2558 43.5307C19.8588 43.7862 19.548 44.1616 19.3233 44.6571C19.0987 45.1496 18.9863 45.7512 18.9863 46.4622C18.9863 47.1854 19.0987 47.7948 19.3233 48.2903C19.5511 48.7827 19.8619 49.1551 20.2558 49.4075C20.6529 49.6568 21.1068 49.7814 21.6177 49.7814C21.9009 49.7814 22.1655 49.7445 22.4117 49.6706C22.661 49.5937 22.8842 49.4814 23.0811 49.3336C23.2812 49.1859 23.4489 49.0043 23.5843 48.7889C23.7228 48.5734 23.8182 48.3272 23.8706 48.0502L25.5971 48.0595C25.5325 48.5088 25.3924 48.9305 25.177 49.3244C24.9647 49.7183 24.6861 50.0661 24.3414 50.3677C23.9967 50.6663 23.5936 50.9002 23.1319 51.0694C22.6703 51.2356 22.1578 51.3187 21.5946 51.3187C20.7637 51.3187 20.0219 51.1264 19.3695 50.7417C18.717 50.3569 18.2031 49.8014 17.8276 49.0751C17.4521 48.3488 17.2644 47.4778 17.2644 46.4622C17.2644 45.4435 17.4536 44.5725 17.8322 43.8493C18.2107 43.1229 18.7263 42.5674 19.3787 42.1827C20.0312 41.798 20.7698 41.6056 21.5946 41.6056C22.1209 41.6056 22.6103 41.6795 23.0627 41.8272C23.5151 41.975 23.9183 42.1919 24.2722 42.4782C24.6261 42.7613 24.917 43.1091 25.1447 43.5215C25.3755 43.9308 25.5263 44.3986 25.5971 44.9249ZM32.3037 44.334C32.2606 43.9308 32.079 43.6169 31.759 43.3922C31.442 43.1676 31.0296 43.0552 30.5217 43.0552C30.1647 43.0552 29.8585 43.1091 29.6031 43.2168C29.3476 43.3245 29.1522 43.4707 29.0168 43.6554C28.8814 43.84 28.8121 44.0508 28.809 44.2878C28.809 44.4848 28.8537 44.6556 28.9429 44.8002C29.0352 44.9449 29.1599 45.068 29.3168 45.1696C29.4738 45.2681 29.6477 45.3511 29.8385 45.4189C30.0293 45.4866 30.2217 45.5435 30.4156 45.5897L31.3019 45.8113C31.6589 45.8944 32.0021 46.0067 32.3314 46.1483C32.6638 46.2898 32.9608 46.4683 33.2224 46.6838C33.4871 46.8992 33.6963 47.1593 33.8502 47.464C34.0041 47.7686 34.081 48.1257 34.081 48.535C34.081 49.089 33.9395 49.5768 33.6563 49.9984C33.3732 50.417 32.9639 50.7447 32.4283 50.9817C31.8959 51.2156 31.2511 51.3326 30.494 51.3326C29.7585 51.3326 29.1199 51.2187 28.5782 50.9909C28.0396 50.7632 27.618 50.4308 27.3133 49.9938C27.0117 49.5568 26.8486 49.0243 26.8239 48.3965H28.509C28.5336 48.7258 28.6351 48.9997 28.8136 49.2182C28.9921 49.4367 29.2245 49.5998 29.5107 49.7076C29.8 49.8153 30.1232 49.8691 30.4802 49.8691C30.8526 49.8691 31.1788 49.8137 31.4589 49.7029C31.742 49.5891 31.9636 49.4321 32.1237 49.2321C32.2837 49.0289 32.3653 48.792 32.3683 48.5211C32.3653 48.2749 32.2929 48.0718 32.1514 47.9118C32.0098 47.7486 31.8113 47.6132 31.5558 47.5055C31.3035 47.3947 31.008 47.2962 30.6695 47.21L29.5938 46.9331C28.8152 46.733 28.1997 46.4299 27.7472 46.0236C27.2979 45.6143 27.0732 45.0711 27.0732 44.394C27.0732 43.8369 27.224 43.3491 27.5256 42.9306C27.8303 42.512 28.2443 42.1873 28.7675 41.9565C29.2907 41.7226 29.8831 41.6056 30.5448 41.6056C31.2158 41.6056 31.8036 41.7226 32.3083 41.9565C32.8161 42.1873 33.2147 42.5089 33.504 42.9213C33.7933 43.3307 33.9425 43.8016 33.9518 44.334H32.3037ZM36.8729 41.7349L39.3334 49.1767H39.4304L41.8864 41.7349H43.7699L40.4368 51.1895H38.3224L34.994 41.7349H36.8729ZM49.9525 41.7349V51.1895H48.2398V41.7349H49.9525ZM51.7333 51.1895V44.0985H53.3306V45.3034H53.4137C53.5614 44.8972 53.8061 44.5802 54.1477 44.3525C54.4893 44.1216 54.8971 44.0062 55.3711 44.0062C55.8512 44.0062 56.2559 44.1232 56.5852 44.3571C56.9176 44.5879 57.1515 44.9033 57.2869 45.3034H57.3608C57.5177 44.9095 57.7824 44.5956 58.1548 44.3617C58.5303 44.1247 58.975 44.0062 59.489 44.0062C60.1414 44.0062 60.6739 44.2124 61.0863 44.6248C61.4987 45.0372 61.7049 45.6389 61.7049 46.4299V51.1895H60.0291V46.6884C60.0291 46.2483 59.9122 45.9267 59.6783 45.7235C59.4444 45.5173 59.1581 45.4142 58.8196 45.4142C58.4164 45.4142 58.101 45.5404 57.8732 45.7928C57.6485 46.0421 57.5362 46.3668 57.5362 46.7669V51.1895H55.8974V46.6191C55.8974 46.2529 55.7866 45.9605 55.565 45.742C55.3465 45.5235 55.0602 45.4142 54.7063 45.4142C54.4663 45.4142 54.2477 45.4758 54.0508 45.5989C53.8538 45.7189 53.6968 45.8897 53.5799 46.1113C53.4629 46.3298 53.4045 46.5853 53.4045 46.8777V51.1895H51.7333ZM63.4003 53.8485V44.0985H65.0438V45.2711H65.1407C65.2269 45.0988 65.3484 44.9157 65.5054 44.7218C65.6624 44.5248 65.8747 44.3571 66.1425 44.2186C66.4102 44.077 66.7519 44.0062 67.1673 44.0062C67.7152 44.0062 68.2091 44.1462 68.6492 44.4263C69.0924 44.7033 69.4433 45.1142 69.7018 45.6589C69.9634 46.2006 70.0942 46.8654 70.0942 47.6532C70.0942 48.4319 69.9665 49.0936 69.711 49.6383C69.4556 50.1831 69.1078 50.5985 68.6677 50.8848C68.2276 51.171 67.729 51.3141 67.172 51.3141C66.7657 51.3141 66.4287 51.2464 66.1609 51.111C65.8932 50.9756 65.6778 50.8124 65.5146 50.6216C65.3546 50.4277 65.23 50.2446 65.1407 50.0723H65.0715V53.8485H63.4003ZM65.0391 47.644C65.0391 48.1026 65.1038 48.5042 65.233 48.8489C65.3654 49.1936 65.5546 49.4629 65.8009 49.6568C66.0501 49.8476 66.3518 49.943 66.7057 49.943C67.075 49.943 67.3843 49.8445 67.6336 49.6475C67.8829 49.4475 68.0706 49.1751 68.1968 48.8304C68.3261 48.4827 68.3907 48.0872 68.3907 47.644C68.3907 47.2039 68.3276 46.813 68.2014 46.4714C68.0752 46.1298 67.8875 45.862 67.6382 45.6681C67.3889 45.4743 67.0781 45.3773 66.7057 45.3773C66.3487 45.3773 66.0455 45.4712 65.7962 45.6589C65.547 45.8466 65.3577 46.1098 65.2284 46.4483C65.1022 46.7869 65.0391 47.1854 65.0391 47.644ZM74.6183 51.3279C73.9259 51.3279 73.3257 51.1756 72.8179 50.8709C72.3101 50.5662 71.9162 50.14 71.6361 49.5922C71.3591 49.0443 71.2206 48.4042 71.2206 47.6717C71.2206 46.9392 71.3591 46.2975 71.6361 45.7466C71.9162 45.1957 72.3101 44.7679 72.8179 44.4632C73.3257 44.1586 73.9259 44.0062 74.6183 44.0062C75.3108 44.0062 75.9109 44.1586 76.4188 44.4632C76.9266 44.7679 77.319 45.1957 77.596 45.7466C77.876 46.2975 78.0161 46.9392 78.0161 47.6717C78.0161 48.4042 77.876 49.0443 77.596 49.5922C77.319 50.14 76.9266 50.5662 76.4188 50.8709C75.9109 51.1756 75.3108 51.3279 74.6183 51.3279ZM74.6276 49.9892C75.003 49.9892 75.317 49.8861 75.5693 49.6799C75.8217 49.4706 76.0094 49.1905 76.1325 48.8397C76.2587 48.4888 76.3218 48.098 76.3218 47.6671C76.3218 47.2331 76.2587 46.8407 76.1325 46.4899C76.0094 46.1359 75.8217 45.8543 75.5693 45.6451C75.317 45.4358 75.003 45.3311 74.6276 45.3311C74.2429 45.3311 73.9228 45.4358 73.6673 45.6451C73.415 45.8543 73.2257 46.1359 73.0995 46.4899C72.9764 46.8407 72.9149 47.2331 72.9149 47.6671C72.9149 48.098 72.9764 48.4888 73.0995 48.8397C73.2257 49.1905 73.415 49.4706 73.6673 49.6799C73.9228 49.8861 74.2429 49.9892 74.6276 49.9892ZM79.4345 51.1895V44.0985H81.0549V45.2804H81.1287C81.258 44.871 81.4796 44.5556 81.7935 44.334C82.1105 44.1093 82.4721 43.997 82.8784 43.997C82.9707 43.997 83.0738 44.0016 83.1877 44.0108C83.3046 44.017 83.4016 44.0278 83.4785 44.0431V45.5804C83.4077 45.5558 83.2954 45.5343 83.1415 45.5158C82.9907 45.4943 82.8445 45.4835 82.7029 45.4835C82.3982 45.4835 82.1243 45.5497 81.8812 45.682C81.6411 45.8113 81.4519 45.9913 81.3134 46.2221C81.1749 46.4529 81.1056 46.7192 81.1056 47.0208V51.1895H79.4345ZM88.5105 44.0985V45.3912H84.4341V44.0985H88.5105ZM85.4405 42.3997H87.1117V49.0566C87.1117 49.2813 87.1455 49.4537 87.2132 49.5737C87.284 49.6906 87.3764 49.7707 87.4902 49.8137C87.6041 49.8568 87.7303 49.8784 87.8688 49.8784C87.9734 49.8784 88.0688 49.8707 88.155 49.8553C88.2442 49.8399 88.312 49.8261 88.3581 49.8137L88.6397 51.1202C88.5505 51.151 88.4228 51.1848 88.2566 51.2218C88.0934 51.2587 87.8934 51.2802 87.6564 51.2864C87.2379 51.2987 86.8608 51.2356 86.5254 51.0971C86.1899 50.9556 85.9237 50.737 85.7267 50.4416C85.5328 50.1461 85.4374 49.7768 85.4405 49.3336V42.3997ZM92.9711 51.3279C92.2602 51.3279 91.6462 51.1802 91.1292 50.8848C90.6152 50.5862 90.2197 50.1646 89.9427 49.6199C89.6657 49.072 89.5272 48.4273 89.5272 47.6855C89.5272 46.9561 89.6657 46.316 89.9427 45.7651C90.2228 45.2111 90.6137 44.7802 91.1153 44.4725C91.617 44.1616 92.2063 44.0062 92.8834 44.0062C93.3204 44.0062 93.7329 44.077 94.1206 44.2186C94.5115 44.3571 94.8562 44.5725 95.1547 44.8649C95.4563 45.1573 95.6933 45.5297 95.8657 45.9821C96.038 46.4314 96.1242 46.9669 96.1242 47.5886V48.101H90.312V46.9746H94.5223C94.5192 46.6545 94.4499 46.3699 94.3145 46.1206C94.1791 45.8682 93.9898 45.6697 93.7467 45.525C93.5066 45.3804 93.2266 45.3081 92.9065 45.3081C92.5649 45.3081 92.2648 45.3912 92.0063 45.5574C91.7478 45.7205 91.5462 45.9359 91.4015 46.2037C91.26 46.4683 91.1876 46.7592 91.1846 47.0762V48.0595C91.1846 48.4719 91.26 48.8258 91.4108 49.1213C91.5616 49.4136 91.7724 49.6383 92.0432 49.7953C92.3141 49.9492 92.6311 50.0261 92.9942 50.0261C93.2374 50.0261 93.4574 49.9922 93.6544 49.9245C93.8513 49.8538 94.0222 49.7507 94.1668 49.6152C94.3115 49.4798 94.4207 49.3121 94.4946 49.112L96.0549 49.2875C95.9565 49.6999 95.7687 50.06 95.4917 50.3677C95.2178 50.6724 94.867 50.9094 94.4392 51.0787C94.0114 51.2449 93.522 51.3279 92.9711 51.3279ZM97.538 51.1895V44.0985H99.1584V45.2804H99.2322C99.3615 44.871 99.5831 44.5556 99.897 44.334C100.214 44.1093 100.576 43.997 100.982 43.997C101.074 43.997 101.177 44.0016 101.291 44.0108C101.408 44.017 101.505 44.0278 101.582 44.0431V45.5804C101.511 45.5558 101.399 45.5343 101.245 45.5158C101.094 45.4943 100.948 45.4835 100.806 45.4835C100.502 45.4835 100.228 45.5497 99.9847 45.682C99.7447 45.8113 99.5554 45.9913 99.4169 46.2221C99.2784 46.4529 99.2092 46.7192 99.2092 47.0208V51.1895H97.538Z" fill="black"/>
<path d="M16.5732 99.5747C16.5732 98.8932 17.1257 98.3408 17.8071 98.3408H59.8896V100.809H17.8071C17.1257 100.809 16.5732 100.256 16.5732 99.5747Z" fill="#DEE2E6"/>
<rect x="61.4091" y="98.3408" width="29.6375" height="2.46775" fill="#26B5CE"/>
<rect x="92.5669" y="98.3408" width="61.5548" height="2.46775" fill="#F7AE59"/>
<rect x="155.641" y="98.3408" width="33.4372" height="2.46775" fill="#D687FF"/>
<path d="M190.599 98.3408H244.841C245.522 98.3408 246.075 98.8932 246.075 99.5747C246.075 100.256 245.522 100.809 244.841 100.809H190.599V98.3408Z" fill="#09A953"/>
<rect x="16.5719" y="63.6328" width="79.5849" height="8.02018" rx="4.01009" fill="#EBEBEB"/>
<rect x="111.581" y="63.6328" width="79.5849" height="8.02018" rx="4.01009" fill="#E2E2E2"/>
<defs>
<filter id="filter0_d_1424_38225" x="23.5323" y="0.532252" width="264.935" height="91.9355" filterUnits="userSpaceOnUse" color-interpolation-filters="sRGB">
<feFlood flood-opacity="0" result="BackgroundImageFix"/>
<feColorMatrix in="SourceAlpha" type="matrix" values="0 0 0 0 0 0 0 0 0 0 0 0 0 0 0 0 0 0 127 0" result="hardAlpha"/>
<feOffset/>
<feGaussianBlur stdDeviation="1.23387"/>
<feComposite in2="hardAlpha" operator="out"/>
<feColorMatrix type="matrix" values="0 0 0 0 0 0 0 0 0 0 0 0 0 0 0 0 0 0 0.2 0"/>
<feBlend mode="normal" in2="BackgroundImageFix" result="effect1_dropShadow_1424_38225"/>
<feBlend mode="normal" in="SourceGraphic" in2="effect1_dropShadow_1424_38225" result="shape"/>
</filter>
<filter id="filter1_d_1424_38225" x="0.532252" y="23.5323" width="264.935" height="91.9355" filterUnits="userSpaceOnUse" color-interpolation-filters="sRGB">
<feFlood flood-opacity="0" result="BackgroundImageFix"/>
<feColorMatrix in="SourceAlpha" type="matrix" values="0 0 0 0 0 0 0 0 0 0 0 0 0 0 0 0 0 0 127 0" result="hardAlpha"/>
<feOffset/>
<feGaussianBlur stdDeviation="1.23387"/>
<feComposite in2="hardAlpha" operator="out"/>
<feColorMatrix type="matrix" values="0 0 0 0 0 0 0 0 0 0 0 0 0 0 0 0 0 0 0.2 0"/>
<feBlend mode="normal" in2="BackgroundImageFix" result="effect1_dropShadow_1424_38225"/>
<feBlend mode="normal" in="SourceGraphic" in2="effect1_dropShadow_1424_38225" result="shape"/>
</filter>
</defs>
</svg>
