<svg width="289" height="116" viewBox="0 0 289 116" fill="none" xmlns="http://www.w3.org/2000/svg">
<g filter="url(#filter0_d_1424_37760)">
<rect x="26" y="3" width="260" height="87" rx="6.16937" fill="white"/>
</g>
<path d="M26 63H285.731V83.3589C285.731 86.7662 282.968 89.5283 279.561 89.5283H32.1694C28.7621 89.5283 26 86.7662 26 83.3589V63Z" fill="#FAFAFA"/>
<path d="M26 63H285.731" stroke="#E2E2E2" stroke-width="0.616937"/>
<path d="M48.5975 21.9249H46.8709C46.8217 21.6417 46.7309 21.3909 46.5985 21.1724C46.4662 20.9508 46.3016 20.7631 46.1046 20.6092C45.9076 20.4553 45.6829 20.3399 45.4306 20.263C45.1813 20.1829 44.912 20.1429 44.6227 20.1429C44.1087 20.1429 43.6532 20.2722 43.2562 20.5307C42.8592 20.7862 42.5484 21.1616 42.3237 21.6571C42.099 22.1496 41.9867 22.7512 41.9867 23.4622C41.9867 24.1854 42.099 24.7948 42.3237 25.2903C42.5514 25.7827 42.8623 26.1551 43.2562 26.4075C43.6532 26.6568 44.1072 26.7814 44.6181 26.7814C44.9012 26.7814 45.1659 26.7445 45.4121 26.6706C45.6614 26.5937 45.8845 26.4814 46.0815 26.3336C46.2815 26.1859 46.4493 26.0043 46.5847 25.7889C46.7232 25.5734 46.8186 25.3272 46.8709 25.0502L48.5975 25.0595C48.5328 25.5088 48.3928 25.9305 48.1774 26.3244C47.965 26.7183 47.6865 27.0661 47.3418 27.3677C46.9971 27.6663 46.5939 27.9002 46.1323 28.0694C45.6706 28.2356 45.1582 28.3187 44.595 28.3187C43.764 28.3187 43.0223 28.1264 42.3699 27.7417C41.7174 27.3569 41.2034 26.8014 40.8279 26.0751C40.4525 25.3488 40.2647 24.4778 40.2647 23.4622C40.2647 22.4435 40.454 21.5725 40.8326 20.8493C41.2111 20.1229 41.7266 19.5674 42.3791 19.1827C43.0315 18.798 43.7702 18.6056 44.595 18.6056C45.1213 18.6056 45.6106 18.6795 46.063 18.8272C46.5154 18.975 46.9186 19.1919 47.2725 19.4782C47.6265 19.7613 47.9173 20.1091 48.1451 20.5215C48.3759 20.9308 48.5267 21.3986 48.5975 21.9249ZM51.1942 30.8485C50.9665 30.8485 50.7557 30.8301 50.5618 30.7931C50.371 30.7593 50.2186 30.7193 50.1048 30.6731L50.4925 29.3713C50.7357 29.4421 50.9527 29.4759 51.1435 29.4728C51.3343 29.4698 51.502 29.4097 51.6467 29.2928C51.7944 29.1789 51.919 28.9881 52.0206 28.7203L52.1637 28.3372L49.5923 21.0985H51.3651L52.9993 26.4537H53.0732L54.712 21.0985H56.4893L53.6502 29.0481C53.5179 29.4236 53.3424 29.7452 53.1239 30.013C52.9054 30.2838 52.6377 30.49 52.3207 30.6316C52.0067 30.7762 51.6313 30.8485 51.1942 30.8485ZM60.4976 28.3279C59.7897 28.3279 59.1819 28.1725 58.6741 27.8617C58.1694 27.5508 57.78 27.1215 57.5061 26.5737C57.2353 26.0228 57.0999 25.3888 57.0999 24.6717C57.0999 23.9515 57.2384 23.316 57.5154 22.7651C57.7923 22.2111 58.1832 21.7802 58.6879 21.4725C59.1958 21.1616 59.7959 21.0062 60.4884 21.0062C61.0639 21.0062 61.5732 21.1124 62.0164 21.3248C62.4627 21.534 62.8182 21.831 63.0828 22.2157C63.3475 22.5974 63.4983 23.0436 63.5352 23.5545H61.9379C61.8733 23.2129 61.7194 22.9282 61.4763 22.7005C61.2362 22.4696 60.9146 22.3542 60.5115 22.3542C60.1698 22.3542 59.8698 22.4466 59.6112 22.6312C59.3527 22.8128 59.1511 23.0744 59.0065 23.416C58.8649 23.7576 58.7941 24.167 58.7941 24.644C58.7941 25.1272 58.8649 25.5427 59.0065 25.8904C59.1481 26.2351 59.3466 26.5014 59.602 26.6891C59.8605 26.8738 60.1637 26.9661 60.5115 26.9661C60.7577 26.9661 60.9777 26.9199 61.1716 26.8276C61.3686 26.7322 61.5332 26.5952 61.6656 26.4167C61.7979 26.2382 61.8887 26.0212 61.9379 25.7658H63.5352C63.4952 26.2675 63.3475 26.7122 63.0921 27.1C62.8366 27.4847 62.4888 27.7863 62.0487 28.0048C61.6086 28.2202 61.0916 28.3279 60.4976 28.3279ZM66.5787 18.7349V28.1895H64.9075V18.7349H66.5787ZM71.4363 28.3279C70.7254 28.3279 70.1114 28.1802 69.5944 27.8848C69.0804 27.5862 68.6849 27.1646 68.4079 26.6199C68.1309 26.072 67.9925 25.4273 67.9925 24.6855C67.9925 23.9561 68.1309 23.316 68.4079 22.7651C68.688 22.2111 69.0789 21.7802 69.5805 21.4725C70.0822 21.1616 70.6715 21.0062 71.3486 21.0062C71.7857 21.0062 72.1981 21.077 72.5858 21.2186C72.9767 21.3571 73.3214 21.5725 73.6199 21.8649C73.9215 22.1573 74.1585 22.5297 74.3309 22.9821C74.5032 23.4314 74.5894 23.9669 74.5894 24.5886V25.101H68.7773V23.9746H72.9875C72.9844 23.6545 72.9152 23.3699 72.7797 23.1206C72.6443 22.8682 72.455 22.6697 72.2119 22.525C71.9719 22.3804 71.6918 22.3081 71.3717 22.3081C71.0301 22.3081 70.73 22.3912 70.4715 22.5574C70.213 22.7205 70.0114 22.9359 69.8667 23.2037C69.7252 23.4683 69.6528 23.7592 69.6498 24.0762V25.0595C69.6498 25.4719 69.7252 25.8258 69.876 26.1213C70.0268 26.4136 70.2376 26.6383 70.5084 26.7953C70.7793 26.9492 71.0963 27.0261 71.4594 27.0261C71.7026 27.0261 71.9226 26.9922 72.1196 26.9245C72.3166 26.8538 72.4874 26.7507 72.632 26.6152C72.7767 26.4798 72.8859 26.3121 72.9598 26.112L74.5202 26.2875C74.4217 26.6999 74.2339 27.06 73.9569 27.3677C73.683 27.6724 73.3322 27.9094 72.9044 28.0787C72.4766 28.2449 71.9872 28.3279 71.4363 28.3279ZM87.0712 18.7349V28.1895H85.5478L81.0929 21.7495H81.0144V28.1895H79.3017V18.7349H80.8343L85.2846 25.1795H85.3677V18.7349H87.0712ZM90.904 28.3326C90.4547 28.3326 90.05 28.2525 89.6899 28.0925C89.3329 27.9294 89.0497 27.6893 88.8405 27.3723C88.6343 27.0553 88.5312 26.6645 88.5312 26.1998C88.5312 25.7997 88.605 25.4688 88.7528 25.2072C88.9005 24.9456 89.1021 24.7363 89.3575 24.5794C89.613 24.4224 89.9007 24.3039 90.2208 24.2239C90.5439 24.1408 90.8779 24.0808 91.2226 24.0439C91.6381 24.0008 91.9751 23.9623 92.2336 23.9284C92.4921 23.8915 92.6798 23.8361 92.7968 23.7623C92.9168 23.6853 92.9768 23.5668 92.9768 23.4068V23.3791C92.9768 23.0313 92.8737 22.762 92.6675 22.5712C92.4613 22.3804 92.1643 22.285 91.7765 22.285C91.3672 22.285 91.0425 22.3742 90.8025 22.5527C90.5655 22.7312 90.4055 22.9421 90.3224 23.1852L88.762 22.9636C88.8851 22.5327 89.0882 22.1726 89.3714 21.8833C89.6545 21.591 90.0007 21.3725 90.4101 21.2278C90.8194 21.0801 91.2718 21.0062 91.7673 21.0062C92.1089 21.0062 92.449 21.0462 92.7876 21.1262C93.1261 21.2063 93.4354 21.3386 93.7155 21.5233C93.9955 21.7048 94.2202 21.9526 94.3895 22.2665C94.5618 22.5804 94.648 22.9728 94.648 23.4437V28.1895H93.0415V27.2154H92.9861C92.8845 27.4123 92.7414 27.597 92.5567 27.7694C92.3751 27.9386 92.1459 28.0756 91.8689 28.1802C91.595 28.2818 91.2733 28.3326 90.904 28.3326ZM91.338 27.1046C91.6734 27.1046 91.9643 27.0384 92.2105 26.9061C92.4567 26.7707 92.646 26.5922 92.7783 26.3706C92.9137 26.149 92.9814 25.9074 92.9814 25.6458V24.8102C92.9291 24.8533 92.8399 24.8933 92.7137 24.9302C92.5906 24.9672 92.4521 24.9995 92.2982 25.0272C92.1443 25.0549 91.992 25.0795 91.8412 25.101C91.6904 25.1226 91.5596 25.141 91.4488 25.1564C91.1995 25.1903 90.9764 25.2457 90.7794 25.3226C90.5824 25.3996 90.427 25.5073 90.3131 25.6458C90.1992 25.7812 90.1423 25.9566 90.1423 26.1721C90.1423 26.4798 90.2546 26.7122 90.4793 26.8691C90.704 27.0261 90.9902 27.1046 91.338 27.1046ZM96.3284 28.1895V21.0985H97.9257V22.3034H98.0088C98.1565 21.8972 98.4012 21.5802 98.7428 21.3525C99.0844 21.1216 99.4922 21.0062 99.9662 21.0062C100.446 21.0062 100.851 21.1232 101.18 21.3571C101.513 21.5879 101.747 21.9033 101.882 22.3034H101.956C102.113 21.9095 102.378 21.5956 102.75 21.3617C103.125 21.1247 103.57 21.0062 104.084 21.0062C104.737 21.0062 105.269 21.2124 105.681 21.6248C106.094 22.0372 106.3 22.6389 106.3 23.4299V28.1895H104.624V23.6884C104.624 23.2483 104.507 22.9267 104.273 22.7235C104.039 22.5173 103.753 22.4142 103.415 22.4142C103.012 22.4142 102.696 22.5404 102.468 22.7928C102.244 23.0421 102.131 23.3668 102.131 23.7669V28.1895H100.492V23.6191C100.492 23.2529 100.382 22.9605 100.16 22.742C99.9416 22.5235 99.6553 22.4142 99.3014 22.4142C99.0613 22.4142 98.8428 22.4758 98.6459 22.5989C98.4489 22.7189 98.2919 22.8897 98.175 23.1113C98.058 23.3298 97.9996 23.5853 97.9996 23.8777V28.1895H96.3284ZM111.135 28.3279C110.424 28.3279 109.81 28.1802 109.293 27.8848C108.779 27.5862 108.383 27.1646 108.106 26.6199C107.829 26.072 107.691 25.4273 107.691 24.6855C107.691 23.9561 107.829 23.316 108.106 22.7651C108.386 22.2111 108.777 21.7802 109.279 21.4725C109.78 21.1616 110.37 21.0062 111.047 21.0062C111.484 21.0062 111.896 21.077 112.284 21.2186C112.675 21.3571 113.02 21.5725 113.318 21.8649C113.62 22.1573 113.857 22.5297 114.029 22.9821C114.201 23.4314 114.288 23.9669 114.288 24.5886V25.101H108.475V23.9746H112.686C112.683 23.6545 112.613 23.3699 112.478 23.1206C112.343 22.8682 112.153 22.6697 111.91 22.525C111.67 22.3804 111.39 22.3081 111.07 22.3081C110.728 22.3081 110.428 22.3912 110.17 22.5574C109.911 22.7205 109.71 22.9359 109.565 23.2037C109.423 23.4683 109.351 23.7592 109.348 24.0762V25.0595C109.348 25.4719 109.423 25.8258 109.574 26.1213C109.725 26.4136 109.936 26.6383 110.207 26.7953C110.478 26.9492 110.795 27.0261 111.158 27.0261C111.401 27.0261 111.621 26.9922 111.818 26.9245C112.015 26.8538 112.186 26.7507 112.33 26.6152C112.475 26.4798 112.584 26.3121 112.658 26.112L114.218 26.2875C114.12 26.6999 113.932 27.06 113.655 27.3677C113.381 27.6724 113.03 27.9094 112.603 28.0787C112.175 28.2449 111.685 28.3279 111.135 28.3279Z" fill="black"/>
<path d="M39.5732 76.5747C39.5732 75.8932 40.1257 75.3408 40.8071 75.3408H82.8896V77.8086H40.8071C40.1257 77.8086 39.5732 77.2561 39.5732 76.5747Z" fill="#DEE2E6"/>
<rect x="84.4092" y="75.3408" width="29.6375" height="2.46775" fill="#26B5CE"/>
<rect x="115.566" y="75.3408" width="61.5548" height="2.46775" fill="#F7AE59"/>
<rect x="178.641" y="75.3408" width="33.4372" height="2.46775" fill="#D687FF"/>
<path d="M213.6 75.3408H267.841C268.522 75.3408 269.075 75.8932 269.075 76.5747C269.075 77.2561 268.522 77.8086 267.841 77.8086H213.6V75.3408Z" fill="#09A953"/>
<rect x="39.5723" y="40.6328" width="79.5849" height="8.02018" rx="4.01009" fill="#EBEBEB"/>
<rect x="134.581" y="40.6328" width="79.5849" height="8.02018" rx="4.01009" fill="#E2E2E2"/>
<g filter="url(#filter1_d_1424_37760)">
<rect x="3" y="26" width="260" height="87" rx="6.16937" fill="white"/>
</g>
<path d="M3 86H262.731V106.359C262.731 109.766 259.968 112.528 256.561 112.528H9.16936C5.76211 112.528 3 109.766 3 106.359V86Z" fill="#FAFAFA"/>
<path d="M3 86H262.731" stroke="#E2E2E2" stroke-width="0.616937"/>
<path d="M25.5975 44.9249H23.8709C23.8217 44.6417 23.7309 44.3909 23.5985 44.1724C23.4662 43.9508 23.3016 43.7631 23.1046 43.6092C22.9076 43.4553 22.6829 43.3399 22.4306 43.263C22.1813 43.1829 21.912 43.1429 21.6227 43.1429C21.1087 43.1429 20.6532 43.2722 20.2562 43.5307C19.8592 43.7862 19.5484 44.1616 19.3237 44.6571C19.099 45.1496 18.9867 45.7512 18.9867 46.4622C18.9867 47.1854 19.099 47.7948 19.3237 48.2903C19.5514 48.7827 19.8623 49.1551 20.2562 49.4075C20.6532 49.6568 21.1072 49.7814 21.6181 49.7814C21.9012 49.7814 22.1659 49.7445 22.4121 49.6706C22.6614 49.5937 22.8845 49.4814 23.0815 49.3336C23.2815 49.1859 23.4493 49.0043 23.5847 48.7889C23.7232 48.5734 23.8186 48.3272 23.8709 48.0502L25.5975 48.0595C25.5328 48.5088 25.3928 48.9305 25.1774 49.3244C24.965 49.7183 24.6865 50.0661 24.3418 50.3677C23.9971 50.6663 23.5939 50.9002 23.1323 51.0694C22.6706 51.2356 22.1582 51.3187 21.595 51.3187C20.764 51.3187 20.0223 51.1264 19.3699 50.7417C18.7174 50.3569 18.2034 49.8014 17.8279 49.0751C17.4525 48.3488 17.2647 47.4778 17.2647 46.4622C17.2647 45.4435 17.454 44.5725 17.8326 43.8493C18.2111 43.1229 18.7266 42.5674 19.3791 42.1827C20.0315 41.798 20.7702 41.6056 21.595 41.6056C22.1213 41.6056 22.6106 41.6795 23.063 41.8272C23.5154 41.975 23.9186 42.1919 24.2725 42.4782C24.6265 42.7613 24.9173 43.1091 25.1451 43.5215C25.3759 43.9308 25.5267 44.3986 25.5975 44.9249ZM28.1942 53.8485C27.9665 53.8485 27.7557 53.8301 27.5618 53.7931C27.371 53.7593 27.2186 53.7193 27.1048 53.6731L27.4925 52.3713C27.7357 52.4421 27.9527 52.4759 28.1435 52.4728C28.3343 52.4698 28.502 52.4097 28.6467 52.2928C28.7944 52.1789 28.919 51.9881 29.0206 51.7203L29.1637 51.3372L26.5923 44.0985H28.3651L29.9993 49.4537H30.0732L31.712 44.0985H33.4893L30.6502 52.0481C30.5179 52.4236 30.3424 52.7452 30.1239 53.013C29.9054 53.2838 29.6377 53.49 29.3207 53.6316C29.0067 53.7762 28.6313 53.8485 28.1942 53.8485ZM37.4976 51.3279C36.7897 51.3279 36.1819 51.1725 35.6741 50.8617C35.1694 50.5508 34.78 50.1215 34.5061 49.5737C34.2353 49.0228 34.0999 48.3888 34.0999 47.6717C34.0999 46.9515 34.2384 46.316 34.5154 45.7651C34.7923 45.2111 35.1832 44.7802 35.6879 44.4725C36.1958 44.1616 36.7959 44.0062 37.4884 44.0062C38.0639 44.0062 38.5732 44.1124 39.0164 44.3248C39.4627 44.534 39.8182 44.831 40.0828 45.2157C40.3475 45.5974 40.4983 46.0436 40.5352 46.5545H38.9379C38.8733 46.2129 38.7194 45.9282 38.4763 45.7005C38.2362 45.4696 37.9146 45.3542 37.5115 45.3542C37.1698 45.3542 36.8698 45.4466 36.6112 45.6312C36.3527 45.8128 36.1511 46.0744 36.0065 46.416C35.8649 46.7576 35.7941 47.167 35.7941 47.644C35.7941 48.1272 35.8649 48.5427 36.0065 48.8904C36.1481 49.2351 36.3466 49.5014 36.602 49.6891C36.8605 49.8738 37.1637 49.9661 37.5115 49.9661C37.7577 49.9661 37.9777 49.9199 38.1716 49.8276C38.3686 49.7322 38.5332 49.5952 38.6656 49.4167C38.7979 49.2382 38.8887 49.0212 38.9379 48.7658H40.5352C40.4952 49.2675 40.3475 49.7122 40.0921 50.1C39.8366 50.4847 39.4888 50.7863 39.0487 51.0048C38.6086 51.2202 38.0916 51.3279 37.4976 51.3279ZM43.5787 41.7349V51.1895H41.9075V41.7349H43.5787ZM48.4363 51.3279C47.7254 51.3279 47.1114 51.1802 46.5944 50.8848C46.0804 50.5862 45.6849 50.1646 45.4079 49.6199C45.1309 49.072 44.9925 48.4273 44.9925 47.6855C44.9925 46.9561 45.1309 46.316 45.4079 45.7651C45.688 45.2111 46.0789 44.7802 46.5805 44.4725C47.0822 44.1616 47.6715 44.0062 48.3486 44.0062C48.7857 44.0062 49.1981 44.077 49.5858 44.2186C49.9767 44.3571 50.3214 44.5725 50.6199 44.8649C50.9215 45.1573 51.1585 45.5297 51.3309 45.9821C51.5032 46.4314 51.5894 46.9669 51.5894 47.5886V48.101H45.7773V46.9746H49.9875C49.9844 46.6545 49.9152 46.3699 49.7797 46.1206C49.6443 45.8682 49.455 45.6697 49.2119 45.525C48.9719 45.3804 48.6918 45.3081 48.3717 45.3081C48.0301 45.3081 47.73 45.3912 47.4715 45.5574C47.213 45.7205 47.0114 45.9359 46.8667 46.2037C46.7252 46.4683 46.6528 46.7592 46.6498 47.0762V48.0595C46.6498 48.4719 46.7252 48.8258 46.876 49.1213C47.0268 49.4136 47.2376 49.6383 47.5084 49.7953C47.7793 49.9492 48.0963 50.0261 48.4594 50.0261C48.7026 50.0261 48.9226 49.9922 49.1196 49.9245C49.3166 49.8538 49.4874 49.7507 49.632 49.6152C49.7767 49.4798 49.8859 49.3121 49.9598 49.112L51.5202 49.2875C51.4217 49.6999 51.2339 50.06 50.9569 50.3677C50.683 50.6724 50.3322 50.9094 49.9044 51.0787C49.4766 51.2449 48.9872 51.3279 48.4363 51.3279ZM64.0712 41.7349V51.1895H62.5478L58.0929 44.7495H58.0144V51.1895H56.3017V41.7349H57.8343L62.2846 48.1795H62.3677V41.7349H64.0712ZM67.904 51.3326C67.4547 51.3326 67.05 51.2525 66.6899 51.0925C66.3329 50.9294 66.0497 50.6893 65.8405 50.3723C65.6343 50.0553 65.5312 49.6645 65.5312 49.1998C65.5312 48.7997 65.605 48.4688 65.7528 48.2072C65.9005 47.9456 66.1021 47.7363 66.3575 47.5794C66.613 47.4224 66.9007 47.3039 67.2208 47.2239C67.5439 47.1408 67.8779 47.0808 68.2226 47.0439C68.6381 47.0008 68.9751 46.9623 69.2336 46.9284C69.4921 46.8915 69.6798 46.8361 69.7968 46.7623C69.9168 46.6853 69.9768 46.5668 69.9768 46.4068V46.3791C69.9768 46.0313 69.8737 45.762 69.6675 45.5712C69.4613 45.3804 69.1643 45.285 68.7765 45.285C68.3672 45.285 68.0425 45.3742 67.8025 45.5527C67.5655 45.7312 67.4055 45.9421 67.3224 46.1852L65.762 45.9636C65.8851 45.5327 66.0882 45.1726 66.3714 44.8833C66.6545 44.591 67.0007 44.3725 67.4101 44.2278C67.8194 44.0801 68.2718 44.0062 68.7673 44.0062C69.1089 44.0062 69.449 44.0462 69.7876 44.1262C70.1261 44.2063 70.4354 44.3386 70.7155 44.5233C70.9955 44.7048 71.2202 44.9526 71.3895 45.2665C71.5618 45.5804 71.648 45.9728 71.648 46.4437V51.1895H70.0415V50.2154H69.9861C69.8845 50.4123 69.7414 50.597 69.5567 50.7694C69.3751 50.9386 69.1459 51.0756 68.8689 51.1802C68.595 51.2818 68.2733 51.3326 67.904 51.3326ZM68.338 50.1046C68.6734 50.1046 68.9643 50.0384 69.2105 49.9061C69.4567 49.7707 69.646 49.5922 69.7783 49.3706C69.9137 49.149 69.9814 48.9074 69.9814 48.6458V47.8102C69.9291 47.8533 69.8399 47.8933 69.7137 47.9302C69.5906 47.9672 69.4521 47.9995 69.2982 48.0272C69.1443 48.0549 68.992 48.0795 68.8412 48.101C68.6904 48.1226 68.5596 48.141 68.4488 48.1564C68.1995 48.1903 67.9764 48.2457 67.7794 48.3226C67.5824 48.3996 67.427 48.5073 67.3131 48.6458C67.1992 48.7812 67.1423 48.9566 67.1423 49.1721C67.1423 49.4798 67.2546 49.7122 67.4793 49.8691C67.704 50.0261 67.9902 50.1046 68.338 50.1046ZM73.3284 51.1895V44.0985H74.9257V45.3034H75.0088C75.1565 44.8972 75.4012 44.5802 75.7428 44.3525C76.0844 44.1216 76.4922 44.0062 76.9662 44.0062C77.4463 44.0062 77.851 44.1232 78.1803 44.3571C78.5127 44.5879 78.7466 44.9033 78.882 45.3034H78.9559C79.1128 44.9095 79.3775 44.5956 79.7499 44.3617C80.1254 44.1247 80.5701 44.0062 81.0841 44.0062C81.7365 44.0062 82.269 44.2124 82.6814 44.6248C83.0938 45.0372 83.3 45.6389 83.3 46.4299V51.1895H81.6242V46.6884C81.6242 46.2483 81.5073 45.9267 81.2733 45.7235C81.0394 45.5173 80.7532 45.4142 80.4147 45.4142C80.0115 45.4142 79.6961 45.5404 79.4683 45.7928C79.2436 46.0421 79.1313 46.3668 79.1313 46.7669V51.1895H77.4925V46.6191C77.4925 46.2529 77.3817 45.9605 77.1601 45.742C76.9416 45.5235 76.6553 45.4142 76.3014 45.4142C76.0613 45.4142 75.8428 45.4758 75.6459 45.5989C75.4489 45.7189 75.2919 45.8897 75.175 46.1113C75.058 46.3298 74.9996 46.5853 74.9996 46.8777V51.1895H73.3284ZM88.1346 51.3279C87.4237 51.3279 86.8097 51.1802 86.2926 50.8848C85.7786 50.5862 85.3832 50.1646 85.1062 49.6199C84.8292 49.072 84.6907 48.4273 84.6907 47.6855C84.6907 46.9561 84.8292 46.316 85.1062 45.7651C85.3862 45.2111 85.7771 44.7802 86.2788 44.4725C86.7804 44.1616 87.3698 44.0062 88.0469 44.0062C88.4839 44.0062 88.8963 44.077 89.2841 44.2186C89.675 44.3571 90.0196 44.5725 90.3182 44.8649C90.6198 45.1573 90.8568 45.5297 91.0291 45.9821C91.2015 46.4314 91.2876 46.9669 91.2876 47.5886V48.101H85.4755V46.9746H89.6857C89.6826 46.6545 89.6134 46.3699 89.478 46.1206C89.3426 45.8682 89.1533 45.6697 88.9102 45.525C88.6701 45.3804 88.39 45.3081 88.07 45.3081C87.7283 45.3081 87.4283 45.3912 87.1697 45.5574C86.9112 45.7205 86.7096 45.9359 86.565 46.2037C86.4234 46.4683 86.3511 46.7592 86.348 47.0762V48.0595C86.348 48.4719 86.4234 48.8258 86.5742 49.1213C86.725 49.4136 86.9358 49.6383 87.2067 49.7953C87.4775 49.9492 87.7945 50.0261 88.1577 50.0261C88.4008 50.0261 88.6209 49.9922 88.8178 49.9245C89.0148 49.8538 89.1856 49.7507 89.3303 49.6152C89.4749 49.4798 89.5842 49.3121 89.658 49.112L91.2184 49.2875C91.1199 49.6999 90.9322 50.06 90.6552 50.3677C90.3813 50.6724 90.0304 50.9094 89.6026 51.0787C89.1748 51.2449 88.6855 51.3279 88.1346 51.3279Z" fill="black"/>
<path d="M16.5732 99.5747C16.5732 98.8932 17.1257 98.3408 17.8071 98.3408H59.8896V100.809H17.8071C17.1257 100.809 16.5732 100.256 16.5732 99.5747Z" fill="#DEE2E6"/>
<rect x="61.4092" y="98.3408" width="29.6375" height="2.46775" fill="#26B5CE"/>
<rect x="92.5664" y="98.3408" width="61.5548" height="2.46775" fill="#F7AE59"/>
<rect x="155.641" y="98.3408" width="33.4372" height="2.46775" fill="#D687FF"/>
<path d="M190.6 98.3408H244.841C245.522 98.3408 246.075 98.8932 246.075 99.5747C246.075 100.256 245.522 100.809 244.841 100.809H190.6V98.3408Z" fill="#09A953"/>
<rect x="16.5723" y="63.6328" width="79.5849" height="8.02018" rx="4.01009" fill="#EBEBEB"/>
<rect x="111.581" y="63.6328" width="79.5849" height="8.02018" rx="4.01009" fill="#E2E2E2"/>
<defs>
<filter id="filter0_d_1424_37760" x="23.5323" y="0.532252" width="264.935" height="91.9355" filterUnits="userSpaceOnUse" color-interpolation-filters="sRGB">
<feFlood flood-opacity="0" result="BackgroundImageFix"/>
<feColorMatrix in="SourceAlpha" type="matrix" values="0 0 0 0 0 0 0 0 0 0 0 0 0 0 0 0 0 0 127 0" result="hardAlpha"/>
<feOffset/>
<feGaussianBlur stdDeviation="1.23387"/>
<feComposite in2="hardAlpha" operator="out"/>
<feColorMatrix type="matrix" values="0 0 0 0 0 0 0 0 0 0 0 0 0 0 0 0 0 0 0.2 0"/>
<feBlend mode="normal" in2="BackgroundImageFix" result="effect1_dropShadow_1424_37760"/>
<feBlend mode="normal" in="SourceGraphic" in2="effect1_dropShadow_1424_37760" result="shape"/>
</filter>
<filter id="filter1_d_1424_37760" x="0.532252" y="23.5323" width="264.935" height="91.9355" filterUnits="userSpaceOnUse" color-interpolation-filters="sRGB">
<feFlood flood-opacity="0" result="BackgroundImageFix"/>
<feColorMatrix in="SourceAlpha" type="matrix" values="0 0 0 0 0 0 0 0 0 0 0 0 0 0 0 0 0 0 127 0" result="hardAlpha"/>
<feOffset/>
<feGaussianBlur stdDeviation="1.23387"/>
<feComposite in2="hardAlpha" operator="out"/>
<feColorMatrix type="matrix" values="0 0 0 0 0 0 0 0 0 0 0 0 0 0 0 0 0 0 0.2 0"/>
<feBlend mode="normal" in2="BackgroundImageFix" result="effect1_dropShadow_1424_37760"/>
<feBlend mode="normal" in="SourceGraphic" in2="effect1_dropShadow_1424_37760" result="shape"/>
</filter>
</defs>
</svg>
