<svg width="291" height="178" viewBox="0 0 291 178" fill="none" xmlns="http://www.w3.org/2000/svg">
<rect x="64.5723" y="27.7246" width="79.5849" height="13.5513" rx="6.16937" fill="#EBEBEB"/>
<rect x="159.581" y="27.7246" width="79.5849" height="13.5513" rx="6.16937" fill="#E2E2E2"/>
<g filter="url(#filter0_d_1424_38483)">
<rect x="28" y="3" width="260" height="147" rx="6.16937" fill="white"/>
</g>
<path d="M42.5048 88.189V78.7344H46.0502C46.7766 78.7344 47.3859 78.8698 47.8784 79.1407C48.3739 79.4115 48.7478 79.7839 49.0002 80.2579C49.2556 80.7287 49.3833 81.2642 49.3833 81.8644C49.3833 82.4707 49.2556 83.0093 49.0002 83.4802C48.7447 83.951 48.3677 84.3219 47.8691 84.5927C47.3706 84.8605 46.7566 84.9944 46.0272 84.9944H43.6774V83.5863H45.7963C46.2211 83.5863 46.5688 83.5125 46.8397 83.3647C47.1105 83.217 47.3105 83.0139 47.4398 82.7554C47.5721 82.4968 47.6383 82.1999 47.6383 81.8644C47.6383 81.5289 47.5721 81.2335 47.4398 80.978C47.3105 80.7226 47.109 80.5241 46.835 80.3825C46.5642 80.2379 46.2149 80.1655 45.7871 80.1655H44.2175V88.189H42.5048ZM50.7971 88.189V81.0981H52.4175V82.2799H52.4914C52.6206 81.8705 52.8422 81.5551 53.1562 81.3335C53.4732 81.1088 53.8348 80.9965 54.241 80.9965C54.3334 80.9965 54.4365 81.0011 54.5503 81.0103C54.6673 81.0165 54.7642 81.0273 54.8412 81.0427V82.5799C54.7704 82.5553 54.6581 82.5338 54.5042 82.5153C54.3534 82.4938 54.2072 82.483 54.0656 82.483C53.7609 82.483 53.487 82.5492 53.2439 82.6815C53.0038 82.8108 52.8145 82.9908 52.676 83.2216C52.5376 83.4525 52.4683 83.7187 52.4683 84.0203V88.189H50.7971ZM58.7525 88.3275C58.06 88.3275 57.4599 88.1751 56.9521 87.8704C56.4442 87.5657 56.0503 87.1395 55.7702 86.5917C55.4933 86.0438 55.3548 85.4037 55.3548 84.6712C55.3548 83.9387 55.4933 83.297 55.7702 82.7461C56.0503 82.1952 56.4442 81.7674 56.9521 81.4628C57.4599 81.1581 58.06 81.0057 58.7525 81.0057C59.445 81.0057 60.0451 81.1581 60.5529 81.4628C61.0607 81.7674 61.4531 82.1952 61.7301 82.7461C62.0102 83.297 62.1502 83.9387 62.1502 84.6712C62.1502 85.4037 62.0102 86.0438 61.7301 86.5917C61.4531 87.1395 61.0607 87.5657 60.5529 87.8704C60.0451 88.1751 59.445 88.3275 58.7525 88.3275ZM58.7617 86.9887C59.1372 86.9887 59.4511 86.8856 59.7035 86.6794C59.9558 86.4701 60.1436 86.19 60.2667 85.8392C60.3929 85.4883 60.456 85.0975 60.456 84.6666C60.456 84.2326 60.3929 83.8402 60.2667 83.4894C60.1436 83.1355 59.9558 82.8539 59.7035 82.6446C59.4511 82.4353 59.1372 82.3307 58.7617 82.3307C58.377 82.3307 58.0569 82.4353 57.8015 82.6446C57.5491 82.8539 57.3598 83.1355 57.2337 83.4894C57.1106 83.8402 57.049 84.2326 57.049 84.6666C57.049 85.0975 57.1106 85.4883 57.2337 85.8392C57.3598 86.19 57.5491 86.4701 57.8015 86.6794C58.0569 86.8856 58.377 86.9887 58.7617 86.9887ZM63.5686 81.0981H65.2398V88.5952C65.2398 89.1061 65.1428 89.5277 64.949 89.8601C64.7551 90.1925 64.475 90.4403 64.1088 90.6034C63.7425 90.7665 63.2978 90.8481 62.7746 90.8481C62.713 90.8481 62.6561 90.8465 62.6038 90.8434C62.5515 90.8434 62.4945 90.8419 62.433 90.8388V89.477C62.4791 89.48 62.5207 89.4816 62.5576 89.4816C62.5945 89.4847 62.633 89.4862 62.673 89.4862C62.9931 89.4862 63.2224 89.4077 63.3609 89.2508C63.4994 89.0969 63.5686 88.8707 63.5686 88.5721V81.0981ZM64.3996 80.0917C64.1318 80.0917 63.9026 80.004 63.7117 79.8285C63.524 79.65 63.4301 79.4361 63.4301 79.1868C63.4301 78.9345 63.524 78.7206 63.7117 78.5451C63.9026 78.3666 64.1318 78.2774 64.3996 78.2774C64.6643 78.2774 64.8905 78.3666 65.0782 78.5451C65.269 78.7206 65.3644 78.9345 65.3644 79.1868C65.3644 79.4361 65.269 79.65 65.0782 79.8285C64.8905 80.004 64.6643 80.0917 64.3996 80.0917ZM70.0975 88.3275C69.3865 88.3275 68.7725 88.1797 68.2555 87.8843C67.7415 87.5857 67.3461 87.1641 67.0691 86.6194C66.7921 86.0715 66.6536 85.4268 66.6536 84.6851C66.6536 83.9557 66.7921 83.3155 67.0691 82.7646C67.3491 82.2106 67.74 81.7798 68.2417 81.472C68.7433 81.1611 69.3327 81.0057 70.0098 81.0057C70.4468 81.0057 70.8592 81.0765 71.247 81.2181C71.6378 81.3566 71.9825 81.572 72.2811 81.8644C72.5827 82.1568 72.8197 82.5292 72.992 82.9816C73.1644 83.4309 73.2505 83.9664 73.2505 84.5881V85.1005H67.4384V83.9741H71.6486C71.6455 83.654 71.5763 83.3694 71.4409 83.1201C71.3055 82.8677 71.1162 82.6692 70.873 82.5245C70.633 82.3799 70.3529 82.3076 70.0328 82.3076C69.6912 82.3076 69.3912 82.3907 69.1326 82.5569C68.8741 82.72 68.6725 82.9354 68.5279 83.2032C68.3863 83.4678 68.314 83.7587 68.3109 84.0757V85.059C68.3109 85.4714 68.3863 85.8253 68.5371 86.1208C68.6879 86.4132 68.8987 86.6378 69.1696 86.7948C69.4404 86.9487 69.7574 87.0256 70.1206 87.0256C70.3637 87.0256 70.5837 86.9918 70.7807 86.9241C70.9777 86.8533 71.1485 86.7502 71.2931 86.6147C71.4378 86.4793 71.5471 86.3116 71.6209 86.1116L73.1813 86.287C73.0828 86.6994 72.8951 87.0595 72.6181 87.3672C72.3442 87.6719 71.9933 87.9089 71.5655 88.0782C71.1377 88.2444 70.6484 88.3275 70.0975 88.3275ZM77.7574 88.3275C77.0495 88.3275 76.4417 88.172 75.9339 87.8612C75.4291 87.5504 75.0398 87.121 74.7659 86.5732C74.4951 86.0223 74.3596 85.3883 74.3596 84.6712C74.3596 83.951 74.4981 83.3155 74.7751 82.7646C75.0521 82.2106 75.443 81.7798 75.9477 81.472C76.4555 81.1611 77.0557 81.0057 77.7481 81.0057C78.3237 81.0057 78.833 81.1119 79.2762 81.3243C79.7224 81.5335 80.0779 81.8305 80.3426 82.2152C80.6073 82.5969 80.7581 83.0431 80.795 83.554H79.1977C79.1331 83.2124 78.9792 82.9277 78.7361 82.7C78.496 82.4691 78.1744 82.3537 77.7712 82.3537C77.4296 82.3537 77.1295 82.4461 76.871 82.6307C76.6125 82.8123 76.4109 83.0739 76.2662 83.4155C76.1247 83.7571 76.0539 84.1665 76.0539 84.6435C76.0539 85.1267 76.1247 85.5422 76.2662 85.89C76.4078 86.2347 76.6063 86.5009 76.8618 86.6886C77.1203 86.8733 77.4234 86.9656 77.7712 86.9656C78.0174 86.9656 78.2375 86.9194 78.4314 86.8271C78.6283 86.7317 78.793 86.5947 78.9253 86.4162C79.0577 86.2377 79.1485 86.0208 79.1977 85.7653H80.795C80.755 86.267 80.6073 86.7117 80.3518 87.0995C80.0964 87.4842 79.7486 87.7858 79.3085 88.0043C78.8684 88.2197 78.3514 88.3275 77.7574 88.3275ZM85.7081 81.0981V82.3907H81.6317V81.0981H85.7081ZM82.6381 79.3992H84.3093V86.0562C84.3093 86.2808 84.3432 86.4532 84.4109 86.5732C84.4817 86.6901 84.574 86.7702 84.6879 86.8133C84.8017 86.8563 84.9279 86.8779 85.0664 86.8779C85.171 86.8779 85.2665 86.8702 85.3526 86.8548C85.4419 86.8394 85.5096 86.8256 85.5558 86.8133L85.8374 88.1197C85.7481 88.1505 85.6204 88.1843 85.4542 88.2213C85.2911 88.2582 85.091 88.2798 84.854 88.2859C84.4355 88.2982 84.0585 88.2351 83.723 88.0966C83.3875 87.9551 83.1213 87.7366 82.9244 87.4411C82.7305 87.1456 82.6351 86.7763 82.6381 86.3331V79.3992ZM98.1737 78.7344V88.189H96.6503L92.1954 81.749H92.1169V88.189H90.4042V78.7344H91.9369L96.3872 85.179H96.4703V78.7344H98.1737ZM102.007 88.3321C101.557 88.3321 101.153 88.2521 100.792 88.092C100.435 87.9289 100.152 87.6888 99.943 87.3718C99.7368 87.0549 99.6337 86.664 99.6337 86.1993C99.6337 85.7992 99.7076 85.4683 99.8553 85.2067C100.003 84.9451 100.205 84.7358 100.46 84.5789C100.715 84.4219 101.003 84.3034 101.323 84.2234C101.646 84.1403 101.98 84.0803 102.325 84.0434C102.741 84.0003 103.078 83.9618 103.336 83.928C103.595 83.891 103.782 83.8356 103.899 83.7618C104.019 83.6848 104.079 83.5663 104.079 83.4063V83.3786C104.079 83.0308 103.976 82.7615 103.77 82.5707C103.564 82.3799 103.267 82.2845 102.879 82.2845C102.47 82.2845 102.145 82.3737 101.905 82.5522C101.668 82.7307 101.508 82.9416 101.425 83.1847L99.8645 82.9631C99.9876 82.5322 100.191 82.1722 100.474 81.8829C100.757 81.5905 101.103 81.372 101.513 81.2273C101.922 81.0796 102.374 81.0057 102.87 81.0057C103.211 81.0057 103.552 81.0457 103.89 81.1258C104.229 81.2058 104.538 81.3381 104.818 81.5228C105.098 81.7044 105.323 81.9521 105.492 82.266C105.664 82.5799 105.751 82.9723 105.751 83.4432V88.189H104.144V87.2149H104.089C103.987 87.4119 103.844 87.5965 103.659 87.7689C103.478 87.9381 103.248 88.0751 102.971 88.1797C102.698 88.2813 102.376 88.3321 102.007 88.3321ZM102.441 87.1041C102.776 87.1041 103.067 87.0379 103.313 86.9056C103.559 86.7702 103.749 86.5917 103.881 86.3701C104.016 86.1485 104.084 85.9069 104.084 85.6453V84.8097C104.032 84.8528 103.942 84.8928 103.816 84.9297C103.693 84.9667 103.555 84.999 103.401 85.0267C103.247 85.0544 103.095 85.079 102.944 85.1005C102.793 85.1221 102.662 85.1406 102.551 85.1559C102.302 85.1898 102.079 85.2452 101.882 85.3221C101.685 85.3991 101.53 85.5068 101.416 85.6453C101.302 85.7807 101.245 85.9561 101.245 86.1716C101.245 86.4793 101.357 86.7117 101.582 86.8687C101.807 87.0256 102.093 87.1041 102.441 87.1041ZM107.431 88.189V81.0981H109.028V82.303H109.111C109.259 81.8967 109.504 81.5797 109.845 81.352C110.187 81.1211 110.595 81.0057 111.069 81.0057C111.549 81.0057 111.954 81.1227 112.283 81.3566C112.615 81.5874 112.849 81.9029 112.985 82.303H113.058C113.215 81.909 113.48 81.5951 113.852 81.3612C114.228 81.1242 114.673 81.0057 115.187 81.0057C115.839 81.0057 116.372 81.2119 116.784 81.6243C117.196 82.0367 117.403 82.6384 117.403 83.4294V88.189H115.727V83.6879C115.727 83.2478 115.61 82.9262 115.376 82.7231C115.142 82.5169 114.856 82.4138 114.517 82.4138C114.114 82.4138 113.799 82.5399 113.571 82.7923C113.346 83.0416 113.234 83.3663 113.234 83.7664V88.189H111.595V83.6187C111.595 83.2524 111.484 82.96 111.263 82.7415C111.044 82.523 110.758 82.4138 110.404 82.4138C110.164 82.4138 109.945 82.4753 109.748 82.5984C109.551 82.7184 109.394 82.8892 109.278 83.1108C109.161 83.3294 109.102 83.5848 109.102 83.8772V88.189H107.431ZM122.237 88.3275C121.526 88.3275 120.912 88.1797 120.395 87.8843C119.881 87.5857 119.486 87.1641 119.209 86.6194C118.932 86.0715 118.793 85.4268 118.793 84.6851C118.793 83.9557 118.932 83.3155 119.209 82.7646C119.489 82.2106 119.88 81.7798 120.381 81.472C120.883 81.1611 121.472 81.0057 122.149 81.0057C122.586 81.0057 122.999 81.0765 123.387 81.2181C123.777 81.3566 124.122 81.572 124.421 81.8644C124.722 82.1568 124.959 82.5292 125.132 82.9816C125.304 83.4309 125.39 83.9664 125.39 84.5881V85.1005H119.578V83.9741H123.788C123.785 83.654 123.716 83.3694 123.581 83.1201C123.445 82.8677 123.256 82.6692 123.013 82.5245C122.773 82.3799 122.493 82.3076 122.172 82.3076C121.831 82.3076 121.531 82.3907 121.272 82.5569C121.014 82.72 120.812 82.9354 120.668 83.2032C120.526 83.4678 120.454 83.7587 120.451 84.0757V85.059C120.451 85.4714 120.526 85.8253 120.677 86.1208C120.828 86.4132 121.038 86.6378 121.309 86.7948C121.58 86.9487 121.897 87.0256 122.26 87.0256C122.503 87.0256 122.723 86.9918 122.92 86.9241C123.117 86.8533 123.288 86.7502 123.433 86.6147C123.577 86.4793 123.687 86.3116 123.761 86.1116L125.321 86.287C125.222 86.6994 125.035 87.0595 124.758 87.3672C124.484 87.6719 124.133 87.9089 123.705 88.0782C123.277 88.2444 122.788 88.3275 122.237 88.3275Z" fill="black"/>
<rect x="42" y="101" width="232" height="8" rx="4" fill="#EBEBEB"/>
<rect x="42" y="117" width="79.5849" height="8.02018" rx="4.01009" fill="#E2E2E2"/>
<rect x="42" y="133" width="8" height="8" rx="4" fill="#E2E2E2"/>
<rect x="266" y="133" width="8" height="8" rx="4" fill="#E2E2E2"/>
<rect x="252" y="133" width="8" height="8" rx="4" fill="#E2E2E2"/>
<rect x="53" y="133" width="32" height="8" rx="4" fill="#E2E2E2"/>
<path d="M28 9C28 5.68629 30.6863 3 34 3H282C285.314 3 288 5.68629 288 9V69H28V9Z" fill="#ECF4FC"/>
<path d="M140 22L193.694 68.5H86.3064L140 22Z" fill="#DAECF9"/>
<path d="M186.5 31L230.234 68.5H142.766L186.5 31Z" fill="#DAECF9"/>
<circle cx="231" cy="23" r="8" fill="#DAECF9"/>
<rect x="39.5723" y="52.7246" width="79.5849" height="13.5513" rx="6.16937" fill="#EBEBEB"/>
<rect x="134.581" y="52.7246" width="79.5849" height="13.5513" rx="6.16937" fill="#E2E2E2"/>
<g filter="url(#filter1_d_1424_38483)">
<rect x="3" y="28" width="260" height="147" rx="6.16937" fill="white"/>
</g>
<path d="M17.5048 113.189V103.734H21.0502C21.7766 103.734 22.3859 103.87 22.8784 104.141C23.3739 104.412 23.7478 104.784 24.0002 105.258C24.2556 105.729 24.3833 106.264 24.3833 106.864C24.3833 107.471 24.2556 108.009 24.0002 108.48C23.7447 108.951 23.3677 109.322 22.8691 109.593C22.3706 109.86 21.7566 109.994 21.0272 109.994H18.6774V108.586H20.7963C21.2211 108.586 21.5688 108.512 21.8397 108.365C22.1105 108.217 22.3105 108.014 22.4398 107.755C22.5721 107.497 22.6383 107.2 22.6383 106.864C22.6383 106.529 22.5721 106.233 22.4398 105.978C22.3105 105.723 22.109 105.524 21.835 105.383C21.5642 105.238 21.2149 105.166 20.7871 105.166H19.2175V113.189H17.5048ZM25.7971 113.189V106.098H27.4175V107.28H27.4914C27.6206 106.871 27.8422 106.555 28.1562 106.333C28.4732 106.109 28.8348 105.996 29.241 105.996C29.3334 105.996 29.4365 106.001 29.5503 106.01C29.6673 106.016 29.7642 106.027 29.8412 106.043V107.58C29.7704 107.555 29.6581 107.534 29.5042 107.515C29.3534 107.494 29.2072 107.483 29.0656 107.483C28.7609 107.483 28.487 107.549 28.2439 107.682C28.0038 107.811 27.8145 107.991 27.676 108.222C27.5376 108.452 27.4683 108.719 27.4683 109.02V113.189H25.7971ZM33.7525 113.327C33.06 113.327 32.4599 113.175 31.9521 112.87C31.4442 112.566 31.0503 112.139 30.7702 111.592C30.4933 111.044 30.3548 110.404 30.3548 109.671C30.3548 108.939 30.4933 108.297 30.7702 107.746C31.0503 107.195 31.4442 106.767 31.9521 106.463C32.4599 106.158 33.06 106.006 33.7525 106.006C34.445 106.006 35.0451 106.158 35.5529 106.463C36.0607 106.767 36.4531 107.195 36.7301 107.746C37.0102 108.297 37.1502 108.939 37.1502 109.671C37.1502 110.404 37.0102 111.044 36.7301 111.592C36.4531 112.139 36.0607 112.566 35.5529 112.87C35.0451 113.175 34.445 113.327 33.7525 113.327ZM33.7617 111.989C34.1372 111.989 34.4511 111.886 34.7035 111.679C34.9558 111.47 35.1436 111.19 35.2667 110.839C35.3929 110.488 35.456 110.097 35.456 109.667C35.456 109.233 35.3929 108.84 35.2667 108.489C35.1436 108.135 34.9558 107.854 34.7035 107.645C34.4511 107.435 34.1372 107.331 33.7617 107.331C33.377 107.331 33.0569 107.435 32.8015 107.645C32.5491 107.854 32.3598 108.135 32.2337 108.489C32.1106 108.84 32.049 109.233 32.049 109.667C32.049 110.097 32.1106 110.488 32.2337 110.839C32.3598 111.19 32.5491 111.47 32.8015 111.679C33.0569 111.886 33.377 111.989 33.7617 111.989ZM38.5686 106.098H40.2398V113.595C40.2398 114.106 40.1428 114.528 39.949 114.86C39.7551 115.193 39.475 115.44 39.1088 115.603C38.7425 115.766 38.2978 115.848 37.7746 115.848C37.713 115.848 37.6561 115.847 37.6038 115.843C37.5515 115.843 37.4945 115.842 37.433 115.839V114.477C37.4791 114.48 37.5207 114.482 37.5576 114.482C37.5945 114.485 37.633 114.486 37.673 114.486C37.9931 114.486 38.2224 114.408 38.3609 114.251C38.4994 114.097 38.5686 113.871 38.5686 113.572V106.098ZM39.3996 105.092C39.1318 105.092 38.9026 105.004 38.7117 104.829C38.524 104.65 38.4301 104.436 38.4301 104.187C38.4301 103.934 38.524 103.721 38.7117 103.545C38.9026 103.367 39.1318 103.277 39.3996 103.277C39.6643 103.277 39.8905 103.367 40.0782 103.545C40.269 103.721 40.3644 103.934 40.3644 104.187C40.3644 104.436 40.269 104.65 40.0782 104.829C39.8905 105.004 39.6643 105.092 39.3996 105.092ZM45.0975 113.327C44.3865 113.327 43.7725 113.18 43.2555 112.884C42.7415 112.586 42.3461 112.164 42.0691 111.619C41.7921 111.072 41.6536 110.427 41.6536 109.685C41.6536 108.956 41.7921 108.316 42.0691 107.765C42.3491 107.211 42.74 106.78 43.2417 106.472C43.7433 106.161 44.3327 106.006 45.0098 106.006C45.4468 106.006 45.8592 106.077 46.247 106.218C46.6378 106.357 46.9825 106.572 47.2811 106.864C47.5827 107.157 47.8197 107.529 47.992 107.982C48.1644 108.431 48.2505 108.966 48.2505 109.588V110.101H42.4384V108.974H46.6486C46.6455 108.654 46.5763 108.369 46.4409 108.12C46.3055 107.868 46.1162 107.669 45.873 107.525C45.633 107.38 45.3529 107.308 45.0328 107.308C44.6912 107.308 44.3912 107.391 44.1326 107.557C43.8741 107.72 43.6725 107.935 43.5279 108.203C43.3863 108.468 43.314 108.759 43.3109 109.076V110.059C43.3109 110.471 43.3863 110.825 43.5371 111.121C43.6879 111.413 43.8987 111.638 44.1696 111.795C44.4404 111.949 44.7574 112.026 45.1206 112.026C45.3637 112.026 45.5837 111.992 45.7807 111.924C45.9777 111.853 46.1485 111.75 46.2931 111.615C46.4378 111.479 46.5471 111.312 46.6209 111.112L48.1813 111.287C48.0828 111.699 47.8951 112.059 47.6181 112.367C47.3442 112.672 46.9933 112.909 46.5655 113.078C46.1377 113.244 45.6484 113.327 45.0975 113.327ZM52.7574 113.327C52.0495 113.327 51.4417 113.172 50.9339 112.861C50.4291 112.55 50.0398 112.121 49.7659 111.573C49.4951 111.022 49.3596 110.388 49.3596 109.671C49.3596 108.951 49.4981 108.316 49.7751 107.765C50.0521 107.211 50.443 106.78 50.9477 106.472C51.4555 106.161 52.0557 106.006 52.7481 106.006C53.3237 106.006 53.833 106.112 54.2762 106.324C54.7224 106.534 55.0779 106.831 55.3426 107.215C55.6073 107.597 55.7581 108.043 55.795 108.554H54.1977C54.1331 108.212 53.9792 107.928 53.7361 107.7C53.496 107.469 53.1744 107.354 52.7712 107.354C52.4296 107.354 52.1295 107.446 51.871 107.631C51.6125 107.812 51.4109 108.074 51.2662 108.416C51.1247 108.757 51.0539 109.166 51.0539 109.644C51.0539 110.127 51.1247 110.542 51.2662 110.89C51.4078 111.235 51.6063 111.501 51.8618 111.689C52.1203 111.873 52.4234 111.966 52.7712 111.966C53.0174 111.966 53.2375 111.919 53.4314 111.827C53.6283 111.732 53.793 111.595 53.9253 111.416C54.0577 111.238 54.1485 111.021 54.1977 110.765H55.795C55.755 111.267 55.6073 111.712 55.3518 112.099C55.0964 112.484 54.7486 112.786 54.3085 113.004C53.8684 113.22 53.3514 113.327 52.7574 113.327ZM60.7081 106.098V107.391H56.6317V106.098H60.7081ZM57.6381 104.399H59.3093V111.056C59.3093 111.281 59.3432 111.453 59.4109 111.573C59.4817 111.69 59.574 111.77 59.6879 111.813C59.8017 111.856 59.9279 111.878 60.0664 111.878C60.171 111.878 60.2665 111.87 60.3526 111.855C60.4419 111.839 60.5096 111.826 60.5558 111.813L60.8374 113.12C60.7481 113.15 60.6204 113.184 60.4542 113.221C60.2911 113.258 60.091 113.28 59.854 113.286C59.4355 113.298 59.0585 113.235 58.723 113.097C58.3875 112.955 58.1213 112.737 57.9244 112.441C57.7305 112.146 57.6351 111.776 57.6381 111.333V104.399ZM73.1737 103.734V113.189H71.6503L67.1954 106.749H67.1169V113.189H65.4042V103.734H66.9369L71.3872 110.179H71.4703V103.734H73.1737ZM77.0066 113.332C76.5572 113.332 76.1525 113.252 75.7924 113.092C75.4354 112.929 75.1523 112.689 74.943 112.372C74.7368 112.055 74.6337 111.664 74.6337 111.199C74.6337 110.799 74.7076 110.468 74.8553 110.207C75.003 109.945 75.2046 109.736 75.46 109.579C75.7155 109.422 76.0033 109.303 76.3233 109.223C76.6465 109.14 76.9804 109.08 77.3251 109.043C77.7406 109 78.0776 108.962 78.3361 108.928C78.5946 108.891 78.7824 108.836 78.8993 108.762C79.0194 108.685 79.0794 108.566 79.0794 108.406V108.379C79.0794 108.031 78.9763 107.762 78.7701 107.571C78.5639 107.38 78.2669 107.284 77.8791 107.284C77.4698 107.284 77.1451 107.374 76.905 107.552C76.668 107.731 76.508 107.942 76.4249 108.185L74.8645 107.963C74.9876 107.532 75.1908 107.172 75.4739 106.883C75.757 106.59 76.1033 106.372 76.5126 106.227C76.9219 106.08 77.3743 106.006 77.8699 106.006C78.2115 106.006 78.5516 106.046 78.8901 106.126C79.2286 106.206 79.5379 106.338 79.818 106.523C80.0981 106.704 80.3227 106.952 80.492 107.266C80.6644 107.58 80.7505 107.972 80.7505 108.443V113.189H79.144V112.215H79.0886C78.987 112.412 78.8439 112.597 78.6593 112.769C78.4777 112.938 78.2484 113.075 77.9714 113.18C77.6975 113.281 77.3759 113.332 77.0066 113.332ZM77.4405 112.104C77.776 112.104 78.0668 112.038 78.313 111.906C78.5592 111.77 78.7485 111.592 78.8809 111.37C79.0163 111.148 79.084 110.907 79.084 110.645V109.81C79.0317 109.853 78.9424 109.893 78.8162 109.93C78.6931 109.967 78.5546 109.999 78.4007 110.027C78.2469 110.054 78.0945 110.079 77.9437 110.101C77.7929 110.122 77.6621 110.141 77.5513 110.156C77.302 110.19 77.0789 110.245 76.8819 110.322C76.685 110.399 76.5295 110.507 76.4157 110.645C76.3018 110.781 76.2449 110.956 76.2449 111.172C76.2449 111.479 76.3572 111.712 76.5819 111.869C76.8065 112.026 77.0927 112.104 77.4405 112.104ZM82.4309 113.189V106.098H84.0282V107.303H84.1113C84.2591 106.897 84.5037 106.58 84.8453 106.352C85.187 106.121 85.5948 106.006 86.0687 106.006C86.5488 106.006 86.9535 106.123 87.2828 106.357C87.6152 106.587 87.8491 106.903 87.9846 107.303H88.0584C88.2154 106.909 88.4801 106.595 88.8525 106.361C89.2279 106.124 89.6726 106.006 90.1866 106.006C90.8391 106.006 91.3715 106.212 91.7839 106.624C92.1963 107.037 92.4025 107.638 92.4025 108.429V113.189H90.7267V108.688C90.7267 108.248 90.6098 107.926 90.3759 107.723C90.142 107.517 89.8558 107.414 89.5172 107.414C89.1141 107.414 88.7986 107.54 88.5708 107.792C88.3462 108.042 88.2338 108.366 88.2338 108.766V113.189H86.595V108.619C86.595 108.252 86.4842 107.96 86.2626 107.742C86.0441 107.523 85.7579 107.414 85.4039 107.414C85.1639 107.414 84.9454 107.475 84.7484 107.598C84.5514 107.718 84.3945 107.889 84.2775 108.111C84.1606 108.329 84.1021 108.585 84.1021 108.877V113.189H82.4309ZM97.2371 113.327C96.5262 113.327 95.9122 113.18 95.3952 112.884C94.8812 112.586 94.4857 112.164 94.2087 111.619C93.9317 111.072 93.7932 110.427 93.7932 109.685C93.7932 108.956 93.9317 108.316 94.2087 107.765C94.4888 107.211 94.8796 106.78 95.3813 106.472C95.883 106.161 96.4723 106.006 97.1494 106.006C97.5864 106.006 97.9988 106.077 98.3866 106.218C98.7775 106.357 99.1222 106.572 99.4207 106.864C99.7223 107.157 99.9593 107.529 100.132 107.982C100.304 108.431 100.39 108.966 100.39 109.588V110.101H94.578V108.974H98.7883C98.7852 108.654 98.7159 108.369 98.5805 108.12C98.4451 107.868 98.2558 107.669 98.0127 107.525C97.7726 107.38 97.4926 107.308 97.1725 107.308C96.8309 107.308 96.5308 107.391 96.2723 107.557C96.0138 107.72 95.8122 107.935 95.6675 108.203C95.526 108.468 95.4536 108.759 95.4506 109.076V110.059C95.4506 110.471 95.526 110.825 95.6768 111.121C95.8276 111.413 96.0384 111.638 96.3092 111.795C96.58 111.949 96.897 112.026 97.2602 112.026C97.5033 112.026 97.7234 111.992 97.9204 111.924C98.1173 111.853 98.2881 111.75 98.4328 111.615C98.5774 111.479 98.6867 111.312 98.7606 111.112L100.321 111.287C100.222 111.699 100.035 112.059 99.7577 112.367C99.4838 112.672 99.133 112.909 98.7052 113.078C98.2774 113.244 97.788 113.327 97.2371 113.327Z" fill="black"/>
<rect x="17" y="126" width="232" height="8" rx="4" fill="#EBEBEB"/>
<rect x="17" y="142" width="79.5849" height="8.02018" rx="4.01009" fill="#E2E2E2"/>
<rect x="17" y="158" width="8" height="8" rx="4" fill="#E2E2E2"/>
<rect x="241" y="158" width="8" height="8" rx="4" fill="#E2E2E2"/>
<rect x="227" y="158" width="8" height="8" rx="4" fill="#E2E2E2"/>
<rect x="28" y="158" width="32" height="8" rx="4" fill="#E2E2E2"/>
<path d="M3 34C3 30.6863 5.68629 28 9 28H257C260.314 28 263 30.6863 263 34V94H3V34Z" fill="#ECF4FC"/>
<path d="M115 47L168.694 93.5H61.3064L115 47Z" fill="#DAECF9"/>
<path d="M161.5 56L205.234 93.5H117.766L161.5 56Z" fill="#DAECF9"/>
<circle cx="206" cy="48" r="8" fill="#DAECF9"/>
<defs>
<filter id="filter0_d_1424_38483" x="25.5323" y="0.532252" width="264.935" height="151.935" filterUnits="userSpaceOnUse" color-interpolation-filters="sRGB">
<feFlood flood-opacity="0" result="BackgroundImageFix"/>
<feColorMatrix in="SourceAlpha" type="matrix" values="0 0 0 0 0 0 0 0 0 0 0 0 0 0 0 0 0 0 127 0" result="hardAlpha"/>
<feOffset/>
<feGaussianBlur stdDeviation="1.23387"/>
<feComposite in2="hardAlpha" operator="out"/>
<feColorMatrix type="matrix" values="0 0 0 0 0 0 0 0 0 0 0 0 0 0 0 0 0 0 0.2 0"/>
<feBlend mode="normal" in2="BackgroundImageFix" result="effect1_dropShadow_1424_38483"/>
<feBlend mode="normal" in="SourceGraphic" in2="effect1_dropShadow_1424_38483" result="shape"/>
</filter>
<filter id="filter1_d_1424_38483" x="0.532252" y="25.5323" width="264.935" height="151.935" filterUnits="userSpaceOnUse" color-interpolation-filters="sRGB">
<feFlood flood-opacity="0" result="BackgroundImageFix"/>
<feColorMatrix in="SourceAlpha" type="matrix" values="0 0 0 0 0 0 0 0 0 0 0 0 0 0 0 0 0 0 127 0" result="hardAlpha"/>
<feOffset/>
<feGaussianBlur stdDeviation="1.23387"/>
<feComposite in2="hardAlpha" operator="out"/>
<feColorMatrix type="matrix" values="0 0 0 0 0 0 0 0 0 0 0 0 0 0 0 0 0 0 0.2 0"/>
<feBlend mode="normal" in2="BackgroundImageFix" result="effect1_dropShadow_1424_38483"/>
<feBlend mode="normal" in="SourceGraphic" in2="effect1_dropShadow_1424_38483" result="shape"/>
</filter>
</defs>
</svg>
