<svg width="289" height="116" viewBox="0 0 289 116" fill="none" xmlns="http://www.w3.org/2000/svg">
<g filter="url(#filter0_d_2094_49731)">
<rect x="26" y="3" width="260" height="87" rx="6.16937" fill="white"/>
</g>
<path d="M26 63H285.731V83.3589C285.731 86.7662 282.968 89.5283 279.561 89.5283H32.1694C28.7621 89.5283 26 86.7662 26 83.3589V63Z" fill="#FAFAFA"/>
<path d="M26 63H285.731" stroke="#E2E2E2" stroke-width="0.616937"/>
<path d="M45.6429 21.334C45.5998 20.9308 45.4183 20.6169 45.0982 20.3922C44.7812 20.1676 44.3688 20.0552 43.861 20.0552C43.504 20.0552 43.1977 20.1091 42.9423 20.2168C42.6868 20.3245 42.4914 20.4707 42.356 20.6554C42.2206 20.84 42.1513 21.0508 42.1483 21.2878C42.1483 21.4848 42.1929 21.6556 42.2821 21.8002C42.3745 21.9449 42.4991 22.068 42.6561 22.1696C42.813 22.2681 42.9869 22.3511 43.1777 22.4189C43.3685 22.4866 43.5609 22.5435 43.7548 22.5897L44.6412 22.8113C44.9982 22.8944 45.3413 23.0067 45.6706 23.1483C46.003 23.2898 46.3 23.4683 46.5616 23.6838C46.8263 23.8992 47.0356 24.1593 47.1895 24.464C47.3433 24.7686 47.4203 25.1257 47.4203 25.535C47.4203 26.089 47.2787 26.5768 46.9956 26.9984C46.7124 27.417 46.3031 27.7447 45.7676 27.9817C45.2351 28.2156 44.5904 28.3326 43.8333 28.3326C43.0977 28.3326 42.4591 28.2187 41.9174 27.9909C41.3788 27.7632 40.9572 27.4308 40.6525 26.9938C40.3509 26.5568 40.1878 26.0243 40.1632 25.3965H41.8482C41.8728 25.7258 41.9744 25.9997 42.1529 26.2182C42.3314 26.4367 42.5637 26.5998 42.85 26.7076C43.1393 26.8153 43.4624 26.8691 43.8194 26.8691C44.1918 26.8691 44.5181 26.8137 44.7981 26.7029C45.0813 26.5891 45.3029 26.4321 45.4629 26.2321C45.6229 26.0289 45.7045 25.792 45.7076 25.5211C45.7045 25.2749 45.6322 25.0718 45.4906 24.9118C45.349 24.7486 45.1505 24.6132 44.8951 24.5055C44.6427 24.3947 44.3472 24.2962 44.0087 24.21L42.9331 23.9331C42.1544 23.733 41.5389 23.4299 41.0865 23.0236C40.6371 22.6143 40.4125 22.0711 40.4125 21.394C40.4125 20.8369 40.5633 20.3491 40.8649 19.9306C41.1696 19.512 41.5835 19.1873 42.1067 18.9565C42.6299 18.7226 43.2224 18.6056 43.8841 18.6056C44.555 18.6056 45.1428 18.7226 45.6475 18.9565C46.1554 19.1873 46.5539 19.5089 46.8432 19.9213C47.1325 20.3307 47.2818 20.8016 47.291 21.334H45.6429ZM50.5445 18.7349V28.1895H48.8733V18.7349H50.5445ZM54.3034 28.3326C53.8541 28.3326 53.4494 28.2525 53.0893 28.0925C52.7323 27.9294 52.4492 27.6893 52.2399 27.3723C52.0337 27.0553 51.9306 26.6645 51.9306 26.1998C51.9306 25.7997 52.0044 25.4688 52.1522 25.2072C52.2999 24.9456 52.5015 24.7363 52.7569 24.5794C53.0124 24.4224 53.3001 24.3039 53.6202 24.2239C53.9434 24.1408 54.2773 24.0808 54.622 24.0439C55.0375 24.0008 55.3745 23.9623 55.633 23.9284C55.8915 23.8915 56.0792 23.8361 56.1962 23.7623C56.3162 23.6853 56.3762 23.5668 56.3762 23.4068V23.3791C56.3762 23.0313 56.2731 22.762 56.0669 22.5712C55.8607 22.3804 55.5637 22.285 55.176 22.285C54.7666 22.285 54.4419 22.3742 54.2019 22.5527C53.9649 22.7312 53.8049 22.9421 53.7218 23.1852L52.1614 22.9636C52.2845 22.5327 52.4876 22.1726 52.7708 21.8833C53.0539 21.591 53.4002 21.3725 53.8095 21.2278C54.2188 21.0801 54.6712 21.0062 55.1667 21.0062C55.5083 21.0062 55.8484 21.0462 56.187 21.1262C56.5255 21.2063 56.8348 21.3386 57.1149 21.5233C57.3949 21.7048 57.6196 21.9526 57.7889 22.2665C57.9612 22.5804 58.0474 22.9728 58.0474 23.4437V28.1895H56.4409V27.2154H56.3855C56.2839 27.4123 56.1408 27.597 55.9561 27.7694C55.7746 27.9386 55.5453 28.0756 55.2683 28.1802C54.9944 28.2818 54.6728 28.3326 54.3034 28.3326ZM54.7374 27.1046C55.0729 27.1046 55.3637 27.0384 55.6099 26.9061C55.8561 26.7707 56.0454 26.5922 56.1777 26.3706C56.3132 26.149 56.3809 25.9074 56.3809 25.6458V24.8102C56.3285 24.8533 56.2393 24.8933 56.1131 24.9302C55.99 24.9672 55.8515 24.9995 55.6976 25.0272C55.5437 25.0549 55.3914 25.0795 55.2406 25.101C55.0898 25.1226 54.959 25.141 54.8482 25.1564C54.5989 25.1903 54.3758 25.2457 54.1788 25.3226C53.9818 25.3996 53.8264 25.5073 53.7125 25.6458C53.5987 25.7812 53.5417 25.9566 53.5417 26.1721C53.5417 26.4798 53.6541 26.7122 53.8787 26.8691C54.1034 27.0261 54.3896 27.1046 54.7374 27.1046ZM62.8208 28.3279C62.113 28.3279 61.5051 28.1725 60.9973 27.8617C60.4926 27.5508 60.1033 27.1215 59.8294 26.5737C59.5585 26.0228 59.4231 25.3888 59.4231 24.6717C59.4231 23.9515 59.5616 23.316 59.8386 22.7651C60.1156 22.2111 60.5065 21.7802 61.0112 21.4725C61.519 21.1616 62.1191 21.0062 62.8116 21.0062C63.3871 21.0062 63.8965 21.1124 64.3397 21.3248C64.7859 21.534 65.1414 21.831 65.4061 22.2157C65.6708 22.5974 65.8216 23.0436 65.8585 23.5545H64.2612C64.1966 23.2129 64.0427 22.9282 63.7995 22.7005C63.5595 22.4696 63.2379 22.3542 62.8347 22.3542C62.4931 22.3542 62.193 22.4466 61.9345 22.6312C61.676 22.8128 61.4744 23.0744 61.3297 23.416C61.1882 23.7576 61.1174 24.167 61.1174 24.644C61.1174 25.1272 61.1882 25.5427 61.3297 25.8904C61.4713 26.2351 61.6698 26.5014 61.9252 26.6891C62.1838 26.8738 62.4869 26.9661 62.8347 26.9661C63.0809 26.9661 63.301 26.9199 63.4949 26.8276C63.6918 26.7322 63.8565 26.5952 63.9888 26.4167C64.1212 26.2382 64.2119 26.0212 64.2612 25.7658H65.8585C65.8185 26.2675 65.6708 26.7122 65.4153 27.1C65.1599 27.4847 64.8121 27.7863 64.372 28.0048C63.9319 28.2202 63.4148 28.3279 62.8208 28.3279ZM68.7542 25.9643L68.7496 23.9469H69.0173L71.5656 21.0985H73.5184L70.3838 24.5886H70.0376L68.7542 25.9643ZM67.2307 28.1895V18.7349H68.9019V28.1895H67.2307ZM71.681 28.1895L69.3728 24.9625L70.4992 23.7853L73.68 28.1895H71.681ZM79.6433 18.7349V28.1895H77.9306V18.7349H79.6433ZM83.0953 24.0346V28.1895H81.4241V21.0985H83.0214V22.3034H83.1045C83.2676 21.9064 83.5277 21.591 83.8847 21.3571C84.2448 21.1232 84.6895 21.0062 85.2188 21.0062C85.7082 21.0062 86.1344 21.1109 86.4976 21.3201C86.8638 21.5294 87.147 21.8326 87.347 22.2296C87.5502 22.6266 87.6502 23.1083 87.6471 23.6745V28.1895H85.9759V23.9331C85.9759 23.4591 85.8528 23.0882 85.6066 22.8205C85.3635 22.5527 85.0265 22.4189 84.5956 22.4189C84.3032 22.4189 84.0432 22.4835 83.8154 22.6127C83.5908 22.7389 83.4138 22.9221 83.2845 23.1621C83.1584 23.4022 83.0953 23.693 83.0953 24.0346ZM92.8868 21.0985V22.3912H88.8105V21.0985H92.8868ZM89.8169 19.3997H91.488V26.0566C91.488 26.2813 91.5219 26.4537 91.5896 26.5737C91.6604 26.6906 91.7527 26.7707 91.8666 26.8137C91.9804 26.8568 92.1066 26.8784 92.2451 26.8784C92.3498 26.8784 92.4452 26.8707 92.5313 26.8553C92.6206 26.8399 92.6883 26.8261 92.7345 26.8137L93.0161 28.1202C92.9268 28.151 92.7991 28.1848 92.6329 28.2218C92.4698 28.2587 92.2697 28.2802 92.0328 28.2864C91.6142 28.2987 91.2372 28.2356 90.9017 28.0971C90.5663 27.9556 90.3 27.737 90.1031 27.4416C89.9092 27.1461 89.8138 26.7768 89.8169 26.3336V19.3997ZM97.3475 28.3279C96.6365 28.3279 96.0225 28.1802 95.5055 27.8848C94.9915 27.5862 94.5961 27.1646 94.3191 26.6199C94.0421 26.072 93.9036 25.4273 93.9036 24.6855C93.9036 23.9561 94.0421 23.316 94.3191 22.7651C94.5991 22.2111 94.99 21.7802 95.4917 21.4725C95.9933 21.1616 96.5827 21.0062 97.2598 21.0062C97.6968 21.0062 98.1092 21.077 98.497 21.2186C98.8878 21.3571 99.2325 21.5725 99.5311 21.8649C99.8327 22.1573 100.07 22.5297 100.242 22.9821C100.414 23.4314 100.501 23.9669 100.501 24.5886V25.101H94.6884V23.9746H98.8986C98.8955 23.6545 98.8263 23.3699 98.6909 23.1206C98.5555 22.8682 98.3662 22.6697 98.123 22.525C97.883 22.3804 97.6029 22.3081 97.2828 22.3081C96.9412 22.3081 96.6412 22.3912 96.3826 22.5574C96.1241 22.7205 95.9225 22.9359 95.7779 23.2037C95.6363 23.4683 95.564 23.7592 95.5609 24.0762V25.0595C95.5609 25.4719 95.6363 25.8258 95.7871 26.1213C95.9379 26.4136 96.1487 26.6383 96.4196 26.7953C96.6904 26.9492 97.0074 27.0261 97.3706 27.0261C97.6137 27.0261 97.8337 26.9922 98.0307 26.9245C98.2277 26.8538 98.3985 26.7507 98.5431 26.6152C98.6878 26.4798 98.7971 26.3121 98.8709 26.112L100.431 26.2875C100.333 26.6999 100.145 27.06 99.8681 27.3677C99.5942 27.6724 99.2433 27.9094 98.8155 28.0787C98.3877 28.2449 97.8984 28.3279 97.3475 28.3279ZM104.998 30.9963C104.398 30.9963 103.882 30.9147 103.452 30.7516C103.021 30.5916 102.675 30.3761 102.413 30.1053C102.151 29.8345 101.97 29.5344 101.868 29.2051L103.373 28.8404C103.441 28.9789 103.539 29.1158 103.669 29.2512C103.798 29.3897 103.972 29.5036 104.19 29.5929C104.412 29.6852 104.69 29.7314 105.026 29.7314C105.5 29.7314 105.892 29.6159 106.203 29.3851C106.514 29.1574 106.669 28.7819 106.669 28.2587V26.9153H106.586C106.5 27.0877 106.374 27.2646 106.208 27.4462C106.045 27.6278 105.828 27.7801 105.557 27.9032C105.289 28.0263 104.952 28.0879 104.546 28.0879C104.001 28.0879 103.507 27.9602 103.064 27.7047C102.624 27.4462 102.273 27.0615 102.011 26.5506C101.753 26.0366 101.623 25.3934 101.623 24.6209C101.623 23.8423 101.753 23.1852 102.011 22.6497C102.273 22.1111 102.625 21.7033 103.068 21.4263C103.512 21.1462 104.006 21.0062 104.55 21.0062C104.966 21.0062 105.307 21.077 105.575 21.2186C105.846 21.3571 106.061 21.5248 106.222 21.7218C106.382 21.9157 106.503 22.0988 106.586 22.2711H106.679V21.0985H108.327V28.3049C108.327 28.9112 108.182 29.4128 107.893 29.8098C107.603 30.2069 107.208 30.5038 106.706 30.7008C106.205 30.8978 105.635 30.9963 104.998 30.9963ZM105.012 26.7768C105.366 26.7768 105.668 26.6906 105.917 26.5183C106.166 26.3459 106.355 26.0982 106.485 25.775C106.614 25.4519 106.679 25.0641 106.679 24.6117C106.679 24.1654 106.614 23.7746 106.485 23.4391C106.358 23.1036 106.171 22.8436 105.921 22.6589C105.675 22.4712 105.372 22.3773 105.012 22.3773C104.64 22.3773 104.329 22.4743 104.079 22.6681C103.83 22.862 103.642 23.1283 103.516 23.4668C103.39 23.8023 103.327 24.1839 103.327 24.6117C103.327 25.0456 103.39 25.4257 103.516 25.752C103.646 26.0751 103.835 26.3275 104.084 26.5091C104.336 26.6876 104.646 26.7768 105.012 26.7768ZM110.039 28.1895V21.0985H111.66V22.2804H111.734C111.863 21.871 112.084 21.5556 112.398 21.334C112.715 21.1093 113.077 20.997 113.483 20.997C113.576 20.997 113.679 21.0016 113.793 21.0108C113.909 21.017 114.006 21.0278 114.083 21.0431V22.5804C114.013 22.5558 113.9 22.5343 113.746 22.5158C113.596 22.4943 113.449 22.4835 113.308 22.4835C113.003 22.4835 112.729 22.5497 112.486 22.682C112.246 22.8113 112.057 22.9913 111.918 23.2221C111.78 23.4529 111.71 23.7192 111.71 24.0208V28.1895H110.039ZM117.107 28.3326C116.658 28.3326 116.253 28.2525 115.893 28.0925C115.536 27.9294 115.253 27.6893 115.044 27.3723C114.837 27.0553 114.734 26.6645 114.734 26.1998C114.734 25.7997 114.808 25.4688 114.956 25.2072C115.104 24.9456 115.305 24.7363 115.561 24.5794C115.816 24.4224 116.104 24.3039 116.424 24.2239C116.747 24.1408 117.081 24.0808 117.426 24.0439C117.841 24.0008 118.178 23.9623 118.437 23.9284C118.695 23.8915 118.883 23.8361 119 23.7623C119.12 23.6853 119.18 23.5668 119.18 23.4068V23.3791C119.18 23.0313 119.077 22.762 118.871 22.5712C118.664 22.3804 118.367 22.285 117.98 22.285C117.57 22.285 117.246 22.3742 117.006 22.5527C116.769 22.7312 116.609 22.9421 116.525 23.1852L114.965 22.9636C115.088 22.5327 115.291 22.1726 115.574 21.8833C115.858 21.591 116.204 21.3725 116.613 21.2278C117.023 21.0801 117.475 21.0062 117.97 21.0062C118.312 21.0062 118.652 21.0462 118.991 21.1262C119.329 21.2063 119.639 21.3386 119.919 21.5233C120.199 21.7048 120.423 21.9526 120.593 22.2665C120.765 22.5804 120.851 22.9728 120.851 23.4437V28.1895H119.245V27.2154H119.189C119.088 27.4123 118.945 27.597 118.76 27.7694C118.578 27.9386 118.349 28.0756 118.072 28.1802C117.798 28.2818 117.476 28.3326 117.107 28.3326ZM117.541 27.1046C117.877 27.1046 118.167 27.0384 118.414 26.9061C118.66 26.7707 118.849 26.5922 118.981 26.3706C119.117 26.149 119.185 25.9074 119.185 25.6458V24.8102C119.132 24.8533 119.043 24.8933 118.917 24.9302C118.794 24.9672 118.655 24.9995 118.501 25.0272C118.347 25.0549 118.195 25.0795 118.044 25.101C117.893 25.1226 117.763 25.141 117.652 25.1564C117.403 25.1903 117.179 25.2457 116.983 25.3226C116.786 25.3996 116.63 25.5073 116.516 25.6458C116.402 25.7812 116.345 25.9566 116.345 26.1721C116.345 26.4798 116.458 26.7122 116.682 26.8691C116.907 27.0261 117.193 27.1046 117.541 27.1046ZM126.072 21.0985V22.3912H121.996V21.0985H126.072ZM123.002 19.3997H124.674V26.0566C124.674 26.2813 124.707 26.4537 124.775 26.5737C124.846 26.6906 124.938 26.7707 125.052 26.8137C125.166 26.8568 125.292 26.8784 125.431 26.8784C125.535 26.8784 125.631 26.8707 125.717 26.8553C125.806 26.8399 125.874 26.8261 125.92 26.8137L126.202 28.1202C126.112 28.151 125.985 28.1848 125.818 28.2218C125.655 28.2587 125.455 28.2802 125.218 28.2864C124.8 28.2987 124.423 28.2356 124.087 28.0971C123.752 27.9556 123.486 27.737 123.289 27.4416C123.095 27.1461 122.999 26.7768 123.002 26.3336V19.3997ZM127.47 28.1895V21.0985H129.141V28.1895H127.47ZM128.31 20.0922C128.046 20.0922 127.818 20.0044 127.627 19.829C127.436 19.6505 127.341 19.4366 127.341 19.1873C127.341 18.935 127.436 18.7211 127.627 18.5456C127.818 18.3671 128.046 18.2779 128.31 18.2779C128.578 18.2779 128.806 18.3671 128.993 18.5456C129.184 18.7211 129.28 18.935 129.28 19.1873C129.28 19.4366 129.184 19.6505 128.993 19.829C128.806 20.0044 128.578 20.0922 128.31 20.0922ZM133.953 28.3279C133.26 28.3279 132.66 28.1756 132.152 27.8709C131.644 27.5662 131.251 27.14 130.97 26.5922C130.693 26.0443 130.555 25.4042 130.555 24.6717C130.555 23.9392 130.693 23.2975 130.97 22.7466C131.251 22.1957 131.644 21.7679 132.152 21.4632C132.66 21.1586 133.26 21.0062 133.953 21.0062C134.645 21.0062 135.245 21.1586 135.753 21.4632C136.261 21.7679 136.653 22.1957 136.93 22.7466C137.21 23.2975 137.35 23.9392 137.35 24.6717C137.35 25.4042 137.21 26.0443 136.93 26.5922C136.653 27.14 136.261 27.5662 135.753 27.8709C135.245 28.1756 134.645 28.3279 133.953 28.3279ZM133.962 26.9892C134.337 26.9892 134.651 26.8861 134.904 26.6799C135.156 26.4706 135.344 26.1905 135.467 25.8397C135.593 25.4888 135.656 25.098 135.656 24.6671C135.656 24.2331 135.593 23.8407 135.467 23.4899C135.344 23.1359 135.156 22.8543 134.904 22.6451C134.651 22.4358 134.337 22.3311 133.962 22.3311C133.577 22.3311 133.257 22.4358 133.002 22.6451C132.749 22.8543 132.56 23.1359 132.434 23.4899C132.311 23.8407 132.249 24.2331 132.249 24.6671C132.249 25.098 132.311 25.4888 132.434 25.8397C132.56 26.1905 132.749 26.4706 133.002 26.6799C133.257 26.8861 133.577 26.9892 133.962 26.9892ZM140.44 24.0346V28.1895H138.769V21.0985H140.366V22.3034H140.449C140.612 21.9064 140.872 21.591 141.229 21.3571C141.589 21.1232 142.034 21.0062 142.564 21.0062C143.053 21.0062 143.479 21.1109 143.842 21.3201C144.209 21.5294 144.492 21.8326 144.692 22.2296C144.895 22.6266 144.995 23.1083 144.992 23.6745V28.1895H143.321V23.9331C143.321 23.4591 143.198 23.0882 142.951 22.8205C142.708 22.5527 142.371 22.4189 141.94 22.4189C141.648 22.4189 141.388 22.4835 141.16 22.6127C140.935 22.7389 140.759 22.9221 140.629 23.1621C140.503 23.4022 140.44 23.693 140.44 24.0346ZM152.295 22.9728L150.772 23.139C150.729 22.9851 150.653 22.8405 150.545 22.7051C150.441 22.5697 150.299 22.4604 150.121 22.3773C149.942 22.2942 149.724 22.2527 149.465 22.2527C149.117 22.2527 148.825 22.3281 148.588 22.4789C148.354 22.6297 148.239 22.8251 148.242 23.0652C148.239 23.2714 148.314 23.4391 148.468 23.5684C148.625 23.6976 148.884 23.8038 149.244 23.8869L150.453 24.1454C151.124 24.2901 151.623 24.5194 151.949 24.8333C152.278 25.1472 152.444 25.5581 152.447 26.0659C152.444 26.5121 152.314 26.9061 152.055 27.2477C151.8 27.5862 151.444 27.8509 150.989 28.0417C150.533 28.2325 150.01 28.3279 149.419 28.3279C148.551 28.3279 147.853 28.1464 147.323 27.7832C146.794 27.417 146.478 26.9076 146.377 26.2551L148.006 26.0982C148.08 26.4183 148.237 26.6599 148.477 26.823C148.717 26.9861 149.03 27.0676 149.414 27.0676C149.811 27.0676 150.13 26.9861 150.37 26.823C150.613 26.6599 150.735 26.4583 150.735 26.2182C150.735 26.0151 150.656 25.8474 150.499 25.715C150.345 25.5827 150.105 25.4811 149.779 25.4103L148.57 25.1564C147.889 25.0149 147.386 24.7763 147.06 24.4409C146.734 24.1023 146.572 23.6745 146.575 23.1575C146.572 22.7205 146.691 22.3419 146.931 22.0218C147.174 21.6987 147.511 21.4494 147.942 21.274C148.376 21.0955 148.876 21.0062 149.442 21.0062C150.273 21.0062 150.927 21.1832 151.404 21.5371C151.884 21.891 152.181 22.3696 152.295 22.9728Z" fill="black"/>
<path d="M39.5732 76.5747C39.5732 75.8932 40.1257 75.3408 40.8071 75.3408H82.8896V77.8086H40.8071C40.1257 77.8086 39.5732 77.2561 39.5732 76.5747V76.5747Z" fill="#DEE2E6"/>
<rect x="84.4092" y="75.3408" width="29.6375" height="2.46775" fill="#26B5CE"/>
<rect x="115.566" y="75.3408" width="61.5548" height="2.46775" fill="#F7AE59"/>
<rect x="178.641" y="75.3408" width="33.4372" height="2.46775" fill="#D687FF"/>
<path d="M213.6 75.3408H267.841C268.522 75.3408 269.075 75.8932 269.075 76.5747V76.5747C269.075 77.2561 268.522 77.8086 267.841 77.8086H213.6V75.3408Z" fill="#09A953"/>
<rect x="39.5723" y="40.6328" width="79.5849" height="8.02018" rx="4.01009" fill="#EBEBEB"/>
<rect x="134.581" y="40.6328" width="79.5849" height="8.02018" rx="4.01009" fill="#E2E2E2"/>
<g filter="url(#filter1_d_2094_49731)">
<rect x="3" y="26" width="260" height="87" rx="6.16937" fill="white"/>
</g>
<path d="M3 86H262.731V106.359C262.731 109.766 259.968 112.528 256.561 112.528H9.16936C5.76211 112.528 3 109.766 3 106.359V86Z" fill="#FAFAFA"/>
<path d="M3 86H262.731" stroke="#E2E2E2" stroke-width="0.616937"/>
<path d="M23.8386 44.7541C23.7617 44.5048 23.6555 44.2817 23.5201 44.0847C23.3877 43.8846 23.2277 43.7138 23.04 43.5723C22.8553 43.4307 22.6429 43.3245 22.4029 43.2537C22.1628 43.1799 21.9012 43.1429 21.6181 43.1429C21.1103 43.1429 20.6578 43.2707 20.2608 43.5261C19.8638 43.7815 19.5514 44.157 19.3237 44.6525C19.099 45.1449 18.9867 45.7451 18.9867 46.4529C18.9867 47.167 19.099 47.7717 19.3237 48.2672C19.5484 48.7627 19.8607 49.1397 20.2608 49.3983C20.6609 49.6537 21.1257 49.7814 21.655 49.7814C22.1351 49.7814 22.5506 49.6891 22.9015 49.5044C23.2554 49.3198 23.5278 49.0582 23.7186 48.7196C23.9094 48.378 24.0048 47.9779 24.0048 47.5194L24.3926 47.5794H21.8258V46.2406H25.6621V47.3762C25.6621 48.1857 25.4898 48.8858 25.1451 49.4767C24.8004 50.0676 24.3264 50.5231 23.7232 50.8432C23.12 51.1602 22.4275 51.3187 21.6458 51.3187C20.7748 51.3187 20.01 51.1233 19.3514 50.7324C18.6958 50.3385 18.1834 49.7799 17.8141 49.0566C17.4479 48.3303 17.2647 47.4686 17.2647 46.4714C17.2647 45.7082 17.3725 45.0265 17.5879 44.4263C17.8064 43.8262 18.1111 43.3168 18.502 42.8983C18.8928 42.4766 19.3514 42.1565 19.8777 41.938C20.4039 41.7164 20.9764 41.6056 21.595 41.6056C22.1182 41.6056 22.606 41.6826 23.0584 41.8365C23.5108 41.9873 23.9125 42.2027 24.2633 42.4828C24.6172 42.7628 24.9081 43.0952 25.1358 43.4799C25.3636 43.8646 25.5128 44.2894 25.5836 44.7541H23.8386ZM27.6887 51.1895V44.0985H29.3599V51.1895H27.6887ZM28.5289 43.0922C28.2643 43.0922 28.0365 43.0044 27.8457 42.829C27.6549 42.6505 27.5595 42.4366 27.5595 42.1873C27.5595 41.935 27.6549 41.7211 27.8457 41.5456C28.0365 41.3671 28.2643 41.2779 28.5289 41.2779C28.7967 41.2779 29.0244 41.3671 29.2122 41.5456C29.403 41.7211 29.4984 41.935 29.4984 42.1873C29.4984 42.4366 29.403 42.6505 29.2122 42.829C29.0244 43.0044 28.7967 43.0922 28.5289 43.0922ZM34.6192 44.0985V45.3912H30.5429V44.0985H34.6192ZM31.5493 42.3997H33.2204V49.0566C33.2204 49.2813 33.2543 49.4537 33.322 49.5737C33.3928 49.6906 33.4851 49.7707 33.599 49.8137C33.7129 49.8568 33.839 49.8784 33.9775 49.8784C34.0822 49.8784 34.1776 49.8707 34.2638 49.8553C34.353 49.8399 34.4207 49.8261 34.4669 49.8137L34.7485 51.1202C34.6592 51.151 34.5315 51.1848 34.3653 51.2218C34.2022 51.2587 34.0022 51.2802 33.7652 51.2864C33.3466 51.2987 32.9696 51.2356 32.6341 51.0971C32.2987 50.9556 32.0325 50.737 31.8355 50.4416C31.6416 50.1461 31.5462 49.7768 31.5493 49.3336V42.3997ZM37.8404 47.0346V51.1895H36.1692V41.7349H37.8034V45.3034H37.8865C38.0527 44.9033 38.3097 44.5879 38.6575 44.3571C39.0083 44.1232 39.4546 44.0062 39.9963 44.0062C40.4887 44.0062 40.918 44.1093 41.2843 44.3155C41.6505 44.5217 41.9337 44.8233 42.1337 45.2203C42.3368 45.6174 42.4384 46.1021 42.4384 46.6745V51.1895H40.7672V46.9331C40.7672 46.456 40.6441 46.0852 40.3979 45.8205C40.1548 45.5527 39.8132 45.4189 39.373 45.4189C39.0776 45.4189 38.8129 45.4835 38.579 45.6127C38.3482 45.7389 38.1666 45.9221 38.0343 46.1621C37.905 46.4022 37.8404 46.693 37.8404 47.0346ZM48.6614 48.2072V44.0985H50.3326V51.1895H48.7122V49.9292H48.6383C48.4783 50.3262 48.2151 50.6509 47.8489 50.9032C47.4857 51.1556 47.0379 51.2818 46.5055 51.2818C46.0408 51.2818 45.6299 51.1787 45.2729 50.9725C44.919 50.7632 44.642 50.46 44.4419 50.063C44.2419 49.6629 44.1419 49.1797 44.1419 48.6135V44.0985H45.813V48.3549C45.813 48.8043 45.9361 49.1613 46.1824 49.426C46.4286 49.6906 46.7517 49.823 47.1518 49.823C47.398 49.823 47.6365 49.763 47.8674 49.6429C48.0982 49.5229 48.2875 49.3444 48.4352 49.1074C48.586 48.8674 48.6614 48.5673 48.6614 48.2072ZM52.1249 51.1895V41.7349H53.7961V45.2711H53.8653C53.9515 45.0988 54.0731 44.9157 54.23 44.7218C54.387 44.5248 54.5993 44.3571 54.8671 44.2186C55.1349 44.077 55.4765 44.0062 55.892 44.0062C56.4398 44.0062 56.9337 44.1462 57.3738 44.4263C57.817 44.7033 58.1679 45.1142 58.4264 45.6589C58.688 46.2006 58.8188 46.8654 58.8188 47.6532C58.8188 48.4319 58.6911 49.0936 58.4356 49.6383C58.1802 50.1831 57.8324 50.5985 57.3923 50.8848C56.9522 51.171 56.4536 51.3141 55.8966 51.3141C55.4903 51.3141 55.1533 51.2464 54.8856 51.111C54.6178 50.9756 54.4024 50.8124 54.2393 50.6216C54.0792 50.4277 53.9546 50.2446 53.8653 50.0723H53.7684V51.1895H52.1249ZM53.7638 47.644C53.7638 48.1026 53.8284 48.5042 53.9577 48.8489C54.09 49.1936 54.2793 49.4629 54.5255 49.6568C54.7748 49.8476 55.0764 49.943 55.4303 49.943C55.7996 49.943 56.1089 49.8445 56.3582 49.6475C56.6075 49.4475 56.7952 49.1751 56.9214 48.8304C57.0507 48.4827 57.1153 48.0872 57.1153 47.644C57.1153 47.2039 57.0522 46.813 56.926 46.4714C56.7999 46.1298 56.6121 45.862 56.3628 45.6681C56.1135 45.4743 55.8027 45.3773 55.4303 45.3773C55.0733 45.3773 54.7702 45.4712 54.5209 45.6589C54.2716 45.8466 54.0823 46.1098 53.953 46.4483C53.8269 46.7869 53.7638 47.1854 53.7638 47.644ZM65.2507 41.7349V51.1895H63.538V41.7349H65.2507ZM68.7027 47.0346V51.1895H67.0315V44.0985H68.6288V45.3034H68.7119C68.875 44.9064 69.1351 44.591 69.4921 44.3571C69.8522 44.1232 70.2969 44.0062 70.8263 44.0062C71.3156 44.0062 71.7419 44.1109 72.105 44.3201C72.4713 44.5294 72.7544 44.8326 72.9545 45.2296C73.1576 45.6266 73.2576 46.1083 73.2545 46.6745V51.1895H71.5834V46.9331C71.5834 46.4591 71.4603 46.0882 71.214 45.8205C70.9709 45.5527 70.6339 45.4189 70.203 45.4189C69.9107 45.4189 69.6506 45.4835 69.4229 45.6127C69.1982 45.7389 69.0212 45.9221 68.892 46.1621C68.7658 46.4022 68.7027 46.693 68.7027 47.0346ZM78.4942 44.0985V45.3912H74.4179V44.0985H78.4942ZM75.4243 42.3997H77.0954V49.0566C77.0954 49.2813 77.1293 49.4537 77.197 49.5737C77.2678 49.6906 77.3601 49.7707 77.474 49.8137C77.5879 49.8568 77.714 49.8784 77.8525 49.8784C77.9572 49.8784 78.0526 49.8707 78.1388 49.8553C78.228 49.8399 78.2957 49.8261 78.3419 49.8137L78.6235 51.1202C78.5342 51.151 78.4065 51.1848 78.2403 51.2218C78.0772 51.2587 77.8772 51.2802 77.6402 51.2864C77.2216 51.2987 76.8446 51.2356 76.5091 51.0971C76.1737 50.9556 75.9075 50.737 75.7105 50.4416C75.5166 50.1461 75.4212 49.7768 75.4243 49.3336V42.3997ZM82.9549 51.3279C82.244 51.3279 81.63 51.1802 81.1129 50.8848C80.599 50.5862 80.2035 50.1646 79.9265 49.6199C79.6495 49.072 79.511 48.4273 79.511 47.6855C79.511 46.9561 79.6495 46.316 79.9265 45.7651C80.2066 45.2111 80.5974 44.7802 81.0991 44.4725C81.6007 44.1616 82.1901 44.0062 82.8672 44.0062C83.3042 44.0062 83.7166 44.077 84.1044 44.2186C84.4953 44.3571 84.84 44.5725 85.1385 44.8649C85.4401 45.1573 85.6771 45.5297 85.8494 45.9821C86.0218 46.4314 86.108 46.9669 86.108 47.5886V48.101H80.2958V46.9746H84.506C84.503 46.6545 84.4337 46.3699 84.2983 46.1206C84.1629 45.8682 83.9736 45.6697 83.7305 45.525C83.4904 45.3804 83.2103 45.3081 82.8903 45.3081C82.5487 45.3081 82.2486 45.3912 81.9901 45.5574C81.7315 45.7205 81.5299 45.9359 81.3853 46.2037C81.2437 46.4683 81.1714 46.7592 81.1683 47.0762V48.0595C81.1683 48.4719 81.2437 48.8258 81.3945 49.1213C81.5453 49.4136 81.7562 49.6383 82.027 49.7953C82.2978 49.9492 82.6148 50.0261 82.978 50.0261C83.2211 50.0261 83.4412 49.9922 83.6381 49.9245C83.8351 49.8538 84.0059 49.7507 84.1506 49.6152C84.2952 49.4798 84.4045 49.3121 84.4783 49.112L86.0387 49.2875C85.9402 49.6999 85.7525 50.06 85.4755 50.3677C85.2016 50.6724 84.8507 50.9094 84.4229 51.0787C83.9951 51.2449 83.5058 51.3279 82.9549 51.3279ZM90.6056 53.9963C90.0054 53.9963 89.4899 53.9147 89.059 53.7516C88.6282 53.5916 88.2819 53.3761 88.0203 53.1053C87.7587 52.8345 87.5771 52.5344 87.4756 52.2051L88.9806 51.8404C89.0483 51.9789 89.1468 52.1158 89.276 52.2512C89.4053 52.3897 89.5792 52.5036 89.7977 52.5929C90.0193 52.6852 90.2978 52.7314 90.6333 52.7314C91.1072 52.7314 91.4996 52.6159 91.8105 52.3851C92.1213 52.1574 92.2767 51.7819 92.2767 51.2587V49.9153H92.1936C92.1075 50.0877 91.9813 50.2646 91.8151 50.4462C91.652 50.6278 91.435 50.7801 91.1642 50.9032C90.8964 51.0263 90.5594 51.0879 90.1531 51.0879C89.6084 51.0879 89.1144 50.9602 88.6713 50.7047C88.2311 50.4462 87.8803 50.0615 87.6187 49.5506C87.3602 49.0366 87.2309 48.3934 87.2309 47.6209C87.2309 46.8423 87.3602 46.1852 87.6187 45.6497C87.8803 45.1111 88.2327 44.7033 88.6759 44.4263C89.1191 44.1462 89.613 44.0062 90.1578 44.0062C90.5732 44.0062 90.9149 44.077 91.1826 44.2186C91.4535 44.3571 91.6689 44.5248 91.8289 44.7218C91.989 44.9157 92.1105 45.0988 92.1936 45.2711H92.286V44.0985H93.934V51.3049C93.934 51.9112 93.7894 52.4128 93.5001 52.8098C93.2108 53.2069 92.8153 53.5038 92.3137 53.7008C91.812 53.8978 91.2426 53.9963 90.6056 53.9963ZM90.6194 49.7768C90.9733 49.7768 91.2749 49.6906 91.5242 49.5183C91.7735 49.3459 91.9628 49.0982 92.0921 48.775C92.2213 48.4519 92.286 48.0641 92.286 47.6117C92.286 47.1654 92.2213 46.7746 92.0921 46.4391C91.9659 46.1036 91.7781 45.8436 91.5289 45.6589C91.2826 45.4712 90.9795 45.3773 90.6194 45.3773C90.247 45.3773 89.9362 45.4743 89.6869 45.6681C89.4376 45.862 89.2499 46.1283 89.1237 46.4668C88.9975 46.8023 88.9344 47.1839 88.9344 47.6117C88.9344 48.0456 88.9975 48.4257 89.1237 48.752C89.2529 49.0751 89.4422 49.3275 89.6915 49.5091C89.9439 49.6876 90.2532 49.7768 90.6194 49.7768ZM95.6468 51.1895V44.0985H97.2671V45.2804H97.341C97.4703 44.871 97.6919 44.5556 98.0058 44.334C98.3228 44.1093 98.6844 43.997 99.0906 43.997C99.183 43.997 99.2861 44.0016 99.3999 44.0108C99.5169 44.017 99.6138 44.0278 99.6908 44.0431V45.5804C99.62 45.5558 99.5077 45.5343 99.3538 45.5158C99.203 45.4943 99.0568 45.4835 98.9152 45.4835C98.6105 45.4835 98.3366 45.5497 98.0935 45.682C97.8534 45.8113 97.6642 45.9913 97.5257 46.2221C97.3872 46.4529 97.3179 46.7192 97.3179 47.0208V51.1895H95.6468ZM102.715 51.3326C102.265 51.3326 101.861 51.2525 101.5 51.0925C101.143 50.9294 100.86 50.6893 100.651 50.3723C100.445 50.0553 100.342 49.6645 100.342 49.1998C100.342 48.7997 100.416 48.4688 100.563 48.2072C100.711 47.9456 100.913 47.7363 101.168 47.5794C101.424 47.4224 101.711 47.3039 102.031 47.2239C102.354 47.1408 102.688 47.0808 103.033 47.0439C103.449 47.0008 103.786 46.9623 104.044 46.9284C104.303 46.8915 104.49 46.8361 104.607 46.7623C104.727 46.6853 104.787 46.5668 104.787 46.4068V46.3791C104.787 46.0313 104.684 45.762 104.478 45.5712C104.272 45.3804 103.975 45.285 103.587 45.285C103.178 45.285 102.853 45.3742 102.613 45.5527C102.376 45.7312 102.216 45.9421 102.133 46.1852L100.573 45.9636C100.696 45.5327 100.899 45.1726 101.182 44.8833C101.465 44.591 101.811 44.3725 102.221 44.2278C102.63 44.0801 103.082 44.0062 103.578 44.0062C103.919 44.0062 104.26 44.0462 104.598 44.1262C104.937 44.2063 105.246 44.3386 105.526 44.5233C105.806 44.7048 106.031 44.9526 106.2 45.2665C106.372 45.5804 106.459 45.9728 106.459 46.4437V51.1895H104.852V50.2154H104.797C104.695 50.4123 104.552 50.597 104.367 50.7694C104.186 50.9386 103.956 51.0756 103.679 51.1802C103.406 51.2818 103.084 51.3326 102.715 51.3326ZM103.149 50.1046C103.484 50.1046 103.775 50.0384 104.021 49.9061C104.267 49.7707 104.457 49.5922 104.589 49.3706C104.724 49.149 104.792 48.9074 104.792 48.6458V47.8102C104.74 47.8533 104.65 47.8933 104.524 47.9302C104.401 47.9672 104.263 47.9995 104.109 48.0272C103.955 48.0549 103.803 48.0795 103.652 48.101C103.501 48.1226 103.37 48.141 103.259 48.1564C103.01 48.1903 102.787 48.2457 102.59 48.3226C102.393 48.3996 102.238 48.5073 102.124 48.6458C102.01 48.7812 101.953 48.9566 101.953 49.1721C101.953 49.4798 102.065 49.7122 102.29 49.8691C102.515 50.0261 102.801 50.1046 103.149 50.1046ZM111.68 44.0985V45.3912H107.603V44.0985H111.68ZM108.61 42.3997H110.281V49.0566C110.281 49.2813 110.315 49.4537 110.383 49.5737C110.453 49.6906 110.546 49.7707 110.66 49.8137C110.773 49.8568 110.9 49.8784 111.038 49.8784C111.143 49.8784 111.238 49.8707 111.324 49.8553C111.414 49.8399 111.481 49.8261 111.527 49.8137L111.809 51.1202C111.72 51.151 111.592 51.1848 111.426 51.2218C111.263 51.2587 111.063 51.2802 110.826 51.2864C110.407 51.2987 110.03 51.2356 109.695 51.0971C109.359 50.9556 109.093 50.737 108.896 50.4416C108.702 50.1461 108.607 49.7768 108.61 49.3336V42.3997ZM113.077 51.1895V44.0985H114.749V51.1895H113.077ZM113.918 43.0922C113.653 43.0922 113.425 43.0044 113.234 42.829C113.044 42.6505 112.948 42.4366 112.948 42.1873C112.948 41.935 113.044 41.7211 113.234 41.5456C113.425 41.3671 113.653 41.2779 113.918 41.2779C114.185 41.2779 114.413 41.3671 114.601 41.5456C114.792 41.7211 114.887 41.935 114.887 42.1873C114.887 42.4366 114.792 42.6505 114.601 42.829C114.413 43.0044 114.185 43.0922 113.918 43.0922ZM119.56 51.3279C118.868 51.3279 118.267 51.1756 117.76 50.8709C117.252 50.5662 116.858 50.14 116.578 49.5922C116.301 49.0443 116.162 48.4042 116.162 47.6717C116.162 46.9392 116.301 46.2975 116.578 45.7466C116.858 45.1957 117.252 44.7679 117.76 44.4632C118.267 44.1586 118.868 44.0062 119.56 44.0062C120.253 44.0062 120.853 44.1586 121.361 44.4632C121.868 44.7679 122.261 45.1957 122.538 45.7466C122.818 46.2975 122.958 46.9392 122.958 47.6717C122.958 48.4042 122.818 49.0443 122.538 49.5922C122.261 50.14 121.868 50.5662 121.361 50.8709C120.853 51.1756 120.253 51.3279 119.56 51.3279ZM119.569 49.9892C119.945 49.9892 120.259 49.8861 120.511 49.6799C120.763 49.4706 120.951 49.1905 121.074 48.8397C121.2 48.4888 121.264 48.098 121.264 47.6671C121.264 47.2331 121.2 46.8407 121.074 46.4899C120.951 46.1359 120.763 45.8543 120.511 45.6451C120.259 45.4358 119.945 45.3311 119.569 45.3311C119.185 45.3311 118.865 45.4358 118.609 45.6451C118.357 45.8543 118.167 46.1359 118.041 46.4899C117.918 46.8407 117.857 47.2331 117.857 47.6671C117.857 48.098 117.918 48.4888 118.041 48.8397C118.167 49.1905 118.357 49.4706 118.609 49.6799C118.865 49.8861 119.185 49.9892 119.569 49.9892ZM126.047 47.0346V51.1895H124.376V44.0985H125.974V45.3034H126.057C126.22 44.9064 126.48 44.591 126.837 44.3571C127.197 44.1232 127.642 44.0062 128.171 44.0062C128.66 44.0062 129.087 44.1109 129.45 44.3201C129.816 44.5294 130.099 44.8326 130.299 45.2296C130.502 45.6266 130.602 46.1083 130.599 46.6745V51.1895H128.928V46.9331C128.928 46.4591 128.805 46.0882 128.559 45.8205C128.316 45.5527 127.979 45.4189 127.548 45.4189C127.255 45.4189 126.995 45.4835 126.768 45.6127C126.543 45.7389 126.366 45.9221 126.237 46.1621C126.11 46.4022 126.047 46.693 126.047 47.0346ZM137.903 45.9728L136.379 46.139C136.336 45.9851 136.261 45.8405 136.153 45.7051C136.048 45.5697 135.907 45.4604 135.728 45.3773C135.55 45.2942 135.331 45.2527 135.073 45.2527C134.725 45.2527 134.432 45.3281 134.195 45.4789C133.962 45.6297 133.846 45.8251 133.849 46.0652C133.846 46.2714 133.922 46.4391 134.075 46.5684C134.232 46.6976 134.491 46.8038 134.851 46.8869L136.061 47.1454C136.731 47.2901 137.23 47.5194 137.556 47.8333C137.886 48.1472 138.052 48.5581 138.055 49.0659C138.052 49.5121 137.921 49.9061 137.662 50.2477C137.407 50.5862 137.052 50.8509 136.596 51.0417C136.141 51.2325 135.617 51.3279 135.026 51.3279C134.159 51.3279 133.46 51.1464 132.931 50.7832C132.401 50.417 132.086 49.9076 131.984 49.2551L133.614 49.0982C133.688 49.4183 133.845 49.6599 134.085 49.823C134.325 49.9861 134.637 50.0676 135.022 50.0676C135.419 50.0676 135.737 49.9861 135.977 49.823C136.221 49.6599 136.342 49.4583 136.342 49.2182C136.342 49.0151 136.264 48.8474 136.107 48.715C135.953 48.5827 135.713 48.4811 135.387 48.4103L134.177 48.1564C133.497 48.0149 132.994 47.7763 132.667 47.4409C132.341 47.1023 132.18 46.6745 132.183 46.1575C132.18 45.7205 132.298 45.3419 132.538 45.0218C132.781 44.6987 133.118 44.4494 133.549 44.274C133.983 44.0955 134.483 44.0062 135.05 44.0062C135.881 44.0062 136.535 44.1832 137.012 44.5371C137.492 44.891 137.789 45.3696 137.903 45.9728Z" fill="black"/>
<path d="M16.5732 99.5747C16.5732 98.8932 17.1257 98.3408 17.8071 98.3408H59.8896V100.809H17.8071C17.1257 100.809 16.5732 100.256 16.5732 99.5747V99.5747Z" fill="#DEE2E6"/>
<rect x="61.4092" y="98.3408" width="29.6375" height="2.46775" fill="#26B5CE"/>
<rect x="92.5664" y="98.3408" width="61.5548" height="2.46775" fill="#F7AE59"/>
<rect x="155.641" y="98.3408" width="33.4372" height="2.46775" fill="#D687FF"/>
<path d="M190.6 98.3408H244.841C245.522 98.3408 246.075 98.8932 246.075 99.5747V99.5747C246.075 100.256 245.522 100.809 244.841 100.809H190.6V98.3408Z" fill="#09A953"/>
<rect x="16.5723" y="63.6328" width="79.5849" height="8.02018" rx="4.01009" fill="#EBEBEB"/>
<rect x="111.581" y="63.6328" width="79.5849" height="8.02018" rx="4.01009" fill="#E2E2E2"/>
<defs>
<filter id="filter0_d_2094_49731" x="23.5323" y="0.532252" width="264.935" height="91.9355" filterUnits="userSpaceOnUse" color-interpolation-filters="sRGB">
<feFlood flood-opacity="0" result="BackgroundImageFix"/>
<feColorMatrix in="SourceAlpha" type="matrix" values="0 0 0 0 0 0 0 0 0 0 0 0 0 0 0 0 0 0 127 0" result="hardAlpha"/>
<feOffset/>
<feGaussianBlur stdDeviation="1.23387"/>
<feComposite in2="hardAlpha" operator="out"/>
<feColorMatrix type="matrix" values="0 0 0 0 0 0 0 0 0 0 0 0 0 0 0 0 0 0 0.2 0"/>
<feBlend mode="normal" in2="BackgroundImageFix" result="effect1_dropShadow_2094_49731"/>
<feBlend mode="normal" in="SourceGraphic" in2="effect1_dropShadow_2094_49731" result="shape"/>
</filter>
<filter id="filter1_d_2094_49731" x="0.532252" y="23.5323" width="264.935" height="91.9355" filterUnits="userSpaceOnUse" color-interpolation-filters="sRGB">
<feFlood flood-opacity="0" result="BackgroundImageFix"/>
<feColorMatrix in="SourceAlpha" type="matrix" values="0 0 0 0 0 0 0 0 0 0 0 0 0 0 0 0 0 0 127 0" result="hardAlpha"/>
<feOffset/>
<feGaussianBlur stdDeviation="1.23387"/>
<feComposite in2="hardAlpha" operator="out"/>
<feColorMatrix type="matrix" values="0 0 0 0 0 0 0 0 0 0 0 0 0 0 0 0 0 0 0.2 0"/>
<feBlend mode="normal" in2="BackgroundImageFix" result="effect1_dropShadow_2094_49731"/>
<feBlend mode="normal" in="SourceGraphic" in2="effect1_dropShadow_2094_49731" result="shape"/>
</filter>
</defs>
</svg>
