<svg width="304" height="87" viewBox="0 0 304 87" fill="none" xmlns="http://www.w3.org/2000/svg">
<g filter="url(#filter0_d_4142_75678)">
<rect x="28.5747" y="3" width="272.425" height="56.8476" rx="5.90624" fill="white"/>
</g>
<path d="M39.6906 20.6406V14.1975H41.8677C42.3732 14.1975 42.7864 14.2887 43.1073 14.4712C43.4303 14.6515 43.6694 14.8959 43.8246 15.2042C43.9798 15.5125 44.0574 15.8565 44.0574 16.2361C44.0574 16.6157 43.9798 16.9608 43.8246 17.2712C43.6715 17.5816 43.4345 17.8291 43.1136 18.0136C42.7927 18.1961 42.3816 18.2874 41.8803 18.2874H40.3198V17.5952H41.8551C42.2012 17.5952 42.4791 17.5354 42.6888 17.4159C42.8986 17.2963 43.0506 17.1348 43.145 16.9314C43.2415 16.7259 43.2897 16.4941 43.2897 16.2361C43.2897 15.9781 43.2415 15.7474 43.145 15.544C43.0506 15.3405 42.8975 15.1811 42.6857 15.0658C42.4739 14.9483 42.1928 14.8896 41.8425 14.8896H40.4709V20.6406H39.6906ZM45.3142 20.6406V14.1975H46.0945V19.9485H49.0895V20.6406H45.3142ZM52.2128 17.073V17.7651H49.3939V17.073H52.2128ZM55.7718 14.1975V20.6406H54.9916V15.0154H54.9538L53.3808 16.0599V15.2671L54.9916 14.1975H55.7718ZM57.4738 19.3193V18.6775L60.3053 14.1975H60.7709V15.1916H60.4563L58.317 18.5768V18.6271H62.13V19.3193H57.4738ZM60.5067 20.6406V19.1242V18.8253V14.1975H61.2491V20.6406H60.5067ZM63.5104 20.6406L66.3922 14.9399V14.8896H63.0699V14.1975H67.1976V14.9273L64.3284 20.6406H63.5104Z" fill="#858E96"/>
<path d="M80.5308 21.1641H78.211V13.647H80.6335C81.3627 13.647 81.9867 13.7975 82.5054 14.0985C83.0242 14.397 83.4218 14.8265 83.6983 15.3868C83.9748 15.9447 84.1131 16.6127 84.1131 17.3909C84.1131 18.1739 83.9736 18.848 83.6947 19.4133C83.4157 19.9761 83.0095 20.4092 82.4761 20.7126C81.9426 21.0136 81.2942 21.1641 80.5308 21.1641ZM79.1213 20.3566H80.472C81.0936 20.3566 81.6086 20.2367 82.0173 19.9969C82.4259 19.7571 82.7306 19.4157 82.9312 18.9728C83.1319 18.5299 83.2322 18.0026 83.2322 17.3909C83.2322 16.784 83.1331 16.2616 82.9349 15.8236C82.7367 15.3831 82.4406 15.0455 82.0466 14.8106C81.6527 14.5732 81.1621 14.4545 80.5748 14.4545H79.1213V20.3566ZM87.8863 21.2815C87.3431 21.2815 86.8745 21.1616 86.4805 20.9218C86.089 20.6796 85.7868 20.3419 85.5739 19.9088C85.3635 19.4732 85.2583 18.9667 85.2583 18.3892C85.2583 17.8117 85.3635 17.3028 85.5739 16.8623C85.7868 16.4194 86.0829 16.0744 86.4622 15.8273C86.8439 15.5777 87.2892 15.4529 87.7982 15.4529C88.0918 15.4529 88.3818 15.5018 88.6681 15.5997C88.9544 15.6976 89.215 15.8566 89.4499 16.0769C89.6848 16.2946 89.872 16.5834 90.0115 16.9431C90.1509 17.3028 90.2207 17.7457 90.2207 18.2718V18.6388H85.8749V17.89H89.3398C89.3398 17.5719 89.2762 17.2881 89.1489 17.0385C89.0241 16.7889 88.8455 16.5919 88.613 16.4476C88.383 16.3032 88.1114 16.231 87.7982 16.231C87.4532 16.231 87.1547 16.3167 86.9026 16.4879C86.653 16.6568 86.4609 16.877 86.3264 17.1486C86.1918 17.4202 86.1245 17.7114 86.1245 18.0222V18.5214C86.1245 18.9471 86.1979 19.3081 86.3447 19.6041C86.494 19.8978 86.7007 20.1217 86.965 20.2758C87.2293 20.4275 87.5364 20.5034 87.8863 20.5034C88.1139 20.5034 88.3194 20.4716 88.5029 20.408C88.6889 20.3419 88.8492 20.244 88.9837 20.1143C89.1183 19.9822 89.2223 19.8182 89.2957 19.6225L90.1326 19.8574C90.0445 20.1412 89.8965 20.3908 89.6885 20.6062C89.4805 20.819 89.2236 20.9854 88.9177 21.1053C88.6118 21.2228 88.268 21.2815 87.8863 21.2815ZM95.9768 15.5263L93.892 21.1641H93.0111L90.9263 15.5263H91.866L93.4222 20.0189H93.4809L95.0372 15.5263H95.9768ZM99.282 21.2815C98.7388 21.2815 98.2702 21.1616 97.8763 20.9218C97.4848 20.6796 97.1826 20.3419 96.9697 19.9088C96.7592 19.4732 96.654 18.9667 96.654 18.3892C96.654 17.8117 96.7592 17.3028 96.9697 16.8623C97.1826 16.4194 97.4786 16.0744 97.8579 15.8273C98.2396 15.5777 98.685 15.4529 99.194 15.4529C99.4876 15.4529 99.7776 15.5018 100.064 15.5997C100.35 15.6976 100.611 15.8566 100.846 16.0769C101.081 16.2946 101.268 16.5834 101.407 16.9431C101.547 17.3028 101.616 17.7457 101.616 18.2718V18.6388H97.2707V17.89H100.736C100.736 17.5719 100.672 17.2881 100.545 17.0385C100.42 16.7889 100.241 16.5919 100.009 16.4476C99.7788 16.3032 99.5072 16.231 99.194 16.231C98.8489 16.231 98.5504 16.3167 98.2984 16.4879C98.0488 16.6568 97.8567 16.877 97.7221 17.1486C97.5875 17.4202 97.5202 17.7114 97.5202 18.0222V18.5214C97.5202 18.9471 97.5937 19.3081 97.7405 19.6041C97.8897 19.8978 98.0965 20.1217 98.3608 20.2758C98.625 20.4275 98.9321 20.5034 99.282 20.5034C99.5096 20.5034 99.7152 20.4716 99.8987 20.408C100.085 20.3419 100.245 20.244 100.38 20.1143C100.514 19.9822 100.618 19.8182 100.691 19.6225L101.528 19.8574C101.44 20.1412 101.292 20.3908 101.084 20.6062C100.876 20.819 100.619 20.9854 100.313 21.1053C100.008 21.2228 99.6638 21.2815 99.282 21.2815ZM103.8 13.647V21.1641H102.934V13.647H103.8ZM107.677 21.2815C107.168 21.2815 106.722 21.1604 106.338 20.9181C105.956 20.6759 105.657 20.337 105.442 19.9014C105.229 19.4659 105.123 18.9569 105.123 18.3745C105.123 17.7873 105.229 17.2746 105.442 16.8366C105.657 16.3986 105.956 16.0585 106.338 15.8163C106.722 15.574 107.168 15.4529 107.677 15.4529C108.186 15.4529 108.632 15.574 109.013 15.8163C109.397 16.0585 109.696 16.3986 109.909 16.8366C110.124 17.2746 110.232 17.7873 110.232 18.3745C110.232 18.9569 110.124 19.4659 109.909 19.9014C109.696 20.337 109.397 20.6759 109.013 20.9181C108.632 21.1604 108.186 21.2815 107.677 21.2815ZM107.677 20.5034C108.064 20.5034 108.382 20.4043 108.632 20.2061C108.881 20.0079 109.066 19.7473 109.186 19.4243C109.306 19.1013 109.366 18.7514 109.366 18.3745C109.366 17.9977 109.306 17.6466 109.186 17.3211C109.066 16.9957 108.881 16.7326 108.632 16.532C108.382 16.3313 108.064 16.231 107.677 16.231C107.291 16.231 106.973 16.3313 106.723 16.532C106.473 16.7326 106.289 16.9957 106.169 17.3211C106.049 17.6466 105.989 17.9977 105.989 18.3745C105.989 18.7514 106.049 19.1013 106.169 19.4243C106.289 19.7473 106.473 20.0079 106.723 20.2061C106.973 20.4043 107.291 20.5034 107.677 20.5034ZM111.554 23.2782V15.5263H112.391V16.4219H112.494C112.557 16.324 112.645 16.1992 112.758 16.0475C112.873 15.8933 113.037 15.7563 113.25 15.6364C113.465 15.5141 113.756 15.4529 114.123 15.4529C114.598 15.4529 115.017 15.5716 115.379 15.8089C115.741 16.0463 116.023 16.3827 116.227 16.8183C116.43 17.2538 116.531 17.7677 116.531 18.3599C116.531 18.9569 116.43 19.4744 116.227 19.9124C116.023 20.348 115.742 20.6857 115.382 20.9255C115.023 21.1628 114.608 21.2815 114.138 21.2815C113.776 21.2815 113.486 21.2216 113.268 21.1017C113.05 20.9793 112.883 20.8411 112.765 20.6869C112.648 20.5303 112.557 20.4006 112.494 20.2978H112.42V23.2782H111.554ZM112.406 18.3452C112.406 18.7709 112.468 19.1466 112.593 19.472C112.718 19.795 112.9 20.0483 113.14 20.2318C113.38 20.4128 113.673 20.5034 114.021 20.5034C114.383 20.5034 114.685 20.408 114.927 20.2171C115.172 20.0238 115.355 19.7644 115.478 19.439C115.603 19.1111 115.665 18.7465 115.665 18.3452C115.665 17.9488 115.604 17.5915 115.481 17.2734C115.362 16.9529 115.179 16.6996 114.935 16.5136C114.692 16.3252 114.388 16.231 114.021 16.231C113.668 16.231 113.372 16.3203 113.132 16.499C112.893 16.6751 112.712 16.9223 112.589 17.2404C112.467 17.556 112.406 17.9243 112.406 18.3452ZM122.419 21.2962C122.061 21.2962 121.737 21.2289 121.446 21.0943C121.155 20.9573 120.923 20.7603 120.752 20.5034C120.581 20.244 120.495 19.9308 120.495 19.5638C120.495 19.2408 120.559 18.9789 120.686 18.7783C120.813 18.5752 120.983 18.4161 121.196 18.3011C121.409 18.1861 121.644 18.1005 121.901 18.0442C122.16 17.9855 122.421 17.939 122.683 17.9047C123.025 17.8607 123.303 17.8276 123.516 17.8056C123.731 17.7812 123.888 17.7408 123.986 17.6845C124.086 17.6282 124.136 17.5303 124.136 17.3909V17.3615C124.136 16.9994 124.037 16.718 123.839 16.5173C123.643 16.3167 123.346 16.2163 122.947 16.2163C122.534 16.2163 122.209 16.3069 121.974 16.4879C121.74 16.669 121.574 16.8623 121.479 17.0679L120.657 16.7742C120.804 16.4317 120.999 16.1649 121.244 15.9741C121.491 15.7808 121.76 15.6462 122.052 15.5703C122.345 15.492 122.634 15.4529 122.918 15.4529C123.099 15.4529 123.307 15.4749 123.542 15.5189C123.779 15.5605 124.008 15.6474 124.228 15.7795C124.451 15.9117 124.636 16.1111 124.782 16.3778C124.929 16.6445 125.003 17.0018 125.003 17.4496V21.1641H124.136V20.4006H124.092C124.034 20.523 123.936 20.6539 123.799 20.7933C123.662 20.9328 123.479 21.0515 123.252 21.1494C123.024 21.2473 122.746 21.2962 122.419 21.2962ZM122.551 20.5181C122.893 20.5181 123.182 20.4508 123.417 20.3162C123.654 20.1816 123.833 20.0079 123.953 19.795C124.075 19.5821 124.136 19.3582 124.136 19.1233V18.3305C124.1 18.3745 124.019 18.4149 123.894 18.4516C123.772 18.4859 123.63 18.5165 123.468 18.5434C123.309 18.5678 123.154 18.5899 123.002 18.6094C122.853 18.6266 122.732 18.6413 122.639 18.6535C122.414 18.6829 122.203 18.7306 122.007 18.7966C121.814 18.8603 121.658 18.9569 121.538 19.0866C121.42 19.2138 121.362 19.3876 121.362 19.6078C121.362 19.9088 121.473 20.1363 121.696 20.2905C121.921 20.4422 122.206 20.5181 122.551 20.5181ZM133.484 16.7889L132.706 17.0091C132.657 16.8795 132.585 16.7534 132.489 16.6311C132.396 16.5063 132.269 16.4035 132.108 16.3228C131.946 16.242 131.739 16.2016 131.487 16.2016C131.142 16.2016 130.855 16.2812 130.625 16.4402C130.397 16.5968 130.283 16.7963 130.283 17.0385C130.283 17.2538 130.362 17.4239 130.518 17.5487C130.675 17.6735 130.92 17.7775 131.252 17.8607L132.089 18.0662C132.593 18.1886 132.969 18.3758 133.216 18.6278C133.463 18.8774 133.587 19.1992 133.587 19.5931C133.587 19.9161 133.494 20.2049 133.308 20.4593C133.124 20.7138 132.867 20.9145 132.537 21.0613C132.207 21.2081 131.823 21.2815 131.385 21.2815C130.809 21.2815 130.334 21.1567 129.957 20.9071C129.58 20.6575 129.341 20.2929 129.241 19.8133L130.063 19.6078C130.141 19.9112 130.29 20.1388 130.507 20.2905C130.728 20.4422 131.015 20.5181 131.37 20.5181C131.774 20.5181 132.094 20.4324 132.331 20.2611C132.571 20.0874 132.691 19.8794 132.691 19.6372C132.691 19.4414 132.623 19.2775 132.486 19.1453C132.349 19.0107 132.138 18.9104 131.854 18.8444L130.915 18.6241C130.398 18.5018 130.019 18.3121 129.777 18.0552C129.537 17.7958 129.417 17.4716 129.417 17.0825C129.417 16.7644 129.506 16.483 129.685 16.2384C129.866 15.9937 130.112 15.8016 130.423 15.6621C130.736 15.5226 131.091 15.4529 131.487 15.4529C132.045 15.4529 132.483 15.5752 132.801 15.8199C133.122 16.0646 133.349 16.3876 133.484 16.7889ZM135.449 23.2782C135.302 23.2782 135.171 23.266 135.056 23.2415C134.941 23.2195 134.861 23.1975 134.817 23.1755L135.038 22.412C135.248 22.4658 135.434 22.4854 135.595 22.4707C135.757 22.4561 135.9 22.3839 136.025 22.2542C136.152 22.1269 136.268 21.9202 136.374 21.6339L136.535 21.1934L134.45 15.5263H135.39L136.946 20.0189H137.005L138.561 15.5263H139.501L137.108 21.9862C137 22.2774 136.867 22.5184 136.708 22.7093C136.549 22.9026 136.364 23.0458 136.153 23.1388C135.945 23.2317 135.71 23.2782 135.449 23.2782ZM144.638 16.7889L143.859 17.0091C143.81 16.8795 143.738 16.7534 143.643 16.6311C143.55 16.5063 143.423 16.4035 143.261 16.3228C143.1 16.242 142.893 16.2016 142.641 16.2016C142.296 16.2016 142.008 16.2812 141.778 16.4402C141.551 16.5968 141.437 16.7963 141.437 17.0385C141.437 17.2538 141.515 17.4239 141.672 17.5487C141.828 17.6735 142.073 17.7775 142.406 17.8607L143.243 18.0662C143.747 18.1886 144.122 18.3758 144.37 18.6278C144.617 18.8774 144.74 19.1992 144.74 19.5931C144.74 19.9161 144.647 20.2049 144.461 20.4593C144.278 20.7138 144.021 20.9145 143.691 21.0613C143.36 21.2081 142.976 21.2815 142.538 21.2815C141.963 21.2815 141.487 21.1567 141.11 20.9071C140.733 20.6575 140.495 20.2929 140.394 19.8133L141.217 19.6078C141.295 19.9112 141.443 20.1388 141.661 20.2905C141.881 20.4422 142.169 20.5181 142.523 20.5181C142.927 20.5181 143.248 20.4324 143.485 20.2611C143.725 20.0874 143.845 19.8794 143.845 19.6372C143.845 19.4414 143.776 19.2775 143.639 19.1453C143.502 19.0107 143.292 18.9104 143.008 18.8444L142.068 18.6241C141.552 18.5018 141.173 18.3121 140.93 18.0552C140.691 17.7958 140.571 17.4716 140.571 17.0825C140.571 16.7644 140.66 16.483 140.839 16.2384C141.02 15.9937 141.266 15.8016 141.576 15.6621C141.89 15.5226 142.244 15.4529 142.641 15.4529C143.199 15.4529 143.637 15.5752 143.955 15.8199C144.275 16.0646 144.503 16.3876 144.638 16.7889ZM148.496 15.5263V16.2604H145.574V15.5263H148.496ZM146.426 14.1756H147.292V19.5491C147.292 19.7938 147.328 19.9773 147.399 20.0996C147.472 20.2195 147.565 20.3003 147.678 20.3419C147.793 20.381 147.914 20.4006 148.041 20.4006C148.136 20.4006 148.215 20.3957 148.276 20.3859C148.337 20.3737 148.386 20.3639 148.423 20.3566L148.599 21.1347C148.54 21.1567 148.458 21.1787 148.353 21.2008C148.248 21.2252 148.114 21.2375 147.953 21.2375C147.708 21.2375 147.468 21.1849 147.233 21.0796C147.001 20.9744 146.808 20.8141 146.653 20.5988C146.502 20.3835 146.426 20.1119 146.426 19.784V14.1756ZM152.102 21.2815C151.559 21.2815 151.09 21.1616 150.696 20.9218C150.305 20.6796 150.003 20.3419 149.79 19.9088C149.579 19.4732 149.474 18.9667 149.474 18.3892C149.474 17.8117 149.579 17.3028 149.79 16.8623C150.003 16.4194 150.299 16.0744 150.678 15.8273C151.06 15.5777 151.505 15.4529 152.014 15.4529C152.308 15.4529 152.598 15.5018 152.884 15.5997C153.17 15.6976 153.431 15.8566 153.666 16.0769C153.901 16.2946 154.088 16.5834 154.227 16.9431C154.367 17.3028 154.437 17.7457 154.437 18.2718V18.6388H150.091V17.89H153.556C153.556 17.5719 153.492 17.2881 153.365 17.0385C153.24 16.7889 153.061 16.5919 152.829 16.4476C152.599 16.3032 152.327 16.231 152.014 16.231C151.669 16.231 151.371 16.3167 151.119 16.4879C150.869 16.6568 150.677 16.877 150.542 17.1486C150.408 17.4202 150.34 17.7114 150.34 18.0222V18.5214C150.34 18.9471 150.414 19.3081 150.561 19.6041C150.71 19.8978 150.917 20.1217 151.181 20.2758C151.445 20.4275 151.752 20.5034 152.102 20.5034C152.33 20.5034 152.535 20.4716 152.719 20.408C152.905 20.3419 153.065 20.244 153.2 20.1143C153.334 19.9822 153.438 19.8182 153.512 19.6225L154.349 19.8574C154.26 20.1412 154.112 20.3908 153.904 20.6062C153.696 20.819 153.439 20.9854 153.134 21.1053C152.828 21.2228 152.484 21.2815 152.102 21.2815ZM155.754 21.1641V15.5263H156.591V16.4072H156.665C156.782 16.1062 156.972 15.8725 157.233 15.7061C157.495 15.5373 157.81 15.4529 158.177 15.4529C158.549 15.4529 158.858 15.5373 159.105 15.7061C159.355 15.8725 159.55 16.1062 159.689 16.4072H159.748C159.892 16.116 160.109 15.8848 160.397 15.7135C160.686 15.5397 161.032 15.4529 161.436 15.4529C161.94 15.4529 162.353 15.6107 162.673 15.9264C162.994 16.2396 163.154 16.7277 163.154 17.3909V21.1641H162.288V17.3909C162.288 16.9749 162.174 16.6776 161.946 16.499C161.719 16.3203 161.451 16.231 161.143 16.231C160.746 16.231 160.439 16.3509 160.221 16.5907C160.003 16.8281 159.895 17.129 159.895 17.4936V21.1641H159.014V17.3028C159.014 16.9822 158.91 16.7241 158.702 16.5283C158.494 16.3301 158.226 16.231 157.898 16.231C157.673 16.231 157.462 16.291 157.267 16.4109C157.073 16.5308 156.917 16.6972 156.797 16.91C156.679 17.1205 156.621 17.3639 156.621 17.6405V21.1641H155.754ZM170.155 15.5263V16.2604H167.116V15.5263H170.155ZM168.026 21.1641V14.7482C168.026 14.4252 168.102 14.156 168.254 13.9407C168.406 13.7253 168.603 13.5638 168.845 13.4562C169.087 13.3485 169.343 13.2947 169.612 13.2947C169.825 13.2947 169.999 13.3118 170.133 13.3461C170.268 13.3803 170.368 13.4121 170.434 13.4415L170.185 14.1903C170.141 14.1756 170.079 14.1572 170.001 14.1352C169.925 14.1132 169.825 14.1022 169.7 14.1022C169.414 14.1022 169.207 14.1743 169.08 14.3187C168.955 14.4631 168.893 14.6747 168.893 14.9537V21.1641H168.026ZM173.427 21.2815C172.918 21.2815 172.472 21.1604 172.088 20.9181C171.706 20.6759 171.407 20.337 171.192 19.9014C170.979 19.4659 170.873 18.9569 170.873 18.3745C170.873 17.7873 170.979 17.2746 171.192 16.8366C171.407 16.3986 171.706 16.0585 172.088 15.8163C172.472 15.574 172.918 15.4529 173.427 15.4529C173.936 15.4529 174.382 15.574 174.763 15.8163C175.148 16.0585 175.446 16.3986 175.659 16.8366C175.874 17.2746 175.982 17.7873 175.982 18.3745C175.982 18.9569 175.874 19.4659 175.659 19.9014C175.446 20.337 175.148 20.6759 174.763 20.9181C174.382 21.1604 173.936 21.2815 173.427 21.2815ZM173.427 20.5034C173.814 20.5034 174.132 20.4043 174.382 20.2061C174.631 20.0079 174.816 19.7473 174.936 19.4243C175.056 19.1013 175.116 18.7514 175.116 18.3745C175.116 17.9977 175.056 17.6466 174.936 17.3211C174.816 16.9957 174.631 16.7326 174.382 16.532C174.132 16.3313 173.814 16.231 173.427 16.231C173.041 16.231 172.723 16.3313 172.473 16.532C172.224 16.7326 172.039 16.9957 171.919 17.3211C171.799 17.6466 171.739 17.9977 171.739 18.3745C171.739 18.7514 171.799 19.1013 171.919 19.4243C172.039 19.7473 172.224 20.0079 172.473 20.2061C172.723 20.4043 173.041 20.5034 173.427 20.5034ZM177.304 21.1641V15.5263H178.141V16.3778H178.2C178.303 16.0989 178.489 15.8725 178.758 15.6988C179.027 15.5251 179.33 15.4382 179.668 15.4382C179.732 15.4382 179.811 15.4394 179.907 15.4419C180.002 15.4443 180.074 15.448 180.123 15.4529V16.3338C180.094 16.3264 180.027 16.3154 179.921 16.3007C179.819 16.2836 179.71 16.2751 179.595 16.2751C179.321 16.2751 179.076 16.3326 178.861 16.4476C178.648 16.5601 178.479 16.7167 178.354 16.9174C178.232 17.1156 178.171 17.3419 178.171 17.5964V21.1641H177.304ZM184.057 21.1641V15.5263H184.923V21.1641H184.057ZM184.497 14.5867C184.329 14.5867 184.183 14.5292 184.061 14.4141C183.941 14.2991 183.881 14.1609 183.881 13.9994C183.881 13.8379 183.941 13.6996 184.061 13.5846C184.183 13.4696 184.329 13.4121 184.497 13.4121C184.666 13.4121 184.811 13.4696 184.931 13.5846C185.053 13.6996 185.114 13.8379 185.114 13.9994C185.114 14.1609 185.053 14.2991 184.931 14.4141C184.811 14.5292 184.666 14.5867 184.497 14.5867ZM187.376 17.7726V21.1641H186.51V15.5263H187.347V16.4072H187.42C187.552 16.1209 187.753 15.8909 188.022 15.7171C188.291 15.541 188.639 15.4529 189.064 15.4529C189.446 15.4529 189.78 15.5312 190.066 15.6878C190.353 15.8419 190.575 16.0769 190.734 16.3925C190.893 16.7057 190.973 17.1021 190.973 17.5817V21.1641H190.107V17.6405C190.107 17.1976 189.992 16.8525 189.762 16.6054C189.532 16.3558 189.216 16.231 188.815 16.231C188.538 16.231 188.291 16.291 188.073 16.4109C187.858 16.5308 187.688 16.7057 187.563 16.9357C187.438 17.1657 187.376 17.4447 187.376 17.7726ZM195.066 15.5263V16.2604H192.027V15.5263H195.066ZM192.938 21.1641V14.7482C192.938 14.4252 193.013 14.156 193.165 13.9407C193.317 13.7253 193.514 13.5638 193.756 13.4562C193.998 13.3485 194.254 13.2947 194.523 13.2947C194.736 13.2947 194.91 13.3118 195.044 13.3461C195.179 13.3803 195.279 13.4121 195.345 13.4415L195.096 14.1903C195.052 14.1756 194.991 14.1572 194.912 14.1352C194.836 14.1132 194.736 14.1022 194.611 14.1022C194.325 14.1022 194.118 14.1743 193.991 14.3187C193.866 14.4631 193.804 14.6747 193.804 14.9537V21.1641H192.938ZM196.28 21.1641V15.5263H197.117V16.3778H197.176C197.279 16.0989 197.465 15.8725 197.734 15.6988C198.003 15.5251 198.306 15.4382 198.644 15.4382C198.708 15.4382 198.787 15.4394 198.883 15.4419C198.978 15.4443 199.05 15.448 199.099 15.4529V16.3338C199.07 16.3264 199.003 16.3154 198.897 16.3007C198.795 16.2836 198.686 16.2751 198.571 16.2751C198.297 16.2751 198.052 16.3326 197.837 16.4476C197.624 16.5601 197.455 16.7167 197.33 16.9174C197.208 17.1156 197.147 17.3419 197.147 17.5964V21.1641H196.28ZM201.785 21.2962C201.428 21.2962 201.104 21.2289 200.812 21.0943C200.521 20.9573 200.29 20.7603 200.119 20.5034C199.947 20.244 199.862 19.9308 199.862 19.5638C199.862 19.2408 199.925 18.9789 200.053 18.7783C200.18 18.5752 200.35 18.4161 200.563 18.3011C200.776 18.1861 201.011 18.1005 201.268 18.0442C201.527 17.9855 201.788 17.939 202.049 17.9047C202.392 17.8607 202.67 17.8276 202.883 17.8056C203.098 17.7812 203.255 17.7408 203.352 17.6845C203.453 17.6282 203.503 17.5303 203.503 17.3909V17.3615C203.503 16.9994 203.404 16.718 203.206 16.5173C203.01 16.3167 202.713 16.2163 202.314 16.2163C201.9 16.2163 201.576 16.3069 201.341 16.4879C201.106 16.669 200.941 16.8623 200.846 17.0679L200.023 16.7742C200.17 16.4317 200.366 16.1649 200.611 15.9741C200.858 15.7808 201.127 15.6462 201.418 15.5703C201.712 15.492 202 15.4529 202.284 15.4529C202.465 15.4529 202.673 15.4749 202.908 15.5189C203.146 15.5605 203.374 15.6474 203.595 15.7795C203.817 15.9117 204.002 16.1111 204.149 16.3778C204.296 16.6445 204.369 17.0018 204.369 17.4496V21.1641H203.503V20.4006H203.459C203.4 20.523 203.302 20.6539 203.165 20.7933C203.028 20.9328 202.846 21.0515 202.618 21.1494C202.391 21.2473 202.113 21.2962 201.785 21.2962ZM201.917 20.5181C202.26 20.5181 202.549 20.4508 202.783 20.3162C203.021 20.1816 203.199 20.0079 203.319 19.795C203.442 19.5821 203.503 19.3582 203.503 19.1233V18.3305C203.466 18.3745 203.385 18.4149 203.261 18.4516C203.138 18.4859 202.996 18.5165 202.835 18.5434C202.676 18.5678 202.52 18.5899 202.369 18.6094C202.219 18.6266 202.098 18.6413 202.005 18.6535C201.78 18.6829 201.57 18.7306 201.374 18.7966C201.181 18.8603 201.024 18.9569 200.904 19.0866C200.787 19.2138 200.728 19.3876 200.728 19.6078C200.728 19.9088 200.839 20.1363 201.062 20.2905C201.287 20.4422 201.572 20.5181 201.917 20.5181ZM209.944 16.7889L209.165 17.0091C209.117 16.8795 209.044 16.7534 208.949 16.6311C208.856 16.5063 208.729 16.4035 208.567 16.3228C208.406 16.242 208.199 16.2016 207.947 16.2016C207.602 16.2016 207.314 16.2812 207.084 16.4402C206.857 16.5968 206.743 16.7963 206.743 17.0385C206.743 17.2538 206.821 17.4239 206.978 17.5487C207.134 17.6735 207.379 17.7775 207.712 17.8607L208.549 18.0662C209.053 18.1886 209.428 18.3758 209.676 18.6278C209.923 18.8774 210.046 19.1992 210.046 19.5931C210.046 19.9161 209.953 20.2049 209.767 20.4593C209.584 20.7138 209.327 20.9145 208.997 21.0613C208.666 21.2081 208.282 21.2815 207.844 21.2815C207.269 21.2815 206.793 21.1567 206.416 20.9071C206.039 20.6575 205.801 20.2929 205.701 19.8133L206.523 19.6078C206.601 19.9112 206.749 20.1388 206.967 20.2905C207.187 20.4422 207.475 20.5181 207.829 20.5181C208.233 20.5181 208.554 20.4324 208.791 20.2611C209.031 20.0874 209.151 19.8794 209.151 19.6372C209.151 19.4414 209.082 19.2775 208.945 19.1453C208.808 19.0107 208.598 18.9104 208.314 18.8444L207.374 18.6241C206.858 18.5018 206.479 18.3121 206.236 18.0552C205.997 17.7958 205.877 17.4716 205.877 17.0825C205.877 16.7644 205.966 16.483 206.145 16.2384C206.326 15.9937 206.572 15.8016 206.882 15.6621C207.196 15.5226 207.55 15.4529 207.947 15.4529C208.505 15.4529 208.943 15.5752 209.261 15.8199C209.581 16.0646 209.809 16.3876 209.944 16.7889ZM213.802 15.5263V16.2604H210.88V15.5263H213.802ZM211.732 14.1756H212.598V19.5491C212.598 19.7938 212.634 19.9773 212.705 20.0996C212.778 20.2195 212.871 20.3003 212.984 20.3419C213.099 20.381 213.22 20.4006 213.347 20.4006C213.442 20.4006 213.521 20.3957 213.582 20.3859C213.643 20.3737 213.692 20.3639 213.729 20.3566L213.905 21.1347C213.846 21.1567 213.764 21.1787 213.659 21.2008C213.554 21.2252 213.42 21.2375 213.259 21.2375C213.014 21.2375 212.774 21.1849 212.539 21.0796C212.307 20.9744 212.114 20.8141 211.96 20.5988C211.808 20.3835 211.732 20.1119 211.732 19.784V14.1756ZM215.105 21.1641V15.5263H215.942V16.3778H216.001C216.103 16.0989 216.289 15.8725 216.559 15.6988C216.828 15.5251 217.131 15.4382 217.469 15.4382C217.532 15.4382 217.612 15.4394 217.707 15.4419C217.803 15.4443 217.875 15.448 217.924 15.4529V16.3338C217.895 16.3264 217.827 16.3154 217.722 16.3007C217.619 16.2836 217.51 16.2751 217.395 16.2751C217.121 16.2751 216.877 16.3326 216.661 16.4476C216.448 16.5601 216.28 16.7167 216.155 16.9174C216.033 17.1156 215.971 17.3419 215.971 17.5964V21.1641H215.105ZM222.504 18.859V15.5263H223.37V21.1641H222.504V20.2098H222.445C222.313 20.496 222.107 20.7395 221.828 20.9402C221.549 21.1384 221.197 21.2375 220.771 21.2375C220.419 21.2375 220.106 21.1604 219.832 21.0062C219.558 20.8496 219.342 20.6147 219.186 20.3015C219.029 19.9859 218.951 19.5882 218.951 19.1086V15.5263H219.817V19.0499C219.817 19.461 219.932 19.7889 220.162 20.0336C220.395 20.2783 220.691 20.4006 221.05 20.4006C221.266 20.4006 221.485 20.3456 221.707 20.2354C221.932 20.1253 222.121 19.9565 222.273 19.7289C222.427 19.5014 222.504 19.2114 222.504 18.859ZM227.247 21.2815C226.718 21.2815 226.263 21.1567 225.881 20.9071C225.5 20.6575 225.206 20.3137 225.001 19.8757C224.795 19.4377 224.692 18.9373 224.692 18.3745C224.692 17.802 224.797 17.2967 225.008 16.8587C225.221 16.4182 225.517 16.0744 225.896 15.8273C226.278 15.5777 226.723 15.4529 227.232 15.4529C227.629 15.4529 227.986 15.5263 228.304 15.6731C228.622 15.8199 228.883 16.0255 229.086 16.2897C229.289 16.554 229.415 16.8623 229.464 17.2147H228.598C228.532 16.9578 228.385 16.7302 228.157 16.532C227.932 16.3313 227.629 16.231 227.247 16.231C226.909 16.231 226.613 16.3191 226.359 16.4953C226.107 16.669 225.91 16.9149 225.768 17.233C225.628 17.5487 225.558 17.9194 225.558 18.3452C225.558 18.7807 225.627 19.16 225.764 19.483C225.904 19.806 226.099 20.0568 226.351 20.2354C226.606 20.4141 226.904 20.5034 227.247 20.5034C227.472 20.5034 227.676 20.4642 227.86 20.3859C228.043 20.3076 228.199 20.1951 228.326 20.0483C228.453 19.9014 228.544 19.7253 228.598 19.5197H229.464C229.415 19.8525 229.294 20.1522 229.1 20.419C228.91 20.6832 228.656 20.8937 228.341 21.0503C228.027 21.2044 227.663 21.2815 227.247 21.2815ZM233.182 15.5263V16.2604H230.26V15.5263H233.182ZM231.112 14.1756H231.978V19.5491C231.978 19.7938 232.014 19.9773 232.085 20.0996C232.158 20.2195 232.251 20.3003 232.363 20.3419C232.478 20.381 232.6 20.4006 232.727 20.4006C232.822 20.4006 232.901 20.3957 232.962 20.3859C233.023 20.3737 233.072 20.3639 233.109 20.3566L233.285 21.1347C233.226 21.1567 233.144 21.1787 233.039 21.2008C232.934 21.2252 232.8 21.2375 232.639 21.2375C232.394 21.2375 232.154 21.1849 231.919 21.0796C231.687 20.9744 231.494 20.8141 231.339 20.5988C231.188 20.3835 231.112 20.1119 231.112 19.784V14.1756ZM238.038 18.859V15.5263H238.904V21.1641H238.038V20.2098H237.979C237.847 20.496 237.642 20.7395 237.363 20.9402C237.084 21.1384 236.731 21.2375 236.305 21.2375C235.953 21.2375 235.64 21.1604 235.366 21.0062C235.092 20.8496 234.876 20.6147 234.72 20.3015C234.563 19.9859 234.485 19.5882 234.485 19.1086V15.5263H235.351V19.0499C235.351 19.461 235.466 19.7889 235.696 20.0336C235.929 20.2783 236.225 20.4006 236.584 20.4006C236.8 20.4006 237.019 20.3456 237.241 20.2354C237.467 20.1253 237.655 19.9565 237.807 19.7289C237.961 19.5014 238.038 19.2114 238.038 18.859ZM240.491 21.1641V15.5263H241.328V16.3778H241.386C241.489 16.0989 241.675 15.8725 241.944 15.6988C242.213 15.5251 242.517 15.4382 242.854 15.4382C242.918 15.4382 242.998 15.4394 243.093 15.4419C243.188 15.4443 243.261 15.448 243.31 15.4529V16.3338C243.28 16.3264 243.213 16.3154 243.108 16.3007C243.005 16.2836 242.896 16.2751 242.781 16.2751C242.507 16.2751 242.262 16.3326 242.047 16.4476C241.834 16.5601 241.665 16.7167 241.54 16.9174C241.418 17.1156 241.357 17.3419 241.357 17.5964V21.1641H240.491ZM246.529 21.2815C245.985 21.2815 245.517 21.1616 245.123 20.9218C244.731 20.6796 244.429 20.3419 244.216 19.9088C244.006 19.4732 243.901 18.9667 243.901 18.3892C243.901 17.8117 244.006 17.3028 244.216 16.8623C244.429 16.4194 244.725 16.0744 245.104 15.8273C245.486 15.5777 245.931 15.4529 246.44 15.4529C246.734 15.4529 247.024 15.5018 247.31 15.5997C247.597 15.6976 247.857 15.8566 248.092 16.0769C248.327 16.2946 248.514 16.5834 248.654 16.9431C248.793 17.3028 248.863 17.7457 248.863 18.2718V18.6388H244.517V17.89H247.982C247.982 17.5719 247.918 17.2881 247.791 17.0385C247.666 16.7889 247.488 16.5919 247.255 16.4476C247.025 16.3032 246.754 16.231 246.44 16.231C246.095 16.231 245.797 16.3167 245.545 16.4879C245.295 16.6568 245.103 16.877 244.969 17.1486C244.834 17.4202 244.767 17.7114 244.767 18.0222V18.5214C244.767 18.9471 244.84 19.3081 244.987 19.6041C245.136 19.8978 245.343 20.1217 245.607 20.2758C245.872 20.4275 246.179 20.5034 246.529 20.5034C246.756 20.5034 246.962 20.4716 247.145 20.408C247.331 20.3419 247.491 20.244 247.626 20.1143C247.761 19.9822 247.865 19.8182 247.938 19.6225L248.775 19.8574C248.687 20.1412 248.539 20.3908 248.331 20.6062C248.123 20.819 247.866 20.9854 247.56 21.1053C247.254 21.2228 246.91 21.2815 246.529 21.2815ZM255.378 21.2815C254.849 21.2815 254.394 21.1567 254.013 20.9071C253.631 20.6575 253.337 20.3137 253.132 19.8757C252.926 19.4377 252.823 18.9373 252.823 18.3745C252.823 17.802 252.929 17.2967 253.139 16.8587C253.352 16.4182 253.648 16.0744 254.027 15.8273C254.409 15.5777 254.854 15.4529 255.363 15.4529C255.76 15.4529 256.117 15.5263 256.435 15.6731C256.753 15.8199 257.014 16.0255 257.217 16.2897C257.42 16.554 257.546 16.8623 257.595 17.2147H256.729C256.663 16.9578 256.516 16.7302 256.288 16.532C256.063 16.3313 255.76 16.231 255.378 16.231C255.04 16.231 254.744 16.3191 254.49 16.4953C254.238 16.669 254.041 16.9149 253.899 17.233C253.759 17.5487 253.69 17.9194 253.69 18.3452C253.69 18.7807 253.758 19.16 253.895 19.483C254.035 19.806 254.23 20.0568 254.482 20.2354C254.737 20.4141 255.035 20.5034 255.378 20.5034C255.603 20.5034 255.807 20.4642 255.991 20.3859C256.174 20.3076 256.33 20.1951 256.457 20.0483C256.584 19.9014 256.675 19.7253 256.729 19.5197H257.595C257.546 19.8525 257.425 20.1522 257.232 20.419C257.041 20.6832 256.787 20.8937 256.472 21.0503C256.159 21.2044 255.794 21.2815 255.378 21.2815ZM261.152 21.2815C260.643 21.2815 260.196 21.1604 259.812 20.9181C259.43 20.6759 259.132 20.337 258.916 19.9014C258.703 19.4659 258.597 18.9569 258.597 18.3745C258.597 17.7873 258.703 17.2746 258.916 16.8366C259.132 16.3986 259.43 16.0585 259.812 15.8163C260.196 15.574 260.643 15.4529 261.152 15.4529C261.66 15.4529 262.106 15.574 262.488 15.8163C262.872 16.0585 263.17 16.3986 263.383 16.8366C263.598 17.2746 263.706 17.7873 263.706 18.3745C263.706 18.9569 263.598 19.4659 263.383 19.9014C263.17 20.337 262.872 20.6759 262.488 20.9181C262.106 21.1604 261.66 21.2815 261.152 21.2815ZM261.152 20.5034C261.538 20.5034 261.856 20.4043 262.106 20.2061C262.355 20.0079 262.54 19.7473 262.66 19.4243C262.78 19.1013 262.84 18.7514 262.84 18.3745C262.84 17.9977 262.78 17.6466 262.66 17.3211C262.54 16.9957 262.355 16.7326 262.106 16.532C261.856 16.3313 261.538 16.231 261.152 16.231C260.765 16.231 260.447 16.3313 260.197 16.532C259.948 16.7326 259.763 16.9957 259.643 17.3211C259.523 17.6466 259.463 17.9977 259.463 18.3745C259.463 18.7514 259.523 19.1013 259.643 19.4243C259.763 19.7473 259.948 20.0079 260.197 20.2061C260.447 20.4043 260.765 20.5034 261.152 20.5034ZM269.022 16.7889L268.244 17.0091C268.195 16.8795 268.123 16.7534 268.027 16.6311C267.934 16.5063 267.807 16.4035 267.645 16.3228C267.484 16.242 267.277 16.2016 267.025 16.2016C266.68 16.2016 266.393 16.2812 266.163 16.4402C265.935 16.5968 265.821 16.7963 265.821 17.0385C265.821 17.2538 265.9 17.4239 266.056 17.5487C266.213 17.6735 266.457 17.7775 266.79 17.8607L267.627 18.0662C268.131 18.1886 268.507 18.3758 268.754 18.6278C269.001 18.8774 269.125 19.1992 269.125 19.5931C269.125 19.9161 269.032 20.2049 268.846 20.4593C268.662 20.7138 268.405 20.9145 268.075 21.0613C267.745 21.2081 267.36 21.2815 266.922 21.2815C266.347 21.2815 265.871 21.1567 265.495 20.9071C265.118 20.6575 264.879 20.2929 264.779 19.8133L265.601 19.6078C265.679 19.9112 265.827 20.1388 266.045 20.2905C266.265 20.4422 266.553 20.5181 266.908 20.5181C267.311 20.5181 267.632 20.4324 267.869 20.2611C268.109 20.0874 268.229 19.8794 268.229 19.6372C268.229 19.4414 268.161 19.2775 268.023 19.1453C267.886 19.0107 267.676 18.9104 267.392 18.8444L266.453 18.6241C265.936 18.5018 265.557 18.3121 265.315 18.0552C265.075 17.7958 264.955 17.4716 264.955 17.0825C264.955 16.7644 265.044 16.483 265.223 16.2384C265.404 15.9937 265.65 15.8016 265.961 15.6621C266.274 15.5226 266.629 15.4529 267.025 15.4529C267.583 15.4529 268.021 15.5752 268.339 15.8199C268.66 16.0646 268.887 16.3876 269.022 16.7889ZM272.88 15.5263V16.2604H269.959V15.5263H272.88ZM270.81 14.1756H271.676V19.5491C271.676 19.7938 271.712 19.9773 271.783 20.0996C271.856 20.2195 271.949 20.3003 272.062 20.3419C272.177 20.381 272.298 20.4006 272.425 20.4006C272.521 20.4006 272.599 20.3957 272.66 20.3859C272.721 20.3737 272.77 20.3639 272.807 20.3566L272.983 21.1347C272.924 21.1567 272.842 21.1787 272.737 21.2008C272.632 21.2252 272.499 21.2375 272.337 21.2375C272.092 21.2375 271.853 21.1849 271.618 21.0796C271.385 20.9744 271.192 20.8141 271.038 20.5988C270.886 20.3835 270.81 20.1119 270.81 19.784V14.1756ZM274.815 21.2228C274.634 21.2228 274.478 21.1579 274.349 21.0283C274.219 20.8986 274.154 20.7432 274.154 20.5621C274.154 20.381 274.219 20.2257 274.349 20.096C274.478 19.9663 274.634 19.9014 274.815 19.9014C274.996 19.9014 275.151 19.9663 275.281 20.096C275.411 20.2257 275.475 20.381 275.475 20.5621C275.475 20.682 275.445 20.7921 275.384 20.8925C275.325 20.9928 275.245 21.0735 275.145 21.1347C275.047 21.1934 274.937 21.2228 274.815 21.2228ZM277.661 21.2228C277.48 21.2228 277.325 21.1579 277.195 21.0283C277.065 20.8986 277 20.7432 277 20.5621C277 20.381 277.065 20.2257 277.195 20.096C277.325 19.9663 277.48 19.9014 277.661 19.9014C277.842 19.9014 277.998 19.9663 278.127 20.096C278.257 20.2257 278.322 20.381 278.322 20.5621C278.322 20.682 278.291 20.7921 278.23 20.8925C278.171 20.9928 278.092 21.0735 277.991 21.1347C277.894 21.1934 277.783 21.2228 277.661 21.2228ZM280.508 21.2228C280.326 21.2228 280.171 21.1579 280.041 21.0283C279.912 20.8986 279.847 20.7432 279.847 20.5621C279.847 20.381 279.912 20.2257 280.041 20.096C280.171 19.9663 280.326 19.9014 280.508 19.9014C280.689 19.9014 280.844 19.9663 280.974 20.096C281.103 20.2257 281.168 20.381 281.168 20.5621C281.168 20.682 281.138 20.7921 281.076 20.8925C281.018 20.9928 280.938 21.0735 280.838 21.1347C280.74 21.1934 280.63 21.2228 280.508 21.2228Z" fill="#343A40"/>
<rect x="60.3208" y="36.2188" width="13.289" height="13.289" rx="2.95312" fill="#FFEDD5"/>
<rect x="63.6431" y="39.543" width="6.09081" height="6.09081" rx="3.04541" fill="#FFEDD5"/>
<path d="M68.4014 44.6191C68.3126 44.6191 68.2375 44.5885 68.1762 44.5271C68.1148 44.4658 68.0842 44.3907 68.0842 44.3019V40.8758C68.0842 40.787 68.1148 40.7119 68.1762 40.6506C68.2375 40.5893 68.3126 40.5586 68.4014 40.5586C68.4902 40.5586 68.5653 40.5893 68.6266 40.6506C68.688 40.7119 68.7186 40.787 68.7186 40.8758V44.3019C68.7186 44.3907 68.688 44.4658 68.6266 44.5271C68.5653 44.5885 68.4902 44.6191 68.4014 44.6191ZM65.2354 44.6191C65.1889 44.6191 65.1456 44.6107 65.1054 44.5938C65.0652 44.5768 65.0314 44.5546 65.0039 44.5271C64.9764 44.4996 64.9542 44.4658 64.9372 44.4256C64.9203 44.3854 64.9119 44.3442 64.9119 44.3019V43.4137C64.9119 43.3248 64.9425 43.2498 65.0039 43.1884C65.0652 43.1271 65.1403 43.0964 65.2291 43.0964C65.3179 43.0964 65.393 43.1271 65.4543 43.1884C65.5157 43.2498 65.5463 43.3248 65.5463 43.4137V44.3019C65.5463 44.3442 65.5379 44.3854 65.5209 44.4256C65.504 44.4658 65.4818 44.4996 65.4543 44.5271C65.4268 44.5546 65.3941 44.5768 65.356 44.5938C65.3179 44.6107 65.2777 44.6191 65.2354 44.6191ZM66.8152 44.6191C66.7264 44.6191 66.6513 44.5885 66.59 44.5271C66.5287 44.4658 66.498 44.3907 66.498 44.3019V42.1447C66.498 42.0559 66.5287 41.9808 66.59 41.9195C66.6513 41.8582 66.7264 41.8275 66.8152 41.8275C66.9041 41.8275 66.9791 41.8582 67.0405 41.9195C67.1018 41.9808 67.1325 42.0559 67.1325 42.1447V44.3019C67.1325 44.3907 67.1018 44.4658 67.0405 44.5271C66.9791 44.5885 66.9041 44.6191 66.8152 44.6191Z" fill="#FF6B00"/>
<circle cx="45.5547" cy="42.8633" r="6.64452" stroke="#FCBE1D" stroke-width="0.55371" stroke-linecap="round" stroke-dasharray="0 11.07 0 5.54"/>
<path d="M48.7205 38.7783C47.8076 38.0709 46.684 37.6896 45.5291 37.6954C44.3742 37.7011 43.2545 38.0936 42.3487 38.8102L45.5549 42.8633L48.7205 38.7783Z" fill="#FCBE1D"/>
<path d="M42.3803 46.9482C43.2932 47.6557 44.4168 48.037 45.5717 48.0312C46.7267 48.0254 47.8464 47.6329 48.7522 46.9164L45.5459 42.8633L42.3803 46.9482Z" fill="#FCBE1D"/>
<g clip-path="url(#clip0_4142_75678)">
<path d="M89.3569 43.957C89.2474 43.957 89.1555 43.92 89.0814 43.8458C89.0073 43.7717 88.9702 43.6799 88.9702 43.5703C88.9702 43.4607 89.0073 43.3689 89.0814 43.2948C89.1555 43.2206 89.2474 43.1836 89.3569 43.1836C89.4665 43.1836 89.5583 43.2206 89.6325 43.2948C89.7066 43.3689 89.7436 43.4607 89.7436 43.5703C89.7436 43.6799 89.7066 43.7717 89.6325 43.8458C89.5583 43.92 89.4665 43.957 89.3569 43.957ZM87.8101 43.957C87.7005 43.957 87.6086 43.92 87.5345 43.8458C87.4604 43.7717 87.4233 43.6799 87.4233 43.5703C87.4233 43.4607 87.4604 43.3689 87.5345 43.2948C87.6086 43.2206 87.7005 43.1836 87.8101 43.1836C87.9196 43.1836 88.0115 43.2206 88.0856 43.2948C88.1597 43.3689 88.1968 43.4607 88.1968 43.5703C88.1968 43.6799 88.1597 43.7717 88.0856 43.8458C88.0115 43.92 87.9196 43.957 87.8101 43.957ZM90.9038 43.957C90.7942 43.957 90.7024 43.92 90.6283 43.8458C90.5541 43.7717 90.5171 43.6799 90.5171 43.5703C90.5171 43.4607 90.5541 43.3689 90.6283 43.2948C90.7024 43.2206 90.7942 43.1836 90.9038 43.1836C91.0134 43.1836 91.1052 43.2206 91.1793 43.2948C91.2535 43.3689 91.2905 43.4607 91.2905 43.5703C91.2905 43.6799 91.2535 43.7717 91.1793 43.8458C91.1052 43.92 91.0134 43.957 90.9038 43.957ZM89.3569 45.5039C89.2474 45.5039 89.1555 45.4668 89.0814 45.3927C89.0073 45.3186 88.9702 45.2267 88.9702 45.1172C88.9702 45.0076 89.0073 44.9158 89.0814 44.8416C89.1555 44.7675 89.2474 44.7305 89.3569 44.7305C89.4665 44.7305 89.5583 44.7675 89.6325 44.8416C89.7066 44.9158 89.7436 45.0076 89.7436 45.1172C89.7436 45.2267 89.7066 45.3186 89.6325 45.3927C89.5583 45.4668 89.4665 45.5039 89.3569 45.5039ZM87.8101 45.5039C87.7005 45.5039 87.6086 45.4668 87.5345 45.3927C87.4604 45.3186 87.4233 45.2267 87.4233 45.1172C87.4233 45.0076 87.4604 44.9158 87.5345 44.8416C87.6086 44.7675 87.7005 44.7305 87.8101 44.7305C87.9196 44.7305 88.0115 44.7675 88.0856 44.8416C88.1597 44.9158 88.1968 45.0076 88.1968 45.1172C88.1968 45.2267 88.1597 45.3186 88.0856 45.3927C88.0115 45.4668 87.9196 45.5039 87.8101 45.5039ZM90.9038 45.5039C90.7942 45.5039 90.7024 45.4668 90.6283 45.3927C90.5541 45.3186 90.5171 45.2267 90.5171 45.1172C90.5171 45.0076 90.5541 44.9158 90.6283 44.8416C90.7024 44.7675 90.7942 44.7305 90.9038 44.7305C91.0134 44.7305 91.1052 44.7675 91.1793 44.8416C91.2535 44.9158 91.2905 45.0076 91.2905 45.1172C91.2905 45.2267 91.2535 45.3186 91.1793 45.3927C91.1052 45.4668 91.0134 45.5039 90.9038 45.5039ZM86.4565 47.0508C86.3019 47.0508 86.1665 46.9928 86.0505 46.8767C85.9345 46.7607 85.8765 46.6254 85.8765 46.4707V40.4766C85.8765 40.3219 85.9345 40.1865 86.0505 40.0705C86.1665 39.9545 86.3019 39.8965 86.4565 39.8965H87.085V39.6258C87.085 39.5355 87.114 39.4614 87.172 39.4034C87.23 39.3454 87.3041 39.3164 87.3943 39.3164C87.4846 39.3164 87.5603 39.3454 87.6215 39.4034C87.6828 39.4614 87.7134 39.5355 87.7134 39.6258V39.8965H91.0005V39.6258C91.0005 39.5355 91.0295 39.4614 91.0875 39.4034C91.1455 39.3454 91.2196 39.3164 91.3099 39.3164C91.4001 39.3164 91.4758 39.3454 91.5371 39.4034C91.5983 39.4614 91.6289 39.5355 91.6289 39.6258V39.8965H92.2573C92.412 39.8965 92.5474 39.9545 92.6634 40.0705C92.7794 40.1865 92.8374 40.3219 92.8374 40.4766V46.4707C92.8374 46.6254 92.7794 46.7607 92.6634 46.8767C92.5474 46.9928 92.412 47.0508 92.2573 47.0508H86.4565ZM86.4565 46.4707H92.2573V42.3135H86.4565V46.4707ZM86.4565 41.7334H92.2573V40.4766H86.4565V41.7334ZM86.4565 41.7334V40.4766V41.7334Z" fill="#858E96"/>
</g>
<path d="M98.4932 46.8203H96.9309V41.7578H98.5624C99.0535 41.7578 99.4737 41.8592 99.8231 42.0619C100.172 42.2629 100.44 42.5521 100.626 42.9295C100.813 43.3052 100.906 43.7551 100.906 44.2792C100.906 44.8065 100.812 45.2605 100.624 45.6412C100.436 46.0202 100.163 46.3119 99.8033 46.5163C99.444 46.719 99.0073 46.8203 98.4932 46.8203ZM97.5439 46.2765H98.4536C98.8722 46.2765 99.2191 46.1957 99.4943 46.0342C99.7695 45.8727 99.9747 45.6429 100.11 45.3446C100.245 45.0463 100.312 44.6912 100.312 44.2792C100.312 43.8705 100.246 43.5187 100.112 43.2237C99.9788 42.927 99.7794 42.6996 99.5141 42.5414C99.2487 42.3816 98.9183 42.3016 98.5228 42.3016H97.5439V46.2765ZM103.447 46.8994C103.081 46.8994 102.765 46.8187 102.5 46.6572C102.236 46.494 102.033 46.2666 101.89 45.9749C101.748 45.6816 101.677 45.3405 101.677 44.9515C101.677 44.5626 101.748 44.2199 101.89 43.9232C102.033 43.6249 102.232 43.3926 102.488 43.2261C102.745 43.058 103.045 42.974 103.388 42.974C103.585 42.974 103.781 43.007 103.973 43.0729C104.166 43.1388 104.342 43.2459 104.5 43.3942C104.658 43.5409 104.784 43.7354 104.878 43.9776C104.972 44.2199 105.019 44.5181 105.019 44.8724V45.1196H102.092V44.6154H104.426C104.426 44.4011 104.383 44.21 104.297 44.0419C104.213 43.8738 104.093 43.7411 103.936 43.6439C103.781 43.5467 103.599 43.4981 103.388 43.4981C103.155 43.4981 102.954 43.5557 102.784 43.6711C102.616 43.7848 102.487 43.9331 102.396 44.116C102.306 44.299 102.26 44.4951 102.26 44.7043V45.0405C102.26 45.3273 102.31 45.5703 102.409 45.7697C102.509 45.9675 102.648 46.1183 102.826 46.2221C103.004 46.3243 103.211 46.3754 103.447 46.3754C103.6 46.3754 103.739 46.3539 103.862 46.3111C103.987 46.2666 104.095 46.2007 104.186 46.1133C104.277 46.0244 104.347 45.9139 104.396 45.7821L104.96 45.9403C104.9 46.1315 104.801 46.2996 104.661 46.4446C104.521 46.588 104.347 46.7 104.141 46.7808C103.936 46.8599 103.704 46.8994 103.447 46.8994ZM107.449 46.8994C107.093 46.8994 106.786 46.8154 106.529 46.6473C106.272 46.4792 106.075 46.2477 105.936 45.9527C105.798 45.6577 105.728 45.3207 105.728 44.9417C105.728 44.556 105.799 44.2157 105.941 43.9207C106.084 43.6241 106.284 43.3926 106.539 43.2261C106.796 43.058 107.096 42.974 107.439 42.974C107.706 42.974 107.947 43.0234 108.161 43.1223C108.375 43.2212 108.551 43.3596 108.687 43.5376C108.824 43.7156 108.909 43.9232 108.942 44.1605H108.359C108.314 43.9875 108.215 43.8342 108.062 43.7007C107.91 43.5656 107.706 43.4981 107.449 43.4981C107.222 43.4981 107.022 43.5574 106.851 43.676C106.681 43.793 106.548 43.9587 106.453 44.1729C106.359 44.3855 106.312 44.6351 106.312 44.9219C106.312 45.2152 106.358 45.4706 106.45 45.6882C106.544 45.9057 106.676 46.0746 106.846 46.1949C107.017 46.3152 107.218 46.3754 107.449 46.3754C107.601 46.3754 107.738 46.349 107.862 46.2963C107.985 46.2435 108.09 46.1677 108.176 46.0688C108.261 45.97 108.322 45.8513 108.359 45.7129H108.942C108.909 45.937 108.827 46.1389 108.697 46.3185C108.569 46.4965 108.398 46.6382 108.186 46.7437C107.975 46.8475 107.729 46.8994 107.449 46.8994ZM113.522 41.7578V46.8203H112.909V42.4005H112.88L111.644 43.2212V42.5983L112.909 41.7578H113.522ZM114.978 46.8203V46.3754L116.649 44.5461C116.846 44.3319 117.007 44.1457 117.134 43.9875C117.261 43.8276 117.355 43.6777 117.416 43.5376C117.478 43.3959 117.51 43.2476 117.51 43.0927C117.51 42.9147 117.467 42.7606 117.381 42.6304C117.297 42.5002 117.182 42.3997 117.035 42.3288C116.888 42.258 116.724 42.2225 116.541 42.2225C116.346 42.2225 116.176 42.2629 116.031 42.3437C115.888 42.4228 115.777 42.534 115.698 42.6774C115.62 42.8207 115.582 42.9888 115.582 43.1816H114.998C114.998 42.885 115.067 42.6246 115.203 42.4005C115.34 42.1764 115.526 42.0017 115.762 41.8765C115.999 41.7512 116.265 41.6886 116.56 41.6886C116.857 41.6886 117.12 41.7512 117.349 41.8765C117.578 42.0017 117.758 42.1706 117.888 42.3832C118.018 42.5958 118.083 42.8323 118.083 43.0927C118.083 43.2789 118.049 43.461 117.982 43.639C117.916 43.8153 117.801 44.0122 117.636 44.2297C117.473 44.4456 117.246 44.7093 116.956 45.0208L115.819 46.2369V46.2765H118.172V46.8203H114.978Z" fill="#495057"/>
<rect x="81.922" y="36.4103" width="40.2223" height="13.5388" rx="2.12877" stroke="#DEE2E6" stroke-width="0.38307"/>
<g filter="url(#filter1_d_4142_75678)">
<rect x="3" y="26.3516" width="272.425" height="56.8476" rx="5.90624" fill="white"/>
</g>
<path d="M14.1162 43.9922V37.549H16.2933C16.7987 37.549 17.2119 37.6403 17.5328 37.8227C17.8558 38.0031 18.0949 38.2474 18.2501 38.5558C18.4053 38.8641 18.4829 39.208 18.4829 39.5877C18.4829 39.9673 18.4053 40.3123 18.2501 40.6227C18.097 40.9331 17.86 41.1806 17.5391 41.3652C17.2182 41.5477 16.8071 41.6389 16.3058 41.6389H14.7454V40.9468H16.2807C16.6267 40.9468 16.9046 40.887 17.1144 40.7675C17.3241 40.6479 17.4762 40.4864 17.5706 40.283C17.667 40.0774 17.7153 39.8457 17.7153 39.5877C17.7153 39.3297 17.667 39.099 17.5706 38.8955C17.4762 38.6921 17.3231 38.5327 17.1112 38.4173C16.8994 38.2999 16.6183 38.2412 16.2681 38.2412H14.8964V43.9922H14.1162ZM19.7398 43.9922V37.549H20.52V43.3H23.5151V43.9922H19.7398ZM26.6384 40.4245V41.1167H23.8195V40.4245H26.6384ZM30.1974 37.549V43.9922H29.4171V38.367H29.3794L27.8063 39.4115V38.6187L29.4171 37.549H30.1974ZM31.8994 42.6708V42.029L34.7309 37.549H35.1965V38.5432H34.8819L32.7425 41.9284V41.9787H36.5556V42.6708H31.8994ZM34.9322 43.9922V42.4758V42.1769V37.549H35.6747V43.9922H34.9322ZM37.5836 42.6708V42.029L40.415 37.549H40.8807V38.5432H40.566L38.4267 41.9284V41.9787H42.2398V42.6708H37.5836ZM40.6164 43.9922V42.4758V42.1769V37.549H41.3589V43.9922H40.6164Z" fill="#858E96"/>
<path d="M52.6366 44.5156V36.9986H57.1732V37.8061H53.5469V40.346H56.9383V41.1535H53.5469V43.7081H57.232V44.5156H52.6366ZM62.6899 40.1405L61.9118 40.3607C61.8628 40.231 61.7906 40.105 61.6952 39.9826C61.6022 39.8579 61.475 39.7551 61.3135 39.6743C61.152 39.5936 60.9452 39.5532 60.6932 39.5532C60.3482 39.5532 60.0606 39.6327 59.8306 39.7918C59.6031 39.9484 59.4893 40.1478 59.4893 40.3901C59.4893 40.6054 59.5676 40.7755 59.7242 40.9003C59.8808 41.025 60.1255 41.129 60.4583 41.2122L61.2951 41.4178C61.7992 41.5401 62.1748 41.7273 62.4219 41.9794C62.6691 42.2289 62.7927 42.5507 62.7927 42.9447C62.7927 43.2677 62.6997 43.5564 62.5137 43.8109C62.3302 44.0654 62.0733 44.266 61.7429 44.4129C61.4126 44.5597 61.0284 44.6331 60.5904 44.6331C60.0154 44.6331 59.5394 44.5083 59.1626 44.2587C58.7858 44.0091 58.5472 43.6445 58.4469 43.1649L59.269 42.9594C59.3473 43.2628 59.4954 43.4904 59.7132 43.6421C59.9334 43.7938 60.2209 43.8696 60.5757 43.8696C60.9795 43.8696 61.3 43.784 61.5374 43.6127C61.7772 43.439 61.8971 43.231 61.8971 42.9887C61.8971 42.793 61.8286 42.629 61.6915 42.4969C61.5545 42.3623 61.3441 42.262 61.0602 42.1959L60.1206 41.9757C59.6043 41.8533 59.225 41.6637 58.9828 41.4068C58.743 41.1474 58.6231 40.8232 58.6231 40.4341C58.6231 40.116 58.7124 39.8346 58.891 39.5899C59.0721 39.3452 59.318 39.1531 59.6287 39.0137C59.942 38.8742 60.2968 38.8044 60.6932 38.8044C61.2511 38.8044 61.6891 38.9268 62.0072 39.1715C62.3277 39.4162 62.5553 39.7392 62.6899 40.1405ZM66.5484 38.8778V39.6119H63.6268V38.8778H66.5484ZM64.4783 37.5271H65.3445V42.9006C65.3445 43.1453 65.38 43.3289 65.451 43.4512C65.5244 43.5711 65.6174 43.6519 65.7299 43.6934C65.8449 43.7326 65.966 43.7522 66.0933 43.7522C66.1887 43.7522 66.267 43.7473 66.3282 43.7375C66.3894 43.7253 66.4383 43.7155 66.475 43.7081L66.6512 44.4863C66.5925 44.5083 66.5105 44.5303 66.4053 44.5523C66.3001 44.5768 66.1667 44.589 66.0052 44.589C65.7605 44.589 65.5207 44.5364 65.2858 44.4312C65.0533 44.326 64.86 44.1657 64.7059 43.9504C64.5542 43.735 64.4783 43.4634 64.4783 43.1355V37.5271ZM69.5105 44.6478C69.1532 44.6478 68.829 44.5805 68.5378 44.4459C68.2466 44.3089 68.0154 44.1119 67.8441 43.8549C67.6728 43.5956 67.5871 43.2824 67.5871 42.9153C67.5871 42.5923 67.6508 42.3305 67.778 42.1298C67.9053 41.9268 68.0753 41.7677 68.2882 41.6527C68.5011 41.5377 68.736 41.452 68.9929 41.3958C69.2523 41.337 69.5129 41.2905 69.7747 41.2563C70.1173 41.2122 70.395 41.1792 70.6079 41.1572C70.8232 41.1327 70.9798 41.0923 71.0777 41.0361C71.1781 40.9798 71.2282 40.8819 71.2282 40.7424V40.7131C71.2282 40.3509 71.1291 40.0695 70.9309 39.8689C70.7352 39.6682 70.4378 39.5679 70.039 39.5679C69.6255 39.5679 69.3012 39.6584 69.0663 39.8395C68.8314 40.0206 68.6663 40.2139 68.5708 40.4194L67.7486 40.1258C67.8955 39.7832 68.0912 39.5165 68.3359 39.3256C68.5831 39.1323 68.8522 38.9978 69.1434 38.9219C69.437 38.8436 69.7258 38.8044 70.0096 38.8044C70.1907 38.8044 70.3987 38.8265 70.6336 38.8705C70.871 38.9121 71.0997 38.999 71.32 39.1311C71.5426 39.2632 71.7274 39.4627 71.8742 39.7294C72.021 39.9961 72.0944 40.3534 72.0944 40.8012V44.5156H71.2282V43.7522H71.1842C71.1254 43.8745 71.0276 44.0054 70.8905 44.1449C70.7535 44.2844 70.5712 44.4031 70.3436 44.5009C70.1161 44.5988 69.8383 44.6478 69.5105 44.6478ZM69.6426 43.8696C69.9852 43.8696 70.2739 43.8023 70.5088 43.6678C70.7462 43.5332 70.9248 43.3594 71.0447 43.1466C71.167 42.9337 71.2282 42.7098 71.2282 42.4749V41.6821C71.1915 41.7261 71.1108 41.7665 70.986 41.8032C70.8636 41.8374 70.7217 41.868 70.5602 41.8949C70.4011 41.9194 70.2458 41.9414 70.0941 41.961C69.9448 41.9781 69.8237 41.9928 69.7307 42.0051C69.5056 42.0344 69.2951 42.0821 69.0994 42.1482C68.9061 42.2118 68.7495 42.3085 68.6296 42.4382C68.5121 42.5654 68.4534 42.7391 68.4534 42.9594C68.4534 43.2603 68.5647 43.4879 68.7874 43.6421C69.0125 43.7938 69.2976 43.8696 69.6426 43.8696ZM73.7929 44.5156V36.9986H74.6591V39.7734H74.7326C74.7962 39.6756 74.8843 39.5508 74.9968 39.3991C75.1118 39.2449 75.2758 39.1079 75.4887 38.988C75.704 38.8656 75.9952 38.8044 76.3622 38.8044C76.8369 38.8044 77.2554 38.9231 77.6175 39.1605C77.9797 39.3978 78.2623 39.7343 78.4654 40.1698C78.6685 40.6054 78.77 41.1193 78.77 41.7114C78.77 42.3085 78.6685 42.826 78.4654 43.264C78.2623 43.6996 77.9809 44.0372 77.6212 44.277C77.2615 44.5144 76.8467 44.6331 76.3769 44.6331C76.0148 44.6331 75.7248 44.5731 75.507 44.4532C75.2892 44.3309 75.1216 44.1926 75.0042 44.0385C74.8867 43.8819 74.7962 43.7522 74.7326 43.6494H74.6298V44.5156H73.7929ZM74.6445 41.6967C74.6445 42.1225 74.7069 42.4981 74.8317 42.8236C74.9564 43.1466 75.1387 43.3998 75.3785 43.5833C75.6183 43.7644 75.912 43.8549 76.2595 43.8549C76.6216 43.8549 76.9238 43.7595 77.166 43.5687C77.4107 43.3753 77.5943 43.116 77.7166 42.7905C77.8414 42.4626 77.9038 42.098 77.9038 41.6967C77.9038 41.3003 77.8426 40.9431 77.7203 40.625C77.6004 40.3044 77.4181 40.0512 77.1734 39.8652C76.9311 39.6768 76.6265 39.5826 76.2595 39.5826C75.9071 39.5826 75.611 39.6719 75.3712 39.8505C75.1314 40.0267 74.9503 40.2738 74.828 40.5919C74.7056 40.9076 74.6445 41.2759 74.6445 41.6967ZM80.9613 36.9986V44.5156H80.095V36.9986H80.9613ZM82.5478 44.5156V38.8778H83.414V44.5156H82.5478ZM82.9883 37.9382C82.8194 37.9382 82.6738 37.8807 82.5515 37.7657C82.4316 37.6507 82.3716 37.5125 82.3716 37.351C82.3716 37.1895 82.4316 37.0512 82.5515 36.9362C82.6738 36.8212 82.8194 36.7637 82.9883 36.7637C83.1571 36.7637 83.3015 36.8212 83.4214 36.9362C83.5437 37.0512 83.6049 37.1895 83.6049 37.351C83.6049 37.5125 83.5437 37.6507 83.4214 37.7657C83.3015 37.8807 83.1571 37.9382 82.9883 37.9382ZM88.994 40.1405L88.2159 40.3607C88.1669 40.231 88.0947 40.105 87.9993 39.9826C87.9063 39.8579 87.7791 39.7551 87.6176 39.6743C87.4561 39.5936 87.2493 39.5532 86.9973 39.5532C86.6523 39.5532 86.3647 39.6327 86.1347 39.7918C85.9072 39.9484 85.7934 40.1478 85.7934 40.3901C85.7934 40.6054 85.8717 40.7755 86.0283 40.9003C86.1849 41.025 86.4296 41.129 86.7624 41.2122L87.5992 41.4178C88.1033 41.5401 88.4789 41.7273 88.7261 41.9794C88.9732 42.2289 89.0968 42.5507 89.0968 42.9447C89.0968 43.2677 89.0038 43.5564 88.8178 43.8109C88.6343 44.0654 88.3774 44.266 88.047 44.4129C87.7167 44.5597 87.3325 44.6331 86.8945 44.6331C86.3195 44.6331 85.8435 44.5083 85.4667 44.2587C85.0899 44.0091 84.8513 43.6445 84.751 43.1649L85.5732 42.9594C85.6515 43.2628 85.7995 43.4904 86.0173 43.6421C86.2375 43.7938 86.525 43.8696 86.8798 43.8696C87.2836 43.8696 87.6041 43.784 87.8415 43.6127C88.0813 43.439 88.2012 43.231 88.2012 42.9887C88.2012 42.793 88.1327 42.629 87.9956 42.4969C87.8586 42.3623 87.6482 42.262 87.3643 42.1959L86.4247 41.9757C85.9084 41.8533 85.5291 41.6637 85.2869 41.4068C85.0471 41.1474 84.9272 40.8232 84.9272 40.4341C84.9272 40.116 85.0165 39.8346 85.1951 39.5899C85.3762 39.3452 85.6221 39.1531 85.9329 39.0137C86.2461 38.8742 86.6009 38.8044 86.9973 38.8044C87.5552 38.8044 87.9932 38.9268 88.3113 39.1715C88.6318 39.4162 88.8594 39.7392 88.994 40.1405ZM91.2669 41.1242V44.5156H90.4007V36.9986H91.2669V39.7588H91.3403C91.4724 39.4676 91.6707 39.2363 91.9349 39.065C92.2016 38.8913 92.5564 38.8044 92.9993 38.8044C93.3835 38.8044 93.72 38.8815 94.0087 39.0357C94.2975 39.1874 94.5213 39.4211 94.6804 39.7367C94.8419 40.0499 94.9226 40.4488 94.9226 40.9333V44.5156H94.0564V40.992C94.0564 40.5442 93.9402 40.198 93.7077 39.9533C93.4777 39.7061 93.1584 39.5826 92.7498 39.5826C92.4659 39.5826 92.2114 39.6425 91.9863 39.7624C91.7636 39.8823 91.5875 40.0573 91.4578 40.2873C91.3305 40.5173 91.2669 40.7963 91.2669 41.1242ZM101.925 38.8778V39.6119H98.8858V38.8778H101.925ZM99.7961 44.5156V38.0997C99.7961 37.7767 99.8719 37.5076 100.024 37.2922C100.175 37.0769 100.372 36.9154 100.615 36.8077C100.857 36.7001 101.113 36.6462 101.382 36.6462C101.595 36.6462 101.768 36.6634 101.903 36.6976C102.037 36.7319 102.138 36.7637 102.204 36.793L101.954 37.5418C101.91 37.5271 101.849 37.5088 101.771 37.4868C101.695 37.4647 101.595 37.4537 101.47 37.4537C101.183 37.4537 100.977 37.5259 100.849 37.6703C100.725 37.8146 100.662 38.0263 100.662 38.3053V44.5156H99.7961ZM103.139 44.5156V38.8778H104.005V44.5156H103.139ZM103.579 37.9382C103.411 37.9382 103.265 37.8807 103.143 37.7657C103.023 37.6507 102.963 37.5125 102.963 37.351C102.963 37.1895 103.023 37.0512 103.143 36.9362C103.265 36.8212 103.411 36.7637 103.579 36.7637C103.748 36.7637 103.893 36.8212 104.012 36.9362C104.135 37.0512 104.196 37.1895 104.196 37.351C104.196 37.5125 104.135 37.6507 104.012 37.7657C103.893 37.8807 103.748 37.9382 103.579 37.9382ZM106.458 41.1242V44.5156H105.592V38.8778H106.429V39.7588H106.502C106.634 39.4725 106.835 39.2424 107.104 39.0687C107.373 38.8925 107.721 38.8044 108.146 38.8044C108.528 38.8044 108.862 38.8827 109.148 39.0393C109.435 39.1935 109.657 39.4284 109.816 39.7441C109.975 40.0573 110.055 40.4537 110.055 40.9333V44.5156H109.189V40.992C109.189 40.5491 109.074 40.2041 108.844 39.957C108.614 39.7074 108.298 39.5826 107.897 39.5826C107.62 39.5826 107.373 39.6425 107.155 39.7624C106.94 39.8823 106.77 40.0573 106.645 40.2873C106.52 40.5173 106.458 40.7963 106.458 41.1242ZM113.297 44.6478C112.94 44.6478 112.615 44.5805 112.324 44.4459C112.033 44.3089 111.802 44.1119 111.63 43.8549C111.459 43.5956 111.374 43.2824 111.374 42.9153C111.374 42.5923 111.437 42.3305 111.564 42.1298C111.692 41.9268 111.862 41.7677 112.075 41.6527C112.287 41.5377 112.522 41.452 112.779 41.3958C113.039 41.337 113.299 41.2905 113.561 41.2563C113.904 41.2122 114.181 41.1792 114.394 41.1572C114.61 41.1327 114.766 41.0923 114.864 41.0361C114.964 40.9798 115.015 40.8819 115.015 40.7424V40.7131C115.015 40.3509 114.915 40.0695 114.717 39.8689C114.522 39.6682 114.224 39.5679 113.825 39.5679C113.412 39.5679 113.088 39.6584 112.853 39.8395C112.618 40.0206 112.453 40.2139 112.357 40.4194L111.535 40.1258C111.682 39.7832 111.878 39.5165 112.122 39.3256C112.369 39.1323 112.639 38.9978 112.93 38.9219C113.223 38.8436 113.512 38.8044 113.796 38.8044C113.977 38.8044 114.185 38.8265 114.42 38.8705C114.657 38.9121 114.886 38.999 115.106 39.1311C115.329 39.2632 115.514 39.4627 115.661 39.7294C115.807 39.9961 115.881 40.3534 115.881 40.8012V44.5156H115.015V43.7522H114.971C114.912 43.8745 114.814 44.0054 114.677 44.1449C114.54 44.2844 114.358 44.4031 114.13 44.5009C113.902 44.5988 113.625 44.6478 113.297 44.6478ZM113.429 43.8696C113.772 43.8696 114.06 43.8023 114.295 43.6678C114.533 43.5332 114.711 43.3594 114.831 43.1466C114.953 42.9337 115.015 42.7098 115.015 42.4749V41.6821C114.978 41.7261 114.897 41.7665 114.772 41.8032C114.65 41.8374 114.508 41.868 114.347 41.8949C114.187 41.9194 114.032 41.9414 113.88 41.961C113.731 41.9781 113.61 41.9928 113.517 42.0051C113.292 42.0344 113.081 42.0821 112.886 42.1482C112.692 42.2118 112.536 42.3085 112.416 42.4382C112.298 42.5654 112.24 42.7391 112.24 42.9594C112.24 43.2603 112.351 43.4879 112.574 43.6421C112.799 43.7938 113.084 43.8696 113.429 43.8696ZM118.328 41.1242V44.5156H117.462V38.8778H118.299V39.7588H118.372C118.504 39.4725 118.705 39.2424 118.974 39.0687C119.243 38.8925 119.591 38.8044 120.016 38.8044C120.398 38.8044 120.732 38.8827 121.018 39.0393C121.305 39.1935 121.527 39.4284 121.686 39.7441C121.846 40.0573 121.925 40.4537 121.925 40.9333V44.5156H121.059V40.992C121.059 40.5491 120.944 40.2041 120.714 39.957C120.484 39.7074 120.168 39.5826 119.767 39.5826C119.49 39.5826 119.243 39.6425 119.025 39.7624C118.81 39.8823 118.64 40.0573 118.515 40.2873C118.39 40.5173 118.328 40.7963 118.328 41.1242ZM125.798 44.6331C125.27 44.6331 124.815 44.5083 124.433 44.2587C124.051 44.0091 123.758 43.6653 123.552 43.2273C123.346 42.7893 123.244 42.2889 123.244 41.7261C123.244 41.1535 123.349 40.6482 123.559 40.2102C123.772 39.7698 124.068 39.426 124.448 39.1788C124.829 38.9292 125.275 38.8044 125.784 38.8044C126.18 38.8044 126.537 38.8778 126.855 39.0247C127.173 39.1715 127.434 39.377 127.637 39.6413C127.84 39.9056 127.966 40.2139 128.015 40.5662H127.149C127.083 40.3093 126.936 40.0817 126.709 39.8835C126.483 39.6829 126.18 39.5826 125.798 39.5826C125.461 39.5826 125.165 39.6707 124.91 39.8468C124.658 40.0206 124.461 40.2665 124.319 40.5846C124.18 40.9003 124.11 41.271 124.11 41.6967C124.11 42.1323 124.178 42.5116 124.315 42.8346C124.455 43.1576 124.651 43.4084 124.903 43.587C125.157 43.7656 125.456 43.8549 125.798 43.8549C126.023 43.8549 126.228 43.8158 126.411 43.7375C126.595 43.6592 126.75 43.5466 126.877 43.3998C127.005 43.253 127.095 43.0768 127.149 42.8713H128.015C127.966 43.2041 127.845 43.5038 127.652 43.7705C127.461 44.0348 127.208 44.2452 126.892 44.4018C126.579 44.556 126.214 44.6331 125.798 44.6331ZM129.282 44.5156V38.8778H130.148V44.5156H129.282ZM129.722 37.9382C129.553 37.9382 129.408 37.8807 129.285 37.7657C129.165 37.6507 129.105 37.5125 129.105 37.351C129.105 37.1895 129.165 37.0512 129.285 36.9362C129.408 36.8212 129.553 36.7637 129.722 36.7637C129.891 36.7637 130.035 36.8212 130.155 36.9362C130.277 37.0512 130.339 37.1895 130.339 37.351C130.339 37.5125 130.277 37.6507 130.155 37.7657C130.035 37.8807 129.891 37.9382 129.722 37.9382ZM133.393 44.6478C133.036 44.6478 132.712 44.5805 132.421 44.4459C132.129 44.3089 131.898 44.1119 131.727 43.8549C131.556 43.5956 131.47 43.2824 131.47 42.9153C131.47 42.5923 131.534 42.3305 131.661 42.1298C131.788 41.9268 131.958 41.7677 132.171 41.6527C132.384 41.5377 132.619 41.452 132.876 41.3958C133.135 41.337 133.396 41.2905 133.658 41.2563C134 41.2122 134.278 41.1792 134.491 41.1572C134.706 41.1327 134.863 41.0923 134.961 41.0361C135.061 40.9798 135.111 40.8819 135.111 40.7424V40.7131C135.111 40.3509 135.012 40.0695 134.814 39.8689C134.618 39.6682 134.321 39.5679 133.922 39.5679C133.508 39.5679 133.184 39.6584 132.949 39.8395C132.714 40.0206 132.549 40.2139 132.454 40.4194L131.632 40.1258C131.778 39.7832 131.974 39.5165 132.219 39.3256C132.466 39.1323 132.735 38.9978 133.026 38.9219C133.32 38.8436 133.609 38.8044 133.892 38.8044C134.074 38.8044 134.282 38.8265 134.516 38.8705C134.754 38.9121 134.983 38.999 135.203 39.1311C135.426 39.2632 135.61 39.4627 135.757 39.7294C135.904 39.9961 135.977 40.3534 135.977 40.8012V44.5156H135.111V43.7522H135.067C135.008 43.8745 134.91 44.0054 134.773 44.1449C134.636 44.2844 134.454 44.4031 134.226 44.5009C133.999 44.5988 133.721 44.6478 133.393 44.6478ZM133.525 43.8696C133.868 43.8696 134.157 43.8023 134.392 43.6678C134.629 43.5332 134.808 43.3594 134.928 43.1466C135.05 42.9337 135.111 42.7098 135.111 42.4749V41.6821C135.074 41.7261 134.994 41.7665 134.869 41.8032C134.746 41.8374 134.605 41.868 134.443 41.8949C134.284 41.9194 134.129 41.9414 133.977 41.961C133.828 41.9781 133.707 41.9928 133.614 42.0051C133.388 42.0344 133.178 42.0821 132.982 42.1482C132.789 42.2118 132.632 42.3085 132.512 42.4382C132.395 42.5654 132.336 42.7391 132.336 42.9594C132.336 43.2603 132.448 43.4879 132.67 43.6421C132.895 43.7938 133.18 43.8696 133.525 43.8696ZM138.425 36.9986V44.5156H137.558V36.9986H138.425ZM145.208 44.6331C144.68 44.6331 144.225 44.5083 143.843 44.2587C143.461 44.0091 143.168 43.6653 142.962 43.2273C142.757 42.7893 142.654 42.2889 142.654 41.7261C142.654 41.1535 142.759 40.6482 142.969 40.2102C143.182 39.7698 143.478 39.426 143.858 39.1788C144.239 38.9292 144.685 38.8044 145.194 38.8044C145.59 38.8044 145.947 38.8778 146.265 39.0247C146.584 39.1715 146.844 39.377 147.047 39.6413C147.25 39.9056 147.376 40.2139 147.425 40.5662H146.559C146.493 40.3093 146.346 40.0817 146.119 39.8835C145.894 39.6829 145.59 39.5826 145.208 39.5826C144.871 39.5826 144.575 39.6707 144.32 39.8468C144.068 40.0206 143.871 40.2665 143.729 40.5846C143.59 40.9003 143.52 41.271 143.52 41.6967C143.52 42.1323 143.589 42.5116 143.726 42.8346C143.865 43.1576 144.061 43.4084 144.313 43.587C144.567 43.7656 144.866 43.8549 145.208 43.8549C145.434 43.8549 145.638 43.8158 145.821 43.7375C146.005 43.6592 146.16 43.5466 146.288 43.3998C146.415 43.253 146.505 43.0768 146.559 42.8713H147.425C147.376 43.2041 147.255 43.5038 147.062 43.7705C146.871 44.0348 146.618 44.2452 146.302 44.4018C145.989 44.556 145.624 44.6331 145.208 44.6331ZM150.982 44.6331C150.473 44.6331 150.026 44.512 149.642 44.2697C149.261 44.0275 148.962 43.6886 148.747 43.253C148.534 42.8174 148.427 42.3085 148.427 41.7261C148.427 41.1388 148.534 40.6262 148.747 40.1882C148.962 39.7502 149.261 39.4101 149.642 39.1678C150.026 38.9256 150.473 38.8044 150.982 38.8044C151.491 38.8044 151.936 38.9256 152.318 39.1678C152.702 39.4101 153.001 39.7502 153.214 40.1882C153.429 40.6262 153.537 41.1388 153.537 41.7261C153.537 42.3085 153.429 42.8174 153.214 43.253C153.001 43.6886 152.702 44.0275 152.318 44.2697C151.936 44.512 151.491 44.6331 150.982 44.6331ZM150.982 43.8549C151.369 43.8549 151.687 43.7558 151.936 43.5576C152.186 43.3594 152.371 43.0988 152.491 42.7758C152.61 42.4528 152.67 42.1029 152.67 41.7261C152.67 41.3493 152.61 40.9981 152.491 40.6727C152.371 40.3472 152.186 40.0842 151.936 39.8835C151.687 39.6829 151.369 39.5826 150.982 39.5826C150.595 39.5826 150.277 39.6829 150.028 39.8835C149.778 40.0842 149.593 40.3472 149.473 40.6727C149.354 40.9981 149.294 41.3493 149.294 41.7261C149.294 42.1029 149.354 42.4528 149.473 42.7758C149.593 43.0988 149.778 43.3594 150.028 43.5576C150.277 43.7558 150.595 43.8549 150.982 43.8549ZM155.725 41.1242V44.5156H154.859V38.8778H155.696V39.7588H155.769C155.901 39.4725 156.102 39.2424 156.371 39.0687C156.64 38.8925 156.988 38.8044 157.413 38.8044C157.795 38.8044 158.129 38.8827 158.416 39.0393C158.702 39.1935 158.924 39.4284 159.084 39.7441C159.243 40.0573 159.322 40.4537 159.322 40.9333V44.5156H158.456V40.992C158.456 40.5491 158.341 40.2041 158.111 39.957C157.881 39.7074 157.565 39.5826 157.164 39.5826C156.887 39.5826 156.64 39.6425 156.422 39.7624C156.207 39.8823 156.037 40.0573 155.912 40.2873C155.788 40.5173 155.725 40.7963 155.725 41.1242ZM163.357 38.8778V39.6119H160.435V38.8778H163.357ZM161.287 37.5271H162.153V42.9006C162.153 43.1453 162.188 43.3289 162.259 43.4512C162.333 43.5711 162.426 43.6519 162.538 43.6934C162.653 43.7326 162.774 43.7522 162.902 43.7522C162.997 43.7522 163.075 43.7473 163.137 43.7375C163.198 43.7253 163.247 43.7155 163.283 43.7081L163.46 44.4863C163.401 44.5083 163.319 44.5303 163.214 44.5523C163.108 44.5768 162.975 44.589 162.814 44.589C162.569 44.589 162.329 44.5364 162.094 44.4312C161.862 44.326 161.668 44.1657 161.514 43.9504C161.363 43.735 161.287 43.4634 161.287 43.1355V37.5271ZM164.66 44.5156V38.8778H165.497V39.7294H165.555C165.658 39.4504 165.844 39.2241 166.113 39.0504C166.382 38.8766 166.686 38.7898 167.024 38.7898C167.087 38.7898 167.167 38.791 167.262 38.7934C167.358 38.7959 167.43 38.7995 167.479 38.8044V39.6853C167.449 39.678 167.382 39.667 167.277 39.6523C167.174 39.6352 167.065 39.6266 166.95 39.6266C166.676 39.6266 166.431 39.6841 166.216 39.7991C166.003 39.9117 165.834 40.0683 165.71 40.2689C165.587 40.4671 165.526 40.6935 165.526 40.948V44.5156H164.66ZM170.624 44.6331C170.115 44.6331 169.669 44.512 169.285 44.2697C168.903 44.0275 168.604 43.6886 168.389 43.253C168.176 42.8174 168.07 42.3085 168.07 41.7261C168.07 41.1388 168.176 40.6262 168.389 40.1882C168.604 39.7502 168.903 39.4101 169.285 39.1678C169.669 38.9256 170.115 38.8044 170.624 38.8044C171.133 38.8044 171.579 38.9256 171.96 39.1678C172.344 39.4101 172.643 39.7502 172.856 40.1882C173.071 40.6262 173.179 41.1388 173.179 41.7261C173.179 42.3085 173.071 42.8174 172.856 43.253C172.643 43.6886 172.344 44.0275 171.96 44.2697C171.579 44.512 171.133 44.6331 170.624 44.6331ZM170.624 43.8549C171.011 43.8549 171.329 43.7558 171.579 43.5576C171.828 43.3594 172.013 43.0988 172.133 42.7758C172.253 42.4528 172.313 42.1029 172.313 41.7261C172.313 41.3493 172.253 40.9981 172.133 40.6727C172.013 40.3472 171.828 40.0842 171.579 39.8835C171.329 39.6829 171.011 39.5826 170.624 39.5826C170.238 39.5826 169.92 39.6829 169.67 39.8835C169.42 40.0842 169.236 40.3472 169.116 40.6727C168.996 40.9981 168.936 41.3493 168.936 41.7261C168.936 42.1029 168.996 42.4528 169.116 42.7758C169.236 43.0988 169.42 43.3594 169.67 43.5576C169.92 43.7558 170.238 43.8549 170.624 43.8549ZM175.367 36.9986V44.5156H174.501V36.9986H175.367ZM180.947 40.1405L180.169 40.3607C180.12 40.231 180.048 40.105 179.953 39.9826C179.86 39.8579 179.732 39.7551 179.571 39.6743C179.409 39.5936 179.203 39.5532 178.951 39.5532C178.606 39.5532 178.318 39.6327 178.088 39.7918C177.861 39.9484 177.747 40.1478 177.747 40.3901C177.747 40.6054 177.825 40.7755 177.982 40.9003C178.138 41.025 178.383 41.129 178.716 41.2122L179.553 41.4178C180.057 41.5401 180.432 41.7273 180.679 41.9794C180.927 42.2289 181.05 42.5507 181.05 42.9447C181.05 43.2677 180.957 43.5564 180.771 43.8109C180.588 44.0654 180.331 44.266 180 44.4129C179.67 44.5597 179.286 44.6331 178.848 44.6331C178.273 44.6331 177.797 44.5083 177.42 44.2587C177.043 44.0091 176.805 43.6445 176.704 43.1649L177.527 42.9594C177.605 43.2628 177.753 43.4904 177.971 43.6421C178.191 43.7938 178.478 43.8696 178.833 43.8696C179.237 43.8696 179.557 43.784 179.795 43.6127C180.035 43.439 180.155 43.231 180.155 42.9887C180.155 42.793 180.086 42.629 179.949 42.4969C179.812 42.3623 179.602 42.262 179.318 42.1959L178.378 41.9757C177.862 41.8533 177.482 41.6637 177.24 41.4068C177 41.1474 176.881 40.8232 176.881 40.4341C176.881 40.116 176.97 39.8346 177.148 39.5899C177.33 39.3452 177.575 39.1531 177.886 39.0137C178.199 38.8742 178.554 38.8044 178.951 38.8044C179.509 38.8044 179.947 38.9268 180.265 39.1715C180.585 39.4162 180.813 39.7392 180.947 40.1405ZM186.92 44.6478C186.563 44.6478 186.239 44.5805 185.947 44.4459C185.656 44.3089 185.425 44.1119 185.254 43.8549C185.082 43.5956 184.997 43.2824 184.997 42.9153C184.997 42.5923 185.06 42.3305 185.188 42.1298C185.315 41.9268 185.485 41.7677 185.698 41.6527C185.911 41.5377 186.146 41.452 186.403 41.3958C186.662 41.337 186.923 41.2905 187.184 41.2563C187.527 41.2122 187.805 41.1792 188.018 41.1572C188.233 41.1327 188.389 41.0923 188.487 41.0361C188.588 40.9798 188.638 40.8819 188.638 40.7424V40.7131C188.638 40.3509 188.539 40.0695 188.341 39.8689C188.145 39.6682 187.847 39.5679 187.449 39.5679C187.035 39.5679 186.711 39.6584 186.476 39.8395C186.241 40.0206 186.076 40.2139 185.98 40.4194L185.158 40.1258C185.305 39.7832 185.501 39.5165 185.746 39.3256C185.993 39.1323 186.262 38.9978 186.553 38.9219C186.847 38.8436 187.135 38.8044 187.419 38.8044C187.6 38.8044 187.808 38.8265 188.043 38.8705C188.281 38.9121 188.509 38.999 188.73 39.1311C188.952 39.2632 189.137 39.4627 189.284 39.7294C189.431 39.9961 189.504 40.3534 189.504 40.8012V44.5156H188.638V43.7522H188.594C188.535 43.8745 188.437 44.0054 188.3 44.1449C188.163 44.2844 187.981 44.4031 187.753 44.5009C187.526 44.5988 187.248 44.6478 186.92 44.6478ZM187.052 43.8696C187.395 43.8696 187.684 43.8023 187.918 43.6678C188.156 43.5332 188.334 43.3594 188.454 43.1466C188.577 42.9337 188.638 42.7098 188.638 42.4749V41.6821C188.601 41.7261 188.52 41.7665 188.396 41.8032C188.273 41.8374 188.131 41.868 187.97 41.8949C187.811 41.9194 187.655 41.9414 187.504 41.961C187.354 41.9781 187.233 41.9928 187.14 42.0051C186.915 42.0344 186.705 42.0821 186.509 42.1482C186.316 42.2118 186.159 42.3085 186.039 42.4382C185.922 42.5654 185.863 42.7391 185.863 42.9594C185.863 43.2603 185.974 43.4879 186.197 43.6421C186.422 43.7938 186.707 43.8696 187.052 43.8696ZM191.951 41.1242V44.5156H191.085V38.8778H191.922V39.7588H191.995C192.127 39.4725 192.328 39.2424 192.597 39.0687C192.866 38.8925 193.214 38.8044 193.64 38.8044C194.021 38.8044 194.355 38.8827 194.642 39.0393C194.928 39.1935 195.151 39.4284 195.31 39.7441C195.469 40.0573 195.548 40.4537 195.548 40.9333V44.5156H194.682V40.992C194.682 40.5491 194.567 40.2041 194.337 39.957C194.107 39.7074 193.791 39.5826 193.39 39.5826C193.114 39.5826 192.866 39.6425 192.649 39.7624C192.433 39.8823 192.263 40.0573 192.138 40.2873C192.014 40.5173 191.951 40.7963 191.951 41.1242ZM199.26 44.6331C198.79 44.6331 198.375 44.5144 198.016 44.277C197.656 44.0372 197.375 43.6996 197.172 43.264C196.968 42.826 196.867 42.3085 196.867 41.7114C196.867 41.1193 196.968 40.6054 197.172 40.1698C197.375 39.7343 197.657 39.3978 198.019 39.1605C198.382 38.9231 198.8 38.8044 199.275 38.8044C199.642 38.8044 199.932 38.8656 200.145 38.988C200.36 39.1079 200.524 39.2449 200.636 39.3991C200.751 39.5508 200.841 39.6756 200.904 39.7734H200.978V36.9986H201.844V44.5156H201.007V43.6494H200.904C200.841 43.7522 200.75 43.8819 200.633 44.0385C200.515 44.1926 200.348 44.3309 200.13 44.4532C199.912 44.5731 199.622 44.6331 199.26 44.6331ZM199.377 43.8549C199.725 43.8549 200.019 43.7644 200.258 43.5833C200.498 43.3998 200.68 43.1466 200.805 42.8236C200.93 42.4981 200.992 42.1225 200.992 41.6967C200.992 41.2759 200.931 40.9076 200.809 40.5919C200.687 40.2738 200.506 40.0267 200.266 39.8505C200.026 39.6719 199.73 39.5826 199.377 39.5826C199.01 39.5826 198.705 39.6768 198.46 39.8652C198.218 40.0512 198.035 40.3044 197.913 40.625C197.793 40.9431 197.733 41.3003 197.733 41.6967C197.733 42.098 197.794 42.4626 197.917 42.7905C198.041 43.116 198.225 43.3753 198.467 43.5687C198.712 43.7595 199.015 43.8549 199.377 43.8549ZM206.458 44.5156V38.8778H207.295V39.7294H207.353C207.456 39.4504 207.642 39.2241 207.911 39.0504C208.18 38.8766 208.484 38.7898 208.821 38.7898C208.885 38.7898 208.965 38.791 209.06 38.7934C209.156 38.7959 209.228 38.7995 209.277 38.8044V39.6853C209.247 39.678 209.18 39.667 209.075 39.6523C208.972 39.6352 208.863 39.6266 208.748 39.6266C208.474 39.6266 208.229 39.6841 208.014 39.7991C207.801 39.9117 207.632 40.0683 207.507 40.2689C207.385 40.4671 207.324 40.6935 207.324 40.948V44.5156H206.458ZM212.496 44.6331C211.952 44.6331 211.484 44.5132 211.09 44.2734C210.698 44.0311 210.396 43.6934 210.183 43.2603C209.973 42.8248 209.868 42.3183 209.868 41.7408C209.868 41.1633 209.973 40.6543 210.183 40.2139C210.396 39.771 210.692 39.426 211.071 39.1788C211.453 38.9292 211.899 38.8044 212.407 38.8044C212.701 38.8044 212.991 38.8534 213.277 38.9513C213.564 39.0491 213.824 39.2082 214.059 39.4284C214.294 39.6462 214.481 39.9349 214.621 40.2946C214.76 40.6543 214.83 41.0972 214.83 41.6233V41.9904H210.484V41.2416H213.949C213.949 40.9235 213.885 40.6397 213.758 40.3901C213.633 40.1405 213.455 39.9435 213.222 39.7991C212.992 39.6548 212.721 39.5826 212.407 39.5826C212.062 39.5826 211.764 39.6682 211.512 39.8395C211.262 40.0083 211.07 40.2286 210.936 40.5002C210.801 40.7718 210.734 41.063 210.734 41.3737V41.8729C210.734 42.2987 210.807 42.6596 210.954 42.9557C211.103 43.2493 211.31 43.4732 211.574 43.6274C211.839 43.7791 212.146 43.8549 212.496 43.8549C212.723 43.8549 212.929 43.8231 213.112 43.7595C213.298 43.6934 213.458 43.5956 213.593 43.4659C213.728 43.3337 213.832 43.1698 213.905 42.974L214.742 43.209C214.654 43.4928 214.506 43.7424 214.298 43.9577C214.09 44.1706 213.833 44.337 213.527 44.4569C213.221 44.5744 212.877 44.6331 212.496 44.6331ZM216.148 46.6298V38.8778H216.985V39.7734H217.087C217.151 39.6756 217.239 39.5508 217.352 39.3991C217.467 39.2449 217.631 39.1079 217.843 38.988C218.059 38.8656 218.35 38.8044 218.717 38.8044C219.192 38.8044 219.61 38.9231 219.972 39.1605C220.334 39.3978 220.617 39.7343 220.82 40.1698C221.023 40.6054 221.125 41.1193 221.125 41.7114C221.125 42.3085 221.023 42.826 220.82 43.264C220.617 43.6996 220.336 44.0372 219.976 44.277C219.616 44.5144 219.201 44.6331 218.732 44.6331C218.37 44.6331 218.08 44.5731 217.862 44.4532C217.644 44.3309 217.476 44.1926 217.359 44.0385C217.241 43.8819 217.151 43.7522 217.087 43.6494H217.014V46.6298H216.148ZM216.999 41.6967C216.999 42.1225 217.062 42.4981 217.186 42.8236C217.311 43.1466 217.493 43.3998 217.733 43.5833C217.973 43.7644 218.267 43.8549 218.614 43.8549C218.976 43.8549 219.279 43.7595 219.521 43.5687C219.765 43.3753 219.949 43.116 220.071 42.7905C220.196 42.4626 220.259 42.098 220.259 41.6967C220.259 41.3003 220.197 40.9431 220.075 40.625C219.955 40.3044 219.773 40.0512 219.528 39.8652C219.286 39.6768 218.981 39.5826 218.614 39.5826C218.262 39.5826 217.966 39.6719 217.726 39.8505C217.486 40.0267 217.305 40.2738 217.183 40.5919C217.06 40.9076 216.999 41.2759 216.999 41.6967ZM224.736 44.6331C224.227 44.6331 223.781 44.512 223.397 44.2697C223.015 44.0275 222.717 43.6886 222.501 43.253C222.288 42.8174 222.182 42.3085 222.182 41.7261C222.182 41.1388 222.288 40.6262 222.501 40.1882C222.717 39.7502 223.015 39.4101 223.397 39.1678C223.781 38.9256 224.227 38.8044 224.736 38.8044C225.245 38.8044 225.691 38.9256 226.072 39.1678C226.457 39.4101 226.755 39.7502 226.968 40.1882C227.183 40.6262 227.291 41.1388 227.291 41.7261C227.291 42.3085 227.183 42.8174 226.968 43.253C226.755 43.6886 226.457 44.0275 226.072 44.2697C225.691 44.512 225.245 44.6331 224.736 44.6331ZM224.736 43.8549C225.123 43.8549 225.441 43.7558 225.691 43.5576C225.94 43.3594 226.125 43.0988 226.245 42.7758C226.365 42.4528 226.425 42.1029 226.425 41.7261C226.425 41.3493 226.365 40.9981 226.245 40.6727C226.125 40.3472 225.94 40.0842 225.691 39.8835C225.441 39.6829 225.123 39.5826 224.736 39.5826C224.35 39.5826 224.032 39.6829 223.782 39.8835C223.533 40.0842 223.348 40.3472 223.228 40.6727C223.108 40.9981 223.048 41.3493 223.048 41.7261C223.048 42.1029 223.108 42.4528 223.228 42.7758C223.348 43.0988 223.533 43.3594 223.782 43.5576C224.032 43.7558 224.35 43.8549 224.736 43.8549ZM228.613 44.5156V38.8778H229.45V39.7294H229.509C229.612 39.4504 229.798 39.2241 230.067 39.0504C230.336 38.8766 230.639 38.7898 230.977 38.7898C231.041 38.7898 231.12 38.791 231.216 38.7934C231.311 38.7959 231.383 38.7995 231.432 38.8044V39.6853C231.403 39.678 231.336 39.667 231.23 39.6523C231.128 39.6352 231.019 39.6266 230.904 39.6266C230.63 39.6266 230.385 39.6841 230.17 39.7991C229.957 39.9117 229.788 40.0683 229.663 40.2689C229.541 40.4671 229.48 40.6935 229.48 40.948V44.5156H228.613ZM235.264 38.8778V39.6119H232.342V38.8778H235.264ZM233.194 37.5271H234.06V42.9006C234.06 43.1453 234.096 43.3289 234.167 43.4512C234.24 43.5711 234.333 43.6519 234.446 43.6934C234.561 43.7326 234.682 43.7522 234.809 43.7522C234.904 43.7522 234.983 43.7473 235.044 43.7375C235.105 43.7253 235.154 43.7155 235.191 43.7081L235.367 44.4863C235.308 44.5083 235.226 44.5303 235.121 44.5523C235.016 44.5768 234.882 44.589 234.721 44.589C234.476 44.589 234.236 44.5364 234.002 44.4312C233.769 44.326 233.576 44.1657 233.422 43.9504C233.27 43.735 233.194 43.4634 233.194 43.1355V37.5271ZM236.567 44.5156V38.8778H237.433V44.5156H236.567ZM237.008 37.9382C236.839 37.9382 236.693 37.8807 236.571 37.7657C236.451 37.6507 236.391 37.5125 236.391 37.351C236.391 37.1895 236.451 37.0512 236.571 36.9362C236.693 36.8212 236.839 36.7637 237.008 36.7637C237.176 36.7637 237.321 36.8212 237.441 36.9362C237.563 37.0512 237.624 37.1895 237.624 37.351C237.624 37.5125 237.563 37.6507 237.441 37.7657C237.321 37.8807 237.176 37.9382 237.008 37.9382ZM239.886 41.1242V44.5156H239.02V38.8778H239.857V39.7588H239.93C240.062 39.4725 240.263 39.2424 240.532 39.0687C240.801 38.8925 241.149 38.8044 241.575 38.8044C241.956 38.8044 242.29 38.8827 242.577 39.0393C242.863 39.1935 243.086 39.4284 243.245 39.7441C243.404 40.0573 243.483 40.4537 243.483 40.9333V44.5156H242.617V40.992C242.617 40.5491 242.502 40.2041 242.272 39.957C242.042 39.7074 241.726 39.5826 241.325 39.5826C241.048 39.5826 240.801 39.6425 240.584 39.7624C240.368 39.8823 240.198 40.0573 240.073 40.2873C239.949 40.5173 239.886 40.7963 239.886 41.1242ZM247.342 46.7472C246.923 46.7472 246.564 46.6934 246.263 46.5857C245.962 46.4805 245.711 46.3411 245.51 46.1673C245.312 45.996 245.154 45.8125 245.037 45.6168L245.727 45.1323C245.805 45.235 245.904 45.3525 246.024 45.4846C246.144 45.6192 246.308 45.7354 246.516 45.8333C246.726 45.9336 247.002 45.9838 247.342 45.9838C247.797 45.9838 248.172 45.8737 248.469 45.6535C248.765 45.4332 248.913 45.0882 248.913 44.6184V43.4732H248.839C248.776 43.576 248.685 43.7032 248.568 43.8549C248.453 44.0042 248.286 44.1376 248.068 44.255C247.853 44.37 247.562 44.4275 247.195 44.4275C246.74 44.4275 246.331 44.3199 245.969 44.1045C245.609 43.8892 245.324 43.576 245.114 43.1649C244.906 42.7538 244.802 42.2546 244.802 41.6674C244.802 41.0899 244.903 40.587 245.106 40.1588C245.31 39.7282 245.592 39.3954 245.954 39.1605C246.316 38.9231 246.735 38.8044 247.21 38.8044C247.577 38.8044 247.868 38.8656 248.083 38.988C248.301 39.1079 248.467 39.2449 248.582 39.3991C248.7 39.5508 248.79 39.6756 248.854 39.7734H248.942V38.8778H249.779V44.6771C249.779 45.1616 249.669 45.5556 249.449 45.859C249.231 46.1649 248.937 46.3888 248.568 46.5307C248.201 46.6751 247.792 46.7472 247.342 46.7472ZM247.312 43.6494C247.66 43.6494 247.953 43.5699 248.193 43.4108C248.433 43.2518 248.615 43.023 248.74 42.7245C248.865 42.4259 248.927 42.0687 248.927 41.6527C248.927 41.2465 248.866 40.888 248.744 40.5773C248.621 40.2665 248.44 40.023 248.201 39.8468C247.961 39.6707 247.665 39.5826 247.312 39.5826C246.945 39.5826 246.639 39.6756 246.395 39.8615C246.152 40.0475 245.97 40.2971 245.848 40.6103C245.728 40.9235 245.668 41.271 245.668 41.6527C245.668 42.0442 245.729 42.3904 245.852 42.6914C245.976 42.99 246.16 43.2249 246.402 43.3961C246.647 43.565 246.95 43.6494 247.312 43.6494ZM254.903 44.5744C254.722 44.5744 254.566 44.5095 254.437 44.3798C254.307 44.2501 254.242 44.0947 254.242 43.9137C254.242 43.7326 254.307 43.5772 254.437 43.4475C254.566 43.3178 254.722 43.253 254.903 43.253C255.084 43.253 255.239 43.3178 255.369 43.4475C255.499 43.5772 255.563 43.7326 255.563 43.9137C255.563 44.0336 255.533 44.1437 255.472 44.244C255.413 44.3443 255.333 44.4251 255.233 44.4863C255.135 44.545 255.025 44.5744 254.903 44.5744ZM257.749 44.5744C257.568 44.5744 257.413 44.5095 257.283 44.3798C257.153 44.2501 257.089 44.0947 257.089 43.9137C257.089 43.7326 257.153 43.5772 257.283 43.4475C257.413 43.3178 257.568 43.253 257.749 43.253C257.93 43.253 258.086 43.3178 258.215 43.4475C258.345 43.5772 258.41 43.7326 258.41 43.9137C258.41 44.0336 258.379 44.1437 258.318 44.244C258.259 44.3443 258.18 44.4251 258.08 44.4863C257.982 44.545 257.872 44.5744 257.749 44.5744ZM260.596 44.5744C260.415 44.5744 260.259 44.5095 260.129 44.3798C260 44.2501 259.935 44.0947 259.935 43.9137C259.935 43.7326 260 43.5772 260.129 43.4475C260.259 43.3178 260.415 43.253 260.596 43.253C260.777 43.253 260.932 43.3178 261.062 43.4475C261.191 43.5772 261.256 43.7326 261.256 43.9137C261.256 44.0336 261.226 44.1437 261.165 44.244C261.106 44.3443 261.026 44.4251 260.926 44.4863C260.828 44.545 260.718 44.5744 260.596 44.5744Z" fill="#343A40"/>
<rect x="34.7461" y="59.5703" width="13.289" height="13.289" rx="2.95312" fill="#FFEDD5"/>
<rect x="38.0684" y="62.8945" width="6.09081" height="6.09081" rx="3.04541" fill="#FFEDD5"/>
<path d="M42.8269 67.9707C42.7381 67.9707 42.663 67.94 42.6017 67.8787C42.5404 67.8174 42.5097 67.7423 42.5097 67.6535V64.2274C42.5097 64.1386 42.5404 64.0635 42.6017 64.0022C42.663 63.9408 42.7381 63.9102 42.8269 63.9102C42.9158 63.9102 42.9908 63.9408 43.0522 64.0022C43.1135 64.0635 43.1442 64.1386 43.1442 64.2274V67.6535C43.1442 67.7423 43.1135 67.8174 43.0522 67.8787C42.9908 67.94 42.9158 67.9707 42.8269 67.9707ZM39.661 67.9707C39.6144 67.9707 39.5711 67.9622 39.5309 67.9453C39.4907 67.9284 39.4569 67.9062 39.4294 67.8787C39.4019 67.8512 39.3797 67.8174 39.3628 67.7772C39.3459 67.737 39.3374 67.6958 39.3374 67.6535V66.7652C39.3374 66.6764 39.3681 66.6013 39.4294 66.54C39.4907 66.4787 39.5658 66.448 39.6546 66.448C39.7435 66.448 39.8185 66.4787 39.8799 66.54C39.9412 66.6013 39.9719 66.6764 39.9719 66.7652V67.6535C39.9719 67.6958 39.9634 67.737 39.9465 67.7772C39.9296 67.8174 39.9074 67.8512 39.8799 67.8787C39.8524 67.9062 39.8196 67.9284 39.7815 67.9453C39.7435 67.9622 39.7033 67.9707 39.661 67.9707ZM41.2408 67.9707C41.152 67.9707 41.0769 67.94 41.0155 67.8787C40.9542 67.8174 40.9236 67.7423 40.9236 67.6535V65.4963C40.9236 65.4075 40.9542 65.3324 41.0155 65.2711C41.0769 65.2097 41.152 65.1791 41.2408 65.1791C41.3296 65.1791 41.4047 65.2097 41.466 65.2711C41.5273 65.3324 41.558 65.4075 41.558 65.4963V67.6535C41.558 67.7423 41.5273 67.8174 41.466 67.8787C41.4047 67.94 41.3296 67.9707 41.2408 67.9707Z" fill="#FF6B00"/>
<circle cx="19.9805" cy="66.2148" r="6.64452" stroke="#FCBE1D" stroke-width="0.55371" stroke-linecap="round" stroke-dasharray="0 11.07 0 5.54"/>
<path d="M23.1463 62.1299C22.2334 61.4224 21.1098 61.0412 19.9549 61.0469C18.8 61.0527 17.6802 61.4452 16.7744 62.1617L19.9807 66.2148L23.1463 62.1299Z" fill="#FCBE1D"/>
<path d="M16.8061 70.2998C17.719 71.0072 18.8426 71.3885 19.9975 71.3827C21.1524 71.377 22.2721 70.9845 23.1779 70.268L19.9717 66.2149L16.8061 70.2998Z" fill="#FCBE1D"/>
<path d="M63.783 67.3086C63.6734 67.3086 63.5815 67.2715 63.5074 67.1974C63.4333 67.1233 63.3962 67.0314 63.3962 66.9219C63.3962 66.8123 63.4333 66.7205 63.5074 66.6463C63.5815 66.5722 63.6734 66.5352 63.783 66.5352C63.8925 66.5352 63.9844 66.5722 64.0585 66.6463C64.1326 66.7205 64.1697 66.8123 64.1697 66.9219C64.1697 67.0314 64.1326 67.1233 64.0585 67.1974C63.9844 67.2715 63.8925 67.3086 63.783 67.3086ZM62.2361 67.3086C62.1265 67.3086 62.0347 67.2715 61.9605 67.1974C61.8864 67.1233 61.8494 67.0314 61.8494 66.9219C61.8494 66.8123 61.8864 66.7205 61.9605 66.6463C62.0347 66.5722 62.1265 66.5352 62.2361 66.5352C62.3457 66.5352 62.4375 66.5722 62.5116 66.6463C62.5857 66.7205 62.6228 66.8123 62.6228 66.9219C62.6228 67.0314 62.5857 67.1233 62.5116 67.1974C62.4375 67.2715 62.3457 67.3086 62.2361 67.3086ZM65.3298 67.3086C65.2203 67.3086 65.1284 67.2715 65.0543 67.1974C64.9802 67.1233 64.9431 67.0314 64.9431 66.9219C64.9431 66.8123 64.9802 66.7205 65.0543 66.6463C65.1284 66.5722 65.2203 66.5352 65.3298 66.5352C65.4394 66.5352 65.5312 66.5722 65.6054 66.6463C65.6795 66.7205 65.7165 66.8123 65.7165 66.9219C65.7165 67.0314 65.6795 67.1233 65.6054 67.1974C65.5312 67.2715 65.4394 67.3086 65.3298 67.3086ZM63.783 68.8555C63.6734 68.8555 63.5815 68.8184 63.5074 68.7443C63.4333 68.6702 63.3962 68.5783 63.3962 68.4687C63.3962 68.3592 63.4333 68.2673 63.5074 68.1932C63.5815 68.1191 63.6734 68.082 63.783 68.082C63.8925 68.082 63.9844 68.1191 64.0585 68.1932C64.1326 68.2673 64.1697 68.3592 64.1697 68.4687C64.1697 68.5783 64.1326 68.6702 64.0585 68.7443C63.9844 68.8184 63.8925 68.8555 63.783 68.8555ZM62.2361 68.8555C62.1265 68.8555 62.0347 68.8184 61.9605 68.7443C61.8864 68.6702 61.8494 68.5783 61.8494 68.4687C61.8494 68.3592 61.8864 68.2673 61.9605 68.1932C62.0347 68.1191 62.1265 68.082 62.2361 68.082C62.3457 68.082 62.4375 68.1191 62.5116 68.1932C62.5857 68.2673 62.6228 68.3592 62.6228 68.4687C62.6228 68.5783 62.5857 68.6702 62.5116 68.7443C62.4375 68.8184 62.3457 68.8555 62.2361 68.8555ZM65.3298 68.8555C65.2203 68.8555 65.1284 68.8184 65.0543 68.7443C64.9802 68.6702 64.9431 68.5783 64.9431 68.4687C64.9431 68.3592 64.9802 68.2673 65.0543 68.1932C65.1284 68.1191 65.2203 68.082 65.3298 68.082C65.4394 68.082 65.5312 68.1191 65.6054 68.1932C65.6795 68.2673 65.7165 68.3592 65.7165 68.4687C65.7165 68.5783 65.6795 68.6702 65.6054 68.7443C65.5312 68.8184 65.4394 68.8555 65.3298 68.8555ZM60.8826 70.4023C60.7279 70.4023 60.5925 70.3443 60.4765 70.2283C60.3605 70.1123 60.3025 69.9769 60.3025 69.8223V63.8281C60.3025 63.6734 60.3605 63.5381 60.4765 63.4221C60.5925 63.3061 60.7279 63.248 60.8826 63.248H61.511V62.9773C61.511 62.8871 61.54 62.813 61.598 62.755C61.656 62.697 61.7301 62.668 61.8204 62.668C61.9106 62.668 61.9863 62.697 62.0476 62.755C62.1088 62.813 62.1394 62.8871 62.1394 62.9773V63.248H65.4265V62.9773C65.4265 62.8871 65.4555 62.813 65.5135 62.755C65.5715 62.697 65.6456 62.668 65.7359 62.668C65.8261 62.668 65.9018 62.697 65.9631 62.755C66.0243 62.813 66.0549 62.8871 66.0549 62.9773V63.248H66.6833C66.838 63.248 66.9734 63.3061 67.0894 63.4221C67.2054 63.5381 67.2634 63.6734 67.2634 63.8281V69.8223C67.2634 69.9769 67.2054 70.1123 67.0894 70.2283C66.9734 70.3443 66.838 70.4023 66.6833 70.4023H60.8826ZM60.8826 69.8223H66.6833V65.665H60.8826V69.8223ZM60.8826 65.085H66.6833V63.8281H60.8826V65.085ZM60.8826 65.085V63.8281V65.085Z" fill="#858E96"/>
<path d="M72.9189 70.1719H71.3567V65.1094H72.9882C73.4792 65.1094 73.8995 65.2107 74.2488 65.4134C74.5982 65.6145 74.866 65.9037 75.0522 66.2811C75.2384 66.6568 75.3315 67.1067 75.3315 67.6307C75.3315 68.1581 75.2376 68.6121 75.0497 68.9928C74.8619 69.3718 74.5883 69.6635 74.2291 69.8678C73.8698 70.0705 73.4331 70.1719 72.9189 70.1719ZM71.9697 69.6281H72.8794C73.298 69.6281 73.6449 69.5473 73.9201 69.3858C74.1953 69.2243 74.4004 68.9944 74.5356 68.6961C74.6707 68.3979 74.7383 68.0427 74.7383 67.6307C74.7383 67.2221 74.6715 66.8702 74.538 66.5752C74.4046 66.2786 74.2052 66.0512 73.9398 65.893C73.6745 65.7331 73.3441 65.6532 72.9486 65.6532H71.9697V69.6281ZM77.8727 70.251C77.5068 70.251 77.1912 70.1702 76.9259 70.0087C76.6623 69.8456 76.4587 69.6182 76.3154 69.3265C76.1736 69.0331 76.1028 68.692 76.1028 68.3031C76.1028 67.9142 76.1736 67.5714 76.3154 67.2748C76.4587 66.9765 76.6581 66.7441 76.9136 66.5777C77.1706 66.4096 77.4706 66.3256 77.8133 66.3256C78.0111 66.3256 78.2064 66.3585 78.3992 66.4244C78.592 66.4904 78.7675 66.5975 78.9257 66.7458C79.0839 66.8925 79.21 67.0869 79.3039 67.3292C79.3978 67.5714 79.4448 67.8697 79.4448 68.224V68.4712H76.5181V67.9669H78.8516C78.8516 67.7527 78.8087 67.5615 78.723 67.3934C78.639 67.2253 78.5187 67.0927 78.3621 66.9955C78.2072 66.8982 78.0243 66.8496 77.8133 66.8496C77.581 66.8496 77.3799 66.9073 77.2102 67.0226C77.0421 67.1364 76.9127 67.2847 76.8221 67.4676C76.7315 67.6505 76.6861 67.8466 76.6861 68.0559V68.3921C76.6861 68.6788 76.7356 68.9219 76.8345 69.1213C76.935 69.3191 77.0742 69.4698 77.2522 69.5737C77.4302 69.6758 77.637 69.7269 77.8727 69.7269C78.0259 69.7269 78.1644 69.7055 78.288 69.6627C78.4132 69.6182 78.5211 69.5522 78.6118 69.4649C78.7024 69.3759 78.7724 69.2655 78.8219 69.1337L79.3855 69.2919C79.3262 69.483 79.2265 69.6511 79.0864 69.7961C78.9463 69.9395 78.7733 70.0516 78.5673 70.1323C78.3613 70.2114 78.1298 70.251 77.8727 70.251ZM81.8747 70.251C81.5188 70.251 81.2122 70.1669 80.9552 69.9988C80.6981 69.8307 80.5003 69.5992 80.3619 69.3042C80.2235 69.0092 80.1543 68.6722 80.1543 68.2932C80.1543 67.9076 80.2251 67.5673 80.3668 67.2723C80.5102 66.9757 80.7096 66.7441 80.965 66.5777C81.2221 66.4096 81.522 66.3256 81.8648 66.3256C82.1318 66.3256 82.3724 66.375 82.5866 66.4739C82.8009 66.5728 82.9764 66.7112 83.1131 66.8892C83.2499 67.0671 83.3348 67.2748 83.3677 67.5121H82.7844C82.7399 67.3391 82.641 67.1858 82.4877 67.0523C82.3361 66.9172 82.1318 66.8496 81.8747 66.8496C81.6473 66.8496 81.4479 66.9089 81.2765 67.0276C81.1068 67.1446 80.9741 67.3102 80.8785 67.5244C80.7846 67.737 80.7376 67.9867 80.7376 68.2734C80.7376 68.5668 80.7838 68.8222 80.8761 69.0397C80.97 69.2573 81.1018 69.4262 81.2716 69.5465C81.4429 69.6668 81.644 69.7269 81.8747 69.7269C82.0263 69.7269 82.1639 69.7006 82.2875 69.6478C82.4111 69.5951 82.5158 69.5193 82.6015 69.4204C82.6871 69.3215 82.7481 69.2029 82.7844 69.0645H83.3677C83.3348 69.2886 83.2532 69.4904 83.123 69.6701C82.9945 69.8481 82.8239 69.9898 82.6113 70.0952C82.4004 70.1991 82.1549 70.251 81.8747 70.251ZM87.9482 65.1094V70.1719H87.3352V65.7521H87.3055L86.0696 66.5728V65.9498L87.3352 65.1094H87.9482ZM89.4042 70.1719V69.7269L91.0752 67.8977C91.2713 67.6835 91.4328 67.4973 91.5597 67.3391C91.6866 67.1792 91.7805 67.0292 91.8415 66.8892C91.9041 66.7474 91.9354 66.5991 91.9354 66.4442C91.9354 66.2662 91.8926 66.1122 91.8069 65.982C91.7228 65.8518 91.6075 65.7513 91.4608 65.6804C91.3141 65.6095 91.1494 65.5741 90.9664 65.5741C90.772 65.5741 90.6022 65.6145 90.4572 65.6952C90.3138 65.7743 90.2026 65.8856 90.1235 66.0289C90.0461 66.1723 90.0073 66.3404 90.0073 66.5332H89.424C89.424 66.2366 89.4923 65.9762 89.6291 65.7521C89.7659 65.528 89.9521 65.3533 90.1878 65.228C90.4251 65.1028 90.6912 65.0402 90.9862 65.0402C91.2828 65.0402 91.5457 65.1028 91.7747 65.228C92.0038 65.3533 92.1834 65.5222 92.3136 65.7348C92.4438 65.9474 92.5089 66.1838 92.5089 66.4442C92.5089 66.6304 92.4751 66.8125 92.4076 66.9905C92.3416 67.1668 92.2263 67.3638 92.0615 67.5813C91.8983 67.7972 91.6718 68.0609 91.3817 68.3723L90.2446 69.5885V69.6281H92.5979V70.1719H89.4042Z" fill="#495057"/>
<rect x="56.3478" y="59.7618" width="40.2223" height="13.5388" rx="2.12877" stroke="#DEE2E6" stroke-width="0.38307"/>
<defs>
<filter id="filter0_d_4142_75678" x="25.6216" y="0.0468795" width="278.332" height="62.7539" filterUnits="userSpaceOnUse" color-interpolation-filters="sRGB">
<feFlood flood-opacity="0" result="BackgroundImageFix"/>
<feColorMatrix in="SourceAlpha" type="matrix" values="0 0 0 0 0 0 0 0 0 0 0 0 0 0 0 0 0 0 127 0" result="hardAlpha"/>
<feOffset/>
<feGaussianBlur stdDeviation="1.47656"/>
<feComposite in2="hardAlpha" operator="out"/>
<feColorMatrix type="matrix" values="0 0 0 0 0 0 0 0 0 0 0 0 0 0 0 0 0 0 0.2 0"/>
<feBlend mode="normal" in2="BackgroundImageFix" result="effect1_dropShadow_4142_75678"/>
<feBlend mode="normal" in="SourceGraphic" in2="effect1_dropShadow_4142_75678" result="shape"/>
</filter>
<filter id="filter1_d_4142_75678" x="0.0468795" y="23.3984" width="278.332" height="62.7539" filterUnits="userSpaceOnUse" color-interpolation-filters="sRGB">
<feFlood flood-opacity="0" result="BackgroundImageFix"/>
<feColorMatrix in="SourceAlpha" type="matrix" values="0 0 0 0 0 0 0 0 0 0 0 0 0 0 0 0 0 0 127 0" result="hardAlpha"/>
<feOffset/>
<feGaussianBlur stdDeviation="1.47656"/>
<feComposite in2="hardAlpha" operator="out"/>
<feColorMatrix type="matrix" values="0 0 0 0 0 0 0 0 0 0 0 0 0 0 0 0 0 0 0.2 0"/>
<feBlend mode="normal" in2="BackgroundImageFix" result="effect1_dropShadow_4142_75678"/>
<feBlend mode="normal" in="SourceGraphic" in2="effect1_dropShadow_4142_75678" result="shape"/>
</filter>
<clipPath id="clip0_4142_75678">
<rect width="9.28124" height="9.28124" fill="white" transform="translate(84.7163 38.5391)"/>
</clipPath>
</defs>
</svg>
