<svg width="288" height="114" viewBox="0 0 288 114" fill="none" xmlns="http://www.w3.org/2000/svg">
<g filter="url(#filter0_d_1295_41552)">
<rect x="25" y="3" width="260" height="84.1176" rx="5.5615" fill="white"/>
<path d="M42.593 14.9588V22.0371H41.7635L37.9064 16.4796H37.8373V22.0371H36.9801V14.9588H37.8096L41.6805 20.5302H41.7497V14.9588H42.593ZM46.4233 22.1477C45.9118 22.1477 45.4705 22.0348 45.0996 21.809C44.7309 21.5809 44.4463 21.2629 44.2459 20.8551C44.0477 20.445 43.9487 19.968 43.9487 19.4242C43.9487 18.8805 44.0477 18.4012 44.2459 17.9865C44.4463 17.5694 44.7251 17.2445 45.0823 17.0118C45.4417 16.7768 45.8611 16.6593 46.3403 16.6593C46.6168 16.6593 46.8899 16.7054 47.1595 16.7975C47.429 16.8897 47.6744 17.0395 47.8956 17.2468C48.1168 17.4519 48.2931 17.7238 48.4244 18.0625C48.5558 18.4012 48.6214 18.8182 48.6214 19.3136V19.6593H44.5293V18.9542H47.7919C47.7919 18.6547 47.732 18.3874 47.6122 18.1524C47.4947 17.9173 47.3265 17.7319 47.1076 17.5959C46.891 17.46 46.6353 17.392 46.3403 17.392C46.0155 17.392 45.7344 17.4726 45.497 17.6339C45.262 17.7929 45.0811 18.0003 44.9544 18.256C44.8277 18.5118 44.7643 18.786 44.7643 19.0786V19.5487C44.7643 19.9496 44.8334 20.2894 44.9717 20.5682C45.1122 20.8447 45.3069 21.0556 45.5558 21.2007C45.8046 21.3436 46.0938 21.415 46.4233 21.415C46.6376 21.415 46.8311 21.385 47.0039 21.3251C47.179 21.2629 47.33 21.1708 47.4567 21.0486C47.5834 20.9242 47.6813 20.7698 47.7505 20.5855L48.5385 20.8067C48.4555 21.074 48.3161 21.309 48.1203 21.5118C47.9244 21.7122 47.6825 21.8689 47.3945 21.9818C47.1065 22.0924 46.7827 22.1477 46.4233 22.1477ZM51.0649 22.0371L49.4474 16.7284H50.3046L51.452 20.7929H51.5073L52.641 16.7284H53.5119L54.6317 20.7791H54.687L55.8345 16.7284H56.6916L55.0741 22.0371H54.2723L53.111 17.9588H53.0281L51.8668 22.0371H51.0649ZM61.475 14.9588V22.0371H60.6178V14.9588H61.475ZM66.8433 17.9173L66.1106 18.1247C66.0645 18.0026 65.9965 17.8839 65.9067 17.7687C65.8191 17.6512 65.6993 17.5544 65.5472 17.4784C65.3952 17.4024 65.2005 17.3643 64.9631 17.3643C64.6382 17.3643 64.3675 17.4392 64.1509 17.589C63.9366 17.7365 63.8295 17.9242 63.8295 18.1524C63.8295 18.3551 63.9032 18.5153 64.0507 18.6328C64.1982 18.7503 64.4286 18.8482 64.7419 18.9265L65.5299 19.1201C66.0046 19.2353 66.3583 19.4116 66.591 19.6489C66.8237 19.8839 66.9401 20.1869 66.9401 20.5579C66.9401 20.862 66.8525 21.1339 66.6774 21.3735C66.5046 21.6132 66.2627 21.8021 65.9516 21.9403C65.6405 22.0786 65.2788 22.1477 64.8664 22.1477C64.3249 22.1477 63.8767 22.0302 63.5219 21.7952C63.1671 21.5602 62.9424 21.2168 62.8479 20.7652L63.6221 20.5717C63.6959 20.8574 63.8353 21.0717 64.0403 21.2145C64.2477 21.3574 64.5184 21.4288 64.8525 21.4288C65.2327 21.4288 65.5346 21.3482 65.7581 21.1869C65.9839 21.0233 66.0968 20.8274 66.0968 20.5993C66.0968 20.415 66.0322 20.2606 65.9032 20.1362C65.7742 20.0095 65.576 19.915 65.3087 19.8528L64.424 19.6454C63.9378 19.5302 63.5807 19.3517 63.3525 19.1097C63.1267 18.8655 63.0138 18.5602 63.0138 18.1938C63.0138 17.8943 63.0979 17.6293 63.2661 17.3989C63.4366 17.1685 63.6682 16.9876 63.9608 16.8563C64.2558 16.725 64.5899 16.6593 64.9631 16.6593C65.4885 16.6593 65.9009 16.7745 66.2004 17.0049C66.5023 17.2353 66.7166 17.5395 66.8433 17.9173ZM71.9282 17.9173L71.1955 18.1247C71.1494 18.0026 71.0814 17.8839 70.9916 17.7687C70.904 17.6512 70.7842 17.5544 70.6321 17.4784C70.4801 17.4024 70.2854 17.3643 70.048 17.3643C69.7232 17.3643 69.4524 17.4392 69.2358 17.589C69.0216 17.7365 68.9144 17.9242 68.9144 18.1524C68.9144 18.3551 68.9881 18.5153 69.1356 18.6328C69.2831 18.7503 69.5135 18.8482 69.8268 18.9265L70.6149 19.1201C71.0895 19.2353 71.4432 19.4116 71.6759 19.6489C71.9086 19.8839 72.025 20.1869 72.025 20.5579C72.025 20.862 71.9374 21.1339 71.7623 21.3735C71.5895 21.6132 71.3476 21.8021 71.0365 21.9403C70.7255 22.0786 70.3637 22.1477 69.9513 22.1477C69.4098 22.1477 68.9616 22.0302 68.6068 21.7952C68.252 21.5602 68.0273 21.2168 67.9329 20.7652L68.707 20.5717C68.7808 20.8574 68.9202 21.0717 69.1252 21.2145C69.3326 21.3574 69.6033 21.4288 69.9374 21.4288C70.3176 21.4288 70.6195 21.3482 70.843 21.1869C71.0688 21.0233 71.1817 20.8274 71.1817 20.5993C71.1817 20.415 71.1172 20.2606 70.9881 20.1362C70.8591 20.0095 70.6609 19.915 70.3937 19.8528L69.5089 19.6454C69.0227 19.5302 68.6656 19.3517 68.4375 19.1097C68.2117 18.8655 68.0988 18.5602 68.0988 18.1938C68.0988 17.8943 68.1829 17.6293 68.3511 17.3989C68.5216 17.1685 68.7531 16.9876 69.0458 16.8563C69.3407 16.725 69.6748 16.6593 70.048 16.6593C70.5734 16.6593 70.9858 16.7745 71.2854 17.0049C71.5872 17.2353 71.8015 17.5395 71.9282 17.9173ZM76.5984 19.8666V16.7284H77.414V22.0371H76.5984V21.1385H76.5431C76.4187 21.4081 76.2251 21.6373 75.9624 21.8263C75.6998 22.0129 75.368 22.1062 74.9671 22.1062C74.6353 22.1062 74.3403 22.0337 74.0823 21.8885C73.8242 21.741 73.6215 21.5198 73.474 21.2249C73.3265 20.9277 73.2528 20.5533 73.2528 20.1016V16.7284H74.0685V20.0463C74.0685 20.4334 74.1767 20.7422 74.3933 20.9726C74.6122 21.203 74.891 21.3182 75.2297 21.3182C75.4325 21.3182 75.6387 21.2664 75.8484 21.1627C76.0604 21.059 76.2378 20.9 76.3806 20.6857C76.5258 20.4715 76.5984 20.1984 76.5984 19.8666ZM81.1338 22.1477C80.6222 22.1477 80.181 22.0348 79.81 21.809C79.4414 21.5809 79.1568 21.2629 78.9564 20.8551C78.7582 20.445 78.6591 19.968 78.6591 19.4242C78.6591 18.8805 78.7582 18.4012 78.9564 17.9865C79.1568 17.5694 79.4356 17.2445 79.7928 17.0118C80.1522 16.7768 80.5716 16.6593 81.0508 16.6593C81.3273 16.6593 81.6003 16.7054 81.8699 16.7975C82.1395 16.8897 82.3849 17.0395 82.6061 17.2468C82.8273 17.4519 83.0036 17.7238 83.1349 18.0625C83.2662 18.4012 83.3319 18.8182 83.3319 19.3136V19.6593H79.2398V18.9542H82.5024C82.5024 18.6547 82.4425 18.3874 82.3227 18.1524C82.2052 17.9173 82.037 17.7319 81.8181 17.5959C81.6015 17.46 81.3457 17.392 81.0508 17.392C80.7259 17.392 80.4448 17.4726 80.2075 17.6339C79.9725 17.7929 79.7916 18.0003 79.6649 18.256C79.5382 18.5118 79.4748 18.786 79.4748 19.0786V19.5487C79.4748 19.9496 79.5439 20.2894 79.6822 20.5682C79.8227 20.8447 80.0174 21.0556 80.2663 21.2007C80.5151 21.3436 80.8043 21.415 81.1338 21.415C81.348 21.415 81.5416 21.385 81.7144 21.3251C81.8895 21.2629 82.0404 21.1708 82.1672 21.0486C82.2939 20.9242 82.3918 20.7698 82.4609 20.5855L83.2489 20.8067C83.166 21.074 83.0266 21.309 82.8307 21.5118C82.6349 21.7122 82.393 21.8689 82.105 21.9818C81.8169 22.0924 81.4932 22.1477 81.1338 22.1477Z" fill="#858E96"/>
<circle cx="111.106" cy="68.4444" r="4.96388" fill="white"/>
<circle cx="111.106" cy="68.4443" r="4.51262" fill="#F7AE59"/>
<circle cx="103.434" cy="68.4444" r="4.96388" fill="white"/>
<circle cx="103.434" cy="68.4443" r="4.51262" fill="#8CC1FF"/>
<circle cx="95.3115" cy="68.4444" r="4.96388" fill="white"/>
<circle cx="95.3117" cy="68.4443" r="4.51262" fill="#2C435F"/>
<rect x="59.2379" y="60.1787" width="23.984" height="16.3369" rx="2.60695" fill="white" stroke="#DEE2E6" stroke-width="0.347594"/>
<circle cx="70.8823" cy="68.3478" r="4.86631" stroke="#FCBE1D" stroke-width="0.695187" stroke-linecap="round" stroke-dasharray="0 13.9 0 6.95"/>
<path d="M73.2007 65.3557C72.5321 64.8376 71.7093 64.5583 70.8634 64.5625C70.0176 64.5668 69.1975 64.8542 68.5341 65.379L70.8823 68.3474L73.2007 65.3557Z" fill="#FCBE1D"/>
<path d="M68.5576 71.3396C69.2262 71.8578 70.049 72.137 70.8949 72.1328C71.7407 72.1285 72.5608 71.8411 73.2242 71.3163L70.876 68.3479L68.5576 71.3396Z" fill="#FCBE1D"/>
<rect x="36.8182" y="60.0049" width="16.6845" height="16.6845" rx="2.78075" fill="#FFEDD5"/>
<rect x="40.9893" y="64.1758" width="7.64706" height="7.64706" rx="3.47594" fill="#FFEDD5"/>
<path d="M46.9638 70.5492C46.8522 70.5492 46.758 70.5107 46.681 70.4337C46.604 70.3567 46.5655 70.2624 46.5655 70.1509V65.8495C46.5655 65.7379 46.604 65.6437 46.681 65.5667C46.758 65.4897 46.8522 65.4512 46.9638 65.4512C47.0753 65.4512 47.1695 65.4897 47.2466 65.5667C47.3236 65.6437 47.3621 65.7379 47.3621 65.8495V70.1509C47.3621 70.2624 47.3236 70.3567 47.2466 70.4337C47.1695 70.5107 47.0753 70.5492 46.9638 70.5492ZM42.9889 70.5492C42.9305 70.5492 42.876 70.5386 42.8256 70.5173C42.7751 70.4961 42.7327 70.4682 42.6981 70.4337C42.6636 70.3992 42.6357 70.3567 42.6145 70.3063C42.5933 70.2558 42.5826 70.204 42.5826 70.1509V69.0357C42.5826 68.9242 42.6211 68.83 42.6981 68.7529C42.7751 68.6759 42.8694 68.6374 42.9809 68.6374C43.0924 68.6374 43.1867 68.6759 43.2637 68.7529C43.3407 68.83 43.3792 68.9242 43.3792 69.0357V70.1509C43.3792 70.204 43.3686 70.2558 43.3473 70.3063C43.3261 70.3567 43.2982 70.3992 43.2637 70.4337C43.2292 70.4682 43.188 70.4961 43.1402 70.5173C43.0924 70.5386 43.042 70.5492 42.9889 70.5492ZM44.9723 70.5492C44.8608 70.5492 44.7666 70.5107 44.6896 70.4337C44.6126 70.3567 44.5741 70.2624 44.5741 70.1509V67.4426C44.5741 67.3311 44.6126 67.2368 44.6896 67.1598C44.7666 67.0828 44.8608 67.0443 44.9723 67.0443C45.0839 67.0443 45.1781 67.0828 45.2551 67.1598C45.3321 67.2368 45.3706 67.3311 45.3706 67.4426V70.1509C45.3706 70.2624 45.3321 70.3567 45.2551 70.4337C45.1781 70.5107 45.0839 70.5492 44.9723 70.5492Z" fill="#FF6B00"/>
</g>
<rect x="36" y="31" width="237" height="5" rx="2.5" fill="#EBEBEB"/>
<rect x="36" y="42" width="237" height="5" rx="2.5" fill="#E2E2E2"/>
<g filter="url(#filter1_d_1295_41552)">
<rect x="3" y="27" width="260" height="84.1176" rx="5.5615" fill="white"/>
<path d="M20.593 38.9588V46.0371H19.7635L15.9064 40.4796H15.8373V46.0371H14.9801V38.9588H15.8096L19.6805 44.5302H19.7497V38.9588H20.593ZM24.4233 46.1477C23.9118 46.1477 23.4705 46.0348 23.0996 45.809C22.7309 45.5809 22.4463 45.2629 22.2459 44.8551C22.0477 44.445 21.9487 43.968 21.9487 43.4242C21.9487 42.8805 22.0477 42.4012 22.2459 41.9865C22.4463 41.5694 22.7251 41.2445 23.0823 41.0118C23.4417 40.7768 23.8611 40.6593 24.3403 40.6593C24.6168 40.6593 24.8899 40.7054 25.1595 40.7975C25.429 40.8897 25.6744 41.0395 25.8956 41.2468C26.1168 41.4519 26.2931 41.7238 26.4244 42.0625C26.5558 42.4012 26.6214 42.8182 26.6214 43.3136V43.6593H22.5293V42.9542H25.7919C25.7919 42.6547 25.732 42.3874 25.6122 42.1524C25.4947 41.9173 25.3265 41.7319 25.1076 41.5959C24.891 41.46 24.6353 41.392 24.3403 41.392C24.0155 41.392 23.7344 41.4726 23.497 41.6339C23.262 41.7929 23.0811 42.0003 22.9544 42.256C22.8277 42.5118 22.7643 42.786 22.7643 43.0786V43.5487C22.7643 43.9496 22.8334 44.2894 22.9717 44.5682C23.1122 44.8447 23.3069 45.0556 23.5558 45.2007C23.8046 45.3436 24.0938 45.415 24.4233 45.415C24.6376 45.415 24.8311 45.385 25.0039 45.3251C25.179 45.2629 25.33 45.1708 25.4567 45.0486C25.5834 44.9242 25.6813 44.7698 25.7505 44.5855L26.5385 44.8067C26.4555 45.074 26.3161 45.309 26.1203 45.5118C25.9244 45.7122 25.6825 45.8689 25.3945 45.9818C25.1065 46.0924 24.7827 46.1477 24.4233 46.1477ZM29.0649 46.0371L27.4474 40.7284H28.3046L29.452 44.7929H29.5073L30.641 40.7284H31.5119L32.6317 44.7791H32.687L33.8345 40.7284H34.6916L33.0741 46.0371H32.2723L31.111 41.9588H31.0281L29.8668 46.0371H29.0649ZM39.475 38.9588V46.0371H38.6178V38.9588H39.475ZM44.8433 41.9173L44.1106 42.1247C44.0645 42.0026 43.9965 41.8839 43.9067 41.7687C43.8191 41.6512 43.6993 41.5544 43.5472 41.4784C43.3952 41.4024 43.2005 41.3643 42.9631 41.3643C42.6382 41.3643 42.3675 41.4392 42.1509 41.589C41.9366 41.7365 41.8295 41.9242 41.8295 42.1524C41.8295 42.3551 41.9032 42.5153 42.0507 42.6328C42.1982 42.7503 42.4286 42.8482 42.7419 42.9265L43.5299 43.1201C44.0046 43.2353 44.3583 43.4116 44.591 43.6489C44.8237 43.8839 44.9401 44.1869 44.9401 44.5579C44.9401 44.862 44.8525 45.1339 44.6774 45.3735C44.5046 45.6132 44.2627 45.8021 43.9516 45.9403C43.6405 46.0786 43.2788 46.1477 42.8664 46.1477C42.3249 46.1477 41.8767 46.0302 41.5219 45.7952C41.1671 45.5602 40.9424 45.2168 40.8479 44.7652L41.6221 44.5717C41.6959 44.8574 41.8353 45.0717 42.0403 45.2145C42.2477 45.3574 42.5184 45.4288 42.8525 45.4288C43.2327 45.4288 43.5346 45.3482 43.7581 45.1869C43.9839 45.0233 44.0968 44.8274 44.0968 44.5993C44.0968 44.415 44.0322 44.2606 43.9032 44.1362C43.7742 44.0095 43.576 43.915 43.3087 43.8528L42.424 43.6454C41.9378 43.5302 41.5807 43.3517 41.3525 43.1097C41.1267 42.8655 41.0138 42.5602 41.0138 42.1938C41.0138 41.8943 41.0979 41.6293 41.2661 41.3989C41.4366 41.1685 41.6682 40.9876 41.9608 40.8563C42.2558 40.725 42.5899 40.6593 42.9631 40.6593C43.4885 40.6593 43.9009 40.7745 44.2004 41.0049C44.5023 41.2353 44.7166 41.5395 44.8433 41.9173ZM49.9282 41.9173L49.1955 42.1247C49.1494 42.0026 49.0814 41.8839 48.9916 41.7687C48.904 41.6512 48.7842 41.5544 48.6321 41.4784C48.4801 41.4024 48.2854 41.3643 48.048 41.3643C47.7232 41.3643 47.4524 41.4392 47.2358 41.589C47.0216 41.7365 46.9144 41.9242 46.9144 42.1524C46.9144 42.3551 46.9881 42.5153 47.1356 42.6328C47.2831 42.7503 47.5135 42.8482 47.8268 42.9265L48.6149 43.1201C49.0895 43.2353 49.4432 43.4116 49.6759 43.6489C49.9086 43.8839 50.025 44.1869 50.025 44.5579C50.025 44.862 49.9374 45.1339 49.7623 45.3735C49.5895 45.6132 49.3476 45.8021 49.0365 45.9403C48.7255 46.0786 48.3637 46.1477 47.9513 46.1477C47.4098 46.1477 46.9616 46.0302 46.6068 45.7952C46.252 45.5602 46.0273 45.2168 45.9329 44.7652L46.707 44.5717C46.7808 44.8574 46.9202 45.0717 47.1252 45.2145C47.3326 45.3574 47.6033 45.4288 47.9374 45.4288C48.3176 45.4288 48.6195 45.3482 48.843 45.1869C49.0688 45.0233 49.1817 44.8274 49.1817 44.5993C49.1817 44.415 49.1172 44.2606 48.9881 44.1362C48.8591 44.0095 48.6609 43.915 48.3937 43.8528L47.5089 43.6454C47.0227 43.5302 46.6656 43.3517 46.4375 43.1097C46.2117 42.8655 46.0988 42.5602 46.0988 42.1938C46.0988 41.8943 46.1829 41.6293 46.3511 41.3989C46.5216 41.1685 46.7531 40.9876 47.0458 40.8563C47.3407 40.725 47.6748 40.6593 48.048 40.6593C48.5734 40.6593 48.9858 40.7745 49.2854 41.0049C49.5872 41.2353 49.8015 41.5395 49.9282 41.9173ZM54.5984 43.8666V40.7284H55.414V46.0371H54.5984V45.1385H54.5431C54.4187 45.4081 54.2251 45.6373 53.9624 45.8263C53.6998 46.0129 53.368 46.1062 52.9671 46.1062C52.6353 46.1062 52.3403 46.0337 52.0823 45.8885C51.8242 45.741 51.6215 45.5198 51.474 45.2249C51.3265 44.9277 51.2528 44.5533 51.2528 44.1016V40.7284H52.0685V44.0463C52.0685 44.4334 52.1767 44.7422 52.3933 44.9726C52.6122 45.203 52.891 45.3182 53.2297 45.3182C53.4325 45.3182 53.6387 45.2664 53.8484 45.1627C54.0604 45.059 54.2378 44.9 54.3806 44.6857C54.5258 44.4715 54.5984 44.1984 54.5984 43.8666ZM59.1338 46.1477C58.6222 46.1477 58.181 46.0348 57.81 45.809C57.4414 45.5809 57.1568 45.2629 56.9564 44.8551C56.7582 44.445 56.6591 43.968 56.6591 43.4242C56.6591 42.8805 56.7582 42.4012 56.9564 41.9865C57.1568 41.5694 57.4356 41.2445 57.7928 41.0118C58.1522 40.7768 58.5716 40.6593 59.0508 40.6593C59.3273 40.6593 59.6003 40.7054 59.8699 40.7975C60.1395 40.8897 60.3849 41.0395 60.6061 41.2468C60.8273 41.4519 61.0036 41.7238 61.1349 42.0625C61.2662 42.4012 61.3319 42.8182 61.3319 43.3136V43.6593H57.2398V42.9542H60.5024C60.5024 42.6547 60.4425 42.3874 60.3227 42.1524C60.2052 41.9173 60.037 41.7319 59.8181 41.5959C59.6015 41.46 59.3457 41.392 59.0508 41.392C58.7259 41.392 58.4448 41.4726 58.2075 41.6339C57.9725 41.7929 57.7916 42.0003 57.6649 42.256C57.5382 42.5118 57.4748 42.786 57.4748 43.0786V43.5487C57.4748 43.9496 57.5439 44.2894 57.6822 44.5682C57.8227 44.8447 58.0174 45.0556 58.2663 45.2007C58.5151 45.3436 58.8043 45.415 59.1338 45.415C59.348 45.415 59.5416 45.385 59.7144 45.3251C59.8895 45.2629 60.0404 45.1708 60.1672 45.0486C60.2939 44.9242 60.3918 44.7698 60.4609 44.5855L61.2489 44.8067C61.166 45.074 61.0266 45.309 60.8307 45.5118C60.6349 45.7122 60.393 45.8689 60.105 45.9818C59.8169 46.0924 59.4932 46.1477 59.1338 46.1477Z" fill="#858E96"/>
<circle cx="89.106" cy="92.4444" r="4.96388" fill="white"/>
<circle cx="89.1055" cy="92.4443" r="4.51262" fill="#F7AE59"/>
<circle cx="81.4345" cy="92.4444" r="4.96388" fill="white"/>
<circle cx="81.434" cy="92.4443" r="4.51262" fill="#8CC1FF"/>
<circle cx="73.3115" cy="92.4444" r="4.96388" fill="white"/>
<circle cx="73.3117" cy="92.4443" r="4.51262" fill="#2C435F"/>
<rect x="37.2379" y="84.1787" width="23.984" height="16.3369" rx="2.60695" fill="white" stroke="#DEE2E6" stroke-width="0.347594"/>
<circle cx="48.8824" cy="92.3478" r="4.86631" stroke="#FCBE1D" stroke-width="0.695187" stroke-linecap="round" stroke-dasharray="0 13.9 0 6.95"/>
<path d="M51.2008 89.3557C50.5322 88.8376 49.7093 88.5583 48.8635 88.5625C48.0176 88.5668 47.1976 88.8542 46.5342 89.379L48.8824 92.3474L51.2008 89.3557Z" fill="#FCBE1D"/>
<path d="M46.5576 95.3396C47.2262 95.8578 48.049 96.137 48.8949 96.1328C49.7407 96.1285 50.5608 95.8411 51.2242 95.3163L48.876 92.3479L46.5576 95.3396Z" fill="#FCBE1D"/>
<rect x="14.8182" y="84.0049" width="16.6845" height="16.6845" rx="2.78075" fill="#FFEDD5"/>
<rect x="18.9893" y="88.1758" width="7.64706" height="7.64706" rx="3.47594" fill="#FFEDD5"/>
<path d="M24.9638 94.5492C24.8522 94.5492 24.758 94.5107 24.681 94.4337C24.604 94.3567 24.5655 94.2624 24.5655 94.1509V89.8495C24.5655 89.7379 24.604 89.6437 24.681 89.5667C24.758 89.4897 24.8522 89.4512 24.9638 89.4512C25.0753 89.4512 25.1695 89.4897 25.2466 89.5667C25.3236 89.6437 25.3621 89.7379 25.3621 89.8495V94.1509C25.3621 94.2624 25.3236 94.3567 25.2466 94.4337C25.1695 94.5107 25.0753 94.5492 24.9638 94.5492ZM20.9889 94.5492C20.9305 94.5492 20.876 94.5386 20.8256 94.5173C20.7751 94.4961 20.7327 94.4682 20.6981 94.4337C20.6636 94.3992 20.6357 94.3567 20.6145 94.3063C20.5933 94.2558 20.5826 94.204 20.5826 94.1509V93.0357C20.5826 92.9242 20.6211 92.83 20.6981 92.7529C20.7751 92.6759 20.8694 92.6374 20.9809 92.6374C21.0924 92.6374 21.1867 92.6759 21.2637 92.7529C21.3407 92.83 21.3792 92.9242 21.3792 93.0357V94.1509C21.3792 94.204 21.3686 94.2558 21.3473 94.3063C21.3261 94.3567 21.2982 94.3992 21.2637 94.4337C21.2292 94.4682 21.188 94.4961 21.1402 94.5173C21.0924 94.5386 21.042 94.5492 20.9889 94.5492ZM22.9723 94.5492C22.8608 94.5492 22.7666 94.5107 22.6896 94.4337C22.6126 94.3567 22.5741 94.2624 22.5741 94.1509V91.4426C22.5741 91.3311 22.6126 91.2368 22.6896 91.1598C22.7666 91.0828 22.8608 91.0443 22.9723 91.0443C23.0839 91.0443 23.1781 91.0828 23.2551 91.1598C23.3321 91.2368 23.3706 91.3311 23.3706 91.4426V94.1509C23.3706 94.2624 23.3321 94.3567 23.2551 94.4337C23.1781 94.5107 23.0839 94.5492 22.9723 94.5492Z" fill="#FF6B00"/>
</g>
<rect x="14" y="55" width="237" height="5" rx="2.5" fill="#EBEBEB"/>
<rect x="14" y="66" width="237" height="5" rx="2.5" fill="#E2E2E2"/>
<defs>
<filter id="filter0_d_1295_41552" x="22.2193" y="0.219251" width="265.561" height="89.6787" filterUnits="userSpaceOnUse" color-interpolation-filters="sRGB">
<feFlood flood-opacity="0" result="BackgroundImageFix"/>
<feColorMatrix in="SourceAlpha" type="matrix" values="0 0 0 0 0 0 0 0 0 0 0 0 0 0 0 0 0 0 127 0" result="hardAlpha"/>
<feOffset/>
<feGaussianBlur stdDeviation="1.39037"/>
<feComposite in2="hardAlpha" operator="out"/>
<feColorMatrix type="matrix" values="0 0 0 0 0 0 0 0 0 0 0 0 0 0 0 0 0 0 0.2 0"/>
<feBlend mode="normal" in2="BackgroundImageFix" result="effect1_dropShadow_1295_41552"/>
<feBlend mode="normal" in="SourceGraphic" in2="effect1_dropShadow_1295_41552" result="shape"/>
</filter>
<filter id="filter1_d_1295_41552" x="0.219251" y="24.2193" width="265.561" height="89.6787" filterUnits="userSpaceOnUse" color-interpolation-filters="sRGB">
<feFlood flood-opacity="0" result="BackgroundImageFix"/>
<feColorMatrix in="SourceAlpha" type="matrix" values="0 0 0 0 0 0 0 0 0 0 0 0 0 0 0 0 0 0 127 0" result="hardAlpha"/>
<feOffset/>
<feGaussianBlur stdDeviation="1.39037"/>
<feComposite in2="hardAlpha" operator="out"/>
<feColorMatrix type="matrix" values="0 0 0 0 0 0 0 0 0 0 0 0 0 0 0 0 0 0 0.2 0"/>
<feBlend mode="normal" in2="BackgroundImageFix" result="effect1_dropShadow_1295_41552"/>
<feBlend mode="normal" in="SourceGraphic" in2="effect1_dropShadow_1295_41552" result="shape"/>
</filter>
</defs>
</svg>
