<svg width="296" height="106" viewBox="0 0 296 106" fill="none" xmlns="http://www.w3.org/2000/svg">
<g filter="url(#filter0_d_2884_60261)">
<rect x="14" y="3.5" width="279" height="80" rx="5.5615" fill="white"/>
<rect x="25" y="31.5" width="103" height="10" rx="5" fill="#DEE2E6"/>
<rect x="25" y="48.5" width="230" height="7" rx="3.5" fill="#F1F3F5"/>
<rect x="25" y="62.5" width="230" height="7" rx="3.5" fill="#F1F3F5"/>
<path d="M31.676 17.6708H30.8188C30.7682 17.4243 30.6794 17.2077 30.5527 17.021C30.4283 16.8344 30.2762 16.6777 30.0965 16.551C29.9191 16.422 29.7221 16.3252 29.5055 16.2607C29.2889 16.1962 29.0631 16.1639 28.8281 16.1639C28.3995 16.1639 28.0113 16.2722 27.6633 16.4888C27.3177 16.7054 27.0424 17.0245 26.8373 17.4461C26.6346 17.8678 26.5332 18.3851 26.5332 18.998C26.5332 19.6109 26.6346 20.1281 26.8373 20.5498C27.0424 20.9715 27.3177 21.2906 27.6633 21.5072C28.0113 21.7238 28.3995 21.832 28.8281 21.832C29.0631 21.832 29.2889 21.7998 29.5055 21.7353C29.7221 21.6708 29.9191 21.5751 30.0965 21.4484C30.2762 21.3194 30.4283 21.1615 30.5527 20.9749C30.6794 20.786 30.7682 20.5694 30.8188 20.3252H31.676C31.6115 20.6869 31.494 21.0106 31.3234 21.2963C31.1529 21.582 30.941 21.8251 30.6875 22.0256C30.4341 22.2237 30.1495 22.3747 29.8338 22.4784C29.5205 22.582 29.1852 22.6339 28.8281 22.6339C28.2244 22.6339 27.6875 22.4864 27.2175 22.1915C26.7475 21.8966 26.3776 21.4772 26.1081 20.9334C25.8385 20.3897 25.7037 19.7445 25.7037 18.998C25.7037 18.2514 25.8385 17.6063 26.1081 17.0625C26.3776 16.5187 26.7475 16.0994 27.2175 15.8045C27.6875 15.5095 28.2244 15.3621 28.8281 15.3621C29.1852 15.3621 29.5205 15.4139 29.8338 15.5176C30.1495 15.6213 30.4341 15.7734 30.6875 15.9738C30.941 16.172 31.1529 16.4139 31.3234 16.6996C31.494 16.983 31.6115 17.3067 31.676 17.6708ZM33.7661 15.4588V22.5371H32.9504V15.4588H33.7661ZM35.26 22.5371V17.2284H36.0757V22.5371H35.26ZM35.6748 16.3436C35.5158 16.3436 35.3787 16.2895 35.2635 16.1812C35.1506 16.0729 35.0941 15.9427 35.0941 15.7906C35.0941 15.6386 35.1506 15.5084 35.2635 15.4001C35.3787 15.2918 35.5158 15.2376 35.6748 15.2376C35.8338 15.2376 35.9697 15.2918 36.0826 15.4001C36.1978 15.5084 36.2554 15.6386 36.2554 15.7906C36.2554 15.9427 36.1978 16.0729 36.0826 16.1812C35.9697 16.2895 35.8338 16.3436 35.6748 16.3436ZM39.7954 22.6477C39.2839 22.6477 38.8427 22.5348 38.4717 22.309C38.103 22.0809 37.8185 21.7629 37.618 21.3551C37.4199 20.945 37.3208 20.468 37.3208 19.9242C37.3208 19.3805 37.4199 18.9012 37.618 18.4865C37.8185 18.0694 38.0973 17.7445 38.4544 17.5118C38.8139 17.2768 39.2332 17.1593 39.7125 17.1593C39.989 17.1593 40.262 17.2054 40.5316 17.2975C40.8012 17.3897 41.0466 17.5395 41.2678 17.7468C41.489 17.9519 41.6652 18.2238 41.7966 18.5625C41.9279 18.9012 41.9936 19.3182 41.9936 19.8136V20.1593H37.9014V19.4542H41.1641C41.1641 19.1547 41.1042 18.8874 40.9843 18.6524C40.8668 18.4173 40.6986 18.2319 40.4797 18.0959C40.2632 17.96 40.0074 17.892 39.7125 17.892C39.3876 17.892 39.1065 17.9726 38.8692 18.1339C38.6341 18.2929 38.4533 18.5003 38.3265 18.756C38.1998 19.0118 38.1365 19.286 38.1365 19.5786V20.0487C38.1365 20.4496 38.2056 20.7894 38.3438 21.0682C38.4844 21.3447 38.6791 21.5556 38.9279 21.7007C39.1768 21.8436 39.4659 21.915 39.7954 21.915C40.0097 21.915 40.2033 21.885 40.3761 21.8251C40.5512 21.7629 40.7021 21.6708 40.8288 21.5486C40.9555 21.4242 41.0535 21.2698 41.1226 21.0855L41.9106 21.3067C41.8277 21.574 41.6883 21.809 41.4924 22.0118C41.2966 22.2122 41.0546 22.3689 40.7666 22.4818C40.4786 22.5924 40.1549 22.6477 39.7954 22.6477ZM44.05 19.3436V22.5371H43.2343V17.2284H44.0223V18.0579H44.0915C44.2159 17.7883 44.4048 17.5717 44.6583 17.4081C44.9117 17.2422 45.2389 17.1593 45.6398 17.1593C45.9993 17.1593 46.3138 17.233 46.5834 17.3805C46.853 17.5256 47.0626 17.7468 47.2124 18.0441C47.3622 18.339 47.437 18.7123 47.437 19.1639V22.5371H46.6214V19.2192C46.6214 18.8021 46.5131 18.4772 46.2965 18.2445C46.0799 18.0095 45.7827 17.892 45.4048 17.892C45.1444 17.892 44.9117 17.9484 44.7067 18.0613C44.5039 18.1743 44.3438 18.339 44.2263 18.5556C44.1087 18.7722 44.05 19.0348 44.05 19.3436ZM51.2363 17.2284V17.9196H48.4851V17.2284H51.2363ZM49.287 15.9565H50.1026V21.0164C50.1026 21.2468 50.136 21.4196 50.2029 21.5348C50.272 21.6477 50.3595 21.7238 50.4655 21.7629C50.5738 21.7998 50.6879 21.8182 50.8077 21.8182C50.8976 21.8182 50.9713 21.8136 51.0289 21.8044C51.0865 21.7929 51.1326 21.7837 51.1671 21.7767L51.333 22.5095C51.2777 22.5302 51.2005 22.5509 51.1015 22.5717C51.0024 22.5947 50.8768 22.6062 50.7247 22.6062C50.4943 22.6062 50.2685 22.5567 50.0473 22.4576C49.8284 22.3585 49.6464 22.2076 49.5013 22.0049C49.3584 21.8021 49.287 21.5463 49.287 21.2376V15.9565ZM55.2005 22.5371V17.2284H55.9885V18.0579H56.0576C56.1682 17.7745 56.3468 17.5544 56.5933 17.3978C56.8399 17.2388 57.136 17.1593 57.4816 17.1593C57.8318 17.1593 58.1233 17.2388 58.356 17.3978C58.591 17.5544 58.7742 17.7745 58.9055 18.0579H58.9608C59.0968 17.7837 59.3007 17.566 59.5726 17.4047C59.8445 17.2411 60.1705 17.1593 60.5507 17.1593C61.0253 17.1593 61.4136 17.3079 61.7154 17.6051C62.0173 17.9001 62.1682 18.3597 62.1682 18.9841V22.5371H61.3525V18.9841C61.3525 18.5924 61.2454 18.3125 61.0311 18.1443C60.8168 17.9761 60.5645 17.892 60.2742 17.892C59.9009 17.892 59.6118 18.0049 59.4067 18.2307C59.2016 18.4542 59.0991 18.7376 59.0991 19.0809V22.5371H58.2696V18.9012C58.2696 18.5994 58.1717 18.3563 57.9758 18.1719C57.78 17.9853 57.5277 17.892 57.2189 17.892C57.0069 17.892 56.8088 17.9484 56.6245 18.0613C56.4424 18.1743 56.295 18.3309 56.1821 18.5314C56.0715 18.7295 56.0162 18.9588 56.0162 19.2192V22.5371H55.2005ZM65.8853 22.6477C65.3738 22.6477 64.9326 22.5348 64.5616 22.309C64.1929 22.0809 63.9084 21.7629 63.7079 21.3551C63.5098 20.945 63.4107 20.468 63.4107 19.9242C63.4107 19.3805 63.5098 18.9012 63.7079 18.4865C63.9084 18.0694 64.1872 17.7445 64.5443 17.5118C64.9038 17.2768 65.3231 17.1593 65.8024 17.1593C66.0789 17.1593 66.3519 17.2054 66.6215 17.2975C66.8911 17.3897 67.1364 17.5395 67.3576 17.7468C67.5788 17.9519 67.7551 18.2238 67.8864 18.5625C68.0178 18.9012 68.0834 19.3182 68.0834 19.8136V20.1593H63.9913V19.4542H67.254C67.254 19.1547 67.194 18.8874 67.0742 18.6524C66.9567 18.4173 66.7885 18.2319 66.5696 18.0959C66.353 17.96 66.0973 17.892 65.8024 17.892C65.4775 17.892 65.1964 17.9726 64.959 18.1339C64.724 18.2929 64.5432 18.5003 64.4164 18.756C64.2897 19.0118 64.2263 19.286 64.2263 19.5786V20.0487C64.2263 20.4496 64.2955 20.7894 64.4337 21.0682C64.5743 21.3447 64.769 21.5556 65.0178 21.7007C65.2666 21.8436 65.5558 21.915 65.8853 21.915C66.0996 21.915 66.2931 21.885 66.4659 21.8251C66.6411 21.7629 66.792 21.6708 66.9187 21.5486C67.0454 21.4242 67.1434 21.2698 67.2125 21.0855L68.0005 21.3067C67.9175 21.574 67.7781 21.809 67.5823 22.0118C67.3864 22.2122 67.1445 22.3689 66.8565 22.4818C66.5685 22.5924 66.2448 22.6477 65.8853 22.6477ZM71.55 22.6477C71.0385 22.6477 70.5972 22.5348 70.2263 22.309C69.8576 22.0809 69.5731 21.7629 69.3726 21.3551C69.1744 20.945 69.0754 20.468 69.0754 19.9242C69.0754 19.3805 69.1744 18.9012 69.3726 18.4865C69.5731 18.0694 69.8519 17.7445 70.209 17.5118C70.5684 17.2768 70.9878 17.1593 71.467 17.1593C71.7435 17.1593 72.0166 17.2054 72.2862 17.2975C72.5557 17.3897 72.8011 17.5395 73.0223 17.7468C73.2435 17.9519 73.4198 18.2238 73.5511 18.5625C73.6825 18.9012 73.7481 19.3182 73.7481 19.8136V20.1593H69.656V19.4542H72.9186C72.9186 19.1547 72.8587 18.8874 72.7389 18.6524C72.6214 18.4173 72.4532 18.2319 72.2343 18.0959C72.0177 17.96 71.762 17.892 71.467 17.892C71.1422 17.892 70.8611 17.9726 70.6237 18.1339C70.3887 18.2929 70.2078 18.5003 70.0811 18.756C69.9544 19.0118 69.891 19.286 69.891 19.5786V20.0487C69.891 20.4496 69.9601 20.7894 70.0984 21.0682C70.2389 21.3447 70.4336 21.5556 70.6825 21.7007C70.9313 21.8436 71.2205 21.915 71.55 21.915C71.7643 21.915 71.9578 21.885 72.1306 21.8251C72.3057 21.7629 72.4567 21.6708 72.5834 21.5486C72.7101 21.4242 72.808 21.2698 72.8772 21.0855L73.6652 21.3067C73.5822 21.574 73.4428 21.809 73.247 22.0118C73.0511 22.2122 72.8092 22.3689 72.5212 22.4818C72.2332 22.5924 71.9094 22.6477 71.55 22.6477ZM77.2976 17.2284V17.9196H74.5465V17.2284H77.2976ZM75.3483 15.9565H76.164V21.0164C76.164 21.2468 76.1974 21.4196 76.2642 21.5348C76.3334 21.6477 76.4209 21.7238 76.5269 21.7629C76.6352 21.7998 76.7493 21.8182 76.8691 21.8182C76.9589 21.8182 77.0327 21.8136 77.0903 21.8044C77.1479 21.7929 77.1939 21.7837 77.2285 21.7767L77.3944 22.5095C77.3391 22.5302 77.2619 22.5509 77.1628 22.5717C77.0638 22.5947 76.9382 22.6062 76.7861 22.6062C76.5557 22.6062 76.3299 22.5567 76.1087 22.4576C75.8898 22.3585 75.7078 22.2076 75.5626 22.0049C75.4198 21.8021 75.3483 21.5463 75.3483 21.2376V15.9565ZM78.5246 22.5371V17.2284H79.3402V22.5371H78.5246ZM78.9393 16.3436C78.7803 16.3436 78.6432 16.2895 78.528 16.1812C78.4151 16.0729 78.3587 15.9427 78.3587 15.7906C78.3587 15.6386 78.4151 15.5084 78.528 15.4001C78.6432 15.2918 78.7803 15.2376 78.9393 15.2376C79.0983 15.2376 79.2342 15.2918 79.3472 15.4001C79.4624 15.5084 79.52 15.6386 79.52 15.7906C79.52 15.9427 79.4624 16.0729 79.3472 16.1812C79.2342 16.2895 79.0983 16.3436 78.9393 16.3436ZM81.6498 19.3436V22.5371H80.8342V17.2284H81.6222V18.0579H81.6913C81.8157 17.7883 82.0047 17.5717 82.2581 17.4081C82.5116 17.2422 82.8388 17.1593 83.2397 17.1593C83.5991 17.1593 83.9136 17.233 84.1832 17.3805C84.4528 17.5256 84.6625 17.7468 84.8122 18.0441C84.962 18.339 85.0369 18.7123 85.0369 19.1639V22.5371H84.2212V19.2192C84.2212 18.8021 84.1129 18.4772 83.8964 18.2445C83.6798 18.0095 83.3825 17.892 83.0047 17.892C82.7443 17.892 82.5116 17.9484 82.3065 18.0613C82.1037 18.1743 81.9436 18.339 81.8261 18.5556C81.7086 18.7722 81.6498 19.0348 81.6498 19.3436ZM88.6702 24.6385C88.2762 24.6385 87.9375 24.5878 87.6541 24.4864C87.3707 24.3873 87.1345 24.256 86.9456 24.0924C86.7589 23.9311 86.6103 23.7583 86.4997 23.574L87.1495 23.1177C87.2232 23.2145 87.3165 23.3251 87.4294 23.4495C87.5423 23.5763 87.6967 23.6857 87.8926 23.7779C88.0907 23.8723 88.3499 23.9196 88.6702 23.9196C89.0988 23.9196 89.4525 23.8159 89.7313 23.6085C90.0101 23.4012 90.1495 23.0763 90.1495 22.6339V21.5556H90.0803C90.0204 21.6523 89.9352 21.7721 89.8246 21.915C89.7163 22.0555 89.5596 22.1811 89.3545 22.2917C89.1518 22.4 88.8776 22.4542 88.532 22.4542C88.1034 22.4542 87.7186 22.3528 87.3776 22.15C87.0389 21.9473 86.7705 21.6523 86.5723 21.2652C86.3765 20.8781 86.2785 20.4081 86.2785 19.8551C86.2785 19.3113 86.3742 18.8378 86.5654 18.4346C86.7566 18.0291 87.0228 17.7157 87.3638 17.4945C87.7048 17.271 88.0988 17.1593 88.5458 17.1593C88.8914 17.1593 89.1656 17.2169 89.3684 17.3321C89.5734 17.445 89.7301 17.574 89.8384 17.7192C89.949 17.862 90.0343 17.9796 90.0942 18.0717H90.1771V17.2284H90.9651V22.6892C90.9651 23.1454 90.8614 23.5164 90.6541 23.8021C90.449 24.0901 90.1725 24.3009 89.8246 24.4346C89.479 24.5705 89.0942 24.6385 88.6702 24.6385ZM88.6426 21.7214C88.9697 21.7214 89.2462 21.6466 89.472 21.4968C89.6979 21.347 89.8695 21.1316 89.987 20.8505C90.1045 20.5694 90.1633 20.233 90.1633 19.8413C90.1633 19.4588 90.1057 19.1212 89.9905 18.8286C89.8753 18.536 89.7048 18.3067 89.479 18.1408C89.2532 17.9749 88.9744 17.892 88.6426 17.892C88.2969 17.892 88.0089 17.9796 87.7785 18.1547C87.5504 18.3298 87.3788 18.5648 87.2635 18.8597C87.1506 19.1547 87.0942 19.4818 87.0942 19.8413C87.0942 20.2099 87.1518 20.536 87.267 20.8194C87.3845 21.1005 87.5573 21.3217 87.7854 21.483C88.0158 21.642 88.3016 21.7214 88.6426 21.7214ZM96.0112 19.3436V22.5371H95.1955V17.2284H95.9835V18.0579H96.0526C96.1771 17.7883 96.366 17.5717 96.6194 17.4081C96.8729 17.2422 97.2001 17.1593 97.601 17.1593C97.9604 17.1593 98.275 17.233 98.5445 17.3805C98.8141 17.5256 99.0238 17.7468 99.1736 18.0441C99.3233 18.339 99.3982 18.7123 99.3982 19.1639V22.5371H98.5826V19.2192C98.5826 18.8021 98.4743 18.4772 98.2577 18.2445C98.0411 18.0095 97.7439 17.892 97.366 17.892C97.1056 17.892 96.8729 17.9484 96.6678 18.0613C96.4651 18.1743 96.3049 18.339 96.1874 18.5556C96.0699 18.7722 96.0112 19.0348 96.0112 19.3436ZM103.045 22.6477C102.566 22.6477 102.146 22.5337 101.784 22.3055C101.424 22.0774 101.143 21.7583 100.941 21.3482C100.74 20.938 100.64 20.4588 100.64 19.9104C100.64 19.3574 100.74 18.8747 100.941 18.4623C101.143 18.0498 101.424 17.7296 101.784 17.5014C102.146 17.2733 102.566 17.1593 103.045 17.1593C103.525 17.1593 103.944 17.2733 104.303 17.5014C104.665 17.7296 104.946 18.0498 105.147 18.4623C105.349 18.8747 105.451 19.3574 105.451 19.9104C105.451 20.4588 105.349 20.938 105.147 21.3482C104.946 21.7583 104.665 22.0774 104.303 22.3055C103.944 22.5337 103.525 22.6477 103.045 22.6477ZM103.045 21.915C103.409 21.915 103.709 21.8217 103.944 21.635C104.179 21.4484 104.353 21.203 104.466 20.8989C104.579 20.5947 104.635 20.2652 104.635 19.9104C104.635 19.5556 104.579 19.2249 104.466 18.9185C104.353 18.612 104.179 18.3643 103.944 18.1754C103.709 17.9865 103.409 17.892 103.045 17.892C102.681 17.892 102.382 17.9865 102.147 18.1754C101.912 18.3643 101.738 18.612 101.625 18.9185C101.512 19.2249 101.456 19.5556 101.456 19.9104C101.456 20.2652 101.512 20.5947 101.625 20.8989C101.738 21.203 101.912 21.4484 102.147 21.635C102.382 21.8217 102.681 21.915 103.045 21.915ZM109.005 17.2284V17.9196H106.254V17.2284H109.005ZM107.055 15.9565H107.871V21.0164C107.871 21.2468 107.904 21.4196 107.971 21.5348C108.04 21.6477 108.128 21.7238 108.234 21.7629C108.342 21.7998 108.456 21.8182 108.576 21.8182C108.666 21.8182 108.74 21.8136 108.797 21.8044C108.855 21.7929 108.901 21.7837 108.936 21.7767L109.101 22.5095C109.046 22.5302 108.969 22.5509 108.87 22.5717C108.771 22.5947 108.645 22.6062 108.493 22.6062C108.263 22.6062 108.037 22.5567 107.816 22.4576C107.597 22.3585 107.415 22.2076 107.27 22.0049C107.127 21.8021 107.055 21.5463 107.055 21.2376V15.9565ZM112.4 22.6477C111.889 22.6477 111.448 22.5348 111.077 22.309C110.708 22.0809 110.423 21.7629 110.223 21.3551C110.025 20.945 109.926 20.468 109.926 19.9242C109.926 19.3805 110.025 18.9012 110.223 18.4865C110.423 18.0694 110.702 17.7445 111.059 17.5118C111.419 17.2768 111.838 17.1593 112.317 17.1593C112.594 17.1593 112.867 17.2054 113.137 17.2975C113.406 17.3897 113.652 17.5395 113.873 17.7468C114.094 17.9519 114.27 18.2238 114.402 18.5625C114.533 18.9012 114.599 19.3182 114.599 19.8136V20.1593H110.506V19.4542H113.769C113.769 19.1547 113.709 18.8874 113.589 18.6524C113.472 18.4173 113.304 18.2319 113.085 18.0959C112.868 17.96 112.612 17.892 112.317 17.892C111.993 17.892 111.711 17.9726 111.474 18.1339C111.239 18.2929 111.058 18.5003 110.932 18.756C110.805 19.0118 110.741 19.286 110.741 19.5786V20.0487C110.741 20.4496 110.811 20.7894 110.949 21.0682C111.089 21.3447 111.284 21.5556 111.533 21.7007C111.782 21.8436 112.071 21.915 112.4 21.915C112.615 21.915 112.808 21.885 112.981 21.8251C113.156 21.7629 113.307 21.6708 113.434 21.5486C113.561 21.4242 113.658 21.2698 113.728 21.0855L114.516 21.3067C114.433 21.574 114.293 21.809 114.097 22.0118C113.902 22.2122 113.66 22.3689 113.372 22.4818C113.084 22.5924 112.76 22.6477 112.4 22.6477ZM119.6 18.4173L118.867 18.6247C118.821 18.5026 118.753 18.3839 118.663 18.2687C118.575 18.1512 118.456 18.0544 118.304 17.9784C118.151 17.9024 117.957 17.8643 117.719 17.8643C117.395 17.8643 117.124 17.9392 116.907 18.089C116.693 18.2365 116.586 18.4242 116.586 18.6524C116.586 18.8551 116.66 19.0153 116.807 19.1328C116.954 19.2503 117.185 19.3482 117.498 19.4265L118.286 19.6201C118.761 19.7353 119.115 19.9116 119.347 20.1489C119.58 20.3839 119.696 20.6869 119.696 21.0579C119.696 21.362 119.609 21.6339 119.434 21.8735C119.261 22.1132 119.019 22.3021 118.708 22.4403C118.397 22.5786 118.035 22.6477 117.623 22.6477C117.081 22.6477 116.633 22.5302 116.278 22.2952C115.923 22.0602 115.699 21.7168 115.604 21.2652L116.378 21.0717C116.452 21.3574 116.592 21.5717 116.797 21.7145C117.004 21.8574 117.275 21.9288 117.609 21.9288C117.989 21.9288 118.291 21.8482 118.514 21.6869C118.74 21.5233 118.853 21.3274 118.853 21.0993C118.853 20.915 118.789 20.7606 118.66 20.6362C118.531 20.5095 118.332 20.415 118.065 20.3528L117.18 20.1454C116.694 20.0302 116.337 19.8517 116.109 19.6097C115.883 19.3655 115.77 19.0602 115.77 18.6938C115.77 18.3943 115.854 18.1293 116.022 17.8989C116.193 17.6685 116.425 17.4876 116.717 17.3563C117.012 17.225 117.346 17.1593 117.719 17.1593C118.245 17.1593 118.657 17.2745 118.957 17.5049C119.259 17.7353 119.473 18.0395 119.6 18.4173Z" fill="#858E96"/>
<path d="M278 40.668C277.118 40.668 276.342 40.3607 275.672 39.7461C275.002 39.1315 274.667 38.2999 274.667 37.2513C274.667 36.5846 274.922 35.8607 275.433 35.0794C275.943 34.2982 276.719 33.4527 277.761 32.543C277.795 32.5152 277.834 32.4926 277.875 32.4753C277.917 32.4579 277.959 32.4492 278 32.4492C278.042 32.4492 278.084 32.4579 278.125 32.4753C278.167 32.4926 278.205 32.5152 278.24 32.543C279.282 33.4527 280.058 34.2982 280.568 35.0794C281.078 35.8607 281.334 36.5846 281.334 37.2513C281.334 38.2999 280.999 39.1315 280.328 39.7461C279.658 40.3607 278.882 40.668 278 40.668ZM278 40.043C278.764 40.043 279.407 39.7791 279.927 39.2513C280.448 38.7235 280.709 38.0569 280.709 37.2513C280.709 36.7027 280.478 36.0794 280.016 35.3815C279.554 34.6836 278.882 33.9457 278 33.168C277.118 33.9457 276.447 34.6836 275.985 35.3815C275.523 36.0794 275.292 36.7027 275.292 37.2513C275.292 38.0569 275.552 38.7235 276.073 39.2513C276.594 39.7791 277.236 40.043 278 40.043ZM277.99 39.3346C278.101 39.3346 278.186 39.3155 278.245 39.2773C278.304 39.2391 278.334 39.1819 278.334 39.1055C278.334 39.0291 278.304 38.9701 278.245 38.9284C278.186 38.8867 278.098 38.8659 277.979 38.8659C277.688 38.8659 277.391 38.7739 277.089 38.5898C276.787 38.4058 276.594 38.0812 276.511 37.6159C276.497 37.5534 276.466 37.503 276.417 37.4648C276.368 37.4266 276.316 37.4076 276.261 37.4076C276.184 37.4076 276.125 37.4371 276.084 37.4961C276.042 37.5551 276.028 37.6159 276.042 37.6784C276.146 38.2617 276.393 38.6836 276.782 38.944C277.17 39.2044 277.573 39.3346 277.99 39.3346Z" fill="#858E96"/>
</g>
<g filter="url(#filter1_d_2884_60261)">
<rect x="3" y="22.5" width="279" height="80" rx="5.5615" fill="white"/>
<rect x="14" y="50.5" width="103" height="10" rx="5" fill="#DEE2E6"/>
<rect x="14" y="67.5" width="230" height="7" rx="3.5" fill="#F1F3F5"/>
<rect x="14" y="81.5" width="230" height="7" rx="3.5" fill="#F1F3F5"/>
<path d="M14.9802 41.5371V34.4588H19.252V35.2192H15.8373V37.6109H19.0308V38.3712H15.8373V40.7767H19.3073V41.5371H14.9802ZM25.0273 36.2284L23.0642 41.5371H22.2347L20.2716 36.2284H21.1564L22.6218 40.4588H22.6771L24.1425 36.2284H25.0273ZM28.1396 41.6477C27.6281 41.6477 27.1869 41.5348 26.8159 41.309C26.4472 41.0809 26.1627 40.7629 25.9622 40.3551C25.7641 39.945 25.665 39.468 25.665 38.9242C25.665 38.3805 25.7641 37.9012 25.9622 37.4865C26.1627 37.0694 26.4415 36.7445 26.7986 36.5118C27.1581 36.2768 27.5774 36.1593 28.0567 36.1593C28.3332 36.1593 28.6062 36.2054 28.8758 36.2975C29.1454 36.3897 29.3907 36.5395 29.6119 36.7468C29.8331 36.9519 30.0094 37.2238 30.1407 37.5625C30.2721 37.9012 30.3377 38.3182 30.3377 38.8136V39.1593H26.2456V38.4542H29.5083C29.5083 38.1547 29.4484 37.8874 29.3285 37.6524C29.211 37.4173 29.0428 37.2319 28.8239 37.0959C28.6073 36.96 28.3516 36.892 28.0567 36.892C27.7318 36.892 27.4507 36.9726 27.2134 37.1339C26.9783 37.2929 26.7975 37.5003 26.6707 37.756C26.544 38.0118 26.4806 38.286 26.4806 38.5786V39.0487C26.4806 39.4496 26.5498 39.7894 26.688 40.0682C26.8286 40.3447 27.0233 40.5556 27.2721 40.7007C27.521 40.8436 27.8101 40.915 28.1396 40.915C28.3539 40.915 28.5474 40.885 28.7202 40.8251C28.8954 40.7629 29.0463 40.6708 29.173 40.5486C29.2997 40.4242 29.3977 40.2698 29.4668 40.0855L30.2548 40.3067C30.1718 40.574 30.0324 40.809 29.8366 41.0118C29.6407 41.2122 29.3988 41.3689 29.1108 41.4818C28.8228 41.5924 28.4991 41.6477 28.1396 41.6477ZM32.3942 38.3436V41.5371H31.5785V36.2284H32.3665V37.0579H32.4356C32.5601 36.7883 32.749 36.5717 33.0025 36.4081C33.2559 36.2422 33.5831 36.1593 33.984 36.1593C34.3435 36.1593 34.658 36.233 34.9276 36.3805C35.1971 36.5256 35.4068 36.7468 35.5566 37.0441C35.7064 37.339 35.7812 37.7123 35.7812 38.1639V41.5371H34.9656V38.2192C34.9656 37.8021 34.8573 37.4772 34.6407 37.2445C34.4241 37.0095 34.1269 36.892 33.749 36.892C33.4886 36.892 33.2559 36.9484 33.0508 37.0613C32.8481 37.1743 32.6879 37.339 32.5704 37.5556C32.4529 37.7722 32.3942 38.0348 32.3942 38.3436ZM37.2717 41.5371V36.2284H38.0874V41.5371H37.2717ZM37.6865 35.3436C37.5275 35.3436 37.3904 35.2895 37.2752 35.1812C37.1623 35.0729 37.1058 34.9427 37.1058 34.7906C37.1058 34.6386 37.1623 34.5084 37.2752 34.4001C37.3904 34.2918 37.5275 34.2376 37.6865 34.2376C37.8454 34.2376 37.9814 34.2918 38.0943 34.4001C38.2095 34.5084 38.2671 34.6386 38.2671 34.7906C38.2671 34.9427 38.2095 35.0729 38.0943 35.1812C37.9814 35.2895 37.8454 35.3436 37.6865 35.3436ZM40.397 38.3436V41.5371H39.5813V36.2284H40.3693V37.0579H40.4384C40.5629 36.7883 40.7518 36.5717 41.0053 36.4081C41.2587 36.2422 41.5859 36.1593 41.9868 36.1593C42.3463 36.1593 42.6608 36.233 42.9304 36.3805C43.1999 36.5256 43.4096 36.7468 43.5594 37.0441C43.7092 37.339 43.784 37.7123 43.784 38.1639V41.5371H42.9684V38.2192C42.9684 37.8021 42.8601 37.4772 42.6435 37.2445C42.4269 37.0095 42.1297 36.892 41.7518 36.892C41.4914 36.892 41.2587 36.9484 41.0536 37.0613C40.8509 37.1743 40.6907 37.339 40.5732 37.5556C40.4557 37.7722 40.397 38.0348 40.397 38.3436ZM47.4174 43.6385C47.0233 43.6385 46.6846 43.5878 46.4012 43.4864C46.1178 43.3873 45.8817 43.256 45.6927 43.0924C45.5061 42.9311 45.3575 42.7583 45.2469 42.574L45.8966 42.1177C45.9704 42.2145 46.0637 42.3251 46.1766 42.4495C46.2895 42.5763 46.4439 42.6857 46.6397 42.7779C46.8379 42.8723 47.0971 42.9196 47.4174 42.9196C47.8459 42.9196 48.1996 42.8159 48.4784 42.6085C48.7572 42.4012 48.8966 42.0763 48.8966 41.6339V40.5556H48.8275C48.7676 40.6523 48.6823 40.7721 48.5717 40.915C48.4634 41.0555 48.3067 41.1811 48.1017 41.2917C47.8989 41.4 47.6247 41.4542 47.2791 41.4542C46.8505 41.4542 46.4657 41.3528 46.1247 41.15C45.786 40.9473 45.5176 40.6523 45.3194 40.2652C45.1236 39.8781 45.0257 39.4081 45.0257 38.8551C45.0257 38.3113 45.1213 37.8378 45.3125 37.4346C45.5038 37.0291 45.7699 36.7157 46.1109 36.4945C46.4519 36.271 46.8459 36.1593 47.2929 36.1593C47.6385 36.1593 47.9127 36.2169 48.1155 36.3321C48.3206 36.445 48.4772 36.574 48.5855 36.7192C48.6961 36.862 48.7814 36.9796 48.8413 37.0717H48.9242V36.2284H49.7123V41.6892C49.7123 42.1454 49.6086 42.5164 49.4012 42.8021C49.1961 43.0901 48.9196 43.3009 48.5717 43.4346C48.2261 43.5705 47.8413 43.6385 47.4174 43.6385ZM47.3897 40.7214C47.7169 40.7214 47.9934 40.6466 48.2192 40.4968C48.445 40.347 48.6166 40.1316 48.7342 39.8505C48.8517 39.5694 48.9104 39.233 48.9104 38.8413C48.9104 38.4588 48.8528 38.1212 48.7376 37.8286C48.6224 37.536 48.4519 37.3067 48.2261 37.1408C48.0003 36.9749 47.7215 36.892 47.3897 36.892C47.0441 36.892 46.7561 36.9796 46.5257 37.1547C46.2975 37.3298 46.1259 37.5648 46.0107 37.8597C45.8978 38.1547 45.8413 38.4818 45.8413 38.8413C45.8413 39.2099 45.8989 39.536 46.0141 39.8194C46.1317 40.1005 46.3045 40.3217 46.5326 40.483C46.763 40.642 47.0487 40.7214 47.3897 40.7214ZM57.9242 36.2284C57.8827 35.8782 57.7145 35.6063 57.4196 35.4127C57.1246 35.2192 56.7629 35.1224 56.3343 35.1224C56.021 35.1224 55.7468 35.1731 55.5117 35.2745C55.279 35.3759 55.097 35.5153 54.9657 35.6927C54.8366 35.8701 54.7721 36.0717 54.7721 36.2975C54.7721 36.4865 54.817 36.6489 54.9069 36.7849C54.9991 36.9185 55.1166 37.0302 55.2594 37.1201C55.4023 37.2077 55.5521 37.2802 55.7087 37.3378C55.8654 37.3931 56.0094 37.4381 56.1408 37.4726L56.8597 37.6662C57.044 37.7146 57.249 37.7814 57.4749 37.8666C57.703 37.9519 57.9207 38.0683 58.1281 38.2157C58.3377 38.3609 58.5106 38.5475 58.6465 38.7756C58.7824 39.0037 58.8504 39.2837 58.8504 39.6155C58.8504 39.998 58.7502 40.3436 58.5497 40.6523C58.3516 40.9611 58.0613 41.2065 57.6788 41.3885C57.2986 41.5705 56.8366 41.6615 56.2928 41.6615C55.7859 41.6615 55.347 41.5797 54.976 41.4161C54.6074 41.2526 54.3171 41.0244 54.1051 40.7318C53.8954 40.4392 53.7767 40.0993 53.7491 39.7122H54.6339C54.6569 39.9795 54.7468 40.2007 54.9035 40.3758C55.0624 40.5486 55.2629 40.6777 55.5048 40.7629C55.7491 40.8459 56.0117 40.8873 56.2928 40.8873C56.62 40.8873 56.9138 40.8344 57.1742 40.7284C57.4345 40.6201 57.6408 40.4703 57.7928 40.2791C57.9449 40.0855 58.0209 39.8597 58.0209 39.6016C58.0209 39.3666 57.9553 39.1754 57.8239 39.0279C57.6926 38.8805 57.5198 38.7606 57.3055 38.6685C57.0912 38.5763 56.8597 38.4957 56.6108 38.4265L55.7398 38.1777C55.1869 38.0187 54.7491 37.7918 54.4265 37.4968C54.1039 37.2019 53.9426 36.816 53.9426 36.339C53.9426 35.9427 54.0498 35.5971 54.2641 35.3021C54.4806 35.0049 54.771 34.7745 55.135 34.6109C55.5014 34.445 55.9104 34.3621 56.362 34.3621C56.8182 34.3621 57.2237 34.4439 57.5785 34.6075C57.9334 34.7687 58.2145 34.9899 58.4218 35.271C58.6315 35.5521 58.7421 35.8713 58.7536 36.2284H57.9242ZM62.4578 36.2284V36.9196H59.7067V36.2284H62.4578ZM60.5085 34.9565H61.3242V40.0164C61.3242 40.2468 61.3576 40.4196 61.4244 40.5348C61.4935 40.6477 61.5811 40.7238 61.6871 40.7629C61.7954 40.7998 61.9094 40.8182 62.0292 40.8182C62.1191 40.8182 62.1928 40.8136 62.2504 40.8044C62.308 40.7929 62.3541 40.7837 62.3887 40.7767L62.5546 41.5095C62.4993 41.5302 62.4221 41.5509 62.323 41.5717C62.2239 41.5947 62.0984 41.6062 61.9463 41.6062C61.7159 41.6062 61.4901 41.5567 61.2689 41.4576C61.05 41.3585 60.868 41.2076 60.7228 41.0049C60.5799 40.8021 60.5085 40.5463 60.5085 40.2376V34.9565ZM65.247 41.6615C64.9106 41.6615 64.6053 41.5982 64.3311 41.4714C64.0569 41.3424 63.8391 41.1569 63.6778 40.915C63.5166 40.6708 63.4359 40.3758 63.4359 40.0302C63.4359 39.7261 63.4958 39.4795 63.6156 39.2906C63.7354 39.0993 63.8956 38.9496 64.096 38.8413C64.2965 38.733 64.5177 38.6523 64.7596 38.5994C65.0039 38.5441 65.2493 38.5003 65.4958 38.468C65.8184 38.4265 66.0799 38.3954 66.2804 38.3747C66.4831 38.3517 66.6306 38.3136 66.7227 38.2606C66.8172 38.2076 66.8644 38.1155 66.8644 37.9841V37.9565C66.8644 37.6155 66.7711 37.3505 66.5845 37.1616C66.4002 36.9726 66.1202 36.8782 65.7446 36.8782C65.3552 36.8782 65.05 36.9634 64.8288 37.1339C64.6076 37.3044 64.452 37.4865 64.3622 37.68L63.588 37.4035C63.7262 37.0809 63.9106 36.8298 64.141 36.6501C64.3737 36.468 64.6271 36.3413 64.9013 36.2699C65.1778 36.1961 65.4497 36.1593 65.717 36.1593C65.8875 36.1593 66.0834 36.18 66.3045 36.2215C66.528 36.2607 66.7435 36.3425 66.9509 36.4669C67.1605 36.5913 67.3345 36.7791 67.4727 37.0302C67.611 37.2814 67.6801 37.6178 67.6801 38.0394V41.5371H66.8644V40.8182H66.823C66.7677 40.9334 66.6755 41.0567 66.5465 41.188C66.4174 41.3194 66.2458 41.4311 66.0315 41.5233C65.8172 41.6154 65.5557 41.6615 65.247 41.6615ZM65.3714 40.9288C65.694 40.9288 65.9658 40.8655 66.187 40.7387C66.4105 40.612 66.5787 40.4484 66.6916 40.248C66.8068 40.0475 66.8644 39.8367 66.8644 39.6155V38.8689C66.8299 38.9104 66.7539 38.9484 66.6363 38.983C66.5211 39.0152 66.3875 39.044 66.2354 39.0694C66.0857 39.0924 65.9393 39.1132 65.7965 39.1316C65.6559 39.1477 65.5419 39.1616 65.4543 39.1731C65.2423 39.2007 65.0442 39.2457 64.8599 39.3079C64.6778 39.3678 64.5304 39.4588 64.4175 39.5809C64.3069 39.7007 64.2516 39.8643 64.2516 40.0717C64.2516 40.3551 64.3564 40.5694 64.5661 40.7145C64.7781 40.8574 65.0465 40.9288 65.3714 40.9288ZM69.9845 38.3436V41.5371H69.1689V36.2284H69.9569V37.0579H70.026C70.1504 36.7883 70.3394 36.5717 70.5928 36.4081C70.8463 36.2422 71.1734 36.1593 71.5744 36.1593C71.9338 36.1593 72.2483 36.233 72.5179 36.3805C72.7875 36.5256 72.9972 36.7468 73.1469 37.0441C73.2967 37.339 73.3716 37.7123 73.3716 38.1639V41.5371H72.5559V38.2192C72.5559 37.8021 72.4476 37.4772 72.231 37.2445C72.0145 37.0095 71.7172 36.892 71.3393 36.892C71.079 36.892 70.8463 36.9484 70.6412 37.0613C70.4384 37.1743 70.2783 37.339 70.1608 37.5556C70.0433 37.7722 69.9845 38.0348 69.9845 38.3436ZM76.8666 41.6477C76.4243 41.6477 76.0337 41.536 75.695 41.3125C75.3563 41.0867 75.0913 40.7687 74.9001 40.3585C74.7088 39.9461 74.6132 39.4588 74.6132 38.8966C74.6132 38.339 74.7088 37.8551 74.9001 37.445C75.0913 37.0349 75.3574 36.718 75.6985 36.4945C76.0395 36.271 76.4335 36.1593 76.8805 36.1593C77.2261 36.1593 77.4991 36.2169 77.6996 36.3321C77.9024 36.445 78.0567 36.574 78.1627 36.7192C78.271 36.862 78.3551 36.9796 78.415 37.0717H78.4841V34.4588H79.2998V41.5371H78.5118V40.7214H78.415C78.3551 40.8182 78.2699 40.9403 78.1593 41.0878C78.0487 41.233 77.8908 41.3631 77.6858 41.4784C77.4807 41.5913 77.2077 41.6477 76.8666 41.6477ZM76.9772 40.915C77.3044 40.915 77.5809 40.8297 77.8067 40.6592C78.0325 40.4864 78.2042 40.248 78.3217 39.9438C78.4392 39.6374 78.498 39.2837 78.498 38.8828C78.498 38.4864 78.4404 38.1397 78.3252 37.8424C78.21 37.5429 78.0394 37.3102 77.8136 37.1443C77.5878 36.9761 77.309 36.892 76.9772 36.892C76.6316 36.892 76.3436 36.9807 76.1132 37.1581C75.8851 37.3332 75.7134 37.5717 75.5982 37.8736C75.4853 38.1731 75.4289 38.5095 75.4289 38.8828C75.4289 39.2606 75.4865 39.6039 75.6017 39.9127C75.7192 40.2192 75.892 40.4634 76.1201 40.6454C76.3505 40.8251 76.6362 40.915 76.9772 40.915ZM84.2525 39.3666V36.2284H85.0682V41.5371H84.2525V40.6385H84.1972C84.0728 40.9081 83.8792 41.1373 83.6166 41.3263C83.3539 41.5129 83.0221 41.6062 82.6212 41.6062C82.2894 41.6062 81.9945 41.5337 81.7364 41.3885C81.4784 41.241 81.2756 41.0198 81.1281 40.7249C80.9807 40.4277 80.9069 40.0533 80.9069 39.6016V36.2284H81.7226V39.5463C81.7226 39.9334 81.8309 40.2422 82.0475 40.4726C82.2664 40.703 82.5452 40.8182 82.8839 40.8182C83.0866 40.8182 83.2928 40.7664 83.5025 40.6627C83.7145 40.559 83.8919 40.4 84.0348 40.1857C84.1799 39.9715 84.2525 39.6984 84.2525 39.3666ZM86.5621 43.5279V36.2284H87.3501V37.0717H87.4469C87.5068 36.9796 87.5898 36.862 87.6957 36.7192C87.804 36.574 87.9584 36.445 88.1589 36.3321C88.3616 36.2169 88.6358 36.1593 88.9814 36.1593C89.4284 36.1593 89.8225 36.271 90.1635 36.4945C90.5045 36.718 90.7706 37.0349 90.9618 37.445C91.1531 37.8551 91.2487 38.339 91.2487 38.8966C91.2487 39.4588 91.1531 39.9461 90.9618 40.3585C90.7706 40.7687 90.5056 41.0867 90.1669 41.3125C89.8282 41.536 89.4377 41.6477 88.9953 41.6477C88.6543 41.6477 88.3812 41.5913 88.1762 41.4784C87.9711 41.3631 87.8133 41.233 87.7027 41.0878C87.5921 40.9403 87.5068 40.8182 87.4469 40.7214H87.3778V43.5279H86.5621ZM87.364 38.8828C87.364 39.2837 87.4227 39.6374 87.5402 39.9438C87.6577 40.248 87.8294 40.4864 88.0552 40.6592C88.281 40.8297 88.5575 40.915 88.8847 40.915C89.2257 40.915 89.5102 40.8251 89.7384 40.6454C89.9688 40.4634 90.1416 40.2192 90.2568 39.9127C90.3743 39.6039 90.433 39.2606 90.433 38.8828C90.433 38.5095 90.3754 38.1731 90.2602 37.8736C90.1473 37.5717 89.9757 37.3332 89.7453 37.1581C89.5172 36.9807 89.2303 36.892 88.8847 36.892C88.5529 36.892 88.2741 36.9761 88.0483 37.1443C87.8225 37.3102 87.652 37.5429 87.5368 37.8424C87.4216 38.1397 87.364 38.4864 87.364 38.8828ZM100.954 34.4588V41.5371H100.124L96.2671 35.9796H96.198V41.5371H95.3408V34.4588H96.1703L100.041 40.0302H100.11V34.4588H100.954ZM104.715 41.6477C104.236 41.6477 103.815 41.5337 103.453 41.3055C103.094 41.0774 102.813 40.7583 102.61 40.3482C102.41 39.938 102.309 39.4588 102.309 38.9104C102.309 38.3574 102.41 37.8747 102.61 37.4623C102.813 37.0498 103.094 36.7296 103.453 36.5014C103.815 36.2733 104.236 36.1593 104.715 36.1593C105.194 36.1593 105.613 36.2733 105.973 36.5014C106.335 36.7296 106.616 37.0498 106.816 37.4623C107.019 37.8747 107.12 38.3574 107.12 38.9104C107.12 39.4588 107.019 39.938 106.816 40.3482C106.616 40.7583 106.335 41.0774 105.973 41.3055C105.613 41.5337 105.194 41.6477 104.715 41.6477ZM104.715 40.915C105.079 40.915 105.378 40.8217 105.613 40.635C105.849 40.4484 106.022 40.203 106.135 39.8989C106.248 39.5947 106.305 39.2652 106.305 38.9104C106.305 38.5556 106.248 38.2249 106.135 37.9185C106.022 37.612 105.849 37.3643 105.613 37.1754C105.378 36.9865 105.079 36.892 104.715 36.892C104.351 36.892 104.051 36.9865 103.816 37.1754C103.581 37.3643 103.407 37.612 103.294 37.9185C103.181 38.2249 103.125 38.5556 103.125 38.9104C103.125 39.2652 103.181 39.5947 103.294 39.8989C103.407 40.203 103.581 40.4484 103.816 40.635C104.051 40.8217 104.351 40.915 104.715 40.915ZM110.674 36.2284V36.9196H107.923V36.2284H110.674ZM108.725 34.9565H109.541V40.0164C109.541 40.2468 109.574 40.4196 109.641 40.5348C109.71 40.6477 109.797 40.7238 109.903 40.7629C110.012 40.7998 110.126 40.8182 110.246 40.8182C110.335 40.8182 110.409 40.8136 110.467 40.8044C110.524 40.7929 110.571 40.7837 110.605 40.7767L110.771 41.5095C110.716 41.5302 110.638 41.5509 110.539 41.5717C110.44 41.5947 110.315 41.6062 110.163 41.6062C109.932 41.6062 109.706 41.5567 109.485 41.4576C109.266 41.3585 109.084 41.2076 108.939 41.0049C108.796 40.8021 108.725 40.5463 108.725 40.2376V34.9565ZM114.07 41.6477C113.558 41.6477 113.117 41.5348 112.746 41.309C112.378 41.0809 112.093 40.7629 111.893 40.3551C111.694 39.945 111.595 39.468 111.595 38.9242C111.595 38.3805 111.694 37.9012 111.893 37.4865C112.093 37.0694 112.372 36.7445 112.729 36.5118C113.088 36.2768 113.508 36.1593 113.987 36.1593C114.263 36.1593 114.536 36.2054 114.806 36.2975C115.076 36.3897 115.321 36.5395 115.542 36.7468C115.763 36.9519 115.94 37.2238 116.071 37.5625C116.202 37.9012 116.268 38.3182 116.268 38.8136V39.1593H112.176V38.4542H115.439C115.439 38.1547 115.379 37.8874 115.259 37.6524C115.141 37.4173 114.973 37.2319 114.754 37.0959C114.538 36.96 114.282 36.892 113.987 36.892C113.662 36.892 113.381 36.9726 113.144 37.1339C112.909 37.2929 112.728 37.5003 112.601 37.756C112.474 38.0118 112.411 38.286 112.411 38.5786V39.0487C112.411 39.4496 112.48 39.7894 112.618 40.0682C112.759 40.3447 112.954 40.5556 113.202 40.7007C113.451 40.8436 113.74 40.915 114.07 40.915C114.284 40.915 114.478 40.885 114.651 40.8251C114.826 40.7629 114.977 40.6708 115.103 40.5486C115.23 40.4242 115.328 40.2698 115.397 40.0855L116.185 40.3067C116.102 40.574 115.963 40.809 115.767 41.0118C115.571 41.2122 115.329 41.3689 115.041 41.4818C114.753 41.5924 114.429 41.6477 114.07 41.6477ZM121.269 37.4173L120.536 37.6247C120.49 37.5026 120.422 37.3839 120.333 37.2687C120.245 37.1512 120.125 37.0544 119.973 36.9784C119.821 36.9024 119.626 36.8643 119.389 36.8643C119.064 36.8643 118.793 36.9392 118.577 37.089C118.362 37.2365 118.255 37.4242 118.255 37.6524C118.255 37.8551 118.329 38.0153 118.477 38.1328C118.624 38.2503 118.854 38.3482 119.168 38.4265L119.956 38.6201C120.43 38.7353 120.784 38.9116 121.017 39.1489C121.25 39.3839 121.366 39.6869 121.366 40.0579C121.366 40.362 121.278 40.6339 121.103 40.8735C120.93 41.1132 120.688 41.3021 120.377 41.4403C120.066 41.5786 119.705 41.6477 119.292 41.6477C118.751 41.6477 118.303 41.5302 117.948 41.2952C117.593 41.0602 117.368 40.7168 117.274 40.2652L118.048 40.0717C118.122 40.3574 118.261 40.5717 118.466 40.7145C118.674 40.8574 118.944 40.9288 119.278 40.9288C119.659 40.9288 119.96 40.8482 120.184 40.6869C120.41 40.5233 120.523 40.3274 120.523 40.0993C120.523 39.915 120.458 39.7606 120.329 39.6362C120.2 39.5095 120.002 39.415 119.735 39.3528L118.85 39.1454C118.364 39.0302 118.006 38.8517 117.778 38.6097C117.553 38.3655 117.44 38.0602 117.44 37.6938C117.44 37.3943 117.524 37.1293 117.692 36.8989C117.862 36.6685 118.094 36.4876 118.387 36.3563C118.682 36.225 119.016 36.1593 119.389 36.1593C119.914 36.1593 120.327 36.2745 120.626 36.5049C120.928 36.7353 121.142 37.0395 121.269 37.4173Z" fill="#858E96"/>
<path d="M267 59.668C266.118 59.668 265.342 59.3607 264.672 58.7461C264.002 58.1315 263.667 57.2999 263.667 56.2513C263.667 55.5846 263.922 54.8607 264.433 54.0794C264.943 53.2982 265.719 52.4527 266.761 51.543C266.795 51.5152 266.834 51.4926 266.875 51.4753C266.917 51.4579 266.959 51.4492 267 51.4492C267.042 51.4492 267.084 51.4579 267.125 51.4753C267.167 51.4926 267.205 51.5152 267.24 51.543C268.282 52.4527 269.058 53.2982 269.568 54.0794C270.078 54.8607 270.334 55.5846 270.334 56.2513C270.334 57.2999 269.999 58.1315 269.328 58.7461C268.658 59.3607 267.882 59.668 267 59.668ZM267 59.043C267.764 59.043 268.407 58.7791 268.927 58.2513C269.448 57.7235 269.709 57.0569 269.709 56.2513C269.709 55.7027 269.478 55.0794 269.016 54.3815C268.554 53.6836 267.882 52.9457 267 52.168C266.118 52.9457 265.447 53.6836 264.985 54.3815C264.523 55.0794 264.292 55.7027 264.292 56.2513C264.292 57.0569 264.552 57.7235 265.073 58.2513C265.594 58.7791 266.236 59.043 267 59.043ZM266.99 58.3346C267.101 58.3346 267.186 58.3155 267.245 58.2773C267.304 58.2391 267.334 58.1819 267.334 58.1055C267.334 58.0291 267.304 57.9701 267.245 57.9284C267.186 57.8867 267.098 57.8659 266.979 57.8659C266.688 57.8659 266.391 57.7739 266.089 57.5898C265.787 57.4058 265.594 57.0812 265.511 56.6159C265.497 56.5534 265.466 56.503 265.417 56.4648C265.368 56.4266 265.316 56.4076 265.261 56.4076C265.184 56.4076 265.125 56.4371 265.084 56.4961C265.042 56.5551 265.028 56.6159 265.042 56.6784C265.146 57.2617 265.393 57.6836 265.782 57.944C266.17 58.2044 266.573 58.3346 266.99 58.3346Z" fill="#858E96"/>
</g>
<defs>
<filter id="filter0_d_2884_60261" x="11.2193" y="0.719251" width="284.561" height="85.5615" filterUnits="userSpaceOnUse" color-interpolation-filters="sRGB">
<feFlood flood-opacity="0" result="BackgroundImageFix"/>
<feColorMatrix in="SourceAlpha" type="matrix" values="0 0 0 0 0 0 0 0 0 0 0 0 0 0 0 0 0 0 127 0" result="hardAlpha"/>
<feOffset/>
<feGaussianBlur stdDeviation="1.39037"/>
<feComposite in2="hardAlpha" operator="out"/>
<feColorMatrix type="matrix" values="0 0 0 0 0 0 0 0 0 0 0 0 0 0 0 0 0 0 0.2 0"/>
<feBlend mode="normal" in2="BackgroundImageFix" result="effect1_dropShadow_2884_60261"/>
<feBlend mode="normal" in="SourceGraphic" in2="effect1_dropShadow_2884_60261" result="shape"/>
</filter>
<filter id="filter1_d_2884_60261" x="0.219251" y="19.7193" width="284.561" height="85.5615" filterUnits="userSpaceOnUse" color-interpolation-filters="sRGB">
<feFlood flood-opacity="0" result="BackgroundImageFix"/>
<feColorMatrix in="SourceAlpha" type="matrix" values="0 0 0 0 0 0 0 0 0 0 0 0 0 0 0 0 0 0 127 0" result="hardAlpha"/>
<feOffset/>
<feGaussianBlur stdDeviation="1.39037"/>
<feComposite in2="hardAlpha" operator="out"/>
<feColorMatrix type="matrix" values="0 0 0 0 0 0 0 0 0 0 0 0 0 0 0 0 0 0 0.2 0"/>
<feBlend mode="normal" in2="BackgroundImageFix" result="effect1_dropShadow_2884_60261"/>
<feBlend mode="normal" in="SourceGraphic" in2="effect1_dropShadow_2884_60261" result="shape"/>
</filter>
</defs>
</svg>
