<svg width="296" height="105" viewBox="0 0 296 105" fill="none" xmlns="http://www.w3.org/2000/svg">
<g filter="url(#filter0_d_1900_49885)">
<rect x="14" y="3" width="279" height="80" rx="5.5615" fill="white"/>
<rect x="25" y="31" width="103" height="10" rx="5" fill="#DEE2E6"/>
<rect x="25" y="48" width="230" height="7" rx="3.5" fill="#F1F3F5"/>
<rect x="25" y="62" width="230" height="7" rx="3.5" fill="#F1F3F5"/>
<path d="M31.676 17.1708H30.8188C30.7682 16.9243 30.6794 16.7077 30.5527 16.521C30.4283 16.3344 30.2762 16.1777 30.0965 16.051C29.9191 15.922 29.7221 15.8252 29.5055 15.7607C29.2889 15.6962 29.0631 15.6639 28.8281 15.6639C28.3995 15.6639 28.0113 15.7722 27.6633 15.9888C27.3177 16.2054 27.0424 16.5245 26.8373 16.9461C26.6346 17.3678 26.5332 17.8851 26.5332 18.498C26.5332 19.1109 26.6346 19.6281 26.8373 20.0498C27.0424 20.4715 27.3177 20.7906 27.6633 21.0072C28.0113 21.2238 28.3995 21.332 28.8281 21.332C29.0631 21.332 29.2889 21.2998 29.5055 21.2353C29.7221 21.1708 29.9191 21.0751 30.0965 20.9484C30.2762 20.8194 30.4283 20.6615 30.5527 20.4749C30.6794 20.286 30.7682 20.0694 30.8188 19.8252H31.676C31.6115 20.1869 31.494 20.5106 31.3234 20.7963C31.1529 21.082 30.941 21.3251 30.6875 21.5256C30.4341 21.7237 30.1495 21.8747 29.8338 21.9784C29.5205 22.082 29.1852 22.1339 28.8281 22.1339C28.2244 22.1339 27.6875 21.9864 27.2175 21.6915C26.7475 21.3966 26.3776 20.9772 26.1081 20.4334C25.8385 19.8897 25.7037 19.2445 25.7037 18.498C25.7037 17.7514 25.8385 17.1063 26.1081 16.5625C26.3776 16.0187 26.7475 15.5994 27.2175 15.3045C27.6875 15.0095 28.2244 14.8621 28.8281 14.8621C29.1852 14.8621 29.5205 14.9139 29.8338 15.0176C30.1495 15.1213 30.4341 15.2734 30.6875 15.4738C30.941 15.672 31.1529 15.9139 31.3234 16.1996C31.494 16.483 31.6115 16.8067 31.676 17.1708ZM33.7661 14.9588V22.0371H32.9504V14.9588H33.7661ZM35.26 22.0371V16.7284H36.0757V22.0371H35.26ZM35.6748 15.8436C35.5158 15.8436 35.3787 15.7895 35.2635 15.6812C35.1506 15.5729 35.0941 15.4427 35.0941 15.2906C35.0941 15.1386 35.1506 15.0084 35.2635 14.9001C35.3787 14.7918 35.5158 14.7376 35.6748 14.7376C35.8338 14.7376 35.9697 14.7918 36.0826 14.9001C36.1978 15.0084 36.2554 15.1386 36.2554 15.2906C36.2554 15.4427 36.1978 15.5729 36.0826 15.6812C35.9697 15.7895 35.8338 15.8436 35.6748 15.8436ZM39.7954 22.1477C39.2839 22.1477 38.8427 22.0348 38.4717 21.809C38.103 21.5809 37.8185 21.2629 37.618 20.8551C37.4199 20.445 37.3208 19.968 37.3208 19.4242C37.3208 18.8805 37.4199 18.4012 37.618 17.9865C37.8185 17.5694 38.0973 17.2445 38.4544 17.0118C38.8139 16.7768 39.2332 16.6593 39.7125 16.6593C39.989 16.6593 40.262 16.7054 40.5316 16.7975C40.8012 16.8897 41.0466 17.0395 41.2678 17.2468C41.489 17.4519 41.6652 17.7238 41.7966 18.0625C41.9279 18.4012 41.9936 18.8182 41.9936 19.3136V19.6593H37.9014V18.9542H41.1641C41.1641 18.6547 41.1042 18.3874 40.9843 18.1524C40.8668 17.9173 40.6986 17.7319 40.4797 17.5959C40.2632 17.46 40.0074 17.392 39.7125 17.392C39.3876 17.392 39.1065 17.4726 38.8692 17.6339C38.6341 17.7929 38.4533 18.0003 38.3265 18.256C38.1998 18.5118 38.1365 18.786 38.1365 19.0786V19.5487C38.1365 19.9496 38.2056 20.2894 38.3438 20.5682C38.4844 20.8447 38.6791 21.0556 38.9279 21.2007C39.1768 21.3436 39.4659 21.415 39.7954 21.415C40.0097 21.415 40.2033 21.385 40.3761 21.3251C40.5512 21.2629 40.7021 21.1708 40.8288 21.0486C40.9555 20.9242 41.0535 20.7698 41.1226 20.5855L41.9106 20.8067C41.8277 21.074 41.6883 21.309 41.4924 21.5118C41.2966 21.7122 41.0546 21.8689 40.7666 21.9818C40.4786 22.0924 40.1549 22.1477 39.7954 22.1477ZM44.05 18.8436V22.0371H43.2343V16.7284H44.0223V17.5579H44.0915C44.2159 17.2883 44.4048 17.0717 44.6583 16.9081C44.9117 16.7422 45.2389 16.6593 45.6398 16.6593C45.9993 16.6593 46.3138 16.733 46.5834 16.8805C46.853 17.0256 47.0626 17.2468 47.2124 17.5441C47.3622 17.839 47.437 18.2123 47.437 18.6639V22.0371H46.6214V18.7192C46.6214 18.3021 46.5131 17.9772 46.2965 17.7445C46.0799 17.5095 45.7827 17.392 45.4048 17.392C45.1444 17.392 44.9117 17.4484 44.7067 17.5613C44.5039 17.6743 44.3438 17.839 44.2263 18.0556C44.1087 18.2722 44.05 18.5348 44.05 18.8436ZM51.2363 16.7284V17.4196H48.4851V16.7284H51.2363ZM49.287 15.4565H50.1026V20.5164C50.1026 20.7468 50.136 20.9196 50.2029 21.0348C50.272 21.1477 50.3595 21.2238 50.4655 21.2629C50.5738 21.2998 50.6879 21.3182 50.8077 21.3182C50.8976 21.3182 50.9713 21.3136 51.0289 21.3044C51.0865 21.2929 51.1326 21.2837 51.1671 21.2767L51.333 22.0095C51.2777 22.0302 51.2005 22.0509 51.1015 22.0717C51.0024 22.0947 50.8768 22.1062 50.7247 22.1062C50.4943 22.1062 50.2685 22.0567 50.0473 21.9576C49.8284 21.8585 49.6464 21.7076 49.5013 21.5049C49.3584 21.3021 49.287 21.0463 49.287 20.7376V15.4565ZM55.2005 22.0371V16.7284H55.9885V17.5579H56.0576C56.1682 17.2745 56.3468 17.0544 56.5933 16.8978C56.8399 16.7388 57.136 16.6593 57.4816 16.6593C57.8318 16.6593 58.1233 16.7388 58.356 16.8978C58.591 17.0544 58.7742 17.2745 58.9055 17.5579H58.9608C59.0968 17.2837 59.3007 17.066 59.5726 16.9047C59.8445 16.7411 60.1705 16.6593 60.5507 16.6593C61.0253 16.6593 61.4136 16.8079 61.7154 17.1051C62.0173 17.4001 62.1682 17.8597 62.1682 18.4841V22.0371H61.3525V18.4841C61.3525 18.0924 61.2454 17.8125 61.0311 17.6443C60.8168 17.4761 60.5645 17.392 60.2742 17.392C59.9009 17.392 59.6118 17.5049 59.4067 17.7307C59.2016 17.9542 59.0991 18.2376 59.0991 18.5809V22.0371H58.2696V18.4012C58.2696 18.0994 58.1717 17.8563 57.9758 17.6719C57.78 17.4853 57.5277 17.392 57.2189 17.392C57.0069 17.392 56.8088 17.4484 56.6245 17.5613C56.4424 17.6743 56.295 17.8309 56.1821 18.0314C56.0715 18.2295 56.0162 18.4588 56.0162 18.7192V22.0371H55.2005ZM65.8853 22.1477C65.3738 22.1477 64.9326 22.0348 64.5616 21.809C64.1929 21.5809 63.9084 21.2629 63.7079 20.8551C63.5098 20.445 63.4107 19.968 63.4107 19.4242C63.4107 18.8805 63.5098 18.4012 63.7079 17.9865C63.9084 17.5694 64.1872 17.2445 64.5443 17.0118C64.9038 16.7768 65.3231 16.6593 65.8024 16.6593C66.0789 16.6593 66.3519 16.7054 66.6215 16.7975C66.8911 16.8897 67.1364 17.0395 67.3576 17.2468C67.5788 17.4519 67.7551 17.7238 67.8864 18.0625C68.0178 18.4012 68.0834 18.8182 68.0834 19.3136V19.6593H63.9913V18.9542H67.254C67.254 18.6547 67.194 18.3874 67.0742 18.1524C66.9567 17.9173 66.7885 17.7319 66.5696 17.5959C66.353 17.46 66.0973 17.392 65.8024 17.392C65.4775 17.392 65.1964 17.4726 64.959 17.6339C64.724 17.7929 64.5432 18.0003 64.4164 18.256C64.2897 18.5118 64.2263 18.786 64.2263 19.0786V19.5487C64.2263 19.9496 64.2955 20.2894 64.4337 20.5682C64.5743 20.8447 64.769 21.0556 65.0178 21.2007C65.2666 21.3436 65.5558 21.415 65.8853 21.415C66.0996 21.415 66.2931 21.385 66.4659 21.3251C66.6411 21.2629 66.792 21.1708 66.9187 21.0486C67.0454 20.9242 67.1434 20.7698 67.2125 20.5855L68.0005 20.8067C67.9175 21.074 67.7781 21.309 67.5823 21.5118C67.3864 21.7122 67.1445 21.8689 66.8565 21.9818C66.5685 22.0924 66.2448 22.1477 65.8853 22.1477ZM71.55 22.1477C71.0385 22.1477 70.5972 22.0348 70.2263 21.809C69.8576 21.5809 69.5731 21.2629 69.3726 20.8551C69.1744 20.445 69.0754 19.968 69.0754 19.4242C69.0754 18.8805 69.1744 18.4012 69.3726 17.9865C69.5731 17.5694 69.8519 17.2445 70.209 17.0118C70.5684 16.7768 70.9878 16.6593 71.467 16.6593C71.7435 16.6593 72.0166 16.7054 72.2862 16.7975C72.5557 16.8897 72.8011 17.0395 73.0223 17.2468C73.2435 17.4519 73.4198 17.7238 73.5511 18.0625C73.6825 18.4012 73.7481 18.8182 73.7481 19.3136V19.6593H69.656V18.9542H72.9186C72.9186 18.6547 72.8587 18.3874 72.7389 18.1524C72.6214 17.9173 72.4532 17.7319 72.2343 17.5959C72.0177 17.46 71.762 17.392 71.467 17.392C71.1422 17.392 70.8611 17.4726 70.6237 17.6339C70.3887 17.7929 70.2078 18.0003 70.0811 18.256C69.9544 18.5118 69.891 18.786 69.891 19.0786V19.5487C69.891 19.9496 69.9601 20.2894 70.0984 20.5682C70.2389 20.8447 70.4336 21.0556 70.6825 21.2007C70.9313 21.3436 71.2205 21.415 71.55 21.415C71.7643 21.415 71.9578 21.385 72.1306 21.3251C72.3057 21.2629 72.4567 21.1708 72.5834 21.0486C72.7101 20.9242 72.808 20.7698 72.8772 20.5855L73.6652 20.8067C73.5822 21.074 73.4428 21.309 73.247 21.5118C73.0511 21.7122 72.8092 21.8689 72.5212 21.9818C72.2332 22.0924 71.9094 22.1477 71.55 22.1477ZM77.2976 16.7284V17.4196H74.5465V16.7284H77.2976ZM75.3483 15.4565H76.164V20.5164C76.164 20.7468 76.1974 20.9196 76.2642 21.0348C76.3334 21.1477 76.4209 21.2238 76.5269 21.2629C76.6352 21.2998 76.7493 21.3182 76.8691 21.3182C76.9589 21.3182 77.0327 21.3136 77.0903 21.3044C77.1479 21.2929 77.1939 21.2837 77.2285 21.2767L77.3944 22.0095C77.3391 22.0302 77.2619 22.0509 77.1628 22.0717C77.0638 22.0947 76.9382 22.1062 76.7861 22.1062C76.5557 22.1062 76.3299 22.0567 76.1087 21.9576C75.8898 21.8585 75.7078 21.7076 75.5626 21.5049C75.4198 21.3021 75.3483 21.0463 75.3483 20.7376V15.4565ZM78.5246 22.0371V16.7284H79.3402V22.0371H78.5246ZM78.9393 15.8436C78.7803 15.8436 78.6432 15.7895 78.528 15.6812C78.4151 15.5729 78.3587 15.4427 78.3587 15.2906C78.3587 15.1386 78.4151 15.0084 78.528 14.9001C78.6432 14.7918 78.7803 14.7376 78.9393 14.7376C79.0983 14.7376 79.2342 14.7918 79.3472 14.9001C79.4624 15.0084 79.52 15.1386 79.52 15.2906C79.52 15.4427 79.4624 15.5729 79.3472 15.6812C79.2342 15.7895 79.0983 15.8436 78.9393 15.8436ZM81.6498 18.8436V22.0371H80.8342V16.7284H81.6222V17.5579H81.6913C81.8157 17.2883 82.0047 17.0717 82.2581 16.9081C82.5116 16.7422 82.8388 16.6593 83.2397 16.6593C83.5991 16.6593 83.9136 16.733 84.1832 16.8805C84.4528 17.0256 84.6625 17.2468 84.8122 17.5441C84.962 17.839 85.0369 18.2123 85.0369 18.6639V22.0371H84.2212V18.7192C84.2212 18.3021 84.1129 17.9772 83.8964 17.7445C83.6798 17.5095 83.3825 17.392 83.0047 17.392C82.7443 17.392 82.5116 17.4484 82.3065 17.5613C82.1037 17.6743 81.9436 17.839 81.8261 18.0556C81.7086 18.2722 81.6498 18.5348 81.6498 18.8436ZM88.6702 24.1385C88.2762 24.1385 87.9375 24.0878 87.6541 23.9864C87.3707 23.8873 87.1345 23.756 86.9456 23.5924C86.7589 23.4311 86.6103 23.2583 86.4997 23.074L87.1495 22.6177C87.2232 22.7145 87.3165 22.8251 87.4294 22.9495C87.5423 23.0763 87.6967 23.1857 87.8926 23.2779C88.0907 23.3723 88.3499 23.4196 88.6702 23.4196C89.0988 23.4196 89.4525 23.3159 89.7313 23.1085C90.0101 22.9012 90.1495 22.5763 90.1495 22.1339V21.0556H90.0803C90.0204 21.1523 89.9352 21.2721 89.8246 21.415C89.7163 21.5555 89.5596 21.6811 89.3545 21.7917C89.1518 21.9 88.8776 21.9542 88.532 21.9542C88.1034 21.9542 87.7186 21.8528 87.3776 21.65C87.0389 21.4473 86.7705 21.1523 86.5723 20.7652C86.3765 20.3781 86.2785 19.9081 86.2785 19.3551C86.2785 18.8113 86.3742 18.3378 86.5654 17.9346C86.7566 17.5291 87.0228 17.2157 87.3638 16.9945C87.7048 16.771 88.0988 16.6593 88.5458 16.6593C88.8914 16.6593 89.1656 16.7169 89.3684 16.8321C89.5734 16.945 89.7301 17.074 89.8384 17.2192C89.949 17.362 90.0343 17.4796 90.0942 17.5717H90.1771V16.7284H90.9651V22.1892C90.9651 22.6454 90.8614 23.0164 90.6541 23.3021C90.449 23.5901 90.1725 23.8009 89.8246 23.9346C89.479 24.0705 89.0942 24.1385 88.6702 24.1385ZM88.6426 21.2214C88.9697 21.2214 89.2462 21.1466 89.472 20.9968C89.6979 20.847 89.8695 20.6316 89.987 20.3505C90.1045 20.0694 90.1633 19.733 90.1633 19.3413C90.1633 18.9588 90.1057 18.6212 89.9905 18.3286C89.8753 18.036 89.7048 17.8067 89.479 17.6408C89.2532 17.4749 88.9744 17.392 88.6426 17.392C88.2969 17.392 88.0089 17.4796 87.7785 17.6547C87.5504 17.8298 87.3788 18.0648 87.2635 18.3597C87.1506 18.6547 87.0942 18.9818 87.0942 19.3413C87.0942 19.7099 87.1518 20.036 87.267 20.3194C87.3845 20.6005 87.5573 20.8217 87.7854 20.983C88.0158 21.142 88.3016 21.2214 88.6426 21.2214ZM96.0112 18.8436V22.0371H95.1955V16.7284H95.9835V17.5579H96.0526C96.1771 17.2883 96.366 17.0717 96.6194 16.9081C96.8729 16.7422 97.2001 16.6593 97.601 16.6593C97.9604 16.6593 98.275 16.733 98.5445 16.8805C98.8141 17.0256 99.0238 17.2468 99.1736 17.5441C99.3233 17.839 99.3982 18.2123 99.3982 18.6639V22.0371H98.5826V18.7192C98.5826 18.3021 98.4743 17.9772 98.2577 17.7445C98.0411 17.5095 97.7439 17.392 97.366 17.392C97.1056 17.392 96.8729 17.4484 96.6678 17.5613C96.4651 17.6743 96.3049 17.839 96.1874 18.0556C96.0699 18.2722 96.0112 18.5348 96.0112 18.8436ZM103.045 22.1477C102.566 22.1477 102.146 22.0337 101.784 21.8055C101.424 21.5774 101.143 21.2583 100.941 20.8482C100.74 20.438 100.64 19.9588 100.64 19.4104C100.64 18.8574 100.74 18.3747 100.941 17.9623C101.143 17.5498 101.424 17.2296 101.784 17.0014C102.146 16.7733 102.566 16.6593 103.045 16.6593C103.525 16.6593 103.944 16.7733 104.303 17.0014C104.665 17.2296 104.946 17.5498 105.147 17.9623C105.349 18.3747 105.451 18.8574 105.451 19.4104C105.451 19.9588 105.349 20.438 105.147 20.8482C104.946 21.2583 104.665 21.5774 104.303 21.8055C103.944 22.0337 103.525 22.1477 103.045 22.1477ZM103.045 21.415C103.409 21.415 103.709 21.3217 103.944 21.135C104.179 20.9484 104.353 20.703 104.466 20.3989C104.579 20.0947 104.635 19.7652 104.635 19.4104C104.635 19.0556 104.579 18.7249 104.466 18.4185C104.353 18.112 104.179 17.8643 103.944 17.6754C103.709 17.4865 103.409 17.392 103.045 17.392C102.681 17.392 102.382 17.4865 102.147 17.6754C101.912 17.8643 101.738 18.112 101.625 18.4185C101.512 18.7249 101.456 19.0556 101.456 19.4104C101.456 19.7652 101.512 20.0947 101.625 20.3989C101.738 20.703 101.912 20.9484 102.147 21.135C102.382 21.3217 102.681 21.415 103.045 21.415ZM109.005 16.7284V17.4196H106.254V16.7284H109.005ZM107.055 15.4565H107.871V20.5164C107.871 20.7468 107.904 20.9196 107.971 21.0348C108.04 21.1477 108.128 21.2238 108.234 21.2629C108.342 21.2998 108.456 21.3182 108.576 21.3182C108.666 21.3182 108.74 21.3136 108.797 21.3044C108.855 21.2929 108.901 21.2837 108.936 21.2767L109.101 22.0095C109.046 22.0302 108.969 22.0509 108.87 22.0717C108.771 22.0947 108.645 22.1062 108.493 22.1062C108.263 22.1062 108.037 22.0567 107.816 21.9576C107.597 21.8585 107.415 21.7076 107.27 21.5049C107.127 21.3021 107.055 21.0463 107.055 20.7376V15.4565ZM112.4 22.1477C111.889 22.1477 111.448 22.0348 111.077 21.809C110.708 21.5809 110.423 21.2629 110.223 20.8551C110.025 20.445 109.926 19.968 109.926 19.4242C109.926 18.8805 110.025 18.4012 110.223 17.9865C110.423 17.5694 110.702 17.2445 111.059 17.0118C111.419 16.7768 111.838 16.6593 112.317 16.6593C112.594 16.6593 112.867 16.7054 113.137 16.7975C113.406 16.8897 113.652 17.0395 113.873 17.2468C114.094 17.4519 114.27 17.7238 114.402 18.0625C114.533 18.4012 114.599 18.8182 114.599 19.3136V19.6593H110.506V18.9542H113.769C113.769 18.6547 113.709 18.3874 113.589 18.1524C113.472 17.9173 113.304 17.7319 113.085 17.5959C112.868 17.46 112.612 17.392 112.317 17.392C111.993 17.392 111.711 17.4726 111.474 17.6339C111.239 17.7929 111.058 18.0003 110.932 18.256C110.805 18.5118 110.741 18.786 110.741 19.0786V19.5487C110.741 19.9496 110.811 20.2894 110.949 20.5682C111.089 20.8447 111.284 21.0556 111.533 21.2007C111.782 21.3436 112.071 21.415 112.4 21.415C112.615 21.415 112.808 21.385 112.981 21.3251C113.156 21.2629 113.307 21.1708 113.434 21.0486C113.561 20.9242 113.658 20.7698 113.728 20.5855L114.516 20.8067C114.433 21.074 114.293 21.309 114.097 21.5118C113.902 21.7122 113.66 21.8689 113.372 21.9818C113.084 22.0924 112.76 22.1477 112.4 22.1477ZM119.6 17.9173L118.867 18.1247C118.821 18.0026 118.753 17.8839 118.663 17.7687C118.575 17.6512 118.456 17.5544 118.304 17.4784C118.151 17.4024 117.957 17.3643 117.719 17.3643C117.395 17.3643 117.124 17.4392 116.907 17.589C116.693 17.7365 116.586 17.9242 116.586 18.1524C116.586 18.3551 116.66 18.5153 116.807 18.6328C116.954 18.7503 117.185 18.8482 117.498 18.9265L118.286 19.1201C118.761 19.2353 119.115 19.4116 119.347 19.6489C119.58 19.8839 119.696 20.1869 119.696 20.5579C119.696 20.862 119.609 21.1339 119.434 21.3735C119.261 21.6132 119.019 21.8021 118.708 21.9403C118.397 22.0786 118.035 22.1477 117.623 22.1477C117.081 22.1477 116.633 22.0302 116.278 21.7952C115.923 21.5602 115.699 21.2168 115.604 20.7652L116.378 20.5717C116.452 20.8574 116.592 21.0717 116.797 21.2145C117.004 21.3574 117.275 21.4288 117.609 21.4288C117.989 21.4288 118.291 21.3482 118.514 21.1869C118.74 21.0233 118.853 20.8274 118.853 20.5993C118.853 20.415 118.789 20.2606 118.66 20.1362C118.531 20.0095 118.332 19.915 118.065 19.8528L117.18 19.6454C116.694 19.5302 116.337 19.3517 116.109 19.1097C115.883 18.8655 115.77 18.5602 115.77 18.1938C115.77 17.8943 115.854 17.6293 116.022 17.3989C116.193 17.1685 116.425 16.9876 116.717 16.8563C117.012 16.725 117.346 16.6593 117.719 16.6593C118.245 16.6593 118.657 16.7745 118.957 17.0049C119.259 17.2353 119.473 17.5395 119.6 17.9173Z" fill="#858E96"/>
<path d="M278 40.168C277.118 40.168 276.342 39.8607 275.672 39.2461C275.002 38.6315 274.667 37.7999 274.667 36.7513C274.667 36.0846 274.922 35.3607 275.432 34.5794C275.943 33.7982 276.719 32.9527 277.76 32.043C277.795 32.0152 277.833 31.9926 277.875 31.9753C277.917 31.9579 277.958 31.9492 278 31.9492C278.042 31.9492 278.083 31.9579 278.125 31.9753C278.167 31.9926 278.205 32.0152 278.239 32.043C279.281 32.9527 280.057 33.7982 280.568 34.5794C281.078 35.3607 281.333 36.0846 281.333 36.7513C281.333 37.7999 280.998 38.6315 280.328 39.2461C279.658 39.8607 278.882 40.168 278 40.168ZM278 39.543C278.764 39.543 279.406 39.2791 279.927 38.7513C280.448 38.2235 280.708 37.5569 280.708 36.7513C280.708 36.2027 280.477 35.5794 280.015 34.8815C279.554 34.1836 278.882 33.4457 278 32.668C277.118 33.4457 276.446 34.1836 275.984 34.8815C275.522 35.5794 275.292 36.2027 275.292 36.7513C275.292 37.5569 275.552 38.2235 276.073 38.7513C276.594 39.2791 277.236 39.543 278 39.543ZM277.989 38.8346C278.101 38.8346 278.186 38.8155 278.245 38.7773C278.304 38.7391 278.333 38.6819 278.333 38.6055C278.333 38.5291 278.304 38.4701 278.245 38.4284C278.186 38.3867 278.097 38.3659 277.979 38.3659C277.687 38.3659 277.39 38.2739 277.088 38.0898C276.786 37.9058 276.594 37.5812 276.51 37.1159C276.496 37.0534 276.465 37.003 276.417 36.9648C276.368 36.9266 276.316 36.9076 276.26 36.9076C276.184 36.9076 276.125 36.9371 276.083 36.9961C276.042 37.0551 276.028 37.1159 276.042 37.1784C276.146 37.7617 276.392 38.1836 276.781 38.444C277.17 38.7044 277.573 38.8346 277.989 38.8346Z" fill="#858E96"/>
</g>
<g filter="url(#filter1_d_1900_49885)">
<rect x="3" y="22" width="279" height="80" rx="5.5615" fill="white"/>
<rect x="14" y="50" width="103" height="10" rx="5" fill="#DEE2E6"/>
<rect x="14" y="67" width="230" height="7" rx="3.5" fill="#F1F3F5"/>
<rect x="14" y="81" width="230" height="7" rx="3.5" fill="#F1F3F5"/>
<path d="M14.9802 41.0371V33.9588H19.252V34.7192H15.8373V37.1109H19.0308V37.8712H15.8373V40.2767H19.3073V41.0371H14.9802ZM25.0273 35.7284L23.0642 41.0371H22.2347L20.2716 35.7284H21.1564L22.6218 39.9588H22.6771L24.1425 35.7284H25.0273ZM28.1396 41.1477C27.6281 41.1477 27.1869 41.0348 26.8159 40.809C26.4472 40.5809 26.1627 40.2629 25.9622 39.8551C25.7641 39.445 25.665 38.968 25.665 38.4242C25.665 37.8805 25.7641 37.4012 25.9622 36.9865C26.1627 36.5694 26.4415 36.2445 26.7986 36.0118C27.1581 35.7768 27.5774 35.6593 28.0567 35.6593C28.3332 35.6593 28.6062 35.7054 28.8758 35.7975C29.1454 35.8897 29.3907 36.0395 29.6119 36.2468C29.8331 36.4519 30.0094 36.7238 30.1407 37.0625C30.2721 37.4012 30.3377 37.8182 30.3377 38.3136V38.6593H26.2456V37.9542H29.5083C29.5083 37.6547 29.4484 37.3874 29.3285 37.1524C29.211 36.9173 29.0428 36.7319 28.8239 36.5959C28.6073 36.46 28.3516 36.392 28.0567 36.392C27.7318 36.392 27.4507 36.4726 27.2134 36.6339C26.9783 36.7929 26.7975 37.0003 26.6707 37.256C26.544 37.5118 26.4806 37.786 26.4806 38.0786V38.5487C26.4806 38.9496 26.5498 39.2894 26.688 39.5682C26.8286 39.8447 27.0233 40.0556 27.2721 40.2007C27.521 40.3436 27.8101 40.415 28.1396 40.415C28.3539 40.415 28.5474 40.385 28.7202 40.3251C28.8954 40.2629 29.0463 40.1708 29.173 40.0486C29.2997 39.9242 29.3977 39.7698 29.4668 39.5855L30.2548 39.8067C30.1718 40.074 30.0324 40.309 29.8366 40.5118C29.6407 40.7122 29.3988 40.8689 29.1108 40.9818C28.8228 41.0924 28.4991 41.1477 28.1396 41.1477ZM32.3942 37.8436V41.0371H31.5785V35.7284H32.3665V36.5579H32.4356C32.5601 36.2883 32.749 36.0717 33.0025 35.9081C33.2559 35.7422 33.5831 35.6593 33.984 35.6593C34.3435 35.6593 34.658 35.733 34.9276 35.8805C35.1971 36.0256 35.4068 36.2468 35.5566 36.5441C35.7064 36.839 35.7812 37.2123 35.7812 37.6639V41.0371H34.9656V37.7192C34.9656 37.3021 34.8573 36.9772 34.6407 36.7445C34.4241 36.5095 34.1269 36.392 33.749 36.392C33.4886 36.392 33.2559 36.4484 33.0508 36.5613C32.8481 36.6743 32.6879 36.839 32.5704 37.0556C32.4529 37.2722 32.3942 37.5348 32.3942 37.8436ZM37.2717 41.0371V35.7284H38.0874V41.0371H37.2717ZM37.6865 34.8436C37.5275 34.8436 37.3904 34.7895 37.2752 34.6812C37.1623 34.5729 37.1058 34.4427 37.1058 34.2906C37.1058 34.1386 37.1623 34.0084 37.2752 33.9001C37.3904 33.7918 37.5275 33.7376 37.6865 33.7376C37.8454 33.7376 37.9814 33.7918 38.0943 33.9001C38.2095 34.0084 38.2671 34.1386 38.2671 34.2906C38.2671 34.4427 38.2095 34.5729 38.0943 34.6812C37.9814 34.7895 37.8454 34.8436 37.6865 34.8436ZM40.397 37.8436V41.0371H39.5813V35.7284H40.3693V36.5579H40.4384C40.5629 36.2883 40.7518 36.0717 41.0053 35.9081C41.2587 35.7422 41.5859 35.6593 41.9868 35.6593C42.3463 35.6593 42.6608 35.733 42.9304 35.8805C43.1999 36.0256 43.4096 36.2468 43.5594 36.5441C43.7092 36.839 43.784 37.2123 43.784 37.6639V41.0371H42.9684V37.7192C42.9684 37.3021 42.8601 36.9772 42.6435 36.7445C42.4269 36.5095 42.1297 36.392 41.7518 36.392C41.4914 36.392 41.2587 36.4484 41.0536 36.5613C40.8509 36.6743 40.6907 36.839 40.5732 37.0556C40.4557 37.2722 40.397 37.5348 40.397 37.8436ZM47.4174 43.1385C47.0233 43.1385 46.6846 43.0878 46.4012 42.9864C46.1178 42.8873 45.8817 42.756 45.6927 42.5924C45.5061 42.4311 45.3575 42.2583 45.2469 42.074L45.8966 41.6177C45.9704 41.7145 46.0637 41.8251 46.1766 41.9495C46.2895 42.0763 46.4439 42.1857 46.6397 42.2779C46.8379 42.3723 47.0971 42.4196 47.4174 42.4196C47.8459 42.4196 48.1996 42.3159 48.4784 42.1085C48.7572 41.9012 48.8966 41.5763 48.8966 41.1339V40.0556H48.8275C48.7676 40.1523 48.6823 40.2721 48.5717 40.415C48.4634 40.5555 48.3067 40.6811 48.1017 40.7917C47.8989 40.9 47.6247 40.9542 47.2791 40.9542C46.8505 40.9542 46.4657 40.8528 46.1247 40.65C45.786 40.4473 45.5176 40.1523 45.3194 39.7652C45.1236 39.3781 45.0257 38.9081 45.0257 38.3551C45.0257 37.8113 45.1213 37.3378 45.3125 36.9346C45.5038 36.5291 45.7699 36.2157 46.1109 35.9945C46.4519 35.771 46.8459 35.6593 47.2929 35.6593C47.6385 35.6593 47.9127 35.7169 48.1155 35.8321C48.3206 35.945 48.4772 36.074 48.5855 36.2192C48.6961 36.362 48.7814 36.4796 48.8413 36.5717H48.9242V35.7284H49.7123V41.1892C49.7123 41.6454 49.6086 42.0164 49.4012 42.3021C49.1961 42.5901 48.9196 42.8009 48.5717 42.9346C48.2261 43.0705 47.8413 43.1385 47.4174 43.1385ZM47.3897 40.2214C47.7169 40.2214 47.9934 40.1466 48.2192 39.9968C48.445 39.847 48.6166 39.6316 48.7342 39.3505C48.8517 39.0694 48.9104 38.733 48.9104 38.3413C48.9104 37.9588 48.8528 37.6212 48.7376 37.3286C48.6224 37.036 48.4519 36.8067 48.2261 36.6408C48.0003 36.4749 47.7215 36.392 47.3897 36.392C47.0441 36.392 46.7561 36.4796 46.5257 36.6547C46.2975 36.8298 46.1259 37.0648 46.0107 37.3597C45.8978 37.6547 45.8413 37.9818 45.8413 38.3413C45.8413 38.7099 45.8989 39.036 46.0141 39.3194C46.1317 39.6005 46.3045 39.8217 46.5326 39.983C46.763 40.142 47.0487 40.2214 47.3897 40.2214ZM57.9242 35.7284C57.8827 35.3782 57.7145 35.1063 57.4196 34.9127C57.1246 34.7192 56.7629 34.6224 56.3343 34.6224C56.021 34.6224 55.7468 34.6731 55.5117 34.7745C55.279 34.8759 55.097 35.0153 54.9657 35.1927C54.8366 35.3701 54.7721 35.5717 54.7721 35.7975C54.7721 35.9865 54.817 36.1489 54.9069 36.2849C54.9991 36.4185 55.1166 36.5302 55.2594 36.6201C55.4023 36.7077 55.5521 36.7802 55.7087 36.8378C55.8654 36.8931 56.0094 36.9381 56.1408 36.9726L56.8597 37.1662C57.044 37.2146 57.249 37.2814 57.4749 37.3666C57.703 37.4519 57.9207 37.5683 58.1281 37.7157C58.3377 37.8609 58.5106 38.0475 58.6465 38.2756C58.7824 38.5037 58.8504 38.7837 58.8504 39.1155C58.8504 39.498 58.7502 39.8436 58.5497 40.1523C58.3516 40.4611 58.0613 40.7065 57.6788 40.8885C57.2986 41.0705 56.8366 41.1615 56.2928 41.1615C55.7859 41.1615 55.347 41.0797 54.976 40.9161C54.6074 40.7526 54.3171 40.5244 54.1051 40.2318C53.8954 39.9392 53.7767 39.5993 53.7491 39.2122H54.6339C54.6569 39.4795 54.7468 39.7007 54.9035 39.8758C55.0624 40.0486 55.2629 40.1777 55.5048 40.2629C55.7491 40.3459 56.0117 40.3873 56.2928 40.3873C56.62 40.3873 56.9138 40.3344 57.1742 40.2284C57.4345 40.1201 57.6408 39.9703 57.7928 39.7791C57.9449 39.5855 58.0209 39.3597 58.0209 39.1016C58.0209 38.8666 57.9553 38.6754 57.8239 38.5279C57.6926 38.3805 57.5198 38.2606 57.3055 38.1685C57.0912 38.0763 56.8597 37.9957 56.6108 37.9265L55.7398 37.6777C55.1869 37.5187 54.7491 37.2918 54.4265 36.9968C54.1039 36.7019 53.9426 36.316 53.9426 35.839C53.9426 35.4427 54.0498 35.0971 54.2641 34.8021C54.4806 34.5049 54.771 34.2745 55.135 34.1109C55.5014 33.945 55.9104 33.8621 56.362 33.8621C56.8182 33.8621 57.2237 33.9439 57.5785 34.1075C57.9334 34.2687 58.2145 34.4899 58.4218 34.771C58.6315 35.0521 58.7421 35.3713 58.7536 35.7284H57.9242ZM62.4578 35.7284V36.4196H59.7067V35.7284H62.4578ZM60.5085 34.4565H61.3242V39.5164C61.3242 39.7468 61.3576 39.9196 61.4244 40.0348C61.4935 40.1477 61.5811 40.2238 61.6871 40.2629C61.7954 40.2998 61.9094 40.3182 62.0292 40.3182C62.1191 40.3182 62.1928 40.3136 62.2504 40.3044C62.308 40.2929 62.3541 40.2837 62.3887 40.2767L62.5546 41.0095C62.4993 41.0302 62.4221 41.0509 62.323 41.0717C62.2239 41.0947 62.0984 41.1062 61.9463 41.1062C61.7159 41.1062 61.4901 41.0567 61.2689 40.9576C61.05 40.8585 60.868 40.7076 60.7228 40.5049C60.5799 40.3021 60.5085 40.0463 60.5085 39.7376V34.4565ZM65.247 41.1615C64.9106 41.1615 64.6053 41.0982 64.3311 40.9714C64.0569 40.8424 63.8391 40.6569 63.6778 40.415C63.5166 40.1708 63.4359 39.8758 63.4359 39.5302C63.4359 39.2261 63.4958 38.9795 63.6156 38.7906C63.7354 38.5993 63.8956 38.4496 64.096 38.3413C64.2965 38.233 64.5177 38.1523 64.7596 38.0994C65.0039 38.0441 65.2493 38.0003 65.4958 37.968C65.8184 37.9265 66.0799 37.8954 66.2804 37.8747C66.4831 37.8517 66.6306 37.8136 66.7227 37.7606C66.8172 37.7076 66.8644 37.6155 66.8644 37.4841V37.4565C66.8644 37.1155 66.7711 36.8505 66.5845 36.6616C66.4002 36.4726 66.1202 36.3782 65.7446 36.3782C65.3552 36.3782 65.05 36.4634 64.8288 36.6339C64.6076 36.8044 64.452 36.9865 64.3622 37.18L63.588 36.9035C63.7262 36.5809 63.9106 36.3298 64.141 36.1501C64.3737 35.968 64.6271 35.8413 64.9013 35.7699C65.1778 35.6961 65.4497 35.6593 65.717 35.6593C65.8875 35.6593 66.0834 35.68 66.3045 35.7215C66.528 35.7607 66.7435 35.8425 66.9509 35.9669C67.1605 36.0913 67.3345 36.2791 67.4727 36.5302C67.611 36.7814 67.6801 37.1178 67.6801 37.5394V41.0371H66.8644V40.3182H66.823C66.7677 40.4334 66.6755 40.5567 66.5465 40.688C66.4174 40.8194 66.2458 40.9311 66.0315 41.0233C65.8172 41.1154 65.5557 41.1615 65.247 41.1615ZM65.3714 40.4288C65.694 40.4288 65.9658 40.3655 66.187 40.2387C66.4105 40.112 66.5787 39.9484 66.6916 39.748C66.8068 39.5475 66.8644 39.3367 66.8644 39.1155V38.3689C66.8299 38.4104 66.7539 38.4484 66.6363 38.483C66.5211 38.5152 66.3875 38.544 66.2354 38.5694C66.0857 38.5924 65.9393 38.6132 65.7965 38.6316C65.6559 38.6477 65.5419 38.6616 65.4543 38.6731C65.2423 38.7007 65.0442 38.7457 64.8599 38.8079C64.6778 38.8678 64.5304 38.9588 64.4175 39.0809C64.3069 39.2007 64.2516 39.3643 64.2516 39.5717C64.2516 39.8551 64.3564 40.0694 64.5661 40.2145C64.7781 40.3574 65.0465 40.4288 65.3714 40.4288ZM69.9845 37.8436V41.0371H69.1689V35.7284H69.9569V36.5579H70.026C70.1504 36.2883 70.3394 36.0717 70.5928 35.9081C70.8463 35.7422 71.1734 35.6593 71.5744 35.6593C71.9338 35.6593 72.2483 35.733 72.5179 35.8805C72.7875 36.0256 72.9972 36.2468 73.1469 36.5441C73.2967 36.839 73.3716 37.2123 73.3716 37.6639V41.0371H72.5559V37.7192C72.5559 37.3021 72.4476 36.9772 72.231 36.7445C72.0145 36.5095 71.7172 36.392 71.3393 36.392C71.079 36.392 70.8463 36.4484 70.6412 36.5613C70.4384 36.6743 70.2783 36.839 70.1608 37.0556C70.0433 37.2722 69.9845 37.5348 69.9845 37.8436ZM76.8666 41.1477C76.4243 41.1477 76.0337 41.036 75.695 40.8125C75.3563 40.5867 75.0913 40.2687 74.9001 39.8585C74.7088 39.4461 74.6132 38.9588 74.6132 38.3966C74.6132 37.839 74.7088 37.3551 74.9001 36.945C75.0913 36.5349 75.3574 36.218 75.6985 35.9945C76.0395 35.771 76.4335 35.6593 76.8805 35.6593C77.2261 35.6593 77.4991 35.7169 77.6996 35.8321C77.9024 35.945 78.0567 36.074 78.1627 36.2192C78.271 36.362 78.3551 36.4796 78.415 36.5717H78.4841V33.9588H79.2998V41.0371H78.5118V40.2214H78.415C78.3551 40.3182 78.2699 40.4403 78.1593 40.5878C78.0487 40.733 77.8908 40.8631 77.6858 40.9784C77.4807 41.0913 77.2077 41.1477 76.8666 41.1477ZM76.9772 40.415C77.3044 40.415 77.5809 40.3297 77.8067 40.1592C78.0325 39.9864 78.2042 39.748 78.3217 39.4438C78.4392 39.1374 78.498 38.7837 78.498 38.3828C78.498 37.9864 78.4404 37.6397 78.3252 37.3424C78.21 37.0429 78.0394 36.8102 77.8136 36.6443C77.5878 36.4761 77.309 36.392 76.9772 36.392C76.6316 36.392 76.3436 36.4807 76.1132 36.6581C75.8851 36.8332 75.7134 37.0717 75.5982 37.3736C75.4853 37.6731 75.4289 38.0095 75.4289 38.3828C75.4289 38.7606 75.4865 39.1039 75.6017 39.4127C75.7192 39.7192 75.892 39.9634 76.1201 40.1454C76.3505 40.3251 76.6362 40.415 76.9772 40.415ZM84.2525 38.8666V35.7284H85.0682V41.0371H84.2525V40.1385H84.1972C84.0728 40.4081 83.8792 40.6373 83.6166 40.8263C83.3539 41.0129 83.0221 41.1062 82.6212 41.1062C82.2894 41.1062 81.9945 41.0337 81.7364 40.8885C81.4784 40.741 81.2756 40.5198 81.1281 40.2249C80.9807 39.9277 80.9069 39.5533 80.9069 39.1016V35.7284H81.7226V39.0463C81.7226 39.4334 81.8309 39.7422 82.0475 39.9726C82.2664 40.203 82.5452 40.3182 82.8839 40.3182C83.0866 40.3182 83.2928 40.2664 83.5025 40.1627C83.7145 40.059 83.8919 39.9 84.0348 39.6857C84.1799 39.4715 84.2525 39.1984 84.2525 38.8666ZM86.5621 43.0279V35.7284H87.3501V36.5717H87.4469C87.5068 36.4796 87.5898 36.362 87.6957 36.2192C87.804 36.074 87.9584 35.945 88.1589 35.8321C88.3616 35.7169 88.6358 35.6593 88.9814 35.6593C89.4284 35.6593 89.8225 35.771 90.1635 35.9945C90.5045 36.218 90.7706 36.5349 90.9618 36.945C91.1531 37.3551 91.2487 37.839 91.2487 38.3966C91.2487 38.9588 91.1531 39.4461 90.9618 39.8585C90.7706 40.2687 90.5056 40.5867 90.1669 40.8125C89.8282 41.036 89.4377 41.1477 88.9953 41.1477C88.6543 41.1477 88.3812 41.0913 88.1762 40.9784C87.9711 40.8631 87.8133 40.733 87.7027 40.5878C87.5921 40.4403 87.5068 40.3182 87.4469 40.2214H87.3778V43.0279H86.5621ZM87.364 38.3828C87.364 38.7837 87.4227 39.1374 87.5402 39.4438C87.6577 39.748 87.8294 39.9864 88.0552 40.1592C88.281 40.3297 88.5575 40.415 88.8847 40.415C89.2257 40.415 89.5102 40.3251 89.7384 40.1454C89.9688 39.9634 90.1416 39.7192 90.2568 39.4127C90.3743 39.1039 90.433 38.7606 90.433 38.3828C90.433 38.0095 90.3754 37.6731 90.2602 37.3736C90.1473 37.0717 89.9757 36.8332 89.7453 36.6581C89.5172 36.4807 89.2303 36.392 88.8847 36.392C88.5529 36.392 88.2741 36.4761 88.0483 36.6443C87.8225 36.8102 87.652 37.0429 87.5368 37.3424C87.4216 37.6397 87.364 37.9864 87.364 38.3828ZM100.954 33.9588V41.0371H100.124L96.2671 35.4796H96.198V41.0371H95.3408V33.9588H96.1703L100.041 39.5302H100.11V33.9588H100.954ZM104.715 41.1477C104.236 41.1477 103.815 41.0337 103.453 40.8055C103.094 40.5774 102.813 40.2583 102.61 39.8482C102.41 39.438 102.309 38.9588 102.309 38.4104C102.309 37.8574 102.41 37.3747 102.61 36.9623C102.813 36.5498 103.094 36.2296 103.453 36.0014C103.815 35.7733 104.236 35.6593 104.715 35.6593C105.194 35.6593 105.613 35.7733 105.973 36.0014C106.335 36.2296 106.616 36.5498 106.816 36.9623C107.019 37.3747 107.12 37.8574 107.12 38.4104C107.12 38.9588 107.019 39.438 106.816 39.8482C106.616 40.2583 106.335 40.5774 105.973 40.8055C105.613 41.0337 105.194 41.1477 104.715 41.1477ZM104.715 40.415C105.079 40.415 105.378 40.3217 105.613 40.135C105.849 39.9484 106.022 39.703 106.135 39.3989C106.248 39.0947 106.305 38.7652 106.305 38.4104C106.305 38.0556 106.248 37.7249 106.135 37.4185C106.022 37.112 105.849 36.8643 105.613 36.6754C105.378 36.4865 105.079 36.392 104.715 36.392C104.351 36.392 104.051 36.4865 103.816 36.6754C103.581 36.8643 103.407 37.112 103.294 37.4185C103.181 37.7249 103.125 38.0556 103.125 38.4104C103.125 38.7652 103.181 39.0947 103.294 39.3989C103.407 39.703 103.581 39.9484 103.816 40.135C104.051 40.3217 104.351 40.415 104.715 40.415ZM110.674 35.7284V36.4196H107.923V35.7284H110.674ZM108.725 34.4565H109.541V39.5164C109.541 39.7468 109.574 39.9196 109.641 40.0348C109.71 40.1477 109.797 40.2238 109.903 40.2629C110.012 40.2998 110.126 40.3182 110.246 40.3182C110.335 40.3182 110.409 40.3136 110.467 40.3044C110.524 40.2929 110.571 40.2837 110.605 40.2767L110.771 41.0095C110.716 41.0302 110.638 41.0509 110.539 41.0717C110.44 41.0947 110.315 41.1062 110.163 41.1062C109.932 41.1062 109.706 41.0567 109.485 40.9576C109.266 40.8585 109.084 40.7076 108.939 40.5049C108.796 40.3021 108.725 40.0463 108.725 39.7376V34.4565ZM114.07 41.1477C113.558 41.1477 113.117 41.0348 112.746 40.809C112.378 40.5809 112.093 40.2629 111.893 39.8551C111.694 39.445 111.595 38.968 111.595 38.4242C111.595 37.8805 111.694 37.4012 111.893 36.9865C112.093 36.5694 112.372 36.2445 112.729 36.0118C113.088 35.7768 113.508 35.6593 113.987 35.6593C114.263 35.6593 114.536 35.7054 114.806 35.7975C115.076 35.8897 115.321 36.0395 115.542 36.2468C115.763 36.4519 115.94 36.7238 116.071 37.0625C116.202 37.4012 116.268 37.8182 116.268 38.3136V38.6593H112.176V37.9542H115.439C115.439 37.6547 115.379 37.3874 115.259 37.1524C115.141 36.9173 114.973 36.7319 114.754 36.5959C114.538 36.46 114.282 36.392 113.987 36.392C113.662 36.392 113.381 36.4726 113.144 36.6339C112.909 36.7929 112.728 37.0003 112.601 37.256C112.474 37.5118 112.411 37.786 112.411 38.0786V38.5487C112.411 38.9496 112.48 39.2894 112.618 39.5682C112.759 39.8447 112.954 40.0556 113.202 40.2007C113.451 40.3436 113.74 40.415 114.07 40.415C114.284 40.415 114.478 40.385 114.651 40.3251C114.826 40.2629 114.977 40.1708 115.103 40.0486C115.23 39.9242 115.328 39.7698 115.397 39.5855L116.185 39.8067C116.102 40.074 115.963 40.309 115.767 40.5118C115.571 40.7122 115.329 40.8689 115.041 40.9818C114.753 41.0924 114.429 41.1477 114.07 41.1477ZM121.269 36.9173L120.536 37.1247C120.49 37.0026 120.422 36.8839 120.333 36.7687C120.245 36.6512 120.125 36.5544 119.973 36.4784C119.821 36.4024 119.626 36.3643 119.389 36.3643C119.064 36.3643 118.793 36.4392 118.577 36.589C118.362 36.7365 118.255 36.9242 118.255 37.1524C118.255 37.3551 118.329 37.5153 118.477 37.6328C118.624 37.7503 118.854 37.8482 119.168 37.9265L119.956 38.1201C120.43 38.2353 120.784 38.4116 121.017 38.6489C121.25 38.8839 121.366 39.1869 121.366 39.5579C121.366 39.862 121.278 40.1339 121.103 40.3735C120.93 40.6132 120.688 40.8021 120.377 40.9403C120.066 41.0786 119.705 41.1477 119.292 41.1477C118.751 41.1477 118.303 41.0302 117.948 40.7952C117.593 40.5602 117.368 40.2168 117.274 39.7652L118.048 39.5717C118.122 39.8574 118.261 40.0717 118.466 40.2145C118.674 40.3574 118.944 40.4288 119.278 40.4288C119.659 40.4288 119.96 40.3482 120.184 40.1869C120.41 40.0233 120.523 39.8274 120.523 39.5993C120.523 39.415 120.458 39.2606 120.329 39.1362C120.2 39.0095 120.002 38.915 119.735 38.8528L118.85 38.6454C118.364 38.5302 118.006 38.3517 117.778 38.1097C117.553 37.8655 117.44 37.5602 117.44 37.1938C117.44 36.8943 117.524 36.6293 117.692 36.3989C117.862 36.1685 118.094 35.9876 118.387 35.8563C118.682 35.725 119.016 35.6593 119.389 35.6593C119.914 35.6593 120.327 35.7745 120.626 36.0049C120.928 36.2353 121.142 36.5395 121.269 36.9173Z" fill="#858E96"/>
<path d="M265.417 59.75C265.34 59.75 265.281 59.7257 265.239 59.6771C265.198 59.6285 265.184 59.566 265.198 59.4896L265.583 56.8125H264.062C263.986 56.8125 263.93 56.7778 263.896 56.7083C263.861 56.6389 263.861 56.5729 263.896 56.5104L266.364 52.3854C266.385 52.3507 266.42 52.3194 266.469 52.2917C266.517 52.2639 266.566 52.25 266.614 52.25C266.691 52.25 266.75 52.2743 266.792 52.3229C266.833 52.3715 266.847 52.434 266.833 52.5104L266.448 55.1771H267.948C268.024 55.1771 268.081 55.2118 268.12 55.2812C268.158 55.3507 268.16 55.4167 268.125 55.4792L265.667 59.6146C265.646 59.6493 265.611 59.6806 265.562 59.7083C265.514 59.7361 265.465 59.75 265.417 59.75V59.75Z" fill="#858E96"/>
</g>
<defs>
<filter id="filter0_d_1900_49885" x="11.2193" y="0.219251" width="284.561" height="85.5615" filterUnits="userSpaceOnUse" color-interpolation-filters="sRGB">
<feFlood flood-opacity="0" result="BackgroundImageFix"/>
<feColorMatrix in="SourceAlpha" type="matrix" values="0 0 0 0 0 0 0 0 0 0 0 0 0 0 0 0 0 0 127 0" result="hardAlpha"/>
<feOffset/>
<feGaussianBlur stdDeviation="1.39037"/>
<feComposite in2="hardAlpha" operator="out"/>
<feColorMatrix type="matrix" values="0 0 0 0 0 0 0 0 0 0 0 0 0 0 0 0 0 0 0.2 0"/>
<feBlend mode="normal" in2="BackgroundImageFix" result="effect1_dropShadow_1900_49885"/>
<feBlend mode="normal" in="SourceGraphic" in2="effect1_dropShadow_1900_49885" result="shape"/>
</filter>
<filter id="filter1_d_1900_49885" x="0.219251" y="19.2193" width="284.561" height="85.5615" filterUnits="userSpaceOnUse" color-interpolation-filters="sRGB">
<feFlood flood-opacity="0" result="BackgroundImageFix"/>
<feColorMatrix in="SourceAlpha" type="matrix" values="0 0 0 0 0 0 0 0 0 0 0 0 0 0 0 0 0 0 127 0" result="hardAlpha"/>
<feOffset/>
<feGaussianBlur stdDeviation="1.39037"/>
<feComposite in2="hardAlpha" operator="out"/>
<feColorMatrix type="matrix" values="0 0 0 0 0 0 0 0 0 0 0 0 0 0 0 0 0 0 0.2 0"/>
<feBlend mode="normal" in2="BackgroundImageFix" result="effect1_dropShadow_1900_49885"/>
<feBlend mode="normal" in="SourceGraphic" in2="effect1_dropShadow_1900_49885" result="shape"/>
</filter>
</defs>
</svg>
