<svg width="291" height="177" viewBox="0 0 291 177" fill="none" xmlns="http://www.w3.org/2000/svg">
<rect x="64.5723" y="27.2246" width="79.5849" height="13.5513" rx="6.16937" fill="#EBEBEB"/>
<rect x="159.581" y="27.2246" width="79.5849" height="13.5513" rx="6.16937" fill="#E2E2E2"/>
<g filter="url(#filter0_d_2884_60167)">
<rect x="28" y="2.5" width="260" height="147" rx="6.16937" fill="white"/>
</g>
<path d="M42.5048 87.6895V78.2349H46.0502C46.7766 78.2349 47.3859 78.3703 47.8784 78.6412C48.3739 78.912 48.7478 79.2844 49.0002 79.7583C49.2556 80.2292 49.3833 80.7647 49.3833 81.3649C49.3833 81.9712 49.2556 82.5098 49.0002 82.9806C48.7447 83.4515 48.3677 83.8224 47.8691 84.0932C47.3706 84.361 46.7566 84.4949 46.0272 84.4949H43.6774V83.0868H45.7963C46.2211 83.0868 46.5688 83.013 46.8397 82.8652C47.1105 82.7175 47.3105 82.5144 47.4398 82.2559C47.5721 81.9973 47.6383 81.7003 47.6383 81.3649C47.6383 81.0294 47.5721 80.734 47.4398 80.4785C47.3105 80.2231 47.109 80.0246 46.835 79.883C46.5642 79.7383 46.2149 79.666 45.7871 79.666H44.2175V87.6895H42.5048ZM50.7971 87.6895V80.5985H52.4175V81.7804H52.4914C52.6206 81.371 52.8422 81.0556 53.1562 80.834C53.4732 80.6093 53.8348 80.497 54.241 80.497C54.3334 80.497 54.4365 80.5016 54.5503 80.5108C54.6673 80.517 54.7642 80.5278 54.8412 80.5431V82.0804C54.7704 82.0558 54.6581 82.0343 54.5042 82.0158C54.3534 81.9943 54.2072 81.9835 54.0656 81.9835C53.7609 81.9835 53.487 82.0497 53.2439 82.182C53.0038 82.3113 52.8145 82.4913 52.676 82.7221C52.5376 82.9529 52.4683 83.2192 52.4683 83.5208V87.6895H50.7971ZM58.7525 87.8279C58.06 87.8279 57.4599 87.6756 56.9521 87.3709C56.4442 87.0662 56.0503 86.64 55.7702 86.0922C55.4933 85.5443 55.3548 84.9042 55.3548 84.1717C55.3548 83.4392 55.4933 82.7975 55.7702 82.2466C56.0503 81.6957 56.4442 81.2679 56.9521 80.9632C57.4599 80.6586 58.06 80.5062 58.7525 80.5062C59.445 80.5062 60.0451 80.6586 60.5529 80.9632C61.0607 81.2679 61.4531 81.6957 61.7301 82.2466C62.0102 82.7975 62.1502 83.4392 62.1502 84.1717C62.1502 84.9042 62.0102 85.5443 61.7301 86.0922C61.4531 86.64 61.0607 87.0662 60.5529 87.3709C60.0451 87.6756 59.445 87.8279 58.7525 87.8279ZM58.7617 86.4892C59.1372 86.4892 59.4511 86.3861 59.7035 86.1799C59.9558 85.9706 60.1436 85.6905 60.2667 85.3397C60.3929 84.9888 60.456 84.598 60.456 84.1671C60.456 83.7331 60.3929 83.3407 60.2667 82.9899C60.1436 82.6359 59.9558 82.3543 59.7035 82.1451C59.4511 81.9358 59.1372 81.8311 58.7617 81.8311C58.377 81.8311 58.0569 81.9358 57.8015 82.1451C57.5491 82.3543 57.3598 82.6359 57.2337 82.9899C57.1106 83.3407 57.049 83.7331 57.049 84.1671C57.049 84.598 57.1106 84.9888 57.2337 85.3397C57.3598 85.6905 57.5491 85.9706 57.8015 86.1799C58.0569 86.3861 58.377 86.4892 58.7617 86.4892ZM63.5686 80.5985H65.2398V88.0957C65.2398 88.6066 65.1428 89.0282 64.949 89.3606C64.7551 89.693 64.475 89.9408 64.1088 90.1039C63.7425 90.267 63.2978 90.3485 62.7746 90.3485C62.713 90.3485 62.6561 90.347 62.6038 90.3439C62.5515 90.3439 62.4945 90.3424 62.433 90.3393V88.9775C62.4791 88.9805 62.5207 88.9821 62.5576 88.9821C62.5945 88.9851 62.633 88.9867 62.673 88.9867C62.9931 88.9867 63.2224 88.9082 63.3609 88.7512C63.4994 88.5974 63.5686 88.3712 63.5686 88.0726V80.5985ZM64.3996 79.5922C64.1318 79.5922 63.9026 79.5044 63.7117 79.329C63.524 79.1505 63.4301 78.9366 63.4301 78.6873C63.4301 78.435 63.524 78.2211 63.7117 78.0456C63.9026 77.8671 64.1318 77.7779 64.3996 77.7779C64.6643 77.7779 64.8905 77.8671 65.0782 78.0456C65.269 78.2211 65.3644 78.435 65.3644 78.6873C65.3644 78.9366 65.269 79.1505 65.0782 79.329C64.8905 79.5044 64.6643 79.5922 64.3996 79.5922ZM70.0975 87.8279C69.3865 87.8279 68.7725 87.6802 68.2555 87.3848C67.7415 87.0862 67.3461 86.6646 67.0691 86.1199C66.7921 85.572 66.6536 84.9273 66.6536 84.1855C66.6536 83.4561 66.7921 82.816 67.0691 82.2651C67.3491 81.7111 67.74 81.2802 68.2417 80.9725C68.7433 80.6616 69.3327 80.5062 70.0098 80.5062C70.4468 80.5062 70.8592 80.577 71.247 80.7186C71.6378 80.8571 71.9825 81.0725 72.2811 81.3649C72.5827 81.6573 72.8197 82.0297 72.992 82.4821C73.1644 82.9314 73.2505 83.4669 73.2505 84.0886V84.601H67.4384V83.4746H71.6486C71.6455 83.1545 71.5763 82.8699 71.4409 82.6206C71.3055 82.3682 71.1162 82.1697 70.873 82.025C70.633 81.8804 70.3529 81.8081 70.0328 81.8081C69.6912 81.8081 69.3912 81.8912 69.1326 82.0574C68.8741 82.2205 68.6725 82.4359 68.5279 82.7037C68.3863 82.9683 68.314 83.2592 68.3109 83.5762V84.5595C68.3109 84.9719 68.3863 85.3258 68.5371 85.6213C68.6879 85.9136 68.8987 86.1383 69.1696 86.2953C69.4404 86.4492 69.7574 86.5261 70.1206 86.5261C70.3637 86.5261 70.5837 86.4922 70.7807 86.4245C70.9777 86.3538 71.1485 86.2507 71.2931 86.1152C71.4378 85.9798 71.5471 85.8121 71.6209 85.612L73.1813 85.7875C73.0828 86.1999 72.8951 86.56 72.6181 86.8677C72.3442 87.1724 71.9933 87.4094 71.5655 87.5787C71.1377 87.7449 70.6484 87.8279 70.0975 87.8279ZM77.7574 87.8279C77.0495 87.8279 76.4417 87.6725 75.9339 87.3617C75.4291 87.0508 75.0398 86.6215 74.7659 86.0737C74.4951 85.5228 74.3596 84.8888 74.3596 84.1717C74.3596 83.4515 74.4981 82.816 74.7751 82.2651C75.0521 81.7111 75.443 81.2802 75.9477 80.9725C76.4555 80.6616 77.0557 80.5062 77.7481 80.5062C78.3237 80.5062 78.833 80.6124 79.2762 80.8248C79.7224 81.034 80.0779 81.331 80.3426 81.7157C80.6073 82.0974 80.7581 82.5436 80.795 83.0545H79.1977C79.1331 82.7129 78.9792 82.4282 78.7361 82.2005C78.496 81.9696 78.1744 81.8542 77.7712 81.8542C77.4296 81.8542 77.1295 81.9466 76.871 82.1312C76.6125 82.3128 76.4109 82.5744 76.2662 82.916C76.1247 83.2576 76.0539 83.667 76.0539 84.144C76.0539 84.6272 76.1247 85.0427 76.2662 85.3904C76.4078 85.7351 76.6063 86.0014 76.8618 86.1891C77.1203 86.3738 77.4234 86.4661 77.7712 86.4661C78.0174 86.4661 78.2375 86.4199 78.4314 86.3276C78.6283 86.2322 78.793 86.0952 78.9253 85.9167C79.0577 85.7382 79.1485 85.5212 79.1977 85.2658H80.795C80.755 85.7675 80.6073 86.2122 80.3518 86.6C80.0964 86.9847 79.7486 87.2863 79.3085 87.5048C78.8684 87.7202 78.3514 87.8279 77.7574 87.8279ZM85.7081 80.5985V81.8912H81.6317V80.5985H85.7081ZM82.6381 78.8997H84.3093V85.5566C84.3093 85.7813 84.3432 85.9537 84.4109 86.0737C84.4817 86.1906 84.574 86.2707 84.6879 86.3137C84.8017 86.3568 84.9279 86.3784 85.0664 86.3784C85.171 86.3784 85.2665 86.3707 85.3526 86.3553C85.4419 86.3399 85.5096 86.3261 85.5558 86.3137L85.8374 87.6202C85.7481 87.651 85.6204 87.6848 85.4542 87.7218C85.2911 87.7587 85.091 87.7802 84.854 87.7864C84.4355 87.7987 84.0585 87.7356 83.723 87.5971C83.3875 87.4556 83.1213 87.237 82.9244 86.9416C82.7305 86.6461 82.6351 86.2768 82.6381 85.8336V78.8997ZM98.1737 78.2349V87.6895H96.6503L92.1954 81.2495H92.1169V87.6895H90.4042V78.2349H91.9369L96.3872 84.6795H96.4703V78.2349H98.1737ZM102.007 87.8326C101.557 87.8326 101.153 87.7525 100.792 87.5925C100.435 87.4294 100.152 87.1893 99.943 86.8723C99.7368 86.5553 99.6337 86.1645 99.6337 85.6998C99.6337 85.2997 99.7076 84.9688 99.8553 84.7072C100.003 84.4456 100.205 84.2363 100.46 84.0794C100.715 83.9224 101.003 83.8039 101.323 83.7239C101.646 83.6408 101.98 83.5808 102.325 83.5439C102.741 83.5008 103.078 83.4623 103.336 83.4284C103.595 83.3915 103.782 83.3361 103.899 83.2623C104.019 83.1853 104.079 83.0668 104.079 82.9068V82.8791C104.079 82.5313 103.976 82.262 103.77 82.0712C103.564 81.8804 103.267 81.785 102.879 81.785C102.47 81.785 102.145 81.8742 101.905 82.0527C101.668 82.2312 101.508 82.4421 101.425 82.6852L99.8645 82.4636C99.9876 82.0327 100.191 81.6726 100.474 81.3833C100.757 81.091 101.103 80.8725 101.513 80.7278C101.922 80.5801 102.374 80.5062 102.87 80.5062C103.211 80.5062 103.552 80.5462 103.89 80.6262C104.229 80.7063 104.538 80.8386 104.818 81.0233C105.098 81.2048 105.323 81.4526 105.492 81.7665C105.664 82.0804 105.751 82.4728 105.751 82.9437V87.6895H104.144V86.7154H104.089C103.987 86.9123 103.844 87.097 103.659 87.2694C103.478 87.4386 103.248 87.5756 102.971 87.6802C102.698 87.7818 102.376 87.8326 102.007 87.8326ZM102.441 86.6046C102.776 86.6046 103.067 86.5384 103.313 86.4061C103.559 86.2707 103.749 86.0922 103.881 85.8706C104.016 85.649 104.084 85.4074 104.084 85.1458V84.3102C104.032 84.3533 103.942 84.3933 103.816 84.4302C103.693 84.4672 103.555 84.4995 103.401 84.5272C103.247 84.5549 103.095 84.5795 102.944 84.601C102.793 84.6226 102.662 84.641 102.551 84.6564C102.302 84.6903 102.079 84.7457 101.882 84.8226C101.685 84.8996 101.53 85.0073 101.416 85.1458C101.302 85.2812 101.245 85.4566 101.245 85.6721C101.245 85.9798 101.357 86.2122 101.582 86.3691C101.807 86.5261 102.093 86.6046 102.441 86.6046ZM107.431 87.6895V80.5985H109.028V81.8034H109.111C109.259 81.3972 109.504 81.0802 109.845 80.8525C110.187 80.6216 110.595 80.5062 111.069 80.5062C111.549 80.5062 111.954 80.6232 112.283 80.8571C112.615 81.0879 112.849 81.4033 112.985 81.8034H113.058C113.215 81.4095 113.48 81.0956 113.852 80.8617C114.228 80.6247 114.673 80.5062 115.187 80.5062C115.839 80.5062 116.372 80.7124 116.784 81.1248C117.196 81.5372 117.403 82.1389 117.403 82.9299V87.6895H115.727V83.1884C115.727 82.7483 115.61 82.4267 115.376 82.2235C115.142 82.0173 114.856 81.9142 114.517 81.9142C114.114 81.9142 113.799 82.0404 113.571 82.2928C113.346 82.5421 113.234 82.8668 113.234 83.2669V87.6895H111.595V83.1191C111.595 82.7529 111.484 82.4605 111.263 82.242C111.044 82.0235 110.758 81.9142 110.404 81.9142C110.164 81.9142 109.945 81.9758 109.748 82.0989C109.551 82.2189 109.394 82.3897 109.278 82.6113C109.161 82.8298 109.102 83.0853 109.102 83.3777V87.6895H107.431ZM122.237 87.8279C121.526 87.8279 120.912 87.6802 120.395 87.3848C119.881 87.0862 119.486 86.6646 119.209 86.1199C118.932 85.572 118.793 84.9273 118.793 84.1855C118.793 83.4561 118.932 82.816 119.209 82.2651C119.489 81.7111 119.88 81.2802 120.381 80.9725C120.883 80.6616 121.472 80.5062 122.149 80.5062C122.586 80.5062 122.999 80.577 123.387 80.7186C123.777 80.8571 124.122 81.0725 124.421 81.3649C124.722 81.6573 124.959 82.0297 125.132 82.4821C125.304 82.9314 125.39 83.4669 125.39 84.0886V84.601H119.578V83.4746H123.788C123.785 83.1545 123.716 82.8699 123.581 82.6206C123.445 82.3682 123.256 82.1697 123.013 82.025C122.773 81.8804 122.493 81.8081 122.172 81.8081C121.831 81.8081 121.531 81.8912 121.272 82.0574C121.014 82.2205 120.812 82.4359 120.668 82.7037C120.526 82.9683 120.454 83.2592 120.451 83.5762V84.5595C120.451 84.9719 120.526 85.3258 120.677 85.6213C120.828 85.9136 121.038 86.1383 121.309 86.2953C121.58 86.4492 121.897 86.5261 122.26 86.5261C122.503 86.5261 122.723 86.4922 122.92 86.4245C123.117 86.3538 123.288 86.2507 123.433 86.1152C123.577 85.9798 123.687 85.8121 123.761 85.612L125.321 85.7875C125.222 86.1999 125.035 86.56 124.758 86.8677C124.484 87.1724 124.133 87.4094 123.705 87.5787C123.277 87.7449 122.788 87.8279 122.237 87.8279Z" fill="black"/>
<rect x="42" y="100.5" width="232" height="8" rx="4" fill="#EBEBEB"/>
<rect x="42" y="116.5" width="79.5849" height="8.02018" rx="4.01009" fill="#E2E2E2"/>
<rect x="42" y="132.5" width="8" height="8" rx="4" fill="#E2E2E2"/>
<rect x="266" y="132.5" width="8" height="8" rx="4" fill="#E2E2E2"/>
<rect x="252" y="132.5" width="8" height="8" rx="4" fill="#E2E2E2"/>
<rect x="53" y="132.5" width="32" height="8" rx="4" fill="#E2E2E2"/>
<path d="M28 8.5C28 5.18629 30.6863 2.5 34 2.5H282C285.314 2.5 288 5.18629 288 8.5V68.5H28V8.5Z" fill="#ECF4FC"/>
<path d="M140 21.5L193.694 68H86.3064L140 21.5Z" fill="#DAECF9"/>
<path d="M186.5 30.5L230.234 68H142.766L186.5 30.5Z" fill="#DAECF9"/>
<circle cx="231" cy="22.5" r="8" fill="#DAECF9"/>
<rect x="39.5723" y="52.2246" width="79.5849" height="13.5513" rx="6.16937" fill="#EBEBEB"/>
<rect x="134.581" y="52.2246" width="79.5849" height="13.5513" rx="6.16937" fill="#E2E2E2"/>
<g filter="url(#filter1_d_2884_60167)">
<rect x="3" y="27.5" width="260" height="147" rx="6.16937" fill="white"/>
</g>
<path d="M17.5048 112.689V103.235H21.0502C21.7766 103.235 22.3859 103.37 22.8784 103.641C23.3739 103.912 23.7478 104.284 24.0002 104.758C24.2556 105.229 24.3833 105.765 24.3833 106.365C24.3833 106.971 24.2556 107.51 24.0002 107.981C23.7447 108.452 23.3677 108.822 22.8691 109.093C22.3706 109.361 21.7566 109.495 21.0272 109.495H18.6774V108.087H20.7963C21.2211 108.087 21.5688 108.013 21.8397 107.865C22.1105 107.718 22.3105 107.514 22.4398 107.256C22.5721 106.997 22.6383 106.7 22.6383 106.365C22.6383 106.029 22.5721 105.734 22.4398 105.479C22.3105 105.223 22.109 105.025 21.835 104.883C21.5642 104.738 21.2149 104.666 20.7871 104.666H19.2175V112.689H17.5048ZM27.4683 103.235V112.689H25.7971V103.235H27.4683ZM31.2273 112.833C30.7779 112.833 30.3732 112.753 30.0131 112.593C29.6561 112.429 29.373 112.189 29.1637 111.872C28.9575 111.555 28.8544 111.164 28.8544 110.7C28.8544 110.3 28.9283 109.969 29.076 109.707C29.2237 109.446 29.4253 109.236 29.6808 109.079C29.9362 108.922 30.224 108.804 30.544 108.724C30.8672 108.641 31.2011 108.581 31.5458 108.544C31.9613 108.501 32.2983 108.462 32.5568 108.428C32.8153 108.392 33.0031 108.336 33.12 108.262C33.2401 108.185 33.3001 108.067 33.3001 107.907V107.879C33.3001 107.531 33.197 107.262 32.9908 107.071C32.7846 106.88 32.4876 106.785 32.0998 106.785C31.6905 106.785 31.3658 106.874 31.1257 107.053C30.8887 107.231 30.7287 107.442 30.6456 107.685L29.0852 107.464C29.2083 107.033 29.4115 106.673 29.6946 106.383C29.9777 106.091 30.324 105.872 30.7333 105.728C31.1426 105.58 31.5951 105.506 32.0906 105.506C32.4322 105.506 32.7723 105.546 33.1108 105.626C33.4493 105.706 33.7586 105.839 34.0387 106.023C34.3188 106.205 34.5434 106.453 34.7127 106.767C34.8851 107.08 34.9712 107.473 34.9712 107.944V112.689H33.3647V111.715H33.3093C33.2077 111.912 33.0646 112.097 32.88 112.269C32.6984 112.439 32.4691 112.576 32.1921 112.68C31.9182 112.782 31.5966 112.833 31.2273 112.833ZM31.6612 111.605C31.9967 111.605 32.2875 111.538 32.5337 111.406C32.7799 111.271 32.9692 111.092 33.1016 110.871C33.237 110.649 33.3047 110.407 33.3047 110.146V109.31C33.2524 109.353 33.1631 109.393 33.0369 109.43C32.9138 109.467 32.7753 109.499 32.6214 109.527C32.4676 109.555 32.3152 109.579 32.1644 109.601C32.0136 109.623 31.8828 109.641 31.772 109.656C31.5227 109.69 31.2996 109.746 31.1026 109.823C30.9057 109.9 30.7502 110.007 30.6364 110.146C30.5225 110.281 30.4656 110.457 30.4656 110.672C30.4656 110.98 30.5779 111.212 30.8026 111.369C31.0272 111.526 31.3134 111.605 31.6612 111.605ZM38.3228 108.535V112.689H36.6516V105.599H38.2489V106.803H38.332C38.4951 106.406 38.7552 106.091 39.1122 105.857C39.4723 105.623 39.917 105.506 40.4464 105.506C40.9357 105.506 41.362 105.611 41.7251 105.82C42.0914 106.029 42.3745 106.333 42.5746 106.73C42.7777 107.127 42.8777 107.608 42.8746 108.175V112.689H41.2035V108.433C41.2035 107.959 41.0804 107.588 40.8342 107.32C40.591 107.053 40.254 106.919 39.8232 106.919C39.5308 106.919 39.2707 106.983 39.043 107.113C38.8183 107.239 38.6413 107.422 38.5121 107.662C38.3859 107.902 38.3228 108.193 38.3228 108.535ZM47.7127 112.828C47.0018 112.828 46.3878 112.68 45.8707 112.385C45.3568 112.086 44.9613 111.665 44.6843 111.12C44.4073 110.572 44.2688 109.927 44.2688 109.186C44.2688 108.456 44.4073 107.816 44.6843 107.265C44.9644 106.711 45.3552 106.28 45.8569 105.972C46.3585 105.662 46.9479 105.506 47.625 105.506C48.062 105.506 48.4744 105.577 48.8622 105.719C49.2531 105.857 49.5978 106.073 49.8963 106.365C50.1979 106.657 50.4349 107.03 50.6072 107.482C50.7796 107.931 50.8658 108.467 50.8658 109.089V109.601H45.0536V108.475H49.2638C49.2608 108.155 49.1915 107.87 49.0561 107.621C48.9207 107.368 48.7314 107.17 48.4883 107.025C48.2482 106.88 47.9682 106.808 47.6481 106.808C47.3065 106.808 47.0064 106.891 46.7479 107.057C46.4893 107.22 46.2878 107.436 46.1431 107.704C46.0015 107.968 45.9292 108.259 45.9261 108.576V109.559C45.9261 109.972 46.0015 110.326 46.1523 110.621C46.3031 110.914 46.514 111.138 46.7848 111.295C47.0556 111.449 47.3726 111.526 47.7358 111.526C47.9789 111.526 48.199 111.492 48.396 111.425C48.5929 111.354 48.7637 111.251 48.9084 111.115C49.053 110.98 49.1623 110.812 49.2362 110.612L50.7965 110.787C50.698 111.2 50.5103 111.56 50.2333 111.868C49.9594 112.172 49.6085 112.409 49.1808 112.579C48.753 112.745 48.2636 112.828 47.7127 112.828ZM55.578 103.235H57.6739L60.4807 110.086H60.5915L63.3983 103.235H65.4942V112.689H63.8508V106.194H63.7631L61.1501 112.662H59.9221L57.3092 106.18H57.2215V112.689H55.578V103.235ZM69.3259 112.833C68.8766 112.833 68.4719 112.753 68.1118 112.593C67.7548 112.429 67.4716 112.189 67.2623 111.872C67.0561 111.555 66.953 111.164 66.953 110.7C66.953 110.3 67.0269 109.969 67.1746 109.707C67.3224 109.446 67.5239 109.236 67.7794 109.079C68.0348 108.922 68.3226 108.804 68.6427 108.724C68.9658 108.641 69.2997 108.581 69.6444 108.544C70.0599 108.501 70.3969 108.462 70.6555 108.428C70.914 108.392 71.1017 108.336 71.2187 108.262C71.3387 108.185 71.3987 108.067 71.3987 107.907V107.879C71.3987 107.531 71.2956 107.262 71.0894 107.071C70.8832 106.88 70.5862 106.785 70.1984 106.785C69.7891 106.785 69.4644 106.874 69.2243 107.053C68.9874 107.231 68.8273 107.442 68.7442 107.685L67.1839 107.464C67.307 107.033 67.5101 106.673 67.7932 106.383C68.0764 106.091 68.4226 105.872 68.8319 105.728C69.2413 105.58 69.6937 105.506 70.1892 105.506C70.5308 105.506 70.8709 105.546 71.2094 105.626C71.548 105.706 71.8573 105.839 72.1373 106.023C72.4174 106.205 72.6421 106.453 72.8113 106.767C72.9837 107.08 73.0699 107.473 73.0699 107.944V112.689H71.4633V111.715H71.4079C71.3064 111.912 71.1633 112.097 70.9786 112.269C70.797 112.439 70.5677 112.576 70.2907 112.68C70.0168 112.782 69.6952 112.833 69.3259 112.833ZM69.7599 111.605C70.0953 111.605 70.3862 111.538 70.6324 111.406C70.8786 111.271 71.0679 111.092 71.2002 110.871C71.3356 110.649 71.4033 110.407 71.4033 110.146V109.31C71.351 109.353 71.2617 109.393 71.1356 109.43C71.0125 109.467 70.874 109.499 70.7201 109.527C70.5662 109.555 70.4139 109.579 70.2631 109.601C70.1122 109.623 69.9814 109.641 69.8706 109.656C69.6214 109.69 69.3982 109.746 69.2013 109.823C69.0043 109.9 68.8489 110.007 68.735 110.146C68.6211 110.281 68.5642 110.457 68.5642 110.672C68.5642 110.98 68.6765 111.212 68.9012 111.369C69.1259 111.526 69.4121 111.605 69.7599 111.605ZM74.7503 112.689V105.599H76.3706V106.78H76.4445C76.5738 106.371 76.7954 106.056 77.1093 105.834C77.4263 105.609 77.7879 105.497 78.1942 105.497C78.2865 105.497 78.3896 105.502 78.5035 105.511C78.6204 105.517 78.7174 105.528 78.7943 105.543V107.08C78.7235 107.056 78.6112 107.034 78.4573 107.016C78.3065 106.994 78.1603 106.983 78.0187 106.983C77.714 106.983 77.4401 107.05 77.197 107.182C76.9569 107.311 76.7677 107.491 76.6292 107.722C76.4907 107.953 76.4214 108.219 76.4214 108.521V112.689H74.7503ZM81.428 110.464L81.4234 108.447H81.6911L84.2394 105.599H86.1922L83.0576 109.089H82.7114L81.428 110.464ZM79.9046 112.689V103.235H81.5757V112.689H79.9046ZM84.3548 112.689L82.0466 109.463L83.173 108.285L86.3538 112.689H84.3548ZM90.1531 112.828C89.4422 112.828 88.8282 112.68 88.3112 112.385C87.7972 112.086 87.4017 111.665 87.1247 111.12C86.8477 110.572 86.7093 109.927 86.7093 109.186C86.7093 108.456 86.8477 107.816 87.1247 107.265C87.4048 106.711 87.7957 106.28 88.2973 105.972C88.799 105.662 89.3883 105.506 90.0654 105.506C90.5025 105.506 90.9149 105.577 91.3026 105.719C91.6935 105.857 92.0382 106.073 92.3367 106.365C92.6383 106.657 92.8753 107.03 93.0477 107.482C93.22 107.931 93.3062 108.467 93.3062 109.089V109.601H87.4941V108.475H91.7043C91.7012 108.155 91.632 107.87 91.4965 107.621C91.3611 107.368 91.1718 107.17 90.9287 107.025C90.6887 106.88 90.4086 106.808 90.0885 106.808C89.7469 106.808 89.4468 106.891 89.1883 107.057C88.9298 107.22 88.7282 107.436 88.5835 107.704C88.442 107.968 88.3696 108.259 88.3666 108.576V109.559C88.3666 109.972 88.442 110.326 88.5928 110.621C88.7436 110.914 88.9544 111.138 89.2252 111.295C89.4961 111.449 89.8131 111.526 90.1762 111.526C90.4194 111.526 90.6394 111.492 90.8364 111.425C91.0334 111.354 91.2042 111.251 91.3488 111.115C91.4935 110.98 91.6027 110.812 91.6766 110.612L93.2369 110.787C93.1385 111.2 92.9507 111.56 92.6737 111.868C92.3998 112.172 92.049 112.409 91.6212 112.579C91.1934 112.745 90.704 112.828 90.1531 112.828ZM98.2608 105.599V106.891H94.1845V105.599H98.2608ZM95.1909 103.9H96.862V110.557C96.862 110.781 96.8959 110.954 96.9636 111.074C97.0344 111.191 97.1267 111.271 97.2406 111.314C97.3545 111.357 97.4806 111.378 97.6191 111.378C97.7238 111.378 97.8192 111.371 97.9054 111.355C97.9946 111.34 98.0623 111.326 98.1085 111.314L98.3901 112.62C98.3008 112.651 98.1731 112.685 98.0069 112.722C97.8438 112.759 97.6438 112.78 97.4068 112.786C96.9882 112.799 96.6112 112.736 96.2757 112.597C95.9403 112.456 95.6741 112.237 95.4771 111.942C95.2832 111.646 95.1878 111.277 95.1909 110.834V103.9ZM99.6585 112.689V105.599H101.33V112.689H99.6585ZM100.499 104.592C100.234 104.592 100.006 104.504 99.8154 104.329C99.6246 104.151 99.5292 103.937 99.5292 103.687C99.5292 103.435 99.6246 103.221 99.8154 103.046C100.006 102.867 100.234 102.778 100.499 102.778C100.766 102.778 100.994 102.867 101.182 103.046C101.373 103.221 101.468 103.435 101.468 103.687C101.468 103.937 101.373 104.151 101.182 104.329C100.994 104.504 100.766 104.592 100.499 104.592ZM104.719 108.535V112.689H103.048V105.599H104.645V106.803H104.729C104.892 106.406 105.152 106.091 105.509 105.857C105.869 105.623 106.314 105.506 106.843 105.506C107.332 105.506 107.758 105.611 108.122 105.82C108.488 106.029 108.771 106.333 108.971 106.73C109.174 107.127 109.274 107.608 109.271 108.175V112.689H107.6V108.433C107.6 107.959 107.477 107.588 107.231 107.32C106.988 107.053 106.651 106.919 106.22 106.919C105.927 106.919 105.667 106.983 105.439 107.113C105.215 107.239 105.038 107.422 104.909 107.662C104.782 107.902 104.719 108.193 104.719 108.535ZM114.054 115.496C113.454 115.496 112.938 115.415 112.507 115.252C112.076 115.092 111.73 114.876 111.469 114.605C111.207 114.334 111.025 114.034 110.924 113.705L112.429 113.34C112.497 113.479 112.595 113.616 112.724 113.751C112.854 113.89 113.027 114.004 113.246 114.093C113.468 114.185 113.746 114.231 114.081 114.231C114.555 114.231 114.948 114.116 115.259 113.885C115.57 113.657 115.725 113.282 115.725 112.759V111.415H115.642C115.556 111.588 115.43 111.765 115.263 111.946C115.1 112.128 114.883 112.28 114.612 112.403C114.345 112.526 114.008 112.588 113.601 112.588C113.057 112.588 112.563 112.46 112.119 112.205C111.679 111.946 111.329 111.561 111.067 111.051C110.808 110.537 110.679 109.893 110.679 109.121C110.679 108.342 110.808 107.685 111.067 107.15C111.329 106.611 111.681 106.203 112.124 105.926C112.567 105.646 113.061 105.506 113.606 105.506C114.021 105.506 114.363 105.577 114.631 105.719C114.902 105.857 115.117 106.025 115.277 106.222C115.437 106.416 115.559 106.599 115.642 106.771H115.734V105.599H117.382V112.805C117.382 113.411 117.238 113.913 116.948 114.31C116.659 114.707 116.264 115.004 115.762 115.201C115.26 115.398 114.691 115.496 114.054 115.496ZM114.068 111.277C114.422 111.277 114.723 111.191 114.972 111.018C115.222 110.846 115.411 110.598 115.54 110.275C115.67 109.952 115.734 109.564 115.734 109.112C115.734 108.665 115.67 108.275 115.54 107.939C115.414 107.604 115.226 107.344 114.977 107.159C114.731 106.971 114.428 106.877 114.068 106.877C113.695 106.877 113.384 106.974 113.135 107.168C112.886 107.362 112.698 107.628 112.572 107.967C112.446 108.302 112.383 108.684 112.383 109.112C112.383 109.546 112.446 109.926 112.572 110.252C112.701 110.575 112.89 110.827 113.14 111.009C113.392 111.188 113.701 111.277 114.068 111.277Z" fill="black"/>
<rect x="17" y="125.5" width="232" height="8" rx="4" fill="#EBEBEB"/>
<rect x="17" y="141.5" width="79.5849" height="8.02018" rx="4.01009" fill="#E2E2E2"/>
<rect x="17" y="157.5" width="8" height="8" rx="4" fill="#E2E2E2"/>
<rect x="241" y="157.5" width="8" height="8" rx="4" fill="#E2E2E2"/>
<rect x="227" y="157.5" width="8" height="8" rx="4" fill="#E2E2E2"/>
<rect x="28" y="157.5" width="32" height="8" rx="4" fill="#E2E2E2"/>
<path d="M3 33.5C3 30.1863 5.68629 27.5 9 27.5H257C260.314 27.5 263 30.1863 263 33.5V93.5H3V33.5Z" fill="#ECF4FC"/>
<path d="M115 46.5L168.694 93H61.3064L115 46.5Z" fill="#DAECF9"/>
<path d="M161.5 55.5L205.234 93H117.766L161.5 55.5Z" fill="#DAECF9"/>
<circle cx="206" cy="47.5" r="8" fill="#DAECF9"/>
<defs>
<filter id="filter0_d_2884_60167" x="25.5323" y="0.0322516" width="264.935" height="151.935" filterUnits="userSpaceOnUse" color-interpolation-filters="sRGB">
<feFlood flood-opacity="0" result="BackgroundImageFix"/>
<feColorMatrix in="SourceAlpha" type="matrix" values="0 0 0 0 0 0 0 0 0 0 0 0 0 0 0 0 0 0 127 0" result="hardAlpha"/>
<feOffset/>
<feGaussianBlur stdDeviation="1.23387"/>
<feComposite in2="hardAlpha" operator="out"/>
<feColorMatrix type="matrix" values="0 0 0 0 0 0 0 0 0 0 0 0 0 0 0 0 0 0 0.2 0"/>
<feBlend mode="normal" in2="BackgroundImageFix" result="effect1_dropShadow_2884_60167"/>
<feBlend mode="normal" in="SourceGraphic" in2="effect1_dropShadow_2884_60167" result="shape"/>
</filter>
<filter id="filter1_d_2884_60167" x="0.532252" y="25.0323" width="264.935" height="151.935" filterUnits="userSpaceOnUse" color-interpolation-filters="sRGB">
<feFlood flood-opacity="0" result="BackgroundImageFix"/>
<feColorMatrix in="SourceAlpha" type="matrix" values="0 0 0 0 0 0 0 0 0 0 0 0 0 0 0 0 0 0 127 0" result="hardAlpha"/>
<feOffset/>
<feGaussianBlur stdDeviation="1.23387"/>
<feComposite in2="hardAlpha" operator="out"/>
<feColorMatrix type="matrix" values="0 0 0 0 0 0 0 0 0 0 0 0 0 0 0 0 0 0 0.2 0"/>
<feBlend mode="normal" in2="BackgroundImageFix" result="effect1_dropShadow_2884_60167"/>
<feBlend mode="normal" in="SourceGraphic" in2="effect1_dropShadow_2884_60167" result="shape"/>
</filter>
</defs>
</svg>
