<svg width="296" height="100" viewBox="0 0 296 100" fill="none" xmlns="http://www.w3.org/2000/svg">
<g filter="url(#filter0_d_1900_49885)">
<rect x="14" y="3" width="279" height="80" rx="5.5615" fill="white"/>
<rect x="25" y="31" width="103" height="10" rx="5" fill="#DEE2E6"/>
<rect x="25" y="48" width="230" height="7" rx="3.5" fill="#F1F3F5"/>
<rect x="25" y="62" width="230" height="7" rx="3.5" fill="#F1F3F5"/>
<path d="M31.593 14.9588V22.0371H30.7635L26.9064 16.4796H26.8373V22.0371H25.9802V14.9588H26.8097L30.6806 20.5302H30.7497V14.9588H31.593ZM35.4233 22.1477C34.9118 22.1477 34.4706 22.0348 34.0996 21.809C33.731 21.5809 33.4464 21.2629 33.2459 20.8551C33.0478 20.445 32.9487 19.968 32.9487 19.4242C32.9487 18.8805 33.0478 18.4012 33.2459 17.9865C33.4464 17.5694 33.7252 17.2445 34.0823 17.0118C34.4418 16.7768 34.8611 16.6593 35.3404 16.6593C35.6169 16.6593 35.8899 16.7054 36.1595 16.7975C36.4291 16.8897 36.6745 17.0395 36.8957 17.2468C37.1169 17.4519 37.2931 17.7238 37.4245 18.0625C37.5558 18.4012 37.6215 18.8182 37.6215 19.3136V19.6593H33.5294V18.9542H36.792C36.792 18.6547 36.7321 18.3874 36.6123 18.1524C36.4948 17.9173 36.3266 17.7319 36.1077 17.5959C35.8911 17.46 35.6353 17.392 35.3404 17.392C35.0155 17.392 34.7344 17.4726 34.4971 17.6339C34.2621 17.7929 34.0812 18.0003 33.9545 18.256C33.8277 18.5118 33.7644 18.786 33.7644 19.0786V19.5487C33.7644 19.9496 33.8335 20.2894 33.9717 20.5682C34.1123 20.8447 34.307 21.0556 34.5558 21.2007C34.8047 21.3436 35.0939 21.415 35.4233 21.415C35.6376 21.415 35.8312 21.385 36.004 21.3251C36.1791 21.2629 36.33 21.1708 36.4567 21.0486C36.5835 20.9242 36.6814 20.7698 36.7505 20.5855L37.5385 20.8067C37.4556 21.074 37.3162 21.309 37.1203 21.5118C36.9245 21.7122 36.6825 21.8689 36.3945 21.9818C36.1065 22.0924 35.7828 22.1477 35.4233 22.1477ZM40.065 22.0371L38.4475 16.7284H39.3046L40.4521 20.7929H40.5074L41.641 16.7284H42.512L43.6318 20.7791H43.6871L44.8345 16.7284H45.6917L44.0742 22.0371H43.2723L42.1111 17.9588H42.0281L40.8668 22.0371H40.065ZM49.6179 22.0371V14.9588H52.0096C52.5649 14.9588 53.0188 15.0591 53.3713 15.2595C53.7262 15.4577 53.9888 15.7261 54.1593 16.0648C54.3298 16.4035 54.4151 16.7814 54.4151 17.1984C54.4151 17.6155 54.3298 17.9945 54.1593 18.3355C53.9911 18.6765 53.7308 18.9484 53.3782 19.1512C53.0257 19.3517 52.5741 19.4519 52.0234 19.4519H50.3091V18.6915H51.9958C52.3759 18.6915 52.6812 18.6259 52.9116 18.4945C53.1421 18.3632 53.3091 18.1858 53.4128 17.9623C53.5188 17.7365 53.5718 17.4819 53.5718 17.1984C53.5718 16.915 53.5188 16.6616 53.4128 16.4381C53.3091 16.2146 53.1409 16.0395 52.9082 15.9127C52.6755 15.7837 52.3667 15.7192 51.9819 15.7192H50.475V22.0371H49.6179ZM57.2474 22.1615C56.911 22.1615 56.6057 22.0982 56.3315 21.9714C56.0574 21.8424 55.8396 21.6569 55.6783 21.415C55.517 21.1708 55.4364 20.8758 55.4364 20.5302C55.4364 20.2261 55.4963 19.9795 55.6161 19.7906C55.7359 19.5993 55.8961 19.4496 56.0965 19.3413C56.297 19.233 56.5182 19.1523 56.7601 19.0994C57.0043 19.0441 57.2497 19.0003 57.4963 18.968C57.8189 18.9265 58.0804 18.8954 58.2808 18.8747C58.4836 18.8517 58.6311 18.8136 58.7232 18.7606C58.8177 18.7076 58.8649 18.6155 58.8649 18.4841V18.4565C58.8649 18.1155 58.7716 17.8505 58.585 17.6616C58.4006 17.4726 58.1207 17.3782 57.7451 17.3782C57.3557 17.3782 57.0504 17.4634 56.8292 17.6339C56.608 17.8044 56.4525 17.9865 56.3627 18.18L55.5885 17.9035C55.7267 17.5809 55.911 17.3298 56.1415 17.1501C56.3742 16.968 56.6276 16.8413 56.9018 16.7699C57.1783 16.6961 57.4502 16.6593 57.7175 16.6593C57.888 16.6593 58.0838 16.68 58.305 16.7215C58.5285 16.7607 58.744 16.8425 58.9513 16.9669C59.161 17.0913 59.335 17.2791 59.4732 17.5302C59.6115 17.7814 59.6806 18.1178 59.6806 18.5394V22.0371H58.8649V21.3182H58.8235C58.7682 21.4334 58.676 21.5567 58.547 21.688C58.4179 21.8194 58.2463 21.9311 58.032 22.0233C57.8177 22.1154 57.5562 22.1615 57.2474 22.1615ZM57.3719 21.4288C57.6944 21.4288 57.9663 21.3655 58.1875 21.2387C58.411 21.112 58.5792 20.9484 58.6921 20.748C58.8073 20.5475 58.8649 20.3367 58.8649 20.1155V19.3689C58.8304 19.4104 58.7543 19.4484 58.6368 19.483C58.5216 19.5152 58.388 19.544 58.2359 19.5694C58.0861 19.5924 57.9398 19.6132 57.797 19.6316C57.6564 19.6477 57.5424 19.6616 57.4548 19.6731C57.2428 19.7007 57.0447 19.7457 56.8603 19.8079C56.6783 19.8678 56.5309 19.9588 56.4179 20.0809C56.3074 20.2007 56.2521 20.3643 56.2521 20.5717C56.2521 20.8551 56.3569 21.0694 56.5666 21.2145C56.7785 21.3574 57.047 21.4288 57.3719 21.4288ZM63.3122 24.1385C62.9182 24.1385 62.5795 24.0878 62.2961 23.9864C62.0127 23.8873 61.7765 23.756 61.5875 23.5924C61.4009 23.4311 61.2523 23.2583 61.1417 23.074L61.7915 22.6177C61.8652 22.7145 61.9585 22.8251 62.0714 22.9495C62.1843 23.0763 62.3387 23.1857 62.5345 23.2779C62.7327 23.3723 62.9919 23.4196 63.3122 23.4196C63.7407 23.4196 64.0944 23.3159 64.3732 23.1085C64.652 22.9012 64.7914 22.5763 64.7914 22.1339V21.0556H64.7223C64.6624 21.1523 64.5771 21.2721 64.4665 21.415C64.3582 21.5555 64.2016 21.6811 63.9965 21.7917C63.7937 21.9 63.5195 21.9542 63.1739 21.9542C62.7454 21.9542 62.3606 21.8528 62.0196 21.65C61.6809 21.4473 61.4124 21.1523 61.2143 20.7652C61.0184 20.3781 60.9205 19.9081 60.9205 19.3551C60.9205 18.8113 61.0161 18.3378 61.2074 17.9346C61.3986 17.5291 61.6647 17.2157 62.0057 16.9945C62.3467 16.771 62.7408 16.6593 63.1878 16.6593C63.5334 16.6593 63.8076 16.7169 64.0103 16.8321C64.2154 16.945 64.3721 17.074 64.4804 17.2192C64.591 17.362 64.6762 17.4796 64.7361 17.5717H64.8191V16.7284H65.6071V22.1892C65.6071 22.6454 65.5034 23.0164 65.296 23.3021C65.091 23.5901 64.8145 23.8009 64.4665 23.9346C64.1209 24.0705 63.7361 24.1385 63.3122 24.1385ZM63.2845 21.2214C63.6117 21.2214 63.8882 21.1466 64.114 20.9968C64.3398 20.847 64.5115 20.6316 64.629 20.3505C64.7465 20.0694 64.8052 19.733 64.8052 19.3413C64.8052 18.9588 64.7476 18.6212 64.6324 18.3286C64.5172 18.036 64.3467 17.8067 64.1209 17.6408C63.8951 17.4749 63.6163 17.392 63.2845 17.392C62.9389 17.392 62.6509 17.4796 62.4205 17.6547C62.1924 17.8298 62.0207 18.0648 61.9055 18.3597C61.7926 18.6547 61.7362 18.9818 61.7362 19.3413C61.7362 19.7099 61.7938 20.036 61.909 20.3194C62.0265 20.6005 62.1993 20.8217 62.4274 20.983C62.6578 21.142 62.9435 21.2214 63.2845 21.2214ZM69.3259 22.1477C68.8144 22.1477 68.3732 22.0348 68.0022 21.809C67.6336 21.5809 67.349 21.2629 67.1485 20.8551C66.9504 20.445 66.8513 19.968 66.8513 19.4242C66.8513 18.8805 66.9504 18.4012 67.1485 17.9865C67.349 17.5694 67.6278 17.2445 67.9849 17.0118C68.3444 16.7768 68.7637 16.6593 69.243 16.6593C69.5195 16.6593 69.7925 16.7054 70.0621 16.7975C70.3317 16.8897 70.5771 17.0395 70.7983 17.2468C71.0195 17.4519 71.1957 17.7238 71.3271 18.0625C71.4584 18.4012 71.5241 18.8182 71.5241 19.3136V19.6593H67.4319V18.9542H70.6946C70.6946 18.6547 70.6347 18.3874 70.5149 18.1524C70.3974 17.9173 70.2292 17.7319 70.0103 17.5959C69.7937 17.46 69.5379 17.392 69.243 17.392C68.9181 17.392 68.637 17.4726 68.3997 17.6339C68.1647 17.7929 67.9838 18.0003 67.8571 18.256C67.7303 18.5118 67.667 18.786 67.667 19.0786V19.5487C67.667 19.9496 67.7361 20.2894 67.8743 20.5682C68.0149 20.8447 68.2096 21.0556 68.4584 21.2007C68.7073 21.3436 68.9964 21.415 69.3259 21.415C69.5402 21.415 69.7338 21.385 69.9066 21.3251C70.0817 21.2629 70.2326 21.1708 70.3593 21.0486C70.4861 20.9242 70.584 20.7698 70.6531 20.5855L71.4411 20.8067C71.3582 21.074 71.2188 21.309 71.0229 21.5118C70.8271 21.7122 70.5851 21.8689 70.2971 21.9818C70.0091 22.0924 69.6854 22.1477 69.3259 22.1477Z" fill="#858E96"/>
<path d="M278 40.168C277.118 40.168 276.342 39.8607 275.672 39.2461C275.002 38.6315 274.667 37.7999 274.667 36.7513C274.667 36.0846 274.922 35.3607 275.432 34.5794C275.943 33.7982 276.719 32.9527 277.76 32.043C277.795 32.0152 277.833 31.9926 277.875 31.9753C277.917 31.9579 277.958 31.9492 278 31.9492C278.042 31.9492 278.083 31.9579 278.125 31.9753C278.167 31.9926 278.205 32.0152 278.239 32.043C279.281 32.9527 280.057 33.7982 280.568 34.5794C281.078 35.3607 281.333 36.0846 281.333 36.7513C281.333 37.7999 280.998 38.6315 280.328 39.2461C279.658 39.8607 278.882 40.168 278 40.168ZM278 39.543C278.764 39.543 279.406 39.2791 279.927 38.7513C280.448 38.2235 280.708 37.5569 280.708 36.7513C280.708 36.2027 280.477 35.5794 280.015 34.8815C279.554 34.1836 278.882 33.4457 278 32.668C277.118 33.4457 276.446 34.1836 275.984 34.8815C275.522 35.5794 275.292 36.2027 275.292 36.7513C275.292 37.5569 275.552 38.2235 276.073 38.7513C276.594 39.2791 277.236 39.543 278 39.543ZM277.989 38.8346C278.101 38.8346 278.186 38.8155 278.245 38.7773C278.304 38.7391 278.333 38.6819 278.333 38.6055C278.333 38.5291 278.304 38.4701 278.245 38.4284C278.186 38.3867 278.097 38.3659 277.979 38.3659C277.687 38.3659 277.39 38.2739 277.088 38.0898C276.786 37.9058 276.594 37.5812 276.51 37.1159C276.496 37.0534 276.465 37.003 276.417 36.9648C276.368 36.9266 276.316 36.9076 276.26 36.9076C276.184 36.9076 276.125 36.9371 276.083 36.9961C276.042 37.0551 276.028 37.1159 276.042 37.1784C276.146 37.7617 276.392 38.1836 276.781 38.444C277.17 38.7044 277.573 38.8346 277.989 38.8346Z" fill="#858E96"/>
</g>
<g filter="url(#filter1_d_1900_49885)">
<rect x="3" y="17" width="279" height="80" rx="5.5615" fill="white"/>
<rect x="14" y="45" width="103" height="10" rx="5" fill="#DEE2E6"/>
<rect x="14" y="62" width="230" height="7" rx="3.5" fill="#F1F3F5"/>
<rect x="14" y="76" width="230" height="7" rx="3.5" fill="#F1F3F5"/>
<path d="M20.593 28.9588V36.0371H19.7635L15.9064 30.4796H15.8373V36.0371H14.9802V28.9588H15.8097L19.6806 34.5302H19.7497V28.9588H20.593ZM24.4233 36.1477C23.9118 36.1477 23.4706 36.0348 23.0996 35.809C22.731 35.5809 22.4464 35.2629 22.2459 34.8551C22.0478 34.445 21.9487 33.968 21.9487 33.4242C21.9487 32.8805 22.0478 32.4012 22.2459 31.9865C22.4464 31.5694 22.7252 31.2445 23.0823 31.0118C23.4418 30.7768 23.8611 30.6593 24.3404 30.6593C24.6169 30.6593 24.8899 30.7054 25.1595 30.7975C25.4291 30.8897 25.6745 31.0395 25.8957 31.2468C26.1169 31.4519 26.2931 31.7238 26.4245 32.0625C26.5558 32.4012 26.6215 32.8182 26.6215 33.3136V33.6593H22.5294V32.9542H25.792C25.792 32.6547 25.7321 32.3874 25.6123 32.1524C25.4948 31.9173 25.3266 31.7319 25.1077 31.5959C24.8911 31.46 24.6353 31.392 24.3404 31.392C24.0155 31.392 23.7344 31.4726 23.4971 31.6339C23.2621 31.7929 23.0812 32.0003 22.9545 32.256C22.8277 32.5118 22.7644 32.786 22.7644 33.0786V33.5487C22.7644 33.9496 22.8335 34.2894 22.9717 34.5682C23.1123 34.8447 23.307 35.0556 23.5558 35.2007C23.8047 35.3436 24.0939 35.415 24.4233 35.415C24.6376 35.415 24.8312 35.385 25.004 35.3251C25.1791 35.2629 25.33 35.1708 25.4567 35.0486C25.5835 34.9242 25.6814 34.7698 25.7505 34.5855L26.5385 34.8067C26.4556 35.074 26.3162 35.309 26.1203 35.5118C25.9245 35.7122 25.6825 35.8689 25.3945 35.9818C25.1065 36.0924 24.7828 36.1477 24.4233 36.1477ZM29.065 36.0371L27.4475 30.7284H28.3046L29.4521 34.7929H29.5074L30.641 30.7284H31.512L32.6318 34.7791H32.6871L33.8345 30.7284H34.6917L33.0742 36.0371H32.2723L31.1111 31.9588H31.0281L29.8668 36.0371H29.065ZM38.6179 36.0371V28.9588H41.0096C41.5649 28.9588 42.0188 29.0591 42.3713 29.2595C42.7262 29.4577 42.9888 29.7261 43.1593 30.0648C43.3298 30.4035 43.4151 30.7814 43.4151 31.1984C43.4151 31.6155 43.3298 31.9945 43.1593 32.3355C42.9911 32.6765 42.7308 32.9484 42.3782 33.1512C42.0257 33.3517 41.5741 33.4519 41.0234 33.4519H39.3091V32.6915H40.9958C41.3759 32.6915 41.6812 32.6259 41.9116 32.4945C42.1421 32.3632 42.3091 32.1858 42.4128 31.9623C42.5188 31.7365 42.5718 31.4819 42.5718 31.1984C42.5718 30.915 42.5188 30.6616 42.4128 30.4381C42.3091 30.2146 42.1409 30.0395 41.9082 29.9127C41.6755 29.7837 41.3667 29.7192 40.9819 29.7192H39.475V36.0371H38.6179ZM46.2474 36.1615C45.911 36.1615 45.6057 36.0982 45.3315 35.9714C45.0574 35.8424 44.8396 35.6569 44.6783 35.415C44.517 35.1708 44.4364 34.8758 44.4364 34.5302C44.4364 34.2261 44.4963 33.9795 44.6161 33.7906C44.7359 33.5993 44.8961 33.4496 45.0965 33.3413C45.297 33.233 45.5182 33.1523 45.7601 33.0994C46.0043 33.0441 46.2497 33.0003 46.4963 32.968C46.8189 32.9265 47.0804 32.8954 47.2808 32.8747C47.4836 32.8517 47.6311 32.8136 47.7232 32.7606C47.8177 32.7076 47.8649 32.6155 47.8649 32.4841V32.4565C47.8649 32.1155 47.7716 31.8505 47.585 31.6616C47.4006 31.4726 47.1207 31.3782 46.7451 31.3782C46.3557 31.3782 46.0504 31.4634 45.8292 31.6339C45.608 31.8044 45.4525 31.9865 45.3627 32.18L44.5885 31.9035C44.7267 31.5809 44.911 31.3298 45.1415 31.1501C45.3742 30.968 45.6276 30.8413 45.9018 30.7699C46.1783 30.6961 46.4502 30.6593 46.7175 30.6593C46.888 30.6593 47.0838 30.68 47.305 30.7215C47.5285 30.7607 47.744 30.8425 47.9513 30.9669C48.161 31.0913 48.335 31.2791 48.4732 31.5302C48.6115 31.7814 48.6806 32.1178 48.6806 32.5394V36.0371H47.8649V35.3182H47.8235C47.7682 35.4334 47.676 35.5567 47.547 35.688C47.4179 35.8194 47.2463 35.9311 47.032 36.0233C46.8177 36.1154 46.5562 36.1615 46.2474 36.1615ZM46.3719 35.4288C46.6944 35.4288 46.9663 35.3655 47.1875 35.2387C47.411 35.112 47.5792 34.9484 47.6921 34.748C47.8073 34.5475 47.8649 34.3367 47.8649 34.1155V33.3689C47.8304 33.4104 47.7543 33.4484 47.6368 33.483C47.5216 33.5152 47.388 33.544 47.2359 33.5694C47.0861 33.5924 46.9398 33.6132 46.797 33.6316C46.6564 33.6477 46.5424 33.6616 46.4548 33.6731C46.2428 33.7007 46.0447 33.7457 45.8603 33.8079C45.6783 33.8678 45.5309 33.9588 45.4179 34.0809C45.3074 34.2007 45.2521 34.3643 45.2521 34.5717C45.2521 34.8551 45.3569 35.0694 45.5666 35.2145C45.7785 35.3574 46.047 35.4288 46.3719 35.4288ZM52.3122 38.1385C51.9182 38.1385 51.5795 38.0878 51.2961 37.9864C51.0127 37.8873 50.7765 37.756 50.5875 37.5924C50.4009 37.4311 50.2523 37.2583 50.1417 37.074L50.7915 36.6177C50.8652 36.7145 50.9585 36.8251 51.0714 36.9495C51.1843 37.0763 51.3387 37.1857 51.5345 37.2779C51.7327 37.3723 51.9919 37.4196 52.3122 37.4196C52.7407 37.4196 53.0944 37.3159 53.3732 37.1085C53.652 36.9012 53.7914 36.5763 53.7914 36.1339V35.0556H53.7223C53.6624 35.1523 53.5771 35.2721 53.4665 35.415C53.3582 35.5555 53.2016 35.6811 52.9965 35.7917C52.7937 35.9 52.5195 35.9542 52.1739 35.9542C51.7454 35.9542 51.3606 35.8528 51.0196 35.65C50.6809 35.4473 50.4124 35.1523 50.2143 34.7652C50.0184 34.3781 49.9205 33.9081 49.9205 33.3551C49.9205 32.8113 50.0161 32.3378 50.2074 31.9346C50.3986 31.5291 50.6647 31.2157 51.0057 30.9945C51.3467 30.771 51.7408 30.6593 52.1878 30.6593C52.5334 30.6593 52.8076 30.7169 53.0103 30.8321C53.2154 30.945 53.3721 31.074 53.4804 31.2192C53.591 31.362 53.6762 31.4796 53.7361 31.5717H53.8191V30.7284H54.6071V36.1892C54.6071 36.6454 54.5034 37.0164 54.296 37.3021C54.091 37.5901 53.8145 37.8009 53.4665 37.9346C53.1209 38.0705 52.7361 38.1385 52.3122 38.1385ZM52.2845 35.2214C52.6117 35.2214 52.8882 35.1466 53.114 34.9968C53.3398 34.847 53.5115 34.6316 53.629 34.3505C53.7465 34.0694 53.8052 33.733 53.8052 33.3413C53.8052 32.9588 53.7476 32.6212 53.6324 32.3286C53.5172 32.036 53.3467 31.8067 53.1209 31.6408C52.8951 31.4749 52.6163 31.392 52.2845 31.392C51.9389 31.392 51.6509 31.4796 51.4205 31.6547C51.1924 31.8298 51.0207 32.0648 50.9055 32.3597C50.7926 32.6547 50.7362 32.9818 50.7362 33.3413C50.7362 33.7099 50.7938 34.036 50.909 34.3194C51.0265 34.6005 51.1993 34.8217 51.4274 34.983C51.6578 35.142 51.9435 35.2214 52.2845 35.2214ZM58.3259 36.1477C57.8144 36.1477 57.3732 36.0348 57.0022 35.809C56.6336 35.5809 56.349 35.2629 56.1485 34.8551C55.9504 34.445 55.8513 33.968 55.8513 33.4242C55.8513 32.8805 55.9504 32.4012 56.1485 31.9865C56.349 31.5694 56.6278 31.2445 56.9849 31.0118C57.3444 30.7768 57.7637 30.6593 58.243 30.6593C58.5195 30.6593 58.7925 30.7054 59.0621 30.7975C59.3317 30.8897 59.5771 31.0395 59.7983 31.2468C60.0195 31.4519 60.1957 31.7238 60.3271 32.0625C60.4584 32.4012 60.5241 32.8182 60.5241 33.3136V33.6593H56.4319V32.9542H59.6946C59.6946 32.6547 59.6347 32.3874 59.5149 32.1524C59.3974 31.9173 59.2292 31.7319 59.0103 31.5959C58.7937 31.46 58.5379 31.392 58.243 31.392C57.9181 31.392 57.637 31.4726 57.3997 31.6339C57.1647 31.7929 56.9838 32.0003 56.8571 32.256C56.7303 32.5118 56.667 32.786 56.667 33.0786V33.5487C56.667 33.9496 56.7361 34.2894 56.8743 34.5682C57.0149 34.8447 57.2096 35.0556 57.4584 35.2007C57.7073 35.3436 57.9964 35.415 58.3259 35.415C58.5402 35.415 58.7338 35.385 58.9066 35.3251C59.0817 35.2629 59.2326 35.1708 59.3593 35.0486C59.4861 34.9242 59.584 34.7698 59.6531 34.5855L60.4411 34.8067C60.3582 35.074 60.2188 35.309 60.0229 35.5118C59.8271 35.7122 59.5851 35.8689 59.2971 35.9818C59.0091 36.0924 58.6854 36.1477 58.3259 36.1477Z" fill="#858E96"/>
<path d="M267 54.168C266.118 54.168 265.342 53.8607 264.672 53.2461C264.002 52.6315 263.667 51.7999 263.667 50.7513C263.667 50.0846 263.922 49.3607 264.432 48.5794C264.943 47.7982 265.719 46.9527 266.76 46.043C266.795 46.0152 266.833 45.9926 266.875 45.9753C266.917 45.9579 266.958 45.9492 267 45.9492C267.042 45.9492 267.083 45.9579 267.125 45.9753C267.167 45.9926 267.205 46.0152 267.239 46.043C268.281 46.9527 269.057 47.7982 269.568 48.5794C270.078 49.3607 270.333 50.0846 270.333 50.7513C270.333 51.7999 269.998 52.6315 269.328 53.2461C268.658 53.8607 267.882 54.168 267 54.168ZM267 53.543C267.764 53.543 268.406 53.2791 268.927 52.7513C269.448 52.2235 269.708 51.5569 269.708 50.7513C269.708 50.2027 269.477 49.5794 269.015 48.8815C268.554 48.1836 267.882 47.4457 267 46.668C266.118 47.4457 265.446 48.1836 264.984 48.8815C264.522 49.5794 264.292 50.2027 264.292 50.7513C264.292 51.5569 264.552 52.2235 265.073 52.7513C265.594 53.2791 266.236 53.543 267 53.543ZM266.989 52.8346C267.101 52.8346 267.186 52.8155 267.245 52.7773C267.304 52.7391 267.333 52.6819 267.333 52.6055C267.333 52.5291 267.304 52.4701 267.245 52.4284C267.186 52.3867 267.097 52.3659 266.979 52.3659C266.687 52.3659 266.39 52.2739 266.088 52.0898C265.786 51.9058 265.594 51.5812 265.51 51.1159C265.496 51.0534 265.465 51.003 265.417 50.9648C265.368 50.9266 265.316 50.9076 265.26 50.9076C265.184 50.9076 265.125 50.9371 265.083 50.9961C265.042 51.0551 265.028 51.1159 265.042 51.1784C265.146 51.7617 265.392 52.1836 265.781 52.444C266.17 52.7044 266.573 52.8346 266.989 52.8346Z" fill="#858E96"/>
</g>
<defs>
<filter id="filter0_d_1900_49885" x="11.2193" y="0.219251" width="284.561" height="85.5615" filterUnits="userSpaceOnUse" color-interpolation-filters="sRGB">
<feFlood flood-opacity="0" result="BackgroundImageFix"/>
<feColorMatrix in="SourceAlpha" type="matrix" values="0 0 0 0 0 0 0 0 0 0 0 0 0 0 0 0 0 0 127 0" result="hardAlpha"/>
<feOffset/>
<feGaussianBlur stdDeviation="1.39037"/>
<feComposite in2="hardAlpha" operator="out"/>
<feColorMatrix type="matrix" values="0 0 0 0 0 0 0 0 0 0 0 0 0 0 0 0 0 0 0.2 0"/>
<feBlend mode="normal" in2="BackgroundImageFix" result="effect1_dropShadow_1900_49885"/>
<feBlend mode="normal" in="SourceGraphic" in2="effect1_dropShadow_1900_49885" result="shape"/>
</filter>
<filter id="filter1_d_1900_49885" x="0.219251" y="14.2193" width="284.561" height="85.5615" filterUnits="userSpaceOnUse" color-interpolation-filters="sRGB">
<feFlood flood-opacity="0" result="BackgroundImageFix"/>
<feColorMatrix in="SourceAlpha" type="matrix" values="0 0 0 0 0 0 0 0 0 0 0 0 0 0 0 0 0 0 127 0" result="hardAlpha"/>
<feOffset/>
<feGaussianBlur stdDeviation="1.39037"/>
<feComposite in2="hardAlpha" operator="out"/>
<feColorMatrix type="matrix" values="0 0 0 0 0 0 0 0 0 0 0 0 0 0 0 0 0 0 0.2 0"/>
<feBlend mode="normal" in2="BackgroundImageFix" result="effect1_dropShadow_1900_49885"/>
<feBlend mode="normal" in="SourceGraphic" in2="effect1_dropShadow_1900_49885" result="shape"/>
</filter>
</defs>
</svg>
