<svg width="98" height="121" viewBox="0 0 98 121" fill="none" xmlns="http://www.w3.org/2000/svg">
<path d="M14.8707 74.5375C16.3076 72.9545 18.6808 73.4171 20.2598 74.5344C22.2919 75.9722 22.873 78.598 23.1728 80.9255C23.6803 84.8657 23.8304 90.4355 28.2986 92.0828C30.363 92.8439 32.7261 92.2154 34.4697 90.9796C36.3742 89.6297 37.5622 87.5534 38.3579 85.4014C39.3213 82.796 39.879 80.0089 40.3517 77.2785C40.8351 74.4863 41.1519 71.664 41.2941 68.8338C41.4333 66.0649 41.3427 63.3142 41.2327 60.5471C41.1467 58.3866 41.1139 56.1179 41.8437 54.052C42.5808 51.9655 44.2945 50.3785 46.5478 50.1692C48.7349 49.966 50.9875 50.8883 52.57 52.3768C56.3668 55.9484 56.5454 61.7791 57.3941 66.5679C57.8399 69.084 58.4917 71.63 59.8579 73.819C60.9816 75.6193 62.5432 77.1286 64.3419 78.2484C67.9699 80.507 72.5929 81.1661 76.6187 79.6144C80.5491 78.0995 83.713 74.7878 85.082 70.8073C85.4201 69.8243 85.6289 68.8088 85.7348 67.7756C85.7841 67.2952 85.0326 67.2986 84.9838 67.7756C84.5336 72.1666 81.7151 76.1433 77.8526 78.2259C73.8783 80.3689 69.0654 80.097 65.1824 77.8754C63.2735 76.7832 61.6129 75.2427 60.4591 73.364C59.0598 71.0857 58.4606 68.4301 58.0247 65.8227C57.2373 61.1135 56.8802 55.7066 53.3508 52.0908C50.6136 49.2866 45.5767 48.1613 42.635 51.2848C39.6059 54.501 40.5139 59.682 40.6106 63.6745C40.7523 69.5217 40.1494 75.3825 38.8131 81.0769C38.2314 83.5555 37.5623 86.1115 36.1024 88.2369C34.7681 90.1793 32.5875 91.6848 30.1594 91.6609C27.7378 91.637 26.0364 89.8572 25.1768 87.7354C24.2698 85.4969 24.2104 83.0793 23.8965 80.7163C23.6084 78.5472 23.0835 76.1467 21.4568 74.5592C20.1918 73.3248 18.3152 72.5301 16.5348 72.814C15.6794 72.9505 14.9208 73.3661 14.3396 74.0064C14.0153 74.3636 14.5449 74.8963 14.8707 74.5375Z" fill="#3F76FF"/>
<path d="M55.4847 43.7299H38.3499C37.9179 43.7299 37.5664 43.3784 37.5664 42.9464C37.5664 42.5144 37.9179 42.1631 38.3499 42.1631H55.4847C55.9167 42.1631 56.268 42.5144 56.268 42.9464C56.268 43.3784 55.9167 43.7299 55.4847 43.7299Z" fill="#D4D4D4"/>
<path d="M81.9847 89.2958H64.8499C64.4179 89.2958 64.0664 88.9443 64.0664 88.5123C64.0664 88.0803 64.4179 87.729 64.8499 87.729H81.9847C82.4167 87.729 82.768 88.0803 82.768 88.5123C82.768 88.9443 82.4167 89.2958 81.9847 89.2958Z" fill="#D4D4D4"/>
<path d="M96.0159 120.34H78.8811C78.4491 120.34 78.0977 119.989 78.0977 119.557C78.0977 119.125 78.4491 118.773 78.8811 118.773H96.0159C96.4479 118.773 96.7993 119.125 96.7993 119.557C96.7993 119.989 96.4479 120.34 96.0159 120.34Z" fill="#D4D4D4"/>
<path d="M17.9183 26.7069H0.78347C0.351487 26.7069 0 26.3554 0 25.9235C0 25.4915 0.351492 25.1401 0.78347 25.1401H17.9183C18.3503 25.1401 18.7016 25.4915 18.7016 25.9235C18.7016 26.3554 18.3503 26.7069 17.9183 26.7069Z" fill="#D4D4D4"/>
<path d="M87.2283 111.248H9.56712C9.29059 111.248 9.06641 111.023 9.06641 110.747V36.6409C9.06641 36.3641 9.2906 36.1401 9.56712 36.1401C9.84364 36.1401 10.0678 36.3641 10.0678 36.6409V66.8782C10.0678 90.8296 29.4843 110.246 53.4358 110.246H87.2283C87.5048 110.246 87.729 110.47 87.729 110.747C87.729 111.024 87.5048 111.248 87.2283 111.248Z" fill="#D4D4D4"/>
<path d="M25.9613 81.4652H8.82644C8.39446 81.4652 8.04297 81.1137 8.04297 80.6817C8.04297 80.2498 8.39446 79.8984 8.82644 79.8984H25.9613C26.3932 79.8984 26.7446 80.2498 26.7446 80.6817C26.7446 81.1137 26.3932 81.4652 25.9613 81.4652Z" fill="#D4D4D4"/>
<path d="M14.8118 76.6085C16.0562 76.6085 17.065 75.5997 17.065 74.3553C17.065 73.1109 16.0562 72.1021 14.8118 72.1021C13.5674 72.1021 12.5586 73.1109 12.5586 74.3553C12.5586 75.5997 13.5674 76.6085 14.8118 76.6085Z" fill="#2E2E2E"/>
<path d="M29.8431 94.1349C31.0875 94.1349 32.0963 93.1261 32.0963 91.8816C32.0963 90.6372 31.0875 89.6284 29.8431 89.6284C28.5986 89.6284 27.5898 90.6372 27.5898 91.8816C27.5898 93.1261 28.5986 94.1349 29.8431 94.1349Z" fill="#2E2E2E"/>
<path d="M46.8587 52.0738C48.1031 52.0738 49.1119 51.065 49.1119 49.8206C49.1119 48.5762 48.1031 47.5674 46.8587 47.5674C45.6143 47.5674 44.6055 48.5762 44.6055 49.8206C44.6055 51.065 45.6143 52.0738 46.8587 52.0738Z" fill="#2E2E2E"/>
<path d="M71.9017 82.1178C73.1461 82.1178 74.1549 81.109 74.1549 79.8646C74.1549 78.6201 73.1461 77.6113 71.9017 77.6113C70.6572 77.6113 69.6484 78.6201 69.6484 79.8646C69.6484 81.109 70.6572 82.1178 71.9017 82.1178Z" fill="#2E2E2E"/>
<path d="M86.4368 70.1007C87.6812 70.1007 88.69 69.0919 88.69 67.8475C88.69 66.603 87.6812 65.5942 86.4368 65.5942C85.1924 65.5942 84.1836 66.603 84.1836 67.8475C84.1836 69.0919 85.1924 70.1007 86.4368 70.1007Z" fill="#2E2E2E"/>
<path d="M82.1267 20.0406L86.2476 21.9926C84.5574 19.6339 83.101 15.95 82.3213 13.0186C81.0011 15.7492 78.873 19.0903 76.7664 21.0861L81.1217 19.9656C78.438 33.1184 68.3439 42.5608 56.7847 42.5608L56.6211 43.0359C68.6949 43.0359 79.3865 33.7244 82.1267 20.0406Z" fill="#2E2E2E"/>
<path d="M69.6669 0H95.7042C96.8085 0 97.707 0.8985 97.707 2.00286C97.707 3.10723 96.8085 4.00573 95.7042 4.00573H69.6669C68.5626 4.00573 67.6641 3.10723 67.6641 2.00286C67.6641 0.8985 68.5626 0 69.6669 0Z" fill="#3F76FF"/>
<path d="M87.2735 115.346C86.999 115.346 86.722 115.285 86.4582 115.162C85.8076 114.856 85.399 114.245 85.3658 113.527L85.0959 107.706C85.0612 106.958 85.4514 106.278 86.1144 105.931C86.7772 105.584 87.5586 105.651 88.153 106.105L92.1177 109.137C92.5944 109.502 92.8668 110.055 92.8648 110.655C92.8631 111.255 92.5873 111.806 92.1084 112.168L88.4136 114.958C88.0726 115.215 87.6757 115.346 87.2735 115.346Z" fill="#D4D4D4"/>
<path d="M14.2019 37.1274C14.2019 37.402 14.1407 37.679 14.017 37.9428C13.7114 38.5934 13.1002 39.0019 12.3824 39.0352L6.56105 39.3051C5.8134 39.3398 5.13372 38.9496 4.78654 38.2865C4.43937 37.6237 4.50684 36.8423 4.96062 36.248L7.99279 32.2833C8.35708 31.8066 8.9106 31.5342 9.51009 31.5361C10.1106 31.5379 10.6616 31.8136 11.0235 32.2926L13.8131 35.9873C14.0703 36.3284 14.2019 36.7252 14.2019 37.1274Z" fill="#D4D4D4"/>
<path d="M46.6797 31.9702C43.7154 31.2601 40.5482 31.9028 38.0143 33.5767C35.3571 35.332 33.5978 38.1427 33.0023 41.2566C31.7737 47.6809 35.5272 54.0986 41.4594 56.6556C47.6955 59.3435 55.114 57.5399 59.6426 52.5512C61.8873 50.0785 63.2901 46.9504 63.7125 43.6423C64.1286 40.3835 63.654 36.6235 61.6807 33.9037C59.7234 31.2058 56.464 30.3005 53.3163 29.8584C50.262 29.4294 46.2102 29.2429 44.5587 32.4757C44.2438 33.0921 44.0958 33.7563 44.1307 34.4476C44.155 34.9286 44.9062 34.9315 44.8818 34.4476C44.8055 32.9361 45.8132 31.6731 47.1049 30.9938C48.6018 30.2065 50.4074 30.2731 52.04 30.4486C54.9873 30.7654 58.3335 31.3306 60.459 33.5942C62.5762 35.8491 63.2109 39.2854 63.0795 42.2786C62.9423 45.4028 61.8658 48.4778 59.9796 50.9765C56.2574 55.9072 49.7451 58.253 43.754 56.6601C37.9165 55.1081 37.8402 51.6438 37.9365 45.5088C37.9879 42.2359 34.8963 37.0842 37.4205 34.9513C39.8919 32.8631 43.3172 31.9368 46.4801 32.6944C46.9499 32.807 47.1503 32.0829 46.6797 31.9702Z" fill="#3F76FF"/>
</svg>
