<svg width="236" height="53" viewBox="0 0 236 53" fill="none" xmlns="http://www.w3.org/2000/svg">
<path d="M195.448 46.8071H100.383C99.8783 46.8065 99.3948 46.6059 99.0382 46.2494C98.6816 45.8928 98.481 45.4093 98.4805 44.905V26.987H99.2413V44.905C99.2416 45.2076 99.362 45.4977 99.5759 45.7116C99.7899 45.9256 100.08 46.0459 100.383 46.0463H195.448C195.75 46.0459 196.04 45.9256 196.254 45.7116C196.468 45.4977 196.589 45.2076 196.589 44.905V26.8618H197.35V44.905C197.349 45.4093 197.149 45.8928 196.792 46.2494C196.435 46.6059 195.952 46.8065 195.448 46.8071Z" fill="#262626"/>
<path d="M229.943 26.606H6.55078V27.3668H229.943V26.606Z" fill="#262626"/>
<path d="M6.54403 33.4724C10.1582 33.4724 13.0881 30.5425 13.0881 26.9283C13.0881 23.3141 10.1582 20.3843 6.54403 20.3843C2.92986 20.3843 0 23.3141 0 26.9283C0 30.5425 2.92986 33.4724 6.54403 33.4724Z" fill="#3F76FF"/>
<path d="M73.0636 33.4724C76.6777 33.4724 79.6076 30.5425 79.6076 26.9283C79.6076 23.3141 76.6777 20.3843 73.0636 20.3843C69.4494 20.3843 66.5195 23.3141 66.5195 26.9283C66.5195 30.5425 69.4494 33.4724 73.0636 33.4724Z" fill="#3F76FF"/>
<path d="M118.189 52.7062C121.803 52.7062 124.733 49.7764 124.733 46.1622C124.733 42.548 121.803 39.6182 118.189 39.6182C114.574 39.6182 111.645 42.548 111.645 46.1622C111.645 49.7764 114.574 52.7062 118.189 52.7062Z" fill="#262626"/>
<path d="M152.493 52.7062C156.107 52.7062 159.037 49.7764 159.037 46.1622C159.037 42.548 156.107 39.6182 152.493 39.6182C148.879 39.6182 145.949 42.548 145.949 46.1622C145.949 49.7764 148.879 52.7062 152.493 52.7062Z" fill="#D4D4D4"/>
<path d="M135.853 33.4724C139.467 33.4724 142.397 30.5425 142.397 26.9283C142.397 23.3141 139.467 20.3843 135.853 20.3843C132.238 20.3843 129.309 23.3141 129.309 26.9283C129.309 30.5425 132.238 33.4724 135.853 33.4724Z" fill="#3F76FF"/>
<path d="M229.009 33.4724C232.623 33.4724 235.553 30.5425 235.553 26.9283C235.553 23.3141 232.623 20.3843 229.009 20.3843C225.395 20.3843 222.465 23.3141 222.465 26.9283C222.465 30.5425 225.395 33.4724 229.009 33.4724Z" fill="#3F76FF"/>
<path d="M196.962 33.4724C200.576 33.4724 203.506 30.5425 203.506 26.9283C203.506 23.3141 200.576 20.3843 196.962 20.3843C193.348 20.3843 190.418 23.3141 190.418 26.9283C190.418 30.5425 193.348 33.4724 196.962 33.4724Z" fill="#3F76FF"/>
<path d="M26.8335 27.3682C26.7327 27.3682 26.6359 27.3281 26.5646 27.2568C26.4932 27.1855 26.4531 27.0887 26.4531 26.9878V8.20924C26.4537 7.70495 26.6543 7.22148 27.0109 6.86489C27.3675 6.5083 27.8509 6.30771 28.3552 6.30713H46.8723C46.9731 6.30713 47.0699 6.34721 47.1413 6.41856C47.2126 6.4899 47.2527 6.58666 47.2527 6.68755C47.2527 6.78845 47.2126 6.88521 47.1413 6.95656C47.0699 7.0279 46.9731 7.06798 46.8723 7.06798H28.3552C28.0527 7.06831 27.7626 7.18865 27.5486 7.40261C27.3346 7.61657 27.2143 7.90666 27.214 8.20924V26.9878C27.214 27.0887 27.1739 27.1855 27.1025 27.2568C27.0312 27.3281 26.9344 27.3682 26.8335 27.3682Z" fill="#262626"/>
<path d="M47.7433 13.0881C51.3574 13.0881 54.2873 10.1582 54.2873 6.54404C54.2873 2.92987 51.3574 0 47.7433 0C44.1291 0 41.1992 2.92987 41.1992 6.54404C41.1992 10.1582 44.1291 13.0881 47.7433 13.0881Z" fill="#D4D4D4"/>
<path d="M173.319 26.9878H172.559V8.20924C172.559 7.70495 172.76 7.22148 173.116 6.86489C173.473 6.5083 173.956 6.30771 174.461 6.30713H192.978V7.06798H174.461C174.158 7.06831 173.868 7.18865 173.654 7.40261C173.44 7.61657 173.32 7.90666 173.319 8.20924V26.9878Z" fill="#262626"/>
<path d="M193.806 13.0881C197.42 13.0881 200.35 10.1582 200.35 6.54404C200.35 2.92987 197.42 0 193.806 0C190.192 0 187.262 2.92987 187.262 6.54404C187.262 10.1582 190.192 13.0881 193.806 13.0881Z" fill="#D4D4D4"/>
</svg>
