<svg width="100" height="100" viewBox="0 0 100 100" fill="none" xmlns="http://www.w3.org/2000/svg">
<path d="M18.75 87.5C17.0833 87.5 15.625 86.875 14.375 85.625C13.125 84.375 12.5 82.9167 12.5 81.25V26.7708C12.5 25.7292 12.6042 24.8438 12.8125 24.1146C13.0208 23.3854 13.4028 22.7083 13.9583 22.0833L19.7917 14.1667C20.3472 13.5417 20.9896 13.1076 21.7188 12.8646C22.4479 12.6215 23.312 12.5 24.311 12.5H75.689C76.688 12.5 77.5347 12.6215 78.2292 12.8646C78.9236 13.1076 79.5486 13.5417 80.1042 14.1667L86.0417 22.0833C86.5972 22.7083 86.9792 23.3854 87.1875 24.1146C87.3958 24.8438 87.5 25.7292 87.5 26.7708V81.25C87.5 82.9167 86.875 84.375 85.625 85.625C84.375 86.875 82.9167 87.5 81.25 87.5H18.75ZM20.5208 23.5417H79.375L75.5824 18.75H24.2708L20.5208 23.5417ZM18.75 29.7917V81.25H81.25V29.7917H18.75ZM50 71.875L66.25 55.625L62.0833 51.4583L53.125 60.4167V39.4792H46.875V60.4167L37.9167 51.4583L33.75 55.625L50 71.875Z" fill="#ACB5BD"/>
</svg>
