<svg width="28" height="28" viewBox="0 0 28 28" fill="none" xmlns="http://www.w3.org/2000/svg">
<path d="M13.3704 21.7617C11.349 21.5892 9.64994 20.7655 8.27325 19.2907C6.89653 17.816 6.20817 16.0515 6.20817 13.9974C6.20817 11.8239 6.96342 9.98197 8.47392 8.47148C9.98441 6.96098 11.8264 6.20573 13.9998 6.20573C16.0539 6.20573 17.8184 6.89181 19.2932 8.26397C20.768 9.63613 21.5916 11.3402 21.7642 13.3762L20.0506 12.8449C19.7825 11.3974 19.0895 10.1969 17.9714 9.24335C16.8532 8.28984 15.5294 7.81308 13.9998 7.81308C12.2835 7.81308 10.8237 8.4147 9.62039 9.61795C8.41714 10.8212 7.81552 12.281 7.81552 13.9974C7.81552 15.5157 8.29456 16.8389 9.25262 17.9668C10.2107 19.0946 11.4089 19.793 12.8474 20.0618L13.3704 21.7617ZM13.9998 27.4557C12.1381 27.4557 10.3885 27.1024 8.75109 26.396C7.11366 25.6896 5.68932 24.7308 4.47807 23.5198C3.26682 22.3088 2.30791 20.8847 1.60135 19.2475C0.894785 17.6104 0.541504 15.8611 0.541504 13.9997C0.541504 12.1383 0.894726 10.3887 1.60117 8.75084C2.30762 7.11296 3.26634 5.68825 4.47736 4.47669C5.6884 3.26511 7.11249 2.30594 8.74964 1.59919C10.3868 0.89244 12.136 0.539062 13.9974 0.539062C15.8588 0.539062 17.6085 0.892345 19.2463 1.59891C20.8842 2.30547 22.3089 3.26438 23.5205 4.47563C24.7321 5.68688 25.6912 7.11122 26.398 8.74865C27.1047 10.3861 27.4581 12.1356 27.4581 13.9974C27.4581 14.1735 27.4545 14.3497 27.4472 14.5259C27.4399 14.702 27.4245 14.8782 27.4009 15.0544L25.8508 14.5804V13.9974C25.8508 10.6991 24.7002 7.89934 22.399 5.59816C20.0978 3.297 17.2981 2.14641 13.9998 2.14641C10.7015 2.14641 7.90178 3.297 5.6006 5.59816C3.29944 7.89934 2.14885 10.6991 2.14885 13.9974C2.14885 17.2956 3.29944 20.0954 5.6006 22.3966C7.90178 24.6977 10.7015 25.8483 13.9998 25.8483H14.5828L15.0704 27.3984C14.892 27.422 14.7136 27.4375 14.5351 27.4448C14.3567 27.452 14.1783 27.4557 13.9998 27.4557ZM25.156 27.284L19.1079 21.2223L18.0999 24.2953C18.0033 24.555 17.8256 24.679 17.567 24.6672C17.3084 24.6554 17.1437 24.5196 17.0728 24.2599L14.2831 14.94C14.2214 14.7366 14.265 14.5604 14.4139 14.4115C14.5628 14.2625 14.739 14.219 14.9424 14.2807L24.2759 17.0704C24.5266 17.1412 24.6578 17.306 24.6696 17.5646C24.6814 17.8232 24.562 17.9963 24.3113 18.0838L21.2247 19.1055L27.2864 25.1536C27.3954 25.2592 27.4499 25.3837 27.4499 25.527C27.4499 25.6704 27.3954 25.7965 27.2864 25.9055L25.9079 27.284C25.8023 27.393 25.6778 27.4474 25.5344 27.4474C25.3911 27.4474 25.265 27.393 25.156 27.284Z" fill="#9FBBFF"/>
</svg>
