<svg width="24" height="24" viewBox="0 0 24 24" fill="none" xmlns="http://www.w3.org/2000/svg">
<path d="M10.0597 15.0236L7.25244 12.2163C7.08057 12.0444 6.8705 11.9585 6.62223 11.9585C6.37397 11.9585 6.15435 12.054 5.96338 12.245C5.77241 12.4359 5.67692 12.6555 5.67692 12.9038C5.67692 13.1521 5.77241 13.3621 5.96338 13.534L9.45817 17.0288C9.63004 17.2007 9.83057 17.2866 10.0597 17.2866C10.2889 17.2866 10.4894 17.2007 10.6613 17.0288L17.5363 10.1538C17.7082 9.98193 17.7893 9.77186 17.7798 9.5236C17.7702 9.27534 17.6795 9.06527 17.5076 8.89339C17.3358 8.70242 17.1209 8.60693 16.8631 8.60693C16.6053 8.60693 16.3809 8.70242 16.1899 8.89339L10.0597 15.0236ZM11.7498 23.8752C10.1266 23.8752 8.61789 23.5839 7.2238 23.0015C5.8297 22.419 4.61702 21.6121 3.58577 20.5809C2.55452 19.5496 1.74767 18.337 1.1652 16.9429C0.582737 15.5488 0.291504 14.0401 0.291504 12.4168C0.291504 10.8127 0.582737 9.31353 1.1652 7.91943C1.74767 6.52534 2.55452 5.31266 3.58577 4.28141C4.61702 3.25016 5.8297 2.43853 7.2238 1.84652C8.61789 1.2545 10.1266 0.958496 11.7498 0.958496C13.354 0.958496 14.8531 1.2545 16.2472 1.84652C17.6413 2.43853 18.854 3.25016 19.8853 4.28141C20.9165 5.31266 21.7281 6.52534 22.3201 7.91943C22.9122 9.31353 23.2082 10.8127 23.2082 12.4168C23.2082 14.0401 22.9122 15.5488 22.3201 16.9429C21.7281 18.337 20.9165 19.5496 19.8853 20.5809C18.854 21.6121 17.6413 22.419 16.2472 23.0015C14.8531 23.5839 13.354 23.8752 11.7498 23.8752ZM11.7498 22.1564C14.5189 22.1564 16.8345 21.2254 18.6965 19.3634C20.5584 17.5015 21.4894 15.1859 21.4894 12.4168C21.4894 9.64773 20.5584 7.33219 18.6965 5.47021C16.8345 3.60824 14.5189 2.67725 11.7498 2.67725C8.98074 2.67725 6.6652 3.60824 4.80322 5.47021C2.94124 7.33219 2.01025 9.64773 2.01025 12.4168C2.01025 15.1859 2.94124 17.5015 4.80322 19.3634C6.6652 21.2254 8.98074 22.1564 11.7498 22.1564Z" fill="url(#paint0_linear_688_1436)"/>
<defs>
<linearGradient id="paint0_linear_688_1436" x1="11.7498" y1="0.958496" x2="11.7498" y2="23.8752" gradientUnits="userSpaceOnUse">
<stop stop-color="#05C3FF"/>
<stop offset="1" stop-color="#3F76FF"/>
</linearGradient>
</defs>
</svg>
