<svg width="56" height="44" viewBox="0 0 56 44" fill="none" xmlns="http://www.w3.org/2000/svg">
<path d="M47.4372 3.66969C43.7647 1.93284 39.8795 0.698737 35.8842 0C35.3865 0.909407 34.8051 2.13256 34.4041 3.10565C30.0965 2.45095 25.8285 2.45095 21.6 3.10565C21.1993 2.13278 20.6047 0.909407 20.1025 0C16.1033 0.699059 12.2147 1.93631 8.54042 3.67875C1.22892 14.8466 -0.753172 25.7367 0.237766 36.4727C5.08723 40.1331 9.78686 42.3567 14.4073 43.8118C15.5556 42.2157 16.5707 40.5259 17.442 38.7598C15.7831 38.1214 14.1838 37.3347 12.6632 36.409C13.0634 36.1092 13.4541 35.7968 13.8348 35.4722C23.049 39.8284 33.0608 39.8284 42.1651 35.4722C42.5475 35.7946 42.9381 36.107 43.3365 36.409C41.8135 37.3371 40.2113 38.1254 38.549 38.7644C39.4253 40.5377 40.4385 42.2292 41.5837 43.8163C46.2085 42.3614 50.9125 40.1377 55.762 36.4727C56.9249 24.0271 53.7757 13.2367 47.4372 3.66947V3.66969ZM18.6974 29.8703C15.9313 29.8703 13.6629 27.2601 13.6629 24.0817C13.6629 20.9033 15.883 18.2887 18.6974 18.2887C21.5121 18.2887 23.7803 20.8987 23.732 24.0817C23.7363 27.2601 21.5121 29.8703 18.6974 29.8703ZM37.3023 29.8703C34.5362 29.8703 32.268 27.2601 32.268 24.0817C32.268 20.9033 34.4879 18.2887 37.3023 18.2887C40.117 18.2887 42.3852 20.8987 42.3369 24.0817C42.3369 27.2601 40.117 29.8703 37.3023 29.8703Z" fill="white"/>
</svg>
