<svg width="133" height="103" viewBox="0 0 133 103" fill="none" xmlns="http://www.w3.org/2000/svg">
<path d="M112.663 8.59041C103.941 4.52461 94.7137 1.63568 85.2249 0C84.043 2.12884 82.6621 4.99214 81.7098 7.27004C71.4791 5.73746 61.3426 5.73746 51.3 7.27004C50.3483 4.99265 48.9362 2.12884 47.7433 0C38.2452 1.63643 29.0099 4.53272 20.2835 8.61163C2.91869 34.7545 -1.78878 60.2472 0.564694 85.3792C12.0822 93.9479 23.2438 99.1533 34.2173 102.56C36.9445 98.8231 39.3553 94.8674 41.4248 90.7332C37.4848 89.2388 33.6865 87.3972 30.0751 85.2302C31.0255 84.5284 31.9535 83.797 32.8577 83.0372C54.7414 93.2347 78.5193 93.2347 100.142 83.0372C101.05 83.792 101.978 84.5233 102.924 85.2302C99.3071 87.4028 95.5017 89.2482 91.5538 90.744C93.6351 94.8951 96.0415 98.8546 98.7613 102.57C109.745 99.1642 120.917 93.9588 132.435 85.3792C135.197 56.2452 127.717 30.9859 112.663 8.58989V8.59041ZM44.4064 69.9235C37.8369 69.9235 32.4494 63.8134 32.4494 56.3731C32.4494 48.9328 37.7221 42.8123 44.4064 42.8123C51.0912 42.8123 56.4782 48.9219 56.3634 56.3731C56.3738 63.8134 51.0912 69.9235 44.4064 69.9235ZM88.593 69.9235C82.0236 69.9235 76.6365 63.8134 76.6365 56.3731C76.6365 48.9328 81.9087 42.8123 88.593 42.8123C95.2778 42.8123 100.665 48.9219 100.55 56.3731C100.55 63.8134 95.2778 69.9235 88.593 69.9235Z" fill="#6D8AF5"/>
</svg>
