<svg width="114" height="111" viewBox="0 0 114 111" fill="none" xmlns="http://www.w3.org/2000/svg">
<path d="M57.0007 0.333496C49.5591 0.333496 42.1904 1.79922 35.3153 4.64699C28.4401 7.49476 22.1933 11.6688 16.9313 16.9308C6.30421 27.5578 0.333984 41.9712 0.333984 57.0002C0.333984 82.0468 16.5973 103.297 39.094 110.834C41.9273 111.287 42.834 109.53 42.834 108V98.4235C27.1373 101.824 23.794 90.8302 23.794 90.8302C21.1873 84.2568 17.504 82.5002 17.504 82.5002C12.3473 78.9868 17.9007 79.1002 17.9007 79.1002C23.5673 79.4968 26.5707 84.9368 26.5707 84.9368C31.5007 93.5502 39.8307 91.0002 43.0607 89.6402C43.5707 85.9568 45.044 83.4635 46.6307 82.0468C34.0507 80.6302 20.8473 75.7568 20.8473 54.1668C20.8473 47.8768 23.0007 42.8335 26.684 38.8102C26.1173 37.3935 24.134 31.5002 27.2507 23.8502C27.2507 23.8502 32.0107 22.3202 42.834 29.6302C47.3107 28.3835 52.184 27.7602 57.0007 27.7602C61.8173 27.7602 66.6907 28.3835 71.1673 29.6302C81.9907 22.3202 86.7507 23.8502 86.7507 23.8502C89.8673 31.5002 87.884 37.3935 87.3173 38.8102C91.0007 42.8335 93.154 47.8768 93.154 54.1668C93.154 75.8135 79.894 80.5735 67.2573 81.9902C69.2973 83.7468 71.1673 87.2035 71.1673 92.4735V108C71.1673 109.53 72.074 111.344 74.964 110.834C97.4607 103.24 113.667 82.0468 113.667 57.0002C113.667 49.5586 112.202 42.1899 109.354 35.3148C106.506 28.4397 102.332 22.1928 97.07 16.9308C91.8081 11.6688 85.5612 7.49476 78.6861 4.64699C71.8109 1.79922 64.4422 0.333496 57.0007 0.333496Z" fill="white"/>
</svg>
