<svg width="53" height="43" viewBox="0 0 53 43" fill="none" xmlns="http://www.w3.org/2000/svg">
<path d="M52.2812 5.76271C50.3471 6.60313 48.3006 7.15682 46.2065 7.40627C48.4073 6.11761 50.0623 4.07035 50.8611 1.64846C48.7805 2.86511 46.5079 3.71877 44.1408 4.17287C43.144 3.12822 41.9453 2.29718 40.6173 1.73025C39.2894 1.16332 37.86 0.87235 36.4161 0.875018C30.5702 0.875018 25.8394 5.53713 25.8394 11.2842C25.8352 12.0836 25.9268 12.8806 26.1122 13.6582C21.9203 13.4617 17.8155 12.3923 14.0605 10.5186C10.3055 8.64476 6.98304 6.00781 4.30557 2.77638C3.36624 4.35991 2.86948 6.16667 2.86719 8.00783C2.86719 11.6172 4.75029 14.8076 7.59375 16.6768C5.90908 16.6368 4.25894 16.1909 2.7834 15.377V15.5059C2.7834 20.5547 6.43574 24.7549 11.2697 25.711C10.3607 25.9533 9.42397 26.0761 8.4832 26.0762C7.81566 26.0774 7.14963 26.0126 6.49482 25.8828C7.83867 30.0186 11.7499 33.0264 16.383 33.1123C12.6183 36.0137 7.99617 37.5819 3.24316 37.5703C2.39949 37.5691 1.5566 37.5189 0.71875 37.4199C5.554 40.5075 11.1746 42.1406 16.9115 42.125C36.3936 42.125 47.0369 26.2588 47.0369 12.4981C47.0369 12.0469 47.0251 11.5957 47.0036 11.1553C49.0694 9.68582 50.8566 7.85971 52.2812 5.76271Z" fill="white"/>
</svg>
