<svg width="1512" height="944" viewBox="0 0 1512 944" fill="none" xmlns="http://www.w3.org/2000/svg">
<path d="M0 456.5L1512 456.5M502.5 -21L502.5 965M0 936.5L1512 936.5M22.5 -21L22.4998 965M0 426.5L1512 426.5M532.5 -21L532.5 965M982.5 -21L982.5 965M0 906.5L1512 906.5M52.5 -21L52.4998 965M0 396.5L1512 396.5M562.5 -21L562.5 965M1012.5 -21L1012.5 965M0 876.5L1512 876.5M82.5 -21L82.4998 965M0 366.5L1512 366.5M592.5 -21L592.5 965M1042.5 -21L1042.5 965M0 846.5L1512 846.5M112.5 -21L112.5 965M0 336.5L1512 336.5M622.5 -21L622.5 965M1072.5 -21L1072.5 965M0 816.5L1512 816.5M142.5 -21L142.5 965M0 306.5L1512 306.5M652.5 -21L652.5 965M1102.5 -21L1102.5 965M0 786.5L1512 786.5M172.5 -21L172.5 965M0 276.5L1512 276.5M682.5 -21L682.5 965M1132.5 -21L1132.5 965M0 756.5L1512 756.5M202.5 -21L202.5 965M0 246.5L1512 246.5M712.5 -21L712.5 965M1162.5 -21L1162.5 965M0 726.5L1512 726.5M232.5 -21L232.5 965M0 216.5L1512 216.5M742.5 -21L742.5 965M1192.5 -21L1192.5 965M0 696.5L1512 696.5M262.5 -21L262.5 965M0 186.5L1512 186.5M772.5 -21L772.5 965M1222.5 -21L1222.5 965M1432.5 -21L1432.5 965M0 666.5L1512 666.5M292.5 -21L292.5 965M0 156.5L1512 156.5M802.5 -21L802.5 965M1252.5 -21L1252.5 965M1462.5 -21L1462.5 965M0 636.5L1512 636.5M322.5 -21L322.5 965M0 126.5L1512 126.5M832.5 -21L832.5 965M1282.5 -21L1282.5 965M1492.5 -21L1492.5 965M0 606.5L1512 606.5M352.5 -21L352.5 965M0 96.5L1512 96.5001M862.5 -21L862.5 965M1312.5 -21L1312.5 965M0 576.5L1512 576.5M382.5 -21L382.5 965M0 66.5L1512 66.5001M892.5 -21L892.5 965M1342.5 -21L1342.5 965M0 546.5L1512 546.5M412.5 -21L412.5 965M0 36.5L1512 36.5001M922.5 -21L922.5 965M1372.5 -21L1372.5 965M0 516.5L1512 516.5M442.5 -21L442.5 965M0 6.5L1512 6.50013M952.5 -21L952.5 965M1402.5 -21L1402.5 965M0 486.5L1512 486.5M472.5 -21L472.5 965" stroke="url(#paint0_radial_253_24256)"/>
<rect x="443" y="217" width="29" height="29" fill="#004EFF" fill-opacity="0.02"/>
<rect x="1073" y="607" width="29" height="29" fill="#004EFF" fill-opacity="0.04"/>
<rect x="1043" y="367" width="29" height="29" fill="#004EFF" fill-opacity="0.02"/>
<rect x="1073" y="397" width="29" height="29" fill="#004EFF" fill-opacity="0.02"/>
<rect x="533" y="337" width="29" height="29" fill="#004EFF" fill-opacity="0.04"/>
<rect x="563" y="217" width="29" height="29" fill="#004EFF" fill-opacity="0.02"/>
<rect x="473" y="397" width="29" height="29" fill="#004EFF" fill-opacity="0.04"/>
<rect x="473" y="607" width="29" height="29" fill="#004EFF" fill-opacity="0.04"/>
<rect x="413" y="577" width="29" height="29" fill="#004EFF" fill-opacity="0.04"/>
<rect x="623" y="247" width="29" height="29" fill="#004EFF" fill-opacity="0.02"/>
<rect x="683" y="667" width="29" height="29" fill="#004EFF" fill-opacity="0.02"/>
<rect x="713" y="697" width="29" height="29" fill="#004EFF" fill-opacity="0.02"/>
<rect x="653" y="637" width="29" height="29" fill="#004EFF" fill-opacity="0.02"/>
<rect x="743" y="247" width="29" height="29" fill="#004EFF" fill-opacity="0.04"/>
<rect x="803" y="667" width="29" height="29" fill="#004EFF" fill-opacity="0.04"/>
<rect x="893" y="277" width="29" height="29" fill="#004EFF" fill-opacity="0.02"/>
<rect x="953" y="337" width="29" height="29" fill="#004EFF" fill-opacity="0.02"/>
<rect x="983" y="247" width="29" height="29" fill="#004EFF" fill-opacity="0.04"/>
<rect x="1193" y="427" width="29" height="29" fill="#004EFF" fill-opacity="0.04"/>
<rect x="1193" y="337" width="29" height="29" fill="#004EFF" fill-opacity="0.02"/>
<rect x="1163" y="397" width="29" height="29" fill="#004EFF" fill-opacity="0.02"/>
<rect x="1103" y="607" width="29" height="29" fill="#004EFF" fill-opacity="0.02"/>
<rect x="1073" y="577" width="29" height="29" fill="#004EFF" fill-opacity="0.02"/>
<rect x="413" y="247" width="29" height="29" fill="#004EFF" fill-opacity="0.04"/>
<rect x="1043" y="427" width="29" height="29" fill="#004EFF" fill-opacity="0.04"/>
<rect x="1163" y="517" width="29" height="29" fill="#004EFF" fill-opacity="0.04"/>
<rect x="323" y="427" width="29" height="29" fill="#004EFF" fill-opacity="0.02"/>
<rect x="953" y="667" width="29" height="29" fill="#004EFF" fill-opacity="0.02"/>
<rect x="383" y="487" width="29" height="29" fill="#004EFF" fill-opacity="0.02"/>
<rect x="263" y="337" width="29" height="29" fill="#004EFF" fill-opacity="0.02"/>
<rect x="503" y="547" width="29" height="29" fill="#004EFF" fill-opacity="0.02"/>
<rect x="443" y="607" width="29" height="29" fill="#004EFF" fill-opacity="0.02"/>
<rect x="653" y="667" width="29" height="29" fill="#004EFF" fill-opacity="0.02"/>
<rect x="983" y="547" width="29" height="29" fill="#004EFF" fill-opacity="0.02"/>
<rect x="503" y="277" width="29" height="29" fill="#004EFF" fill-opacity="0.04"/>
<defs>
<radialGradient id="paint0_radial_253_24256" cx="0" cy="0" r="1" gradientUnits="userSpaceOnUse" gradientTransform="translate(756 439) rotate(90) scale(505 999.67)">
<stop stop-color="#F7F8FA"/>
<stop offset="0.916756" stop-color="white"/>
</radialGradient>
</defs>
</svg>


