<svg width="210" height="206" viewBox="0 0 210 206" fill="none" xmlns="http://www.w3.org/2000/svg">
<circle cx="107.5" cy="103" r="102.5" fill="#F3F6FF"/>
<path d="M140.625 162.125V148.875C138.868 148.875 137.183 148.177 135.94 146.935C134.698 145.692 134 144.007 134 142.25V135.625C134 132.111 135.396 128.741 137.881 126.256C140.366 123.771 143.736 122.375 147.25 122.375H160.5C164.014 122.375 167.384 123.771 169.869 126.256C172.354 128.741 173.75 132.111 173.75 135.625V142.25C173.75 144.007 173.052 145.692 171.81 146.935C170.567 148.177 168.882 148.875 167.125 148.875" stroke="#3E63DD" stroke-width="8" stroke-linecap="round" stroke-linejoin="round"/>
<path d="M153.875 122.375V66.0625C153.875 59.9128 151.432 54.015 147.084 49.6665C142.735 45.318 136.837 42.875 130.687 42.875C124.538 42.875 118.64 45.318 114.291 49.6665C109.943 54.015 107.5 59.9128 107.5 66.0625M107.5 138.937C107.5 145.087 105.057 150.985 100.709 155.334C96.36 159.682 90.4622 162.125 84.3125 162.125C78.1628 162.125 72.265 159.682 67.9165 155.334C63.568 150.985 61.125 145.087 61.125 138.937V82.625" stroke="#3E63DD" stroke-width="8" stroke-linecap="round" stroke-linejoin="round"/>
<path d="M167.125 162.125V148.875H140.625" stroke="#3E63DD" stroke-width="8" stroke-linecap="round" stroke-linejoin="round"/>
<path d="M47.875 56.125H74.375V42.875" stroke="#3E63DD" stroke-width="8" stroke-linecap="round" stroke-linejoin="round"/>
<path d="M74.375 56.125C76.1321 56.125 77.8172 56.823 79.0596 58.0654C80.302 59.3078 81 60.9929 81 62.75V69.375C81 72.8891 79.604 76.2593 77.1192 78.7442C74.6343 81.229 71.2641 82.625 67.75 82.625H54.5C50.9859 82.625 47.6157 81.229 45.1308 78.7442C42.646 76.2593 41.25 72.8891 41.25 69.375V62.75C41.25 60.9929 41.948 59.3078 43.1904 58.0654C44.4328 56.823 46.1179 56.125 47.875 56.125V42.875" stroke="#3E63DD" stroke-width="8" stroke-linecap="round" stroke-linejoin="round"/>
<g filter="url(#filter0_ddd_11424_265422)">
<circle cx="107.911" cy="102.911" r="23.7938" fill="#3A5BC7"/>
<path d="M114.051 96.7712L101.771 109.052" stroke="white" stroke-width="4" stroke-linecap="round" stroke-linejoin="round"/>
<path d="M101.771 96.7712L114.051 109.052" stroke="white" stroke-width="4" stroke-linecap="round" stroke-linejoin="round"/>
</g>
<defs>
<filter id="filter0_ddd_11424_265422" x="76.1172" y="74.1177" width="63.5879" height="64.5876" filterUnits="userSpaceOnUse" color-interpolation-filters="sRGB">
<feFlood flood-opacity="0" result="BackgroundImageFix"/>
<feColorMatrix in="SourceAlpha" type="matrix" values="0 0 0 0 0 0 0 0 0 0 0 0 0 0 0 0 0 0 127 0" result="hardAlpha"/>
<feMorphology radius="2" operator="erode" in="SourceAlpha" result="effect1_dropShadow_11424_265422"/>
<feOffset dy="2"/>
<feGaussianBlur stdDeviation="1.5"/>
<feComposite in2="hardAlpha" operator="out"/>
<feColorMatrix type="matrix" values="0 0 0 0 0 0 0 0 0 0 0 0 0 0 0.24 0 0 0 0.051 0"/>
<feBlend mode="normal" in2="BackgroundImageFix" result="effect1_dropShadow_11424_265422"/>
<feColorMatrix in="SourceAlpha" type="matrix" values="0 0 0 0 0 0 0 0 0 0 0 0 0 0 0 0 0 0 127 0" result="hardAlpha"/>
<feMorphology radius="4" operator="erode" in="SourceAlpha" result="effect2_dropShadow_11424_265422"/>
<feOffset dy="3"/>
<feGaussianBlur stdDeviation="6"/>
<feComposite in2="hardAlpha" operator="out"/>
<feColorMatrix type="matrix" values="0 0 0 0 0 0 0 0 0 0 0 0 0 0 0 0 0 0 0.055 0"/>
<feBlend mode="normal" in2="effect1_dropShadow_11424_265422" result="effect2_dropShadow_11424_265422"/>
<feColorMatrix in="SourceAlpha" type="matrix" values="0 0 0 0 0 0 0 0 0 0 0 0 0 0 0 0 0 0 127 0" result="hardAlpha"/>
<feMorphology radius="8" operator="erode" in="SourceAlpha" result="effect3_dropShadow_11424_265422"/>
<feOffset dy="4"/>
<feGaussianBlur stdDeviation="8"/>
<feComposite in2="hardAlpha" operator="out"/>
<feColorMatrix type="matrix" values="0 0 0 0 0 0 0 0 0 0 0 0 0 0 0 0 0 0 0.078 0"/>
<feBlend mode="normal" in2="effect2_dropShadow_11424_265422" result="effect3_dropShadow_11424_265422"/>
<feBlend mode="normal" in="SourceGraphic" in2="effect3_dropShadow_11424_265422" result="shape"/>
</filter>
</defs>
</svg>
