<svg width="98" height="98" viewBox="0 0 98 98" fill="none" xmlns="http://www.w3.org/2000/svg">
<circle cx="49" cy="49" r="49" fill="#F8F9FA"/>
<mask id="path-2-inside-1_6556_126703" fill="white">
<path d="M80.1834 49.8925C80.1834 66.6217 66.6217 80.1834 49.8925 80.1834C33.1633 80.1834 19.6016 66.6217 19.6016 49.8925C19.6016 33.1633 33.1633 19.6016 49.8925 19.6016C66.6217 19.6016 80.1834 33.1633 80.1834 49.8925ZM28.6804 49.8925C28.6804 61.6076 38.1774 71.1045 49.8925 71.1045C61.6076 71.1045 71.1045 61.6076 71.1045 49.8925C71.1045 38.1774 61.6076 28.6804 49.8925 28.6804C38.1774 28.6804 28.6804 38.1774 28.6804 49.8925Z"/>
</mask>
<path d="M80.1834 49.8925C80.1834 66.6217 66.6217 80.1834 49.8925 80.1834C33.1633 80.1834 19.6016 66.6217 19.6016 49.8925C19.6016 33.1633 33.1633 19.6016 49.8925 19.6016C66.6217 19.6016 80.1834 33.1633 80.1834 49.8925ZM28.6804 49.8925C28.6804 61.6076 38.1774 71.1045 49.8925 71.1045C61.6076 71.1045 71.1045 61.6076 71.1045 49.8925C71.1045 38.1774 61.6076 28.6804 49.8925 28.6804C38.1774 28.6804 28.6804 38.1774 28.6804 49.8925Z" fill="#DEE2E6" stroke="#F8F9FA" stroke-width="0.482269" mask="url(#path-2-inside-1_6556_126703)"/>
<mask id="path-3-inside-2_6556_126703" fill="white">
<path d="M49.8925 19.6016C54.9789 19.6016 59.9834 20.8824 64.4444 23.3259C68.9054 25.7695 72.6793 29.297 75.4179 33.5832C78.1565 37.8694 79.7717 42.7762 80.1145 47.851C80.4573 52.9259 79.5167 58.0053 77.3793 62.6209C75.242 67.2364 71.9768 71.2394 67.8849 74.2607C63.793 77.282 59.0062 79.2242 53.9661 79.9082C48.9259 80.5922 43.7946 79.9961 39.0455 78.1746C34.2964 76.3532 30.0824 73.3652 26.7922 69.4863L33.7159 63.6136C36.0199 66.3299 38.9709 68.4223 42.2966 69.6978C45.6222 70.9733 49.2156 71.3908 52.7451 70.9118C56.2746 70.4328 59.6267 69.0727 62.4922 66.957C65.3576 64.8413 67.6442 62.038 69.1409 58.8059C70.6376 55.5737 71.2963 52.0167 71.0563 48.4629C70.8162 44.9091 69.6851 41.473 67.7673 38.4715C65.8495 35.4699 63.2068 32.9997 60.0829 31.2885C56.9589 29.5774 53.4544 28.6804 49.8925 28.6804V19.6016Z"/>
</mask>
<path d="M49.8925 19.6016C54.9789 19.6016 59.9834 20.8824 64.4444 23.3259C68.9054 25.7695 72.6793 29.297 75.4179 33.5832C78.1565 37.8694 79.7717 42.7762 80.1145 47.851C80.4573 52.9259 79.5167 58.0053 77.3793 62.6209C75.242 67.2364 71.9768 71.2394 67.8849 74.2607C63.793 77.282 59.0062 79.2242 53.9661 79.9082C48.9259 80.5922 43.7946 79.9961 39.0455 78.1746C34.2964 76.3532 30.0824 73.3652 26.7922 69.4863L33.7159 63.6136C36.0199 66.3299 38.9709 68.4223 42.2966 69.6978C45.6222 70.9733 49.2156 71.3908 52.7451 70.9118C56.2746 70.4328 59.6267 69.0727 62.4922 66.957C65.3576 64.8413 67.6442 62.038 69.1409 58.8059C70.6376 55.5737 71.2963 52.0167 71.0563 48.4629C70.8162 44.9091 69.6851 41.473 67.7673 38.4715C65.8495 35.4699 63.2068 32.9997 60.0829 31.2885C56.9589 29.5774 53.4544 28.6804 49.8925 28.6804V19.6016Z" fill="#ACB5BD" stroke="#F8F9FA" stroke-width="0.482269" mask="url(#path-3-inside-2_6556_126703)"/>
<mask id="path-4-inside-3_6556_126703" fill="white">
<path d="M49.8925 19.6016C57.6608 19.6016 65.1322 22.5861 70.7625 27.9384C76.3928 33.2907 79.7516 40.6016 80.1446 48.36C80.5376 56.1184 77.9349 63.7312 72.8743 69.6251C67.8137 75.5189 60.6821 79.2433 52.9536 80.0283C45.225 80.8134 37.4902 78.5991 31.3478 73.8432C25.2055 69.0873 21.1251 62.1532 19.9501 54.4743C18.775 46.7953 20.5952 38.9584 25.0342 32.5833C29.4733 26.2082 36.192 21.7823 43.8017 20.2202L45.6272 29.1137C40.2983 30.2075 35.5934 33.3069 32.4848 37.7713C29.3762 42.2356 28.1016 47.7236 28.9245 53.101C29.7474 58.4784 32.6047 63.3341 36.9061 66.6646C41.2074 69.9951 46.6239 71.5457 52.0361 70.9959C57.4482 70.4462 62.4423 67.8381 65.9861 63.7108C69.5299 59.5834 71.3526 54.2523 71.0773 48.8193C70.8021 43.3863 68.4501 38.2666 64.5073 34.5186C60.5645 30.7705 55.3325 28.6804 49.8925 28.6804V19.6016Z"/>
</mask>
<path d="M49.8925 19.6016C57.6608 19.6016 65.1322 22.5861 70.7625 27.9384C76.3928 33.2907 79.7516 40.6016 80.1446 48.36C80.5376 56.1184 77.9349 63.7312 72.8743 69.6251C67.8137 75.5189 60.6821 79.2433 52.9536 80.0283C45.225 80.8134 37.4902 78.5991 31.3478 73.8432C25.2055 69.0873 21.1251 62.1532 19.9501 54.4743C18.775 46.7953 20.5952 38.9584 25.0342 32.5833C29.4733 26.2082 36.192 21.7823 43.8017 20.2202L45.6272 29.1137C40.2983 30.2075 35.5934 33.3069 32.4848 37.7713C29.3762 42.2356 28.1016 47.7236 28.9245 53.101C29.7474 58.4784 32.6047 63.3341 36.9061 66.6646C41.2074 69.9951 46.6239 71.5457 52.0361 70.9959C57.4482 70.4462 62.4423 67.8381 65.9861 63.7108C69.5299 59.5834 71.3526 54.2523 71.0773 48.8193C70.8021 43.3863 68.4501 38.2666 64.5073 34.5186C60.5645 30.7705 55.3325 28.6804 49.8925 28.6804V19.6016Z" fill="#CED4DA" stroke="#F8F9FA" stroke-width="0.482269" mask="url(#path-4-inside-3_6556_126703)"/>
<mask id="path-5-inside-4_6556_126703" fill="white">
<path d="M49.8925 19.6016C57.9261 19.6016 65.6307 22.7929 71.3114 28.4736C76.992 34.1542 80.1834 41.8588 80.1834 49.8925C80.1834 57.9261 76.992 65.6307 71.3114 71.3114C65.6307 76.992 57.9261 80.1834 49.8925 80.1834V71.1045C55.5183 71.1045 60.9136 68.8697 64.8916 64.8916C68.8697 60.9136 71.1045 55.5183 71.1045 49.8925C71.1045 44.2667 68.8697 38.8713 64.8916 34.8933C60.9136 30.9153 55.5183 28.6804 49.8925 28.6804V19.6016Z"/>
</mask>
<path d="M49.8925 19.6016C57.9261 19.6016 65.6307 22.7929 71.3114 28.4736C76.992 34.1542 80.1834 41.8588 80.1834 49.8925C80.1834 57.9261 76.992 65.6307 71.3114 71.3114C65.6307 76.992 57.9261 80.1834 49.8925 80.1834V71.1045C55.5183 71.1045 60.9136 68.8697 64.8916 64.8916C68.8697 60.9136 71.1045 55.5183 71.1045 49.8925C71.1045 44.2667 68.8697 38.8713 64.8916 34.8933C60.9136 30.9153 55.5183 28.6804 49.8925 28.6804V19.6016Z" fill="#E9ECEF" stroke="#F8F9FA" stroke-width="0.482269" mask="url(#path-5-inside-4_6556_126703)"/>
<mask id="path-6-inside-5_6556_126703" fill="white">
<path d="M49.8925 19.6016C55.1376 19.6016 60.2927 20.9635 64.8534 23.5541C69.4141 26.1447 73.2239 29.8751 75.91 34.3802C78.596 38.8854 80.0662 44.0107 80.1767 49.2546C80.2871 54.4986 79.034 59.6813 76.54 64.2955L68.5531 59.9786C70.2996 56.7474 71.1771 53.118 71.0998 49.4458C71.0225 45.7736 69.9929 42.1844 68.1119 39.0296C66.231 35.8748 63.563 33.2624 60.3693 31.4483C57.1755 29.6342 53.5655 28.6804 49.8925 28.6804V19.6016Z"/>
</mask>
<path d="M49.8925 19.6016C55.1376 19.6016 60.2927 20.9635 64.8534 23.5541C69.4141 26.1447 73.2239 29.8751 75.91 34.3802C78.596 38.8854 80.0662 44.0107 80.1767 49.2546C80.2871 54.4986 79.034 59.6813 76.54 64.2955L68.5531 59.9786C70.2996 56.7474 71.1771 53.118 71.0998 49.4458C71.0225 45.7736 69.9929 42.1844 68.1119 39.0296C66.231 35.8748 63.563 33.2624 60.3693 31.4483C57.1755 29.6342 53.5655 28.6804 49.8925 28.6804V19.6016Z" fill="#DEE2E6" stroke="#F8F9FA" stroke-width="0.482269" mask="url(#path-6-inside-5_6556_126703)"/>
<mask id="path-7-inside-6_6556_126703" fill="white">
<path d="M49.8925 19.6016C56.3892 19.6016 62.7139 21.6904 67.9327 25.5596C73.1516 29.4289 76.9882 34.8736 78.8762 41.09L70.1891 43.7283C68.867 39.3751 66.1803 35.5623 62.5257 32.8527C58.871 30.1432 54.442 28.6804 49.8925 28.6804V19.6016Z"/>
</mask>
<path d="M49.8925 19.6016C56.3892 19.6016 62.7139 21.6904 67.9327 25.5596C73.1516 29.4289 76.9882 34.8736 78.8762 41.09L70.1891 43.7283C68.867 39.3751 66.1803 35.5623 62.5257 32.8527C58.871 30.1432 54.442 28.6804 49.8925 28.6804V19.6016Z" fill="#E9ECEF" stroke="#F8F9FA" stroke-width="0.482269" mask="url(#path-7-inside-6_6556_126703)"/>
</svg>
