<svg width="98" height="98" viewBox="0 0 98 98" fill="none" xmlns="http://www.w3.org/2000/svg">
<circle cx="49" cy="49" r="49" fill="#F8F9FA"/>
<path d="M48.8466 48.2283C55.6546 48.2283 61.1736 42.7093 61.1736 35.9013C61.1736 29.0932 55.6546 23.5742 48.8466 23.5742C42.0385 23.5742 36.5195 29.0932 36.5195 35.9013C36.5195 42.7093 42.0385 48.2283 48.8466 48.2283Z" fill="#E0E0E0"/>
<path d="M71.1877 68.4519C71.1877 63.3199 68.564 58.398 64.6869 54.7691C60.8098 51.1402 55.5514 49.1016 50.0683 49.1016C44.5853 49.1016 39.3268 51.1402 35.4497 54.7691C31.5727 58.398 29.3945 63.3199 29.3945 68.4519" fill="#B9BBC6"/>
<path d="M71.1877 68.4519C71.1877 63.3199 68.564 58.398 64.6869 54.7691C60.8098 51.1402 55.5514 49.1016 50.0683 49.1016C44.5853 49.1016 39.3268 51.1402 35.4497 54.7691C31.5727 58.398 29.3945 63.3199 29.3945 68.4519C32.1264 78.8118 67.0106 81.1231 71.1877 68.4519Z" stroke="#B9BBC6" stroke-width="2" stroke-linecap="round" stroke-linejoin="round"/>
<path d="M70.9144 66.4486C71.5691 69.0402 68.7363 72.3749 64.8592 74.514C60.9821 76.6531 56.3578 77.5195 50.8747 77.5195C45.3917 77.5195 40.1332 76.3178 36.2562 74.1787C32.2484 72.6698 28.1973 68.8746 30.2009 66.1133L50.8747 66.1133L70.9144 66.4486Z" fill="#B9BBC6"/>
</svg>
