<svg width="94" height="94" viewBox="0 0 94 94" fill="none" xmlns="http://www.w3.org/2000/svg">
<circle cx="46.7188" cy="46.7188" r="46.7188" fill="#F9F9FB"/>
<g clip-path="url(#clip0_6465_168324)">
<path d="M22.3683 30.8508L46.374 21.6169C47.6902 21.1106 49.1029 22.0889 49.0919 23.4991L49.0807 24.9392L48.5304 51.0826C48.5125 51.9323 47.9595 52.6779 47.1516 52.9418L27.2534 59.4394L23.7288 60.635C22.4318 61.075 21.0863 60.1106 21.0863 58.741L21.0863 32.7175C21.0863 31.89 21.5959 31.1479 22.3683 30.8508Z" fill="#E8E8EC"/>
<path d="M32.9995 38.1587L57.0052 28.9248C58.3214 28.4185 59.7342 29.3968 59.7232 30.807L59.712 32.2471L59.7119 57.5857C59.7119 58.4323 59.1789 59.1872 58.3811 59.4704L37.8846 66.7473L34.36 67.9429C33.0631 68.3829 31.7175 67.4185 31.7175 66.0489L31.7175 40.0254C31.7175 39.1979 32.2272 38.4558 32.9995 38.1587Z" fill="#D9D9E0"/>
<path d="M68.8117 65.0919C69.5835 64.795 70.0929 64.0537 70.0935 63.2267L70.1116 37.3209C70.1126 35.9167 68.7041 34.9487 67.3936 35.4528L43.3671 44.6948C42.5947 44.9919 42.0851 45.7339 42.0851 46.5615L42.0851 72.4629C42.0851 73.8666 43.4932 74.8336 44.8033 74.3295L68.8117 65.0919Z" fill="#B9BBC6"/>
</g>
<defs>
<clipPath id="clip0_6465_168324">
<rect width="69" height="69" fill="white" transform="translate(81 13) rotate(90)"/>
</clipPath>
</defs>
</svg>
