<svg width="748" height="813" viewBox="0 0 748 813" fill="none" xmlns="http://www.w3.org/2000/svg">
<g clip-path="url(#clip0_491_6452)">
<path d="M150.685 667.271C161.118 667.271 169.575 658.815 169.575 648.383C169.575 637.951 161.118 629.494 150.685 629.494C140.253 629.494 131.796 637.951 131.796 648.383C131.796 658.815 140.253 667.271 150.685 667.271Z" fill="#F0F0F0"/>
<path d="M115.725 670.654C123.044 670.654 128.976 664.722 128.976 657.404C128.976 650.086 123.044 644.154 115.725 644.154C108.407 644.154 102.475 650.086 102.475 657.404C102.475 664.722 108.407 670.654 115.725 670.654Z" fill="#F0F0F0"/>
<path d="M142.954 78.4899C151.345 78.4899 158.147 71.6884 158.147 63.2983C158.147 54.9082 151.345 48.1067 142.954 48.1067C134.564 48.1067 127.762 54.9082 127.762 63.2983C127.762 71.6884 134.564 78.4899 142.954 78.4899Z" fill="#CCCCCC"/>
<path d="M689.884 255.726C698.274 255.726 705.076 248.924 705.076 240.534C705.076 232.144 698.274 225.342 689.884 225.342C681.493 225.342 674.691 232.144 674.691 240.534C674.691 248.924 681.493 255.726 689.884 255.726Z" fill="#CCCCCC"/>
<path d="M167.009 350.673H141.688V375.992H167.009V350.673Z" fill="#CCCCCC"/>
<path d="M11.287 164.576H8.75488V0H170.808V2.53194H11.287V164.576Z" fill="#CCCCCC"/>
<path d="M748 164.576H745.468V2.53194H585.947V0H748V164.576Z" fill="#CCCCCC"/>
<path d="M11.287 303.832H8.75488V468.408H170.808V465.876H11.287V303.832Z" fill="#CCCCCC"/>
<path d="M748 303.832H745.468V465.876H585.947V468.408H748V303.832Z" fill="#CCCCCC"/>
<path d="M231.578 77.2241H54.332V79.7561H231.578V77.2241Z" fill="#CCCCCC"/>
<path d="M104.973 54.4365H102.441V77.8569H104.973V54.4365Z" fill="#CCCCCC"/>
<path d="M182.202 54.4365H179.67V77.8569H182.202V54.4365Z" fill="#CCCCCC"/>
<path d="M710.14 255.726H532.895V258.258H710.14V255.726Z" fill="#CCCCCC"/>
<path d="M583.536 232.938H581.004V256.358H583.536V232.938Z" fill="#CCCCCC"/>
<path d="M660.765 232.938H658.232V256.358H660.765V232.938Z" fill="#CCCCCC"/>
<path d="M242.972 374.726H65.7266V377.258H242.972V374.726Z" fill="#CCCCCC"/>
<path d="M116.368 351.939H113.836V375.359H116.368V351.939Z" fill="#CCCCCC"/>
<path d="M193.597 351.939H191.064V375.359H193.597V351.939Z" fill="#CCCCCC"/>
<path d="M375.769 529.726C414.925 529.726 446.668 522.358 446.668 513.269C446.668 504.18 414.925 496.811 375.769 496.811C336.613 496.811 304.871 504.18 304.871 513.269C304.871 522.358 336.613 529.726 375.769 529.726Z" fill="#3F3D56"/>
<path d="M432.648 677.22L364.281 682.275L364.468 684.799L432.835 679.744L432.648 677.22Z" fill="#CACACA"/>
<path d="M319.407 668.507L318.188 670.725L343.508 684.651L344.728 682.432L319.407 668.507Z" fill="#CACACA"/>
<path d="M390.962 659.488H368.173V662.02H390.962V659.488Z" fill="#CACACA"/>
<path d="M308.667 817.82L306.14 817.648L325.13 527.741L327.657 527.914L308.667 817.82Z" fill="#CACACA"/>
<path d="M402.358 817.796L389.697 550.677L392.227 550.553L404.887 817.672L402.358 817.796Z" fill="#CACACA"/>
<path d="M427.673 526.457L425.149 526.666L449.204 817.838L451.728 817.63L427.673 526.457Z" fill="#CACACA"/>
<path d="M347.917 817.764L345.385 817.704L352.981 550.584L355.513 550.645L347.917 817.764Z" fill="#CACACA"/>
<path d="M335.799 650.316L318.984 660.274L272.565 600.157L297.385 585.458L335.799 650.316Z" fill="#FFB6B6"/>
<path d="M349.742 664.075L295.521 696.187L295.115 695.501C291.8 689.904 290.844 683.22 292.458 676.919C294.071 670.617 298.122 665.215 303.719 661.899L303.72 661.898L336.837 642.286L349.742 664.075Z" fill="#2F2E41"/>
<path d="M417.006 650.316L433.821 660.274L480.239 600.157L455.421 585.458L417.006 650.316Z" fill="#FFB6B6"/>
<path d="M415.968 642.286L449.085 661.898L449.086 661.899C454.683 665.215 458.734 670.617 460.347 676.919C461.96 683.22 461.005 689.904 457.69 695.501L457.284 696.187L403.062 664.075L415.968 642.286Z" fill="#2F2E41"/>
<path d="M428.561 420.934C428.561 420.934 373.697 459.575 320.294 424.706L319.458 449.013C319.458 449.013 205.066 497.525 223.844 535.423C242.623 573.321 282.082 612.647 282.082 612.647L303.605 594.924L279.55 534.157L344.981 506.439L402.023 506.727L481.564 538.918L443.583 595.887L477.052 606.317C477.052 606.317 556.813 532.891 539.721 512.003C526.022 495.26 444.016 457.721 444.016 457.721L428.561 420.934Z" fill="#2F2E41"/>
<path d="M447.655 279.181L400.168 263.44L388.43 246.783H354.247L344.12 263.704L300.086 279.181C297.686 279.867 295.623 281.416 294.294 283.529C292.966 285.643 292.465 288.174 292.888 290.634L312.468 451.869L344.119 449.338C344.119 449.338 386.762 482.61 412.485 444.274L413.859 424.942L440.338 450.604L454.854 290.634C455.277 288.174 454.776 285.643 453.448 283.529C452.119 281.416 450.056 279.867 447.655 279.181Z" fill="#6C63FF"/>
<path d="M411.197 169.842C397.156 146.12 369.379 145.014 369.379 145.014C369.379 145.014 342.311 141.553 324.948 177.682C308.764 211.357 286.427 232.478 321.352 240.361L327.66 220.728L331.567 241.823C336.54 242.181 341.528 242.266 346.51 242.078C383.912 240.871 419.531 242.432 418.384 229.011C416.859 211.171 424.706 192.667 411.197 169.842Z" fill="#2F2E41"/>
<path d="M372.605 240.35C392.882 240.35 409.32 223.913 409.32 203.637C409.32 183.361 392.882 166.924 372.605 166.924C352.328 166.924 335.89 183.361 335.89 203.637C335.89 223.913 352.328 240.35 372.605 240.35Z" fill="#FFB8B8"/>
<path d="M406.255 166.289L378.812 151.915L340.916 157.795L333.075 192.423L352.592 191.673L358.045 178.951V191.464L367.052 191.117L372.278 170.863L375.546 192.423L407.563 191.77L406.255 166.289Z" fill="#2F2E41"/>
<path opacity="0.2" d="M315.229 313.96L343.715 425.354C343.715 425.354 330.422 327.886 315.229 313.96Z" fill="black"/>
<path opacity="0.2" d="M400.227 426.62L428.712 315.226C413.52 329.151 400.227 426.62 400.227 426.62Z" fill="black"/>
<path d="M406.861 523.935C408.395 523.124 409.734 521.987 410.782 520.604C411.829 519.22 412.561 517.624 412.925 515.927C413.289 514.23 413.277 512.474 412.888 510.783C412.5 509.091 411.746 507.505 410.679 506.137L436.539 435.412L416.744 425.335L393.273 504.511C391.092 506.456 389.701 509.134 389.363 512.036C389.025 514.938 389.764 517.864 391.439 520.258C393.114 522.652 395.609 524.349 398.451 525.026C401.293 525.704 404.286 525.316 406.861 523.935Z" fill="#FFB6B6"/>
<path d="M431.848 307.001L402.996 432.46C402.717 433.757 402.959 435.111 403.668 436.231C404.377 437.351 405.497 438.149 406.787 438.453L434.574 442.456C435.258 442.617 435.967 442.633 436.658 442.505C437.349 442.377 438.005 442.106 438.586 441.711C439.166 441.315 439.658 440.803 440.03 440.207C440.402 439.611 440.645 438.945 440.746 438.25L449.2 307.549L431.848 307.001Z" fill="#6C63FF"/>
<path d="M340.88 526.467C339.345 525.656 338.007 524.519 336.959 523.136C335.911 521.752 335.18 520.156 334.816 518.459C334.452 516.762 334.464 515.006 334.852 513.315C335.24 511.623 335.994 510.037 337.062 508.669L311.201 437.944L330.996 427.867L354.468 507.043C356.648 508.988 358.039 511.666 358.377 514.568C358.715 517.47 357.977 520.396 356.302 522.79C354.627 525.184 352.132 526.881 349.289 527.558C346.447 528.236 343.455 527.848 340.88 526.467Z" fill="#FFB6B6"/>
<path d="M315.892 309.533L344.745 434.992C345.023 436.289 344.782 437.643 344.073 438.763C343.364 439.883 342.244 440.681 340.953 440.985L313.167 444.988C312.483 445.149 311.773 445.165 311.082 445.037C310.392 444.909 309.735 444.638 309.155 444.243C308.574 443.847 308.083 443.335 307.711 442.739C307.339 442.143 307.095 441.477 306.995 440.782L296.009 310.081L315.892 309.533Z" fill="#6C63FF"/>
<path d="M635.059 687.141L636.005 685.792C652.256 697.201 664.111 722.581 671.24 761.225C674.499 779.274 676.455 797.535 677.093 815.865L675.444 815.897C675.425 814.879 673.021 713.794 635.059 687.141Z" fill="#E4E4E4"/>
<path d="M637.532 760.074L638.479 758.724C655.419 770.617 656.449 813.645 656.485 815.471L654.836 815.503C654.828 815.064 653.789 771.487 637.532 760.074Z" fill="#E4E4E4"/>
<path d="M625.64 686.466C630.193 686.466 633.883 682.776 633.883 678.223C633.883 673.671 630.193 669.98 625.64 669.98C621.087 669.98 617.396 673.671 617.396 678.223C617.396 682.776 621.087 686.466 625.64 686.466Z" fill="#E4E4E4"/>
<path d="M629.762 758.18C634.315 758.18 638.005 754.49 638.005 749.937C638.005 745.385 634.315 741.694 629.762 741.694C625.209 741.694 621.519 745.385 621.519 749.937C621.519 754.49 625.209 758.18 629.762 758.18Z" fill="#E4E4E4"/>
<path d="M666.778 675.144C669.398 681.022 670.262 687.532 669.266 693.889C668.271 700.247 665.458 706.181 661.168 710.977C658.548 705.099 657.684 698.589 658.679 692.232C659.674 685.874 662.487 679.94 666.778 675.144Z" fill="#E4E4E4"/>
<path d="M616.317 705.311C622.562 703.756 629.123 704.039 635.21 706.127C641.298 708.215 646.651 712.018 650.626 717.079C644.382 718.634 637.821 718.351 631.733 716.263C625.646 714.175 620.292 710.372 616.317 705.311Z" fill="#E4E4E4"/>
<path d="M620.623 771.366C625 770.276 629.599 770.475 633.865 771.938C638.132 773.402 641.885 776.067 644.671 779.615C640.294 780.705 635.695 780.506 631.428 779.043C627.162 777.579 623.409 774.913 620.623 771.366Z" fill="#E4E4E4"/>
</g>
<defs>
<clipPath id="clip0_491_6452">
<rect width="748" height="819" fill="white"/>
</clipPath>
</defs>
</svg>
