<svg width="205" height="217" viewBox="0 0 205 217" fill="none" xmlns="http://www.w3.org/2000/svg">
<circle cx="102.5" cy="102.5" r="102.5" fill="url(#paint0_linear_886_100220)"/>
<path fill-rule="evenodd" clip-rule="evenodd" d="M103.5 44.6875C71.571 44.6875 45.6875 70.571 45.6875 102.5C45.6875 134.429 71.571 160.312 103.5 160.312C135.429 160.312 161.312 134.429 161.312 102.5C161.312 70.571 135.429 44.6875 103.5 44.6875ZM36.3125 102.5C36.3125 65.3934 66.3934 35.3125 103.5 35.3125C140.607 35.3125 170.688 65.3934 170.688 102.5C170.688 139.607 140.607 169.688 103.5 169.688C66.3934 169.688 36.3125 139.607 36.3125 102.5Z" fill="#D1D6E0"/>
<path fill-rule="evenodd" clip-rule="evenodd" d="M55.8104 54.8104C57.641 52.9799 60.609 52.9799 62.4396 54.8104L151.19 143.56C153.02 145.391 153.02 148.359 151.19 150.19C149.359 152.02 146.391 152.02 144.56 150.19L55.8104 61.4396C53.9799 59.609 53.9799 56.641 55.8104 54.8104Z" fill="#D1D6E0"/>
<g filter="url(#filter0_ddd_886_100220)">
<circle cx="103.254" cy="173.828" r="31" fill="#006399"/>
<path fill-rule="evenodd" clip-rule="evenodd" d="M91.5 160.5C91.2348 160.5 90.9804 160.605 90.7929 160.793C90.6054 160.98 90.5 161.235 90.5 161.5C90.5 161.765 90.6054 162.02 90.7929 162.207C90.9804 162.395 91.2348 162.5 91.5 162.5V184.5H90.5C90.2348 184.5 89.9804 184.605 89.7929 184.793C89.6054 184.98 89.5 185.235 89.5 185.5C89.5 185.765 89.6054 186.02 89.7929 186.207C89.9804 186.395 90.2348 186.5 90.5 186.5H107.5V162.5C107.765 162.5 108.02 162.395 108.207 162.207C108.395 162.02 108.5 161.765 108.5 161.5C108.5 161.235 108.395 160.98 108.207 160.793C108.02 160.605 107.765 160.5 107.5 160.5H91.5ZM96.5 183.5V180.5C96.5 180.235 96.6054 179.98 96.7929 179.793C96.9804 179.605 97.2348 179.5 97.5 179.5H101.5C101.765 179.5 102.02 179.605 102.207 179.793C102.395 179.98 102.5 180.235 102.5 180.5V183.5C102.5 183.765 102.395 184.02 102.207 184.207C102.02 184.395 101.765 184.5 101.5 184.5H97.5C97.2348 184.5 96.9804 184.395 96.7929 184.207C96.6054 184.02 96.5 183.765 96.5 183.5ZM95.5 166.5C95.5 166.235 95.6054 165.98 95.7929 165.793C95.9804 165.605 96.2348 165.5 96.5 165.5H97.5C97.7652 165.5 98.0196 165.605 98.2071 165.793C98.3946 165.98 98.5 166.235 98.5 166.5C98.5 166.765 98.3946 167.02 98.2071 167.207C98.0196 167.395 97.7652 167.5 97.5 167.5H96.5C96.2348 167.5 95.9804 167.395 95.7929 167.207C95.6054 167.02 95.5 166.765 95.5 166.5ZM96.5 169.5C96.2348 169.5 95.9804 169.605 95.7929 169.793C95.6054 169.98 95.5 170.235 95.5 170.5C95.5 170.765 95.6054 171.02 95.7929 171.207C95.9804 171.395 96.2348 171.5 96.5 171.5H97.5C97.7652 171.5 98.0196 171.395 98.2071 171.207C98.3946 171.02 98.5 170.765 98.5 170.5C98.5 170.235 98.3946 169.98 98.2071 169.793C98.0196 169.605 97.7652 169.5 97.5 169.5H96.5ZM95.5 174.5C95.5 174.235 95.6054 173.98 95.7929 173.793C95.9804 173.605 96.2348 173.5 96.5 173.5H97.5C97.7652 173.5 98.0196 173.605 98.2071 173.793C98.3946 173.98 98.5 174.235 98.5 174.5C98.5 174.765 98.3946 175.02 98.2071 175.207C98.0196 175.395 97.7652 175.5 97.5 175.5H96.5C96.2348 175.5 95.9804 175.395 95.7929 175.207C95.6054 175.02 95.5 174.765 95.5 174.5ZM101.5 165.5C101.235 165.5 100.98 165.605 100.793 165.793C100.605 165.98 100.5 166.235 100.5 166.5C100.5 166.765 100.605 167.02 100.793 167.207C100.98 167.395 101.235 167.5 101.5 167.5H102.5C102.765 167.5 103.02 167.395 103.207 167.207C103.395 167.02 103.5 166.765 103.5 166.5C103.5 166.235 103.395 165.98 103.207 165.793C103.02 165.605 102.765 165.5 102.5 165.5H101.5ZM100.5 170.5C100.5 170.235 100.605 169.98 100.793 169.793C100.98 169.605 101.235 169.5 101.5 169.5H102.5C102.765 169.5 103.02 169.605 103.207 169.793C103.395 169.98 103.5 170.235 103.5 170.5C103.5 170.765 103.395 171.02 103.207 171.207C103.02 171.395 102.765 171.5 102.5 171.5H101.5C101.235 171.5 100.98 171.395 100.793 171.207C100.605 171.02 100.5 170.765 100.5 170.5ZM101.5 173.5C101.235 173.5 100.98 173.605 100.793 173.793C100.605 173.98 100.5 174.235 100.5 174.5C100.5 174.765 100.605 175.02 100.793 175.207C100.98 175.395 101.235 175.5 101.5 175.5H102.5C102.765 175.5 103.02 175.395 103.207 175.207C103.395 175.02 103.5 174.765 103.5 174.5C103.5 174.235 103.395 173.98 103.207 173.793C103.02 173.605 102.765 173.5 102.5 173.5H101.5ZM109.5 166.5V186.5H116.5C116.765 186.5 117.02 186.395 117.207 186.207C117.395 186.02 117.5 185.765 117.5 185.5C117.5 185.235 117.395 184.98 117.207 184.793C117.02 184.605 116.765 184.5 116.5 184.5H115.5V168.5C115.765 168.5 116.02 168.395 116.207 168.207C116.395 168.02 116.5 167.765 116.5 167.5C116.5 167.235 116.395 166.98 116.207 166.793C116.02 166.605 115.765 166.5 115.5 166.5H109.5ZM111.5 172.5C111.5 172.235 111.605 171.98 111.793 171.793C111.98 171.605 112.235 171.5 112.5 171.5H112.511C112.776 171.5 113.03 171.605 113.218 171.793C113.405 171.98 113.511 172.235 113.511 172.5V172.511C113.511 172.776 113.405 173.03 113.218 173.218C113.03 173.405 112.776 173.511 112.511 173.511H112.5C112.235 173.511 111.98 173.405 111.793 173.218C111.605 173.03 111.5 172.776 111.5 172.511V172.5ZM112.5 175.5C112.235 175.5 111.98 175.605 111.793 175.793C111.605 175.98 111.5 176.235 111.5 176.5V176.511C111.5 177.063 111.948 177.511 112.5 177.511H112.511C112.776 177.511 113.03 177.405 113.218 177.218C113.405 177.03 113.511 176.776 113.511 176.511V176.5C113.511 176.235 113.405 175.98 113.218 175.793C113.03 175.605 112.776 175.5 112.511 175.5H112.5ZM111.5 180.5C111.5 180.235 111.605 179.98 111.793 179.793C111.98 179.605 112.235 179.5 112.5 179.5H112.511C112.776 179.5 113.03 179.605 113.218 179.793C113.405 179.98 113.511 180.235 113.511 180.5V180.511C113.511 180.776 113.405 181.03 113.218 181.218C113.03 181.405 112.776 181.511 112.511 181.511H112.5C112.235 181.511 111.98 181.405 111.793 181.218C111.605 181.03 111.5 180.776 111.5 180.511V180.5Z" fill="white"/>
</g>
<defs>
<filter id="filter0_ddd_886_100220" x="64.2539" y="137.828" width="78" height="79" filterUnits="userSpaceOnUse" color-interpolation-filters="sRGB">
<feFlood flood-opacity="0" result="BackgroundImageFix"/>
<feColorMatrix in="SourceAlpha" type="matrix" values="0 0 0 0 0 0 0 0 0 0 0 0 0 0 0 0 0 0 127 0" result="hardAlpha"/>
<feMorphology radius="2" operator="erode" in="SourceAlpha" result="effect1_dropShadow_886_100220"/>
<feOffset dy="2"/>
<feGaussianBlur stdDeviation="1.5"/>
<feComposite in2="hardAlpha" operator="out"/>
<feColorMatrix type="matrix" values="0 0 0 0 0 0 0 0 0 0 0 0 0 0 0.24 0 0 0 0.051 0"/>
<feBlend mode="normal" in2="BackgroundImageFix" result="effect1_dropShadow_886_100220"/>
<feColorMatrix in="SourceAlpha" type="matrix" values="0 0 0 0 0 0 0 0 0 0 0 0 0 0 0 0 0 0 127 0" result="hardAlpha"/>
<feMorphology radius="4" operator="erode" in="SourceAlpha" result="effect2_dropShadow_886_100220"/>
<feOffset dy="3"/>
<feGaussianBlur stdDeviation="6"/>
<feComposite in2="hardAlpha" operator="out"/>
<feColorMatrix type="matrix" values="0 0 0 0 0 0 0 0 0 0 0 0 0 0 0 0 0 0 0.055 0"/>
<feBlend mode="normal" in2="effect1_dropShadow_886_100220" result="effect2_dropShadow_886_100220"/>
<feColorMatrix in="SourceAlpha" type="matrix" values="0 0 0 0 0 0 0 0 0 0 0 0 0 0 0 0 0 0 127 0" result="hardAlpha"/>
<feMorphology radius="8" operator="erode" in="SourceAlpha" result="effect3_dropShadow_886_100220"/>
<feOffset dy="4"/>
<feGaussianBlur stdDeviation="8"/>
<feComposite in2="hardAlpha" operator="out"/>
<feColorMatrix type="matrix" values="0 0 0 0 0 0 0 0 0 0 0 0 0 0 0 0 0 0 0.078 0"/>
<feBlend mode="normal" in2="effect2_dropShadow_886_100220" result="effect3_dropShadow_886_100220"/>
<feBlend mode="normal" in="SourceGraphic" in2="effect3_dropShadow_886_100220" result="shape"/>
</filter>
<linearGradient id="paint0_linear_886_100220" x1="102.5" y1="0" x2="102.5" y2="207.52" gradientUnits="userSpaceOnUse">
<stop stop-color="#F7F7F7"/>
<stop offset="1" stop-color="#F8F9FA" stop-opacity="0"/>
</linearGradient>
</defs>
</svg>
