<svg width="160" height="169" viewBox="0 0 160 169" fill="none" xmlns="http://www.w3.org/2000/svg">
<circle cx="80" cy="80" r="80" fill="url(#paint0_linear_886_100204)"/>
<path d="M70.9799 94.4092C76.3177 94.4092 81.5301 96.0301 85.9262 99.0576C90.3223 102.085 93.6958 106.377 95.5991 111.364C96.5688 113.902 94.4829 116.364 91.77 116.364H50.1909C47.4779 116.364 45.3964 113.902 46.3618 111.364C48.265 106.377 51.6385 102.085 56.0346 99.0576C60.4306 96.0302 65.6423 94.4093 70.9799 94.4092ZM70.9828 63.6816C74.4758 63.6817 77.8254 65.0692 80.2953 67.5391C82.7653 70.0091 84.1537 73.3594 84.1537 76.8525C84.1536 80.3455 82.7652 83.6951 80.2953 86.165C77.8254 88.6349 74.4758 90.0224 70.9828 90.0225C67.4898 90.0225 64.1394 88.635 61.6694 86.165C59.1996 83.6952 57.8121 80.3454 57.812 76.8525C57.812 73.3595 59.1994 70.009 61.6694 67.5391C64.1394 65.0691 67.4898 63.6816 70.9828 63.6816ZM102.317 40.2666C110.624 40.2666 117.537 46.4638 117.537 54.3154C117.537 62.1671 110.624 68.3643 102.317 68.3643C101.017 68.3643 99.7525 68.2128 98.5444 67.9287C96.8688 68.9808 94.9291 69.5378 92.9506 69.5352C92.3248 69.5359 91.7003 69.4799 91.0844 69.3691C90.882 69.3329 90.6927 69.244 90.5356 69.1113C90.3784 68.9786 90.2585 68.8068 90.1889 68.6133C90.1193 68.4198 90.1016 68.2111 90.1381 68.0088C90.1747 67.8066 90.2642 67.6177 90.3969 67.4609C91.0372 66.706 91.4755 65.8 91.6684 64.8291C91.7043 64.6497 91.6337 64.3341 91.2719 63.9814C88.6979 61.4761 87.0971 58.0758 87.0971 54.3154C87.0972 46.4638 94.0094 40.2666 102.317 40.2666ZM96.4633 52.5596C95.9976 52.5596 95.5505 52.7449 95.2211 53.0742C94.8921 53.4035 94.7075 53.8499 94.7075 54.3154C94.7075 54.7812 94.8918 55.2283 95.2211 55.5576C95.5505 55.8869 95.9976 56.0713 96.4633 56.0713C96.9288 56.0713 97.3752 55.8867 97.7045 55.5576C98.0339 55.2283 98.2192 54.7812 98.2192 54.3154C98.2192 53.8497 98.0338 53.4035 97.7045 53.0742C97.3752 52.7449 96.929 52.5596 96.4633 52.5596ZM102.317 52.5596C101.851 52.5596 101.405 52.7449 101.076 53.0742C100.746 53.4035 100.561 53.8497 100.561 54.3154C100.561 54.7812 100.746 55.2283 101.076 55.5576C101.405 55.8867 101.851 56.0713 102.317 56.0713C102.783 56.0713 103.23 55.8869 103.559 55.5576C103.888 55.2283 104.073 54.7812 104.073 54.3154C104.073 53.8499 103.888 53.4035 103.559 53.0742C103.23 52.7449 102.783 52.5596 102.317 52.5596ZM108.17 52.5596C107.705 52.5596 107.258 52.7449 106.929 53.0742C106.6 53.4035 106.415 53.8498 106.414 54.3154C106.414 54.7812 106.6 55.2283 106.929 55.5576C107.258 55.8867 107.705 56.0712 108.17 56.0713C108.636 56.0713 109.083 55.8869 109.413 55.5576C109.742 55.2283 109.926 54.7812 109.926 54.3154C109.926 53.8499 109.742 53.4035 109.413 53.0742C109.083 52.7449 108.636 52.5596 108.17 52.5596Z" fill="#4E4E54"/>
<g filter="url(#filter0_ddd_886_100204)">
<circle cx="80" cy="138" r="22" fill="#006399"/>
<path fill-rule="evenodd" clip-rule="evenodd" d="M71 128.25C70.8011 128.25 70.6103 128.329 70.4697 128.47C70.329 128.61 70.25 128.801 70.25 129C70.25 129.199 70.329 129.39 70.4697 129.53C70.6103 129.671 70.8011 129.75 71 129.75V146.25H70.25C70.0511 146.25 69.8603 146.329 69.7197 146.47C69.579 146.61 69.5 146.801 69.5 147C69.5 147.199 69.579 147.39 69.7197 147.53C69.8603 147.671 70.0511 147.75 70.25 147.75H83V129.75C83.1989 129.75 83.3897 129.671 83.5303 129.53C83.671 129.39 83.75 129.199 83.75 129C83.75 128.801 83.671 128.61 83.5303 128.47C83.3897 128.329 83.1989 128.25 83 128.25H71ZM74.75 145.5V143.25C74.75 143.051 74.829 142.86 74.9697 142.72C75.1103 142.579 75.3011 142.5 75.5 142.5H78.5C78.6989 142.5 78.8897 142.579 79.0303 142.72C79.171 142.86 79.25 143.051 79.25 143.25V145.5C79.25 145.699 79.171 145.89 79.0303 146.03C78.8897 146.171 78.6989 146.25 78.5 146.25H75.5C75.3011 146.25 75.1103 146.171 74.9697 146.03C74.829 145.89 74.75 145.699 74.75 145.5ZM74 132.75C74 132.551 74.079 132.36 74.2197 132.22C74.3603 132.079 74.5511 132 74.75 132H75.5C75.6989 132 75.8897 132.079 76.0303 132.22C76.171 132.36 76.25 132.551 76.25 132.75C76.25 132.949 76.171 133.14 76.0303 133.28C75.8897 133.421 75.6989 133.5 75.5 133.5H74.75C74.5511 133.5 74.3603 133.421 74.2197 133.28C74.079 133.14 74 132.949 74 132.75ZM74.75 135C74.5511 135 74.3603 135.079 74.2197 135.22C74.079 135.36 74 135.551 74 135.75C74 135.949 74.079 136.14 74.2197 136.28C74.3603 136.421 74.5511 136.5 74.75 136.5H75.5C75.6989 136.5 75.8897 136.421 76.0303 136.28C76.171 136.14 76.25 135.949 76.25 135.75C76.25 135.551 76.171 135.36 76.0303 135.22C75.8897 135.079 75.6989 135 75.5 135H74.75ZM74 138.75C74 138.551 74.079 138.36 74.2197 138.22C74.3603 138.079 74.5511 138 74.75 138H75.5C75.6989 138 75.8897 138.079 76.0303 138.22C76.171 138.36 76.25 138.551 76.25 138.75C76.25 138.949 76.171 139.14 76.0303 139.28C75.8897 139.421 75.6989 139.5 75.5 139.5H74.75C74.5511 139.5 74.3603 139.421 74.2197 139.28C74.079 139.14 74 138.949 74 138.75ZM78.5 132C78.3011 132 78.1103 132.079 77.9697 132.22C77.829 132.36 77.75 132.551 77.75 132.75C77.75 132.949 77.829 133.14 77.9697 133.28C78.1103 133.421 78.3011 133.5 78.5 133.5H79.25C79.4489 133.5 79.6397 133.421 79.7803 133.28C79.921 133.14 80 132.949 80 132.75C80 132.551 79.921 132.36 79.7803 132.22C79.6397 132.079 79.4489 132 79.25 132H78.5ZM77.75 135.75C77.75 135.551 77.829 135.36 77.9697 135.22C78.1103 135.079 78.3011 135 78.5 135H79.25C79.4489 135 79.6397 135.079 79.7803 135.22C79.921 135.36 80 135.551 80 135.75C80 135.949 79.921 136.14 79.7803 136.28C79.6397 136.421 79.4489 136.5 79.25 136.5H78.5C78.3011 136.5 78.1103 136.421 77.9697 136.28C77.829 136.14 77.75 135.949 77.75 135.75ZM78.5 138C78.3011 138 78.1103 138.079 77.9697 138.22C77.829 138.36 77.75 138.551 77.75 138.75C77.75 138.949 77.829 139.14 77.9697 139.28C78.1103 139.421 78.3011 139.5 78.5 139.5H79.25C79.4489 139.5 79.6397 139.421 79.7803 139.28C79.921 139.14 80 138.949 80 138.75C80 138.551 79.921 138.36 79.7803 138.22C79.6397 138.079 79.4489 138 79.25 138H78.5ZM84.5 132.75V147.75H89.75C89.9489 147.75 90.1397 147.671 90.2803 147.53C90.421 147.39 90.5 147.199 90.5 147C90.5 146.801 90.421 146.61 90.2803 146.47C90.1397 146.329 89.9489 146.25 89.75 146.25H89V134.25C89.1989 134.25 89.3897 134.171 89.5303 134.03C89.671 133.89 89.75 133.699 89.75 133.5C89.75 133.301 89.671 133.11 89.5303 132.97C89.3897 132.829 89.1989 132.75 89 132.75H84.5ZM86 137.25C86 137.051 86.079 136.86 86.2197 136.72C86.3603 136.579 86.5511 136.5 86.75 136.5H86.758C86.9569 136.5 87.1477 136.579 87.2883 136.72C87.429 136.86 87.508 137.051 87.508 137.25V137.258C87.508 137.457 87.429 137.648 87.2883 137.788C87.1477 137.929 86.9569 138.008 86.758 138.008H86.75C86.5511 138.008 86.3603 137.929 86.2197 137.788C86.079 137.648 86 137.457 86 137.258V137.25ZM86.75 139.5C86.5511 139.5 86.3603 139.579 86.2197 139.72C86.079 139.86 86 140.051 86 140.25V140.258C86 140.672 86.336 141.008 86.75 141.008H86.758C86.9569 141.008 87.1477 140.929 87.2883 140.788C87.429 140.648 87.508 140.457 87.508 140.258V140.25C87.508 140.051 87.429 139.86 87.2883 139.72C87.1477 139.579 86.9569 139.5 86.758 139.5H86.75ZM86 143.25C86 143.051 86.079 142.86 86.2197 142.72C86.3603 142.579 86.5511 142.5 86.75 142.5H86.758C86.9569 142.5 87.1477 142.579 87.2883 142.72C87.429 142.86 87.508 143.051 87.508 143.25V143.258C87.508 143.457 87.429 143.648 87.2883 143.788C87.1477 143.929 86.9569 144.008 86.758 144.008H86.75C86.5511 144.008 86.3603 143.929 86.2197 143.788C86.079 143.648 86 143.457 86 143.258V143.25Z" fill="#0C0E12"/>
</g>
<defs>
<filter id="filter0_ddd_886_100204" x="52.2164" y="112.385" width="55.5673" height="56.2902" filterUnits="userSpaceOnUse" color-interpolation-filters="sRGB">
<feFlood flood-opacity="0" result="BackgroundImageFix"/>
<feColorMatrix in="SourceAlpha" type="matrix" values="0 0 0 0 0 0 0 0 0 0 0 0 0 0 0 0 0 0 127 0" result="hardAlpha"/>
<feMorphology radius="1.44591" operator="erode" in="SourceAlpha" result="effect1_dropShadow_886_100204"/>
<feOffset dy="1.44591"/>
<feGaussianBlur stdDeviation="1.08443"/>
<feComposite in2="hardAlpha" operator="out"/>
<feColorMatrix type="matrix" values="0 0 0 0 0 0 0 0 0 0 0 0 0 0 0.24 0 0 0 0.051 0"/>
<feBlend mode="normal" in2="BackgroundImageFix" result="effect1_dropShadow_886_100204"/>
<feColorMatrix in="SourceAlpha" type="matrix" values="0 0 0 0 0 0 0 0 0 0 0 0 0 0 0 0 0 0 127 0" result="hardAlpha"/>
<feMorphology radius="2.89182" operator="erode" in="SourceAlpha" result="effect2_dropShadow_886_100204"/>
<feOffset dy="2.16886"/>
<feGaussianBlur stdDeviation="4.33772"/>
<feComposite in2="hardAlpha" operator="out"/>
<feColorMatrix type="matrix" values="0 0 0 0 0 0 0 0 0 0 0 0 0 0 0 0 0 0 0.055 0"/>
<feBlend mode="normal" in2="effect1_dropShadow_886_100204" result="effect2_dropShadow_886_100204"/>
<feColorMatrix in="SourceAlpha" type="matrix" values="0 0 0 0 0 0 0 0 0 0 0 0 0 0 0 0 0 0 127 0" result="hardAlpha"/>
<feMorphology radius="5.78363" operator="erode" in="SourceAlpha" result="effect3_dropShadow_886_100204"/>
<feOffset dy="2.89182"/>
<feGaussianBlur stdDeviation="5.78363"/>
<feComposite in2="hardAlpha" operator="out"/>
<feColorMatrix type="matrix" values="0 0 0 0 0 0 0 0 0 0 0 0 0 0 0 0 0 0 0.078 0"/>
<feBlend mode="normal" in2="effect2_dropShadow_886_100204" result="effect3_dropShadow_886_100204"/>
<feBlend mode="normal" in="SourceGraphic" in2="effect3_dropShadow_886_100204" result="shape"/>
</filter>
<linearGradient id="paint0_linear_886_100204" x1="80" y1="0" x2="80" y2="161.967" gradientUnits="userSpaceOnUse">
<stop stop-color="#343434"/>
<stop offset="1" stop-color="#171717" stop-opacity="0.16"/>
</linearGradient>
</defs>
</svg>
