<svg width="205" height="217" viewBox="0 0 205 217" fill="none" xmlns="http://www.w3.org/2000/svg">
<circle cx="102.5" cy="102.5" r="102.5" fill="url(#paint0_linear_886_100190)"/>
<path fill-rule="evenodd" clip-rule="evenodd" d="M58 54.25C57.0054 54.25 56.0516 54.6451 55.3483 55.3483C54.6451 56.0516 54.25 57.0054 54.25 58C54.25 58.9946 54.6451 59.9484 55.3483 60.6517C56.0516 61.3549 57.0054 61.75 58 61.75V144.25H54.25C53.2554 144.25 52.3016 144.645 51.5983 145.348C50.8951 146.052 50.5 147.005 50.5 148C50.5 148.995 50.8951 149.948 51.5983 150.652C52.3016 151.355 53.2554 151.75 54.25 151.75H118V61.75C118.995 61.75 119.948 61.3549 120.652 60.6517C121.355 59.9484 121.75 58.9946 121.75 58C121.75 57.0054 121.355 56.0516 120.652 55.3483C119.948 54.6451 118.995 54.25 118 54.25H58ZM76.75 140.5V129.25C76.75 128.255 77.1451 127.302 77.8483 126.598C78.5516 125.895 79.5054 125.5 80.5 125.5H95.5C96.4946 125.5 97.4484 125.895 98.1516 126.598C98.8549 127.302 99.25 128.255 99.25 129.25V140.5C99.25 141.495 98.8549 142.448 98.1516 143.152C97.4484 143.855 96.4946 144.25 95.5 144.25H80.5C79.5054 144.25 78.5516 143.855 77.8483 143.152C77.1451 142.448 76.75 141.495 76.75 140.5ZM73 76.75C73 75.7554 73.3951 74.8016 74.0983 74.0983C74.8016 73.3951 75.7554 73 76.75 73H80.5C81.4946 73 82.4484 73.3951 83.1516 74.0983C83.8549 74.8016 84.25 75.7554 84.25 76.75C84.25 77.7446 83.8549 78.6984 83.1516 79.4017C82.4484 80.1049 81.4946 80.5 80.5 80.5H76.75C75.7554 80.5 74.8016 80.1049 74.0983 79.4017C73.3951 78.6984 73 77.7446 73 76.75ZM76.75 88C75.7554 88 74.8016 88.3951 74.0983 89.0984C73.3951 89.8016 73 90.7554 73 91.75C73 92.7446 73.3951 93.6984 74.0983 94.4016C74.8016 95.1049 75.7554 95.5 76.75 95.5H80.5C81.4946 95.5 82.4484 95.1049 83.1516 94.4016C83.8549 93.6984 84.25 92.7446 84.25 91.75C84.25 90.7554 83.8549 89.8016 83.1516 89.0984C82.4484 88.3951 81.4946 88 80.5 88H76.75ZM73 106.75C73 105.755 73.3951 104.802 74.0983 104.098C74.8016 103.395 75.7554 103 76.75 103H80.5C81.4946 103 82.4484 103.395 83.1516 104.098C83.8549 104.802 84.25 105.755 84.25 106.75C84.25 107.745 83.8549 108.698 83.1516 109.402C82.4484 110.105 81.4946 110.5 80.5 110.5H76.75C75.7554 110.5 74.8016 110.105 74.0983 109.402C73.3951 108.698 73 107.745 73 106.75ZM95.5 73C94.5054 73 93.5516 73.3951 92.8484 74.0983C92.1451 74.8016 91.75 75.7554 91.75 76.75C91.75 77.7446 92.1451 78.6984 92.8484 79.4017C93.5516 80.1049 94.5054 80.5 95.5 80.5H99.25C100.245 80.5 101.198 80.1049 101.902 79.4017C102.605 78.6984 103 77.7446 103 76.75C103 75.7554 102.605 74.8016 101.902 74.0983C101.198 73.3951 100.245 73 99.25 73H95.5ZM91.75 91.75C91.75 90.7554 92.1451 89.8016 92.8484 89.0984C93.5516 88.3951 94.5054 88 95.5 88H99.25C100.245 88 101.198 88.3951 101.902 89.0984C102.605 89.8016 103 90.7554 103 91.75C103 92.7446 102.605 93.6984 101.902 94.4016C101.198 95.1049 100.245 95.5 99.25 95.5H95.5C94.5054 95.5 93.5516 95.1049 92.8484 94.4016C92.1451 93.6984 91.75 92.7446 91.75 91.75ZM95.5 103C94.5054 103 93.5516 103.395 92.8484 104.098C92.1451 104.802 91.75 105.755 91.75 106.75C91.75 107.745 92.1451 108.698 92.8484 109.402C93.5516 110.105 94.5054 110.5 95.5 110.5H99.25C100.245 110.5 101.198 110.105 101.902 109.402C102.605 108.698 103 107.745 103 106.75C103 105.755 102.605 104.802 101.902 104.098C101.198 103.395 100.245 103 99.25 103H95.5ZM125.5 76.75V151.75H151.75C152.745 151.75 153.698 151.355 154.402 150.652C155.105 149.948 155.5 148.995 155.5 148C155.5 147.005 155.105 146.052 154.402 145.348C153.698 144.645 152.745 144.25 151.75 144.25H148V84.25C148.995 84.25 149.948 83.8549 150.652 83.1516C151.355 82.4484 151.75 81.4946 151.75 80.5C151.75 79.5054 151.355 78.5516 150.652 77.8483C149.948 77.1451 148.995 76.75 148 76.75H125.5ZM133 99.25C133 98.2554 133.395 97.3016 134.098 96.5984C134.802 95.8951 135.755 95.5 136.75 95.5H136.79C137.785 95.5 138.738 95.8951 139.442 96.5984C140.145 97.3016 140.54 98.2554 140.54 99.25V99.29C140.54 100.285 140.145 101.238 139.442 101.942C138.738 102.645 137.785 103.04 136.79 103.04H136.75C135.755 103.04 134.802 102.645 134.098 101.942C133.395 101.238 133 100.285 133 99.29V99.25ZM136.75 110.5C135.755 110.5 134.802 110.895 134.098 111.598C133.395 112.302 133 113.255 133 114.25V114.29C133 116.36 134.68 118.04 136.75 118.04H136.79C137.785 118.04 138.738 117.645 139.442 116.942C140.145 116.238 140.54 115.285 140.54 114.29V114.25C140.54 113.255 140.145 112.302 139.442 111.598C138.738 110.895 137.785 110.5 136.79 110.5H136.75ZM133 129.25C133 128.255 133.395 127.302 134.098 126.598C134.802 125.895 135.755 125.5 136.75 125.5H136.79C137.785 125.5 138.738 125.895 139.442 126.598C140.145 127.302 140.54 128.255 140.54 129.25V129.29C140.54 130.285 140.145 131.238 139.442 131.942C138.738 132.645 137.785 133.04 136.79 133.04H136.75C135.755 133.04 134.802 132.645 134.098 131.942C133.395 131.238 133 130.285 133 129.29V129.25Z" fill="#4E4E54"/>
<g filter="url(#filter0_ddd_886_100190)">
<circle cx="103.254" cy="173.828" r="31" fill="#006399"/>
<path d="M102.166 160.166C108.794 160.166 114.166 165.539 114.166 172.166C114.166 174.999 113.181 177.6 111.539 179.653L116.443 184.557C116.963 185.077 116.963 185.922 116.443 186.442C115.922 186.963 115.078 186.963 114.557 186.442L109.655 181.539C107.602 183.181 105 184.166 102.166 184.166C95.5391 184.166 90.1664 178.793 90.1664 172.166C90.1666 165.539 95.5392 160.166 102.166 160.166ZM102.166 162.833C97.012 162.833 92.8335 167.012 92.8334 172.166C92.8334 177.321 97.0119 181.5 102.166 181.5C107.321 181.5 111.5 177.321 111.5 172.166C111.5 167.012 107.321 162.833 102.166 162.833Z" fill="#0C0E12"/>
</g>
<defs>
<filter id="filter0_ddd_886_100190" x="64.2539" y="137.828" width="78" height="79" filterUnits="userSpaceOnUse" color-interpolation-filters="sRGB">
<feFlood flood-opacity="0" result="BackgroundImageFix"/>
<feColorMatrix in="SourceAlpha" type="matrix" values="0 0 0 0 0 0 0 0 0 0 0 0 0 0 0 0 0 0 127 0" result="hardAlpha"/>
<feMorphology radius="2" operator="erode" in="SourceAlpha" result="effect1_dropShadow_886_100190"/>
<feOffset dy="2"/>
<feGaussianBlur stdDeviation="1.5"/>
<feComposite in2="hardAlpha" operator="out"/>
<feColorMatrix type="matrix" values="0 0 0 0 0 0 0 0 0 0 0 0 0 0 0.24 0 0 0 0.051 0"/>
<feBlend mode="normal" in2="BackgroundImageFix" result="effect1_dropShadow_886_100190"/>
<feColorMatrix in="SourceAlpha" type="matrix" values="0 0 0 0 0 0 0 0 0 0 0 0 0 0 0 0 0 0 127 0" result="hardAlpha"/>
<feMorphology radius="4" operator="erode" in="SourceAlpha" result="effect2_dropShadow_886_100190"/>
<feOffset dy="3"/>
<feGaussianBlur stdDeviation="6"/>
<feComposite in2="hardAlpha" operator="out"/>
<feColorMatrix type="matrix" values="0 0 0 0 0 0 0 0 0 0 0 0 0 0 0 0 0 0 0.055 0"/>
<feBlend mode="normal" in2="effect1_dropShadow_886_100190" result="effect2_dropShadow_886_100190"/>
<feColorMatrix in="SourceAlpha" type="matrix" values="0 0 0 0 0 0 0 0 0 0 0 0 0 0 0 0 0 0 127 0" result="hardAlpha"/>
<feMorphology radius="8" operator="erode" in="SourceAlpha" result="effect3_dropShadow_886_100190"/>
<feOffset dy="4"/>
<feGaussianBlur stdDeviation="8"/>
<feComposite in2="hardAlpha" operator="out"/>
<feColorMatrix type="matrix" values="0 0 0 0 0 0 0 0 0 0 0 0 0 0 0 0 0 0 0.078 0"/>
<feBlend mode="normal" in2="effect2_dropShadow_886_100190" result="effect3_dropShadow_886_100190"/>
<feBlend mode="normal" in="SourceGraphic" in2="effect3_dropShadow_886_100190" result="shape"/>
</filter>
<linearGradient id="paint0_linear_886_100190" x1="102.5" y1="0" x2="102.5" y2="207.52" gradientUnits="userSpaceOnUse">
<stop stop-color="#343434"/>
<stop offset="1" stop-color="#171717" stop-opacity="0.16"/>
</linearGradient>
</defs>
</svg>
