<?xml version="1.0" standalone="no"?>
<!DOCTYPE svg PUBLIC "-//W3C//DTD SVG 20010904//EN"
 "http://www.w3.org/TR/2001/REC-SVG-20010904/DTD/svg10.dtd">
<svg version="1.0" xmlns="http://www.w3.org/2000/svg"
 width="512.000000pt" height="512.000000pt" viewBox="0 0 512.000000 512.000000"
 preserveAspectRatio="xMidYMid meet">

<g transform="translate(0.000000,512.000000) scale(0.100000,-0.100000)"
fill="#000000" stroke="none">
<path d="M2412 5049 c-452 -23 -877 -163 -1255 -412 -577 -381 -978 -976
-1106 -1641 -109 -564 -37 -1123 209 -1621 243 -494 642 -903 1116 -1147 141
-73 341 -154 403 -164 58 -9 109 19 133 73 18 40 18 60 12 286 l-7 243 -86
-14 c-97 -15 -256 -9 -386 13 -105 19 -211 71 -278 139 -53 53 -67 76 -136
229 -63 139 -135 231 -232 297 -66 46 -121 106 -117 128 6 30 48 43 121 38
141 -10 288 -113 393 -274 72 -110 143 -179 230 -222 62 -31 79 -35 169 -38
103 -4 207 12 291 44 41 16 43 18 58 85 19 86 56 164 106 228 l39 49 -82 11
c-264 38 -452 102 -627 215 -229 148 -365 379 -431 731 -20 109 -23 389 -5
492 29 167 98 319 200 445 l45 55 -20 62 c-52 168 -42 372 28 574 18 50 22 52
103 48 118 -6 371 -108 543 -218 l71 -46 56 11 c30 6 87 18 127 27 271 58 655
58 926 0 40 -9 97 -21 127 -27 l55 -10 95 58 c226 137 484 230 575 206 26 -7
33 -17 53 -75 43 -125 55 -210 50 -351 -4 -95 -11 -148 -26 -195 l-21 -64 44
-54 c89 -109 155 -244 192 -389 22 -89 25 -417 4 -544 -32 -198 -114 -406
-210 -532 -165 -217 -464 -366 -843 -418 l-87 -12 39 -49 c47 -60 85 -137 106
-221 14 -52 17 -137 20 -503 5 -490 5 -489 72 -521 46 -21 83 -15 229 42 738
284 1320 932 1533 1703 55 198 90 474 90 701 0 118 -23 331 -50 473 -129 668
-529 1262 -1107 1644 -370 244 -809 390 -1224 408 -68 3 -137 7 -154 8 -16 2
-95 0 -173 -4z"/>
</g>
</svg>
