<svg width="1512" height="900" viewBox="0 0 1512 900" fill="none" xmlns="http://www.w3.org/2000/svg">
<g clip-path="url(#clip0_4817_18582)">
<rect width="1512" height="900" fill="white"/>
<g opacity="0.09">
<line x1="-10.6172" y1="625.328" x2="1500.96" y2="625.328" stroke="#1F2D5C" stroke-opacity="0.4" stroke-width="0.6"/>
<line x1="-10.6172" y1="302.59" x2="1500.96" y2="302.59" stroke="#1F2D5C" stroke-opacity="0.4" stroke-width="0.6"/>
<line x1="-10.6172" y1="463.958" x2="1500.96" y2="463.958" stroke="#1F2D5C" stroke-opacity="0.4" stroke-width="0.6"/>
<line x1="-10.6172" y1="786.696" x2="1500.96" y2="786.696" stroke="#1F2D5C" stroke-opacity="0.4" stroke-width="0.6"/>
<line x1="-10.6172" y1="141.22" x2="1500.96" y2="141.22" stroke="#1F2D5C" stroke-opacity="0.4" stroke-width="0.6"/>
<line x1="-10.6172" y1="544.642" x2="1500.96" y2="544.642" stroke="#1F2D5C" stroke-opacity="0.4" stroke-width="0.6"/>
<line x1="-10.6172" y1="867.381" x2="1500.96" y2="867.381" stroke="#1F2D5C" stroke-opacity="0.4" stroke-width="0.6"/>
<line x1="-10.6172" y1="221.904" x2="1500.96" y2="221.904" stroke="#1F2D5C" stroke-opacity="0.4" stroke-width="0.6"/>
<line x1="-10.6172" y1="383.272" x2="1500.96" y2="383.272" stroke="#1F2D5C" stroke-opacity="0.4" stroke-width="0.6"/>
<line x1="-10.6172" y1="706.012" x2="1500.96" y2="706.013" stroke="#1F2D5C" stroke-opacity="0.4" stroke-width="0.6"/>
<line x1="-10.6172" y1="60.534" x2="1500.96" y2="60.534" stroke="#1F2D5C" stroke-opacity="0.4" stroke-width="0.6"/>
<line x1="36.3273" y1="-48.8457" x2="36.3273" y2="1118.56" stroke="#1F2D5C" stroke-opacity="0.4" stroke-width="0.6"/>
<line x1="681.808" y1="-48.8457" x2="681.808" y2="1118.56" stroke="#1F2D5C" stroke-opacity="0.4" stroke-width="0.6"/>
<line x1="359.068" y1="-48.8457" x2="359.068" y2="1118.56" stroke="#1F2D5C" stroke-opacity="0.4" stroke-width="0.6"/>
<line x1="1004.54" y1="-48.8457" x2="1004.54" y2="1118.56" stroke="#1F2D5C" stroke-opacity="0.4" stroke-width="0.6"/>
<line x1="1327.28" y1="-48.8457" x2="1327.28" y2="1118.56" stroke="#1F2D5C" stroke-opacity="0.4" stroke-width="0.6"/>
<line x1="197.698" y1="-48.8457" x2="197.698" y2="1118.56" stroke="#1F2D5C" stroke-opacity="0.4" stroke-width="0.6"/>
<line x1="843.173" y1="-48.8457" x2="843.173" y2="1118.56" stroke="#1F2D5C" stroke-opacity="0.4" stroke-width="0.6"/>
<line x1="520.439" y1="-48.8457" x2="520.439" y2="1118.56" stroke="#1F2D5C" stroke-opacity="0.4" stroke-width="0.6"/>
<line x1="1165.92" y1="-48.8457" x2="1165.92" y2="1118.56" stroke="#1F2D5C" stroke-opacity="0.4" stroke-width="0.6"/>
<line x1="1488.66" y1="-48.8457" x2="1488.66" y2="1118.56" stroke="#1F2D5C" stroke-opacity="0.4" stroke-width="0.6"/>
<line x1="117.015" y1="-48.8457" x2="117.015" y2="1118.56" stroke="#1F2D5C" stroke-opacity="0.4" stroke-width="0.6"/>
<line x1="762.491" y1="-48.8457" x2="762.491" y2="1118.56" stroke="#1F2D5C" stroke-opacity="0.4" stroke-width="0.6"/>
<line x1="439.751" y1="-48.8457" x2="439.751" y2="1118.56" stroke="#1F2D5C" stroke-opacity="0.4" stroke-width="0.6"/>
<line x1="1085.23" y1="-48.8457" x2="1085.23" y2="1118.56" stroke="#1F2D5C" stroke-opacity="0.4" stroke-width="0.6"/>
<line x1="1407.97" y1="-48.8457" x2="1407.97" y2="1118.56" stroke="#1F2D5C" stroke-opacity="0.4" stroke-width="0.6"/>
<line x1="278.384" y1="-48.8457" x2="278.384" y2="1118.56" stroke="#1F2D5C" stroke-opacity="0.4" stroke-width="0.6"/>
<line x1="923.861" y1="-48.8457" x2="923.86" y2="1118.56" stroke="#1F2D5C" stroke-opacity="0.4" stroke-width="0.6"/>
<line x1="601.12" y1="-48.8457" x2="601.12" y2="1118.56" stroke="#1F2D5C" stroke-opacity="0.4" stroke-width="0.6"/>
<line x1="1246.6" y1="-48.8457" x2="1246.6" y2="1118.56" stroke="#1F2D5C" stroke-opacity="0.4" stroke-width="0.6"/>
</g>
<g opacity="0.5">
<rect x="440.141" y="786.309" width="80.2262" height="80.2262" fill="#3F76FF" fill-opacity="0.07"/>
<rect x="1166.76" y="222.433" width="80.2262" height="79.0801" fill="#3F76FF" fill-opacity="0.07"/>
<rect x="520.367" y="464.207" width="80.2262" height="79.0801" fill="#3F76FF" fill-opacity="0.07"/>
<rect x="1085.39" y="302.659" width="80.2262" height="79.0801" fill="#3F76FF" fill-opacity="0.07"/>
<rect x="1166" y="383" width="80.2262" height="80.08" fill="#3F76FF" fill-opacity="0.07"/>
<rect x="1247" y="302" width="80.2262" height="81.08" fill="#3F76FF" fill-opacity="0.07"/>
<rect x="439.994" y="222.433" width="80.2262" height="79.0801" fill="#3F76FF" fill-opacity="0.07"/>
<rect x="1085.39" y="222.433" width="80.2262" height="79.0801" fill="#3F76FF" fill-opacity="0.07"/>
<rect x="439.994" y="464.207" width="80.2262" height="79.0801" fill="#3F76FF" fill-opacity="0.07"/>
<rect x="359.914" y="786.309" width="80.2262" height="80.2262" fill="#3F76FF" fill-opacity="0.07"/>
<rect x="359.914" y="866.535" width="80.2262" height="81.3723" fill="#3F76FF" fill-opacity="0.07"/>
<rect x="198.314" y="706.082" width="80.2262" height="80.2262" fill="#3F76FF" fill-opacity="0.07"/>
<rect x="1005.16" y="60.835" width="80.2262" height="80.2262" fill="#3F76FF" fill-opacity="0.07"/>
<rect x="924.059" y="-19.8525" width="80.2262" height="79.5062" fill="#3F76FF" fill-opacity="0.07"/>
<rect x="924.059" y="60.4053" width="80.2262" height="80.0285" fill="#3F76FF" fill-opacity="0.07"/>
<rect x="116.943" y="59.6885" width="81.3723" height="80.2262" fill="#3F76FF" fill-opacity="0.07"/>
<rect x="36.7168" y="60.835" width="81.3723" height="80.2262" fill="#3F76FF" fill-opacity="0.07"/>
<rect x="116.943" y="139.915" width="81.3723" height="82.5184" fill="#3F76FF" fill-opacity="0.07"/>
<rect x="440.141" y="-20.5381" width="81.3723" height="80.2262" fill="#3F76FF" fill-opacity="0.07"/>
<rect x="198.316" y="301.513" width="80.2262" height="81.3723" fill="#3F76FF" fill-opacity="0.07"/>
<rect x="1166.76" y="706.082" width="80.2262" height="80.2262" fill="#3F76FF" fill-opacity="0.07"/>
<rect x="1246.99" y="786.309" width="80.2262" height="80.2262" fill="#3F76FF" fill-opacity="0.07"/>
<rect x="37" y="221" width="81" height="82" fill="#3F76FF" fill-opacity="0.07"/>
<rect x="-44" y="141" width="81" height="82" fill="#3F76FF" fill-opacity="0.07"/>
</g>
</g>
<defs>
<clipPath id="clip0_4817_18582">
<rect width="1512" height="900" fill="white"/>
</clipPath>
</defs>
</svg>
