<svg width="591" height="70" viewBox="0 0 591 70" fill="none" xmlns="http://www.w3.org/2000/svg">
<g filter="url(#filter0_bd_12529_436910)">
<g clip-path="url(#clip0_12529_436910)">
<path d="M29 8.84989C29 3.96223 32.9622 0 37.8499 0H564.15C569.038 0 573 3.96223 573 8.84989V43.1501C573 48.0378 569.038 52 564.15 52H37.8499C32.9623 52 29 48.0378 29 43.1501V8.84989Z" fill="url(#paint0_linear_12529_436910)" shape-rendering="crispEdges"/>
<g filter="url(#filter1_dd_12529_436910)">
<g clip-path="url(#clip1_12529_436910)">
<path d="M36 13C36 9.68629 38.6863 7 42 7H560C563.314 7 566 9.68629 566 13V39C566 42.3137 563.314 45 560 45H42C38.6863 45 36 42.3137 36 39V13Z" fill="#1C1C1C"/>
<path d="M53.6199 22.0352H47.4532C46.9667 22.0352 46.5723 22.4296 46.5723 22.9161V29.0828C46.5723 29.5693 46.9667 29.9637 47.4532 29.9637H53.6199C54.1064 29.9637 54.5008 29.5693 54.5008 29.0828V22.9161C54.5008 22.4296 54.1064 22.0352 53.6199 22.0352Z" fill="#396AE6"/>
<path d="M49.2148 26H50.5363H51.8577" stroke="white" stroke-width="0.991071" stroke-linecap="round" stroke-linejoin="round"/>
<path d="M59.7716 28.5V27.951L61.8336 25.6938C62.0755 25.4295 62.2748 25.1997 62.4314 25.0045C62.588 24.8073 62.7039 24.6222 62.7791 24.4494C62.8564 24.2745 62.895 24.0915 62.895 23.9003C62.895 23.6807 62.8421 23.4906 62.7364 23.33C62.6327 23.1693 62.4904 23.0453 62.3094 22.9578C62.1284 22.8704 61.9251 22.8267 61.6993 22.8267C61.4594 22.8267 61.25 22.8765 61.071 22.9761C60.8941 23.0737 60.7568 23.211 60.6592 23.3879C60.5637 23.5648 60.5159 23.7722 60.5159 24.0101H59.796C59.796 23.6441 59.8804 23.3228 60.0492 23.0463C60.218 22.7697 60.4478 22.5542 60.7385 22.3997C61.0314 22.2451 61.3598 22.1678 61.7237 22.1678C62.0898 22.1678 62.4141 22.2451 62.6968 22.3997C62.9794 22.5542 63.201 22.7626 63.3617 23.0249C63.5223 23.2873 63.6027 23.5791 63.6027 23.9003C63.6027 24.1301 63.561 24.3548 63.4776 24.5744C63.3963 24.792 63.2539 25.035 63.0506 25.3034C62.8493 25.5698 62.5697 25.8952 62.2118 26.2795L60.8087 27.7802V27.829H63.7125V28.5H59.7716ZM70.5703 23.8149C70.5337 23.5059 70.3853 23.2659 70.125 23.0951C69.8647 22.9243 69.5455 22.8389 69.1673 22.8389C68.8907 22.8389 68.6487 22.8836 68.4413 22.9731C68.2359 23.0626 68.0753 23.1856 67.9594 23.3422C67.8455 23.4987 67.7886 23.6767 67.7886 23.8759C67.7886 24.0427 67.8282 24.186 67.9075 24.306C67.9889 24.424 68.0926 24.5226 68.2187 24.6019C68.3447 24.6792 68.4769 24.7432 68.6152 24.794C68.7535 24.8428 68.8806 24.8825 68.9965 24.913L69.6309 25.0838C69.7936 25.1265 69.9745 25.1855 70.1738 25.2607C70.3751 25.336 70.5673 25.4386 70.7503 25.5688C70.9353 25.6969 71.0879 25.8616 71.2078 26.0629C71.3278 26.2642 71.3878 26.5113 71.3878 26.8041C71.3878 27.1417 71.2993 27.4467 71.1224 27.7192C70.9476 27.9916 70.6913 28.2082 70.3538 28.3688C70.0183 28.5295 69.6106 28.6098 69.1307 28.6098C68.6833 28.6098 68.2959 28.5376 67.9685 28.3932C67.6432 28.2489 67.387 28.0476 67.1999 27.7893C67.0149 27.5311 66.9101 27.2311 66.8857 26.8895H67.6666C67.6869 27.1254 67.7662 27.3206 67.9045 27.4751C68.0448 27.6277 68.2217 27.7415 68.4352 27.8168C68.6508 27.89 68.8826 27.9266 69.1307 27.9266C69.4194 27.9266 69.6787 27.8798 69.9085 27.7863C70.1382 27.6907 70.3202 27.5585 70.4544 27.3897C70.5886 27.2189 70.6558 27.0196 70.6558 26.7919C70.6558 26.5845 70.5978 26.4157 70.4819 26.2856C70.366 26.1554 70.2135 26.0497 70.0244 25.9684C69.8353 25.887 69.6309 25.8158 69.4113 25.7548L68.6426 25.5352C68.1546 25.3949 67.7683 25.1946 67.4836 24.9343C67.1989 24.6741 67.0565 24.3335 67.0565 23.9125C67.0565 23.5628 67.1511 23.2578 67.3402 22.9975C67.5314 22.7352 67.7876 22.5318 68.1089 22.3875C68.4322 22.241 68.7931 22.1678 69.1917 22.1678C69.5943 22.1678 69.9522 22.24 70.2653 22.3844C70.5785 22.5267 70.8266 22.722 71.0096 22.97C71.1946 23.2181 71.2922 23.4998 71.3024 23.8149H70.5703ZM74.3264 28.5976C73.875 28.5976 73.4856 28.498 73.1582 28.2987C72.8329 28.0974 72.5817 27.8168 72.4048 27.4568C72.2299 27.0949 72.1425 26.674 72.1425 26.1941C72.1425 25.7142 72.2299 25.2912 72.4048 24.9252C72.5817 24.5571 72.8278 24.2704 73.143 24.065C73.4602 23.8576 73.8303 23.7539 74.2532 23.7539C74.4972 23.7539 74.7382 23.7946 74.9761 23.8759C75.214 23.9573 75.4306 24.0895 75.6258 24.2725C75.821 24.4534 75.9766 24.6934 76.0925 24.9923C76.2084 25.2912 76.2663 25.6593 76.2663 26.0965V26.4015H72.6549V25.7792H75.5343C75.5343 25.5149 75.4814 25.279 75.3757 25.0716C75.272 24.8642 75.1235 24.7005 74.9304 24.5805C74.7392 24.4606 74.5135 24.4006 74.2532 24.4006C73.9665 24.4006 73.7184 24.4717 73.509 24.6141C73.3016 24.7544 73.1419 24.9374 73.0301 25.1631C72.9183 25.3888 72.8623 25.6308 72.8623 25.8891V26.3039C72.8623 26.6577 72.9233 26.9576 73.0453 27.2037C73.1694 27.4477 73.3412 27.6338 73.5608 27.7619C73.7804 27.8879 74.0356 27.951 74.3264 27.951C74.5155 27.951 74.6863 27.9245 74.8388 27.8717C74.9934 27.8168 75.1266 27.7354 75.2384 27.6277C75.3503 27.5178 75.4367 27.3816 75.4977 27.2189L76.1931 27.4141C76.1199 27.65 75.9969 27.8574 75.8241 28.0364C75.6512 28.2133 75.4377 28.3516 75.1835 28.4512C74.9293 28.5488 74.6436 28.5976 74.3264 28.5976ZM77.9094 22.2532V28.5H77.1896V22.2532H77.9094ZM81.0204 28.5976C80.5689 28.5976 80.1795 28.498 79.8521 28.2987C79.5268 28.0974 79.2757 27.8168 79.0988 27.4568C78.9239 27.0949 78.8364 26.674 78.8364 26.1941C78.8364 25.7142 78.9239 25.2912 79.0988 24.9252C79.2757 24.5571 79.5217 24.2704 79.8369 24.065C80.1541 23.8576 80.5242 23.7539 80.9472 23.7539C81.1912 23.7539 81.4321 23.7946 81.67 23.8759C81.908 23.9573 82.1245 24.0895 82.3197 24.2725C82.5149 24.4534 82.6705 24.6934 82.7864 24.9923C82.9023 25.2912 82.9603 25.6593 82.9603 26.0965V26.4015H79.3489V25.7792H82.2282C82.2282 25.5149 82.1754 25.279 82.0696 25.0716C81.9659 24.8642 81.8175 24.7005 81.6243 24.5805C81.4331 24.4606 81.2074 24.4006 80.9472 24.4006C80.6604 24.4006 80.4124 24.4717 80.2029 24.6141C79.9955 24.7544 79.8359 24.9374 79.724 25.1631C79.6122 25.3888 79.5563 25.6308 79.5563 25.8891V26.3039C79.5563 26.6577 79.6173 26.9576 79.7393 27.2037C79.8633 27.4477 80.0352 27.6338 80.2548 27.7619C80.4744 27.8879 80.7296 27.951 81.0204 27.951C81.2095 27.951 81.3803 27.9245 81.5328 27.8717C81.6873 27.8168 81.8205 27.7354 81.9324 27.6277C82.0442 27.5178 82.1306 27.3816 82.1916 27.2189L82.8871 27.4141C82.8139 27.65 82.6908 27.8574 82.518 28.0364C82.3452 28.2133 82.1316 28.3516 81.8775 28.4512C81.6233 28.5488 81.3376 28.5976 81.0204 28.5976ZM85.7868 28.5976C85.3476 28.5976 84.9694 28.4939 84.6521 28.2865C84.3349 28.0791 84.0909 27.7934 83.9201 27.4294C83.7493 27.0654 83.6639 26.6496 83.6639 26.1819C83.6639 25.706 83.7513 25.2861 83.9262 24.9221C84.1031 24.5561 84.3492 24.2704 84.6643 24.065C84.9816 23.8576 85.3516 23.7539 85.7746 23.7539C86.104 23.7539 86.4009 23.8149 86.6653 23.9369C86.9296 24.0589 87.1462 24.2298 87.3149 24.4494C87.4837 24.669 87.5884 24.9252 87.6291 25.218H86.9093C86.8544 25.0045 86.7324 24.8154 86.5432 24.6507C86.3562 24.4839 86.104 24.4006 85.7868 24.4006C85.5062 24.4006 85.2601 24.4738 85.0487 24.6202C84.8392 24.7646 84.6755 24.9689 84.5576 25.2333C84.4417 25.4956 84.3837 25.8036 84.3837 26.1575C84.3837 26.5194 84.4407 26.8346 84.5545 27.103C84.6704 27.3714 84.8331 27.5799 85.0426 27.7283C85.254 27.8767 85.5021 27.951 85.7868 27.951C85.9739 27.951 86.1437 27.9184 86.2962 27.8534C86.4487 27.7883 86.5778 27.6948 86.6836 27.5727C86.7893 27.4507 86.8645 27.3043 86.9093 27.1335H87.6291C87.5884 27.4101 87.4878 27.6592 87.3271 27.8808C87.1685 28.1004 86.9581 28.2753 86.6958 28.4054C86.4355 28.5336 86.1325 28.5976 85.7868 28.5976ZM90.5471 23.8149V24.425H88.1192V23.8149H90.5471ZM88.8268 22.6925H89.5467V27.1579C89.5467 27.3613 89.5762 27.5138 89.6351 27.6154C89.6961 27.7151 89.7734 27.7822 89.867 27.8168C89.9625 27.8493 90.0632 27.8656 90.1689 27.8656C90.2482 27.8656 90.3133 27.8615 90.3641 27.8534C90.415 27.8432 90.4556 27.8351 90.4861 27.829L90.6326 28.4756C90.5837 28.4939 90.5156 28.5122 90.4282 28.5305C90.3408 28.5508 90.2299 28.561 90.0957 28.561C89.8924 28.561 89.6931 28.5173 89.4979 28.4298C89.3047 28.3424 89.1441 28.2092 89.016 28.0303C88.8899 27.8513 88.8268 27.6256 88.8268 27.3531V22.6925ZM93.3722 28.5976C92.9207 28.5976 92.5313 28.498 92.2039 28.2987C91.8786 28.0974 91.6275 27.8168 91.4505 27.4568C91.2757 27.0949 91.1882 26.674 91.1882 26.1941C91.1882 25.7142 91.2757 25.2912 91.4505 24.9252C91.6275 24.5571 91.8735 24.2704 92.1887 24.065C92.5059 23.8576 92.876 23.7539 93.299 23.7539C93.543 23.7539 93.7839 23.7946 94.0218 23.8759C94.2598 23.9573 94.4763 24.0895 94.6715 24.2725C94.8667 24.4534 95.0223 24.6934 95.1382 24.9923C95.2541 25.2912 95.3121 25.6593 95.3121 26.0965V26.4015H91.7007V25.7792H94.58C94.58 25.5149 94.5272 25.279 94.4214 25.0716C94.3177 24.8642 94.1693 24.7005 93.9761 24.5805C93.7849 24.4606 93.5592 24.4006 93.299 24.4006C93.0122 24.4006 92.7642 24.4717 92.5547 24.6141C92.3473 24.7544 92.1877 24.9374 92.0758 25.1631C91.964 25.3888 91.9081 25.6308 91.9081 25.8891V26.3039C91.9081 26.6577 91.9691 26.9576 92.0911 27.2037C92.2151 27.4477 92.3869 27.6338 92.6066 27.7619C92.8262 27.8879 93.0814 27.951 93.3722 27.951C93.5613 27.951 93.7321 27.9245 93.8846 27.8717C94.0391 27.8168 94.1723 27.7354 94.2842 27.6277C94.396 27.5178 94.4824 27.3816 94.5434 27.2189L95.2389 27.4141C95.1657 27.65 95.0426 27.8574 94.8698 28.0364C94.6969 28.2133 94.4834 28.3516 94.2293 28.4512C93.9751 28.5488 93.6894 28.5976 93.3722 28.5976ZM98.0044 28.5976C97.614 28.5976 97.2693 28.499 96.9704 28.3017C96.6715 28.1025 96.4376 27.8218 96.2688 27.4599C96.1001 27.0959 96.0157 26.6658 96.0157 26.1697C96.0157 25.6776 96.1001 25.2505 96.2688 24.8886C96.4376 24.5266 96.6725 24.247 96.9734 24.0498C97.2744 23.8526 97.6221 23.7539 98.0166 23.7539C98.3216 23.7539 98.5626 23.8048 98.7395 23.9064C98.9184 24.0061 99.0547 24.12 99.1482 24.2481C99.2438 24.3741 99.318 24.4778 99.3709 24.5592H99.4319V22.2532H100.152V28.5H99.4563V27.7802H99.3709C99.318 27.8656 99.2428 27.9733 99.1452 28.1035C99.0476 28.2316 98.9083 28.3465 98.7273 28.4481C98.5463 28.5478 98.3053 28.5976 98.0044 28.5976ZM98.102 27.951C98.3907 27.951 98.6348 27.8757 98.834 27.7253C99.0333 27.5727 99.1848 27.3623 99.2885 27.0939C99.3922 26.8234 99.4441 26.5113 99.4441 26.1575C99.4441 25.8077 99.3932 25.5017 99.2916 25.2394C99.1899 24.975 99.0394 24.7696 98.8401 24.6232C98.6409 24.4748 98.3948 24.4006 98.102 24.4006C97.797 24.4006 97.5428 24.4789 97.3395 24.6354C97.1381 24.79 96.9867 25.0004 96.885 25.2668C96.7853 25.5312 96.7355 25.828 96.7355 26.1575C96.7355 26.491 96.7864 26.7939 96.888 27.0664C96.9917 27.3369 97.1442 27.5524 97.3456 27.7131C97.5489 27.8717 97.801 27.951 98.102 27.951Z" fill="white"/>
<line x1="109.383" y1="18.7324" x2="109.383" y2="33.2681" stroke="#D9D9E0" stroke-opacity="0.2" stroke-width="0.660714"/>
<path d="M127.554 25.5608C128.284 25.5608 128.875 24.9692 128.875 24.2394C128.875 23.5096 128.284 22.918 127.554 22.918C126.824 22.918 126.232 23.5096 126.232 24.2394C126.232 24.9692 126.824 25.5608 127.554 25.5608Z" stroke="white" stroke-width="0.825893" stroke-linecap="round" stroke-linejoin="round"/>
<path d="M127.555 22.4775V22.918" stroke="white" stroke-width="0.825893" stroke-linecap="round" stroke-linejoin="round"/>
<path d="M127.555 25.5615V26.002" stroke="white" stroke-width="0.825893" stroke-linecap="round" stroke-linejoin="round"/>
<path d="M129.315 24.2393H128.875" stroke="white" stroke-width="0.825893" stroke-linecap="round" stroke-linejoin="round"/>
<path d="M126.233 24.2393H125.793" stroke="white" stroke-width="0.825893" stroke-linecap="round" stroke-linejoin="round"/>
<path d="M128.876 22.918L128.488 23.3056" stroke="white" stroke-width="0.825893" stroke-linecap="round" stroke-linejoin="round"/>
<path d="M126.62 25.1729L126.232 25.5605" stroke="white" stroke-width="0.825893" stroke-linecap="round" stroke-linejoin="round"/>
<path d="M128.876 25.5605L128.488 25.1729" stroke="white" stroke-width="0.825893" stroke-linecap="round" stroke-linejoin="round"/>
<path d="M126.62 23.3056L126.232 22.918" stroke="white" stroke-width="0.825893" stroke-linecap="round" stroke-linejoin="round"/>
<path d="M128.171 27.2778C128.523 27.9386 128.876 28.2028 128.876 28.2028H120.947C120.947 28.2028 122.269 27.3219 122.269 24.2386C122.269 22.785 123.458 21.5957 124.912 21.5957C125.22 21.5957 125.484 21.6398 125.748 21.7278" stroke="white" stroke-width="0.825893" stroke-linecap="round" stroke-linejoin="round"/>
<path d="M124.162 29.9648C124.236 30.0989 124.344 30.2108 124.476 30.2887C124.608 30.3666 124.758 30.4077 124.911 30.4077C125.064 30.4077 125.214 30.3666 125.346 30.2887C125.478 30.2108 125.586 30.0989 125.66 29.9648" stroke="white" stroke-width="0.825893" stroke-linecap="round" stroke-linejoin="round"/>
<path d="M144.732 29.5243H142.529C142.296 29.5243 142.072 29.4315 141.906 29.2662C141.741 29.101 141.648 28.877 141.648 28.6433V22.9171C141.648 22.6835 141.741 22.4594 141.906 22.2942C142.072 22.129 142.296 22.0362 142.529 22.0362H144.247C144.395 22.0347 144.54 22.0703 144.67 22.1395C144.8 22.2088 144.911 22.3095 144.992 22.4326L145.348 22.9612C145.429 23.083 145.538 23.183 145.666 23.2522C145.795 23.3213 145.938 23.3576 146.084 23.3576H149.577C149.811 23.3576 150.035 23.4504 150.2 23.6156C150.365 23.7808 150.458 24.0049 150.458 24.2386V24.4588" stroke="white" stroke-width="0.825893" stroke-linecap="round" stroke-linejoin="round"/>
<path d="M146.055 25.1201V26.882H147.817" stroke="white" stroke-width="0.825893" stroke-linecap="round" stroke-linejoin="round"/>
<path d="M146.055 26.881L146.731 26.174C146.984 25.931 147.291 25.7519 147.627 25.6516C147.963 25.5513 148.318 25.5327 148.663 25.5973C149.007 25.6619 149.332 25.8079 149.609 26.0232C149.886 26.2384 150.107 26.5167 150.255 26.8348" stroke="white" stroke-width="0.825893" stroke-linecap="round" stroke-linejoin="round"/>
<path d="M150.459 30.4055V28.6436H148.697" stroke="white" stroke-width="0.825893" stroke-linecap="round" stroke-linejoin="round"/>
<path d="M150.458 28.6436L149.782 29.3505C149.529 29.5935 149.222 29.7726 148.886 29.873C148.549 29.9733 148.194 29.9919 147.85 29.9273C147.505 29.8626 147.181 29.7166 146.904 29.5014C146.627 29.2862 146.405 29.0079 146.258 28.6898" stroke="white" stroke-width="0.825893" stroke-linecap="round" stroke-linejoin="round"/>
<g clip-path="url(#clip2_12529_436910)">
<path d="M171.158 22.0361H163.23C162.986 22.0361 162.789 22.2333 162.789 22.4766V23.798C162.789 24.0413 162.986 24.2385 163.23 24.2385H171.158C171.401 24.2385 171.599 24.0413 171.599 23.798V22.4766C171.599 22.2333 171.401 22.0361 171.158 22.0361Z" stroke="white" stroke-width="0.825893" stroke-linecap="round" stroke-linejoin="round"/>
<path d="M163.672 24.2373V29.0825C163.672 29.3162 163.765 29.5403 163.93 29.7055C164.095 29.8707 164.319 29.9635 164.553 29.9635H165.434" stroke="white" stroke-width="0.825893" stroke-linecap="round" stroke-linejoin="round"/>
<path d="M170.719 24.2373V29.0825C170.719 29.3162 170.626 29.5403 170.461 29.7055C170.296 29.8707 170.072 29.9635 169.838 29.9635H168.957" stroke="white" stroke-width="0.825893" stroke-linecap="round" stroke-linejoin="round"/>
<path d="M168.516 28.6434L167.194 29.9648L165.873 28.6434" stroke="white" stroke-width="0.825893" stroke-linecap="round" stroke-linejoin="round"/>
<path d="M167.195 29.9648L167.195 26.0006" stroke="white" stroke-width="0.825893" stroke-linecap="round" stroke-linejoin="round"/>
</g>
<line x1="183.383" y1="18.7324" x2="183.383" y2="33.2681" stroke="#D9D9E0" stroke-opacity="0.2" stroke-width="0.660714"/>
<path d="M194.947 23.3574H202.876" stroke="white" stroke-width="0.825893" stroke-linecap="round" stroke-linejoin="round"/>
<path d="M201.993 23.3574V29.5241C201.993 29.9646 201.552 30.405 201.112 30.405H196.707C196.267 30.405 195.826 29.9646 195.826 29.5241V23.3574" stroke="white" stroke-width="0.825893" stroke-linecap="round" stroke-linejoin="round"/>
<path d="M197.148 23.3566V22.4757C197.148 22.0352 197.589 21.5947 198.029 21.5947H199.791C200.232 21.5947 200.672 22.0352 200.672 22.4757V23.3566" stroke="white" stroke-width="0.825893" stroke-linecap="round" stroke-linejoin="round"/>
<path d="M198.031 25.5596V28.2024" stroke="white" stroke-width="0.825893" stroke-linecap="round" stroke-linejoin="round"/>
<path d="M199.791 25.5596V28.2024" stroke="white" stroke-width="0.825893" stroke-linecap="round" stroke-linejoin="round"/>
<line x1="215.098" y1="18.7324" x2="215.098" y2="33.2681" stroke="#D9D9E0" stroke-opacity="0.2" stroke-width="0.660714"/>
<path d="M223.028 20.5003C223.028 19.2231 224.063 18.1878 225.34 18.1878H295.197C296.474 18.1878 297.51 19.2231 297.51 20.5003V31.5003C297.51 32.7774 296.474 33.8128 295.197 33.8128H225.34C224.063 33.8128 223.028 32.7774 223.028 31.5003V20.5003Z" stroke="#D9D9E0" stroke-opacity="0.2" stroke-width="0.660714"/>
<g clip-path="url(#clip3_12529_436910)">
<path d="M231.946 29.3044C233.771 29.3044 235.25 27.8253 235.25 26.0008C235.25 24.1763 233.771 22.6973 231.946 22.6973C230.122 22.6973 228.643 24.1763 228.643 26.0008C228.643 27.8253 230.122 29.3044 231.946 29.3044Z" stroke="white" stroke-width="0.660714" stroke-linecap="round" stroke-linejoin="round"/>
<path d="M231.947 27.9828C232.473 27.9828 232.977 27.774 233.349 27.4023C233.721 27.0306 233.929 26.5264 233.929 26.0007C233.929 25.475 233.721 24.9708 233.349 24.5991C232.977 24.2274 232.473 24.0186 231.947 24.0186V27.9828Z" fill="white" stroke="white" stroke-width="0.660714" stroke-linecap="round" stroke-linejoin="round"/>
</g>
<path d="M239.485 28.5V22.2532H241.596C242.084 22.2532 242.485 22.3366 242.798 22.5034C243.111 22.6681 243.343 22.8948 243.493 23.1835C243.644 23.4723 243.719 23.8007 243.719 24.1688C243.719 24.5368 243.644 24.8632 243.493 25.1479C243.343 25.4325 243.112 25.6562 242.801 25.8189C242.49 25.9795 242.092 26.0599 241.608 26.0599H239.9V25.3766H241.584C241.917 25.3766 242.186 25.3278 242.389 25.2302C242.595 25.1326 242.743 24.9943 242.834 24.8154C242.928 24.6344 242.975 24.4189 242.975 24.1688C242.975 23.9186 242.928 23.7 242.834 23.513C242.741 23.3259 242.591 23.1815 242.386 23.0798C242.181 22.9761 241.909 22.9243 241.572 22.9243H240.242V28.5H239.485ZM242.426 25.6938L243.963 28.5H243.085L241.572 25.6938H242.426ZM246.624 28.5976C246.173 28.5976 245.783 28.498 245.456 28.2987C245.131 28.0974 244.879 27.8168 244.702 27.4568C244.528 27.0949 244.44 26.674 244.44 26.1941C244.44 25.7142 244.528 25.2912 244.702 24.9252C244.879 24.5571 245.125 24.2704 245.441 24.065C245.758 23.8576 246.128 23.7539 246.551 23.7539C246.795 23.7539 247.036 23.7946 247.274 23.8759C247.512 23.9573 247.728 24.0895 247.923 24.2725C248.119 24.4534 248.274 24.6934 248.39 24.9923C248.506 25.2912 248.564 25.6593 248.564 26.0965V26.4015H244.953V25.7792H247.832C247.832 25.5149 247.779 25.279 247.673 25.0716C247.57 24.8642 247.421 24.7005 247.228 24.5805C247.037 24.4606 246.811 24.4006 246.551 24.4006C246.264 24.4006 246.016 24.4717 245.807 24.6141C245.599 24.7544 245.44 24.9374 245.328 25.1631C245.216 25.3888 245.16 25.6308 245.16 25.8891V26.3039C245.16 26.6577 245.221 26.9576 245.343 27.2037C245.467 27.4477 245.639 27.6338 245.859 27.7619C246.078 27.8879 246.333 27.951 246.624 27.951C246.813 27.951 246.984 27.9245 247.137 27.8717C247.291 27.8168 247.424 27.7354 247.536 27.6277C247.648 27.5178 247.734 27.3816 247.795 27.2189L248.491 27.4141C248.418 27.65 248.295 27.8574 248.122 28.0364C247.949 28.2133 247.735 28.3516 247.481 28.4512C247.227 28.5488 246.941 28.5976 246.624 28.5976ZM250.207 22.2532V28.5H249.487V22.2532H250.207ZM253.318 28.5976C252.867 28.5976 252.477 28.498 252.15 28.2987C251.824 28.0974 251.573 27.8168 251.396 27.4568C251.222 27.0949 251.134 26.674 251.134 26.1941C251.134 25.7142 251.222 25.2912 251.396 24.9252C251.573 24.5571 251.819 24.2704 252.135 24.065C252.452 23.8576 252.822 23.7539 253.245 23.7539C253.489 23.7539 253.73 23.7946 253.968 23.8759C254.206 23.9573 254.422 24.0895 254.617 24.2725C254.813 24.4534 254.968 24.6934 255.084 24.9923C255.2 25.2912 255.258 25.6593 255.258 26.0965V26.4015H251.647V25.7792H254.526C254.526 25.5149 254.473 25.279 254.367 25.0716C254.264 24.8642 254.115 24.7005 253.922 24.5805C253.731 24.4606 253.505 24.4006 253.245 24.4006C252.958 24.4006 252.71 24.4717 252.501 24.6141C252.293 24.7544 252.134 24.9374 252.022 25.1631C251.91 25.3888 251.854 25.6308 251.854 25.8891V26.3039C251.854 26.6577 251.915 26.9576 252.037 27.2037C252.161 27.4477 252.333 27.6338 252.552 27.7619C252.772 27.8879 253.027 27.951 253.318 27.951C253.507 27.951 253.678 27.9245 253.83 27.8717C253.985 27.8168 254.118 27.7354 254.23 27.6277C254.342 27.5178 254.428 27.3816 254.489 27.2189L255.185 27.4141C255.112 27.65 254.989 27.8574 254.816 28.0364C254.643 28.2133 254.429 28.3516 254.175 28.4512C253.921 28.5488 253.635 28.5976 253.318 28.5976ZM257.56 28.6098C257.263 28.6098 256.994 28.5539 256.752 28.442C256.51 28.3282 256.317 28.1645 256.175 27.951C256.033 27.7354 255.962 27.4751 255.962 27.1701C255.962 26.9017 256.014 26.6841 256.12 26.5174C256.226 26.3486 256.367 26.2164 256.544 26.1209C256.721 26.0253 256.916 25.9541 257.13 25.9074C257.345 25.8586 257.562 25.8199 257.779 25.7914C258.064 25.7548 258.295 25.7274 258.472 25.7091C258.651 25.6888 258.781 25.6552 258.862 25.6084C258.946 25.5617 258.987 25.4803 258.987 25.3644V25.34C258.987 25.0391 258.905 24.8052 258.74 24.6385C258.578 24.4717 258.331 24.3884 257.999 24.3884C257.655 24.3884 257.386 24.4636 257.191 24.6141C256.996 24.7646 256.858 24.9252 256.779 25.096L256.096 24.852C256.218 24.5673 256.38 24.3457 256.584 24.1871C256.789 24.0264 257.013 23.9146 257.255 23.8515C257.499 23.7865 257.739 23.7539 257.975 23.7539C258.125 23.7539 258.298 23.7722 258.493 23.8088C258.69 23.8434 258.881 23.9156 259.064 24.0254C259.249 24.1352 259.402 24.3009 259.524 24.5226C259.646 24.7442 259.707 25.0411 259.707 25.4132V28.5H258.987V27.8656H258.951C258.902 27.9672 258.821 28.076 258.707 28.1919C258.593 28.3078 258.441 28.4065 258.252 28.4878C258.063 28.5691 257.832 28.6098 257.56 28.6098ZM257.67 27.9632C257.954 27.9632 258.194 27.9072 258.389 27.7954C258.587 27.6836 258.735 27.5392 258.835 27.3623C258.936 27.1854 258.987 26.9993 258.987 26.8041V26.1453C258.957 26.1819 258.89 26.2154 258.786 26.2459C258.684 26.2744 258.566 26.2998 258.432 26.3222C258.3 26.3425 258.171 26.3608 258.045 26.3771C257.921 26.3913 257.82 26.4035 257.743 26.4137C257.556 26.4381 257.381 26.4777 257.218 26.5326C257.058 26.5855 256.927 26.6658 256.828 26.7736C256.73 26.8793 256.681 27.0237 256.681 27.2067C256.681 27.4568 256.774 27.646 256.959 27.7741C257.146 27.9001 257.383 27.9632 257.67 27.9632ZM264.168 24.8642L263.521 25.0472C263.481 24.9394 263.421 24.8347 263.341 24.733C263.264 24.6293 263.158 24.5439 263.024 24.4768C262.89 24.4097 262.718 24.3762 262.509 24.3762C262.222 24.3762 261.983 24.4423 261.792 24.5744C261.603 24.7046 261.508 24.8703 261.508 25.0716C261.508 25.2505 261.573 25.3919 261.703 25.4956C261.833 25.5993 262.037 25.6857 262.313 25.7548L263.009 25.9257C263.428 26.0273 263.74 26.1829 263.945 26.3923C264.151 26.5997 264.253 26.8671 264.253 27.1945C264.253 27.4629 264.176 27.7029 264.021 27.9144C263.869 28.1258 263.655 28.2926 263.381 28.4146C263.106 28.5366 262.787 28.5976 262.423 28.5976C261.945 28.5976 261.55 28.4939 261.237 28.2865C260.923 28.0791 260.725 27.7761 260.642 27.3775L261.325 27.2067C261.39 27.4589 261.513 27.648 261.694 27.7741C261.877 27.9001 262.116 27.9632 262.411 27.9632C262.746 27.9632 263.013 27.892 263.21 27.7497C263.409 27.6053 263.509 27.4324 263.509 27.2311C263.509 27.0685 263.452 26.9322 263.338 26.8224C263.224 26.7106 263.049 26.6272 262.814 26.5723L262.033 26.3893C261.604 26.2876 261.288 26.13 261.087 25.9165C260.888 25.701 260.788 25.4315 260.788 25.1082C260.788 24.8439 260.862 24.61 261.011 24.4067C261.161 24.2033 261.366 24.0437 261.624 23.9278C261.884 23.8119 262.179 23.7539 262.509 23.7539C262.972 23.7539 263.336 23.8556 263.601 24.0589C263.867 24.2623 264.056 24.5307 264.168 24.8642ZM267.129 28.5976C266.678 28.5976 266.289 28.498 265.961 28.2987C265.636 28.0974 265.385 27.8168 265.208 27.4568C265.033 27.0949 264.945 26.674 264.945 26.1941C264.945 25.7142 265.033 25.2912 265.208 24.9252C265.385 24.5571 265.631 24.2704 265.946 24.065C266.263 23.8576 266.633 23.7539 267.056 23.7539C267.3 23.7539 267.541 23.7946 267.779 23.8759C268.017 23.9573 268.234 24.0895 268.429 24.2725C268.624 24.4534 268.779 24.6934 268.895 24.9923C269.011 25.2912 269.069 25.6593 269.069 26.0965V26.4015H265.458V25.7792H268.337C268.337 25.5149 268.284 25.279 268.179 25.0716C268.075 24.8642 267.926 24.7005 267.733 24.5805C267.542 24.4606 267.316 24.4006 267.056 24.4006C266.769 24.4006 266.521 24.4717 266.312 24.6141C266.104 24.7544 265.945 24.9374 265.833 25.1631C265.721 25.3888 265.665 25.6308 265.665 25.8891V26.3039C265.665 26.6577 265.726 26.9576 265.848 27.2037C265.972 27.4477 266.144 27.6338 266.364 27.7619C266.583 27.8879 266.839 27.951 267.129 27.951C267.318 27.951 267.489 27.9245 267.642 27.8717C267.796 27.8168 267.93 27.7354 268.041 27.6277C268.153 27.5178 268.24 27.3816 268.301 27.2189L268.996 27.4141C268.923 27.65 268.8 27.8574 268.627 28.0364C268.454 28.2133 268.241 28.3516 267.986 28.4512C267.732 28.5488 267.447 28.5976 267.129 28.5976ZM276.067 23.8149L274.335 28.5H273.603L271.87 23.8149H272.651L273.945 27.5483H273.993L275.287 23.8149H276.067ZM278.871 28.5854C278.412 28.5854 278.02 28.4603 277.697 28.2102C277.373 27.9581 277.126 27.5931 276.956 27.1152C276.785 26.6353 276.699 26.0558 276.699 25.3766C276.699 24.7015 276.785 24.125 276.956 23.6472C277.128 23.1673 277.377 22.8013 277.7 22.5491C278.025 22.2949 278.416 22.1678 278.871 22.1678C279.327 22.1678 279.716 22.2949 280.039 22.5491C280.365 22.8013 280.613 23.1673 280.784 23.6472C280.956 24.125 281.043 24.7015 281.043 25.3766C281.043 26.0558 280.957 26.6353 280.787 27.1152C280.616 27.5931 280.369 27.9581 280.045 28.2102C279.722 28.4603 279.331 28.5854 278.871 28.5854ZM278.871 27.9144C279.327 27.9144 279.68 27.6948 279.933 27.2555C280.185 26.8163 280.311 26.19 280.311 25.3766C280.311 24.8357 280.253 24.3751 280.137 23.9949C280.023 23.6146 279.858 23.3249 279.643 23.1256C279.429 22.9263 279.172 22.8267 278.871 22.8267C278.42 22.8267 278.067 23.0493 277.813 23.4947C277.559 23.938 277.431 24.5653 277.431 25.3766C277.431 25.9175 277.488 26.3771 277.602 26.7553C277.716 27.1335 277.88 27.4213 278.093 27.6185C278.309 27.8157 278.568 27.9144 278.871 27.9144ZM282.349 28.5488C282.198 28.5488 282.069 28.4949 281.961 28.3871C281.854 28.2794 281.8 28.1502 281.8 27.9998C281.8 27.8493 281.854 27.7202 281.961 27.6124C282.069 27.5046 282.198 27.4507 282.349 27.4507C282.499 27.4507 282.628 27.5046 282.736 27.6124C282.844 27.7202 282.898 27.8493 282.898 27.9998C282.898 28.0994 282.872 28.1909 282.822 28.2743C282.773 28.3577 282.707 28.4248 282.623 28.4756C282.542 28.5244 282.451 28.5488 282.349 28.5488ZM284.006 28.5V27.951L286.068 25.6938C286.31 25.4295 286.509 25.1997 286.665 25.0045C286.822 24.8073 286.938 24.6222 287.013 24.4494C287.09 24.2745 287.129 24.0915 287.129 23.9003C287.129 23.6807 287.076 23.4906 286.97 23.33C286.867 23.1693 286.724 23.0453 286.543 22.9578C286.362 22.8704 286.159 22.8267 285.933 22.8267C285.693 22.8267 285.484 22.8765 285.305 22.9761C285.128 23.0737 284.991 23.211 284.893 23.3879C284.798 23.5648 284.75 23.7722 284.75 24.0101H284.03C284.03 23.6441 284.114 23.3228 284.283 23.0463C284.452 22.7697 284.682 22.5542 284.973 22.3997C285.265 22.2451 285.594 22.1678 285.958 22.1678C286.324 22.1678 286.648 22.2451 286.931 22.3997C287.213 22.5542 287.435 22.7626 287.596 23.0249C287.756 23.2873 287.837 23.5791 287.837 23.9003C287.837 24.1301 287.795 24.3548 287.712 24.5744C287.63 24.792 287.488 25.035 287.285 25.3034C287.083 25.5698 286.804 25.8952 286.446 26.2795L285.043 27.7802V27.829H287.946V28.5H284.006ZM291.231 22.2532V28.5H290.474V23.0463H290.437L288.912 24.0589V23.2903L290.474 22.2532H291.231Z" fill="white"/>
<path d="M306.098 20.5003C306.098 19.2231 307.133 18.1878 308.41 18.1878H371.268C372.545 18.1878 373.58 19.2231 373.58 20.5003V31.5003C373.58 32.7774 372.545 33.8128 371.268 33.8128H308.41C307.133 33.8128 306.098 32.7774 306.098 31.5003V20.5003Z" stroke="#D9D9E0" stroke-opacity="0.2" stroke-width="0.660714"/>
<g clip-path="url(#clip4_12529_436910)">
<path d="M317.329 23.0273H312.704C312.339 23.0273 312.043 23.3232 312.043 23.6881V28.3131C312.043 28.678 312.339 28.9738 312.704 28.9738H317.329C317.694 28.9738 317.989 28.678 317.989 28.3131V23.6881C317.989 23.3232 317.694 23.0273 317.329 23.0273Z" stroke="white" stroke-width="0.660714" stroke-linecap="round" stroke-linejoin="round"/>
<path d="M313.953 24.3486H313.439C313.398 24.3486 313.365 24.3815 313.365 24.422V24.9359C313.365 24.9765 313.398 25.0093 313.439 25.0093H313.953C313.993 25.0093 314.026 24.9765 314.026 24.9359V24.422C314.026 24.3815 313.993 24.3486 313.953 24.3486Z" fill="white" stroke="white" stroke-width="0.660714" stroke-linecap="round" stroke-linejoin="round"/>
<path d="M313.953 26.9912H313.439C313.398 26.9912 313.365 27.0241 313.365 27.0646V27.5785C313.365 27.6191 313.398 27.6519 313.439 27.6519H313.953C313.993 27.6519 314.026 27.6191 314.026 27.5785V27.0646C314.026 27.0241 313.993 26.9912 313.953 26.9912Z" fill="white" stroke="white" stroke-width="0.660714" stroke-linecap="round" stroke-linejoin="round"/>
<path d="M316.595 24.3486H316.081C316.041 24.3486 316.008 24.3815 316.008 24.422V24.9359C316.008 24.9765 316.041 25.0093 316.081 25.0093H316.595C316.636 25.0093 316.669 24.9765 316.669 24.9359V24.422C316.669 24.3815 316.636 24.3486 316.595 24.3486Z" fill="white" stroke="white" stroke-width="0.660714" stroke-linecap="round" stroke-linejoin="round"/>
<path d="M316.595 26.9912H316.081C316.041 26.9912 316.008 27.0241 316.008 27.0646V27.5785C316.008 27.6191 316.041 27.6519 316.081 27.6519H316.595C316.636 27.6519 316.669 27.6191 316.669 27.5785V27.0646C316.669 27.0241 316.636 26.9912 316.595 26.9912Z" fill="white" stroke="white" stroke-width="0.66" stroke-linecap="round" stroke-linejoin="round"/>
</g>
<path d="M323.367 22.2532V28.5H322.61V22.2532H323.367ZM325.334 25.6816V28.5H324.614V23.8149H325.309V24.547H325.37C325.48 24.3091 325.647 24.1179 325.871 23.9735C326.094 23.8271 326.383 23.7539 326.737 23.7539C327.054 23.7539 327.332 23.819 327.57 23.9491C327.807 24.0772 327.993 24.2725 328.125 24.5348C328.257 24.7951 328.323 25.1245 328.323 25.523V28.5H327.603V25.5718C327.603 25.2038 327.508 24.9171 327.316 24.7117C327.125 24.5043 326.863 24.4006 326.529 24.4006C326.3 24.4006 326.094 24.4504 325.913 24.55C325.734 24.6497 325.593 24.7951 325.489 24.9862C325.386 25.1773 325.334 25.4092 325.334 25.6816ZM331.504 23.8149V24.425H329.076V23.8149H331.504ZM329.784 22.6925H330.504V27.1579C330.504 27.3613 330.533 27.5138 330.592 27.6154C330.653 27.7151 330.73 27.7822 330.824 27.8168C330.919 27.8493 331.02 27.8656 331.126 27.8656C331.205 27.8656 331.27 27.8615 331.321 27.8534C331.372 27.8432 331.413 27.8351 331.443 27.829L331.589 28.4756C331.541 28.4939 331.473 28.5122 331.385 28.5305C331.298 28.5508 331.187 28.561 331.053 28.561C330.849 28.561 330.65 28.5173 330.455 28.4298C330.262 28.3424 330.101 28.2092 329.973 28.0303C329.847 27.8513 329.784 27.6256 329.784 27.3531V22.6925ZM334.329 28.5976C333.878 28.5976 333.488 28.498 333.161 28.2987C332.835 28.0974 332.584 27.8168 332.407 27.4568C332.233 27.0949 332.145 26.674 332.145 26.1941C332.145 25.7142 332.233 25.2912 332.407 24.9252C332.584 24.5571 332.83 24.2704 333.146 24.065C333.463 23.8576 333.833 23.7539 334.256 23.7539C334.5 23.7539 334.741 23.7946 334.979 23.8759C335.217 23.9573 335.433 24.0895 335.628 24.2725C335.824 24.4534 335.979 24.6934 336.095 24.9923C336.211 25.2912 336.269 25.6593 336.269 26.0965V26.4015H332.658V25.7792H335.537C335.537 25.5149 335.484 25.279 335.378 25.0716C335.275 24.8642 335.126 24.7005 334.933 24.5805C334.742 24.4606 334.516 24.4006 334.256 24.4006C333.969 24.4006 333.721 24.4717 333.512 24.6141C333.304 24.7544 333.145 24.9374 333.033 25.1631C332.921 25.3888 332.865 25.6308 332.865 25.8891V26.3039C332.865 26.6577 332.926 26.9576 333.048 27.2037C333.172 27.4477 333.344 27.6338 333.563 27.7619C333.783 27.8879 334.038 27.951 334.329 27.951C334.518 27.951 334.689 27.9245 334.841 27.8717C334.996 27.8168 335.129 27.7354 335.241 27.6277C335.353 27.5178 335.439 27.3816 335.5 27.2189L336.196 27.4141C336.123 27.65 336 27.8574 335.827 28.0364C335.654 28.2133 335.44 28.3516 335.186 28.4512C334.932 28.5488 334.646 28.5976 334.329 28.5976ZM339.083 30.3545C338.736 30.3545 338.437 30.3098 338.187 30.2203C337.936 30.1329 337.728 30.017 337.561 29.8726C337.397 29.7302 337.265 29.5777 337.168 29.4151L337.741 29.0124C337.806 29.0978 337.889 29.1954 337.988 29.3052C338.088 29.4171 338.224 29.5137 338.397 29.595C338.572 29.6784 338.801 29.7201 339.083 29.7201C339.462 29.7201 339.774 29.6286 340.02 29.4456C340.266 29.2625 340.389 28.9758 340.389 28.5854V27.6338H340.328C340.275 27.7192 340.2 27.8249 340.102 27.951C340.006 28.075 339.868 28.1858 339.687 28.2834C339.508 28.379 339.266 28.4268 338.961 28.4268C338.583 28.4268 338.243 28.3373 337.943 28.1584C337.644 27.9794 337.407 27.7192 337.232 27.3775C337.059 27.0359 336.973 26.6211 336.973 26.1331C336.973 25.6532 337.057 25.2353 337.226 24.8794C337.395 24.5216 337.629 24.245 337.93 24.0498C338.231 23.8526 338.579 23.7539 338.974 23.7539C339.279 23.7539 339.521 23.8048 339.699 23.9064C339.88 24.0061 340.019 24.12 340.114 24.2481C340.212 24.3741 340.287 24.4778 340.34 24.5592H340.413V23.8149H341.109V28.6342C341.109 29.0368 341.017 29.3642 340.834 29.6164C340.653 29.8705 340.409 30.0566 340.102 30.1745C339.797 30.2945 339.457 30.3545 339.083 30.3545ZM339.059 27.7802C339.348 27.7802 339.592 27.7141 339.791 27.5819C339.99 27.4497 340.142 27.2596 340.245 27.0115C340.349 26.7634 340.401 26.4666 340.401 26.1209C340.401 25.7833 340.35 25.4854 340.248 25.2272C340.147 24.9689 339.996 24.7666 339.797 24.6202C339.598 24.4738 339.352 24.4006 339.059 24.4006C338.754 24.4006 338.5 24.4778 338.296 24.6324C338.095 24.7869 337.944 24.9943 337.842 25.2546C337.742 25.5149 337.692 25.8036 337.692 26.1209C337.692 26.4462 337.743 26.734 337.845 26.9841C337.949 27.2321 338.101 27.4274 338.302 27.5697C338.506 27.71 338.758 27.7802 339.059 27.7802ZM342.255 28.5V23.8149H342.95V24.5226H342.999C343.084 24.2908 343.239 24.1027 343.462 23.9583C343.686 23.8139 343.938 23.7417 344.219 23.7417C344.272 23.7417 344.338 23.7427 344.417 23.7448C344.496 23.7468 344.556 23.7499 344.597 23.7539V24.486C344.573 24.4799 344.517 24.4707 344.429 24.4585C344.344 24.4443 344.253 24.4372 344.158 24.4372C343.93 24.4372 343.727 24.485 343.548 24.5805C343.371 24.6741 343.231 24.8042 343.127 24.971C343.025 25.1357 342.974 25.3238 342.974 25.5352V28.5H342.255ZM346.657 28.6098C346.36 28.6098 346.091 28.5539 345.849 28.442C345.607 28.3282 345.415 28.1645 345.272 27.951C345.13 27.7354 345.059 27.4751 345.059 27.1701C345.059 26.9017 345.112 26.6841 345.218 26.5174C345.323 26.3486 345.465 26.2164 345.642 26.1209C345.818 26.0253 346.014 25.9541 346.227 25.9074C346.443 25.8586 346.659 25.8199 346.877 25.7914C347.162 25.7548 347.392 25.7274 347.569 25.7091C347.748 25.6888 347.878 25.6552 347.96 25.6084C348.043 25.5617 348.085 25.4803 348.085 25.3644V25.34C348.085 25.0391 348.002 24.8052 347.838 24.6385C347.675 24.4717 347.428 24.3884 347.096 24.3884C346.753 24.3884 346.483 24.4636 346.288 24.6141C346.093 24.7646 345.956 24.9252 345.876 25.096L345.193 24.852C345.315 24.5673 345.478 24.3457 345.681 24.1871C345.887 24.0264 346.11 23.9146 346.352 23.8515C346.596 23.7865 346.836 23.7539 347.072 23.7539C347.223 23.7539 347.395 23.7722 347.591 23.8088C347.788 23.8434 347.978 23.9156 348.161 24.0254C348.346 24.1352 348.5 24.3009 348.622 24.5226C348.744 24.7442 348.805 25.0411 348.805 25.4132V28.5H348.085V27.8656H348.048C347.999 27.9672 347.918 28.076 347.804 28.1919C347.69 28.3078 347.539 28.4065 347.35 28.4878C347.161 28.5691 346.93 28.6098 346.657 28.6098ZM346.767 27.9632C347.052 27.9632 347.292 27.9072 347.487 27.7954C347.684 27.6836 347.833 27.5392 347.932 27.3623C348.034 27.1854 348.085 26.9993 348.085 26.8041V26.1453C348.054 26.1819 347.987 26.2154 347.883 26.2459C347.782 26.2744 347.664 26.2998 347.53 26.3222C347.397 26.3425 347.268 26.3608 347.142 26.3771C347.018 26.3913 346.918 26.4035 346.84 26.4137C346.653 26.4381 346.478 26.4777 346.316 26.5326C346.155 26.5855 346.025 26.6658 345.925 26.7736C345.828 26.8793 345.779 27.0237 345.779 27.2067C345.779 27.4568 345.871 27.646 346.056 27.7741C346.243 27.9001 346.48 27.9632 346.767 27.9632ZM351.984 23.8149V24.425H349.556V23.8149H351.984ZM350.264 22.6925H350.984V27.1579C350.984 27.3613 351.013 27.5138 351.072 27.6154C351.133 27.7151 351.21 27.7822 351.304 27.8168C351.4 27.8493 351.5 27.8656 351.606 27.8656C351.685 27.8656 351.75 27.8615 351.801 27.8534C351.852 27.8432 351.893 27.8351 351.923 27.829L352.07 28.4756C352.021 28.4939 351.953 28.5122 351.865 28.5305C351.778 28.5508 351.667 28.561 351.533 28.561C351.329 28.561 351.13 28.5173 350.935 28.4298C350.742 28.3424 350.581 28.2092 350.453 28.0303C350.327 27.8513 350.264 27.6256 350.264 27.3531V22.6925ZM352.895 28.5V23.8149H353.615V28.5H352.895ZM353.261 23.0341C353.121 23.0341 353 22.9863 352.898 22.8907C352.799 22.7952 352.749 22.6803 352.749 22.5461C352.749 22.4119 352.799 22.297 352.898 22.2014C353 22.1058 353.121 22.058 353.261 22.058C353.401 22.058 353.521 22.1058 353.621 22.2014C353.723 22.297 353.774 22.4119 353.774 22.5461C353.774 22.6803 353.723 22.7952 353.621 22.8907C353.521 22.9863 353.401 23.0341 353.261 23.0341ZM356.665 28.5976C356.242 28.5976 355.871 28.4969 355.552 28.2956C355.234 28.0943 354.986 27.8127 354.807 27.4507C354.63 27.0888 354.542 26.6658 354.542 26.1819C354.542 25.6938 354.63 25.2678 354.807 24.9038C354.986 24.5399 355.234 24.2572 355.552 24.0559C355.871 23.8546 356.242 23.7539 356.665 23.7539C357.088 23.7539 357.458 23.8546 357.775 24.0559C358.094 24.2572 358.343 24.5399 358.519 24.9038C358.698 25.2678 358.788 25.6938 358.788 26.1819C358.788 26.6658 358.698 27.0888 358.519 27.4507C358.343 27.8127 358.094 28.0943 357.775 28.2956C357.458 28.4969 357.088 28.5976 356.665 28.5976ZM356.665 27.951C356.986 27.951 357.251 27.8686 357.458 27.7039C357.665 27.5392 357.819 27.3226 357.919 27.0542C358.018 26.7858 358.068 26.495 358.068 26.1819C358.068 25.8687 358.018 25.5769 357.919 25.3065C357.819 25.036 357.665 24.8174 357.458 24.6507C357.251 24.4839 356.986 24.4006 356.665 24.4006C356.344 24.4006 356.079 24.4839 355.872 24.6507C355.665 24.8174 355.511 25.036 355.411 25.3065C355.312 25.5769 355.262 25.8687 355.262 26.1819C355.262 26.495 355.312 26.7858 355.411 27.0542C355.511 27.3226 355.665 27.5392 355.872 27.7039C356.079 27.8686 356.344 27.951 356.665 27.951ZM360.435 25.6816V28.5H359.715V23.8149H360.41V24.547H360.471C360.581 24.3091 360.748 24.1179 360.972 23.9735C361.195 23.8271 361.484 23.7539 361.838 23.7539C362.155 23.7539 362.433 23.819 362.671 23.9491C362.908 24.0772 363.093 24.2725 363.226 24.5348C363.358 24.7951 363.424 25.1245 363.424 25.523V28.5H362.704V25.5718C362.704 25.2038 362.609 24.9171 362.417 24.7117C362.226 24.5043 361.964 24.4006 361.63 24.4006C361.401 24.4006 361.195 24.4504 361.014 24.55C360.835 24.6497 360.694 24.7951 360.59 24.9862C360.487 25.1773 360.435 25.4092 360.435 25.6816ZM367.886 24.8642L367.239 25.0472C367.199 24.9394 367.139 24.8347 367.06 24.733C366.982 24.6293 366.877 24.5439 366.742 24.4768C366.608 24.4097 366.436 24.3762 366.227 24.3762C365.94 24.3762 365.701 24.4423 365.51 24.5744C365.321 24.7046 365.226 24.8703 365.226 25.0716C365.226 25.2505 365.291 25.3919 365.422 25.4956C365.552 25.5993 365.755 25.6857 366.032 25.7548L366.727 25.9257C367.146 26.0273 367.458 26.1829 367.663 26.3923C367.869 26.5997 367.972 26.8671 367.972 27.1945C367.972 27.4629 367.894 27.7029 367.74 27.9144C367.587 28.1258 367.374 28.2926 367.099 28.4146C366.825 28.5366 366.505 28.5976 366.141 28.5976C365.664 28.5976 365.268 28.4939 364.955 28.2865C364.642 28.0791 364.443 27.7761 364.36 27.3775L365.043 27.2067C365.108 27.4589 365.231 27.648 365.412 27.7741C365.595 27.9001 365.834 27.9632 366.129 27.9632C366.465 27.9632 366.731 27.892 366.928 27.7497C367.128 27.6053 367.227 27.4324 367.227 27.2311C367.227 27.0685 367.17 26.9322 367.056 26.8224C366.943 26.7106 366.768 26.6272 366.532 26.5723L365.751 26.3893C365.322 26.2876 365.007 26.13 364.805 25.9165C364.606 25.701 364.507 25.4315 364.507 25.1082C364.507 24.8439 364.581 24.61 364.729 24.4067C364.88 24.2033 365.084 24.0437 365.342 23.9278C365.603 23.8119 365.897 23.7539 366.227 23.7539C366.69 23.7539 367.054 23.8556 367.319 24.0589C367.585 24.2623 367.774 24.5307 367.886 24.8642Z" fill="white"/>
<path d="M382.17 20.5003C382.17 19.2231 383.206 18.1878 384.483 18.1878H425.34C426.617 18.1878 427.652 19.2231 427.652 20.5003V31.5003C427.652 32.7774 426.617 33.8128 425.34 33.8128H384.483C383.206 33.8128 382.17 32.7774 382.17 31.5003V20.5003Z" stroke="#D9D9E0" stroke-opacity="0.2" stroke-width="0.660714"/>
<g clip-path="url(#clip5_12529_436910)">
<path d="M393.733 23.0273H388.448C388.265 23.0273 388.117 23.1752 388.117 23.3577V25.0095C388.117 25.1919 388.265 25.3398 388.448 25.3398H393.733C393.916 25.3398 394.064 25.1919 394.064 25.0095V23.3577C394.064 23.1752 393.916 23.0273 393.733 23.0273Z" stroke="white" stroke-width="0.660714" stroke-linecap="round" stroke-linejoin="round"/>
<path d="M390.099 26.6611H388.448C388.265 26.6611 388.117 26.809 388.117 26.9915V28.6433C388.117 28.8257 388.265 28.9736 388.448 28.9736H390.099C390.282 28.9736 390.43 28.8257 390.43 28.6433V26.9915C390.43 26.809 390.282 26.6611 390.099 26.6611Z" stroke="white" stroke-width="0.660714" stroke-linecap="round" stroke-linejoin="round"/>
<path d="M393.732 26.6611H392.08C391.898 26.6611 391.75 26.809 391.75 26.9915V28.6433C391.75 28.8257 391.898 28.9736 392.08 28.9736H393.732C393.915 28.9736 394.062 28.8257 394.062 28.6433V26.9915C394.062 26.809 393.915 26.6611 393.732 26.6611Z" stroke="white" stroke-width="0.660714" stroke-linecap="round" stroke-linejoin="round"/>
</g>
<path d="M398.482 28.5V22.2532H402.228V22.9243H399.239V25.035H401.947V25.706H399.239V28.5H398.482ZM404.108 22.2532V28.5H403.352V22.2532H404.108ZM405.453 28.5V22.2532H407.564C408.052 22.2532 408.453 22.3366 408.766 22.5034C409.079 22.6681 409.311 22.8948 409.461 23.1835C409.612 23.4723 409.687 23.8007 409.687 24.1688C409.687 24.5368 409.612 24.8632 409.461 25.1479C409.311 25.4325 409.08 25.6562 408.769 25.8189C408.458 25.9795 408.06 26.0599 407.576 26.0599H405.868V25.3766H407.552C407.885 25.3766 408.154 25.3278 408.357 25.2302C408.562 25.1326 408.711 24.9943 408.802 24.8154C408.896 24.6344 408.943 24.4189 408.943 24.1688C408.943 23.9186 408.896 23.7 408.802 23.513C408.709 23.3259 408.559 23.1815 408.354 23.0798C408.149 22.9761 407.877 22.9243 407.54 22.9243H406.21V28.5H405.453ZM408.394 25.6938L409.931 28.5H409.052L407.54 25.6938H408.394ZM412.91 28.5V27.951L414.972 25.6938C415.214 25.4295 415.413 25.1997 415.569 25.0045C415.726 24.8073 415.842 24.6222 415.917 24.4494C415.994 24.2745 416.033 24.0915 416.033 23.9003C416.033 23.6807 415.98 23.4906 415.874 23.33C415.771 23.1693 415.628 23.0453 415.447 22.9578C415.266 22.8704 415.063 22.8267 414.837 22.8267C414.597 22.8267 414.388 22.8765 414.209 22.9761C414.032 23.0737 413.895 23.211 413.797 23.3879C413.702 23.5648 413.654 23.7722 413.654 24.0101H412.934C412.934 23.6441 413.018 23.3228 413.187 23.0463C413.356 22.7697 413.586 22.5542 413.877 22.3997C414.169 22.2451 414.498 22.1678 414.862 22.1678C415.228 22.1678 415.552 22.2451 415.835 22.3997C416.117 22.5542 416.339 22.7626 416.5 23.0249C416.66 23.2873 416.741 23.5791 416.741 23.9003C416.741 24.1301 416.699 24.3548 416.616 24.5744C416.534 24.792 416.392 25.035 416.189 25.3034C415.987 25.5698 415.708 25.8952 415.35 26.2795L413.947 27.7802V27.829H416.851V28.5H412.91ZM417.658 27.2189V26.5967L420.403 22.2532H420.854V23.2171H420.549L418.475 26.4991V26.5479H422.172V27.2189H417.658ZM420.598 28.5V27.0298V26.7401V22.2532H421.318V28.5H420.598Z" fill="white"/>
<path d="M436.241 20.5003C436.241 19.2231 437.276 18.1878 438.553 18.1878H478.41C479.687 18.1878 480.723 19.2231 480.723 20.5003V31.5003C480.723 32.7774 479.687 33.8128 478.41 33.8128H438.553C437.276 33.8128 436.241 32.7774 436.241 31.5003V20.5003Z" stroke="#D9D9E0" stroke-opacity="0.2" stroke-width="0.660714"/>
<g clip-path="url(#clip6_12529_436910)">
<path d="M445.159 29.3044C446.984 29.3044 448.463 27.8253 448.463 26.0008C448.463 24.1763 446.984 22.6973 445.159 22.6973C443.335 22.6973 441.855 24.1763 441.855 26.0008C441.855 27.8253 443.335 29.3044 445.159 29.3044Z" stroke="white" stroke-width="0.660714" stroke-linecap="round" stroke-linejoin="round"/>
<path d="M446.15 25.0098L444.168 26.9919" stroke="white" stroke-width="0.660714" stroke-linecap="round" stroke-linejoin="round"/>
<path d="M444.168 25.0098L446.15 26.9919" stroke="white" stroke-width="0.660714" stroke-linecap="round" stroke-linejoin="round"/>
</g>
<path d="M452.699 28.5V22.2532H456.444V22.9243H453.455V25.035H456.164V25.706H453.455V28.5H452.699ZM458.324 22.2532V28.5H457.568V22.2532H458.324ZM459.669 28.5V22.2532H461.78C462.268 22.2532 462.669 22.3366 462.982 22.5034C463.295 22.6681 463.527 22.8948 463.677 23.1835C463.828 23.4723 463.903 23.8007 463.903 24.1688C463.903 24.5368 463.828 24.8632 463.677 25.1479C463.527 25.4325 463.296 25.6562 462.985 25.8189C462.674 25.9795 462.276 26.0599 461.792 26.0599H460.084V25.3766H461.768C462.101 25.3766 462.37 25.3278 462.573 25.2302C462.779 25.1326 462.927 24.9943 463.018 24.8154C463.112 24.6344 463.159 24.4189 463.159 24.1688C463.159 23.9186 463.112 23.7 463.018 23.513C462.925 23.3259 462.775 23.1815 462.57 23.0798C462.365 22.9761 462.093 22.9243 461.756 22.9243H460.426V28.5H459.669ZM462.61 25.6938L464.147 28.5H463.269L461.756 25.6938H462.61ZM469.322 22.2532V28.5H468.566V23.0463H468.529L467.004 24.0589V23.2903L468.566 22.2532H469.322ZM472.948 28.5854C472.529 28.5854 472.159 28.5112 471.837 28.3627C471.518 28.2123 471.269 28.0059 471.09 27.7436C470.911 27.4792 470.823 27.1783 470.825 26.8407C470.823 26.5764 470.875 26.3323 470.98 26.1087C471.086 25.883 471.23 25.6949 471.413 25.5444C471.598 25.3919 471.805 25.2953 472.033 25.2546V25.218C471.734 25.1407 471.496 24.973 471.319 24.7147C471.142 24.4545 471.055 24.1586 471.057 23.8271C471.055 23.5099 471.135 23.2263 471.298 22.9761C471.46 22.726 471.684 22.5288 471.969 22.3844C472.255 22.24 472.582 22.1678 472.948 22.1678C473.31 22.1678 473.633 22.24 473.918 22.3844C474.202 22.5288 474.426 22.726 474.589 22.9761C474.753 23.2263 474.837 23.5099 474.839 23.8271C474.837 24.1586 474.746 24.4545 474.567 24.7147C474.39 24.973 474.156 25.1407 473.863 25.218V25.2546C474.088 25.2953 474.292 25.3919 474.473 25.5444C474.654 25.6949 474.798 25.883 474.906 26.1087C475.014 26.3323 475.069 26.5764 475.071 26.8407C475.069 27.1783 474.977 27.4792 474.796 27.7436C474.617 28.0059 474.368 28.2123 474.049 28.3627C473.732 28.5112 473.365 28.5854 472.948 28.5854ZM472.948 27.9144C473.23 27.9144 473.474 27.8686 473.68 27.7771C473.885 27.6856 474.044 27.5565 474.156 27.3897C474.267 27.223 474.324 27.0278 474.326 26.8041C474.324 26.5682 474.263 26.3598 474.143 26.1788C474.023 25.9978 473.86 25.8555 473.652 25.7518C473.447 25.6481 473.212 25.5962 472.948 25.5962C472.681 25.5962 472.443 25.6481 472.234 25.7518C472.027 25.8555 471.863 25.9978 471.743 26.1788C471.625 26.3598 471.567 26.5682 471.569 26.8041C471.567 27.0278 471.621 27.223 471.731 27.3897C471.843 27.5565 472.002 27.6856 472.21 27.7771C472.417 27.8686 472.663 27.9144 472.948 27.9144ZM472.948 24.9496C473.171 24.9496 473.37 24.9049 473.542 24.8154C473.717 24.7259 473.855 24.6009 473.954 24.4402C474.054 24.2796 474.105 24.0915 474.107 23.8759C474.105 23.6645 474.055 23.4804 473.957 23.3239C473.86 23.1652 473.724 23.0432 473.552 22.9578C473.379 22.8704 473.177 22.8267 472.948 22.8267C472.714 22.8267 472.509 22.8704 472.335 22.9578C472.16 23.0432 472.024 23.1652 471.929 23.3239C471.833 23.4804 471.787 23.6645 471.789 23.8759C471.787 24.0915 471.834 24.2796 471.932 24.4402C472.032 24.6009 472.169 24.7259 472.344 24.8154C472.519 24.9049 472.72 24.9496 472.948 24.9496Z" fill="white"/>
<path d="M489.313 20.5003C489.313 19.2231 490.348 18.1878 491.625 18.1878H532.482C533.76 18.1878 534.795 19.2231 534.795 20.5003V31.5003C534.795 32.7774 533.76 33.8128 532.482 33.8128H491.625C490.348 33.8128 489.313 32.7774 489.313 31.5003V20.5003Z" stroke="#D9D9E0" stroke-opacity="0.2" stroke-width="0.660714"/>
<g clip-path="url(#clip7_12529_436910)">
<path d="M498.231 29.3044C500.056 29.3044 501.535 27.8253 501.535 26.0008C501.535 24.1763 500.056 22.6973 498.231 22.6973C496.407 22.6973 494.928 24.1763 494.928 26.0008C494.928 27.8253 496.407 29.3044 498.231 29.3044Z" stroke="white" stroke-width="0.660714" stroke-linecap="round" stroke-linejoin="round"/>
<path d="M498.231 26.3306C498.413 26.3306 498.561 26.1827 498.561 26.0003C498.561 25.8178 498.413 25.6699 498.231 25.6699C498.048 25.6699 497.9 25.8178 497.9 26.0003C497.9 26.1827 498.048 26.3306 498.231 26.3306Z" stroke="white" stroke-width="0.660714" stroke-linecap="round" stroke-linejoin="round"/>
</g>
<path d="M505.633 28.5V22.2532H509.379V22.9243H506.39V25.035H509.098V25.706H506.39V28.5H505.633ZM511.259 22.2532V28.5H510.503V22.2532H511.259ZM512.604 28.5V22.2532H514.715C515.203 22.2532 515.604 22.3366 515.917 22.5034C516.23 22.6681 516.462 22.8948 516.612 23.1835C516.763 23.4723 516.838 23.8007 516.838 24.1688C516.838 24.5368 516.763 24.8632 516.612 25.1479C516.462 25.4325 516.231 25.6562 515.92 25.8189C515.609 25.9795 515.211 26.0599 514.727 26.0599H513.019V25.3766H514.703C515.036 25.3766 515.305 25.3278 515.508 25.2302C515.713 25.1326 515.862 24.9943 515.953 24.8154C516.047 24.6344 516.094 24.4189 516.094 24.1688C516.094 23.9186 516.047 23.7 515.953 23.513C515.86 23.3259 515.71 23.1815 515.505 23.0798C515.3 22.9761 515.028 22.9243 514.69 22.9243H513.361V28.5H512.604ZM515.545 25.6938L517.082 28.5H516.203L514.69 25.6938H515.545ZM520.061 28.5V27.951L522.123 25.6938C522.365 25.4295 522.564 25.1997 522.72 25.0045C522.877 24.8073 522.993 24.6222 523.068 24.4494C523.145 24.2745 523.184 24.0915 523.184 23.9003C523.184 23.6807 523.131 23.4906 523.025 23.33C522.922 23.1693 522.779 23.0453 522.598 22.9578C522.417 22.8704 522.214 22.8267 521.988 22.8267C521.748 22.8267 521.539 22.8765 521.36 22.9761C521.183 23.0737 521.046 23.211 520.948 23.3879C520.853 23.5648 520.805 23.7722 520.805 24.0101H520.085C520.085 23.6441 520.169 23.3228 520.338 23.0463C520.507 22.7697 520.737 22.5542 521.028 22.3997C521.32 22.2451 521.649 22.1678 522.013 22.1678C522.379 22.1678 522.703 22.2451 522.986 22.3997C523.268 22.5542 523.49 22.7626 523.651 23.0249C523.811 23.2873 523.892 23.5791 523.892 23.9003C523.892 24.1301 523.85 24.3548 523.767 24.5744C523.685 24.792 523.543 25.035 523.34 25.3034C523.138 25.5698 522.859 25.8952 522.501 26.2795L521.098 27.7802V27.829H524.001V28.5H520.061ZM527.078 22.1678C527.334 22.1699 527.591 22.2187 527.847 22.3142C528.103 22.4098 528.337 22.5684 528.548 22.7901C528.76 23.0097 528.93 23.3096 529.058 23.6899C529.186 24.0701 529.25 24.547 529.25 25.1204C529.25 25.6755 529.197 26.1687 529.091 26.5997C528.988 27.0288 528.837 27.3908 528.64 27.6856C528.445 27.9805 528.207 28.2041 527.926 28.3566C527.647 28.5092 527.332 28.5854 526.981 28.5854C526.631 28.5854 526.319 28.5163 526.044 28.378C525.772 28.2377 525.548 28.0435 525.373 27.7954C525.2 27.5453 525.089 27.2555 525.041 26.9261H525.785C525.852 27.2128 525.985 27.4497 526.184 27.6368C526.386 27.8218 526.651 27.9144 526.981 27.9144C527.462 27.9144 527.843 27.7039 528.121 27.283C528.402 26.8621 528.542 26.2673 528.542 25.4986H528.493C528.38 25.6694 528.244 25.8169 528.088 25.9409C527.931 26.0649 527.757 26.1605 527.566 26.2276C527.375 26.2947 527.172 26.3283 526.956 26.3283C526.598 26.3283 526.27 26.2398 525.971 26.0629C525.674 25.884 525.436 25.6389 525.257 25.3278C525.08 25.0147 524.992 24.6568 524.992 24.2542C524.992 23.8719 525.077 23.5221 525.248 23.2049C525.421 22.8856 525.663 22.6315 525.974 22.4424C526.287 22.2532 526.655 22.1617 527.078 22.1678ZM527.078 22.8389C526.822 22.8389 526.591 22.9029 526.386 23.031C526.182 23.1571 526.021 23.3279 525.901 23.5435C525.783 23.757 525.724 23.9939 525.724 24.2542C525.724 24.5144 525.781 24.7513 525.895 24.9648C526.011 25.1763 526.168 25.3451 526.367 25.4712C526.569 25.5952 526.798 25.6572 527.054 25.6572C527.247 25.6572 527.427 25.6196 527.594 25.5444C527.76 25.4671 527.906 25.3624 528.03 25.2302C528.156 25.096 528.254 24.9445 528.326 24.7757C528.397 24.6049 528.432 24.427 528.432 24.242C528.432 23.9979 528.373 23.7692 528.255 23.5557C528.14 23.3422 527.979 23.1693 527.774 23.0371C527.57 22.905 527.338 22.8389 527.078 22.8389Z" fill="white"/>
<path d="M543.383 20.7141C543.383 19.437 544.418 18.4016 545.696 18.4016H556.267C557.544 18.4016 558.58 19.437 558.58 20.7141V31.2856C558.58 32.5627 557.544 33.5981 556.267 33.5981H545.696C544.418 33.5981 543.383 32.5627 543.383 31.2856V20.7141Z" stroke="#D9D9E0" stroke-opacity="0.2" stroke-width="0.660714"/>
<path d="M548.778 26.611C548.609 26.611 548.466 26.551 548.347 26.4311C548.227 26.3111 548.168 26.1669 548.168 25.9985C548.168 25.8301 548.228 25.6863 548.348 25.5673C548.468 25.4482 548.612 25.3887 548.78 25.3887C548.949 25.3887 549.093 25.4486 549.212 25.5686C549.331 25.6885 549.39 25.8327 549.39 26.0011C549.39 26.1696 549.33 26.3133 549.21 26.4324C549.09 26.5514 548.946 26.611 548.778 26.611ZM550.981 26.611C550.813 26.611 550.669 26.551 550.55 26.4311C550.431 26.3111 550.371 26.1669 550.371 25.9985C550.371 25.8301 550.431 25.6863 550.551 25.5673C550.671 25.4482 550.815 25.3887 550.984 25.3887C551.152 25.3887 551.296 25.4486 551.415 25.5686C551.534 25.6885 551.593 25.8327 551.593 26.0011C551.593 26.1696 551.534 26.3133 551.414 26.4324C551.294 26.5514 551.149 26.611 550.981 26.611ZM553.184 26.611C553.016 26.611 552.872 26.551 552.753 26.4311C552.634 26.3111 552.574 26.1669 552.574 25.9985C552.574 25.8301 552.634 25.6863 552.754 25.5673C552.874 25.4482 553.018 25.3887 553.187 25.3887C553.355 25.3887 553.499 25.4486 553.618 25.5686C553.737 25.6885 553.797 25.8327 553.797 26.0011C553.797 26.1696 553.737 26.3133 553.617 26.4324C553.497 26.5514 553.353 26.611 553.184 26.611Z" fill="white"/>
</g>
</g>
</g>
<path d="M29.2212 8.84989C29.2212 4.08442 33.0844 0.221247 37.8499 0.221247H564.15C568.916 0.221247 572.779 4.08442 572.779 8.84989V43.1501C572.779 47.9156 568.916 51.7788 564.15 51.7788H37.8499C33.0845 51.7788 29.2212 47.9156 29.2212 43.1501V8.84989Z" stroke="url(#paint1_linear_12529_436910)" stroke-width="0.442495" shape-rendering="crispEdges"/>
</g>
<defs>
<filter id="filter0_bd_12529_436910" x="-23.8695" y="-52.8695" width="649.739" height="161.264" filterUnits="userSpaceOnUse" color-interpolation-filters="sRGB">
<feFlood flood-opacity="0" result="BackgroundImageFix"/>
<feGaussianBlur in="BackgroundImageFix" stdDeviation="26.4347"/>
<feComposite in2="SourceAlpha" operator="in" result="effect1_backgroundBlur_12529_436910"/>
<feColorMatrix in="SourceAlpha" type="matrix" values="0 0 0 0 0 0 0 0 0 0 0 0 0 0 0 0 0 0 127 0" result="hardAlpha"/>
<feMorphology radius="35.2463" operator="erode" in="SourceAlpha" result="effect2_dropShadow_12529_436910"/>
<feOffset dy="28.1971"/>
<feGaussianBlur stdDeviation="31.7217"/>
<feComposite in2="hardAlpha" operator="out"/>
<feColorMatrix type="matrix" values="0 0 0 0 0.0027 0 0 0 0 0.02307 0 0 0 0 0.1773 0 0 0 0.173 0"/>
<feBlend mode="normal" in2="effect1_backgroundBlur_12529_436910" result="effect2_dropShadow_12529_436910"/>
<feBlend mode="normal" in="SourceGraphic" in2="effect2_dropShadow_12529_436910" result="shape"/>
</filter>
<filter id="filter1_dd_12529_436910" x="-24" y="-41" width="650" height="158" filterUnits="userSpaceOnUse" color-interpolation-filters="sRGB">
<feFlood flood-opacity="0" result="BackgroundImageFix"/>
<feColorMatrix in="SourceAlpha" type="matrix" values="0 0 0 0 0 0 0 0 0 0 0 0 0 0 0 0 0 0 127 0" result="hardAlpha"/>
<feOffset dy="12"/>
<feGaussianBlur stdDeviation="30"/>
<feComposite in2="hardAlpha" operator="out"/>
<feColorMatrix type="matrix" values="0 0 0 0 0.0045 0 0 0 0 0.0045 0 0 0 0 0.1755 0 0 0 0.051 0"/>
<feBlend mode="normal" in2="BackgroundImageFix" result="effect1_dropShadow_12529_436910"/>
<feColorMatrix in="SourceAlpha" type="matrix" values="0 0 0 0 0 0 0 0 0 0 0 0 0 0 0 0 0 0 127 0" result="hardAlpha"/>
<feMorphology radius="16" operator="erode" in="SourceAlpha" result="effect2_dropShadow_12529_436910"/>
<feOffset dy="12"/>
<feGaussianBlur stdDeviation="16"/>
<feComposite in2="hardAlpha" operator="out"/>
<feColorMatrix type="matrix" values="0 0 0 0 0 0 0 0 0 0 0 0 0 0 0 0 0 0 0.133 0"/>
<feBlend mode="normal" in2="effect1_dropShadow_12529_436910" result="effect2_dropShadow_12529_436910"/>
<feBlend mode="normal" in="SourceGraphic" in2="effect2_dropShadow_12529_436910" result="shape"/>
</filter>
<linearGradient id="paint0_linear_12529_436910" x1="46.6623" y1="2.02597" x2="55.4918" y2="95.0605" gradientUnits="userSpaceOnUse">
<stop stop-color="#1C1C1C"/>
<stop offset="1" stop-color="#C1C1C1" stop-opacity="0.4"/>
</linearGradient>
<linearGradient id="paint1_linear_12529_436910" x1="23.1189" y1="-10.8919" x2="38.5989" y2="118.664" gradientUnits="userSpaceOnUse">
<stop stop-color="#7C7C92"/>
<stop offset="1" stop-color="#FCFCFD" stop-opacity="0"/>
</linearGradient>
<clipPath id="clip0_12529_436910">
<path d="M29 8.84989C29 3.96223 32.9622 0 37.8499 0H564.15C569.038 0 573 3.96223 573 8.84989V43.1501C573 48.0378 569.038 52 564.15 52H37.8499C32.9623 52 29 48.0378 29 43.1501V8.84989Z" fill="white"/>
</clipPath>
<clipPath id="clip1_12529_436910">
<path d="M36 13C36 9.68629 38.6863 7 42 7H560C563.314 7 566 9.68629 566 13V39C566 42.3137 563.314 45 560 45H42C38.6863 45 36 42.3137 36 39V13Z" fill="white"/>
</clipPath>
<clipPath id="clip2_12529_436910">
<rect width="10.5714" height="10.5714" fill="white" transform="translate(161.91 20.7148)"/>
</clipPath>
<clipPath id="clip3_12529_436910">
<rect width="7.92857" height="7.92857" fill="white" transform="translate(227.982 22.0361)"/>
</clipPath>
<clipPath id="clip4_12529_436910">
<rect width="7.92857" height="7.92857" fill="white" transform="translate(311.053 22.0361)"/>
</clipPath>
<clipPath id="clip5_12529_436910">
<rect width="7.92857" height="7.92857" fill="white" transform="translate(387.125 22.0361)"/>
</clipPath>
<clipPath id="clip6_12529_436910">
<rect width="7.92857" height="7.92857" fill="white" transform="translate(441.195 22.0361)"/>
</clipPath>
<clipPath id="clip7_12529_436910">
<rect width="7.92857" height="7.92857" fill="white" transform="translate(494.268 22.0361)"/>
</clipPath>
</defs>
</svg>
