<svg width="145" height="140" viewBox="0 0 145 140" fill="none" xmlns="http://www.w3.org/2000/svg">
<path d="M80.0936 50.2539H48.8101C48.1252 50.256 47.4489 50.1018 46.8326 49.8031C46.2163 49.5045 45.6762 49.0691 45.2535 48.5303C44.8231 47.9864 44.5225 47.3514 44.3745 46.6738C44.2265 45.9961 44.2352 45.2936 44.3997 44.6198C47.2829 32.5432 47.2828 19.9576 44.3995 7.88101C44.2351 7.20721 44.2266 6.50478 44.3745 5.82718C44.5225 5.14958 44.8231 4.51466 45.2534 3.97073C45.6761 3.43186 46.2162 2.99651 46.8325 2.69783C47.4489 2.39914 48.1252 2.24498 48.8101 2.24709H80.0936C81.1737 2.2502 82.2176 2.63659 83.0395 3.33747C83.8613 4.03834 84.4076 5.00817 84.5812 6.07424C86.6401 19.4463 86.6401 33.0547 84.5812 46.4268C84.4076 47.4928 83.8613 48.4627 83.0395 49.1636C82.2176 49.8644 81.1737 50.2508 80.0936 50.2539Z" fill="#E5E5E5"/>
<path d="M48.8067 4.60109C48.4778 4.59998 48.153 4.67391 47.8569 4.81724C47.5609 4.96058 47.3015 5.16954 47.0984 5.42824C46.8892 5.69329 46.7433 6.00256 46.6716 6.33251C46.6 6.66246 46.6046 7.0044 46.685 7.33233C49.6545 19.7697 49.6545 32.7315 46.6852 45.1689C46.6047 45.4968 46.6001 45.8387 46.6717 46.1685C46.7432 46.4984 46.8891 46.8077 47.0983 47.0726C47.3013 47.3314 47.5609 47.5406 47.8569 47.684C48.1529 47.8273 48.4778 47.9013 48.8067 47.9002H80.0902C80.6089 47.9004 81.1108 47.7164 81.5066 47.3811C81.9023 47.0458 82.1663 46.5809 82.2513 46.0693C84.2736 32.9342 84.2736 19.567 82.2513 6.432C82.1663 5.92031 81.9023 5.45543 81.5066 5.12014C81.1108 4.78484 80.6089 4.60091 80.0902 4.60108L48.8067 4.60109Z" fill="white"/>
<path d="M73.2662 15.9196H56.8499C56.2258 15.9189 55.6275 15.6707 55.1863 15.2295C54.745 14.7882 54.4968 14.1899 54.4961 13.5658V12.646C54.4968 12.022 54.745 11.4237 55.1863 10.9824C55.6275 10.5411 56.2258 10.2929 56.8499 10.2922H73.2662C73.8902 10.2929 74.4885 10.5411 74.9298 10.9824C75.371 11.4237 75.6193 12.022 75.6199 12.646V13.5659C75.6192 14.1899 75.371 14.7882 74.9298 15.2295C74.4885 15.6707 73.8902 15.9189 73.2662 15.9196Z" fill="#E5E5E5"/>
<path d="M73.2662 27.5422H56.8499C56.2258 27.5415 55.6275 27.2933 55.1863 26.852C54.745 26.4107 54.4968 25.8124 54.4961 25.1884V24.2686C54.4968 23.6445 54.745 23.0462 55.1863 22.6049C55.6275 22.1637 56.2258 21.9155 56.8499 21.9148H73.2662C73.8902 21.9155 74.4885 22.1637 74.9298 22.6049C75.371 23.0462 75.6193 23.6445 75.6199 24.2686V25.1884C75.6193 25.8124 75.371 26.4107 74.9298 26.852C74.4885 27.2933 73.8902 27.5415 73.2662 27.5422Z" fill="#E5E5E5"/>
<path d="M73.2662 39.1645H56.8499C56.2258 39.1638 55.6275 38.9156 55.1863 38.4743C54.745 38.0331 54.4968 37.4348 54.4961 36.8107V35.8909C54.4968 35.2668 54.745 34.6685 55.1863 34.2273C55.6275 33.786 56.2258 33.5378 56.8499 33.5371H73.2662C73.8902 33.5378 74.4885 33.786 74.9298 34.2273C75.371 34.6685 75.6193 35.2668 75.6199 35.8909V36.8107C75.6193 37.4347 75.371 38.0331 74.9298 38.4743C74.4885 38.9156 73.8902 39.1638 73.2662 39.1645Z" fill="#E5E5E5"/>
<path d="M138.937 80.0698H107.654C106.969 80.0719 106.293 79.9177 105.676 79.6191C105.06 79.3204 104.52 78.8851 104.097 78.3462C103.667 77.8023 103.366 77.1673 103.218 76.4897C103.07 75.812 103.079 75.1096 103.243 74.4357C106.127 62.3592 106.127 49.7735 103.243 37.6969C103.079 37.0231 103.07 36.3207 103.218 35.6431C103.366 34.9655 103.667 34.3306 104.097 33.7867C104.52 33.2478 105.06 32.8124 105.676 32.5137C106.293 32.2151 106.969 32.0609 107.654 32.063H138.937C140.017 32.0661 141.061 32.4525 141.883 33.1534C142.705 33.8543 143.251 34.8241 143.425 35.8902C145.484 49.2622 145.484 62.8706 143.425 76.2427C143.251 77.3088 142.705 78.2786 141.883 78.9795C141.061 79.6803 140.017 80.0667 138.937 80.0698Z" fill="#E5E5E5"/>
<path d="M107.65 34.4168C107.322 34.4157 106.997 34.4896 106.701 34.6329C106.405 34.7762 106.145 34.9852 105.942 35.2439C105.733 35.509 105.587 35.8182 105.515 36.1482C105.444 36.4781 105.448 36.8201 105.529 37.148C108.498 49.5854 108.498 62.5472 105.529 74.9846C105.448 75.3124 105.444 75.6543 105.515 75.9842C105.587 76.3141 105.733 76.6233 105.942 76.8883C106.145 77.1471 106.405 77.3563 106.701 77.4997C106.997 77.643 107.322 77.717 107.65 77.7159H138.934C139.453 77.716 139.955 77.5321 140.35 77.1968C140.746 76.8615 141.01 76.3966 141.095 75.8849C143.117 62.7499 143.117 49.3827 141.095 36.2477C141.01 35.736 140.746 35.2711 140.35 34.9358C139.955 34.6005 139.453 34.4166 138.934 34.4167L107.65 34.4168Z" fill="white"/>
<path d="M76.5633 114.005H45.2798C44.5652 114.007 43.8596 113.846 43.2166 113.535C42.5736 113.223 42.0102 112.769 41.5692 112.207C41.1204 111.639 40.8069 110.977 40.6525 110.271C40.4982 109.564 40.5071 108.831 40.6786 108.129C43.5546 96.0824 43.5546 83.528 40.6784 71.4816C40.507 70.779 40.4982 70.0465 40.6525 69.3399C40.8068 68.6333 41.1203 67.9713 41.5691 67.4041C42.0101 66.8419 42.5736 66.3877 43.2166 66.0761C43.8596 65.7644 44.5652 65.6036 45.2798 65.6057H76.5633C77.6901 65.6091 78.7792 66.0124 79.6366 66.7437C80.4939 67.475 81.0638 68.4869 81.2448 69.5992C83.3067 82.991 83.3067 96.6196 81.2448 110.011C81.0638 111.124 80.4939 112.136 79.6366 112.867C78.7792 113.598 77.6901 114.002 76.5633 114.005Z" fill="#F5F5F5"/>
<path d="M132.11 51.6198H115.694C115.07 51.6191 114.471 51.3709 114.03 50.9297C113.589 50.4884 113.341 49.8901 113.34 49.266V48.3462C113.341 47.7222 113.589 47.1239 114.03 46.6826C114.471 46.2413 115.07 45.9931 115.694 45.9924H132.11C132.734 45.9931 133.332 46.2413 133.774 46.6826C134.215 47.1239 134.463 47.7222 134.464 48.3462V49.2661C134.463 49.8901 134.215 50.4884 133.774 50.9297C133.332 51.3709 132.734 51.6191 132.11 51.6198Z" fill="#E5E5E5"/>
<path d="M132.11 63.2424H115.694C115.07 63.2417 114.471 62.9935 114.03 62.5522C113.589 62.1109 113.341 61.5126 113.34 60.8886V59.9688C113.341 59.3447 113.589 58.7464 114.03 58.3051C114.471 57.8639 115.07 57.6157 115.694 57.615H132.11C132.734 57.6157 133.332 57.8639 133.774 58.3051C134.215 58.7464 134.463 59.3447 134.464 59.9688V60.8886C134.463 61.5126 134.215 62.1109 133.774 62.5522C133.332 62.9935 132.734 63.2417 132.11 63.2424Z" fill="#E5E5E5"/>
<path d="M61.0036 98.6664C65.987 98.6664 70.0268 94.6266 70.0268 89.6433C70.0268 84.6599 65.987 80.6201 61.0036 80.6201C56.0203 80.6201 51.9805 84.6599 51.9805 89.6433C51.9805 94.6266 56.0203 98.6664 61.0036 98.6664Z" fill="white"/>
<path d="M65.3195 88.4663H62.181V85.3278C62.181 85.0157 62.057 84.7163 61.8363 84.4956C61.6156 84.2749 61.3162 84.1509 61.0041 84.1509C60.6919 84.1509 60.3926 84.2749 60.1719 84.4956C59.9511 84.7163 59.8271 85.0157 59.8271 85.3278V88.4663H56.6887C56.3765 88.4663 56.0771 88.5903 55.8564 88.811C55.6357 89.0317 55.5117 89.3311 55.5117 89.6432C55.5117 89.9554 55.6357 90.2547 55.8564 90.4755C56.0771 90.6962 56.3765 90.8202 56.6887 90.8202H59.8271V93.9587C59.8271 94.2708 59.9511 94.5702 60.1719 94.7909C60.3926 95.0116 60.6919 95.1356 61.0041 95.1356C61.3162 95.1356 61.6156 95.0116 61.8363 94.7909C62.057 94.5702 62.181 94.2708 62.181 93.9587V90.8202H65.3195C65.6317 90.8202 65.931 90.6962 66.1517 90.4755C66.3725 90.2547 66.4964 89.9554 66.4964 89.6432C66.4964 89.3311 66.3725 89.0317 66.1517 88.811C65.931 88.5903 65.6317 88.4663 65.3195 88.4663Z" fill="#E5E5E5"/>
<path d="M72.3792 6.6693H55.9021C55.4341 6.66877 54.9853 6.4826 54.6544 6.15164C54.3234 5.82068 54.1372 5.37195 54.1367 4.90389V1.7654C54.1372 1.29735 54.3234 0.848619 54.6544 0.517657C54.9853 0.186694 55.4341 0.000527486 55.9021 0H72.3792C72.8473 0.000527486 73.296 0.186694 73.6269 0.517657C73.9579 0.848619 74.1441 1.29735 74.1446 1.7654V4.90389C74.1441 5.37195 73.9579 5.82068 73.6269 6.15164C73.296 6.4826 72.8473 6.66877 72.3792 6.6693Z" fill="#CCCCCC"/>
<path d="M132.02 36.8773H115.543C115.075 36.8768 114.626 36.6906 114.295 36.3596C113.964 36.0287 113.778 35.58 113.777 35.1119V31.9734C113.778 31.5054 113.964 31.0566 114.295 30.7257C114.626 30.3947 115.075 30.2085 115.543 30.208H132.02C132.488 30.2085 132.937 30.3947 133.268 30.7257C133.599 31.0566 133.785 31.5054 133.785 31.9734V35.1119C133.785 35.58 133.599 36.0287 133.268 36.3596C132.937 36.6906 132.488 36.8768 132.02 36.8773Z" fill="#CCCCCC"/>
<path d="M31.6843 139.656L2.79513 127.653C2.16188 127.392 1.59648 126.99 1.14194 126.478C0.687406 125.965 0.35571 125.356 0.172095 124.696C-0.0166774 124.029 -0.0506717 123.327 0.0726878 122.645C0.196047 121.962 0.47351 121.317 0.883962 120.758C8.18011 110.712 13.009 99.0892 14.9799 86.8306C15.0866 86.1453 15.3482 85.4934 15.7449 84.9244C16.1415 84.3555 16.6627 83.8845 17.2688 83.5473C17.8659 83.2118 18.5317 83.017 19.2155 82.9777C19.8992 82.9383 20.5829 83.0555 21.2146 83.3202L50.1038 95.3232C51.1 95.7404 51.9158 96.4978 52.4058 97.4604C52.8958 98.4229 53.0283 99.5281 52.7796 100.579C49.5502 113.718 44.3289 126.285 37.2969 137.843C36.7276 138.761 35.8509 139.447 34.8231 139.779C33.7952 140.111 32.6829 140.067 31.6843 139.656Z" fill="#E5E5E5"/>
<path d="M20.3118 85.494C20.0085 85.3668 19.6801 85.3104 19.3518 85.3292C19.0234 85.348 18.7036 85.4414 18.4168 85.6024C18.122 85.7669 17.8685 85.9965 17.6758 86.2737C17.483 86.551 17.3561 86.8685 17.3045 87.2022C15.2747 99.827 10.3015 111.797 2.78737 122.143C2.58727 122.415 2.45183 122.729 2.39136 123.061C2.33089 123.393 2.34699 123.735 2.43843 124.059C2.52665 124.376 2.68612 124.669 2.90448 124.915C3.12283 125.161 3.39442 125.354 3.69858 125.479L32.5878 137.482C33.0667 137.681 33.6008 137.704 34.0949 137.546C34.5891 137.388 35.0111 137.06 35.286 136.621C42.1932 125.267 47.322 112.923 50.4942 100.017C50.612 99.5118 50.5466 98.9812 50.3098 98.5198C50.073 98.0583 49.68 97.6958 49.2009 97.497L20.3118 85.494Z" fill="white"/>
<path d="M35.6957 112.213L20.5358 105.915C19.9598 105.675 19.5025 105.216 19.2643 104.639C19.0261 104.062 19.0265 103.414 19.2653 102.838L19.6182 101.988C19.8583 101.412 20.317 100.955 20.8938 100.717C21.4707 100.479 22.1184 100.479 22.695 100.718L37.8548 107.017C38.4308 107.257 38.8881 107.715 39.1263 108.292C39.3645 108.869 39.3641 109.517 39.1253 110.093L38.7724 110.943C38.5323 111.519 38.0736 111.976 37.4968 112.214C36.92 112.452 36.2722 112.452 35.6957 112.213Z" fill="#3F76FF"/>
<path d="M31.2387 122.946L16.0788 116.648C15.5027 116.408 15.0455 115.949 14.8073 115.372C14.5691 114.795 14.5695 114.148 14.8083 113.571L15.1612 112.722C15.4013 112.146 15.86 111.688 16.4368 111.45C17.0136 111.212 17.6614 111.212 18.2379 111.451L33.3978 117.75C33.9738 117.99 34.4311 118.449 34.6693 119.025C34.9075 119.602 34.9071 120.25 34.6683 120.826L34.3154 121.676C34.0753 122.252 33.6166 122.709 33.0398 122.947C32.463 123.186 31.8152 123.185 31.2387 122.946Z" fill="#3F76FF"/>
<path d="M41.7713 97.1291C41.5444 97.1289 41.3196 97.0848 41.1094 96.9994L25.8336 90.8233C25.3998 90.6474 25.0536 90.3066 24.8708 89.8758C24.688 89.4449 24.6836 88.9591 24.8585 88.525L26.035 85.6153C26.2105 85.1812 26.5513 84.8347 26.9823 84.6519C27.4133 84.4691 27.8993 84.4649 28.3334 84.6404L43.6092 90.8164C44.0429 90.9924 44.3892 91.3331 44.5719 91.764C44.7547 92.1949 44.7592 92.6806 44.5843 93.1148L43.4078 96.0245C43.2756 96.3504 43.0494 96.6295 42.7579 96.8262C42.4664 97.023 42.123 97.1284 41.7713 97.1291Z" fill="#CCCCCC"/>
</svg>
