<svg width="248" height="138" viewBox="0 0 248 138" fill="none" xmlns="http://www.w3.org/2000/svg">
<path d="M240.118 0.431519H7.28681C5.35488 0.433631 3.50268 1.20203 2.1366 2.56811C0.770513 3.9342 0.00211246 5.7864 0 7.71833V130.553C0.00211246 132.485 0.770513 134.337 2.1366 135.703C3.50268 137.069 5.35488 137.838 7.28681 137.84H240.118C242.05 137.838 243.902 137.069 245.268 135.703C246.634 134.337 247.402 132.485 247.405 130.553V7.71833C247.402 5.7864 246.634 3.9342 245.268 2.56811C243.902 1.20203 242.05 0.433631 240.118 0.431519ZM246.711 130.553C246.709 132.301 246.014 133.977 244.778 135.213C243.542 136.449 241.866 137.144 240.118 137.146H7.28681C5.53877 137.144 3.86278 136.449 2.62672 135.213C1.39067 133.977 0.695564 132.301 0.693982 130.553V7.71833C0.695564 5.97029 1.39067 4.2943 2.62672 3.05824C3.86278 1.82219 5.53877 1.12708 7.28681 1.1255H240.118C241.866 1.12708 243.542 1.82219 244.778 3.05824C246.014 4.2943 246.709 5.97029 246.711 7.71833V130.553Z" fill="#E5E5E5"/>
<path d="M228.671 20.3383H18.7415C18.6495 20.3383 18.5612 20.3017 18.4962 20.2366C18.4311 20.1716 18.3945 20.0833 18.3945 19.9913C18.3945 19.8993 18.4311 19.811 18.4962 19.7459C18.5612 19.6809 18.6495 19.6443 18.7415 19.6443H228.671C228.763 19.6443 228.851 19.6809 228.916 19.7459C228.981 19.811 229.018 19.8993 229.018 19.9913C229.018 20.0833 228.981 20.1716 228.916 20.2366C228.851 20.3017 228.763 20.3383 228.671 20.3383Z" fill="#E5E5E5"/>
<path d="M78.0814 122.919C77.9893 122.919 77.9011 122.883 77.836 122.818C77.7709 122.753 77.7344 122.664 77.7344 122.572V8.41231C77.7344 8.32029 77.7709 8.23203 77.836 8.16695C77.9011 8.10188 77.9893 8.06532 78.0814 8.06532C78.1734 8.06532 78.2616 8.10188 78.3267 8.16695C78.3918 8.23203 78.4284 8.32029 78.4284 8.41231V122.572C78.4284 122.664 78.3918 122.753 78.3267 122.818C78.2616 122.883 78.1734 122.919 78.0814 122.919Z" fill="#E5E5E5"/>
<path d="M130.464 122.919C130.372 122.919 130.284 122.883 130.219 122.818C130.154 122.753 130.117 122.664 130.117 122.572V8.41231C130.117 8.32029 130.154 8.23203 130.219 8.16695C130.284 8.10188 130.372 8.06532 130.464 8.06532C130.556 8.06532 130.644 8.10188 130.71 8.16695C130.775 8.23203 130.811 8.32029 130.811 8.41231V122.572C130.811 122.664 130.775 122.753 130.71 122.818C130.644 122.883 130.556 122.919 130.464 122.919Z" fill="#E5E5E5"/>
<path d="M182.867 122.919C182.774 122.919 182.686 122.883 182.621 122.818C182.556 122.753 182.52 122.664 182.52 122.572V8.41231C182.52 8.32029 182.556 8.23203 182.621 8.16695C182.686 8.10188 182.774 8.06532 182.867 8.06532C182.959 8.06532 183.047 8.10188 183.112 8.16695C183.177 8.23203 183.214 8.32029 183.214 8.41231V122.572C183.214 122.664 183.177 122.753 183.112 122.818C183.047 122.883 182.959 122.919 182.867 122.919Z" fill="#E5E5E5"/>
<path d="M44.385 56.1539H31.706C31.292 56.1535 30.8951 55.9888 30.6024 55.6961C30.3097 55.4033 30.145 55.0064 30.1445 54.5925V39.6303C30.145 39.2164 30.3097 38.8194 30.6024 38.5267C30.8951 38.234 31.292 38.0693 31.706 38.0689H44.385C44.799 38.0693 45.1959 38.234 45.4886 38.5267C45.7814 38.8194 45.946 39.2164 45.9465 39.6303V54.5925C45.946 55.0065 45.7814 55.4033 45.4886 55.6961C45.1959 55.9888 44.799 56.1535 44.385 56.1539Z" fill="#A3A3A3"/>
<path d="M62.4436 98.8338H49.7646C49.3506 98.8334 48.9537 98.6687 48.661 98.376C48.3682 98.0833 48.2036 97.6864 48.2031 97.2724V82.3103C48.2036 81.8963 48.3682 81.4994 48.661 81.2066C48.9537 80.9139 49.3506 80.7493 49.7646 80.7488H62.4436C62.8576 80.7493 63.2545 80.9139 63.5472 81.2066C63.84 81.4994 64.0046 81.8963 64.0051 82.3103V97.2724C64.0046 97.6864 63.84 98.0833 63.5472 98.376C63.2545 98.6687 62.8576 98.8334 62.4436 98.8338Z" fill="#A3A3A3"/>
<path d="M103.369 65.1756H90.6904C90.2764 65.1752 89.8795 65.0105 89.5867 64.7178C89.294 64.4251 89.1294 64.0282 89.1289 63.6142V48.6521C89.1294 48.2381 89.294 47.8412 89.5867 47.5485C89.8795 47.2557 90.2764 47.0911 90.6904 47.0906H103.369C103.783 47.0911 104.18 47.2557 104.473 47.5485C104.766 47.8412 104.93 48.2381 104.931 48.6521V63.6142C104.93 64.0282 104.766 64.4251 104.473 64.7178C104.18 65.0105 103.783 65.1752 103.369 65.1756Z" fill="#A3A3A3"/>
<path d="M156.475 48.8671H143.796C143.382 48.8666 142.985 48.7019 142.692 48.4092C142.399 48.1165 142.235 47.7196 142.234 47.3056V32.3435C142.235 31.9295 142.399 31.5326 142.692 31.2399C142.985 30.9472 143.382 30.7825 143.796 30.782H156.475C156.889 30.7825 157.286 30.9472 157.578 31.2399C157.871 31.5326 158.036 31.9295 158.036 32.3435V47.3056C158.036 47.7196 157.871 48.1165 157.578 48.4092C157.286 48.702 156.889 48.8666 156.475 48.8671Z" fill="#A3A3A3"/>
<path d="M205.389 48.8671H192.71C192.296 48.8666 191.899 48.7019 191.606 48.4092C191.314 48.1165 191.149 47.7196 191.148 47.3056V32.3435C191.149 31.9295 191.314 31.5326 191.606 31.2399C191.899 30.9472 192.296 30.7825 192.71 30.782H205.389C205.803 30.7825 206.2 30.9472 206.493 31.2399C206.785 31.5326 206.95 31.9295 206.95 32.3435V47.3056C206.95 47.7196 206.785 48.1165 206.493 48.4092C206.2 48.702 205.803 48.8666 205.389 48.8671Z" fill="#A3A3A3"/>
<path d="M227.948 53.031H215.268C214.855 53.0306 214.458 52.8659 214.165 52.5732C213.872 52.2804 213.707 51.8835 213.707 51.4696V36.5074C213.707 36.0935 213.872 35.6966 214.165 35.4038C214.458 35.1111 214.855 34.9465 215.268 34.946H227.948C228.362 34.9465 228.758 35.1111 229.051 35.4038C229.344 35.6966 229.509 36.0935 229.509 36.5074V51.4696C229.509 51.8836 229.344 52.2804 229.051 52.5732C228.758 52.8659 228.362 53.0306 227.948 53.031Z" fill="#E5E5E5"/>
<path d="M217.877 79.7493H205.198C204.784 79.7488 204.387 79.5841 204.095 79.2914C203.802 78.9987 203.637 78.6018 203.637 78.1878V63.2257C203.637 62.8117 203.802 62.4148 204.095 62.1221C204.387 61.8293 204.784 61.6647 205.198 61.6642H217.877C218.291 61.6647 218.688 61.8293 218.981 62.1221C219.274 62.4148 219.438 62.8117 219.439 63.2257V78.1878C219.438 78.6018 219.274 78.9987 218.981 79.2914C218.688 79.5841 218.291 79.7488 217.877 79.7493Z" fill="#E5E5E5"/>
<path d="M174.869 74.1975H162.19C161.776 74.197 161.379 74.0323 161.087 73.7396C160.794 73.4469 160.629 73.05 160.629 72.636V57.6739C160.629 57.2599 160.794 56.863 161.087 56.5703C161.379 56.2775 161.776 56.1129 162.19 56.1124H174.869C175.283 56.1129 175.68 56.2775 175.973 56.5703C176.266 56.863 176.43 57.2599 176.431 57.6739V72.636C176.43 73.05 176.266 73.4469 175.973 73.7396C175.68 74.0323 175.283 74.197 174.869 74.1975Z" fill="#F5F5F5"/>
<path d="M150.233 79.7493H137.554C137.14 79.7488 136.743 79.5841 136.45 79.2914C136.157 78.9987 135.993 78.6018 135.992 78.1878V63.2257C135.993 62.8117 136.157 62.4148 136.45 62.1221C136.743 61.8293 137.14 61.6647 137.554 61.6642H150.233C150.647 61.6647 151.044 61.8293 151.336 62.1221C151.629 62.4148 151.794 62.8117 151.794 63.2257V78.1878C151.794 78.6018 151.629 78.9987 151.336 79.2914C151.044 79.5841 150.647 79.7488 150.233 79.7493Z" fill="#E5E5E5"/>
<path d="M97.1233 103.345H84.4443C84.0303 103.344 83.6334 103.18 83.3407 102.887C83.0479 102.594 82.8833 102.197 82.8828 101.783V86.8211C82.8833 86.4071 83.0479 86.0102 83.3407 85.7175C83.6334 85.4247 84.0303 85.2601 84.4443 85.2596H97.1233C97.5373 85.2601 97.9342 85.4247 98.2269 85.7175C98.5196 86.0102 98.6843 86.4071 98.6848 86.8211V101.783C98.6843 102.197 98.5196 102.594 98.2269 102.887C97.9342 103.18 97.5373 103.344 97.1233 103.345Z" fill="#E5E5E5"/>
<path d="M32.9397 83.5662H20.2607C19.8467 83.5658 19.4498 83.4011 19.1571 83.1084C18.8643 82.8156 18.6997 82.4188 18.6992 82.0048V67.0426C18.6997 66.6287 18.8643 66.2318 19.1571 65.939C19.4498 65.6463 19.8467 65.4816 20.2607 65.4812H32.9397C33.3537 65.4816 33.7506 65.6463 34.0433 65.939C34.3361 66.2318 34.5007 66.6287 34.5012 67.0426V82.0048C34.5007 82.4188 34.3361 82.8156 34.0433 83.1084C33.7506 83.4011 33.3537 83.5658 32.9397 83.5662Z" fill="#F5F5F5"/>
<path d="M68.6897 56.1539H56.0107C55.5967 56.1535 55.1998 55.9888 54.9071 55.6961C54.6143 55.4033 54.4497 55.0064 54.4492 54.5925V39.6303C54.4497 39.2164 54.6143 38.8194 54.9071 38.5267C55.1998 38.234 55.5967 38.0693 56.0107 38.0689H68.6897C69.1037 38.0693 69.5006 38.234 69.7933 38.5267C70.0861 38.8194 70.2507 39.2164 70.2512 39.6303V54.5925C70.2507 55.0065 70.0861 55.4033 69.7933 55.6961C69.5006 55.9888 69.1037 56.1535 68.6897 56.1539Z" fill="#E5E5E5"/>
<path d="M58.2954 14.6582H38.5169C38.1488 14.6582 37.7957 14.5119 37.5354 14.2516C37.2751 13.9913 37.1289 13.6383 37.1289 13.2702C37.1289 12.9021 37.2751 12.5491 37.5354 12.2888C37.7957 12.0285 38.1488 11.8822 38.5169 11.8822H58.2954C58.6635 11.8822 59.0165 12.0285 59.2768 12.2888C59.5371 12.5491 59.6833 12.9021 59.6833 13.2702C59.6833 13.6383 59.5371 13.9913 59.2768 14.2516C59.0165 14.5119 58.6635 14.6582 58.2954 14.6582Z" fill="#D4D4D4"/>
<path d="M114.159 14.6582H94.3802C94.012 14.6582 93.659 14.5119 93.3987 14.2516C93.1384 13.9913 92.9922 13.6383 92.9922 13.2702C92.9922 12.9021 93.1384 12.5491 93.3987 12.2888C93.659 12.0285 94.012 11.8822 94.3802 11.8822H114.159C114.527 11.8822 114.88 12.0285 115.14 12.2888C115.4 12.5491 115.547 12.9021 115.547 13.2702C115.547 13.6383 115.4 13.9913 115.14 14.2516C114.88 14.5119 114.527 14.6582 114.159 14.6582Z" fill="#D4D4D4"/>
<path d="M166.557 14.6582H146.779C146.41 14.6582 146.057 14.5119 145.797 14.2516C145.537 13.9913 145.391 13.6383 145.391 13.2702C145.391 12.9021 145.537 12.5491 145.797 12.2888C146.057 12.0285 146.41 11.8822 146.779 11.8822H166.557C166.925 11.8822 167.278 12.0285 167.539 12.2888C167.799 12.5491 167.945 12.9021 167.945 13.2702C167.945 13.6383 167.799 13.9913 167.539 14.2516C167.278 14.5119 166.925 14.6582 166.557 14.6582Z" fill="#D4D4D4"/>
<path d="M215.491 14.6582H195.712C195.344 14.6582 194.991 14.5119 194.731 14.2516C194.47 13.9913 194.324 13.6383 194.324 13.2702C194.324 12.9021 194.47 12.5491 194.731 12.2888C194.991 12.0285 195.344 11.8822 195.712 11.8822H215.491C215.859 11.8822 216.212 12.0285 216.472 12.2888C216.732 12.5491 216.879 12.9021 216.879 13.2702C216.879 13.6383 216.732 13.9913 216.472 14.2516C216.212 14.5119 215.859 14.6582 215.491 14.6582Z" fill="#D4D4D4"/>
</svg>
