<svg width="179" height="122" viewBox="0 0 179 122" fill="none" xmlns="http://www.w3.org/2000/svg">
<path d="M64.8237 93.7455C89.413 93.7455 109.347 73.8119 109.347 49.2226C109.347 24.6333 89.413 4.69971 64.8237 4.69971C40.2344 4.69971 20.3008 24.6333 20.3008 49.2226C20.3008 73.8119 40.2344 93.7455 64.8237 93.7455Z" fill="#F2F2F2"/>
<path d="M116.497 92.4296C121.153 92.4296 124.927 88.6552 124.927 83.9992C124.927 79.3433 121.153 75.5688 116.497 75.5688C111.841 75.5688 108.066 79.3433 108.066 83.9992C108.066 88.6552 111.841 92.4296 116.497 92.4296Z" fill="#F2F2F2"/>
<path d="M144.235 119.127C143.954 119.675 143.54 120.145 143.032 120.494C142.523 120.843 141.937 121.06 141.324 121.127C141.009 121.16 141.102 121.641 141.414 121.609C142.091 121.532 142.739 121.292 143.301 120.907C143.864 120.523 144.324 120.007 144.64 119.404C144.675 119.349 144.688 119.284 144.676 119.221C144.664 119.157 144.628 119.101 144.576 119.063C144.522 119.026 144.456 119.013 144.393 119.025C144.329 119.037 144.272 119.074 144.235 119.127Z" fill="white"/>
<path d="M100.432 106.656C79.1525 106.657 60.6376 90.7831 57.9023 69.1314L58.4251 69.0652C61.1265 90.4496 79.4159 106.128 100.433 106.129C102.218 106.129 104.002 106.017 105.774 105.792C128.954 102.864 145.429 81.6238 142.501 58.4441L143.024 58.3779C145.988 81.8459 129.308 103.351 105.84 106.315C104.046 106.542 102.24 106.656 100.432 106.656Z" fill="#262626"/>
<path d="M101.577 115.468H93.1981C93.0191 115.469 92.8423 115.428 92.6811 115.351C92.5198 115.273 92.3782 115.16 92.2669 115.02C92.157 114.883 92.0794 114.723 92.04 114.552C92.0007 114.381 92.0005 114.204 92.0396 114.033C92.8346 110.524 92.7877 106.877 91.9026 103.389C91.8422 103.148 91.8594 102.895 91.9517 102.664C92.044 102.434 92.2067 102.238 92.4166 102.105C95.3152 100.31 98.4715 100.366 102.066 102.277C102.23 102.363 102.371 102.486 102.479 102.635C102.587 102.785 102.66 102.958 102.69 103.14C103.285 106.884 103.306 110.698 102.752 114.448C102.712 114.732 102.572 114.991 102.356 115.179C102.14 115.366 101.863 115.469 101.577 115.468Z" fill="#3F76FF"/>
<path d="M63.3544 70.6825H54.9758C54.7967 70.6829 54.62 70.6428 54.4587 70.5651C54.2974 70.4874 54.1558 70.3742 54.0446 70.234C53.9346 70.0973 53.857 69.9376 53.8177 69.7667C53.7783 69.5958 53.7782 69.4182 53.8173 69.2472C54.6152 65.7262 54.5651 62.0659 53.671 58.568C53.6144 58.3377 53.6281 58.0957 53.7103 57.8733C53.7924 57.6508 53.9392 57.458 54.1319 57.3197C58.4402 54.2211 61.8332 54.311 64.2165 57.5874C64.324 57.7367 64.3954 57.9089 64.4251 58.0905C65.0619 61.9189 65.0971 65.8233 64.5295 69.6626C64.4901 69.9459 64.3493 70.2054 64.1332 70.3929C63.9172 70.5804 63.6405 70.6833 63.3544 70.6825Z" fill="#D4D4D4"/>
<path d="M97.689 107.604H94.8067C94.6476 107.604 94.495 107.54 94.3826 107.428C94.2702 107.315 94.207 107.162 94.207 107.003C94.207 106.844 94.2702 106.691 94.3826 106.579C94.495 106.466 94.6476 106.403 94.8067 106.402H97.689C97.8484 106.402 98.0012 106.466 98.1139 106.578C98.2266 106.691 98.29 106.844 98.29 107.003C98.29 107.163 98.2266 107.316 98.1139 107.428C98.0012 107.541 97.8484 107.604 97.689 107.604Z" fill="white"/>
<path d="M101.213 109.979H94.8067C94.6476 109.979 94.495 109.915 94.3826 109.803C94.2702 109.69 94.207 109.537 94.207 109.378C94.207 109.219 94.2702 109.066 94.3826 108.954C94.495 108.841 94.6476 108.778 94.8067 108.777H101.213C101.372 108.778 101.525 108.841 101.637 108.954C101.75 109.066 101.813 109.219 101.813 109.378C101.813 109.537 101.75 109.69 101.637 109.803C101.525 109.915 101.372 109.979 101.213 109.979Z" fill="white"/>
<path d="M60.814 62.2903H57.9317C57.7726 62.29 57.62 62.2265 57.5076 62.1138C57.3952 62.0012 57.332 61.8485 57.332 61.6893C57.332 61.5302 57.3952 61.3775 57.5076 61.2648C57.62 61.1522 57.7726 61.0887 57.9317 61.0884H60.814C60.9732 61.0887 61.1257 61.1522 61.2381 61.2648C61.3506 61.3775 61.4137 61.5302 61.4137 61.6893C61.4137 61.8485 61.3506 62.0012 61.2381 62.1138C61.1257 62.2265 60.9732 62.29 60.814 62.2903Z" fill="white"/>
<path d="M60.814 64.3977H57.9317C57.7726 64.3974 57.62 64.3339 57.5076 64.2212C57.3952 64.1086 57.332 63.9559 57.332 63.7968C57.332 63.6376 57.3952 63.4849 57.5076 63.3723C57.62 63.2596 57.7726 63.1961 57.9317 63.1958H60.814C60.9732 63.1961 61.1257 63.2596 61.2381 63.3723C61.3506 63.4849 61.4137 63.6376 61.4137 63.7968C61.4137 63.9559 61.3506 64.1086 61.2381 64.2212C61.1257 64.3339 60.9732 64.3974 60.814 64.3977Z" fill="white"/>
<path d="M60.814 66.5061H57.9317C57.7726 66.5058 57.62 66.4423 57.5076 66.3296C57.3952 66.217 57.332 66.0643 57.332 65.9052C57.332 65.746 57.3952 65.5933 57.5076 65.4807C57.62 65.368 57.7726 65.3045 57.9317 65.3042H60.814C60.9732 65.3045 61.1257 65.368 61.2381 65.4807C61.3506 65.5933 61.4137 65.746 61.4137 65.9052C61.4137 66.0643 61.3506 66.217 61.2381 66.3296C61.1257 66.4423 60.9732 66.5058 60.814 66.5061Z" fill="white"/>
<path d="M176.143 80.5809H149.36C148.642 80.5801 147.954 80.2946 147.446 79.787C146.939 79.2794 146.653 78.5913 146.652 77.8735V61.3773C146.653 60.6595 146.939 59.9714 147.446 59.4638C147.954 58.9562 148.642 58.6707 149.36 58.6699H176.143C176.861 58.6707 177.549 58.9562 178.057 59.4638C178.564 59.9714 178.85 60.6595 178.851 61.3773V77.8735C178.85 78.5913 178.564 79.2795 178.057 79.787C177.549 80.2946 176.861 80.5801 176.143 80.5809Z" fill="#E6E6E6"/>
<path d="M165.525 78.4563H151.266C150.594 78.4555 149.949 78.1882 149.474 77.7128C148.999 77.2375 148.731 76.593 148.73 75.9207V63.3305C148.731 62.6582 148.999 62.0137 149.474 61.5384C149.949 61.063 150.594 60.7957 151.266 60.7949H174.284C174.957 60.7957 175.601 61.063 176.077 61.5384C176.552 62.0137 176.819 62.6582 176.82 63.3305V67.162C176.817 70.1564 175.626 73.0272 173.508 75.1445C171.391 77.2619 168.52 78.4529 165.525 78.4563Z" fill="white"/>
<path d="M171.937 67.6877H153.511C153.352 67.6877 153.199 67.6244 153.086 67.5117C152.973 67.399 152.91 67.2461 152.91 67.0868C152.91 66.9274 152.973 66.7745 153.086 66.6618C153.199 66.5492 153.352 66.4858 153.511 66.4858H171.937C172.096 66.4858 172.249 66.5492 172.362 66.6618C172.474 66.7745 172.538 66.9274 172.538 67.0868C172.538 67.2461 172.474 67.399 172.362 67.5117C172.249 67.6244 172.096 67.6877 171.937 67.6877Z" fill="#E5E5E5"/>
<path d="M156.392 70.0623H153.51C153.351 70.0619 153.198 69.9985 153.086 69.8858C152.973 69.7731 152.91 69.6205 152.91 69.4613C152.91 69.3021 152.973 69.1495 153.086 69.0368C153.198 68.9241 153.351 68.8607 153.51 68.8604H156.392C156.551 68.8607 156.704 68.9241 156.816 69.0368C156.929 69.1495 156.992 69.3021 156.992 69.4613C156.992 69.6205 156.929 69.7731 156.816 69.8858C156.704 69.9985 156.551 70.0619 156.392 70.0623Z" fill="#E5E5E5"/>
<path d="M161.498 72.4377H153.511C153.352 72.4377 153.199 72.3744 153.086 72.2617C152.973 72.149 152.91 71.9962 152.91 71.8368C152.91 71.6774 152.973 71.5246 153.086 71.4119C153.199 71.2992 153.352 71.2358 153.511 71.2358H161.498C161.658 71.2358 161.81 71.2992 161.923 71.4119C162.036 71.5246 162.099 71.6774 162.099 71.8368C162.099 71.9962 162.036 72.149 161.923 72.2617C161.81 72.3744 161.658 72.4377 161.498 72.4377Z" fill="#E5E5E5"/>
<path d="M145.748 64.0054C148.877 64.0054 151.414 61.4687 151.414 58.3396C151.414 55.2105 148.877 52.6738 145.748 52.6738C142.619 52.6738 140.082 55.2105 140.082 58.3396C140.082 61.4687 142.619 64.0054 145.748 64.0054Z" fill="#262626"/>
<path d="M81.5586 15.2425C81.9337 13.3387 82.68 11.5274 83.7551 9.9121C84.8302 8.29676 86.2129 6.90898 87.8243 5.82801C91.0787 3.6449 95.067 2.84399 98.9119 3.60148C100.816 3.97655 102.627 4.72293 104.242 5.798C105.858 6.87307 107.245 8.25578 108.326 9.86718C109.407 11.4786 110.16 13.2871 110.542 15.1895C110.924 17.0919 110.928 19.051 110.553 20.9548L110.036 20.8529C110.766 17.1452 109.994 13.2991 107.889 10.1608C105.783 7.02254 102.518 4.84909 98.8101 4.1186C95.1023 3.38812 91.2563 4.16044 88.118 6.26567C84.9797 8.37091 82.8062 11.6366 82.0757 15.3443L81.5586 15.2425Z" fill="#262626"/>
<path d="M87.1952 24.5625L78.8237 24.9092C78.6449 24.917 78.4666 24.8842 78.3022 24.8132C78.1379 24.7423 77.9917 24.635 77.8747 24.4996C77.7592 24.3676 77.6751 24.2112 77.6287 24.042C77.5823 23.8729 77.5748 23.6955 77.6068 23.523C78.2492 20.02 78.062 16.4152 77.0601 12.9975C76.9828 12.7361 76.9985 12.456 77.1046 12.2049C77.2106 11.9538 77.4005 11.7473 77.6418 11.6205C81.0707 9.83905 84.2836 9.74872 87.1907 11.3517C87.3431 11.4345 87.4756 11.5495 87.5789 11.6888C87.6823 11.828 87.754 11.9881 87.7892 12.1579C88.5458 15.8873 88.7273 19.7105 88.3271 23.4947C88.2994 23.7795 88.1695 24.0446 87.9614 24.2409C87.7533 24.4372 87.4811 24.5514 87.1952 24.5625Z" fill="#3F76FF"/>
<path d="M86.875 19.0832L80.474 19.3483C80.3951 19.3517 80.3163 19.3394 80.2422 19.3123C80.168 19.2852 80.0999 19.2437 80.0418 19.1903C79.9837 19.1368 79.9367 19.0724 79.9034 19.0008C79.8702 18.9292 79.8514 18.8517 79.8482 18.7728C79.8449 18.6939 79.8572 18.6151 79.8844 18.541C79.9116 18.4669 79.9531 18.3988 80.0066 18.3407C80.0601 18.2827 80.1245 18.2357 80.1962 18.2025C80.2679 18.1694 80.3454 18.1507 80.4243 18.1475L86.8252 17.8824C86.9041 17.8791 86.9828 17.8914 87.0569 17.9185C87.131 17.9457 87.199 17.9872 87.2571 18.0406C87.3151 18.0941 87.3621 18.1584 87.3953 18.23C87.4285 18.3016 87.4473 18.3791 87.4505 18.4579C87.4538 18.5368 87.4415 18.6155 87.4143 18.6896C87.3872 18.7637 87.3457 18.8317 87.2922 18.8898C87.2388 18.9478 87.1744 18.9948 87.1028 19.028C87.0312 19.0612 86.9538 19.08 86.875 19.0832Z" fill="white"/>
<path d="M86.7807 16.9753L80.3797 17.2404C80.2205 17.247 80.0651 17.1901 79.9479 17.0822C79.8306 16.9742 79.761 16.8241 79.7544 16.6649C79.7478 16.5056 79.8048 16.3503 79.9127 16.233C80.0206 16.1157 80.1707 16.0462 80.33 16.0396L86.7309 15.7744C86.8902 15.7678 87.0455 15.8248 87.1628 15.9327C87.2801 16.0407 87.3497 16.1908 87.3562 16.35C87.3628 16.5093 87.3059 16.6646 87.198 16.7819C87.09 16.8991 86.9399 16.9687 86.7807 16.9753Z" fill="white"/>
<path d="M141.991 21.911H115.207C114.49 21.9102 113.801 21.6247 113.294 21.1171C112.786 20.6095 112.501 19.9214 112.5 19.2036V2.70741C112.501 1.98961 112.786 1.30144 113.294 0.793881C113.801 0.286319 114.49 0.000813734 115.207 0H141.991C142.709 0.000810943 143.397 0.286315 143.905 0.793877C144.412 1.30144 144.698 1.98961 144.698 2.70741V19.2036C144.698 19.9214 144.412 20.6095 143.905 21.1171C143.397 21.6247 142.709 21.9102 141.991 21.911Z" fill="#E6E6E6"/>
<path d="M131.322 19.7849H117.063C116.391 19.7842 115.746 19.5168 115.271 19.0414C114.796 18.5661 114.528 17.9216 114.527 17.2493V4.6591C114.528 3.98685 114.796 3.34235 115.271 2.867C115.746 2.39165 116.391 2.12428 117.063 2.12354H140.081C140.754 2.12428 141.398 2.39166 141.873 2.86701C142.349 3.34236 142.616 3.98686 142.617 4.6591V8.49057C142.613 11.485 141.422 14.3558 139.305 16.4732C137.188 18.5905 134.317 19.7815 131.322 19.7849Z" fill="white"/>
<path d="M137.827 9.01875H119.402C119.242 9.01875 119.089 8.95544 118.977 8.84274C118.864 8.73005 118.801 8.5772 118.801 8.41782C118.801 8.25845 118.864 8.1056 118.977 7.9929C119.089 7.88021 119.242 7.81689 119.402 7.81689H137.827C137.987 7.81689 138.14 7.88021 138.252 7.9929C138.365 8.1056 138.428 8.25845 138.428 8.41782C138.428 8.5772 138.365 8.73005 138.252 8.84274C138.14 8.95544 137.987 9.01875 137.827 9.01875Z" fill="#E5E5E5"/>
<path d="M122.283 11.3943H119.4C119.241 11.394 119.089 11.3305 118.976 11.2178C118.864 11.1052 118.801 10.9525 118.801 10.7933C118.801 10.6342 118.864 10.4815 118.976 10.3688C119.089 10.2562 119.241 10.1927 119.4 10.1924H122.283C122.442 10.1927 122.594 10.2562 122.707 10.3688C122.819 10.4815 122.882 10.6342 122.882 10.7933C122.882 10.9525 122.819 11.1052 122.707 11.2178C122.594 11.3305 122.442 11.394 122.283 11.3943Z" fill="#E5E5E5"/>
<path d="M127.389 13.7693H119.402C119.242 13.7693 119.09 13.706 118.977 13.5933C118.864 13.4806 118.801 13.3277 118.801 13.1683C118.801 13.009 118.864 12.8561 118.977 12.7434C119.09 12.6307 119.242 12.5674 119.402 12.5674H127.389C127.548 12.5677 127.701 12.6312 127.813 12.7438C127.925 12.8565 127.989 13.0092 127.989 13.1683C127.989 13.3275 127.925 13.4802 127.813 13.5928C127.701 13.7055 127.548 13.769 127.389 13.7693Z" fill="#E5E5E5"/>
<path d="M115.658 24.7646C117.31 22.1071 116.495 18.6136 113.837 16.9616C111.18 15.3097 107.686 16.1248 106.034 18.7824C104.382 21.4399 105.197 24.9334 107.855 26.5854C110.512 28.2373 114.006 27.4222 115.658 24.7646Z" fill="#262626"/>
<path d="M35.3719 65.9746C33.0473 59.8295 33.2591 53.0127 35.9607 47.0238C38.6622 41.0349 43.6322 36.3644 49.7773 34.0398C55.9224 31.7153 62.7392 31.9271 68.7281 34.6286C74.7171 37.3302 79.3875 42.3001 81.7121 48.4452L81.2191 48.6317C80.0926 45.6537 78.3906 42.9268 76.2102 40.6065C74.0298 38.2863 71.4138 36.4183 68.5115 35.1091C65.6091 33.7999 62.4773 33.0751 59.2949 32.9762C56.1125 32.8774 52.9418 33.4063 49.9638 34.5328C46.9858 35.6593 44.2588 37.3613 41.9386 39.5417C39.6184 41.7221 37.7503 44.3381 36.4411 47.2404C35.1319 50.1428 34.4072 53.2745 34.3083 56.457C34.2094 59.6394 34.7383 62.8101 35.8648 65.7881L35.3719 65.9746Z" fill="#262626"/>
<path d="M57.0595 41.4373H48.6809C48.5019 41.4377 48.3251 41.3975 48.1638 41.3199C48.0025 41.2422 47.861 41.129 47.7497 40.9888C47.6397 40.8521 47.5622 40.6924 47.5228 40.5215C47.4834 40.3506 47.4833 40.173 47.5224 40.002C48.3155 36.5013 48.2707 32.8627 47.3914 29.3826C47.3291 29.1363 47.3482 28.8765 47.4459 28.642C47.5436 28.4075 47.7147 28.2109 47.9335 28.0818C50.9686 26.3151 54.2097 26.369 57.5666 28.2425C57.7256 28.3292 57.8626 28.451 57.9673 28.5986C58.072 28.7463 58.1415 28.9159 58.1707 29.0946C58.7682 32.8436 58.7898 36.6618 58.2346 40.4174C58.1952 40.7007 58.0544 40.9602 57.8384 41.1477C57.6223 41.3352 57.3456 41.4381 57.0595 41.4373Z" fill="#3F76FF"/>
<path d="M53.1187 33.3123H50.2364C50.0773 33.3119 49.9247 33.2485 49.8123 33.1358C49.6999 33.0231 49.6367 32.8705 49.6367 32.7113C49.6367 32.5521 49.6999 32.3995 49.8123 32.2868C49.9247 32.1741 50.0773 32.1107 50.2364 32.1104H53.1187C53.2779 32.1107 53.4304 32.1741 53.5428 32.2868C53.6552 32.3995 53.7184 32.5521 53.7184 32.7113C53.7184 32.8705 53.6552 33.0231 53.5428 33.1358C53.4304 33.2485 53.2779 33.3119 53.1187 33.3123Z" fill="white"/>
<path d="M56.6441 35.6868H50.2377C50.0783 35.6868 49.9254 35.6235 49.8127 35.5108C49.7 35.3981 49.6367 35.2452 49.6367 35.0858C49.6367 34.9264 49.7 34.7736 49.8127 34.6609C49.9254 34.5482 50.0783 34.4849 50.2377 34.4849H56.6441C56.8033 34.4852 56.9558 34.5487 57.0682 34.6613C57.1807 34.774 57.2438 34.9267 57.2438 35.0858C57.2438 35.245 57.1807 35.3977 57.0682 35.5103C56.9558 35.623 56.8033 35.6864 56.6441 35.6868Z" fill="white"/>
<path d="M29.491 65.6424H2.70739C1.9896 65.6416 1.30143 65.3561 0.793869 64.8485C0.28631 64.341 0.000809544 63.6528 0 62.935V46.4388C0.000809544 45.7211 0.28631 45.0329 0.793869 44.5253C1.30143 44.0178 1.9896 43.7323 2.70739 43.7314H29.491C30.2088 43.7323 30.897 44.0178 31.4045 44.5253C31.9121 45.0329 32.1976 45.721 32.1984 46.4388V62.935C32.1976 63.6528 31.9121 64.341 31.4045 64.8485C30.897 65.3561 30.2088 65.6416 29.491 65.6424Z" fill="#E6E6E6"/>
<path d="M18.8302 63.5188H4.57086C3.8986 63.518 3.25408 63.2507 2.77871 62.7753C2.30334 62.3 2.03593 61.6555 2.03516 60.9832V48.393C2.03593 47.7207 2.30334 47.0762 2.77871 46.6009C3.25408 46.1255 3.8986 45.8582 4.57086 45.8574H27.5891C28.2613 45.8582 28.9058 46.1255 29.3812 46.6009C29.8565 47.0762 30.1239 47.7207 30.1247 48.393V52.2245C30.1213 55.2189 28.9302 58.0897 26.8128 60.207C24.6954 62.3244 21.8246 63.5154 18.8302 63.5188Z" fill="white"/>
<path d="M25.3509 52.7522H6.92515C6.76577 52.7522 6.61292 52.6888 6.50023 52.5761C6.38753 52.4634 6.32422 52.3106 6.32422 52.1512C6.32422 51.9918 6.38753 51.839 6.50023 51.7263C6.61292 51.6136 6.76577 51.5503 6.92515 51.5503H25.3509C25.5103 51.5503 25.6632 51.6136 25.7759 51.7263C25.8885 51.839 25.9519 51.9918 25.9519 52.1512C25.9519 52.3106 25.8885 52.4634 25.7759 52.5761C25.6632 52.6888 25.5103 52.7522 25.3509 52.7522Z" fill="#E5E5E5"/>
<path d="M9.80619 55.1267H6.92392C6.76475 55.1264 6.61222 55.0629 6.49979 54.9503C6.38736 54.8376 6.32422 54.6849 6.32422 54.5258C6.32422 54.3666 6.38736 54.2139 6.49979 54.1013C6.61222 53.9886 6.76475 53.9251 6.92392 53.9248H9.80619C9.96536 53.9251 10.1179 53.9886 10.2303 54.1013C10.3427 54.2139 10.4059 54.3666 10.4059 54.5258C10.4059 54.6849 10.3427 54.8376 10.2303 54.9503C10.1179 55.0629 9.96536 55.1264 9.80619 55.1267Z" fill="#E5E5E5"/>
<path d="M14.9111 57.5017H6.92392C6.76475 57.5014 6.61222 57.4379 6.49979 57.3253C6.38736 57.2126 6.32422 57.0599 6.32422 56.9008C6.32422 56.7416 6.38736 56.5889 6.49979 56.4763C6.61222 56.3636 6.76475 56.3001 6.92392 56.2998H14.9111C15.0704 56.2998 15.2233 56.3631 15.336 56.4758C15.4487 56.5885 15.512 56.7414 15.512 56.9008C15.512 57.0601 15.4487 57.213 15.336 57.3257C15.2233 57.4384 15.0704 57.5017 14.9111 57.5017Z" fill="#E5E5E5"/>
<path d="M40.0524 67.9717C41.7044 65.3141 40.8892 61.8206 38.2317 60.1687C35.5741 58.5167 32.0806 59.3319 30.4286 61.9894C28.7767 64.6469 29.5919 68.1404 32.2494 69.7924C34.9069 71.4444 38.4004 70.6292 40.0524 67.9717Z" fill="#262626"/>
<path d="M85.757 57.2463H77.3784C77.1994 57.2467 77.0226 57.2065 76.8613 57.1289C76.7 57.0512 76.5584 56.938 76.4472 56.7978C76.3372 56.6611 76.2597 56.5014 76.2203 56.3305C76.1809 56.1596 76.1808 55.982 76.2199 55.811C77.0116 52.3164 76.9683 48.6844 76.0935 45.2097C76.0315 44.96 76.0525 44.6969 76.1535 44.4602C76.2545 44.2235 76.4299 44.0263 76.6531 43.8983C80.7233 41.5684 83.9462 41.6327 86.5061 44.095C86.6855 44.2706 86.8036 44.4993 86.843 44.7473C87.465 48.5461 87.495 52.4183 86.9321 56.2264C86.8927 56.5097 86.7519 56.7692 86.5358 56.9567C86.3198 57.1442 86.0431 57.2471 85.757 57.2463Z" fill="#D4D4D4"/>
<path d="M82.3921 49.3806H79.5099C79.3507 49.3803 79.1982 49.3168 79.0857 49.2042C78.9733 49.0915 78.9102 48.9388 78.9102 48.7797C78.9102 48.6205 78.9733 48.4678 79.0857 48.3552C79.1982 48.2425 79.3507 48.179 79.5099 48.1787H82.3921C82.5513 48.179 82.7038 48.2425 82.8163 48.3552C82.9287 48.4678 82.9918 48.6205 82.9918 48.7797C82.9918 48.9388 82.9287 49.0915 82.8163 49.2042C82.7038 49.3168 82.5513 49.3803 82.3921 49.3806Z" fill="white"/>
<path d="M85.9175 51.7561H79.5111C79.3517 51.7561 79.1989 51.6928 79.0862 51.5801C78.9735 51.4674 78.9102 51.3145 78.9102 51.1552C78.9102 50.9958 78.9735 50.8429 79.0862 50.7302C79.1989 50.6175 79.3517 50.5542 79.5111 50.5542H85.9175C86.0767 50.5545 86.2292 50.618 86.3417 50.7307C86.4541 50.8433 86.5172 50.996 86.5172 51.1552C86.5172 51.3143 86.4541 51.467 86.3417 51.5797C86.2292 51.6923 86.0767 51.7558 85.9175 51.7561Z" fill="white"/>
</svg>
