<svg width="24" height="24" viewBox="0 0 24 24" fill="none" xmlns="http://www.w3.org/2000/svg">
<g clip-path="url(#clip0_6990_114419)">
<rect width="24" height="24" rx="12" fill="#FAFAFA"/>
<path d="M15.9375 6.3125H8.9375C8.70544 6.3125 8.48288 6.40469 8.31878 6.56878C8.15469 6.73288 8.0625 6.95544 8.0625 7.1875V8.5H7.1875C6.95544 8.5 6.73288 8.59219 6.56878 8.75628C6.40469 8.92038 6.3125 9.14294 6.3125 9.375V14.625C6.3125 14.8571 6.40469 15.0796 6.56878 15.2437C6.73288 15.4078 6.95544 15.5 7.1875 15.5H8.0625V16.8125C8.0625 17.0446 8.15469 17.2671 8.31878 17.4312C8.48288 17.5953 8.70544 17.6875 8.9375 17.6875H15.9375C16.1696 17.6875 16.3921 17.5953 16.5562 17.4312C16.7203 17.2671 16.8125 17.0446 16.8125 16.8125V7.1875C16.8125 6.95544 16.7203 6.73288 16.5562 6.56878C16.3921 6.40469 16.1696 6.3125 15.9375 6.3125ZM13.75 10.6875H15.9375V13.3125H13.75V10.6875ZM15.9375 9.8125H13.75V9.375C13.75 9.14294 13.6578 8.92038 13.4937 8.75628C13.3296 8.59219 13.1071 8.5 12.875 8.5V7.1875H15.9375V9.8125ZM8.9375 7.1875H12V8.5H8.9375V7.1875ZM7.1875 9.375H12.875V14.625H7.1875V9.375ZM8.9375 15.5H12V16.8125H8.9375V15.5ZM12.875 16.8125V15.5C13.1071 15.5 13.3296 15.4078 13.4937 15.2437C13.6578 15.0796 13.75 14.8571 13.75 14.625V14.1875H15.9375V16.8125H12.875ZM8.60117 13.0325L9.46195 12L8.60117 10.9675C8.52691 10.8783 8.49113 10.7633 8.50169 10.6477C8.51225 10.5321 8.5683 10.4254 8.6575 10.3512C8.7467 10.2769 8.86175 10.2411 8.97733 10.2517C9.09291 10.2623 9.19957 10.3183 9.27383 10.4075L10.0312 11.3164L10.7887 10.4075C10.8254 10.3633 10.8706 10.3268 10.9214 10.3001C10.9723 10.2734 11.0279 10.2569 11.0852 10.2517C11.1424 10.2465 11.2001 10.2526 11.255 10.2696C11.3099 10.2867 11.3608 10.3144 11.405 10.3512C11.4492 10.3879 11.4857 10.4331 11.5124 10.4839C11.5391 10.5348 11.5556 10.5904 11.5608 10.6477C11.566 10.7049 11.5599 10.7626 11.5429 10.8175C11.5258 10.8724 11.4981 10.9233 11.4613 10.9675L10.6005 12L11.4613 13.0325C11.5356 13.1217 11.5714 13.2367 11.5608 13.3523C11.5502 13.4679 11.4942 13.5746 11.405 13.6488C11.3158 13.7231 11.2008 13.7589 11.0852 13.7483C10.9696 13.7377 10.8629 13.6817 10.7887 13.5925L10.0312 12.6836L9.27383 13.5925C9.19957 13.6817 9.09291 13.7377 8.97733 13.7483C8.86175 13.7589 8.7467 13.7231 8.6575 13.6488C8.5683 13.5746 8.51225 13.4679 8.50169 13.3523C8.49113 13.2367 8.52691 13.1217 8.60117 13.0325Z" fill="#3F76FF"/>
</g>
<defs>
<clipPath id="clip0_6990_114419">
<rect width="24" height="24" fill="white"/>
</clipPath>
</defs>
</svg>
