<svg width="24" height="24" viewBox="0 0 24 24" fill="none" xmlns="http://www.w3.org/2000/svg">
<g clip-path="url(#clip0_6990_114394)">
<rect width="24" height="24" rx="12" fill="#FAFAFA"/>
<path d="M13.4583 6.1665H8.49992C8.1905 6.1665 7.89375 6.28942 7.67496 6.50821C7.45617 6.72701 7.33325 7.02375 7.33325 7.33317V16.6665C7.33325 16.9759 7.45617 17.2727 7.67496 17.4915C7.89375 17.7103 8.1905 17.8332 8.49992 17.8332H15.4999C15.8093 17.8332 16.1061 17.7103 16.3249 17.4915C16.5437 17.2727 16.6666 16.9759 16.6666 16.6665V9.37484L13.4583 6.1665Z" stroke="#3F76FF" stroke-linecap="round" stroke-linejoin="round"/>
<path d="M13.1665 6.1665V9.6665H16.6665M10.8332 11.9998C10.6785 11.9998 10.5301 12.0613 10.4207 12.1707C10.3113 12.2801 10.2498 12.4285 10.2498 12.5832V13.1665C10.2498 13.3212 10.1884 13.4696 10.079 13.579C9.96959 13.6884 9.82121 13.7498 9.6665 13.7498C9.82121 13.7498 9.96959 13.8113 10.079 13.9207C10.1884 14.0301 10.2498 14.1785 10.2498 14.3332V14.9165C10.2498 15.0712 10.3113 15.2196 10.4207 15.329C10.5301 15.4384 10.6785 15.4998 10.8332 15.4998M13.1665 15.4998C13.3212 15.4998 13.4696 15.4384 13.579 15.329C13.6884 15.2196 13.7498 15.0712 13.7498 14.9165V14.3332C13.7498 14.1785 13.8113 14.0301 13.9207 13.9207C14.0301 13.8113 14.1785 13.7498 14.3332 13.7498C14.1785 13.7498 14.0301 13.6884 13.9207 13.579C13.8113 13.4696 13.7498 13.3212 13.7498 13.1665V12.5832C13.7498 12.4285 13.6884 12.2801 13.579 12.1707C13.4696 12.0613 13.3212 11.9998 13.1665 11.9998" stroke="#3F76FF" strokeWidth="0.75" stroke-linecap="round" stroke-linejoin="round"/>
</g>
<defs>
<clipPath id="clip0_6990_114394">
<rect width="24" height="24" fill="white"/>
</clipPath>
</defs>
</svg>
