<svg width="1670" height="1030" viewBox="0 0 1670 1030" fill="none" xmlns="http://www.w3.org/2000/svg">
<circle cx="131" cy="67" r="3" fill="white" fill-opacity="0.1"/>
<circle cx="3" cy="67" r="3" fill="white" fill-opacity="0.02"/>
<circle cx="131" cy="707" r="3" fill="white" fill-opacity="0.1"/>
<circle cx="3" cy="707" r="3" fill="white" fill-opacity="0.02"/>
<circle cx="131" cy="771" r="3" fill="white" fill-opacity="0.1"/>
<circle cx="131" cy="963" r="3" fill="white" fill-opacity="0.1"/>
<circle cx="131" cy="1027" r="3" fill="white" fill-opacity="0.1"/>
<circle cx="131" cy="3" r="3" fill="white" fill-opacity="0.1"/>
<circle cx="3" cy="771" r="3" fill="white" fill-opacity="0.02"/>
<circle cx="3" cy="963" r="3" fill="white" fill-opacity="0.02"/>
<circle cx="3" cy="1027" r="3" fill="white" fill-opacity="0.02"/>
<circle cx="3" cy="3" r="3" fill="white" fill-opacity="0.02"/>
<circle cx="131" cy="835" r="3" fill="white" fill-opacity="0.1"/>
<circle cx="3" cy="835" r="3" fill="white" fill-opacity="0.02"/>
<circle cx="131" cy="899" r="3" fill="white" fill-opacity="0.1"/>
<circle cx="3" cy="899" r="3" fill="white" fill-opacity="0.02"/>
<circle cx="131" cy="131" r="3" fill="white" fill-opacity="0.1"/>
<circle cx="3" cy="131" r="3" fill="white" fill-opacity="0.02"/>
<circle cx="131" cy="195" r="3" fill="white" fill-opacity="0.1"/>
<circle cx="3" cy="195" r="3" fill="white" fill-opacity="0.02"/>
<circle cx="131" cy="259" r="3" fill="white" fill-opacity="0.1"/>
<circle cx="3" cy="259" r="3" fill="white" fill-opacity="0.02"/>
<circle cx="131" cy="323" r="3" fill="white" fill-opacity="0.1"/>
<circle cx="3" cy="323" r="3" fill="white" fill-opacity="0.02"/>
<circle cx="131" cy="387" r="3" fill="white" fill-opacity="0.1"/>
<circle cx="3" cy="387" r="3" fill="white" fill-opacity="0.02"/>
<circle cx="131" cy="451" r="3" fill="white" fill-opacity="0.1"/>
<circle cx="3" cy="451" r="3" fill="white" fill-opacity="0.02"/>
<circle cx="131" cy="515" r="3" fill="white" fill-opacity="0.1"/>
<circle cx="3" cy="515" r="3" fill="white" fill-opacity="0.02"/>
<circle cx="131" cy="579" r="3" fill="white" fill-opacity="0.1"/>
<circle cx="3" cy="579" r="3" fill="white" fill-opacity="0.02"/>
<circle cx="131" cy="643" r="3" fill="white" fill-opacity="0.1"/>
<circle cx="3" cy="643" r="3" fill="white" fill-opacity="0.02"/>
<circle cx="195" cy="67" r="3" fill="white" fill-opacity="0.15"/>
<circle cx="67" cy="67" r="3" fill="white" fill-opacity="0.1"/>
<circle cx="195" cy="707" r="3" fill="white" fill-opacity="0.15"/>
<circle cx="67" cy="707" r="3" fill="white" fill-opacity="0.1"/>
<circle cx="195" cy="771" r="3" fill="white" fill-opacity="0.15"/>
<circle cx="195" cy="963" r="3" fill="white" fill-opacity="0.15"/>
<circle cx="195" cy="1027" r="3" fill="white" fill-opacity="0.15"/>
<circle cx="195" cy="3" r="3" fill="white" fill-opacity="0.15"/>
<circle cx="67" cy="771" r="3" fill="white" fill-opacity="0.1"/>
<circle cx="67" cy="963" r="3" fill="white" fill-opacity="0.1"/>
<circle cx="67" cy="1027" r="3" fill="white" fill-opacity="0.1"/>
<circle cx="67" cy="3" r="3" fill="white" fill-opacity="0.1"/>
<circle cx="195" cy="835" r="3" fill="white" fill-opacity="0.15"/>
<circle cx="67" cy="835" r="3" fill="white" fill-opacity="0.1"/>
<circle cx="195" cy="899" r="3" fill="white" fill-opacity="0.15"/>
<circle cx="67" cy="899" r="3" fill="white" fill-opacity="0.1"/>
<circle cx="195" cy="131" r="3" fill="white" fill-opacity="0.15"/>
<circle cx="67" cy="131" r="3" fill="white" fill-opacity="0.1"/>
<circle cx="195" cy="195" r="3" fill="white" fill-opacity="0.15"/>
<circle cx="67" cy="195" r="3" fill="white" fill-opacity="0.1"/>
<circle cx="195" cy="259" r="3" fill="white" fill-opacity="0.15"/>
<circle cx="67" cy="259" r="3" fill="white" fill-opacity="0.1"/>
<circle cx="195" cy="323" r="3" fill="white" fill-opacity="0.15"/>
<circle cx="67" cy="323" r="3" fill="white" fill-opacity="0.1"/>
<circle cx="195" cy="387" r="3" fill="white" fill-opacity="0.15"/>
<circle cx="67" cy="387" r="3" fill="white" fill-opacity="0.1"/>
<circle cx="195" cy="451" r="3" fill="white" fill-opacity="0.15"/>
<circle cx="67" cy="451" r="3" fill="white" fill-opacity="0.1"/>
<circle cx="195" cy="515" r="3" fill="white" fill-opacity="0.15"/>
<circle cx="67" cy="515" r="3" fill="white" fill-opacity="0.1"/>
<circle cx="195" cy="579" r="3" fill="white" fill-opacity="0.15"/>
<circle cx="67" cy="579" r="3" fill="white" fill-opacity="0.1"/>
<circle cx="195" cy="643" r="3" fill="white" fill-opacity="0.15"/>
<circle cx="67" cy="643" r="3" fill="white" fill-opacity="0.1"/>
<circle cx="259" cy="67" r="3" fill="white" fill-opacity="0.15"/>
<circle cx="259" cy="707" r="3" fill="white" fill-opacity="0.15"/>
<circle cx="259" cy="771" r="3" fill="white" fill-opacity="0.15"/>
<circle cx="259" cy="963" r="3" fill="white" fill-opacity="0.15"/>
<circle cx="259" cy="1027" r="3" fill="white" fill-opacity="0.15"/>
<circle cx="259" cy="3" r="3" fill="white" fill-opacity="0.15"/>
<circle cx="259" cy="835" r="3" fill="white" fill-opacity="0.15"/>
<circle cx="259" cy="899" r="3" fill="white" fill-opacity="0.15"/>
<circle cx="259" cy="131" r="3" fill="white" fill-opacity="0.15"/>
<circle cx="259" cy="195" r="3" fill="white" fill-opacity="0.15"/>
<circle cx="259" cy="259" r="3" fill="white" fill-opacity="0.15"/>
<circle cx="259" cy="323" r="3" fill="white" fill-opacity="0.15"/>
<circle cx="259" cy="387" r="3" fill="white" fill-opacity="0.15"/>
<circle cx="259" cy="451" r="3" fill="white" fill-opacity="0.15"/>
<circle cx="259" cy="515" r="3" fill="white" fill-opacity="0.15"/>
<circle cx="259" cy="579" r="3" fill="white" fill-opacity="0.15"/>
<circle cx="259" cy="643" r="3" fill="white" fill-opacity="0.15"/>
<circle cx="323" cy="67" r="3" fill="white" fill-opacity="0.25"/>
<circle cx="323" cy="707" r="3" fill="white" fill-opacity="0.25"/>
<circle cx="323" cy="771" r="3" fill="white" fill-opacity="0.25"/>
<circle cx="323" cy="963" r="3" fill="white" fill-opacity="0.25"/>
<circle cx="323" cy="1027" r="3" fill="white" fill-opacity="0.25"/>
<circle cx="323" cy="3" r="3" fill="white" fill-opacity="0.25"/>
<circle cx="323" cy="835" r="3" fill="white" fill-opacity="0.25"/>
<circle cx="323" cy="899" r="3" fill="white" fill-opacity="0.25"/>
<circle cx="323" cy="131" r="3" fill="white" fill-opacity="0.25"/>
<circle cx="323" cy="195" r="3" fill="white" fill-opacity="0.25"/>
<circle cx="323" cy="259" r="3" fill="white" fill-opacity="0.25"/>
<circle cx="323" cy="323" r="3" fill="white" fill-opacity="0.25"/>
<circle cx="323" cy="387" r="3" fill="white" fill-opacity="0.25"/>
<circle cx="323" cy="451" r="3" fill="white" fill-opacity="0.25"/>
<circle cx="323" cy="515" r="3" fill="white" fill-opacity="0.25"/>
<circle cx="323" cy="579" r="3" fill="white" fill-opacity="0.25"/>
<circle cx="323" cy="643" r="3" fill="white" fill-opacity="0.25"/>
<circle cx="387" cy="67" r="3" fill="white" fill-opacity="0.35"/>
<circle cx="387" cy="707" r="3" fill="white" fill-opacity="0.35"/>
<circle cx="387" cy="771" r="3" fill="white" fill-opacity="0.35"/>
<circle cx="387" cy="963" r="3" fill="white" fill-opacity="0.35"/>
<circle cx="387" cy="1027" r="3" fill="white" fill-opacity="0.35"/>
<circle cx="387" cy="3" r="3" fill="white" fill-opacity="0.35"/>
<circle cx="387" cy="835" r="3" fill="white" fill-opacity="0.35"/>
<circle cx="387" cy="899" r="3" fill="white" fill-opacity="0.35"/>
<circle cx="387" cy="131" r="3" fill="white" fill-opacity="0.35"/>
<circle cx="387" cy="195" r="3" fill="white" fill-opacity="0.35"/>
<circle cx="387" cy="259" r="3" fill="white" fill-opacity="0.35"/>
<circle cx="387" cy="323" r="3" fill="white" fill-opacity="0.35"/>
<circle cx="387" cy="387" r="3" fill="white" fill-opacity="0.35"/>
<circle cx="387" cy="451" r="3" fill="white" fill-opacity="0.35"/>
<circle cx="387" cy="515" r="3" fill="white" fill-opacity="0.35"/>
<circle cx="387" cy="579" r="3" fill="white" fill-opacity="0.35"/>
<circle cx="387" cy="643" r="3" fill="white" fill-opacity="0.35"/>
<circle cx="451" cy="67" r="3" fill="white" fill-opacity="0.45"/>
<circle cx="451" cy="707" r="3" fill="white" fill-opacity="0.45"/>
<circle cx="451" cy="771" r="3" fill="white" fill-opacity="0.45"/>
<circle cx="451" cy="963" r="3" fill="white" fill-opacity="0.45"/>
<circle cx="451" cy="1027" r="3" fill="white" fill-opacity="0.45"/>
<circle cx="451" cy="3" r="3" fill="white" fill-opacity="0.45"/>
<circle cx="451" cy="835" r="3" fill="white" fill-opacity="0.45"/>
<circle cx="451" cy="899" r="3" fill="white" fill-opacity="0.45"/>
<circle cx="451" cy="131" r="3" fill="white" fill-opacity="0.45"/>
<circle cx="451" cy="195" r="3" fill="white" fill-opacity="0.45"/>
<circle cx="451" cy="259" r="3" fill="white" fill-opacity="0.45"/>
<circle cx="451" cy="323" r="3" fill="white" fill-opacity="0.45"/>
<circle cx="451" cy="387" r="3" fill="white" fill-opacity="0.45"/>
<circle cx="451" cy="451" r="3" fill="white" fill-opacity="0.45"/>
<circle cx="451" cy="515" r="3" fill="white" fill-opacity="0.45"/>
<circle cx="451" cy="579" r="3" fill="white" fill-opacity="0.45"/>
<circle cx="451" cy="643" r="3" fill="white" fill-opacity="0.45"/>
<circle cx="515" cy="67" r="3" fill="white" fill-opacity="0.55"/>
<circle cx="515" cy="707" r="3" fill="white" fill-opacity="0.55"/>
<circle cx="515" cy="771" r="3" fill="white" fill-opacity="0.55"/>
<circle cx="515" cy="963" r="3" fill="white" fill-opacity="0.55"/>
<circle cx="515" cy="1027" r="3" fill="white" fill-opacity="0.55"/>
<circle cx="515" cy="3" r="3" fill="white" fill-opacity="0.55"/>
<circle cx="515" cy="835" r="3" fill="white" fill-opacity="0.55"/>
<circle cx="515" cy="899" r="3" fill="white" fill-opacity="0.55"/>
<circle cx="515" cy="131" r="3" fill="white" fill-opacity="0.55"/>
<circle cx="515" cy="195" r="3" fill="white" fill-opacity="0.55"/>
<circle cx="515" cy="259" r="3" fill="white" fill-opacity="0.55"/>
<circle cx="515" cy="323" r="3" fill="white" fill-opacity="0.55"/>
<circle cx="515" cy="387" r="3" fill="white" fill-opacity="0.55"/>
<circle cx="515" cy="451" r="3" fill="white" fill-opacity="0.55"/>
<circle cx="515" cy="515" r="3" fill="white" fill-opacity="0.55"/>
<circle cx="515" cy="579" r="3" fill="white" fill-opacity="0.55"/>
<circle cx="515" cy="643" r="3" fill="white" fill-opacity="0.55"/>
<circle cx="579" cy="67" r="3" fill="white" fill-opacity="0.65"/>
<circle cx="579" cy="707" r="3" fill="white" fill-opacity="0.65"/>
<circle cx="579" cy="771" r="3" fill="white" fill-opacity="0.65"/>
<circle cx="579" cy="963" r="3" fill="white" fill-opacity="0.65"/>
<circle cx="579" cy="1027" r="3" fill="white" fill-opacity="0.65"/>
<circle cx="579" cy="3" r="3" fill="white" fill-opacity="0.65"/>
<circle cx="579" cy="835" r="3" fill="white" fill-opacity="0.65"/>
<circle cx="579" cy="899" r="3" fill="white" fill-opacity="0.65"/>
<circle cx="579" cy="131" r="3" fill="white" fill-opacity="0.65"/>
<circle cx="579" cy="195" r="3" fill="white" fill-opacity="0.65"/>
<circle cx="579" cy="259" r="3" fill="white" fill-opacity="0.65"/>
<circle cx="579" cy="323" r="3" fill="white" fill-opacity="0.65"/>
<circle cx="579" cy="387" r="3" fill="white" fill-opacity="0.65"/>
<circle cx="579" cy="451" r="3" fill="white" fill-opacity="0.65"/>
<circle cx="579" cy="515" r="3" fill="white" fill-opacity="0.65"/>
<circle cx="579" cy="579" r="3" fill="white" fill-opacity="0.65"/>
<circle cx="579" cy="643" r="3" fill="white" fill-opacity="0.65"/>
<circle cx="643" cy="67" r="3" fill="white" fill-opacity="0.75"/>
<circle cx="643" cy="707" r="3" fill="white" fill-opacity="0.75"/>
<circle cx="643" cy="771" r="3" fill="white" fill-opacity="0.75"/>
<circle cx="643" cy="963" r="3" fill="white" fill-opacity="0.75"/>
<circle cx="643" cy="1027" r="3" fill="white" fill-opacity="0.75"/>
<circle cx="643" cy="3" r="3" fill="white" fill-opacity="0.75"/>
<circle cx="643" cy="835" r="3" fill="white" fill-opacity="0.75"/>
<circle cx="643" cy="899" r="3" fill="white" fill-opacity="0.75"/>
<circle cx="643" cy="131" r="3" fill="white" fill-opacity="0.75"/>
<circle cx="643" cy="195" r="3" fill="white" fill-opacity="0.75"/>
<circle cx="643" cy="259" r="3" fill="white" fill-opacity="0.75"/>
<circle cx="643" cy="323" r="3" fill="white" fill-opacity="0.75"/>
<circle cx="643" cy="387" r="3" fill="white" fill-opacity="0.75"/>
<circle cx="643" cy="451" r="3" fill="white" fill-opacity="0.75"/>
<circle cx="643" cy="515" r="3" fill="white" fill-opacity="0.75"/>
<circle cx="643" cy="579" r="3" fill="white" fill-opacity="0.75"/>
<circle cx="643" cy="643" r="3" fill="white" fill-opacity="0.75"/>
<circle cx="707" cy="67" r="3" fill="white" fill-opacity="0.85"/>
<circle cx="707" cy="707" r="3" fill="white" fill-opacity="0.85"/>
<circle cx="707" cy="771" r="3" fill="white" fill-opacity="0.85"/>
<circle cx="707" cy="963" r="3" fill="white" fill-opacity="0.85"/>
<circle cx="707" cy="1027" r="3" fill="white" fill-opacity="0.85"/>
<circle cx="707" cy="3" r="3" fill="white" fill-opacity="0.85"/>
<circle cx="707" cy="835" r="3" fill="white" fill-opacity="0.85"/>
<circle cx="707" cy="899" r="3" fill="white" fill-opacity="0.85"/>
<circle cx="707" cy="131" r="3" fill="white" fill-opacity="0.85"/>
<circle cx="707" cy="195" r="3" fill="white" fill-opacity="0.85"/>
<circle cx="707" cy="259" r="3" fill="white" fill-opacity="0.85"/>
<circle cx="707" cy="323" r="3" fill="white" fill-opacity="0.85"/>
<circle cx="707" cy="387" r="3" fill="white" fill-opacity="0.85"/>
<circle cx="707" cy="451" r="3" fill="white" fill-opacity="0.85"/>
<circle cx="707" cy="515" r="3" fill="white" fill-opacity="0.85"/>
<circle cx="707" cy="579" r="3" fill="white" fill-opacity="0.85"/>
<circle cx="707" cy="643" r="3" fill="white" fill-opacity="0.85"/>
<circle opacity="0.95" cx="771" cy="67" r="3" fill="white"/>
<circle opacity="0.95" cx="771" cy="707" r="3" fill="white"/>
<circle opacity="0.95" cx="771" cy="771" r="3" fill="white"/>
<circle opacity="0.95" cx="771" cy="963" r="3" fill="white"/>
<circle opacity="0.95" cx="771" cy="1027" r="3" fill="white"/>
<circle opacity="0.95" cx="771" cy="3" r="3" fill="white"/>
<circle opacity="0.95" cx="771" cy="835" r="3" fill="white"/>
<circle opacity="0.95" cx="771" cy="899" r="3" fill="white"/>
<circle opacity="0.95" cx="771" cy="131" r="3" fill="white"/>
<circle opacity="0.95" cx="771" cy="195" r="3" fill="white"/>
<circle opacity="0.95" cx="771" cy="259" r="3" fill="white"/>
<circle opacity="0.95" cx="771" cy="323" r="3" fill="white"/>
<circle opacity="0.95" cx="771" cy="387" r="3" fill="white"/>
<circle opacity="0.95" cx="771" cy="451" r="3" fill="white"/>
<circle opacity="0.95" cx="771" cy="515" r="3" fill="white"/>
<circle opacity="0.95" cx="771" cy="579" r="3" fill="white"/>
<circle opacity="0.95" cx="771" cy="643" r="3" fill="white"/>
<circle cx="835" cy="67" r="3" fill="white"/>
<circle cx="835" cy="707" r="3" fill="white"/>
<circle cx="835" cy="771" r="3" fill="white"/>
<circle cx="835" cy="963" r="3" fill="white"/>
<circle cx="835" cy="1027" r="3" fill="white"/>
<circle cx="835" cy="3" r="3" fill="white"/>
<circle cx="835" cy="835" r="3" fill="white"/>
<circle cx="835" cy="899" r="3" fill="white"/>
<circle cx="835" cy="131" r="3" fill="white"/>
<circle cx="835" cy="195" r="3" fill="white"/>
<circle cx="835" cy="259" r="3" fill="white"/>
<circle cx="835" cy="323" r="3" fill="white"/>
<circle cx="835" cy="387" r="3" fill="white"/>
<circle cx="835" cy="451" r="3" fill="white"/>
<circle cx="835" cy="515" r="3" fill="white"/>
<circle cx="835" cy="579" r="3" fill="white"/>
<circle cx="835" cy="643" r="3" fill="white"/>
<circle opacity="0.95" cx="899" cy="67" r="3" fill="white"/>
<circle opacity="0.95" cx="899" cy="707" r="3" fill="white"/>
<circle opacity="0.95" cx="899" cy="771" r="3" fill="white"/>
<circle opacity="0.95" cx="899" cy="963" r="3" fill="white"/>
<circle opacity="0.95" cx="899" cy="1027" r="3" fill="white"/>
<circle opacity="0.95" cx="899" cy="3" r="3" fill="white"/>
<circle opacity="0.95" cx="899" cy="835" r="3" fill="white"/>
<circle opacity="0.95" cx="899" cy="899" r="3" fill="white"/>
<circle opacity="0.95" cx="899" cy="131" r="3" fill="white"/>
<circle opacity="0.95" cx="899" cy="195" r="3" fill="white"/>
<circle opacity="0.95" cx="899" cy="259" r="3" fill="white"/>
<circle opacity="0.95" cx="899" cy="323" r="3" fill="white"/>
<circle opacity="0.95" cx="899" cy="387" r="3" fill="white"/>
<circle opacity="0.95" cx="899" cy="451" r="3" fill="white"/>
<circle opacity="0.95" cx="899" cy="515" r="3" fill="white"/>
<circle opacity="0.95" cx="899" cy="579" r="3" fill="white"/>
<circle opacity="0.95" cx="899" cy="643" r="3" fill="white"/>
<circle cx="963" cy="67" r="3" fill="white" fill-opacity="0.85"/>
<circle cx="963" cy="707" r="3" fill="white" fill-opacity="0.85"/>
<circle cx="963" cy="771" r="3" fill="white" fill-opacity="0.85"/>
<circle cx="963" cy="963" r="3" fill="white" fill-opacity="0.85"/>
<circle cx="963" cy="1027" r="3" fill="white" fill-opacity="0.85"/>
<circle cx="963" cy="3" r="3" fill="white" fill-opacity="0.85"/>
<circle cx="963" cy="835" r="3" fill="white" fill-opacity="0.85"/>
<circle cx="963" cy="899" r="3" fill="white" fill-opacity="0.85"/>
<circle cx="963" cy="131" r="3" fill="white" fill-opacity="0.85"/>
<circle cx="963" cy="195" r="3" fill="white" fill-opacity="0.85"/>
<circle cx="963" cy="259" r="3" fill="white" fill-opacity="0.85"/>
<circle cx="963" cy="323" r="3" fill="white" fill-opacity="0.85"/>
<circle cx="963" cy="387" r="3" fill="white" fill-opacity="0.85"/>
<circle cx="963" cy="451" r="3" fill="white" fill-opacity="0.85"/>
<circle cx="963" cy="515" r="3" fill="white" fill-opacity="0.85"/>
<circle cx="963" cy="579" r="3" fill="white" fill-opacity="0.85"/>
<circle cx="963" cy="643" r="3" fill="white" fill-opacity="0.85"/>
<circle cx="1027" cy="67" r="3" fill="white" fill-opacity="0.75"/>
<circle cx="1027" cy="707" r="3" fill="white" fill-opacity="0.75"/>
<circle cx="1027" cy="771" r="3" fill="white" fill-opacity="0.75"/>
<circle cx="1027" cy="963" r="3" fill="white" fill-opacity="0.75"/>
<circle cx="1027" cy="1027" r="3" fill="white" fill-opacity="0.75"/>
<circle cx="1027" cy="3" r="3" fill="white" fill-opacity="0.75"/>
<circle cx="1027" cy="835" r="3" fill="white" fill-opacity="0.75"/>
<circle cx="1027" cy="899" r="3" fill="white" fill-opacity="0.75"/>
<circle cx="1027" cy="131" r="3" fill="white" fill-opacity="0.75"/>
<circle cx="1027" cy="195" r="3" fill="white" fill-opacity="0.75"/>
<circle cx="1027" cy="259" r="3" fill="white" fill-opacity="0.75"/>
<circle cx="1027" cy="323" r="3" fill="white" fill-opacity="0.75"/>
<circle cx="1027" cy="387" r="3" fill="white" fill-opacity="0.75"/>
<circle cx="1027" cy="451" r="3" fill="white" fill-opacity="0.75"/>
<circle cx="1027" cy="515" r="3" fill="white" fill-opacity="0.75"/>
<circle cx="1027" cy="579" r="3" fill="white" fill-opacity="0.75"/>
<circle cx="1027" cy="643" r="3" fill="white" fill-opacity="0.75"/>
<circle cx="1091" cy="67" r="3" fill="white" fill-opacity="0.65"/>
<circle cx="1091" cy="707" r="3" fill="white" fill-opacity="0.65"/>
<circle cx="1091" cy="771" r="3" fill="white" fill-opacity="0.65"/>
<circle cx="1091" cy="963" r="3" fill="white" fill-opacity="0.65"/>
<circle cx="1091" cy="1027" r="3" fill="white" fill-opacity="0.65"/>
<circle cx="1091" cy="3" r="3" fill="white" fill-opacity="0.65"/>
<circle cx="1091" cy="835" r="3" fill="white" fill-opacity="0.65"/>
<circle cx="1091" cy="899" r="3" fill="white" fill-opacity="0.65"/>
<circle cx="1091" cy="131" r="3" fill="white" fill-opacity="0.65"/>
<circle cx="1091" cy="195" r="3" fill="white" fill-opacity="0.65"/>
<circle cx="1091" cy="259" r="3" fill="white" fill-opacity="0.65"/>
<circle cx="1091" cy="323" r="3" fill="white" fill-opacity="0.65"/>
<circle cx="1091" cy="387" r="3" fill="white" fill-opacity="0.65"/>
<circle cx="1091" cy="451" r="3" fill="white" fill-opacity="0.65"/>
<circle cx="1091" cy="515" r="3" fill="white" fill-opacity="0.65"/>
<circle cx="1091" cy="579" r="3" fill="white" fill-opacity="0.65"/>
<circle cx="1091" cy="643" r="3" fill="white" fill-opacity="0.65"/>
<circle cx="1155" cy="67" r="3" fill="white" fill-opacity="0.55"/>
<circle cx="1155" cy="707" r="3" fill="white" fill-opacity="0.55"/>
<circle cx="1155" cy="771" r="3" fill="white" fill-opacity="0.55"/>
<circle cx="1155" cy="963" r="3" fill="white" fill-opacity="0.55"/>
<circle cx="1155" cy="1027" r="3" fill="white" fill-opacity="0.55"/>
<circle cx="1155" cy="3" r="3" fill="white" fill-opacity="0.55"/>
<circle cx="1155" cy="835" r="3" fill="white" fill-opacity="0.55"/>
<circle cx="1155" cy="899" r="3" fill="white" fill-opacity="0.55"/>
<circle cx="1155" cy="131" r="3" fill="white" fill-opacity="0.55"/>
<circle cx="1155" cy="195" r="3" fill="white" fill-opacity="0.55"/>
<circle cx="1155" cy="259" r="3" fill="white" fill-opacity="0.55"/>
<circle cx="1155" cy="323" r="3" fill="white" fill-opacity="0.55"/>
<circle cx="1155" cy="387" r="3" fill="white" fill-opacity="0.55"/>
<circle cx="1155" cy="451" r="3" fill="white" fill-opacity="0.55"/>
<circle cx="1155" cy="515" r="3" fill="white" fill-opacity="0.55"/>
<circle cx="1155" cy="579" r="3" fill="white" fill-opacity="0.55"/>
<circle cx="1155" cy="643" r="3" fill="white" fill-opacity="0.55"/>
<circle cx="1219" cy="67" r="3" fill="white" fill-opacity="0.45"/>
<circle cx="1219" cy="707" r="3" fill="white" fill-opacity="0.45"/>
<circle cx="1219" cy="771" r="3" fill="white" fill-opacity="0.45"/>
<circle cx="1219" cy="963" r="3" fill="white" fill-opacity="0.45"/>
<circle cx="1219" cy="1027" r="3" fill="white" fill-opacity="0.45"/>
<circle cx="1219" cy="3" r="3" fill="white" fill-opacity="0.45"/>
<circle cx="1219" cy="835" r="3" fill="white" fill-opacity="0.45"/>
<circle cx="1219" cy="899" r="3" fill="white" fill-opacity="0.45"/>
<circle cx="1219" cy="131" r="3" fill="white" fill-opacity="0.45"/>
<circle cx="1219" cy="195" r="3" fill="white" fill-opacity="0.45"/>
<circle cx="1219" cy="259" r="3" fill="white" fill-opacity="0.45"/>
<circle cx="1219" cy="323" r="3" fill="white" fill-opacity="0.45"/>
<circle cx="1219" cy="387" r="3" fill="white" fill-opacity="0.45"/>
<circle cx="1219" cy="451" r="3" fill="white" fill-opacity="0.45"/>
<circle cx="1219" cy="515" r="3" fill="white" fill-opacity="0.45"/>
<circle cx="1219" cy="579" r="3" fill="white" fill-opacity="0.45"/>
<circle cx="1219" cy="643" r="3" fill="white" fill-opacity="0.45"/>
<circle cx="1283" cy="67" r="3" fill="white" fill-opacity="0.35"/>
<circle cx="1283" cy="707" r="3" fill="white" fill-opacity="0.35"/>
<circle cx="1283" cy="771" r="3" fill="white" fill-opacity="0.35"/>
<circle cx="1283" cy="963" r="3" fill="white" fill-opacity="0.35"/>
<circle cx="1283" cy="1027" r="3" fill="white" fill-opacity="0.35"/>
<circle cx="1283" cy="3" r="3" fill="white" fill-opacity="0.35"/>
<circle cx="1283" cy="835" r="3" fill="white" fill-opacity="0.35"/>
<circle cx="1283" cy="899" r="3" fill="white" fill-opacity="0.35"/>
<circle cx="1283" cy="131" r="3" fill="white" fill-opacity="0.35"/>
<circle cx="1283" cy="195" r="3" fill="white" fill-opacity="0.35"/>
<circle cx="1283" cy="259" r="3" fill="white" fill-opacity="0.35"/>
<circle cx="1283" cy="323" r="3" fill="white" fill-opacity="0.35"/>
<circle cx="1283" cy="387" r="3" fill="white" fill-opacity="0.35"/>
<circle cx="1283" cy="451" r="3" fill="white" fill-opacity="0.35"/>
<circle cx="1283" cy="515" r="3" fill="white" fill-opacity="0.35"/>
<circle cx="1283" cy="579" r="3" fill="white" fill-opacity="0.35"/>
<circle cx="1283" cy="643" r="3" fill="white" fill-opacity="0.35"/>
<circle cx="1347" cy="67" r="3" fill="white" fill-opacity="0.25"/>
<circle cx="1347" cy="707" r="3" fill="white" fill-opacity="0.25"/>
<circle cx="1347" cy="771" r="3" fill="white" fill-opacity="0.25"/>
<circle cx="1347" cy="963" r="3" fill="white" fill-opacity="0.25"/>
<circle cx="1347" cy="1027" r="3" fill="white" fill-opacity="0.25"/>
<circle cx="1347" cy="3" r="3" fill="white" fill-opacity="0.25"/>
<circle cx="1347" cy="835" r="3" fill="white" fill-opacity="0.25"/>
<circle cx="1347" cy="899" r="3" fill="white" fill-opacity="0.25"/>
<circle cx="1347" cy="131" r="3" fill="white" fill-opacity="0.25"/>
<circle cx="1347" cy="195" r="3" fill="white" fill-opacity="0.25"/>
<circle cx="1347" cy="259" r="3" fill="white" fill-opacity="0.25"/>
<circle cx="1347" cy="323" r="3" fill="white" fill-opacity="0.25"/>
<circle cx="1347" cy="387" r="3" fill="white" fill-opacity="0.25"/>
<circle cx="1347" cy="451" r="3" fill="white" fill-opacity="0.25"/>
<circle cx="1347" cy="515" r="3" fill="white" fill-opacity="0.25"/>
<circle cx="1347" cy="579" r="3" fill="white" fill-opacity="0.25"/>
<circle cx="1347" cy="643" r="3" fill="white" fill-opacity="0.25"/>
<circle cx="1411" cy="67" r="3" fill="white" fill-opacity="0.15"/>
<circle cx="1411" cy="707" r="3" fill="white" fill-opacity="0.15"/>
<circle cx="1411" cy="771" r="3" fill="white" fill-opacity="0.15"/>
<circle cx="1411" cy="963" r="3" fill="white" fill-opacity="0.15"/>
<circle cx="1411" cy="1027" r="3" fill="white" fill-opacity="0.15"/>
<circle cx="1411" cy="3" r="3" fill="white" fill-opacity="0.15"/>
<circle cx="1411" cy="835" r="3" fill="white" fill-opacity="0.15"/>
<circle cx="1411" cy="899" r="3" fill="white" fill-opacity="0.15"/>
<circle cx="1411" cy="131" r="3" fill="white" fill-opacity="0.15"/>
<circle cx="1411" cy="195" r="3" fill="white" fill-opacity="0.15"/>
<circle cx="1411" cy="259" r="3" fill="white" fill-opacity="0.15"/>
<circle cx="1411" cy="323" r="3" fill="white" fill-opacity="0.15"/>
<circle cx="1411" cy="387" r="3" fill="white" fill-opacity="0.15"/>
<circle cx="1411" cy="451" r="3" fill="white" fill-opacity="0.15"/>
<circle cx="1411" cy="515" r="3" fill="white" fill-opacity="0.15"/>
<circle cx="1411" cy="579" r="3" fill="white" fill-opacity="0.15"/>
<circle cx="1411" cy="643" r="3" fill="white" fill-opacity="0.15"/>
<circle cx="1475" cy="67" r="3" fill="white" fill-opacity="0.15"/>
<circle cx="1603" cy="67" r="3" fill="white" fill-opacity="0.1"/>
<circle cx="1475" cy="707" r="3" fill="white" fill-opacity="0.15"/>
<circle cx="1603" cy="707" r="3" fill="white" fill-opacity="0.1"/>
<circle cx="1475" cy="771" r="3" fill="white" fill-opacity="0.15"/>
<circle cx="1475" cy="963" r="3" fill="white" fill-opacity="0.15"/>
<circle cx="1475" cy="1027" r="3" fill="white" fill-opacity="0.15"/>
<circle cx="1475" cy="3" r="3" fill="white" fill-opacity="0.15"/>
<circle cx="1603" cy="771" r="3" fill="white" fill-opacity="0.1"/>
<circle cx="1603" cy="963" r="3" fill="white" fill-opacity="0.1"/>
<circle cx="1603" cy="1027" r="3" fill="white" fill-opacity="0.1"/>
<circle cx="1603" cy="3" r="3" fill="white" fill-opacity="0.1"/>
<circle cx="1475" cy="835" r="3" fill="white" fill-opacity="0.15"/>
<circle cx="1603" cy="835" r="3" fill="white" fill-opacity="0.1"/>
<circle cx="1475" cy="899" r="3" fill="white" fill-opacity="0.15"/>
<circle cx="1603" cy="899" r="3" fill="white" fill-opacity="0.1"/>
<circle cx="1475" cy="131" r="3" fill="white" fill-opacity="0.15"/>
<circle cx="1603" cy="131" r="3" fill="white" fill-opacity="0.1"/>
<circle cx="1475" cy="195" r="3" fill="white" fill-opacity="0.15"/>
<circle cx="1603" cy="195" r="3" fill="white" fill-opacity="0.1"/>
<circle cx="1475" cy="259" r="3" fill="white" fill-opacity="0.15"/>
<circle cx="1603" cy="259" r="3" fill="white" fill-opacity="0.1"/>
<circle cx="1475" cy="323" r="3" fill="white" fill-opacity="0.15"/>
<circle cx="1603" cy="323" r="3" fill="white" fill-opacity="0.1"/>
<circle cx="1475" cy="387" r="3" fill="white" fill-opacity="0.15"/>
<circle cx="1603" cy="387" r="3" fill="white" fill-opacity="0.1"/>
<circle cx="1475" cy="451" r="3" fill="white" fill-opacity="0.15"/>
<circle cx="1603" cy="451" r="3" fill="white" fill-opacity="0.1"/>
<circle cx="1475" cy="515" r="3" fill="white" fill-opacity="0.15"/>
<circle cx="1603" cy="515" r="3" fill="white" fill-opacity="0.1"/>
<circle cx="1475" cy="579" r="3" fill="white" fill-opacity="0.15"/>
<circle cx="1603" cy="579" r="3" fill="white" fill-opacity="0.1"/>
<circle cx="1475" cy="643" r="3" fill="white" fill-opacity="0.15"/>
<circle cx="1603" cy="643" r="3" fill="white" fill-opacity="0.1"/>
<circle cx="1539" cy="67" r="3" fill="white" fill-opacity="0.1"/>
<circle cx="1667" cy="67" r="3" fill="white" fill-opacity="0.1"/>
<circle cx="1539" cy="707" r="3" fill="white" fill-opacity="0.1"/>
<circle cx="1667" cy="707" r="3" fill="white" fill-opacity="0.1"/>
<circle cx="1539" cy="771" r="3" fill="white" fill-opacity="0.1"/>
<circle cx="1539" cy="963" r="3" fill="white" fill-opacity="0.1"/>
<circle cx="1539" cy="1027" r="3" fill="white" fill-opacity="0.1"/>
<circle cx="1539" cy="3" r="3" fill="white" fill-opacity="0.1"/>
<circle cx="1667" cy="771" r="3" fill="white" fill-opacity="0.1"/>
<circle cx="1667" cy="963" r="3" fill="white" fill-opacity="0.1"/>
<circle cx="1667" cy="1027" r="3" fill="white" fill-opacity="0.1"/>
<circle cx="1667" cy="3" r="3" fill="white" fill-opacity="0.1"/>
<circle cx="1539" cy="835" r="3" fill="white" fill-opacity="0.1"/>
<circle cx="1667" cy="835" r="3" fill="white" fill-opacity="0.1"/>
<circle cx="1539" cy="899" r="3" fill="white" fill-opacity="0.1"/>
<circle cx="1667" cy="899" r="3" fill="white" fill-opacity="0.1"/>
<circle cx="1539" cy="131" r="3" fill="white" fill-opacity="0.1"/>
<circle cx="1667" cy="131" r="3" fill="white" fill-opacity="0.1"/>
<circle cx="1539" cy="195" r="3" fill="white" fill-opacity="0.1"/>
<circle cx="1667" cy="195" r="3" fill="white" fill-opacity="0.1"/>
<circle cx="1539" cy="259" r="3" fill="white" fill-opacity="0.1"/>
<circle cx="1667" cy="259" r="3" fill="white" fill-opacity="0.1"/>
<circle cx="1539" cy="323" r="3" fill="white" fill-opacity="0.1"/>
<circle cx="1667" cy="323" r="3" fill="white" fill-opacity="0.1"/>
<circle cx="1539" cy="387" r="3" fill="white" fill-opacity="0.1"/>
<circle cx="1667" cy="387" r="3" fill="white" fill-opacity="0.1"/>
<circle cx="1539" cy="451" r="3" fill="white" fill-opacity="0.1"/>
<circle cx="1667" cy="451" r="3" fill="white" fill-opacity="0.1"/>
<circle cx="1539" cy="515" r="3" fill="white" fill-opacity="0.1"/>
<circle cx="1667" cy="515" r="3" fill="white" fill-opacity="0.1"/>
<circle cx="1539" cy="579" r="3" fill="white" fill-opacity="0.1"/>
<circle cx="1667" cy="579" r="3" fill="white" fill-opacity="0.1"/>
<circle cx="1539" cy="643" r="3" fill="white" fill-opacity="0.1"/>
<circle cx="1667" cy="643" r="3" fill="white" fill-opacity="0.1"/>
</svg>
