<svg width="1726" height="577" viewBox="0 0 1726 577" fill="none" xmlns="http://www.w3.org/2000/svg">
<path d="M701.516 575.843C691.473 576.196 681.251 575.843 666 575.843H701.516C713.204 575.433 724.65 574.066 743.5 570.076C760.261 566.527 775.741 569.155 792.5 565.59C811.383 561.572 820.499 567.474 837.5 555.977C844.058 551.542 859.841 549.351 867 547.005C882.995 541.763 908.5 541.878 920.5 527.779C933.321 512.716 965.329 509.341 973 502.786C989.5 488.687 1013.29 506.28 1028.5 489.969C1039.5 478.175 1062.85 441.9 1080.5 438.06C1123.48 428.709 1109.51 406.161 1143.5 399.609C1160.78 396.277 1173.02 392.559 1180 392.559C1193 392.559 1193.97 365.827 1218.5 365.003C1233.84 364.487 1243.13 355.106 1255.5 343.214C1263 336.006 1276.5 306.685 1286.11 306.685C1310.56 306.685 1319.18 273.074 1342 262.466C1364 252.241 1388.52 254.97 1411.5 249.649C1432.57 244.772 1455.48 229.237 1470 208.635C1487.43 183.899 1486.57 234.497 1508.5 216.966C1518.57 208.914 1534.37 224.092 1546 221.5C1574.1 215.238 1560.21 191.213 1587.5 180.437C1621.34 167.073 1623.42 163.066 1639 121.479C1653.5 82.7753 1668.5 62.4832 1677.5 34.9636C1687.09 5.62927 1695 8.0485 1695 8.0485H1726V575.843H701.516Z" fill="url(#paint0_linear_688_509)"/>
<path d="M0 575.843C0 575.843 35 575.843 61 575.843C82.2685 575.843 106 575.843 123.5 575.843C163.543 575.843 172.287 575.843 212.5 575.843C231 575.843 273 575.843 303.5 575.843C323.5 575.843 344 575.843 378.5 575.843C414.443 575.843 449.565 575.843 485.5 575.843C513.491 575.843 537 575.843 564 575.843C574.038 575.843 592 575.843 601 575.843C613.355 575.843 620 575.843 632 575.843C644.103 575.843 653.893 575.843 666 575.843C699 575.843 708.453 577.495 743.5 570.076C760.261 566.527 775.741 569.155 792.5 565.59C811.383 561.572 820.499 567.474 837.5 555.977C844.058 551.542 859.841 549.351 867 547.005C882.995 541.763 908.5 541.878 920.5 527.779C933.321 512.716 965.329 509.341 973 502.786C989.5 488.687 1013.29 506.28 1028.5 489.969C1039.5 478.175 1062.85 441.9 1080.5 438.06C1123.48 428.709 1109.51 406.161 1143.5 399.609C1160.78 396.277 1173.02 392.559 1180 392.559C1193 392.559 1193.97 365.827 1218.5 365.003C1233.84 364.487 1243.13 355.106 1255.5 343.214C1263 336.006 1276.5 306.685 1286.11 306.685C1310.56 306.685 1319.18 273.074 1342 262.466C1364 252.241 1388.52 254.97 1411.5 249.649C1432.57 244.772 1455.48 229.237 1470 208.635C1487.43 183.899 1486.57 234.497 1508.5 216.966C1518.57 208.914 1531.37 224.592 1543 222C1571.1 215.738 1560.21 191.213 1587.5 180.437C1621.34 167.073 1623.42 163.066 1639 121.479C1653.5 82.7753 1668.5 62.4832 1677.5 34.9636C1687.09 5.62927 1695 8.0485 1695 8.0485" stroke="url(#paint1_linear_688_509)" stroke-opacity="0.7" stroke-width="1.5"/>
<circle cx="1702.5" cy="7.5" r="7.5" fill="#3F76FF" fill-opacity="0.7"/>
<circle cx="1702.5" cy="7.5" r="4.5" fill="#05C3FF" fill-opacity="0.7"/>
<defs>
<linearGradient id="paint0_linear_688_509" x1="863" y1="8" x2="863" y2="576" gradientUnits="userSpaceOnUse">
<stop offset="0.0135415" stop-color="#0C1E49" stop-opacity="0.3"/>
<stop offset="1" stop-color="#00091F"/>
</linearGradient>
<linearGradient id="paint1_linear_688_509" x1="1667.5" y1="-141.911" x2="-42.5191" y2="337.527" gradientUnits="userSpaceOnUse">
<stop stop-color="#3F76FF"/>
<stop offset="1" stop-color="#05C3FF"/>
</linearGradient>
</defs>
</svg>
