<svg width="19" height="18" viewBox="0 0 19 18" fill="none" xmlns="http://www.w3.org/2000/svg">
<path d="M9.5 0.890625C8.35093 0.890625 7.21312 1.11695 6.15152 1.55668C5.08992 1.99641 4.12533 2.64093 3.31282 3.45344C1.67187 5.09438 0.75 7.31998 0.75 9.64062C0.75 13.5081 3.26125 16.7894 6.735 17.9531C7.1725 18.0231 7.3125 17.7519 7.3125 17.5156V16.0369C4.88875 16.5619 4.3725 14.8644 4.3725 14.8644C3.97 13.8494 3.40125 13.5781 3.40125 13.5781C2.605 13.0356 3.4625 13.0531 3.4625 13.0531C4.3375 13.1144 4.80125 13.9544 4.80125 13.9544C5.5625 15.2844 6.84875 14.8906 7.3475 14.6806C7.42625 14.1119 7.65375 13.7269 7.89875 13.5081C5.95625 13.2894 3.9175 12.5369 3.9175 9.20312C3.9175 8.23187 4.25 7.45312 4.81875 6.83187C4.73125 6.61312 4.425 5.70312 4.90625 4.52188C4.90625 4.52188 5.64125 4.28562 7.3125 5.41438C8.00375 5.22188 8.75625 5.12563 9.5 5.12563C10.2437 5.12563 10.9963 5.22188 11.6875 5.41438C13.3588 4.28562 14.0938 4.52188 14.0938 4.52188C14.575 5.70312 14.2688 6.61312 14.1813 6.83187C14.75 7.45312 15.0825 8.23187 15.0825 9.20312C15.0825 12.5456 13.035 13.2806 11.0838 13.4994C11.3988 13.7706 11.6875 14.3044 11.6875 15.1181V17.5156C11.6875 17.7519 11.8275 18.0319 12.2738 17.9531C15.7475 16.7806 18.25 13.5081 18.25 9.64062C18.25 8.49156 18.0237 7.35374 17.5839 6.29214C17.1442 5.23055 16.4997 4.26595 15.6872 3.45344C14.8747 2.64093 13.9101 1.99641 12.8485 1.55668C11.7869 1.11695 10.6491 0.890625 9.5 0.890625Z" fill="#B0B4BB"/>
</svg>
