<?xml version="1.0" standalone="no"?>
<!DOCTYPE svg PUBLIC "-//W3C//DTD SVG 20010904//EN"
 "http://www.w3.org/TR/2001/REC-SVG-20010904/DTD/svg10.dtd">
<svg version="1.0" xmlns="http://www.w3.org/2000/svg"
 width="70.000000pt" height="70.000000pt" viewBox="0 0 70.000000 70.000000"
 preserveAspectRatio="xMidYMid meet">

<g transform="translate(0.000000,70.000000) scale(0.100000,-0.100000)"
fill="#000000" stroke="none">
<path d="M54 689 c-51 -25 -54 -47 -54 -339 0 -294 3 -315 55 -338 18 -8 108
-12 296 -12 293 0 314 3 337 55 16 34 17 553 1 588 -24 54 -44 57 -341 56
-162 0 -281 -4 -294 -10z m438 -96 c59 -33 119 -105 137 -163 41 -136 -21
-289 -143 -355 -49 -27 -66 -16 -64 42 1 26 -2 58 -6 71 -6 17 -4 22 11 22 32
0 84 39 99 75 18 44 18 83 -1 119 -8 15 -15 46 -15 67 0 42 -9 47 -50 26 -32
-17 -186 -15 -218 2 -35 19 -54 7 -51 -31 2 -18 -3 -43 -9 -55 -7 -12 -12 -43
-12 -70 0 -66 27 -108 80 -124 22 -7 40 -16 40 -20 0 -48 -54 -53 -93 -9 -15
17 -35 30 -44 30 -14 0 -14 -2 2 -20 10 -11 23 -30 29 -43 8 -14 26 -25 54
-31 37 -9 42 -13 42 -38 0 -38 -25 -37 -86 4 -90 60 -141 164 -131 269 10 109
97 222 196 254 72 23 168 14 233 -22z"/>
</g>
</svg>
