<svg width="201" height="51" viewBox="0 0 201 51" fill="none" xmlns="http://www.w3.org/2000/svg">
<path d="M68.7311 32.3701V15.9189H74.9003C76.1641 15.9189 77.2244 16.1546 78.0813 16.6258C78.9434 17.0971 79.5941 17.7451 80.0332 18.5698C80.4777 19.3891 80.6999 20.3209 80.6999 21.3652C80.6999 22.4202 80.4777 23.3573 80.0332 24.1767C79.5887 24.996 78.9327 25.6413 78.0652 26.1126C77.1976 26.5785 76.1293 26.8114 74.8601 26.8114H70.7714V24.3614H74.4585C75.1975 24.3614 75.8026 24.2329 76.2739 23.9758C76.7451 23.7188 77.0932 23.3653 77.3181 22.9155C77.5484 22.4657 77.6635 21.9489 77.6635 21.3652C77.6635 20.7815 77.5484 20.2674 77.3181 19.8229C77.0932 19.3784 76.7425 19.033 76.2658 18.7866C75.7946 18.535 75.1868 18.4091 74.4424 18.4091H71.7112V32.3701H68.7311ZM97.9918 32.3701V15.9189H100.972V29.8719H108.218V32.3701H97.9918ZM128.238 32.3701H125.057L130.849 15.9189H134.528L140.328 32.3701H137.147L132.753 19.2927H132.624L128.238 32.3701ZM128.343 25.9198H137.018V28.3136H128.343V25.9198ZM170.717 15.9189V32.3701H168.066L160.315 21.1644H160.178V32.3701H157.198V15.9189H159.865L167.608 27.1327H167.753V15.9189H170.717ZM188.668 32.3701V15.9189H199.367V18.4171H191.648V22.8834H198.813V25.3816H191.648V29.8719H199.432V32.3701H188.668Z" fill="#212529"/>
<path d="M40.2549 10.6406H20.5122V20.5124H30.3832V30.3834H40.2549V10.6406Z" fill="#3F76FF"/>
<path d="M20.5121 20.5127H10.6411V30.3616H20.5121V20.5127Z" fill="#3F76FF"/>
<path d="M30.3831 30.3838H20.5342V40.2548H30.3831V30.3838Z" fill="#3F76FF"/>
</svg>
