<svg width="280" height="184" viewBox="0 0 280 184" fill="none" xmlns="http://www.w3.org/2000/svg">
<rect x="53.5723" y="27.7246" width="79.5849" height="13.5513" rx="6.16937" fill="#EBEBEB"/>
<rect x="148.581" y="27.7246" width="79.5849" height="13.5513" rx="6.16937" fill="#E2E2E2"/>
<g filter="url(#filter0_d_1551_41871)">
<rect x="17" y="3" width="260" height="160" rx="6.16937" fill="white"/>
</g>
<path d="M31.5043 100V90.5455H35.0498C35.7761 90.5455 36.3855 90.6809 36.8779 90.9517C37.3734 91.2225 37.7473 91.5949 37.9997 92.0689C38.2551 92.5398 38.3829 93.0753 38.3829 93.6754C38.3829 94.2817 38.2551 94.8203 37.9997 95.2912C37.7442 95.7621 37.3672 96.1329 36.8687 96.4038C36.3701 96.6715 35.7561 96.8054 35.0267 96.8054H32.6769V95.3974H34.7959C35.2206 95.3974 35.5683 95.3235 35.8392 95.1758C36.11 95.0281 36.3101 94.8249 36.4393 94.5664C36.5717 94.3079 36.6378 94.0109 36.6378 93.6754C36.6378 93.34 36.5717 93.0445 36.4393 92.7891C36.3101 92.5336 36.1085 92.3351 35.8346 92.1935C35.5637 92.0489 35.2144 91.9766 34.7866 91.9766H33.217V100H31.5043ZM39.7967 100V92.9091H41.417V94.0909H41.4909C41.6202 93.6816 41.8418 93.3661 42.1557 93.1445C42.4727 92.9199 42.8343 92.8075 43.2405 92.8075C43.3329 92.8075 43.436 92.8121 43.5498 92.8214C43.6668 92.8275 43.7637 92.8383 43.8407 92.8537V94.391C43.7699 94.3664 43.6576 94.3448 43.5037 94.3263C43.3529 94.3048 43.2067 94.294 43.0651 94.294C42.7604 94.294 42.4865 94.3602 42.2434 94.4925C42.0033 94.6218 41.8141 94.8018 41.6756 95.0327C41.5371 95.2635 41.4678 95.5297 41.4678 95.8313V100H39.7967ZM47.752 100.138C47.0595 100.138 46.4594 99.9862 45.9516 99.6815C45.4438 99.3768 45.0498 98.9505 44.7698 98.4027C44.4928 97.8549 44.3543 97.2147 44.3543 96.4822C44.3543 95.7498 44.4928 95.1081 44.7698 94.5572C45.0498 94.0063 45.4438 93.5785 45.9516 93.2738C46.4594 92.9691 47.0595 92.8168 47.752 92.8168C48.4445 92.8168 49.0446 92.9691 49.5524 93.2738C50.0602 93.5785 50.4526 94.0063 50.7296 94.5572C51.0097 95.1081 51.1497 95.7498 51.1497 96.4822C51.1497 97.2147 51.0097 97.8549 50.7296 98.4027C50.4526 98.9505 50.0602 99.3768 49.5524 99.6815C49.0446 99.9862 48.4445 100.138 47.752 100.138ZM47.7612 98.7997C48.1367 98.7997 48.4506 98.6966 48.703 98.4904C48.9554 98.2811 49.1431 98.0011 49.2662 97.6502C49.3924 97.2994 49.4555 96.9085 49.4555 96.4776C49.4555 96.0437 49.3924 95.6513 49.2662 95.3004C49.1431 94.9465 48.9554 94.6649 48.703 94.4556C48.4506 94.2463 48.1367 94.1417 47.7612 94.1417C47.3765 94.1417 47.0564 94.2463 46.801 94.4556C46.5486 94.6649 46.3594 94.9465 46.2332 95.3004C46.1101 95.6513 46.0485 96.0437 46.0485 96.4776C46.0485 96.9085 46.1101 97.2994 46.2332 97.6502C46.3594 98.0011 46.5486 98.2811 46.801 98.4904C47.0564 98.6966 47.3765 98.7997 47.7612 98.7997ZM52.5681 92.9091H54.2393V100.406C54.2393 100.917 54.1424 101.339 53.9485 101.671C53.7546 102.004 53.4745 102.251 53.1083 102.414C52.742 102.578 52.2973 102.659 51.7741 102.659C51.7126 102.659 51.6556 102.658 51.6033 102.654C51.551 102.654 51.494 102.653 51.4325 102.65V101.288C51.4786 101.291 51.5202 101.293 51.5571 101.293C51.5941 101.296 51.6325 101.297 51.6725 101.297C51.9926 101.297 52.2219 101.219 52.3604 101.062C52.4989 100.908 52.5681 100.682 52.5681 100.383V92.9091ZM53.3991 91.9027C53.1313 91.9027 52.9021 91.815 52.7112 91.6396C52.5235 91.4611 52.4296 91.2472 52.4296 90.9979C52.4296 90.7455 52.5235 90.5316 52.7112 90.3562C52.9021 90.1777 53.1313 90.0884 53.3991 90.0884C53.6638 90.0884 53.89 90.1777 54.0777 90.3562C54.2685 90.5316 54.3639 90.7455 54.3639 90.9979C54.3639 91.2472 54.2685 91.4611 54.0777 91.6396C53.89 91.815 53.6638 91.9027 53.3991 91.9027ZM59.097 100.138C58.3861 100.138 57.7721 99.9908 57.255 99.6953C56.741 99.3968 56.3456 98.9751 56.0686 98.4304C55.7916 97.8826 55.6531 97.2378 55.6531 96.4961C55.6531 95.7667 55.7916 95.1265 56.0686 94.5756C56.3486 94.0217 56.7395 93.5908 57.2412 93.283C57.7428 92.9722 58.3322 92.8168 59.0093 92.8168C59.4463 92.8168 59.8587 92.8875 60.2465 93.0291C60.6374 93.1676 60.9821 93.383 61.2806 93.6754C61.5822 93.9678 61.8192 94.3402 61.9915 94.7926C62.1639 95.242 62.25 95.7775 62.25 96.3991V96.9116H56.4379V95.7852H60.6481C60.645 95.4651 60.5758 95.1804 60.4404 94.9311C60.305 94.6787 60.1157 94.4802 59.8726 94.3356C59.6325 94.1909 59.3524 94.1186 59.0324 94.1186C58.6907 94.1186 58.3907 94.2017 58.1321 94.3679C57.8736 94.531 57.672 94.7464 57.5274 95.0142C57.3858 95.2789 57.3135 95.5697 57.3104 95.8867V96.87C57.3104 97.2824 57.3858 97.6364 57.5366 97.9318C57.6874 98.2242 57.8982 98.4489 58.1691 98.6058C58.4399 98.7597 58.7569 98.8366 59.1201 98.8366C59.3632 98.8366 59.5833 98.8028 59.7802 98.7351C59.9772 98.6643 60.148 98.5612 60.2927 98.4258C60.4373 98.2904 60.5466 98.1226 60.6204 97.9226L62.1808 98.098C62.0823 98.5104 61.8946 98.8705 61.6176 99.1783C61.3437 99.483 60.9928 99.7199 60.565 99.8892C60.1372 100.055 59.6479 100.138 59.097 100.138ZM66.7569 100.138C66.049 100.138 65.4412 99.9831 64.9334 99.6722C64.4286 99.3614 64.0393 98.9321 63.7654 98.3842C63.4946 97.8333 63.3592 97.1993 63.3592 96.4822C63.3592 95.7621 63.4976 95.1265 63.7746 94.5756C64.0516 94.0217 64.4425 93.5908 64.9472 93.283C65.455 92.9722 66.0552 92.8168 66.7476 92.8168C67.3232 92.8168 67.8325 92.9229 68.2757 93.1353C68.722 93.3446 69.0774 93.6416 69.3421 94.0263C69.6068 94.4079 69.7576 94.8542 69.7945 95.3651H68.1972C68.1326 95.0234 67.9787 94.7388 67.7356 94.511C67.4955 94.2802 67.1739 94.1648 66.7707 94.1648C66.4291 94.1648 66.129 94.2571 65.8705 94.4418C65.612 94.6233 65.4104 94.8849 65.2658 95.2266C65.1242 95.5682 65.0534 95.9775 65.0534 96.4545C65.0534 96.9377 65.1242 97.3532 65.2658 97.701C65.4073 98.0457 65.6058 98.3119 65.8613 98.4996C66.1198 98.6843 66.423 98.7766 66.7707 98.7766C67.0169 98.7766 67.237 98.7305 67.4309 98.6381C67.6279 98.5427 67.7925 98.4058 67.9248 98.2273C68.0572 98.0488 68.148 97.8318 68.1972 97.5763H69.7945C69.7545 98.078 69.6068 98.5227 69.3513 98.9105C69.0959 99.2952 68.7481 99.5968 68.308 99.8153C67.8679 100.031 67.3509 100.138 66.7569 100.138ZM74.7076 92.9091V94.2017H70.6313V92.9091H74.7076ZM71.6377 91.2102H73.3088V97.8672C73.3088 98.0919 73.3427 98.2642 73.4104 98.3842C73.4812 98.5012 73.5735 98.5812 73.6874 98.6243C73.8012 98.6674 73.9274 98.6889 74.0659 98.6889C74.1706 98.6889 74.266 98.6812 74.3521 98.6658C74.4414 98.6504 74.5091 98.6366 74.5553 98.6243L74.8369 99.9308C74.7476 99.9615 74.6199 99.9954 74.4537 100.032C74.2906 100.069 74.0905 100.091 73.8536 100.097C73.435 100.109 73.058 100.046 72.7225 99.9077C72.3871 99.7661 72.1208 99.5476 71.9239 99.2521C71.73 98.9567 71.6346 98.5874 71.6377 98.1442V91.2102ZM87.1733 90.5455V100H85.6498L81.1949 93.56H81.1164V100H79.4037V90.5455H80.9364L85.3867 96.9901H85.4698V90.5455H87.1733ZM91.0061 100.143C90.5567 100.143 90.152 100.063 89.7919 99.9031C89.4349 99.7399 89.1518 99.4999 88.9425 99.1829C88.7363 98.8659 88.6332 98.475 88.6332 98.0103C88.6332 97.6102 88.7071 97.2794 88.8548 97.0178C89.0025 96.7562 89.2041 96.5469 89.4596 96.3899C89.715 96.233 90.0028 96.1145 90.3228 96.0344C90.646 95.9513 90.9799 95.8913 91.3246 95.8544C91.7401 95.8113 92.0771 95.7728 92.3356 95.739C92.5941 95.7021 92.7819 95.6467 92.8988 95.5728C93.0189 95.4959 93.0789 95.3774 93.0789 95.2173V95.1896C93.0789 94.8419 92.9758 94.5726 92.7696 94.3817C92.5634 94.1909 92.2664 94.0955 91.8786 94.0955C91.4693 94.0955 91.1446 94.1848 90.9045 94.3633C90.6675 94.5418 90.5075 94.7526 90.4244 94.9957L88.864 94.7741C88.9871 94.3433 89.1903 93.9832 89.4734 93.6939C89.7566 93.4015 90.1028 93.183 90.5121 93.0384C90.9214 92.8906 91.3739 92.8168 91.8694 92.8168C92.211 92.8168 92.5511 92.8568 92.8896 92.9368C93.2281 93.0168 93.5374 93.1491 93.8175 93.3338C94.0976 93.5154 94.3223 93.7631 94.4915 94.0771C94.6639 94.391 94.75 94.7834 94.75 95.2543V100H93.1435V99.0259H93.0881C92.9866 99.2229 92.8434 99.4076 92.6588 99.5799C92.4772 99.7492 92.2479 99.8861 91.9709 99.9908C91.697 100.092 91.3754 100.143 91.0061 100.143ZM91.44 98.9151C91.7755 98.9151 92.0663 98.849 92.3125 98.7166C92.5588 98.5812 92.748 98.4027 92.8804 98.1811C93.0158 97.9595 93.0835 97.7179 93.0835 97.4563V96.6207C93.0312 96.6638 92.9419 96.7038 92.8157 96.7408C92.6926 96.7777 92.5541 96.81 92.4003 96.8377C92.2464 96.8654 92.094 96.89 91.9432 96.9116C91.7924 96.9331 91.6616 96.9516 91.5508 96.967C91.3015 97.0008 91.0784 97.0562 90.8814 97.1332C90.6845 97.2101 90.529 97.3178 90.4152 97.4563C90.3013 97.5917 90.2444 97.7672 90.2444 97.9826C90.2444 98.2904 90.3567 98.5227 90.5814 98.6797C90.806 98.8366 91.0923 98.9151 91.44 98.9151ZM96.4304 100V92.9091H98.0277V94.114H98.1108C98.2586 93.7077 98.5032 93.3907 98.8449 93.163C99.1865 92.9322 99.5943 92.8168 100.068 92.8168C100.548 92.8168 100.953 92.9337 101.282 93.1676C101.615 93.3984 101.849 93.7139 101.984 94.114H102.058C102.215 93.7201 102.48 93.4061 102.852 93.1722C103.227 92.9353 103.672 92.8168 104.186 92.8168C104.839 92.8168 105.371 93.023 105.783 93.4354C106.196 93.8478 106.402 94.4495 106.402 95.2404V100H104.726V95.4989C104.726 95.0588 104.609 94.7372 104.375 94.5341C104.141 94.3279 103.855 94.2248 103.517 94.2248C103.114 94.2248 102.798 94.351 102.57 94.6033C102.346 94.8526 102.233 95.1773 102.233 95.5774V100H100.595V95.4297C100.595 95.0634 100.484 94.7711 100.262 94.5526C100.044 94.334 99.7574 94.2248 99.4035 94.2248C99.1634 94.2248 98.9449 94.2863 98.7479 94.4094C98.5509 94.5295 98.394 94.7003 98.277 94.9219C98.1601 95.1404 98.1016 95.3958 98.1016 95.6882V100H96.4304ZM111.237 100.138C110.526 100.138 109.912 99.9908 109.395 99.6953C108.881 99.3968 108.485 98.9751 108.208 98.4304C107.931 97.8826 107.793 97.2378 107.793 96.4961C107.793 95.7667 107.931 95.1265 108.208 94.5756C108.488 94.0217 108.879 93.5908 109.381 93.283C109.882 92.9722 110.472 92.8168 111.149 92.8168C111.586 92.8168 111.998 92.8875 112.386 93.0291C112.777 93.1676 113.122 93.383 113.42 93.6754C113.722 93.9678 113.959 94.3402 114.131 94.7926C114.304 95.242 114.39 95.7775 114.39 96.3991V96.9116H108.578V95.7852H112.788C112.785 95.4651 112.715 95.1804 112.58 94.9311C112.445 94.6787 112.255 94.4802 112.012 94.3356C111.772 94.1909 111.492 94.1186 111.172 94.1186C110.83 94.1186 110.53 94.2017 110.272 94.3679C110.013 94.531 109.812 94.7464 109.667 95.0142C109.525 95.2789 109.453 95.5697 109.45 95.8867V96.87C109.45 97.2824 109.525 97.6364 109.676 97.9318C109.827 98.2242 110.038 98.4489 110.309 98.6058C110.58 98.7597 110.897 98.8366 111.26 98.8366C111.503 98.8366 111.723 98.8028 111.92 98.7351C112.117 98.6643 112.288 98.5612 112.432 98.4258C112.577 98.2904 112.686 98.1226 112.76 97.9226L114.32 98.098C114.222 98.5104 114.034 98.8705 113.757 99.1783C113.483 99.483 113.132 99.7199 112.705 99.8892C112.277 100.055 111.788 100.138 111.237 100.138Z" fill="black"/>
<rect x="31" y="112.811" width="232" height="8" rx="4" fill="#EBEBEB"/>
<rect x="31" y="128.811" width="79.5849" height="8.02018" rx="4.01009" fill="#E2E2E2"/>
<rect x="31" y="145" width="8" height="8" rx="4" fill="#E2E2E2"/>
<rect x="255" y="145" width="8" height="8" rx="4" fill="#E2E2E2"/>
<rect x="241" y="145" width="8" height="8" rx="4" fill="#E2E2E2"/>
<rect x="44" y="145" width="42" height="8" rx="4" fill="#E2E2E2"/>
<path d="M17 9C17 5.68629 19.6863 3 23 3H271C274.314 3 277 5.68629 277 9V74H17V9Z" fill="#FCECEF"/>
<path d="M162.95 60.0221L159.212 56.3326H134.104C133.689 56.3326 133.345 56.1968 133.074 55.9253C132.802 55.6537 132.667 55.3103 132.667 54.8951V51.8284C132.667 50.6145 132.97 49.5763 133.577 48.7138C134.184 47.8513 134.967 47.1964 135.925 46.7492C137.842 45.8867 139.686 45.2159 141.459 44.7367C143.232 44.2576 145.013 43.986 146.802 43.9221L128.929 26.0492C128.642 25.7617 128.506 25.4263 128.522 25.043C128.538 24.6596 128.689 24.3242 128.977 24.0367C129.264 23.7492 129.608 23.6055 130.007 23.6055C130.406 23.6055 130.75 23.7492 131.037 24.0367L165.01 58.0096C165.298 58.2971 165.442 58.6326 165.442 59.0159C165.442 59.3992 165.298 59.7346 165.01 60.0221C164.723 60.3096 164.379 60.4534 163.98 60.4534C163.581 60.4534 163.237 60.3096 162.95 60.0221ZM135.542 53.4576H156.337L149.677 46.7971C149.421 46.7652 149.15 46.7492 148.862 46.7492H148C146.179 46.7492 144.406 46.9329 142.681 47.3003C140.956 47.6676 139.087 48.3464 137.075 49.3367C136.628 49.5603 136.26 49.9037 135.973 50.3669C135.685 50.8301 135.542 51.3173 135.542 51.8284V53.4576ZM160.027 46.7492C161.017 47.1964 161.816 47.8513 162.423 48.7138C163.03 49.5763 163.333 50.6145 163.333 51.8284V52.2117L156.481 45.3596C157.056 45.5513 157.639 45.7669 158.23 46.0065C158.821 46.2461 159.42 46.4937 160.027 46.7492ZM151.354 40.2326L149.054 37.9326C150.012 37.7089 150.795 37.2138 151.402 36.4471C152.009 35.6805 152.312 34.786 152.312 33.7638C152.312 32.5499 151.897 31.5277 151.067 30.6971C150.236 29.8666 149.214 29.4513 148 29.4513C146.978 29.4513 146.083 29.7548 145.317 30.3617C144.55 30.9687 144.055 31.7513 143.831 32.7096L141.531 30.4096C142.138 29.1957 143.025 28.2534 144.191 27.5826C145.356 26.9117 146.626 26.5763 148 26.5763C150.012 26.5763 151.713 27.2711 153.103 28.6607C154.493 30.0503 155.187 31.7513 155.187 33.7638C155.187 35.1374 154.852 36.4072 154.181 37.5732C153.51 38.7391 152.568 39.6256 151.354 40.2326Z" fill="#F19FA9"/>
<rect x="39.5723" y="45.7246" width="79.5849" height="13.5513" rx="6.16937" fill="#EBEBEB"/>
<rect x="134.581" y="45.7246" width="79.5849" height="13.5513" rx="6.16937" fill="#E2E2E2"/>
<g filter="url(#filter1_d_1551_41871)">
<rect x="3" y="21" width="260" height="160" rx="6.16937" fill="white"/>
</g>
<path d="M17.5043 118V108.545H21.0498C21.7761 108.545 22.3855 108.681 22.8779 108.952C23.3734 109.223 23.7473 109.595 23.9997 110.069C24.2551 110.54 24.3829 111.075 24.3829 111.675C24.3829 112.282 24.2551 112.82 23.9997 113.291C23.7442 113.762 23.3672 114.133 22.8687 114.404C22.3701 114.672 21.7561 114.805 21.0267 114.805H18.6769V113.397H20.7959C21.2206 113.397 21.5683 113.324 21.8392 113.176C22.11 113.028 22.3101 112.825 22.4393 112.566C22.5717 112.308 22.6378 112.011 22.6378 111.675C22.6378 111.34 22.5717 111.045 22.4393 110.789C22.3101 110.534 22.1085 110.335 21.8346 110.194C21.5637 110.049 21.2144 109.977 20.7866 109.977H19.217V118H17.5043ZM25.7967 118V110.909H27.417V112.091H27.4909C27.6202 111.682 27.8418 111.366 28.1557 111.145C28.4727 110.92 28.8343 110.808 29.2405 110.808C29.3329 110.808 29.436 110.812 29.5498 110.821C29.6668 110.828 29.7637 110.838 29.8407 110.854V112.391C29.7699 112.366 29.6576 112.345 29.5037 112.326C29.3529 112.305 29.2067 112.294 29.0651 112.294C28.7604 112.294 28.4865 112.36 28.2434 112.493C28.0033 112.622 27.8141 112.802 27.6756 113.033C27.5371 113.263 27.4678 113.53 27.4678 113.831V118H25.7967ZM33.752 118.138C33.0595 118.138 32.4594 117.986 31.9516 117.681C31.4438 117.377 31.0498 116.951 30.7698 116.403C30.4928 115.855 30.3543 115.215 30.3543 114.482C30.3543 113.75 30.4928 113.108 30.7698 112.557C31.0498 112.006 31.4438 111.578 31.9516 111.274C32.4594 110.969 33.0595 110.817 33.752 110.817C34.4445 110.817 35.0446 110.969 35.5524 111.274C36.0602 111.578 36.4526 112.006 36.7296 112.557C37.0097 113.108 37.1497 113.75 37.1497 114.482C37.1497 115.215 37.0097 115.855 36.7296 116.403C36.4526 116.951 36.0602 117.377 35.5524 117.681C35.0446 117.986 34.4445 118.138 33.752 118.138ZM33.7612 116.8C34.1367 116.8 34.4506 116.697 34.703 116.49C34.9554 116.281 35.1431 116.001 35.2662 115.65C35.3924 115.299 35.4555 114.908 35.4555 114.478C35.4555 114.044 35.3924 113.651 35.2662 113.3C35.1431 112.946 34.9554 112.665 34.703 112.456C34.4506 112.246 34.1367 112.142 33.7612 112.142C33.3765 112.142 33.0564 112.246 32.801 112.456C32.5486 112.665 32.3594 112.946 32.2332 113.3C32.1101 113.651 32.0485 114.044 32.0485 114.478C32.0485 114.908 32.1101 115.299 32.2332 115.65C32.3594 116.001 32.5486 116.281 32.801 116.49C33.0564 116.697 33.3765 116.8 33.7612 116.8ZM38.5681 110.909H40.2393V118.406C40.2393 118.917 40.1424 119.339 39.9485 119.671C39.7546 120.004 39.4745 120.251 39.1083 120.414C38.742 120.578 38.2973 120.659 37.7741 120.659C37.7126 120.659 37.6556 120.658 37.6033 120.654C37.551 120.654 37.494 120.653 37.4325 120.65V119.288C37.4786 119.291 37.5202 119.293 37.5571 119.293C37.5941 119.296 37.6325 119.297 37.6725 119.297C37.9926 119.297 38.2219 119.219 38.3604 119.062C38.4989 118.908 38.5681 118.682 38.5681 118.383V110.909ZM39.3991 109.903C39.1313 109.903 38.9021 109.815 38.7112 109.64C38.5235 109.461 38.4296 109.247 38.4296 108.998C38.4296 108.746 38.5235 108.532 38.7112 108.356C38.9021 108.178 39.1313 108.088 39.3991 108.088C39.6638 108.088 39.89 108.178 40.0777 108.356C40.2685 108.532 40.3639 108.746 40.3639 108.998C40.3639 109.247 40.2685 109.461 40.0777 109.64C39.89 109.815 39.6638 109.903 39.3991 109.903ZM45.097 118.138C44.3861 118.138 43.7721 117.991 43.255 117.695C42.741 117.397 42.3456 116.975 42.0686 116.43C41.7916 115.883 41.6531 115.238 41.6531 114.496C41.6531 113.767 41.7916 113.127 42.0686 112.576C42.3486 112.022 42.7395 111.591 43.2412 111.283C43.7428 110.972 44.3322 110.817 45.0093 110.817C45.4463 110.817 45.8587 110.888 46.2465 111.029C46.6374 111.168 46.9821 111.383 47.2806 111.675C47.5822 111.968 47.8192 112.34 47.9915 112.793C48.1639 113.242 48.25 113.777 48.25 114.399V114.912H42.4379V113.785H46.6481C46.645 113.465 46.5758 113.18 46.4404 112.931C46.305 112.679 46.1157 112.48 45.8726 112.336C45.6325 112.191 45.3524 112.119 45.0324 112.119C44.6907 112.119 44.3907 112.202 44.1321 112.368C43.8736 112.531 43.672 112.746 43.5274 113.014C43.3858 113.279 43.3135 113.57 43.3104 113.887V114.87C43.3104 115.282 43.3858 115.636 43.5366 115.932C43.6874 116.224 43.8982 116.449 44.1691 116.606C44.4399 116.76 44.7569 116.837 45.1201 116.837C45.3632 116.837 45.5833 116.803 45.7802 116.735C45.9772 116.664 46.148 116.561 46.2927 116.426C46.4373 116.29 46.5466 116.123 46.6204 115.923L48.1808 116.098C48.0823 116.51 47.8946 116.871 47.6176 117.178C47.3437 117.483 46.9928 117.72 46.565 117.889C46.1372 118.055 45.6479 118.138 45.097 118.138ZM52.7569 118.138C52.049 118.138 51.4412 117.983 50.9334 117.672C50.4286 117.361 50.0393 116.932 49.7654 116.384C49.4946 115.833 49.3592 115.199 49.3592 114.482C49.3592 113.762 49.4976 113.127 49.7746 112.576C50.0516 112.022 50.4425 111.591 50.9472 111.283C51.455 110.972 52.0552 110.817 52.7476 110.817C53.3232 110.817 53.8325 110.923 54.2757 111.135C54.722 111.345 55.0774 111.642 55.3421 112.026C55.6068 112.408 55.7576 112.854 55.7945 113.365H54.1972C54.1326 113.023 53.9787 112.739 53.7356 112.511C53.4955 112.28 53.1739 112.165 52.7707 112.165C52.4291 112.165 52.129 112.257 51.8705 112.442C51.612 112.623 51.4104 112.885 51.2658 113.227C51.1242 113.568 51.0534 113.978 51.0534 114.455C51.0534 114.938 51.1242 115.353 51.2658 115.701C51.4073 116.046 51.6058 116.312 51.8613 116.5C52.1198 116.684 52.423 116.777 52.7707 116.777C53.0169 116.777 53.237 116.73 53.4309 116.638C53.6279 116.543 53.7925 116.406 53.9248 116.227C54.0572 116.049 54.148 115.832 54.1972 115.576H55.7945C55.7545 116.078 55.6068 116.523 55.3513 116.911C55.0959 117.295 54.7481 117.597 54.308 117.815C53.8679 118.031 53.3509 118.138 52.7569 118.138ZM60.7076 110.909V112.202H56.6313V110.909H60.7076ZM57.6377 109.21H59.3088V115.867C59.3088 116.092 59.3427 116.264 59.4104 116.384C59.4812 116.501 59.5735 116.581 59.6874 116.624C59.8012 116.667 59.9274 116.689 60.0659 116.689C60.1706 116.689 60.266 116.681 60.3521 116.666C60.4414 116.65 60.5091 116.637 60.5553 116.624L60.8369 117.931C60.7476 117.962 60.6199 117.995 60.4537 118.032C60.2906 118.069 60.0905 118.091 59.8536 118.097C59.435 118.109 59.058 118.046 58.7225 117.908C58.3871 117.766 58.1208 117.548 57.9239 117.252C57.73 116.957 57.6346 116.587 57.6377 116.144V109.21ZM73.1733 108.545V118H71.6498L67.1949 111.56H67.1164V118H65.4037V108.545H66.9364L71.3867 114.99H71.4698V108.545H73.1733ZM77.0061 118.143C76.5567 118.143 76.152 118.063 75.7919 117.903C75.4349 117.74 75.1518 117.5 74.9425 117.183C74.7363 116.866 74.6332 116.475 74.6332 116.01C74.6332 115.61 74.7071 115.279 74.8548 115.018C75.0025 114.756 75.2041 114.547 75.4596 114.39C75.715 114.233 76.0028 114.114 76.3228 114.034C76.646 113.951 76.9799 113.891 77.3246 113.854C77.7401 113.811 78.0771 113.773 78.3356 113.739C78.5941 113.702 78.7819 113.647 78.8988 113.573C79.0189 113.496 79.0789 113.377 79.0789 113.217V113.19C79.0789 112.842 78.9758 112.573 78.7696 112.382C78.5634 112.191 78.2664 112.096 77.8786 112.096C77.4693 112.096 77.1446 112.185 76.9045 112.363C76.6675 112.542 76.5075 112.753 76.4244 112.996L74.864 112.774C74.9871 112.343 75.1903 111.983 75.4734 111.694C75.7566 111.402 76.1028 111.183 76.5121 111.038C76.9214 110.891 77.3739 110.817 77.8694 110.817C78.211 110.817 78.5511 110.857 78.8896 110.937C79.2281 111.017 79.5374 111.149 79.8175 111.334C80.0976 111.515 80.3223 111.763 80.4915 112.077C80.6639 112.391 80.75 112.783 80.75 113.254V118H79.1435V117.026H79.0881C78.9866 117.223 78.8434 117.408 78.6588 117.58C78.4772 117.749 78.2479 117.886 77.9709 117.991C77.697 118.092 77.3754 118.143 77.0061 118.143ZM77.44 116.915C77.7755 116.915 78.0663 116.849 78.3125 116.717C78.5588 116.581 78.748 116.403 78.8804 116.181C79.0158 115.96 79.0835 115.718 79.0835 115.456V114.621C79.0312 114.664 78.9419 114.704 78.8157 114.741C78.6926 114.778 78.5541 114.81 78.4003 114.838C78.2464 114.865 78.094 114.89 77.9432 114.912C77.7924 114.933 77.6616 114.952 77.5508 114.967C77.3015 115.001 77.0784 115.056 76.8814 115.133C76.6845 115.21 76.529 115.318 76.4152 115.456C76.3013 115.592 76.2444 115.767 76.2444 115.983C76.2444 116.29 76.3567 116.523 76.5814 116.68C76.806 116.837 77.0923 116.915 77.44 116.915ZM82.4304 118V110.909H84.0277V112.114H84.1108C84.2586 111.708 84.5032 111.391 84.8449 111.163C85.1865 110.932 85.5943 110.817 86.0682 110.817C86.5483 110.817 86.9531 110.934 87.2824 111.168C87.6147 111.398 87.8486 111.714 87.9841 112.114H88.0579C88.2149 111.72 88.4796 111.406 88.852 111.172C89.2274 110.935 89.6722 110.817 90.1861 110.817C90.8386 110.817 91.371 111.023 91.7834 111.435C92.1958 111.848 92.402 112.449 92.402 113.24V118H90.7263V113.499C90.7263 113.059 90.6093 112.737 90.3754 112.534C90.1415 112.328 89.8553 112.225 89.5167 112.225C89.1136 112.225 88.7981 112.351 88.5704 112.603C88.3457 112.853 88.2334 113.177 88.2334 113.577V118H86.5945V113.43C86.5945 113.063 86.4837 112.771 86.2621 112.553C86.0436 112.334 85.7574 112.225 85.4035 112.225C85.1634 112.225 84.9449 112.286 84.7479 112.409C84.5509 112.529 84.394 112.7 84.277 112.922C84.1601 113.14 84.1016 113.396 84.1016 113.688V118H82.4304ZM97.2366 118.138C96.5257 118.138 95.9117 117.991 95.3947 117.695C94.8807 117.397 94.4852 116.975 94.2082 116.43C93.9312 115.883 93.7927 115.238 93.7927 114.496C93.7927 113.767 93.9312 113.127 94.2082 112.576C94.4883 112.022 94.8792 111.591 95.3808 111.283C95.8825 110.972 96.4718 110.817 97.1489 110.817C97.586 110.817 97.9984 110.888 98.3861 111.029C98.777 111.168 99.1217 111.383 99.4202 111.675C99.7218 111.968 99.9588 112.34 100.131 112.793C100.304 113.242 100.39 113.777 100.39 114.399V114.912H94.5775V113.785H98.7878C98.7847 113.465 98.7155 113.18 98.58 112.931C98.4446 112.679 98.2553 112.48 98.0122 112.336C97.7722 112.191 97.4921 112.119 97.172 112.119C96.8304 112.119 96.5303 112.202 96.2718 112.368C96.0133 112.531 95.8117 112.746 95.667 113.014C95.5255 113.279 95.4531 113.57 95.4501 113.887V114.87C95.4501 115.282 95.5255 115.636 95.6763 115.932C95.8271 116.224 96.0379 116.449 96.3087 116.606C96.5796 116.76 96.8966 116.837 97.2597 116.837C97.5029 116.837 97.7229 116.803 97.9199 116.735C98.1168 116.664 98.2877 116.561 98.4323 116.426C98.577 116.29 98.6862 116.123 98.7601 115.923L100.32 116.098C100.222 116.51 100.034 116.871 99.7572 117.178C99.4833 117.483 99.1325 117.72 98.7047 117.889C98.2769 118.055 97.7875 118.138 97.2366 118.138Z" fill="black"/>
<rect x="17" y="130.811" width="232" height="8" rx="4" fill="#EBEBEB"/>
<rect x="17" y="146.811" width="79.5849" height="8.02018" rx="4.01009" fill="#E2E2E2"/>
<rect x="17" y="163" width="8" height="8" rx="4" fill="#E2E2E2"/>
<rect x="241" y="163" width="8" height="8" rx="4" fill="#E2E2E2"/>
<rect x="227" y="163" width="8" height="8" rx="4" fill="#E2E2E2"/>
<rect x="30" y="163" width="42" height="8" rx="4" fill="#E2E2E2"/>
<path d="M3 27C3 23.6863 5.68629 21 9 21H257C260.314 21 263 23.6863 263 27V92H3V27Z" fill="#FCECEF"/>
<path d="M148.95 78.0221L145.212 74.3326H120.104C119.689 74.3326 119.345 74.1968 119.074 73.9253C118.802 73.6537 118.667 73.3103 118.667 72.8951V69.8284C118.667 68.6145 118.97 67.5763 119.577 66.7138C120.184 65.8513 120.967 65.1964 121.925 64.7492C123.842 63.8867 125.686 63.2159 127.459 62.7367C129.232 62.2576 131.013 61.986 132.802 61.9221L114.929 44.0492C114.642 43.7617 114.506 43.4263 114.522 43.043C114.538 42.6596 114.689 42.3242 114.977 42.0367C115.264 41.7492 115.608 41.6055 116.007 41.6055C116.406 41.6055 116.75 41.7492 117.037 42.0367L151.01 76.0096C151.298 76.2971 151.442 76.6326 151.442 77.0159C151.442 77.3992 151.298 77.7346 151.01 78.0221C150.723 78.3096 150.379 78.4534 149.98 78.4534C149.581 78.4534 149.237 78.3096 148.95 78.0221ZM121.542 71.4576H142.337L135.677 64.7971C135.421 64.7652 135.15 64.7492 134.862 64.7492H134C132.179 64.7492 130.406 64.9329 128.681 65.3003C126.956 65.6676 125.087 66.3464 123.075 67.3367C122.628 67.5603 122.26 67.9037 121.973 68.3669C121.685 68.8301 121.542 69.3173 121.542 69.8284V71.4576ZM146.027 64.7492C147.017 65.1964 147.816 65.8513 148.423 66.7138C149.03 67.5763 149.333 68.6145 149.333 69.8284V70.2117L142.481 63.3596C143.056 63.5513 143.639 63.7669 144.23 64.0065C144.821 64.2461 145.42 64.4937 146.027 64.7492ZM137.354 58.2326L135.054 55.9326C136.012 55.7089 136.795 55.2138 137.402 54.4471C138.009 53.6805 138.312 52.786 138.312 51.7638C138.312 50.5499 137.897 49.5277 137.067 48.6971C136.236 47.8666 135.214 47.4513 134 47.4513C132.978 47.4513 132.083 47.7548 131.317 48.3617C130.55 48.9687 130.055 49.7513 129.831 50.7096L127.531 48.4096C128.138 47.1957 129.025 46.2534 130.191 45.5826C131.356 44.9117 132.626 44.5763 134 44.5763C136.012 44.5763 137.713 45.2711 139.103 46.6607C140.493 48.0503 141.187 49.7513 141.187 51.7638C141.187 53.1374 140.852 54.4072 140.181 55.5732C139.51 56.7391 138.568 57.6256 137.354 58.2326Z" fill="#F19FA9"/>
<defs>
<filter id="filter0_d_1551_41871" x="14.5323" y="0.532252" width="264.935" height="164.935" filterUnits="userSpaceOnUse" color-interpolation-filters="sRGB">
<feFlood flood-opacity="0" result="BackgroundImageFix"/>
<feColorMatrix in="SourceAlpha" type="matrix" values="0 0 0 0 0 0 0 0 0 0 0 0 0 0 0 0 0 0 127 0" result="hardAlpha"/>
<feOffset/>
<feGaussianBlur stdDeviation="1.23387"/>
<feComposite in2="hardAlpha" operator="out"/>
<feColorMatrix type="matrix" values="0 0 0 0 0 0 0 0 0 0 0 0 0 0 0 0 0 0 0.2 0"/>
<feBlend mode="normal" in2="BackgroundImageFix" result="effect1_dropShadow_1551_41871"/>
<feBlend mode="normal" in="SourceGraphic" in2="effect1_dropShadow_1551_41871" result="shape"/>
</filter>
<filter id="filter1_d_1551_41871" x="0.532252" y="18.5323" width="264.935" height="164.935" filterUnits="userSpaceOnUse" color-interpolation-filters="sRGB">
<feFlood flood-opacity="0" result="BackgroundImageFix"/>
<feColorMatrix in="SourceAlpha" type="matrix" values="0 0 0 0 0 0 0 0 0 0 0 0 0 0 0 0 0 0 127 0" result="hardAlpha"/>
<feOffset/>
<feGaussianBlur stdDeviation="1.23387"/>
<feComposite in2="hardAlpha" operator="out"/>
<feColorMatrix type="matrix" values="0 0 0 0 0 0 0 0 0 0 0 0 0 0 0 0 0 0 0.2 0"/>
<feBlend mode="normal" in2="BackgroundImageFix" result="effect1_dropShadow_1551_41871"/>
<feBlend mode="normal" in="SourceGraphic" in2="effect1_dropShadow_1551_41871" result="shape"/>
</filter>
</defs>
</svg>
