<svg width="283" height="174" viewBox="0 0 283 174" fill="none" xmlns="http://www.w3.org/2000/svg">
<rect x="56.5723" y="27.7246" width="79.5849" height="13.5513" rx="6.16937" fill="#EBEBEB"/>
<rect x="151.581" y="27.7246" width="79.5849" height="13.5513" rx="6.16937" fill="#E2E2E2"/>
<g filter="url(#filter0_d_1537_45910)">
<rect x="20" y="3" width="260" height="147" rx="6.16937" fill="white"/>
</g>
<path d="M34.5048 100V90.5455H38.0502C38.7766 90.5455 39.3859 90.6809 39.8784 90.9517C40.3739 91.2225 40.7478 91.5949 41.0002 92.0689C41.2556 92.5398 41.3833 93.0753 41.3833 93.6754C41.3833 94.2817 41.2556 94.8203 41.0002 95.2912C40.7447 95.7621 40.3677 96.1329 39.8691 96.4038C39.3706 96.6715 38.7566 96.8054 38.0272 96.8054H35.6774V95.3974H37.7963C38.2211 95.3974 38.5688 95.3235 38.8397 95.1758C39.1105 95.0281 39.3105 94.8249 39.4398 94.5664C39.5721 94.3079 39.6383 94.0109 39.6383 93.6754C39.6383 93.34 39.5721 93.0445 39.4398 92.7891C39.3105 92.5336 39.109 92.3351 38.835 92.1935C38.5642 92.0489 38.2149 91.9766 37.7871 91.9766H36.2175V100H34.5048ZM42.7971 100V92.9091H44.4175V94.0909H44.4914C44.6206 93.6816 44.8422 93.3661 45.1562 93.1445C45.4732 92.9199 45.8348 92.8075 46.241 92.8075C46.3334 92.8075 46.4365 92.8121 46.5503 92.8214C46.6673 92.8275 46.7642 92.8383 46.8412 92.8537V94.391C46.7704 94.3664 46.6581 94.3448 46.5042 94.3263C46.3534 94.3048 46.2072 94.294 46.0656 94.294C45.7609 94.294 45.487 94.3602 45.2439 94.4925C45.0038 94.6218 44.8145 94.8018 44.676 95.0327C44.5376 95.2635 44.4683 95.5297 44.4683 95.8313V100H42.7971ZM50.7525 100.138C50.06 100.138 49.4599 99.9862 48.9521 99.6815C48.4442 99.3768 48.0503 98.9505 47.7702 98.4027C47.4933 97.8549 47.3548 97.2147 47.3548 96.4822C47.3548 95.7498 47.4933 95.1081 47.7702 94.5572C48.0503 94.0063 48.4442 93.5785 48.9521 93.2738C49.4599 92.9691 50.06 92.8168 50.7525 92.8168C51.445 92.8168 52.0451 92.9691 52.5529 93.2738C53.0607 93.5785 53.4531 94.0063 53.7301 94.5572C54.0102 95.1081 54.1502 95.7498 54.1502 96.4822C54.1502 97.2147 54.0102 97.8549 53.7301 98.4027C53.4531 98.9505 53.0607 99.3768 52.5529 99.6815C52.0451 99.9862 51.445 100.138 50.7525 100.138ZM50.7617 98.7997C51.1372 98.7997 51.4511 98.6966 51.7035 98.4904C51.9558 98.2811 52.1436 98.0011 52.2667 97.6502C52.3929 97.2994 52.456 96.9085 52.456 96.4776C52.456 96.0437 52.3929 95.6513 52.2667 95.3004C52.1436 94.9465 51.9558 94.6649 51.7035 94.4556C51.4511 94.2463 51.1372 94.1417 50.7617 94.1417C50.377 94.1417 50.0569 94.2463 49.8015 94.4556C49.5491 94.6649 49.3598 94.9465 49.2337 95.3004C49.1106 95.6513 49.049 96.0437 49.049 96.4776C49.049 96.9085 49.1106 97.2994 49.2337 97.6502C49.3598 98.0011 49.5491 98.2811 49.8015 98.4904C50.0569 98.6966 50.377 98.7997 50.7617 98.7997ZM55.5686 92.9091H57.2398V100.406C57.2398 100.917 57.1428 101.339 56.949 101.671C56.7551 102.004 56.475 102.251 56.1088 102.414C55.7425 102.578 55.2978 102.659 54.7746 102.659C54.713 102.659 54.6561 102.658 54.6038 102.654C54.5515 102.654 54.4945 102.653 54.433 102.65V101.288C54.4791 101.291 54.5207 101.293 54.5576 101.293C54.5945 101.296 54.633 101.297 54.673 101.297C54.9931 101.297 55.2224 101.219 55.3609 101.062C55.4994 100.908 55.5686 100.682 55.5686 100.383V92.9091ZM56.3996 91.9027C56.1318 91.9027 55.9026 91.815 55.7117 91.6396C55.524 91.4611 55.4301 91.2472 55.4301 90.9979C55.4301 90.7455 55.524 90.5316 55.7117 90.3562C55.9026 90.1777 56.1318 90.0884 56.3996 90.0884C56.6643 90.0884 56.8905 90.1777 57.0782 90.3562C57.269 90.5316 57.3644 90.7455 57.3644 90.9979C57.3644 91.2472 57.269 91.4611 57.0782 91.6396C56.8905 91.815 56.6643 91.9027 56.3996 91.9027ZM62.0975 100.138C61.3865 100.138 60.7725 99.9908 60.2555 99.6953C59.7415 99.3968 59.3461 98.9751 59.0691 98.4304C58.7921 97.8826 58.6536 97.2378 58.6536 96.4961C58.6536 95.7667 58.7921 95.1265 59.0691 94.5756C59.3491 94.0217 59.74 93.5908 60.2417 93.283C60.7433 92.9722 61.3327 92.8168 62.0098 92.8168C62.4468 92.8168 62.8592 92.8875 63.247 93.0291C63.6378 93.1676 63.9825 93.383 64.2811 93.6754C64.5827 93.9678 64.8197 94.3402 64.992 94.7926C65.1644 95.242 65.2505 95.7775 65.2505 96.3991V96.9116H59.4384V95.7852H63.6486C63.6455 95.4651 63.5763 95.1804 63.4409 94.9311C63.3055 94.6787 63.1162 94.4802 62.873 94.3356C62.633 94.1909 62.3529 94.1186 62.0328 94.1186C61.6912 94.1186 61.3912 94.2017 61.1326 94.3679C60.8741 94.531 60.6725 94.7464 60.5279 95.0142C60.3863 95.2789 60.314 95.5697 60.3109 95.8867V96.87C60.3109 97.2824 60.3863 97.6364 60.5371 97.9318C60.6879 98.2242 60.8987 98.4489 61.1696 98.6058C61.4404 98.7597 61.7574 98.8366 62.1206 98.8366C62.3637 98.8366 62.5837 98.8028 62.7807 98.7351C62.9777 98.6643 63.1485 98.5612 63.2931 98.4258C63.4378 98.2904 63.5471 98.1226 63.6209 97.9226L65.1813 98.098C65.0828 98.5104 64.8951 98.8705 64.6181 99.1783C64.3442 99.483 63.9933 99.7199 63.5655 99.8892C63.1377 100.055 62.6484 100.138 62.0975 100.138ZM69.7574 100.138C69.0495 100.138 68.4417 99.9831 67.9339 99.6722C67.4291 99.3614 67.0398 98.9321 66.7659 98.3842C66.4951 97.8333 66.3596 97.1993 66.3596 96.4822C66.3596 95.7621 66.4981 95.1265 66.7751 94.5756C67.0521 94.0217 67.443 93.5908 67.9477 93.283C68.4555 92.9722 69.0557 92.8168 69.7481 92.8168C70.3237 92.8168 70.833 92.9229 71.2762 93.1353C71.7224 93.3446 72.0779 93.6416 72.3426 94.0263C72.6073 94.4079 72.7581 94.8542 72.795 95.3651H71.1977C71.1331 95.0234 70.9792 94.7388 70.7361 94.511C70.496 94.2802 70.1744 94.1648 69.7712 94.1648C69.4296 94.1648 69.1295 94.2571 68.871 94.4418C68.6125 94.6233 68.4109 94.8849 68.2662 95.2266C68.1247 95.5682 68.0539 95.9775 68.0539 96.4545C68.0539 96.9377 68.1247 97.3532 68.2662 97.701C68.4078 98.0457 68.6063 98.3119 68.8618 98.4996C69.1203 98.6843 69.4234 98.7766 69.7712 98.7766C70.0174 98.7766 70.2375 98.7305 70.4314 98.6381C70.6283 98.5427 70.793 98.4058 70.9253 98.2273C71.0577 98.0488 71.1485 97.8318 71.1977 97.5763H72.795C72.755 98.078 72.6073 98.5227 72.3518 98.9105C72.0964 99.2952 71.7486 99.5968 71.3085 99.8153C70.8684 100.031 70.3514 100.138 69.7574 100.138ZM77.7081 92.9091V94.2017H73.6317V92.9091H77.7081ZM74.6381 91.2102H76.3093V97.8672C76.3093 98.0919 76.3432 98.2642 76.4109 98.3842C76.4817 98.5012 76.574 98.5812 76.6879 98.6243C76.8017 98.6674 76.9279 98.6889 77.0664 98.6889C77.171 98.6889 77.2665 98.6812 77.3526 98.6658C77.4419 98.6504 77.5096 98.6366 77.5558 98.6243L77.8374 99.9308C77.7481 99.9615 77.6204 99.9954 77.4542 100.032C77.2911 100.069 77.091 100.091 76.854 100.097C76.4355 100.109 76.0585 100.046 75.723 99.9077C75.3875 99.7661 75.1213 99.5476 74.9244 99.2521C74.7305 98.9567 74.6351 98.5874 74.6381 98.1442V91.2102ZM87.5423 93.1445C87.4993 92.7414 87.3177 92.4274 86.9976 92.2028C86.6806 91.9781 86.2682 91.8658 85.7604 91.8658C85.4034 91.8658 85.0972 91.9196 84.8417 92.0273C84.5863 92.1351 84.3908 92.2812 84.2554 92.4659C84.12 92.6506 84.0508 92.8614 84.0477 93.0984C84.0477 93.2953 84.0923 93.4661 84.1816 93.6108C84.2739 93.7554 84.3985 93.8786 84.5555 93.9801C84.7124 94.0786 84.8863 94.1617 85.0771 94.2294C85.268 94.2971 85.4603 94.354 85.6542 94.4002L86.5406 94.6218C86.8976 94.7049 87.2407 94.8172 87.57 94.9588C87.9024 95.1004 88.1994 95.2789 88.461 95.4943C88.7257 95.7098 88.935 95.9698 89.0889 96.2745C89.2427 96.5792 89.3197 96.9362 89.3197 97.3455C89.3197 97.8995 89.1781 98.3873 88.895 98.8089C88.6118 99.2275 88.2025 99.5553 87.667 99.7923C87.1346 100.026 86.4898 100.143 85.7327 100.143C84.9971 100.143 84.3585 100.029 83.8169 99.8015C83.2783 99.5737 82.8566 99.2414 82.5519 98.8043C82.2503 98.3673 82.0872 97.8349 82.0626 97.207H83.7476C83.7722 97.5363 83.8738 97.8103 84.0523 98.0288C84.2308 98.2473 84.4632 98.4104 84.7494 98.5181C85.0387 98.6258 85.3618 98.6797 85.7188 98.6797C86.0912 98.6797 86.4175 98.6243 86.6975 98.5135C86.9807 98.3996 87.2023 98.2427 87.3623 98.0426C87.5223 97.8395 87.6039 97.6025 87.607 97.3317C87.6039 97.0855 87.5316 96.8823 87.39 96.7223C87.2484 96.5592 87.0499 96.4238 86.7945 96.3161C86.5421 96.2053 86.2467 96.1068 85.9081 96.0206L84.8325 95.7436C84.0538 95.5436 83.4383 95.2404 82.9859 94.8342C82.5365 94.4248 82.3119 93.8816 82.3119 93.2045C82.3119 92.6475 82.4627 92.1597 82.7643 91.7411C83.069 91.3226 83.4829 90.9979 84.0061 90.767C84.5293 90.5331 85.1218 90.4162 85.7835 90.4162C86.4544 90.4162 87.0422 90.5331 87.547 90.767C88.0548 90.9979 88.4533 91.3195 88.7426 91.7319C89.0319 92.1412 89.1812 92.6121 89.1904 93.1445H87.5423ZM93.9119 100.138C93.201 100.138 92.587 99.9908 92.07 99.6953C91.556 99.3968 91.1605 98.9751 90.8835 98.4304C90.6065 97.8826 90.468 97.2378 90.468 96.4961C90.468 95.7667 90.6065 95.1265 90.8835 94.5756C91.1636 94.0217 91.5545 93.5908 92.0561 93.283C92.5578 92.9722 93.1471 92.8168 93.8242 92.8168C94.2612 92.8168 94.6737 92.8875 95.0614 93.0291C95.4523 93.1676 95.797 93.383 96.0955 93.6754C96.3971 93.9678 96.6341 94.3402 96.8065 94.7926C96.9788 95.242 97.065 95.7775 97.065 96.3991V96.9116H91.2528V95.7852H95.4631C95.46 95.4651 95.3907 95.1804 95.2553 94.9311C95.1199 94.6787 94.9306 94.4802 94.6875 94.3356C94.4474 94.1909 94.1674 94.1186 93.8473 94.1186C93.5057 94.1186 93.2056 94.2017 92.9471 94.3679C92.6886 94.531 92.487 94.7464 92.3423 95.0142C92.2008 95.2789 92.1284 95.5697 92.1254 95.8867V96.87C92.1254 97.2824 92.2008 97.6364 92.3516 97.9318C92.5024 98.2242 92.7132 98.4489 92.984 98.6058C93.2549 98.7597 93.5719 98.8366 93.935 98.8366C94.1781 98.8366 94.3982 98.8028 94.5952 98.7351C94.7921 98.6643 94.9629 98.5612 95.1076 98.4258C95.2522 98.2904 95.3615 98.1226 95.4354 97.9226L96.9957 98.098C96.8973 98.5104 96.7095 98.8705 96.4325 99.1783C96.1586 99.483 95.8078 99.7199 95.38 99.8892C94.9522 100.055 94.4628 100.138 93.9119 100.138ZM102.02 92.9091V94.2017H97.9433V92.9091H102.02ZM98.9497 91.2102H100.621V97.8672C100.621 98.0919 100.655 98.2642 100.722 98.3842C100.793 98.5012 100.886 98.5812 100.999 98.6243C101.113 98.6674 101.239 98.6889 101.378 98.6889C101.483 98.6889 101.578 98.6812 101.664 98.6658C101.753 98.6504 101.821 98.6366 101.867 98.6243L102.149 99.9308C102.06 99.9615 101.932 99.9954 101.766 100.032C101.603 100.069 101.403 100.091 101.166 100.097C100.747 100.109 100.37 100.046 100.035 99.9077C99.6991 99.7661 99.4329 99.5476 99.2359 99.2521C99.042 98.9567 98.9466 98.5874 98.9497 98.1442V91.2102ZM106.958 92.9091V94.2017H102.882V92.9091H106.958ZM103.888 91.2102H105.559V97.8672C105.559 98.0919 105.593 98.2642 105.661 98.3842C105.732 98.5012 105.824 98.5812 105.938 98.6243C106.052 98.6674 106.178 98.6889 106.316 98.6889C106.421 98.6889 106.516 98.6812 106.603 98.6658C106.692 98.6504 106.76 98.6366 106.806 98.6243L107.087 99.9308C106.998 99.9615 106.87 99.9954 106.704 100.032C106.541 100.069 106.341 100.091 106.104 100.097C105.685 100.109 105.308 100.046 104.973 99.9077C104.638 99.7661 104.371 99.5476 104.174 99.2521C103.98 98.9567 103.885 98.5874 103.888 98.1442V91.2102ZM108.356 100V92.9091H110.027V100H108.356ZM109.196 91.9027C108.931 91.9027 108.704 91.815 108.513 91.6396C108.322 91.4611 108.226 91.2472 108.226 90.9979C108.226 90.7455 108.322 90.5316 108.513 90.3562C108.704 90.1777 108.931 90.0884 109.196 90.0884C109.464 90.0884 109.691 90.1777 109.879 90.3562C110.07 90.5316 110.165 90.7455 110.165 90.9979C110.165 91.2472 110.07 91.4611 109.879 91.6396C109.691 91.815 109.464 91.9027 109.196 91.9027ZM113.417 95.8452V100H111.745V92.9091H113.343V94.114H113.426C113.589 93.717 113.849 93.4015 114.206 93.1676C114.566 92.9337 115.011 92.8168 115.54 92.8168C116.029 92.8168 116.456 92.9214 116.819 93.1307C117.185 93.34 117.468 93.6431 117.668 94.0401C117.871 94.4371 117.971 94.9188 117.968 95.4851V100H116.297V95.7436C116.297 95.2696 116.174 94.8988 115.928 94.631C115.685 94.3633 115.348 94.2294 114.917 94.2294C114.625 94.2294 114.364 94.294 114.137 94.4233C113.912 94.5495 113.735 94.7326 113.606 94.9727C113.48 95.2127 113.417 95.5036 113.417 95.8452ZM122.751 102.807C122.151 102.807 121.635 102.725 121.205 102.562C120.774 102.402 120.427 102.187 120.166 101.916C119.904 101.645 119.723 101.345 119.621 101.016L121.126 100.651C121.194 100.789 121.292 100.926 121.422 101.062C121.551 101.2 121.725 101.314 121.943 101.403C122.165 101.496 122.443 101.542 122.779 101.542C123.253 101.542 123.645 101.426 123.956 101.196C124.267 100.968 124.422 100.592 124.422 100.069V98.7259H124.339C124.253 98.8982 124.127 99.0752 123.961 99.2567C123.797 99.4383 123.58 99.5907 123.31 99.7138C123.042 99.8369 122.705 99.8984 122.299 99.8984C121.754 99.8984 121.26 99.7707 120.817 99.5153C120.377 99.2567 120.026 98.872 119.764 98.3612C119.506 97.8472 119.376 97.204 119.376 96.4315C119.376 95.6528 119.506 94.9957 119.764 94.4602C120.026 93.9216 120.378 93.5138 120.821 93.2369C121.265 92.9568 121.759 92.8168 122.303 92.8168C122.719 92.8168 123.06 92.8875 123.328 93.0291C123.599 93.1676 123.814 93.3353 123.974 93.5323C124.134 93.7262 124.256 93.9093 124.339 94.0817H124.431V92.9091H126.08V100.115C126.08 100.722 125.935 101.223 125.646 101.62C125.356 102.017 124.961 102.314 124.459 102.511C123.958 102.708 123.388 102.807 122.751 102.807ZM122.765 98.5874C123.119 98.5874 123.42 98.5012 123.67 98.3288C123.919 98.1565 124.108 97.9087 124.238 97.5856C124.367 97.2624 124.431 96.8746 124.431 96.4222C124.431 95.976 124.367 95.5851 124.238 95.2496C124.111 94.9142 123.924 94.6541 123.674 94.4695C123.428 94.2817 123.125 94.1879 122.765 94.1879C122.393 94.1879 122.082 94.2848 121.832 94.4787C121.583 94.6726 121.395 94.9388 121.269 95.2773C121.143 95.6128 121.08 95.9944 121.08 96.4222C121.08 96.8562 121.143 97.2363 121.269 97.5625C121.398 97.8857 121.588 98.138 121.837 98.3196C122.089 98.4981 122.399 98.5874 122.765 98.5874ZM133.397 94.7834L131.873 94.9496C131.83 94.7957 131.755 94.651 131.647 94.5156C131.542 94.3802 131.401 94.271 131.222 94.1879C131.044 94.1048 130.825 94.0632 130.567 94.0632C130.219 94.0632 129.927 94.1386 129.69 94.2894C129.456 94.4402 129.34 94.6357 129.343 94.8757C129.34 95.0819 129.416 95.2496 129.57 95.3789C129.727 95.5082 129.985 95.6143 130.345 95.6974L131.555 95.956C132.226 96.1006 132.724 96.3299 133.05 96.6438C133.38 96.9577 133.546 97.3686 133.549 97.8764C133.546 98.3227 133.415 98.7166 133.157 99.0582C132.901 99.3968 132.546 99.6615 132.09 99.8523C131.635 100.043 131.112 100.138 130.521 100.138C129.653 100.138 128.954 99.9569 128.425 99.5938C127.895 99.2275 127.58 98.7182 127.478 98.0657L129.108 97.9087C129.182 98.2288 129.339 98.4704 129.579 98.6335C129.819 98.7966 130.131 98.8782 130.516 98.8782C130.913 98.8782 131.232 98.7966 131.472 98.6335C131.715 98.4704 131.836 98.2688 131.836 98.0288C131.836 97.8256 131.758 97.6579 131.601 97.5256C131.447 97.3932 131.207 97.2917 130.881 97.2209L129.671 96.967C128.991 96.8254 128.488 96.5869 128.162 96.2514C127.835 95.9129 127.674 95.4851 127.677 94.968C127.674 94.531 127.792 94.1525 128.032 93.8324C128.275 93.5092 128.612 93.2599 129.043 93.0845C129.477 92.906 129.977 92.8168 130.544 92.8168C131.375 92.8168 132.029 92.9937 132.506 93.3477C132.986 93.7016 133.283 94.1802 133.397 94.7834Z" fill="black"/>
<rect x="34" y="112.811" width="232" height="8" rx="4" fill="#EBEBEB"/>
<rect x="34" y="128.811" width="79.5849" height="8.02018" rx="4.01009" fill="#E2E2E2"/>
<path d="M20 9C20 5.68629 22.6863 3 26 3H274C277.314 3 280 5.68629 280 9V74H20V9Z" fill="#FCECEF"/>
<path d="M137.542 58.166C136.743 58.166 136.065 57.8865 135.506 57.3275C134.947 56.7684 134.667 56.0896 134.667 55.291V34.4952C134.667 33.6966 134.947 33.0178 135.506 32.4587C136.065 31.8997 136.743 31.6202 137.542 31.6202H140.896V27.0202C140.896 24.4966 141.783 22.3483 143.556 20.5754C145.328 18.8025 147.477 17.916 150 17.916C152.524 17.916 154.672 18.8025 156.445 20.5754C158.218 22.3483 159.104 24.4966 159.104 27.0202V31.6202H162.459C163.257 31.6202 163.936 31.8997 164.495 32.4587C165.054 33.0178 165.334 33.6966 165.334 34.4952V55.291C165.334 56.0896 165.054 56.7684 164.495 57.3275C163.936 57.8865 163.257 58.166 162.459 58.166H137.542ZM137.542 55.291H162.459V34.4952H137.542V55.291ZM150 48.5827C151.023 48.5827 151.893 48.2313 152.612 47.5285C153.331 46.8257 153.69 45.9792 153.69 44.9889C153.69 44.0306 153.331 43.1601 152.612 42.3775C151.893 41.5948 151.023 41.2035 150 41.2035C148.978 41.2035 148.108 41.5948 147.389 42.3775C146.67 43.1601 146.311 44.0306 146.311 44.9889C146.311 45.9792 146.67 46.8257 147.389 47.5285C148.108 48.2313 148.978 48.5827 150 48.5827ZM143.771 31.6202H156.229V27.0202C156.229 25.2952 155.623 23.8257 154.409 22.6118C153.195 21.398 151.725 20.791 150 20.791C148.275 20.791 146.806 21.398 145.592 22.6118C144.378 23.8257 143.771 25.2952 143.771 27.0202V31.6202ZM137.542 55.291V34.4952V55.291Z" fill="#F19FA9"/>
<rect x="39.5723" y="48.7246" width="79.5849" height="13.5513" rx="6.16937" fill="#EBEBEB"/>
<rect x="134.581" y="48.7246" width="79.5849" height="13.5513" rx="6.16937" fill="#E2E2E2"/>
<g filter="url(#filter1_d_1537_45910)">
<rect x="3" y="24" width="260" height="147" rx="6.16937" fill="white"/>
</g>
<path d="M17.5048 121V111.545H21.0502C21.7766 111.545 22.3859 111.681 22.8784 111.952C23.3739 112.223 23.7478 112.595 24.0002 113.069C24.2556 113.54 24.3833 114.075 24.3833 114.675C24.3833 115.282 24.2556 115.82 24.0002 116.291C23.7447 116.762 23.3677 117.133 22.8691 117.404C22.3706 117.672 21.7566 117.805 21.0272 117.805H18.6774V116.397H20.7963C21.2211 116.397 21.5688 116.324 21.8397 116.176C22.1105 116.028 22.3105 115.825 22.4398 115.566C22.5721 115.308 22.6383 115.011 22.6383 114.675C22.6383 114.34 22.5721 114.045 22.4398 113.789C22.3105 113.534 22.109 113.335 21.835 113.194C21.5642 113.049 21.2149 112.977 20.7871 112.977H19.2175V121H17.5048ZM25.7971 121V113.909H27.4175V115.091H27.4914C27.6206 114.682 27.8422 114.366 28.1562 114.145C28.4732 113.92 28.8348 113.808 29.241 113.808C29.3334 113.808 29.4365 113.812 29.5503 113.821C29.6673 113.828 29.7642 113.838 29.8412 113.854V115.391C29.7704 115.366 29.6581 115.345 29.5042 115.326C29.3534 115.305 29.2072 115.294 29.0656 115.294C28.7609 115.294 28.487 115.36 28.2439 115.493C28.0038 115.622 27.8145 115.802 27.676 116.033C27.5376 116.263 27.4683 116.53 27.4683 116.831V121H25.7971ZM33.7525 121.138C33.06 121.138 32.4599 120.986 31.9521 120.681C31.4442 120.377 31.0503 119.951 30.7702 119.403C30.4933 118.855 30.3548 118.215 30.3548 117.482C30.3548 116.75 30.4933 116.108 30.7702 115.557C31.0503 115.006 31.4442 114.578 31.9521 114.274C32.4599 113.969 33.06 113.817 33.7525 113.817C34.445 113.817 35.0451 113.969 35.5529 114.274C36.0607 114.578 36.4531 115.006 36.7301 115.557C37.0102 116.108 37.1502 116.75 37.1502 117.482C37.1502 118.215 37.0102 118.855 36.7301 119.403C36.4531 119.951 36.0607 120.377 35.5529 120.681C35.0451 120.986 34.445 121.138 33.7525 121.138ZM33.7617 119.8C34.1372 119.8 34.4511 119.697 34.7035 119.49C34.9558 119.281 35.1436 119.001 35.2667 118.65C35.3929 118.299 35.456 117.908 35.456 117.478C35.456 117.044 35.3929 116.651 35.2667 116.3C35.1436 115.946 34.9558 115.665 34.7035 115.456C34.4511 115.246 34.1372 115.142 33.7617 115.142C33.377 115.142 33.0569 115.246 32.8015 115.456C32.5491 115.665 32.3598 115.946 32.2337 116.3C32.1106 116.651 32.049 117.044 32.049 117.478C32.049 117.908 32.1106 118.299 32.2337 118.65C32.3598 119.001 32.5491 119.281 32.8015 119.49C33.0569 119.697 33.377 119.8 33.7617 119.8ZM38.5686 113.909H40.2398V121.406C40.2398 121.917 40.1428 122.339 39.949 122.671C39.7551 123.004 39.475 123.251 39.1088 123.414C38.7425 123.578 38.2978 123.659 37.7746 123.659C37.713 123.659 37.6561 123.658 37.6038 123.654C37.5515 123.654 37.4945 123.653 37.433 123.65V122.288C37.4791 122.291 37.5207 122.293 37.5576 122.293C37.5945 122.296 37.633 122.297 37.673 122.297C37.9931 122.297 38.2224 122.219 38.3609 122.062C38.4994 121.908 38.5686 121.682 38.5686 121.383V113.909ZM39.3996 112.903C39.1318 112.903 38.9026 112.815 38.7117 112.64C38.524 112.461 38.4301 112.247 38.4301 111.998C38.4301 111.746 38.524 111.532 38.7117 111.356C38.9026 111.178 39.1318 111.088 39.3996 111.088C39.6643 111.088 39.8905 111.178 40.0782 111.356C40.269 111.532 40.3644 111.746 40.3644 111.998C40.3644 112.247 40.269 112.461 40.0782 112.64C39.8905 112.815 39.6643 112.903 39.3996 112.903ZM45.0975 121.138C44.3865 121.138 43.7725 120.991 43.2555 120.695C42.7415 120.397 42.3461 119.975 42.0691 119.43C41.7921 118.883 41.6536 118.238 41.6536 117.496C41.6536 116.767 41.7921 116.127 42.0691 115.576C42.3491 115.022 42.74 114.591 43.2417 114.283C43.7433 113.972 44.3327 113.817 45.0098 113.817C45.4468 113.817 45.8592 113.888 46.247 114.029C46.6378 114.168 46.9825 114.383 47.2811 114.675C47.5827 114.968 47.8197 115.34 47.992 115.793C48.1644 116.242 48.2505 116.777 48.2505 117.399V117.912H42.4384V116.785H46.6486C46.6455 116.465 46.5763 116.18 46.4409 115.931C46.3055 115.679 46.1162 115.48 45.873 115.336C45.633 115.191 45.3529 115.119 45.0328 115.119C44.6912 115.119 44.3912 115.202 44.1326 115.368C43.8741 115.531 43.6725 115.746 43.5279 116.014C43.3863 116.279 43.314 116.57 43.3109 116.887V117.87C43.3109 118.282 43.3863 118.636 43.5371 118.932C43.6879 119.224 43.8987 119.449 44.1696 119.606C44.4404 119.76 44.7574 119.837 45.1206 119.837C45.3637 119.837 45.5837 119.803 45.7807 119.735C45.9777 119.664 46.1485 119.561 46.2931 119.426C46.4378 119.29 46.5471 119.123 46.6209 118.923L48.1813 119.098C48.0828 119.51 47.8951 119.871 47.6181 120.178C47.3442 120.483 46.9933 120.72 46.5655 120.889C46.1377 121.055 45.6484 121.138 45.0975 121.138ZM52.7574 121.138C52.0495 121.138 51.4417 120.983 50.9339 120.672C50.4291 120.361 50.0398 119.932 49.7659 119.384C49.4951 118.833 49.3596 118.199 49.3596 117.482C49.3596 116.762 49.4981 116.127 49.7751 115.576C50.0521 115.022 50.443 114.591 50.9477 114.283C51.4555 113.972 52.0557 113.817 52.7481 113.817C53.3237 113.817 53.833 113.923 54.2762 114.135C54.7224 114.345 55.0779 114.642 55.3426 115.026C55.6073 115.408 55.7581 115.854 55.795 116.365H54.1977C54.1331 116.023 53.9792 115.739 53.7361 115.511C53.496 115.28 53.1744 115.165 52.7712 115.165C52.4296 115.165 52.1295 115.257 51.871 115.442C51.6125 115.623 51.4109 115.885 51.2662 116.227C51.1247 116.568 51.0539 116.978 51.0539 117.455C51.0539 117.938 51.1247 118.353 51.2662 118.701C51.4078 119.046 51.6063 119.312 51.8618 119.5C52.1203 119.684 52.4234 119.777 52.7712 119.777C53.0174 119.777 53.2375 119.73 53.4314 119.638C53.6283 119.543 53.793 119.406 53.9253 119.227C54.0577 119.049 54.1485 118.832 54.1977 118.576H55.795C55.755 119.078 55.6073 119.523 55.3518 119.911C55.0964 120.295 54.7486 120.597 54.3085 120.815C53.8684 121.031 53.3514 121.138 52.7574 121.138ZM60.7081 113.909V115.202H56.6317V113.909H60.7081ZM57.6381 112.21H59.3093V118.867C59.3093 119.092 59.3432 119.264 59.4109 119.384C59.4817 119.501 59.574 119.581 59.6879 119.624C59.8017 119.667 59.9279 119.689 60.0664 119.689C60.171 119.689 60.2665 119.681 60.3526 119.666C60.4419 119.65 60.5096 119.637 60.5558 119.624L60.8374 120.931C60.7481 120.962 60.6204 120.995 60.4542 121.032C60.2911 121.069 60.091 121.091 59.854 121.097C59.4355 121.109 59.0585 121.046 58.723 120.908C58.3875 120.766 58.1213 120.548 57.9244 120.252C57.7305 119.957 57.6351 119.587 57.6381 119.144V112.21ZM70.5423 114.145C70.4993 113.741 70.3177 113.427 69.9976 113.203C69.6806 112.978 69.2682 112.866 68.7604 112.866C68.4034 112.866 68.0972 112.92 67.8417 113.027C67.5863 113.135 67.3908 113.281 67.2554 113.466C67.12 113.651 67.0508 113.861 67.0477 114.098C67.0477 114.295 67.0923 114.466 67.1816 114.611C67.2739 114.755 67.3985 114.879 67.5555 114.98C67.7124 115.079 67.8863 115.162 68.0771 115.229C68.268 115.297 68.4603 115.354 68.6542 115.4L69.5406 115.622C69.8976 115.705 70.2407 115.817 70.57 115.959C70.9024 116.1 71.1994 116.279 71.461 116.494C71.7257 116.71 71.935 116.97 72.0889 117.275C72.2427 117.579 72.3197 117.936 72.3197 118.346C72.3197 118.9 72.1781 119.387 71.895 119.809C71.6118 120.228 71.2025 120.555 70.667 120.792C70.1346 121.026 69.4898 121.143 68.7327 121.143C67.9971 121.143 67.3585 121.029 66.8169 120.801C66.2783 120.574 65.8566 120.241 65.5519 119.804C65.2503 119.367 65.0872 118.835 65.0626 118.207H66.7476C66.7722 118.536 66.8738 118.81 67.0523 119.029C67.2308 119.247 67.4632 119.41 67.7494 119.518C68.0387 119.626 68.3618 119.68 68.7188 119.68C69.0912 119.68 69.4175 119.624 69.6975 119.513C69.9807 119.4 70.2023 119.243 70.3623 119.043C70.5223 118.839 70.6039 118.603 70.607 118.332C70.6039 118.085 70.5316 117.882 70.39 117.722C70.2484 117.559 70.0499 117.424 69.7945 117.316C69.5421 117.205 69.2467 117.107 68.9081 117.021L67.8325 116.744C67.0538 116.544 66.4383 116.24 65.9859 115.834C65.5365 115.425 65.3119 114.882 65.3119 114.205C65.3119 113.647 65.4627 113.16 65.7643 112.741C66.069 112.323 66.4829 111.998 67.0061 111.767C67.5293 111.533 68.1218 111.416 68.7835 111.416C69.4544 111.416 70.0422 111.533 70.547 111.767C71.0548 111.998 71.4533 112.319 71.7426 112.732C72.0319 113.141 72.1812 113.612 72.1904 114.145H70.5423ZM76.9119 121.138C76.201 121.138 75.587 120.991 75.07 120.695C74.556 120.397 74.1605 119.975 73.8835 119.43C73.6065 118.883 73.468 118.238 73.468 117.496C73.468 116.767 73.6065 116.127 73.8835 115.576C74.1636 115.022 74.5545 114.591 75.0561 114.283C75.5578 113.972 76.1471 113.817 76.8242 113.817C77.2612 113.817 77.6737 113.888 78.0614 114.029C78.4523 114.168 78.797 114.383 79.0955 114.675C79.3971 114.968 79.6341 115.34 79.8065 115.793C79.9788 116.242 80.065 116.777 80.065 117.399V117.912H74.2528V116.785H78.4631C78.46 116.465 78.3907 116.18 78.2553 115.931C78.1199 115.679 77.9306 115.48 77.6875 115.336C77.4474 115.191 77.1674 115.119 76.8473 115.119C76.5057 115.119 76.2056 115.202 75.9471 115.368C75.6886 115.531 75.487 115.746 75.3423 116.014C75.2008 116.279 75.1284 116.57 75.1254 116.887V117.87C75.1254 118.282 75.2008 118.636 75.3516 118.932C75.5024 119.224 75.7132 119.449 75.984 119.606C76.2549 119.76 76.5719 119.837 76.935 119.837C77.1781 119.837 77.3982 119.803 77.5952 119.735C77.7921 119.664 77.9629 119.561 78.1076 119.426C78.2522 119.29 78.3615 119.123 78.4354 118.923L79.9957 119.098C79.8973 119.51 79.7095 119.871 79.4325 120.178C79.1586 120.483 78.8078 120.72 78.38 120.889C77.9522 121.055 77.4628 121.138 76.9119 121.138ZM85.0196 113.909V115.202H80.9433V113.909H85.0196ZM81.9497 112.21H83.6208V118.867C83.6208 119.092 83.6547 119.264 83.7224 119.384C83.7932 119.501 83.8855 119.581 83.9994 119.624C84.1133 119.667 84.2394 119.689 84.3779 119.689C84.4826 119.689 84.578 119.681 84.6642 119.666C84.7534 119.65 84.8211 119.637 84.8673 119.624L85.1489 120.931C85.0596 120.962 84.9319 120.995 84.7657 121.032C84.6026 121.069 84.4026 121.091 84.1656 121.097C83.747 121.109 83.37 121.046 83.0345 120.908C82.6991 120.766 82.4329 120.548 82.2359 120.252C82.042 119.957 81.9466 119.587 81.9497 119.144V112.21ZM89.9581 113.909V115.202H85.8817V113.909H89.9581ZM86.8881 112.21H88.5593V118.867C88.5593 119.092 88.5932 119.264 88.6609 119.384C88.7317 119.501 88.824 119.581 88.9379 119.624C89.0517 119.667 89.1779 119.689 89.3164 119.689C89.421 119.689 89.5165 119.681 89.6026 119.666C89.6919 119.65 89.7596 119.637 89.8058 119.624L90.0874 120.931C89.9981 120.962 89.8704 120.995 89.7042 121.032C89.5411 121.069 89.341 121.091 89.104 121.097C88.6855 121.109 88.3085 121.046 87.973 120.908C87.6375 120.766 87.3713 120.548 87.1744 120.252C86.9805 119.957 86.8851 119.587 86.8881 119.144V112.21ZM91.3557 121V113.909H93.0269V121H91.3557ZM92.1959 112.903C91.9313 112.903 91.7035 112.815 91.5127 112.64C91.3219 112.461 91.2265 112.247 91.2265 111.998C91.2265 111.746 91.3219 111.532 91.5127 111.356C91.7035 111.178 91.9313 111.088 92.1959 111.088C92.4637 111.088 92.6914 111.178 92.8792 111.356C93.07 111.532 93.1654 111.746 93.1654 111.998C93.1654 112.247 93.07 112.461 92.8792 112.64C92.6914 112.815 92.4637 112.903 92.1959 112.903ZM96.4165 116.845V121H94.7454V113.909H96.3427V115.114H96.4258C96.5889 114.717 96.849 114.402 97.206 114.168C97.5661 113.934 98.0108 113.817 98.5401 113.817C99.0295 113.817 99.4557 113.921 99.8189 114.131C100.185 114.34 100.468 114.643 100.668 115.04C100.871 115.437 100.971 115.919 100.968 116.485V121H99.2972V116.744C99.2972 116.27 99.1741 115.899 98.9279 115.631C98.6848 115.363 98.3478 115.229 97.9169 115.229C97.6245 115.229 97.3645 115.294 97.1367 115.423C96.9121 115.549 96.7351 115.733 96.6058 115.973C96.4796 116.213 96.4165 116.504 96.4165 116.845ZM105.751 123.807C105.151 123.807 104.635 123.725 104.205 123.562C103.774 123.402 103.427 123.187 103.166 122.916C102.904 122.645 102.723 122.345 102.621 122.016L104.126 121.651C104.194 121.789 104.292 121.926 104.422 122.062C104.551 122.2 104.725 122.314 104.943 122.403C105.165 122.496 105.443 122.542 105.779 122.542C106.253 122.542 106.645 122.426 106.956 122.196C107.267 121.968 107.422 121.592 107.422 121.069V119.726H107.339C107.253 119.898 107.127 120.075 106.961 120.257C106.797 120.438 106.58 120.591 106.31 120.714C106.042 120.837 105.705 120.898 105.299 120.898C104.754 120.898 104.26 120.771 103.817 120.515C103.377 120.257 103.026 119.872 102.764 119.361C102.506 118.847 102.376 118.204 102.376 117.431C102.376 116.653 102.506 115.996 102.764 115.46C103.026 114.922 103.378 114.514 103.821 114.237C104.265 113.957 104.759 113.817 105.303 113.817C105.719 113.817 106.06 113.888 106.328 114.029C106.599 114.168 106.814 114.335 106.974 114.532C107.134 114.726 107.256 114.909 107.339 115.082H107.431V113.909H109.08V121.115C109.08 121.722 108.935 122.223 108.646 122.62C108.356 123.017 107.961 123.314 107.459 123.511C106.958 123.708 106.388 123.807 105.751 123.807ZM105.765 119.587C106.119 119.587 106.42 119.501 106.67 119.329C106.919 119.156 107.108 118.909 107.238 118.586C107.367 118.262 107.431 117.875 107.431 117.422C107.431 116.976 107.367 116.585 107.238 116.25C107.111 115.914 106.924 115.654 106.674 115.469C106.428 115.282 106.125 115.188 105.765 115.188C105.393 115.188 105.082 115.285 104.832 115.479C104.583 115.673 104.395 115.939 104.269 116.277C104.143 116.613 104.08 116.994 104.08 117.422C104.08 117.856 104.143 118.236 104.269 118.562C104.398 118.886 104.588 119.138 104.837 119.32C105.089 119.498 105.399 119.587 105.765 119.587ZM116.397 115.783L114.873 115.95C114.83 115.796 114.755 115.651 114.647 115.516C114.542 115.38 114.401 115.271 114.222 115.188C114.044 115.105 113.825 115.063 113.567 115.063C113.219 115.063 112.927 115.139 112.69 115.289C112.456 115.44 112.34 115.636 112.343 115.876C112.34 116.082 112.416 116.25 112.57 116.379C112.727 116.508 112.985 116.614 113.345 116.697L114.555 116.956C115.226 117.101 115.724 117.33 116.05 117.644C116.38 117.958 116.546 118.369 116.549 118.876C116.546 119.323 116.415 119.717 116.157 120.058C115.901 120.397 115.546 120.661 115.09 120.852C114.635 121.043 114.112 121.138 113.521 121.138C112.653 121.138 111.954 120.957 111.425 120.594C110.895 120.228 110.58 119.718 110.478 119.066L112.108 118.909C112.182 119.229 112.339 119.47 112.579 119.634C112.819 119.797 113.131 119.878 113.516 119.878C113.913 119.878 114.232 119.797 114.472 119.634C114.715 119.47 114.836 119.269 114.836 119.029C114.836 118.826 114.758 118.658 114.601 118.526C114.447 118.393 114.207 118.292 113.881 118.221L112.671 117.967C111.991 117.825 111.488 117.587 111.162 117.251C110.835 116.913 110.674 116.485 110.677 115.968C110.674 115.531 110.792 115.152 111.032 114.832C111.275 114.509 111.612 114.26 112.043 114.085C112.477 113.906 112.977 113.817 113.544 113.817C114.375 113.817 115.029 113.994 115.506 114.348C115.986 114.702 116.283 115.18 116.397 115.783Z" fill="black"/>
<rect x="17" y="133.811" width="232" height="8" rx="4" fill="#EBEBEB"/>
<rect x="17" y="149.811" width="79.5849" height="8.02018" rx="4.01009" fill="#E2E2E2"/>
<path d="M3 30C3 26.6863 5.68629 24 9 24H257C260.314 24 263 26.6863 263 30V95H3V30Z" fill="#FCECEF"/>
<path d="M120.542 79.166C119.743 79.166 119.065 78.8865 118.506 78.3275C117.947 77.7684 117.667 77.0896 117.667 76.291V55.4952C117.667 54.6966 117.947 54.0178 118.506 53.4587C119.065 52.8997 119.743 52.6202 120.542 52.6202H123.896V48.0202C123.896 45.4966 124.783 43.3483 126.556 41.5754C128.328 39.8025 130.477 38.916 133 38.916C135.524 38.916 137.672 39.8025 139.445 41.5754C141.218 43.3483 142.104 45.4966 142.104 48.0202V52.6202H145.459C146.257 52.6202 146.936 52.8997 147.495 53.4587C148.054 54.0178 148.334 54.6966 148.334 55.4952V76.291C148.334 77.0896 148.054 77.7684 147.495 78.3275C146.936 78.8865 146.257 79.166 145.459 79.166H120.542ZM120.542 76.291H145.459V55.4952H120.542V76.291ZM133 69.5827C134.023 69.5827 134.893 69.2313 135.612 68.5285C136.331 67.8257 136.69 66.9792 136.69 65.9889C136.69 65.0306 136.331 64.1601 135.612 63.3775C134.893 62.5948 134.023 62.2035 133 62.2035C131.978 62.2035 131.108 62.5948 130.389 63.3775C129.67 64.1601 129.311 65.0306 129.311 65.9889C129.311 66.9792 129.67 67.8257 130.389 68.5285C131.108 69.2313 131.978 69.5827 133 69.5827ZM126.771 52.6202H139.229V48.0202C139.229 46.2952 138.623 44.8257 137.409 43.6118C136.195 42.398 134.725 41.791 133 41.791C131.275 41.791 129.806 42.398 128.592 43.6118C127.378 44.8257 126.771 46.2952 126.771 48.0202V52.6202ZM120.542 76.291V55.4952V76.291Z" fill="#F19FA9"/>
<defs>
<filter id="filter0_d_1537_45910" x="17.5323" y="0.532252" width="264.935" height="151.935" filterUnits="userSpaceOnUse" color-interpolation-filters="sRGB">
<feFlood flood-opacity="0" result="BackgroundImageFix"/>
<feColorMatrix in="SourceAlpha" type="matrix" values="0 0 0 0 0 0 0 0 0 0 0 0 0 0 0 0 0 0 127 0" result="hardAlpha"/>
<feOffset/>
<feGaussianBlur stdDeviation="1.23387"/>
<feComposite in2="hardAlpha" operator="out"/>
<feColorMatrix type="matrix" values="0 0 0 0 0 0 0 0 0 0 0 0 0 0 0 0 0 0 0.2 0"/>
<feBlend mode="normal" in2="BackgroundImageFix" result="effect1_dropShadow_1537_45910"/>
<feBlend mode="normal" in="SourceGraphic" in2="effect1_dropShadow_1537_45910" result="shape"/>
</filter>
<filter id="filter1_d_1537_45910" x="0.532252" y="21.5323" width="264.935" height="151.935" filterUnits="userSpaceOnUse" color-interpolation-filters="sRGB">
<feFlood flood-opacity="0" result="BackgroundImageFix"/>
<feColorMatrix in="SourceAlpha" type="matrix" values="0 0 0 0 0 0 0 0 0 0 0 0 0 0 0 0 0 0 127 0" result="hardAlpha"/>
<feOffset/>
<feGaussianBlur stdDeviation="1.23387"/>
<feComposite in2="hardAlpha" operator="out"/>
<feColorMatrix type="matrix" values="0 0 0 0 0 0 0 0 0 0 0 0 0 0 0 0 0 0 0.2 0"/>
<feBlend mode="normal" in2="BackgroundImageFix" result="effect1_dropShadow_1537_45910"/>
<feBlend mode="normal" in="SourceGraphic" in2="effect1_dropShadow_1537_45910" result="shape"/>
</filter>
</defs>
</svg>
