<svg width="288" height="114" viewBox="0 0 288 114" fill="none" xmlns="http://www.w3.org/2000/svg">
<g filter="url(#filter0_d_1295_41552)">
<rect x="25" y="3" width="260" height="84.1176" rx="5.5615" fill="white"/>
<path d="M38.2659 22.0371L36.3304 14.9588H37.2014L38.6806 20.7238H38.7497L40.2566 14.9588H41.2244L42.7313 20.7238H42.8004L44.2796 14.9588H45.1506L43.2151 22.0371H42.3304L40.7682 16.3966H40.7129L39.1507 22.0371H38.2659ZM47.7704 22.1477C47.2911 22.1477 46.8706 22.0337 46.5089 21.8055C46.1494 21.5774 45.8683 21.2583 45.6656 20.8482C45.4651 20.438 45.3649 19.9588 45.3649 19.4104C45.3649 18.8574 45.4651 18.3747 45.6656 17.9623C45.8683 17.5498 46.1494 17.2296 46.5089 17.0014C46.8706 16.7733 47.2911 16.6593 47.7704 16.6593C48.2497 16.6593 48.669 16.7733 49.0284 17.0014C49.3902 17.2296 49.6713 17.5498 49.8718 17.9623C50.0745 18.3747 50.1759 18.8574 50.1759 19.4104C50.1759 19.9588 50.0745 20.438 49.8718 20.8482C49.6713 21.2583 49.3902 21.5774 49.0284 21.8055C48.669 22.0337 48.2497 22.1477 47.7704 22.1477ZM47.7704 21.415C48.1344 21.415 48.434 21.3217 48.669 21.135C48.904 20.9484 49.078 20.703 49.1909 20.3989C49.3038 20.0947 49.3602 19.7652 49.3602 19.4104C49.3602 19.0556 49.3038 18.7249 49.1909 18.4185C49.078 18.112 48.904 17.8643 48.669 17.6754C48.434 17.4865 48.1344 17.392 47.7704 17.392C47.4063 17.392 47.1068 17.4865 46.8718 17.6754C46.6368 17.8643 46.4628 18.112 46.3499 18.4185C46.237 18.7249 46.1805 19.0556 46.1805 19.4104C46.1805 19.7652 46.237 20.0947 46.3499 20.3989C46.4628 20.703 46.6368 20.9484 46.8718 21.135C47.1068 21.3217 47.4063 21.415 47.7704 21.415ZM51.421 22.0371V16.7284H52.209V17.5302H52.2643C52.3611 17.2676 52.5362 17.0544 52.7896 16.8908C53.0431 16.7273 53.3288 16.6455 53.6468 16.6455C53.7067 16.6455 53.7816 16.6466 53.8714 16.6489C53.9613 16.6512 54.0293 16.6547 54.0753 16.6593V17.4888C54.0477 17.4819 53.9843 17.4715 53.8853 17.4577C53.7885 17.4415 53.6859 17.4335 53.5777 17.4335C53.3196 17.4335 53.0892 17.4876 52.8864 17.5959C52.686 17.7019 52.527 17.8494 52.4095 18.0383C52.2943 18.2249 52.2367 18.4381 52.2367 18.6777V22.0371H51.421ZM55.8026 20.1016L55.7887 19.0924H55.9546L58.2772 16.7284H59.2864L56.8118 19.2307H56.7427L55.8026 20.1016ZM55.0422 22.0371V14.9588H55.8579V22.0371H55.0422ZM58.4154 22.0371L56.3417 19.4104L56.9224 18.8436L59.4523 22.0371H58.4154ZM65.2302 22.1477C64.7509 22.1477 64.3304 22.0337 63.9687 21.8055C63.6092 21.5774 63.3281 21.2583 63.1254 20.8482C62.9249 20.438 62.8247 19.9588 62.8247 19.4104C62.8247 18.8574 62.9249 18.3747 63.1254 17.9623C63.3281 17.5498 63.6092 17.2296 63.9687 17.0014C64.3304 16.7733 64.7509 16.6593 65.2302 16.6593C65.7094 16.6593 66.1288 16.7733 66.4882 17.0014C66.85 17.2296 67.1311 17.5498 67.3315 17.9623C67.5343 18.3747 67.6357 18.8574 67.6357 19.4104C67.6357 19.9588 67.5343 20.438 67.3315 20.8482C67.1311 21.2583 66.85 21.5774 66.4882 21.8055C66.1288 22.0337 65.7094 22.1477 65.2302 22.1477ZM65.2302 21.415C65.5942 21.415 65.8938 21.3217 66.1288 21.135C66.3638 20.9484 66.5378 20.703 66.6507 20.3989C66.7636 20.0947 66.82 19.7652 66.82 19.4104C66.82 19.0556 66.7636 18.7249 66.6507 18.4185C66.5378 18.112 66.3638 17.8643 66.1288 17.6754C65.8938 17.4865 65.5942 17.392 65.2302 17.392C64.8661 17.392 64.5666 17.4865 64.3316 17.6754C64.0966 17.8643 63.9226 18.112 63.8097 18.4185C63.6968 18.7249 63.6403 19.0556 63.6403 19.4104C63.6403 19.7652 63.6968 20.0947 63.8097 20.3989C63.9226 20.703 64.0966 20.9484 64.3316 21.135C64.5666 21.3217 64.8661 21.415 65.2302 21.415ZM69.6964 18.8436V22.0371H68.8808V16.7284H69.6688V17.5579H69.7379C69.8623 17.2883 70.0513 17.0717 70.3047 16.9081C70.5582 16.7422 70.8854 16.6593 71.2863 16.6593C71.6457 16.6593 71.9602 16.733 72.2298 16.8805C72.4994 17.0256 72.7091 17.2468 72.8588 17.5441C73.0086 17.839 73.0835 18.2123 73.0835 18.6639V22.0371H72.2678V18.7192C72.2678 18.3021 72.1595 17.9772 71.943 17.7445C71.7264 17.5095 71.4291 17.392 71.0513 17.392C70.7909 17.392 70.5582 17.4484 70.3531 17.5613C70.1504 17.6743 69.9902 17.839 69.8727 18.0556C69.7552 18.2722 69.6964 18.5348 69.6964 18.8436ZM82.2605 17.1708C82.1845 16.9381 82.0843 16.7296 81.9598 16.5452C81.8377 16.3586 81.6914 16.1996 81.5209 16.0683C81.3527 15.9369 81.1615 15.8367 80.9472 15.7676C80.7329 15.6985 80.4979 15.6639 80.2421 15.6639C79.8228 15.6639 79.4414 15.7722 79.0981 15.9888C78.7548 16.2054 78.4818 16.5245 78.279 16.9461C78.0762 17.3678 77.9749 17.8851 77.9749 18.498C77.9749 19.1109 78.0774 19.6281 78.2825 20.0498C78.4875 20.4715 78.7652 20.7906 79.1154 21.0072C79.4656 21.2238 79.8596 21.332 80.2974 21.332C80.703 21.332 81.0601 21.2456 81.3688 21.0728C81.6799 20.8977 81.9218 20.6512 82.0946 20.3332C82.2698 20.0129 82.3573 19.6362 82.3573 19.203L82.62 19.2583H80.491V18.498H83.1868V19.2583C83.1868 19.8413 83.0624 20.3482 82.8135 20.7791C82.567 21.2099 82.226 21.544 81.7905 21.7814C81.3573 22.0164 80.8596 22.1339 80.2974 22.1339C79.6707 22.1339 79.12 21.9864 78.6454 21.6915C78.173 21.3966 77.8044 20.9772 77.5394 20.4334C77.2767 19.8897 77.1454 19.2445 77.1454 18.498C77.1454 17.9381 77.2203 17.4346 77.37 16.9876C77.5221 16.5383 77.7364 16.1558 78.0129 15.8402C78.2894 15.5245 78.6166 15.2826 78.9944 15.1144C79.3723 14.9462 79.7882 14.8621 80.2421 14.8621C80.6154 14.8621 80.9633 14.9185 81.2859 15.0314C81.6108 15.142 81.8999 15.2999 82.1534 15.5049C82.4092 15.7077 82.6223 15.9508 82.7928 16.2342C82.9633 16.5153 83.0808 16.8275 83.1453 17.1708H82.2605ZM84.8769 22.0371V16.7284H85.6925V22.0371H84.8769ZM85.2916 15.8436C85.1326 15.8436 84.9955 15.7895 84.8803 15.6812C84.7674 15.5729 84.711 15.4427 84.711 15.2906C84.711 15.1386 84.7674 15.0084 84.8803 14.9001C84.9955 14.7918 85.1326 14.7376 85.2916 14.7376C85.4506 14.7376 85.5865 14.7918 85.6994 14.9001C85.8147 15.0084 85.8723 15.1386 85.8723 15.2906C85.8723 15.4427 85.8147 15.5729 85.6994 15.6812C85.5865 15.7895 85.4506 15.8436 85.2916 15.8436ZM89.4952 16.7284V17.4196H86.7441V16.7284H89.4952ZM87.5459 15.4565H88.3616V20.5164C88.3616 20.7468 88.395 20.9196 88.4618 21.0348C88.5309 21.1477 88.6185 21.2238 88.7245 21.2629C88.8328 21.2998 88.9468 21.3182 89.0666 21.3182C89.1565 21.3182 89.2302 21.3136 89.2878 21.3044C89.3454 21.2929 89.3915 21.2837 89.4261 21.2767L89.592 22.0095C89.5367 22.0302 89.4595 22.0509 89.3604 22.0717C89.2613 22.0947 89.1358 22.1062 88.9837 22.1062C88.7533 22.1062 88.5275 22.0567 88.3063 21.9576C88.0874 21.8585 87.9054 21.7076 87.7602 21.5049C87.6173 21.3021 87.5459 21.0463 87.5459 20.7376V15.4565ZM91.6519 18.8436V22.0371H90.8362V14.9588H91.6519V17.5579H91.721C91.8454 17.2837 92.032 17.066 92.2809 16.9047C92.532 16.7411 92.8661 16.6593 93.2832 16.6593C93.6449 16.6593 93.9617 16.7319 94.2336 16.877C94.5055 17.0199 94.7163 17.2399 94.8661 17.5372C95.0182 17.8321 95.0942 18.2077 95.0942 18.6639V22.0371H94.2786V18.7192C94.2786 18.2975 94.1691 17.9715 93.9502 17.7411C93.7336 17.5084 93.4329 17.392 93.0482 17.392C92.7809 17.392 92.5413 17.4484 92.3293 17.5613C92.1196 17.6743 91.9537 17.839 91.8316 18.0556C91.7118 18.2722 91.6519 18.5348 91.6519 18.8436ZM99.932 19.8666V16.7284H100.748V22.0371H99.932V21.1385H99.8767C99.7523 21.4081 99.5587 21.6373 99.2961 21.8263C99.0334 22.0129 98.7016 22.1062 98.3007 22.1062C97.9689 22.1062 97.674 22.0337 97.4159 21.8885C97.1579 21.741 96.9551 21.5198 96.8076 21.2249C96.6602 20.9277 96.5864 20.5533 96.5864 20.1016V16.7284H97.4021V20.0463C97.4021 20.4334 97.5104 20.7422 97.727 20.9726C97.9459 21.203 98.2247 21.3182 98.5634 21.3182C98.7661 21.3182 98.9724 21.2664 99.182 21.1627C99.394 21.059 99.5714 20.9 99.7143 20.6857C99.8594 20.4715 99.932 20.1984 99.932 19.8666ZM102.352 22.0371V14.9588H103.168V17.5717H103.237C103.297 17.4796 103.38 17.362 103.486 17.2192C103.594 17.074 103.749 16.945 103.949 16.8321C104.152 16.7169 104.426 16.6593 104.772 16.6593C105.219 16.6593 105.613 16.771 105.954 16.9945C106.295 17.218 106.561 17.5349 106.752 17.945C106.943 18.3551 107.039 18.839 107.039 19.3966C107.039 19.9588 106.943 20.4461 106.752 20.8585C106.561 21.2687 106.296 21.5867 105.957 21.8125C105.618 22.036 105.228 22.1477 104.785 22.1477C104.444 22.1477 104.171 22.0913 103.966 21.9784C103.761 21.8631 103.603 21.733 103.493 21.5878C103.382 21.4403 103.297 21.3182 103.237 21.2214H103.14V22.0371H102.352ZM103.154 19.3828C103.154 19.7837 103.213 20.1374 103.33 20.4438C103.448 20.748 103.619 20.9864 103.845 21.1592C104.071 21.3297 104.348 21.415 104.675 21.415C105.016 21.415 105.3 21.3251 105.528 21.1454C105.759 20.9634 105.932 20.7192 106.047 20.4127C106.164 20.1039 106.223 19.7606 106.223 19.3828C106.223 19.0095 106.166 18.6731 106.05 18.3736C105.937 18.0717 105.766 17.8332 105.535 17.6581C105.307 17.4807 105.02 17.392 104.675 17.392C104.343 17.392 104.064 17.4761 103.838 17.6443C103.613 17.8102 103.442 18.0429 103.327 18.3424C103.212 18.6397 103.154 18.9864 103.154 19.3828ZM111.992 14.9588V22.0371H111.134V14.9588H111.992ZM114.415 18.8436V22.0371H113.6V16.7284H114.388V17.5579H114.457C114.581 17.2883 114.77 17.0717 115.023 16.9081C115.277 16.7422 115.604 16.6593 116.005 16.6593C116.364 16.6593 116.679 16.733 116.949 16.8805C117.218 17.0256 117.428 17.2468 117.578 17.5441C117.727 17.839 117.802 18.2123 117.802 18.6639V22.0371H116.987V18.7192C116.987 18.3021 116.878 17.9772 116.662 17.7445C116.445 17.5095 116.148 17.392 115.77 17.392C115.51 17.392 115.277 17.4484 115.072 17.5613C114.869 17.6743 114.709 17.839 114.591 18.0556C114.474 18.2722 114.415 18.5348 114.415 18.8436ZM121.601 16.7284V17.4196H118.85V16.7284H121.601ZM119.652 15.4565H120.468V20.5164C120.468 20.7468 120.501 20.9196 120.568 21.0348C120.637 21.1477 120.725 21.2238 120.831 21.2629C120.939 21.2998 121.053 21.3182 121.173 21.3182C121.263 21.3182 121.336 21.3136 121.394 21.3044C121.452 21.2929 121.498 21.2837 121.532 21.2767L121.698 22.0095C121.643 22.0302 121.566 22.0509 121.467 22.0717C121.368 22.0947 121.242 22.1062 121.09 22.1062C120.86 22.1062 120.634 22.0567 120.413 21.9576C120.194 21.8585 120.012 21.7076 119.866 21.5049C119.724 21.3021 119.652 21.0463 119.652 20.7376V15.4565ZM124.997 22.1477C124.486 22.1477 124.044 22.0348 123.673 21.809C123.305 21.5809 123.02 21.2629 122.82 20.8551C122.622 20.445 122.523 19.968 122.523 19.4242C122.523 18.8805 122.622 18.4012 122.82 17.9865C123.02 17.5694 123.299 17.2445 123.656 17.0118C124.016 16.7768 124.435 16.6593 124.914 16.6593C125.191 16.6593 125.464 16.7054 125.733 16.7975C126.003 16.8897 126.248 17.0395 126.469 17.2468C126.691 17.4519 126.867 17.7238 126.998 18.0625C127.13 18.4012 127.195 18.8182 127.195 19.3136V19.6593H123.103V18.9542H126.366C126.366 18.6547 126.306 18.3874 126.186 18.1524C126.069 17.9173 125.9 17.7319 125.681 17.5959C125.465 17.46 125.209 17.392 124.914 17.392C124.589 17.392 124.308 17.4726 124.071 17.6339C123.836 17.7929 123.655 18.0003 123.528 18.256C123.402 18.5118 123.338 18.786 123.338 19.0786V19.5487C123.338 19.9496 123.407 20.2894 123.546 20.5682C123.686 20.8447 123.881 21.0556 124.13 21.2007C124.378 21.3436 124.668 21.415 124.997 21.415C125.211 21.415 125.405 21.385 125.578 21.3251C125.753 21.2629 125.904 21.1708 126.031 21.0486C126.157 20.9242 126.255 20.7698 126.324 20.5855L127.112 20.8067C127.029 21.074 126.89 21.309 126.694 21.5118C126.498 21.7122 126.256 21.8689 125.968 21.9818C125.68 22.0924 125.357 22.1477 124.997 22.1477ZM130.579 24.1385C130.185 24.1385 129.846 24.0878 129.563 23.9864C129.279 23.8873 129.043 23.756 128.854 23.5924C128.668 23.4311 128.519 23.2583 128.408 23.074L129.058 22.6177C129.132 22.7145 129.225 22.8251 129.338 22.9495C129.451 23.0763 129.605 23.1857 129.801 23.2779C129.999 23.3723 130.259 23.4196 130.579 23.4196C131.007 23.4196 131.361 23.3159 131.64 23.1085C131.919 22.9012 132.058 22.5763 132.058 22.1339V21.0556H131.989C131.929 21.1523 131.844 21.2721 131.733 21.415C131.625 21.5555 131.468 21.6811 131.263 21.7917C131.06 21.9 130.786 21.9542 130.441 21.9542C130.012 21.9542 129.627 21.8528 129.286 21.65C128.948 21.4473 128.679 21.1523 128.481 20.7652C128.285 20.3781 128.187 19.9081 128.187 19.3551C128.187 18.8113 128.283 18.3378 128.474 17.9346C128.665 17.5291 128.931 17.2157 129.272 16.9945C129.613 16.771 130.007 16.6593 130.454 16.6593C130.8 16.6593 131.074 16.7169 131.277 16.8321C131.482 16.945 131.639 17.074 131.747 17.2192C131.858 17.362 131.943 17.4796 132.003 17.5717H132.086V16.7284H132.874V22.1892C132.874 22.6454 132.77 23.0164 132.563 23.3021C132.358 23.5901 132.081 23.8009 131.733 23.9346C131.388 24.0705 131.003 24.1385 130.579 24.1385ZM130.551 21.2214C130.878 21.2214 131.155 21.1466 131.381 20.9968C131.607 20.847 131.778 20.6316 131.896 20.3505C132.013 20.0694 132.072 19.733 132.072 19.3413C132.072 18.9588 132.014 18.6212 131.899 18.3286C131.784 18.036 131.613 17.8067 131.388 17.6408C131.162 17.4749 130.883 17.392 130.551 17.392C130.206 17.392 129.918 17.4796 129.687 17.6547C129.459 17.8298 129.287 18.0648 129.172 18.3597C129.059 18.6547 129.003 18.9818 129.003 19.3413C129.003 19.7099 129.06 20.036 129.176 20.3194C129.293 20.6005 129.466 20.8217 129.694 20.983C129.925 21.142 130.21 21.2214 130.551 21.2214ZM134.367 22.0371V16.7284H135.155V17.5302H135.21C135.307 17.2676 135.482 17.0544 135.736 16.8908C135.989 16.7273 136.275 16.6455 136.593 16.6455C136.653 16.6455 136.727 16.6466 136.817 16.6489C136.907 16.6512 136.975 16.6547 137.021 16.6593V17.4888C136.994 17.4819 136.93 17.4715 136.831 17.4577C136.734 17.4415 136.632 17.4335 136.524 17.4335C136.265 17.4335 136.035 17.4876 135.832 17.5959C135.632 17.7019 135.473 17.8494 135.355 18.0383C135.24 18.2249 135.183 18.4381 135.183 18.6777V22.0371H134.367ZM139.55 22.1615C139.214 22.1615 138.909 22.0982 138.634 21.9714C138.36 21.8424 138.142 21.6569 137.981 21.415C137.82 21.1708 137.739 20.8758 137.739 20.5302C137.739 20.2261 137.799 19.9795 137.919 19.7906C138.039 19.5993 138.199 19.4496 138.399 19.3413C138.6 19.233 138.821 19.1523 139.063 19.0994C139.307 19.0441 139.553 19.0003 139.799 18.968C140.122 18.9265 140.383 18.8954 140.584 18.8747C140.786 18.8517 140.934 18.8136 141.026 18.7606C141.121 18.7076 141.168 18.6155 141.168 18.4841V18.4565C141.168 18.1155 141.074 17.8505 140.888 17.6616C140.703 17.4726 140.424 17.3782 140.048 17.3782C139.659 17.3782 139.353 17.4634 139.132 17.6339C138.911 17.8044 138.755 17.9865 138.665 18.18L137.891 17.9035C138.03 17.5809 138.214 17.3298 138.444 17.1501C138.677 16.968 138.93 16.8413 139.205 16.7699C139.481 16.6961 139.753 16.6593 140.02 16.6593C140.191 16.6593 140.387 16.68 140.608 16.7215C140.831 16.7607 141.047 16.8425 141.254 16.9669C141.464 17.0913 141.638 17.2791 141.776 17.5302C141.914 17.7814 141.983 18.1178 141.983 18.5394V22.0371H141.168V21.3182H141.126C141.071 21.4334 140.979 21.5567 140.85 21.688C140.721 21.8194 140.549 21.9311 140.335 22.0233C140.121 22.1154 139.859 22.1615 139.55 22.1615ZM139.675 21.4288C139.997 21.4288 140.269 21.3655 140.49 21.2387C140.714 21.112 140.882 20.9484 140.995 20.748C141.11 20.5475 141.168 20.3367 141.168 20.1155V19.3689C141.133 19.4104 141.057 19.4484 140.94 19.483C140.824 19.5152 140.691 19.544 140.539 19.5694C140.389 19.5924 140.243 19.6132 140.1 19.6316C139.959 19.6477 139.845 19.6616 139.758 19.6731C139.546 19.7007 139.348 19.7457 139.163 19.8079C138.981 19.8678 138.834 19.9588 138.721 20.0809C138.61 20.2007 138.555 20.3643 138.555 20.5717C138.555 20.8551 138.66 21.0694 138.869 21.2145C139.081 21.3574 139.35 21.4288 139.675 21.4288ZM145.781 16.7284V17.4196H143.03V16.7284H145.781ZM143.832 15.4565H144.647V20.5164C144.647 20.7468 144.681 20.9196 144.748 21.0348C144.817 21.1477 144.904 21.2238 145.01 21.2629C145.118 21.2998 145.233 21.3182 145.352 21.3182C145.442 21.3182 145.516 21.3136 145.574 21.3044C145.631 21.2929 145.677 21.2837 145.712 21.2767L145.878 22.0095C145.822 22.0302 145.745 22.0509 145.646 22.0717C145.547 22.0947 145.421 22.1062 145.269 22.1062C145.039 22.1062 144.813 22.0567 144.592 21.9576C144.373 21.8585 144.191 21.7076 144.046 21.5049C143.903 21.3021 143.832 21.0463 143.832 20.7376V15.4565ZM147.008 22.0371V16.7284H147.824V22.0371H147.008ZM147.423 15.8436C147.264 15.8436 147.127 15.7895 147.011 15.6812C146.898 15.5729 146.842 15.4427 146.842 15.2906C146.842 15.1386 146.898 15.0084 147.011 14.9001C147.127 14.7918 147.264 14.7376 147.423 14.7376C147.582 14.7376 147.718 14.7918 147.83 14.9001C147.946 15.0084 148.003 15.1386 148.003 15.2906C148.003 15.4427 147.946 15.5729 147.83 15.6812C147.718 15.7895 147.582 15.8436 147.423 15.8436ZM151.474 22.1477C150.995 22.1477 150.574 22.0337 150.213 21.8055C149.853 21.5774 149.572 21.2583 149.369 20.8482C149.169 20.438 149.069 19.9588 149.069 19.4104C149.069 18.8574 149.169 18.3747 149.369 17.9623C149.572 17.5498 149.853 17.2296 150.213 17.0014C150.574 16.7733 150.995 16.6593 151.474 16.6593C151.953 16.6593 152.373 16.7733 152.732 17.0014C153.094 17.2296 153.375 17.5498 153.575 17.9623C153.778 18.3747 153.88 18.8574 153.88 19.4104C153.88 19.9588 153.778 20.438 153.575 20.8482C153.375 21.2583 153.094 21.5774 152.732 21.8055C152.373 22.0337 151.953 22.1477 151.474 22.1477ZM151.474 21.415C151.838 21.415 152.138 21.3217 152.373 21.135C152.608 20.9484 152.782 20.703 152.895 20.3989C153.008 20.0947 153.064 19.7652 153.064 19.4104C153.064 19.0556 153.008 18.7249 152.895 18.4185C152.782 18.112 152.608 17.8643 152.373 17.6754C152.138 17.4865 151.838 17.392 151.474 17.392C151.11 17.392 150.811 17.4865 150.576 17.6754C150.34 17.8643 150.167 18.112 150.054 18.4185C149.941 18.7249 149.884 19.0556 149.884 19.4104C149.884 19.7652 149.941 20.0947 150.054 20.3989C150.167 20.703 150.34 20.9484 150.576 21.135C150.811 21.3217 151.11 21.415 151.474 21.415ZM155.94 18.8436V22.0371H155.125V16.7284H155.913V17.5579H155.982C156.106 17.2883 156.295 17.0717 156.549 16.9081C156.802 16.7422 157.129 16.6593 157.53 16.6593C157.89 16.6593 158.204 16.733 158.474 16.8805C158.743 17.0256 158.953 17.2468 159.103 17.5441C159.253 17.839 159.327 18.2123 159.327 18.6639V22.0371H158.512V18.7192C158.512 18.3021 158.403 17.9772 158.187 17.7445C157.97 17.5095 157.673 17.392 157.295 17.392C157.035 17.392 156.802 17.4484 156.597 17.5613C156.394 17.6743 156.234 17.839 156.117 18.0556C155.999 18.2722 155.94 18.5348 155.94 18.8436ZM168.311 14.9588H169.168V19.6454C169.168 20.1293 169.054 20.5613 168.826 20.9415C168.6 21.3194 168.281 21.6178 167.869 21.8367C167.456 22.0532 166.972 22.1615 166.417 22.1615C165.862 22.1615 165.378 22.0532 164.965 21.8367C164.553 21.6178 164.233 21.3194 164.005 20.9415C163.779 20.5613 163.666 20.1293 163.666 19.6454V14.9588H164.523V19.5763C164.523 19.9219 164.599 20.2295 164.751 20.4991C164.903 20.7664 165.12 20.9772 165.401 21.1316C165.684 21.2837 166.023 21.3597 166.417 21.3597C166.811 21.3597 167.15 21.2837 167.433 21.1316C167.716 20.9772 167.933 20.7664 168.083 20.4991C168.235 20.2295 168.311 19.9219 168.311 19.5763V14.9588ZM171.737 14.9588V22.0371H170.88V14.9588H171.737Z" fill="#858E96"/>
<circle cx="111.106" cy="68.4444" r="4.96388" fill="white"/>
<circle cx="111.106" cy="68.4443" r="4.51262" fill="#F7AE59"/>
<circle cx="103.435" cy="68.4444" r="4.96388" fill="white"/>
<circle cx="103.434" cy="68.4443" r="4.51262" fill="#8CC1FF"/>
<circle cx="95.3115" cy="68.4444" r="4.96388" fill="white"/>
<circle cx="95.3117" cy="68.4443" r="4.51262" fill="#2C435F"/>
<rect x="59.238" y="60.1787" width="23.984" height="16.3369" rx="2.60695" fill="white" stroke="#DEE2E6" stroke-width="0.347594"/>
<circle cx="70.8824" cy="68.3478" r="4.86631" stroke="#FCBE1D" stroke-width="0.695187" stroke-linecap="round" stroke-dasharray="0 13.9 0 6.95"/>
<path d="M73.2007 65.3557C72.5321 64.8376 71.7093 64.5583 70.8634 64.5625C70.0176 64.5668 69.1975 64.8542 68.5341 65.379L70.8823 68.3474L73.2007 65.3557Z" fill="#FCBE1D"/>
<path d="M68.5576 71.3396C69.2262 71.8578 70.049 72.137 70.8949 72.1328C71.7407 72.1285 72.5608 71.8411 73.2242 71.3163L70.876 68.3479L68.5576 71.3396Z" fill="#FCBE1D"/>
<rect x="36.8181" y="60.0049" width="16.6845" height="16.6845" rx="2.78075" fill="#FFEDD5"/>
<rect x="40.9893" y="64.1758" width="7.64706" height="7.64706" rx="3.47594" fill="#FFEDD5"/>
<path d="M46.9636 70.5492C46.8521 70.5492 46.7579 70.5107 46.6809 70.4337C46.6039 70.3567 46.5654 70.2624 46.5654 70.1509V65.8495C46.5654 65.7379 46.6039 65.6437 46.6809 65.5667C46.7579 65.4897 46.8521 65.4512 46.9636 65.4512C47.0752 65.4512 47.1694 65.4897 47.2464 65.5667C47.3234 65.6437 47.3619 65.7379 47.3619 65.8495V70.1509C47.3619 70.2624 47.3234 70.3567 47.2464 70.4337C47.1694 70.5107 47.0752 70.5492 46.9636 70.5492ZM42.9888 70.5492C42.9304 70.5492 42.8759 70.5386 42.8255 70.5173C42.775 70.4961 42.7325 70.4682 42.698 70.4337C42.6635 70.3992 42.6356 70.3567 42.6144 70.3063C42.5931 70.2558 42.5825 70.204 42.5825 70.1509V69.0357C42.5825 68.9242 42.621 68.83 42.698 68.7529C42.775 68.6759 42.8693 68.6374 42.9808 68.6374C43.0923 68.6374 43.1866 68.6759 43.2636 68.7529C43.3406 68.83 43.3791 68.9242 43.3791 69.0357V70.1509C43.3791 70.204 43.3685 70.2558 43.3472 70.3063C43.326 70.3567 43.2981 70.3992 43.2636 70.4337C43.2291 70.4682 43.1879 70.4961 43.1401 70.5173C43.0923 70.5386 43.0419 70.5492 42.9888 70.5492ZM44.9722 70.5492C44.8607 70.5492 44.7664 70.5107 44.6894 70.4337C44.6124 70.3567 44.5739 70.2624 44.5739 70.1509V67.4426C44.5739 67.3311 44.6124 67.2368 44.6894 67.1598C44.7664 67.0828 44.8607 67.0443 44.9722 67.0443C45.0837 67.0443 45.178 67.0828 45.255 67.1598C45.332 67.2368 45.3705 67.3311 45.3705 67.4426V70.1509C45.3705 70.2624 45.332 70.3567 45.255 70.4337C45.178 70.5107 45.0837 70.5492 44.9722 70.5492Z" fill="#FF6B00"/>
</g>
<rect x="36" y="31" width="237" height="5" rx="2.5" fill="#EBEBEB"/>
<rect x="36" y="42" width="237" height="5" rx="2.5" fill="#E2E2E2"/>
<g filter="url(#filter1_d_1295_41552)">
<rect x="3" y="27" width="260" height="84.1176" rx="5.5615" fill="white"/>
<path d="M19.6253 38.9588H20.4824V43.6454C20.4824 44.1293 20.3684 44.5613 20.1403 44.9415C19.9145 45.3194 19.5953 45.6178 19.1829 45.8367C18.7705 46.0532 18.2866 46.1615 17.7313 46.1615C17.176 46.1615 16.6921 46.0532 16.2797 45.8367C15.8673 45.6178 15.547 45.3194 15.3189 44.9415C15.0931 44.5613 14.9802 44.1293 14.9802 43.6454V38.9588H15.8373V43.5763C15.8373 43.9219 15.9134 44.2295 16.0654 44.4991C16.2175 44.7664 16.4341 44.9772 16.7152 45.1316C16.9986 45.2837 17.3373 45.3597 17.7313 45.3597C18.1253 45.3597 18.464 45.2837 18.7474 45.1316C19.0308 44.9772 19.2474 44.7664 19.3972 44.4991C19.5493 44.2295 19.6253 43.9219 19.6253 43.5763V38.9588ZM22.0835 48.0279V40.7284H22.8715V41.5717H22.9683C23.0282 41.4796 23.1111 41.362 23.2171 41.2192C23.3254 41.074 23.4798 40.945 23.6803 40.8321C23.883 40.7169 24.1572 40.6593 24.5028 40.6593C24.9498 40.6593 25.3438 40.771 25.6849 40.9945C26.0259 41.218 26.292 41.5349 26.4832 41.945C26.6745 42.3551 26.7701 42.839 26.7701 43.3966C26.7701 43.9588 26.6745 44.4461 26.4832 44.8585C26.292 45.2687 26.027 45.5867 25.6883 45.8125C25.3496 46.036 24.9591 46.1477 24.5167 46.1477C24.1757 46.1477 23.9026 46.0913 23.6975 45.9784C23.4925 45.8631 23.3346 45.733 23.224 45.5878C23.1135 45.4403 23.0282 45.3182 22.9683 45.2214H22.8992V48.0279H22.0835ZM22.8853 43.3828C22.8853 43.7837 22.9441 44.1374 23.0616 44.4438C23.1791 44.748 23.3508 44.9864 23.5766 45.1592C23.8024 45.3297 24.0789 45.415 24.4061 45.415C24.7471 45.415 25.0316 45.3251 25.2597 45.1454C25.4902 44.9634 25.663 44.7192 25.7782 44.4127C25.8957 44.1039 25.9544 43.7606 25.9544 43.3828C25.9544 43.0095 25.8968 42.6731 25.7816 42.3736C25.6687 42.0717 25.4971 41.8332 25.2667 41.6581C25.0385 41.4807 24.7517 41.392 24.4061 41.392C24.0743 41.392 23.7955 41.4761 23.5697 41.6443C23.3439 41.8102 23.1734 42.0429 23.0582 42.3424C22.9429 42.6397 22.8853 42.9864 22.8853 43.3828ZM30.0189 46.1477C29.5765 46.1477 29.186 46.036 28.8473 45.8125C28.5086 45.5867 28.2436 45.2687 28.0523 44.8585C27.8611 44.4461 27.7655 43.9588 27.7655 43.3966C27.7655 42.839 27.8611 42.3551 28.0523 41.945C28.2436 41.5349 28.5097 41.218 28.8507 40.9945C29.1917 40.771 29.5857 40.6593 30.0327 40.6593C30.3784 40.6593 30.6514 40.7169 30.8519 40.8321C31.0546 40.945 31.209 41.074 31.315 41.2192C31.4233 41.362 31.5074 41.4796 31.5673 41.5717H31.6364V38.9588H32.4521V46.0371H31.6641V45.2214H31.5673C31.5074 45.3182 31.4221 45.4403 31.3115 45.5878C31.2009 45.733 31.0431 45.8631 30.838 45.9784C30.633 46.0913 30.3599 46.1477 30.0189 46.1477ZM30.1295 45.415C30.4567 45.415 30.7332 45.3297 30.959 45.1592C31.1848 44.9864 31.3565 44.748 31.474 44.4438C31.5915 44.1374 31.6502 43.7837 31.6502 43.3828C31.6502 42.9864 31.5926 42.6397 31.4774 42.3424C31.3622 42.0429 31.1917 41.8102 30.9659 41.6443C30.7401 41.4761 30.4613 41.392 30.1295 41.392C29.7839 41.392 29.4959 41.4807 29.2655 41.6581C29.0374 41.8332 28.8657 42.0717 28.7505 42.3736C28.6376 42.6731 28.5811 43.0095 28.5811 43.3828C28.5811 43.7606 28.6387 44.1039 28.7539 44.4127C28.8715 44.7192 29.0443 44.9634 29.2724 45.1454C29.5028 45.3251 29.7885 45.415 30.1295 45.415ZM35.6214 46.1615C35.285 46.1615 34.9797 46.0982 34.7055 45.9714C34.4313 45.8424 34.2136 45.6569 34.0523 45.415C33.891 45.1708 33.8103 44.8758 33.8103 44.5302C33.8103 44.2261 33.8703 43.9795 33.9901 43.7906C34.1099 43.5993 34.27 43.4496 34.4705 43.3413C34.6709 43.233 34.8921 43.1523 35.1341 43.0994C35.3783 43.0441 35.6237 43.0003 35.8702 42.968C36.1928 42.9265 36.4543 42.8954 36.6548 42.8747C36.8576 42.8517 37.005 42.8136 37.0972 42.7606C37.1916 42.7076 37.2389 42.6155 37.2389 42.4841V42.4565C37.2389 42.1155 37.1456 41.8505 36.9589 41.6616C36.7746 41.4726 36.4947 41.3782 36.1191 41.3782C35.7297 41.3782 35.4244 41.4634 35.2032 41.6339C34.982 41.8044 34.8265 41.9865 34.7366 42.18L33.9624 41.9035C34.1007 41.5809 34.285 41.3298 34.5154 41.1501C34.7481 40.968 35.0016 40.8413 35.2758 40.7699C35.5523 40.6961 35.8242 40.6593 36.0914 40.6593C36.2619 40.6593 36.4578 40.68 36.679 40.7215C36.9025 40.7607 37.1179 40.8425 37.3253 40.9669C37.535 41.0913 37.7089 41.2791 37.8472 41.5302C37.9854 41.7814 38.0545 42.1178 38.0545 42.5394V46.0371H37.2389V45.3182H37.1974C37.1421 45.4334 37.0499 45.5567 36.9209 45.688C36.7919 45.8194 36.6202 45.9311 36.4059 46.0233C36.1917 46.1154 35.9301 46.1615 35.6214 46.1615ZM35.7458 45.4288C36.0684 45.4288 36.3403 45.3655 36.5615 45.2387C36.785 45.112 36.9532 44.9484 37.0661 44.748C37.1813 44.5475 37.2389 44.3367 37.2389 44.1155V43.3689C37.2043 43.4104 37.1283 43.4484 37.0108 43.483C36.8956 43.5152 36.7619 43.544 36.6099 43.5694C36.4601 43.5924 36.3138 43.6132 36.1709 43.6316C36.0304 43.6477 35.9163 43.6616 35.8288 43.6731C35.6168 43.7007 35.4186 43.7457 35.2343 43.8079C35.0523 43.8678 34.9048 43.9588 34.7919 44.0809C34.6813 44.2007 34.626 44.3643 34.626 44.5717C34.626 44.8551 34.7308 45.0694 34.9405 45.2145C35.1525 45.3574 35.4209 45.4288 35.7458 45.4288ZM41.852 40.7284V41.4196H39.1009V40.7284H41.852ZM39.9027 39.4565H40.7184V44.5164C40.7184 44.7468 40.7518 44.9196 40.8186 45.0348C40.8878 45.1477 40.9753 45.2238 41.0813 45.2629C41.1896 45.2998 41.3036 45.3182 41.4235 45.3182C41.5133 45.3182 41.5871 45.3136 41.6447 45.3044C41.7023 45.2929 41.7483 45.2837 41.7829 45.2767L41.9488 46.0095C41.8935 46.0302 41.8163 46.0509 41.7172 46.0717C41.6182 46.0947 41.4926 46.1062 41.3405 46.1062C41.1101 46.1062 40.8843 46.0567 40.6631 45.9576C40.4442 45.8585 40.2622 45.7076 40.117 45.5049C39.9742 45.3021 39.9027 45.0463 39.9027 44.7376V39.4565ZM45.2477 46.1477C44.7362 46.1477 44.295 46.0348 43.924 45.809C43.5554 45.5809 43.2708 45.2629 43.0703 44.8551C42.8722 44.445 42.7731 43.968 42.7731 43.4242C42.7731 42.8805 42.8722 42.4012 43.0703 41.9865C43.2708 41.5694 43.5496 41.2445 43.9067 41.0118C44.2662 40.7768 44.6855 40.6593 45.1648 40.6593C45.4413 40.6593 45.7143 40.7054 45.9839 40.7975C46.2535 40.8897 46.4989 41.0395 46.7201 41.2468C46.9413 41.4519 47.1175 41.7238 47.2489 42.0625C47.3802 42.4012 47.4459 42.8182 47.4459 43.3136V43.6593H43.3537V42.9542H46.6164C46.6164 42.6547 46.5565 42.3874 46.4367 42.1524C46.3191 41.9173 46.1509 41.7319 45.9321 41.5959C45.7155 41.46 45.4597 41.392 45.1648 41.392C44.8399 41.392 44.5588 41.4726 44.3215 41.6339C44.0865 41.7929 43.9056 42.0003 43.7789 42.256C43.6521 42.5118 43.5888 42.786 43.5888 43.0786V43.5487C43.5888 43.9496 43.6579 44.2894 43.7961 44.5682C43.9367 44.8447 44.1314 45.0556 44.3802 45.2007C44.6291 45.3436 44.9182 45.415 45.2477 45.415C45.462 45.415 45.6556 45.385 45.8284 45.3251C46.0035 45.2629 46.1544 45.1708 46.2811 45.0486C46.4079 44.9242 46.5058 44.7698 46.5749 44.5855L47.3629 44.8067C47.28 45.074 47.1406 45.309 46.9447 45.5118C46.7489 45.7122 46.5069 45.8689 46.2189 45.9818C45.9309 46.0924 45.6072 46.1477 45.2477 46.1477ZM53.7327 40.7284V41.4196H50.9815V40.7284H53.7327ZM51.7834 39.4565H52.599V44.5164C52.599 44.7468 52.6324 44.9196 52.6993 45.0348C52.7684 45.1477 52.8559 45.2238 52.9619 45.2629C53.0702 45.2998 53.1843 45.3182 53.3041 45.3182C53.394 45.3182 53.4677 45.3136 53.5253 45.3044C53.5829 45.2929 53.629 45.2837 53.6635 45.2767L53.8294 46.0095C53.7741 46.0302 53.697 46.0509 53.5979 46.0717C53.4988 46.0947 53.3732 46.1062 53.2212 46.1062C52.9907 46.1062 52.7649 46.0567 52.5437 45.9576C52.3248 45.8585 52.1428 45.7076 51.9977 45.5049C51.8548 45.3021 51.7834 45.0463 51.7834 44.7376V39.4565ZM55.8893 42.8436V46.0371H55.0737V38.9588H55.8893V41.5579H55.9585C56.0829 41.2837 56.2695 41.066 56.5184 40.9047C56.7695 40.7411 57.1036 40.6593 57.5206 40.6593C57.8824 40.6593 58.1992 40.7319 58.4711 40.877C58.743 41.0199 58.9538 41.2399 59.1036 41.5372C59.2557 41.8321 59.3317 42.2077 59.3317 42.6639V46.0371H58.516V42.7192C58.516 42.2975 58.4066 41.9715 58.1877 41.7411C57.9711 41.5084 57.6704 41.392 57.2856 41.392C57.0184 41.392 56.7787 41.4484 56.5667 41.5613C56.3571 41.6743 56.1912 41.839 56.0691 42.0556C55.9492 42.2722 55.8893 42.5348 55.8893 42.8436ZM63.0497 46.1477C62.5382 46.1477 62.0969 46.0348 61.726 45.809C61.3573 45.5809 61.0727 45.2629 60.8723 44.8551C60.6741 44.445 60.5751 43.968 60.5751 43.4242C60.5751 42.8805 60.6741 42.4012 60.8723 41.9865C61.0727 41.5694 61.3515 41.2445 61.7087 41.0118C62.0681 40.7768 62.4875 40.6593 62.9667 40.6593C63.2432 40.6593 63.5163 40.7054 63.7858 40.7975C64.0554 40.8897 64.3008 41.0395 64.522 41.2468C64.7432 41.4519 64.9195 41.7238 65.0508 42.0625C65.1821 42.4012 65.2478 42.8182 65.2478 43.3136V43.6593H61.1557V42.9542H64.4183C64.4183 42.6547 64.3584 42.3874 64.2386 42.1524C64.1211 41.9173 63.9529 41.7319 63.734 41.5959C63.5174 41.46 63.2617 41.392 62.9667 41.392C62.6419 41.392 62.3607 41.4726 62.1234 41.6339C61.8884 41.7929 61.7075 42.0003 61.5808 42.256C61.4541 42.5118 61.3907 42.786 61.3907 43.0786V43.5487C61.3907 43.9496 61.4598 44.2894 61.5981 44.5682C61.7386 44.8447 61.9333 45.0556 62.1822 45.2007C62.431 45.3436 62.7202 45.415 63.0497 45.415C63.264 45.415 63.4575 45.385 63.6303 45.3251C63.8054 45.2629 63.9564 45.1708 64.0831 45.0486C64.2098 44.9242 64.3077 44.7698 64.3769 44.5855L65.1649 44.8067C65.0819 45.074 64.9425 45.309 64.7467 45.5118C64.5508 45.7122 64.3089 45.8689 64.0209 45.9818C63.7329 46.0924 63.4091 46.1477 63.0497 46.1477ZM71.2305 46.1477C70.7881 46.1477 70.3975 46.036 70.0588 45.8125C69.7201 45.5867 69.4551 45.2687 69.2639 44.8585C69.0727 44.4461 68.977 43.9588 68.977 43.3966C68.977 42.839 69.0727 42.3551 69.2639 41.945C69.4551 41.5349 69.7213 41.218 70.0623 40.9945C70.4033 40.771 70.7973 40.6593 71.2443 40.6593C71.5899 40.6593 71.863 40.7169 72.0634 40.8321C72.2662 40.945 72.4206 41.074 72.5265 41.2192C72.6348 41.362 72.7189 41.4796 72.7788 41.5717H72.848V38.9588H73.6636V46.0371H72.8756V45.2214H72.7788C72.7189 45.3182 72.6337 45.4403 72.5231 45.5878C72.4125 45.733 72.2547 45.8631 72.0496 45.9784C71.8445 46.0913 71.5715 46.1477 71.2305 46.1477ZM71.3411 45.415C71.6683 45.415 71.9448 45.3297 72.1706 45.1592C72.3964 44.9864 72.568 44.748 72.6855 44.4438C72.803 44.1374 72.8618 43.7837 72.8618 43.3828C72.8618 42.9864 72.8042 42.6397 72.689 42.3424C72.5738 42.0429 72.4033 41.8102 72.1775 41.6443C71.9517 41.4761 71.6729 41.392 71.3411 41.392C70.9955 41.392 70.7074 41.4807 70.477 41.6581C70.2489 41.8332 70.0773 42.0717 69.9621 42.3736C69.8492 42.6731 69.7927 43.0095 69.7927 43.3828C69.7927 43.7606 69.8503 44.1039 69.9655 44.4127C70.083 44.7192 70.2558 44.9634 70.4839 45.1454C70.7144 45.3251 71.0001 45.415 71.3411 45.415ZM77.4965 46.1477C76.985 46.1477 76.5438 46.0348 76.1728 45.809C75.8042 45.5809 75.5196 45.2629 75.3191 44.8551C75.121 44.445 75.0219 43.968 75.0219 43.4242C75.0219 42.8805 75.121 42.4012 75.3191 41.9865C75.5196 41.5694 75.7984 41.2445 76.1555 41.0118C76.515 40.7768 76.9343 40.6593 77.4136 40.6593C77.6901 40.6593 77.9631 40.7054 78.2327 40.7975C78.5023 40.8897 78.7477 41.0395 78.9689 41.2468C79.1901 41.4519 79.3663 41.7238 79.4977 42.0625C79.629 42.4012 79.6947 42.8182 79.6947 43.3136V43.6593H75.6025V42.9542H78.8652C78.8652 42.6547 78.8053 42.3874 78.6855 42.1524C78.568 41.9173 78.3998 41.7319 78.1809 41.5959C77.9643 41.46 77.7085 41.392 77.4136 41.392C77.0887 41.392 76.8076 41.4726 76.5703 41.6339C76.3353 41.7929 76.1544 42.0003 76.0277 42.256C75.9009 42.5118 75.8376 42.786 75.8376 43.0786V43.5487C75.8376 43.9496 75.9067 44.2894 76.0449 44.5682C76.1855 44.8447 76.3802 45.0556 76.629 45.2007C76.8779 45.3436 77.1671 45.415 77.4965 45.415C77.7108 45.415 77.9044 45.385 78.0772 45.3251C78.2523 45.2629 78.4032 45.1708 78.5299 45.0486C78.6567 44.9242 78.7546 44.7698 78.8237 44.5855L79.6117 44.8067C79.5288 45.074 79.3894 45.309 79.1935 45.5118C78.9977 45.7122 78.7557 45.8689 78.4677 45.9818C78.1797 46.0924 77.856 46.1477 77.4965 46.1477ZM84.6958 41.9173L83.9631 42.1247C83.917 42.0026 83.849 41.8839 83.7592 41.7687C83.6716 41.6512 83.5518 41.5544 83.3997 41.4784C83.2476 41.4024 83.0529 41.3643 82.8156 41.3643C82.4907 41.3643 82.22 41.4392 82.0034 41.589C81.7891 41.7365 81.682 41.9242 81.682 42.1524C81.682 42.3551 81.7557 42.5153 81.9032 42.6328C82.0506 42.7503 82.2811 42.8482 82.5944 42.9265L83.3824 43.1201C83.8571 43.2353 84.2108 43.4116 84.4435 43.6489C84.6762 43.8839 84.7926 44.1869 84.7926 44.5579C84.7926 44.862 84.705 45.1339 84.5299 45.3735C84.3571 45.6132 84.1151 45.8021 83.8041 45.9403C83.493 46.0786 83.1313 46.1477 82.7188 46.1477C82.1774 46.1477 81.7292 46.0302 81.3744 45.7952C81.0195 45.5602 80.7949 45.2168 80.7004 44.7652L81.4746 44.5717C81.5483 44.8574 81.6877 45.0717 81.8928 45.2145C82.1002 45.3574 82.3709 45.4288 82.705 45.4288C83.0852 45.4288 83.387 45.3482 83.6105 45.1869C83.8363 45.0233 83.9492 44.8274 83.9492 44.5993C83.9492 44.415 83.8847 44.2606 83.7557 44.1362C83.6267 44.0095 83.4285 43.915 83.1612 43.8528L82.2764 43.6454C81.7903 43.5302 81.4331 43.3517 81.205 43.1097C80.9792 42.8655 80.8663 42.5602 80.8663 42.1938C80.8663 41.8943 80.9504 41.6293 81.1186 41.3989C81.2891 41.1685 81.5207 40.9876 81.8133 40.8563C82.1082 40.725 82.4423 40.6593 82.8156 40.6593C83.341 40.6593 83.7534 40.7745 84.0529 41.0049C84.3548 41.2353 84.5691 41.5395 84.6958 41.9173ZM86.0204 46.0371V40.7284H86.836V46.0371H86.0204ZM86.4351 39.8436C86.2761 39.8436 86.139 39.7895 86.0238 39.6812C85.9109 39.5729 85.8545 39.4427 85.8545 39.2906C85.8545 39.1386 85.9109 39.0084 86.0238 38.9001C86.139 38.7918 86.2761 38.7376 86.4351 38.7376C86.5941 38.7376 86.73 38.7918 86.8429 38.9001C86.9581 39.0084 87.0157 39.1386 87.0157 39.2906C87.0157 39.4427 86.9581 39.5729 86.8429 39.6812C86.73 39.7895 86.5941 39.8436 86.4351 39.8436ZM90.4728 48.1385C90.0788 48.1385 89.7401 48.0878 89.4567 47.9864C89.1733 47.8873 88.9371 47.756 88.7482 47.5924C88.5615 47.4311 88.4129 47.2583 88.3023 47.074L88.9521 46.6177C89.0258 46.7145 89.1191 46.8251 89.232 46.9495C89.3449 47.0763 89.4993 47.1857 89.6951 47.2779C89.8933 47.3723 90.1525 47.4196 90.4728 47.4196C90.9014 47.4196 91.255 47.3159 91.5338 47.1085C91.8126 46.9012 91.952 46.5763 91.952 46.1339V45.0556H91.8829C91.823 45.1523 91.7378 45.2721 91.6272 45.415C91.5189 45.5555 91.3622 45.6811 91.1571 45.7917C90.9544 45.9 90.6802 45.9542 90.3345 45.9542C89.906 45.9542 89.5212 45.8528 89.1802 45.65C88.8415 45.4473 88.573 45.1523 88.3749 44.7652C88.179 44.3781 88.0811 43.9081 88.0811 43.3551C88.0811 42.8113 88.1767 42.3378 88.368 41.9346C88.5592 41.5291 88.8253 41.2157 89.1664 40.9945C89.5074 40.771 89.9014 40.6593 90.3484 40.6593C90.694 40.6593 90.9682 40.7169 91.1709 40.8321C91.376 40.945 91.5327 41.074 91.641 41.2192C91.7516 41.362 91.8368 41.4796 91.8967 41.5717H91.9797V40.7284H92.7677V46.1892C92.7677 46.6454 92.664 47.0164 92.4566 47.3021C92.2516 47.5901 91.9751 47.8009 91.6272 47.9346C91.2815 48.0705 90.8968 48.1385 90.4728 48.1385ZM90.4451 45.2214C90.7723 45.2214 91.0488 45.1466 91.2746 44.9968C91.5004 44.847 91.6721 44.6316 91.7896 44.3505C91.9071 44.0694 91.9659 43.733 91.9659 43.3413C91.9659 42.9588 91.9083 42.6212 91.7931 42.3286C91.6778 42.036 91.5073 41.8067 91.2815 41.6408C91.0557 41.4749 90.7769 41.392 90.4451 41.392C90.0995 41.392 89.8115 41.4796 89.5811 41.6547C89.353 41.8298 89.1813 42.0648 89.0661 42.3597C88.9532 42.6547 88.8968 42.9818 88.8968 43.3413C88.8968 43.7099 88.9544 44.036 89.0696 44.3194C89.1871 44.6005 89.3599 44.8217 89.588 44.983C89.8184 45.142 90.1041 45.2214 90.4451 45.2214ZM95.0764 42.8436V46.0371H94.2608V40.7284H95.0488V41.5579H95.1179C95.2423 41.2883 95.4313 41.0717 95.6847 40.9081C95.9382 40.7422 96.2654 40.6593 96.6663 40.6593C97.0257 40.6593 97.3402 40.733 97.6098 40.8805C97.8794 41.0256 98.0891 41.2468 98.2388 41.5441C98.3886 41.839 98.4635 42.2123 98.4635 42.6639V46.0371H97.6478V42.7192C97.6478 42.3021 97.5395 41.9772 97.323 41.7445C97.1064 41.5095 96.8091 41.392 96.4313 41.392C96.1709 41.392 95.9382 41.4484 95.7331 41.5613C95.5303 41.6743 95.3702 41.839 95.2527 42.0556C95.1352 42.2722 95.0764 42.5348 95.0764 42.8436ZM103.714 41.9173L102.982 42.1247C102.936 42.0026 102.868 41.8839 102.778 41.7687C102.69 41.6512 102.57 41.5544 102.418 41.4784C102.266 41.4024 102.071 41.3643 101.834 41.3643C101.509 41.3643 101.239 41.4392 101.022 41.589C100.808 41.7365 100.701 41.9242 100.701 42.1524C100.701 42.3551 100.774 42.5153 100.922 42.6328C101.069 42.7503 101.3 42.8482 101.613 42.9265L102.401 43.1201C102.876 43.2353 103.229 43.4116 103.462 43.6489C103.695 43.8839 103.811 44.1869 103.811 44.5579C103.811 44.862 103.724 45.1339 103.548 45.3735C103.376 45.6132 103.134 45.8021 102.823 45.9403C102.512 46.0786 102.15 46.1477 101.737 46.1477C101.196 46.1477 100.748 46.0302 100.393 45.7952C100.038 45.5602 99.8134 45.2168 99.719 44.7652L100.493 44.5717C100.567 44.8574 100.706 45.0717 100.911 45.2145C101.119 45.3574 101.389 45.4288 101.724 45.4288C102.104 45.4288 102.406 45.3482 102.629 45.1869C102.855 45.0233 102.968 44.8274 102.968 44.5993C102.968 44.415 102.903 44.2606 102.774 44.1362C102.645 44.0095 102.447 43.915 102.18 43.8528L101.295 43.6454C100.809 43.5302 100.452 43.3517 100.224 43.1097C99.9978 42.8655 99.8848 42.5602 99.8848 42.1938C99.8848 41.8943 99.9689 41.6293 100.137 41.3989C100.308 41.1685 100.539 40.9876 100.832 40.8563C101.127 40.725 101.461 40.6593 101.834 40.6593C102.359 40.6593 102.772 40.7745 103.071 41.0049C103.373 41.2353 103.588 41.5395 103.714 41.9173ZM109.933 46.1477C109.454 46.1477 109.033 46.0337 108.671 45.8055C108.312 45.5774 108.031 45.2583 107.828 44.8482C107.628 44.438 107.527 43.9588 107.527 43.4104C107.527 42.8574 107.628 42.3747 107.828 41.9623C108.031 41.5498 108.312 41.2296 108.671 41.0014C109.033 40.7733 109.454 40.6593 109.933 40.6593C110.412 40.6593 110.831 40.7733 111.191 41.0014C111.553 41.2296 111.834 41.5498 112.034 41.9623C112.237 42.3747 112.338 42.8574 112.338 43.4104C112.338 43.9588 112.237 44.438 112.034 44.8482C111.834 45.2583 111.553 45.5774 111.191 45.8055C110.831 46.0337 110.412 46.1477 109.933 46.1477ZM109.933 45.415C110.297 45.415 110.596 45.3217 110.831 45.135C111.066 44.9484 111.24 44.703 111.353 44.3989C111.466 44.0947 111.523 43.7652 111.523 43.4104C111.523 43.0556 111.466 42.7249 111.353 42.4185C111.24 42.112 111.066 41.8643 110.831 41.6754C110.596 41.4865 110.297 41.392 109.933 41.392C109.569 41.392 109.269 41.4865 109.034 41.6754C108.799 41.8643 108.625 42.112 108.512 42.4185C108.399 42.7249 108.343 43.0556 108.343 43.4104C108.343 43.7652 108.399 44.0947 108.512 44.3989C108.625 44.703 108.799 44.9484 109.034 45.135C109.269 45.3217 109.569 45.415 109.933 45.415ZM115.947 40.7284V41.4196H113.086V40.7284H115.947ZM113.943 46.0371V39.9957C113.943 39.6916 114.014 39.4381 114.157 39.2353C114.3 39.0326 114.486 38.8805 114.714 38.7791C114.942 38.6777 115.183 38.627 115.436 38.627C115.636 38.627 115.8 38.6432 115.927 38.6754C116.053 38.7077 116.148 38.7376 116.21 38.7653L115.975 39.4704C115.934 39.4565 115.876 39.4392 115.802 39.4185C115.731 39.3978 115.636 39.3874 115.519 39.3874C115.249 39.3874 115.055 39.4554 114.935 39.5913C114.817 39.7273 114.759 39.9266 114.759 40.1892V46.0371H113.943ZM119.939 46.0371V38.9588H120.796V42.4703H120.879L124.058 38.9588H125.178L122.206 42.1524L125.178 46.0371H124.141L121.68 42.7468L120.796 43.7422V46.0371H119.939ZM127.739 46.1615C127.403 46.1615 127.097 46.0982 126.823 45.9714C126.549 45.8424 126.331 45.6569 126.17 45.415C126.009 45.1708 125.928 44.8758 125.928 44.5302C125.928 44.2261 125.988 43.9795 126.108 43.7906C126.228 43.5993 126.388 43.4496 126.588 43.3413C126.789 43.233 127.01 43.1523 127.252 43.0994C127.496 43.0441 127.741 43.0003 127.988 42.968C128.311 42.9265 128.572 42.8954 128.773 42.8747C128.975 42.8517 129.123 42.8136 129.215 42.7606C129.309 42.7076 129.357 42.6155 129.357 42.4841V42.4565C129.357 42.1155 129.263 41.8505 129.077 41.6616C128.892 41.4726 128.612 41.3782 128.237 41.3782C127.847 41.3782 127.542 41.4634 127.321 41.6339C127.1 41.8044 126.944 41.9865 126.854 42.18L126.08 41.9035C126.218 41.5809 126.403 41.3298 126.633 41.1501C126.866 40.968 127.119 40.8413 127.393 40.7699C127.67 40.6961 127.942 40.6593 128.209 40.6593C128.38 40.6593 128.576 40.68 128.797 40.7215C129.02 40.7607 129.236 40.8425 129.443 40.9669C129.653 41.0913 129.827 41.2791 129.965 41.5302C130.103 41.7814 130.172 42.1178 130.172 42.5394V46.0371H129.357V45.3182H129.315C129.26 45.4334 129.168 45.5567 129.039 45.688C128.91 45.8194 128.738 45.9311 128.524 46.0233C128.309 46.1154 128.048 46.1615 127.739 46.1615ZM127.864 45.4288C128.186 45.4288 128.458 45.3655 128.679 45.2387C128.903 45.112 129.071 44.9484 129.184 44.748C129.299 44.5475 129.357 44.3367 129.357 44.1155V43.3689C129.322 43.4104 129.246 43.4484 129.129 43.483C129.013 43.5152 128.88 43.544 128.728 43.5694C128.578 43.5924 128.432 43.6132 128.289 43.6316C128.148 43.6477 128.034 43.6616 127.946 43.6731C127.735 43.7007 127.536 43.7457 127.352 43.8079C127.17 43.8678 127.023 43.9588 126.91 44.0809C126.799 44.2007 126.744 44.3643 126.744 44.5717C126.744 44.8551 126.849 45.0694 127.058 45.2145C127.27 45.3574 127.539 45.4288 127.864 45.4288ZM132.477 42.8436V46.0371H131.661V40.7284H132.449V41.5579H132.518C132.643 41.2883 132.832 41.0717 133.085 40.9081C133.338 40.7422 133.666 40.6593 134.067 40.6593C134.426 40.6593 134.74 40.733 135.01 40.8805C135.28 41.0256 135.489 41.2468 135.639 41.5441C135.789 41.839 135.864 42.2123 135.864 42.6639V46.0371H135.048V42.7192C135.048 42.3021 134.94 41.9772 134.723 41.7445C134.507 41.5095 134.209 41.392 133.832 41.392C133.571 41.392 133.338 41.4484 133.133 41.5613C132.931 41.6743 132.77 41.839 132.653 42.0556C132.535 42.2722 132.477 42.5348 132.477 42.8436ZM137.465 46.0371V38.9588H138.28V41.5717H138.35C138.41 41.4796 138.492 41.362 138.598 41.2192C138.707 41.074 138.861 40.945 139.062 40.8321C139.264 40.7169 139.539 40.6593 139.884 40.6593C140.331 40.6593 140.725 40.771 141.066 40.9945C141.407 41.218 141.673 41.5349 141.865 41.945C142.056 42.3551 142.151 42.839 142.151 43.3966C142.151 43.9588 142.056 44.4461 141.865 44.8585C141.673 45.2687 141.408 45.5867 141.07 45.8125C140.731 46.036 140.34 46.1477 139.898 46.1477C139.557 46.1477 139.284 46.0913 139.079 45.9784C138.874 45.8631 138.716 45.733 138.605 45.5878C138.495 45.4403 138.41 45.3182 138.35 45.2214H138.253V46.0371H137.465ZM138.267 43.3828C138.267 43.7837 138.325 44.1374 138.443 44.4438C138.56 44.748 138.732 44.9864 138.958 45.1592C139.184 45.3297 139.46 45.415 139.787 45.415C140.128 45.415 140.413 45.3251 140.641 45.1454C140.871 44.9634 141.044 44.7192 141.159 44.4127C141.277 44.1039 141.336 43.7606 141.336 43.3828C141.336 43.0095 141.278 42.6731 141.163 42.3736C141.05 42.0717 140.878 41.8332 140.648 41.6581C140.42 41.4807 140.133 41.392 139.787 41.392C139.456 41.392 139.177 41.4761 138.951 41.6443C138.725 41.8102 138.555 42.0429 138.439 42.3424C138.324 42.6397 138.267 42.9864 138.267 43.3828ZM144.961 46.1615C144.625 46.1615 144.32 46.0982 144.045 45.9714C143.771 45.8424 143.553 45.6569 143.392 45.415C143.231 45.1708 143.15 44.8758 143.15 44.5302C143.15 44.2261 143.21 43.9795 143.33 43.7906C143.45 43.5993 143.61 43.4496 143.81 43.3413C144.011 43.233 144.232 43.1523 144.474 43.0994C144.718 43.0441 144.964 43.0003 145.21 42.968C145.533 42.9265 145.794 42.8954 145.995 42.8747C146.197 42.8517 146.345 42.8136 146.437 42.7606C146.532 42.7076 146.579 42.6155 146.579 42.4841V42.4565C146.579 42.1155 146.485 41.8505 146.299 41.6616C146.115 41.4726 145.835 41.3782 145.459 41.3782C145.07 41.3782 144.764 41.4634 144.543 41.6339C144.322 41.8044 144.166 41.9865 144.077 42.18L143.302 41.9035C143.441 41.5809 143.625 41.3298 143.855 41.1501C144.088 40.968 144.341 40.8413 144.616 40.7699C144.892 40.6961 145.164 40.6593 145.431 40.6593C145.602 40.6593 145.798 40.68 146.019 40.7215C146.242 40.7607 146.458 40.8425 146.665 40.9669C146.875 41.0913 147.049 41.2791 147.187 41.5302C147.325 41.7814 147.394 42.1178 147.394 42.5394V46.0371H146.579V45.3182H146.537C146.482 45.4334 146.39 45.5567 146.261 45.688C146.132 45.8194 145.96 45.9311 145.746 46.0233C145.532 46.1154 145.27 46.1615 144.961 46.1615ZM145.086 45.4288C145.408 45.4288 145.68 45.3655 145.901 45.2387C146.125 45.112 146.293 44.9484 146.406 44.748C146.521 44.5475 146.579 44.3367 146.579 44.1155V43.3689C146.544 43.4104 146.468 43.4484 146.351 43.483C146.235 43.5152 146.102 43.544 145.95 43.5694C145.8 43.5924 145.654 43.6132 145.511 43.6316C145.37 43.6477 145.256 43.6616 145.169 43.6731C144.957 43.7007 144.759 43.7457 144.574 43.8079C144.392 43.8678 144.245 43.9588 144.132 44.0809C144.021 44.2007 143.966 44.3643 143.966 44.5717C143.966 44.8551 144.071 45.0694 144.28 45.2145C144.492 45.3574 144.761 45.4288 145.086 45.4288ZM149.699 42.8436V46.0371H148.883V40.7284H149.671V41.5579H149.74C149.865 41.2883 150.054 41.0717 150.307 40.9081C150.561 40.7422 150.888 40.6593 151.289 40.6593C151.648 40.6593 151.963 40.733 152.232 40.8805C152.502 41.0256 152.711 41.2468 152.861 41.5441C153.011 41.839 153.086 42.2123 153.086 42.6639V46.0371H152.27V42.7192C152.27 42.3021 152.162 41.9772 151.945 41.7445C151.729 41.5095 151.432 41.392 151.054 41.392C150.793 41.392 150.561 41.4484 150.356 41.5613C150.153 41.6743 149.993 41.839 149.875 42.0556C149.758 42.2722 149.699 42.5348 149.699 42.8436ZM157.715 38.9588L159.816 44.9173H159.899L162 38.9588H162.899L160.3 46.0371H159.415L156.816 38.9588H157.715ZM163.891 46.0371V40.7284H164.706V46.0371H163.891ZM164.306 39.8436C164.147 39.8436 164.009 39.7895 163.894 39.6812C163.781 39.5729 163.725 39.4427 163.725 39.2906C163.725 39.1386 163.781 39.0084 163.894 38.9001C164.009 38.7918 164.147 38.7376 164.306 38.7376C164.465 38.7376 164.6 38.7918 164.713 38.9001C164.829 39.0084 164.886 39.1386 164.886 39.2906C164.886 39.4427 164.829 39.5729 164.713 39.6812C164.6 39.7895 164.465 39.8436 164.306 39.8436ZM168.426 46.1477C167.915 46.1477 167.473 46.0348 167.102 45.809C166.734 45.5809 166.449 45.2629 166.249 44.8551C166.051 44.445 165.952 43.968 165.952 43.4242C165.952 42.8805 166.051 42.4012 166.249 41.9865C166.449 41.5694 166.728 41.2445 167.085 41.0118C167.445 40.7768 167.864 40.6593 168.343 40.6593C168.62 40.6593 168.893 40.7054 169.162 40.7975C169.432 40.8897 169.677 41.0395 169.899 41.2468C170.12 41.4519 170.296 41.7238 170.427 42.0625C170.559 42.4012 170.624 42.8182 170.624 43.3136V43.6593H166.532V42.9542H169.795C169.795 42.6547 169.735 42.3874 169.615 42.1524C169.498 41.9173 169.329 41.7319 169.111 41.5959C168.894 41.46 168.638 41.392 168.343 41.392C168.018 41.392 167.737 41.4726 167.5 41.6339C167.265 41.7929 167.084 42.0003 166.957 42.256C166.831 42.5118 166.767 42.786 166.767 43.0786V43.5487C166.767 43.9496 166.836 44.2894 166.975 44.5682C167.115 44.8447 167.31 45.0556 167.559 45.2007C167.808 45.3436 168.097 45.415 168.426 45.415C168.64 45.415 168.834 45.385 169.007 45.3251C169.182 45.2629 169.333 45.1708 169.46 45.0486C169.586 44.9242 169.684 44.7698 169.753 44.5855L170.541 44.8067C170.458 45.074 170.319 45.309 170.123 45.5118C169.927 45.7122 169.685 45.8689 169.397 45.9818C169.109 46.0924 168.786 46.1477 168.426 46.1477ZM173.068 46.0371L171.45 40.7284H172.308L173.455 44.7929H173.51L174.644 40.7284H175.515L176.635 44.7791H176.69L177.837 40.7284H178.695L177.077 46.0371H176.275L175.114 41.9588H175.031L173.87 46.0371H173.068Z" fill="#858E96"/>
<circle cx="89.106" cy="92.4444" r="4.96388" fill="white"/>
<circle cx="89.1056" cy="92.4443" r="4.51262" fill="#F7AE59"/>
<circle cx="81.4346" cy="92.4444" r="4.96388" fill="white"/>
<circle cx="81.434" cy="92.4443" r="4.51262" fill="#8CC1FF"/>
<circle cx="73.3115" cy="92.4444" r="4.96388" fill="white"/>
<circle cx="73.3117" cy="92.4443" r="4.51262" fill="#2C435F"/>
<rect x="37.238" y="84.1787" width="23.984" height="16.3369" rx="2.60695" fill="white" stroke="#DEE2E6" stroke-width="0.347594"/>
<circle cx="48.8824" cy="92.3478" r="4.86631" stroke="#FCBE1D" stroke-width="0.695187" stroke-linecap="round" stroke-dasharray="0 13.9 0 6.95"/>
<path d="M51.2007 89.3557C50.5321 88.8376 49.7093 88.5583 48.8634 88.5625C48.0176 88.5668 47.1975 88.8542 46.5341 89.379L48.8823 92.3474L51.2007 89.3557Z" fill="#FCBE1D"/>
<path d="M46.5576 95.3396C47.2262 95.8578 48.049 96.137 48.8949 96.1328C49.7407 96.1285 50.5608 95.8411 51.2242 95.3163L48.876 92.3479L46.5576 95.3396Z" fill="#FCBE1D"/>
<rect x="14.8181" y="84.0049" width="16.6845" height="16.6845" rx="2.78075" fill="#FFEDD5"/>
<rect x="18.9893" y="88.1758" width="7.64706" height="7.64706" rx="3.47594" fill="#FFEDD5"/>
<path d="M24.9636 94.5492C24.8521 94.5492 24.7579 94.5107 24.6809 94.4337C24.6039 94.3567 24.5654 94.2624 24.5654 94.1509V89.8495C24.5654 89.7379 24.6039 89.6437 24.6809 89.5667C24.7579 89.4897 24.8521 89.4512 24.9636 89.4512C25.0752 89.4512 25.1694 89.4897 25.2464 89.5667C25.3234 89.6437 25.3619 89.7379 25.3619 89.8495V94.1509C25.3619 94.2624 25.3234 94.3567 25.2464 94.4337C25.1694 94.5107 25.0752 94.5492 24.9636 94.5492ZM20.9888 94.5492C20.9304 94.5492 20.8759 94.5386 20.8255 94.5173C20.775 94.4961 20.7325 94.4682 20.698 94.4337C20.6635 94.3992 20.6356 94.3567 20.6144 94.3063C20.5931 94.2558 20.5825 94.204 20.5825 94.1509V93.0357C20.5825 92.9242 20.621 92.83 20.698 92.7529C20.775 92.6759 20.8693 92.6374 20.9808 92.6374C21.0923 92.6374 21.1866 92.6759 21.2636 92.7529C21.3406 92.83 21.3791 92.9242 21.3791 93.0357V94.1509C21.3791 94.204 21.3685 94.2558 21.3472 94.3063C21.326 94.3567 21.2981 94.3992 21.2636 94.4337C21.2291 94.4682 21.1879 94.4961 21.1401 94.5173C21.0923 94.5386 21.0419 94.5492 20.9888 94.5492ZM22.9722 94.5492C22.8607 94.5492 22.7664 94.5107 22.6894 94.4337C22.6124 94.3567 22.5739 94.2624 22.5739 94.1509V91.4426C22.5739 91.3311 22.6124 91.2368 22.6894 91.1598C22.7664 91.0828 22.8607 91.0443 22.9722 91.0443C23.0837 91.0443 23.178 91.0828 23.255 91.1598C23.332 91.2368 23.3705 91.3311 23.3705 91.4426V94.1509C23.3705 94.2624 23.332 94.3567 23.255 94.4337C23.178 94.5107 23.0837 94.5492 22.9722 94.5492Z" fill="#FF6B00"/>
</g>
<rect x="14" y="55" width="237" height="5" rx="2.5" fill="#EBEBEB"/>
<rect x="14" y="66" width="237" height="5" rx="2.5" fill="#E2E2E2"/>
<defs>
<filter id="filter0_d_1295_41552" x="22.2193" y="0.219251" width="265.561" height="89.6787" filterUnits="userSpaceOnUse" color-interpolation-filters="sRGB">
<feFlood flood-opacity="0" result="BackgroundImageFix"/>
<feColorMatrix in="SourceAlpha" type="matrix" values="0 0 0 0 0 0 0 0 0 0 0 0 0 0 0 0 0 0 127 0" result="hardAlpha"/>
<feOffset/>
<feGaussianBlur stdDeviation="1.39037"/>
<feComposite in2="hardAlpha" operator="out"/>
<feColorMatrix type="matrix" values="0 0 0 0 0 0 0 0 0 0 0 0 0 0 0 0 0 0 0.2 0"/>
<feBlend mode="normal" in2="BackgroundImageFix" result="effect1_dropShadow_1295_41552"/>
<feBlend mode="normal" in="SourceGraphic" in2="effect1_dropShadow_1295_41552" result="shape"/>
</filter>
<filter id="filter1_d_1295_41552" x="0.219251" y="24.2193" width="265.561" height="89.6787" filterUnits="userSpaceOnUse" color-interpolation-filters="sRGB">
<feFlood flood-opacity="0" result="BackgroundImageFix"/>
<feColorMatrix in="SourceAlpha" type="matrix" values="0 0 0 0 0 0 0 0 0 0 0 0 0 0 0 0 0 0 127 0" result="hardAlpha"/>
<feOffset/>
<feGaussianBlur stdDeviation="1.39037"/>
<feComposite in2="hardAlpha" operator="out"/>
<feColorMatrix type="matrix" values="0 0 0 0 0 0 0 0 0 0 0 0 0 0 0 0 0 0 0.2 0"/>
<feBlend mode="normal" in2="BackgroundImageFix" result="effect1_dropShadow_1295_41552"/>
<feBlend mode="normal" in="SourceGraphic" in2="effect1_dropShadow_1295_41552" result="shape"/>
</filter>
</defs>
</svg>
