<svg id="Layer_1" data-name="Layer 1" xmlns="http://www.w3.org/2000/svg" viewBox="0 0 801.48 135.21"><defs><style>.cls-1{fill:#0046ff;}.cls-2{fill:#fff;}</style></defs><path class="cls-1" d="M60.41,8.19a60.42,60.42,0,1,0,60.42,60.42A60.42,60.42,0,0,0,60.41,8.19ZM61.68,118c-7.23,1-19-.82-27-5.86A36.6,36.6,0,0,1,20.88,96.56c-2.76-5.72-4.06-12.66-1.12-12.32C21.13,84.4,22.32,87,25,90.4c1.82,2.32,3.49,4.27,4.74,4.54.57.12,1-.14,1.43-.9.76-1.44,1.76-4.17,3.58-6.38C36.18,86,38,85.18,39,89.31a57.55,57.55,0,0,1,1.11,6c.32,2.61.49,4.17,1.4,4.61s2.34-.12,4.72-1c1.71-.64,3.9-1.45,6.67-2.24,2.56-.73,4.18-.35,2.54,3.61a35.66,35.66,0,0,1-4.32,7.43,1.43,1.43,0,0,0,.21,2,20.22,20.22,0,0,0,5.33,3,46.84,46.84,0,0,0,5.5,1.91C64.41,115.33,64,117.63,61.68,118Zm31-13c-2.24,3.66-7,7.61-12.68,10.25-.87.39-1.79.26-2-.44s.29-1.32.85-2c7.45-9.66,1.92-18.52-10.11-25.4-8.88-5.08-14.53-8-21.09-11.86-19.21-11.31-22.92-21.16-23.67-27-1.89-14.72,10.28-25.75,22.8-28.41.39-.08,1.39-.24,1.71.59s-.42,1.44-.85,1.7C42,25.49,36.5,32,37.1,39.31c.33,4.06,2.07,9.9,13.06,17.74,6.63,4.73,14.76,8.61,31.14,18.43C98.61,85.86,96.64,98.51,92.67,105ZM95.38,49.7c-3.95,4.84-7.9,3-10.94-3.77-1.9-4.25-4.39-5.27-6.15-4.16-1.92,1.21-1.16,4.13,1,7.48a5.13,5.13,0,0,1-.69,6.3,7.15,7.15,0,0,1-6.79,1.64c-4.87-1.08-9.66-7.6-6.16-21.85,1.41-5.74-1.35-8.2-3.1-10.41-.87-1.11-1-1.78-.66-2.22s1.16-.52,2.59-.22c1.88.39,4.66,1.35,6.92,1.7a25.87,25.87,0,0,0,5,.23,23.59,23.59,0,0,1,12.1,2.38c6.22,3.08,6.85,8.38,3.39,8a15.65,15.65,0,0,1-4-1.67c-.85-.41-1.59-.55-2.13-.15a1.51,1.51,0,0,0-.36,1.9c.77,1.63,3.38,2.47,6.92,3.44C98.49,40,98.62,45.74,95.38,49.7Z"/><path class="cls-2" d="M61.68,118c-7.23,1-19-.82-27-5.86A36.6,36.6,0,0,1,20.88,96.56c-2.76-5.72-4.06-12.66-1.12-12.32C21.13,84.4,22.32,87,25,90.4c1.82,2.32,3.49,4.27,4.74,4.54.57.12,1-.14,1.43-.9.76-1.44,1.76-4.17,3.58-6.38C36.18,86,38,85.18,39,89.31a57.55,57.55,0,0,1,1.11,6c.32,2.61.49,4.17,1.4,4.61s2.34-.12,4.72-1c1.71-.64,3.9-1.45,6.67-2.24,2.56-.73,4.18-.35,2.54,3.61a35.66,35.66,0,0,1-4.32,7.43,1.43,1.43,0,0,0,.21,2,20.22,20.22,0,0,0,5.33,3,46.84,46.84,0,0,0,5.5,1.91C64.41,115.33,64,117.63,61.68,118Zm31-13c-2.24,3.66-7,7.61-12.68,10.25-.87.39-1.79.26-2-.44s.29-1.32.85-2c7.45-9.66,1.92-18.52-10.11-25.4-8.88-5.08-14.53-8-21.09-11.86-19.21-11.31-22.92-21.16-23.67-27-1.89-14.72,10.28-25.75,22.8-28.41.39-.08,1.39-.24,1.71.59s-.42,1.44-.85,1.7C42,25.49,36.5,32,37.1,39.31c.33,4.06,2.07,9.9,13.06,17.74,6.63,4.73,14.76,8.61,31.14,18.43C98.61,85.86,96.64,98.51,92.67,105ZM95.38,49.7c-3.95,4.84-7.9,3-10.94-3.77-1.9-4.25-4.39-5.27-6.15-4.16-1.92,1.21-1.16,4.13,1,7.48a5.13,5.13,0,0,1-.69,6.3,7.15,7.15,0,0,1-6.79,1.64c-4.87-1.08-9.66-7.6-6.16-21.85,1.41-5.74-1.35-8.2-3.1-10.41-.87-1.11-1-1.78-.66-2.22s1.16-.52,2.59-.22c1.88.39,4.66,1.35,6.92,1.7a25.87,25.87,0,0,0,5,.23,23.59,23.59,0,0,1,12.1,2.38c6.22,3.08,6.85,8.38,3.39,8a15.65,15.65,0,0,1-4-1.67c-.85-.41-1.59-.55-2.13-.15a1.51,1.51,0,0,0-.36,1.9c.77,1.63,3.38,2.47,6.92,3.44C98.49,40,98.62,45.74,95.38,49.7Z"/><path class="cls-1" d="M147.07,89.88A26.49,26.49,0,0,0,151.88,93a40.7,40.7,0,0,0,5.52,2.33A42.16,42.16,0,0,0,163,96.78a27.45,27.45,0,0,0,5.13.52c3.87,0,6.91-.81,9.09-2.43s3.29-4,3.29-7.28a10.85,10.85,0,0,0-1.76-6.28q-1.77-2.58-6.52-5-2.76-1.42-5.24-2.57c-1.65-.76-3.23-1.55-4.76-2.38s-3-1.7-4.42-2.62a45.6,45.6,0,0,1-4.24-3.09,30,30,0,0,1-6.09-7.48,20,20,0,0,1-2.38-10.13,17.3,17.3,0,0,1,1.66-7.57,16.8,16.8,0,0,1,4.81-6,23.36,23.36,0,0,1,7.66-3.86,35.11,35.11,0,0,1,10.24-1.37,54.62,54.62,0,0,1,22,4.18V45.23a1.55,1.55,0,0,1-1,1.67,2,2,0,0,1-2-.52,26.05,26.05,0,0,0-17.14-6.57c-3.42,0-6,.72-7.85,2.19a7.36,7.36,0,0,0-2.71,6.09,10.93,10.93,0,0,0,.95,4.76,10,10,0,0,0,2.85,3.52,47.23,47.23,0,0,0,7.76,5.14q4.14,2.19,8.14,4.09a43.21,43.21,0,0,1,6.61,3.72A22.13,22.13,0,0,1,192,73.89a17.94,17.94,0,0,1,3.1,5.85,25.53,25.53,0,0,1,1,7.66A18.81,18.81,0,0,1,194,96.68a18.15,18.15,0,0,1-5.95,6.38,26.31,26.31,0,0,1-8.9,3.66,49.69,49.69,0,0,1-10.89,1.15,44.29,44.29,0,0,1-8.9-1,47.7,47.7,0,0,1-8.24-2.43,20.66,20.66,0,0,1-5.71-3.29c-1.39-1.2-1.84-2.41-1.33-3.62Z"/><path class="cls-1" d="M204.66,30.35h16.28V56.9a24.36,24.36,0,0,1,6.75-4A22.15,22.15,0,0,1,236,51.38a25.15,25.15,0,0,1,8.14,1.24,18.76,18.76,0,0,1,6.29,3.47,15.4,15.4,0,0,1,4,5.38,16.61,16.61,0,0,1,1.43,7v38.26H240.93V70.42q0-7.9-8.67-7.9a14.65,14.65,0,0,0-5.71,1.16,29,29,0,0,0-5.61,3.22v39.78H206V39.86a12.69,12.69,0,0,0-.48-3.9,8.16,8.16,0,0,0-1.9-3,1.66,1.66,0,0,1-.43-1.86A1.55,1.55,0,0,1,204.66,30.35Z"/><path class="cls-1" d="M284,53.19v53.49H269V62.61a11,11,0,0,0-.52-3.71A9.57,9.57,0,0,0,266.62,56a1.77,1.77,0,0,1-.47-1.9,1.42,1.42,0,0,1,1.43-.86Zm.57-16.94A8.87,8.87,0,0,1,282,42.72a9.56,9.56,0,0,1-13,0,8.86,8.86,0,0,1-2.52-6.47A8.9,8.9,0,0,1,269,29.77a9.56,9.56,0,0,1,13,0A8.91,8.91,0,0,1,284.52,36.25Z"/><path class="cls-1" d="M296.13,53.19H312v5.24a32.49,32.49,0,0,1,6.62-5,17.19,17.19,0,0,1,8.7-2.1,25.33,25.33,0,0,1,7.91,1.19,18.82,18.82,0,0,1,6.33,3.48,15.76,15.76,0,0,1,4.23,5.66,18.79,18.79,0,0,1,1.52,7.76v37.21H332.4V70.8c0-3-.68-5.25-2-6.62s-3.56-2-6.61-2a14.12,14.12,0,0,0-5.9,1.24,21.06,21.06,0,0,0-5.34,3.52v39.78H297.56V62.8a12,12,0,0,0-.52-3.9A9.57,9.57,0,0,0,295.18,56c-.63-.69-.81-1.33-.52-1.9A1.51,1.51,0,0,1,296.13,53.19Z"/><path class="cls-1" d="M358.67,30.35H375V56.9a24.27,24.27,0,0,1,6.76-4A22.08,22.08,0,0,1,390,51.38a25.24,25.24,0,0,1,8.14,1.24,18.81,18.81,0,0,1,6.28,3.47,15.4,15.4,0,0,1,4,5.38,16.46,16.46,0,0,1,1.43,7v38.26H394.94V70.42q0-7.9-8.66-7.9a14.65,14.65,0,0,0-5.71,1.16A28.76,28.76,0,0,0,375,66.9v39.78H360V39.86a12.73,12.73,0,0,0-.47-3.9,8.29,8.29,0,0,0-1.9-3c-.58-.7-.72-1.32-.43-1.86A1.52,1.52,0,0,1,358.67,30.35Z"/><path class="cls-1" d="M443.77,61.38A23.78,23.78,0,0,0,435.1,63a41.51,41.51,0,0,0-7.52,3.76c-1.08.7-1.9.89-2.47.57s-.86-1-.86-2.09V55.34a44.5,44.5,0,0,1,9.95-2.92,58.72,58.72,0,0,1,10.52-1q11.13,0,17.18,4.28T468,68.9v37.78H453.28v-5.8a18.89,18.89,0,0,1-7.42,5.71,23.15,23.15,0,0,1-9.14,1.81,21.08,21.08,0,0,1-7.33-1.24,15.8,15.8,0,0,1-9.33-8.8,17.47,17.47,0,0,1-1.33-6.9q0-8.56,6-13.57t18.61-5H453v-4c0-2.69-.79-4.6-2.38-5.75S446.75,61.38,443.77,61.38ZM453,82.89h-9.71q-5.52,0-7.85,2.27a8.05,8.05,0,0,0-2.34,6,7.21,7.21,0,0,0,1.77,5.06A6.49,6.49,0,0,0,440,98.21a15.94,15.94,0,0,0,7.23-1.66A18.74,18.74,0,0,0,453,92Z"/><path class="cls-1" d="M479,53.19h15.9v5.24a32.7,32.7,0,0,1,6.61-5,17.26,17.26,0,0,1,8.71-2.1,25.33,25.33,0,0,1,7.91,1.19,18.68,18.68,0,0,1,6.32,3.48,15.78,15.78,0,0,1,4.24,5.66,18.79,18.79,0,0,1,1.52,7.76v37.21H515.26V70.8c0-3-.69-5.25-2-6.62s-3.57-2-6.61-2a14.12,14.12,0,0,0-5.9,1.24,20.89,20.89,0,0,0-5.34,3.52v39.78H480.42V62.8a11.7,11.7,0,0,0-.53-3.9A9.53,9.53,0,0,0,478,56c-.63-.69-.81-1.33-.52-1.9A1.5,1.5,0,0,1,479,53.19Z"/><path class="cls-1" d="M562,32.44h26.19a40.74,40.74,0,0,1,10.56,1.28,23.91,23.91,0,0,1,8,3.72,16.91,16.91,0,0,1,5.09,5.9,16.5,16.5,0,0,1,1.82,7.75q0,10.86-8.38,15.9a19.61,19.61,0,0,1,9.09,6.62q3.29,4.42,3.28,11.85a20,20,0,0,1-2,9.23,18.57,18.57,0,0,1-5.76,6.67,26.52,26.52,0,0,1-9,4,47,47,0,0,1-11.61,1.33h-25.9V42.05a11.65,11.65,0,0,0-.52-3.9A9.69,9.69,0,0,0,561,35.2a1.79,1.79,0,0,1-.47-1.9A1.4,1.4,0,0,1,562,32.44Zm16.95,30.27h8.19q5.43,0,8.23-2.19t2.81-7.61c0-3.62-.95-6.17-2.86-7.67S590.57,43,586.83,43h-7.9ZM601.68,84.6c0-4-1.09-6.88-3.29-8.66s-5.53-2.67-10-2.67h-9.42V96.12h9.52c4.5,0,7.84-.92,10-2.76S601.68,88.6,601.68,84.6Z"/><path class="cls-1" d="M648.89,61.38A23.69,23.69,0,0,0,640.23,63a40.87,40.87,0,0,0-7.52,3.76c-1.08.7-1.91.89-2.48.57s-.85-1-.85-2.09V55.34a44.41,44.41,0,0,1,9.94-2.92,58.81,58.81,0,0,1,10.52-1q11.14,0,17.18,4.28t6.05,13.24v37.78H658.41v-5.8a19,19,0,0,1-7.43,5.71,23.14,23.14,0,0,1-9.13,1.81,21,21,0,0,1-7.33-1.24,16.15,16.15,0,0,1-5.67-3.47,16.42,16.42,0,0,1-3.67-5.33,17.47,17.47,0,0,1-1.32-6.9q0-8.56,6-13.57t18.61-5h9.61v-4c0-2.69-.79-4.6-2.38-5.75S651.87,61.38,648.89,61.38Zm9.23,21.51h-9.7c-3.69,0-6.3.76-7.86,2.27a8,8,0,0,0-2.33,6A7.2,7.2,0,0,0,640,96.27a6.49,6.49,0,0,0,5.09,1.94,16,16,0,0,0,7.24-1.66,18.7,18.7,0,0,0,5.8-4.52Z"/><path class="cls-1" d="M684.12,53.19H700v5.24a32.49,32.49,0,0,1,6.62-5,17.19,17.19,0,0,1,8.7-2.1,25.28,25.28,0,0,1,7.91,1.19,18.72,18.72,0,0,1,6.33,3.48,15.76,15.76,0,0,1,4.23,5.66,18.63,18.63,0,0,1,1.52,7.76v37.21H720.38V70.8c0-3-.68-5.25-2-6.62s-3.56-2-6.61-2a14.19,14.19,0,0,0-5.9,1.24,20.84,20.84,0,0,0-5.33,3.52v39.78h-15V62.8a11.73,11.73,0,0,0-.52-3.9A9.57,9.57,0,0,0,683.16,56c-.63-.69-.81-1.33-.52-1.9A1.52,1.52,0,0,1,684.12,53.19Z"/><path class="cls-1" d="M748,106.68V39.86a12.69,12.69,0,0,0-.48-3.9,8.29,8.29,0,0,0-1.9-3c-.57-.7-.72-1.32-.43-1.86a1.52,1.52,0,0,1,1.47-.8h16.28V74.13l18.94-20.94H799L778.54,76l22.94,30.65H785L768.55,84.32A8.94,8.94,0,0,0,766.4,82a4.27,4.27,0,0,0-2.14-.47h-1.33v25.12Z"/></svg>