<svg xmlns="http://www.w3.org/2000/svg" width="1440" height="1450" viewBox="0 0 1440 1450" role="img" aria-label="Operations dashboard wireframe"><style>
  .bg{fill:#f7f7f7}.panel{fill:#fff;stroke:#c7c7c7;stroke-width:1}.soft{fill:#ededed}.dark{fill:#505050}.mid{fill:#929292}.line{stroke:#d5d5d5;stroke-width:1}.dash{stroke:#aaa;stroke-width:1;stroke-dasharray:4 4}
  text{font-family:Arial,Helvetica,sans-serif;fill:#333;font-size:13px}.title{font-size:22px;font-weight:700}.section{font-size:15px;font-weight:700}.small{font-size:11px;fill:#666}.tiny{font-size:10px;fill:#666}.num{font-size:24px;font-weight:700}.badge{font-size:10px;fill:#444;font-weight:700}.tab{font-size:13px;font-weight:700}
</style><rect x="0" y="0" width="1440" height="1450" rx="0" class="bg"/><text x="32" y="40" class="title">Operations Dashboard · Deep tabs</text><text x="32" y="64" class="small">Three tab destinations shown together for review. Each is a separate screen in the product.</text><rect x="32" y="85" width="1376" height="415" rx="7" class="panel"/><text x="50" y="116" class="section">PROJECTS</text><rect x="1303" y="98" width="60" height="19" rx="9" class="soft"/><text x="1310" y="111" class="badge">Hiện tại</text><text x="50" y="142" class="">Distinct totals: Open —  ·  Overdue —  ·  Blocked —</text><rect x="1100" y="124" width="60" height="19" rx="9" class="soft"/><text x="1107" y="137" class="badge">Trong kỳ</text><text x="1190" y="140" class="small">Done —</text><rect x="50" y="158" width="410" height="36" rx="7" class="soft"/><text x="64" y="181" class="small">Search project…</text><rect x="474" y="158" width="155" height="36" rx="7" class="soft"/><text x="487" y="181" class="small">Sort: Overdue ▾</text><rect x="641" y="158" width="188" height="36" rx="7" class="soft"/><text x="652" y="181" class="small">Running cycles only</text><rect x="841" y="158" width="124" height="36" rx="7" class="soft"/><text x="852" y="181" class="small">At risk only</text><text x="1278" y="181" class="small">⋯ Export</text><line x1="50" y1="211" x2="1390" y2="211" class="line"/><text x="50" y="237" class="">Project</text><text x="294" y="237" class="">Cycles</text><text x="412" y="237" class="">Total</text><text x="495" y="237" class="">Open</text><text x="575" y="237" class="">Started</text><text x="669" y="237" class="">Overdue</text><text x="773" y="237" class="">Blocked</text><text x="878" y="237" class="">Done now</text><text x="981" y="237" class="">Done / period</text><text x="1110" y="237" class="">Progress</text><text x="1277" y="237" class="">Next due</text><line x1="50" y1="285" x2="1390" y2="285" class="line"/><text x="50" y="271" class="">Platform</text><rect x="285" y="256" width="60" height="19" rx="9" class="soft"/><text x="292" y="269" class="badge">2 cycles</text><text x="412" y="271" class="small">—</text><text x="495" y="271" class="small">—</text><text x="575" y="271" class="small">—</text><text x="669" y="271" class="small">—</text><text x="773" y="271" class="small">—</text><text x="878" y="271" class="small">—</text><text x="981" y="271" class="small">—</text><rect x="1110" y="260" width="110" height="10" rx="3" class="soft"/><rect x="1110" y="260" width="51" height="10" rx="3" class="mid"/><text x="1277" y="271" class="small">—</text><line x1="50" y1="327" x2="1390" y2="327" class="line"/><text x="50" y="313" class="">Mobile</text><rect x="285" y="298" width="60" height="19" rx="9" class="soft"/><text x="292" y="311" class="badge">2 cycles</text><text x="412" y="313" class="small">—</text><text x="495" y="313" class="small">—</text><text x="575" y="313" class="small">—</text><text x="669" y="313" class="small">—</text><text x="773" y="313" class="small">—</text><text x="878" y="313" class="small">—</text><text x="981" y="313" class="small">—</text><rect x="1110" y="302" width="110" height="10" rx="3" class="soft"/><rect x="1110" y="302" width="51" height="10" rx="3" class="mid"/><text x="1277" y="313" class="small">—</text><line x1="50" y1="369" x2="1390" y2="369" class="line"/><text x="50" y="355" class="">Internal</text><rect x="285" y="340" width="60" height="19" rx="9" class="soft"/><text x="292" y="353" class="badge">2 cycles</text><text x="412" y="355" class="small">—</text><text x="495" y="355" class="small">—</text><text x="575" y="355" class="small">—</text><text x="669" y="355" class="small">—</text><text x="773" y="355" class="small">—</text><text x="878" y="355" class="small">—</text><text x="981" y="355" class="small">—</text><rect x="1110" y="344" width="110" height="10" rx="3" class="soft"/><rect x="1110" y="344" width="51" height="10" rx="3" class="mid"/><text x="1277" y="355" class="small">—</text><line x1="50" y1="411" x2="1390" y2="411" class="line"/><text x="50" y="397" class="">Website</text><rect x="285" y="382" width="60" height="19" rx="9" class="soft"/><text x="292" y="395" class="badge">2 cycles</text><text x="412" y="397" class="small">—</text><text x="495" y="397" class="small">—</text><text x="575" y="397" class="small">—</text><text x="669" y="397" class="small">—</text><text x="773" y="397" class="small">—</text><text x="878" y="397" class="small">—</text><text x="981" y="397" class="small">—</text><rect x="1110" y="386" width="110" height="10" rx="3" class="soft"/><rect x="1110" y="386" width="51" height="10" rx="3" class="mid"/><text x="1277" y="397" class="small">—</text><line x1="50" y1="453" x2="1390" y2="453" class="line"/><text x="50" y="439" class="">API</text><rect x="285" y="424" width="60" height="19" rx="9" class="soft"/><text x="292" y="437" class="badge">2 cycles</text><text x="412" y="439" class="small">—</text><text x="495" y="439" class="small">—</text><text x="575" y="439" class="small">—</text><text x="669" y="439" class="small">—</text><text x="773" y="439" class="small">—</text><text x="878" y="439" class="small">—</text><text x="981" y="439" class="small">—</text><rect x="1110" y="428" width="110" height="10" rx="3" class="soft"/><rect x="1110" y="428" width="51" height="10" rx="3" class="mid"/><text x="1277" y="439" class="small">—</text><text x="50" y="482" class="small">Page 1 / N   ·   View project →   ·   metric cells open a filtered issue drawer when contract is ready</text><rect x="32" y="518" width="1376" height="414" rx="7" class="panel"/><text x="50" y="549" class="section">WORKLOAD</text><rect x="1303" y="532" width="60" height="19" rx="9" class="soft"/><text x="1310" y="545" class="badge">Hiện tại</text><text x="50" y="577" class="">Distinct open —   ·   Row counts give each assignee full credit; their sum may exceed distinct work.</text><rect x="50" y="592" width="410" height="36" rx="7" class="soft"/><text x="64" y="615" class="small">Search member…</text><rect x="474" y="592" width="156" height="36" rx="7" class="soft"/><text x="488" y="615" class="small">Sort: Overdue ▾</text><rect x="643" y="592" width="194" height="36" rx="7" class="soft"/><text x="655" y="615" class="small">WIP threshold: 5 ▾</text><text x="1265" y="614" class="small">⋯ Export</text><line x1="50" y1="644" x2="1390" y2="644" class="line"/><text x="50" y="670" class="">Member</text><text x="380" y="670" class="">Open</text><text x="485" y="670" class="">Started</text><text x="603" y="670" class="">Overdue</text><text x="722" y="670" class="">Blocked</text><text x="836" y="670" class="">Due 7d</text><text x="950" y="670" class="">Done / period</text><text x="1105" y="670" class="">WIP</text><text x="1243" y="670" class="">Detail</text><line x1="50" y1="720" x2="1390" y2="720" class="line"/><rect x="50" y="689" width="22" height="22" rx="11" class="soft"/><text x="82" y="706" class="">Avery</text><text x="380" y="706" class="small">—</text><text x="485" y="706" class="small">—</text><text x="603" y="706" class="small">—</text><text x="722" y="706" class="small">—</text><text x="836" y="706" class="small">—</text><text x="950" y="706" class="small">—</text><rect x="1094" y="689" width="56" height="19" rx="9" class="soft"/><text x="1101" y="702" class="badge">WIP cao</text><text x="1243" y="706" class="small">View →</text><line x1="50" y1="764" x2="1390" y2="764" class="line"/><rect x="50" y="733" width="22" height="22" rx="11" class="soft"/><text x="82" y="750" class="">Morgan</text><text x="380" y="750" class="small">—</text><text x="485" y="750" class="small">—</text><text x="603" y="750" class="small">—</text><text x="722" y="750" class="small">—</text><text x="836" y="750" class="small">—</text><text x="950" y="750" class="small">—</text><rect x="1094" y="733" width="72" height="19" rx="9" class="soft"/><text x="1101" y="746" class="badge">Within WIP</text><text x="1243" y="750" class="small">View →</text><line x1="50" y1="808" x2="1390" y2="808" class="line"/><rect x="50" y="777" width="22" height="22" rx="11" class="soft"/><text x="82" y="794" class="">Jordan</text><text x="380" y="794" class="small">—</text><text x="485" y="794" class="small">—</text><text x="603" y="794" class="small">—</text><text x="722" y="794" class="small">—</text><text x="836" y="794" class="small">—</text><text x="950" y="794" class="small">—</text><rect x="1094" y="777" width="72" height="19" rx="9" class="soft"/><text x="1101" y="790" class="badge">Within WIP</text><text x="1243" y="794" class="small">View →</text><line x1="50" y1="852" x2="1390" y2="852" class="line"/><rect x="50" y="821" width="22" height="22" rx="11" class="soft"/><text x="82" y="838" class="">Taylor</text><text x="380" y="838" class="small">—</text><text x="485" y="838" class="small">—</text><text x="603" y="838" class="small">—</text><text x="722" y="838" class="small">—</text><text x="836" y="838" class="small">—</text><text x="950" y="838" class="small">—</text><rect x="1094" y="821" width="72" height="19" rx="9" class="soft"/><text x="1101" y="834" class="badge">Within WIP</text><text x="1243" y="838" class="small">View →</text><line x1="50" y1="879" x2="1390" y2="879" class="line"/><text x="50" y="900" class="small">Unassigned: — open / — overdue      Inactive former members: — open      Page 1 / N</text><rect x="32" y="950" width="1376" height="461" rx="7" class="panel"/><text x="50" y="982" class="section">TIMELINE</text><rect x="1303" y="965" width="60" height="19" rx="9" class="soft"/><text x="1310" y="978" class="badge">Trong kỳ</text><text x="50" y="1008" class="">Project cycles</text><text x="665" y="1008" class="small">Zoom: Week  |  Month  |  Quarter</text><text x="948" y="1008" class="section">Deadlines · next 7 days</text><rect x="1304" y="992" width="60" height="19" rx="9" class="soft"/><text x="1311" y="1005" class="badge">Hiện tại</text><line x1="50" y1="1021" x2="1390" y2="1021" class="line"/><line x1="930" y1="1021" x2="930" y2="1336" class="line"/><text x="50" y="1046" class="">Cycle / project</text><text x="411" y="1046" class="small">Start             Today              End</text><line x1="596" y1="1054" x2="596" y2="1277" class="dash"/><text x="50" y="1081" class="small">Cycle 1 · Project</text><rect x="294" y="1068" width="330" height="17" rx="3" class="soft"/><rect x="294" y="1068" width="110" height="17" rx="3" class="mid"/><text x="802" y="1081" class="small">—%</text><text x="50" y="1120" class="small">Cycle 2 · Project</text><rect x="314" y="1107" width="296" height="17" rx="3" class="soft"/><rect x="314" y="1107" width="118" height="17" rx="3" class="mid"/><text x="802" y="1120" class="small">—%</text><text x="50" y="1159" class="small">Cycle 3 · Project</text><rect x="334" y="1146" width="262" height="17" rx="3" class="soft"/><rect x="334" y="1146" width="126" height="17" rx="3" class="mid"/><text x="802" y="1159" class="small">—%</text><text x="50" y="1198" class="small">Cycle 4 · Project</text><rect x="354" y="1185" width="228" height="17" rx="3" class="soft"/><rect x="354" y="1185" width="134" height="17" rx="3" class="mid"/><text x="802" y="1198" class="small">—%</text><text x="50" y="1237" class="small">Cycle 5 · Project</text><rect x="374" y="1224" width="194" height="17" rx="3" class="soft"/><rect x="374" y="1224" width="142" height="17" rx="3" class="mid"/><text x="802" y="1237" class="small">—%</text><text x="950" y="1078" class="small">PROJ-1   Issue title</text><text x="950" y="1093" class="tiny">Project · Owner · Priority</text><text x="1325" y="1080" class="small">Oct 01</text><line x1="950" y1="1101" x2="1390" y2="1101" class="line"/><text x="950" y="1118" class="small">PROJ-2   Issue title</text><text x="950" y="1133" class="tiny">Project · Owner · Priority</text><text x="1325" y="1120" class="small">Oct 02</text><line x1="950" y1="1141" x2="1390" y2="1141" class="line"/><text x="950" y="1158" class="small">PROJ-3   Issue title</text><text x="950" y="1173" class="tiny">Project · Owner · Priority</text><text x="1325" y="1160" class="small">Oct 03</text><line x1="950" y1="1181" x2="1390" y2="1181" class="line"/><text x="950" y="1198" class="small">PROJ-4   Issue title</text><text x="950" y="1213" class="tiny">Project · Owner · Priority</text><text x="1325" y="1200" class="small">Oct 04</text><line x1="950" y1="1221" x2="1390" y2="1221" class="line"/><text x="950" y="1238" class="small">PROJ-5   Issue title</text><text x="950" y="1253" class="tiny">Project · Owner · Priority</text><text x="1325" y="1240" class="small">Oct 05</text><line x1="950" y1="1261" x2="1390" y2="1261" class="line"/><line x1="50" y1="1291" x2="1390" y2="1291" class="line"/><text x="50" y="1318" class="small">Unscheduled cycles: missing start/end · separate list; never positioned on date axis.</text><text x="50" y="1352" class="small">Cycles  ← 1 / N →     Deadlines  ← 1 / N →     Unscheduled  ← 1 / N →</text><text x="50" y="1382" class="small">Today marker uses current workspace date; cycle lanes intersect selected Period.</text></svg>
